<?xml version="1.0" encoding="utf-8" standalone="no"?>
<!DOCTYPE svg PUBLIC "-//W3C//DTD SVG 1.1//EN"
  "http://www.w3.org/Graphics/SVG/1.1/DTD/svg11.dtd">
<svg xmlns:xlink="http://www.w3.org/1999/xlink" width="432pt" height="351pt" viewBox="0 0 432 351" xmlns="http://www.w3.org/2000/svg" version="1.1">
 <metadata>
  <rdf:RDF xmlns:dc="http://purl.org/dc/elements/1.1/" xmlns:cc="http://creativecommons.org/ns#" xmlns:rdf="http://www.w3.org/1999/02/22-rdf-syntax-ns#">
   <cc:Work>
    <dc:type rdf:resource="http://purl.org/dc/dcmitype/StillImage"/>
    <dc:date>2024-08-22T11:58:39.306179</dc:date>
    <dc:format>image/svg+xml</dc:format>
    <dc:creator>
     <cc:Agent>
      <dc:title>Matplotlib v3.9.2, https://matplotlib.org/</dc:title>
     </cc:Agent>
    </dc:creator>
   </cc:Work>
  </rdf:RDF>
 </metadata>
 <defs>
  <style type="text/css">*{stroke-linejoin: round; stroke-linecap: butt}</style>
 </defs>
 <g id="figure_1">
  <g id="patch_1">
   <path d="M 0 351 
L 432 351 
L 432 0 
L 0 0 
L 0 351 
z
" style="fill: none"/>
  </g>
  <g id="axes_1">
   <g id="patch_2">
    <path d="M 54 312.39 
L 388.8 312.39 
L 388.8 42.12 
L 54 42.12 
L 54 312.39 
z
" style="fill: none"/>
   </g>
   <g id="patch_3">
    <path d="M 54 312.39 
L 388.8 312.39 
L 388.8 42.12 
L 54 42.12 
z
" clip-path="url(#pc4f77948cf)" style="fill: #d2d2d2; stroke: #000000; stroke-linejoin: miter"/>
   </g>
   <g id="matplotlib.axis_1"/>
   <g id="matplotlib.axis_2"/>
   <g id="text_1">
    <!-- $\xi=200$ -->
    <g style="fill: #030303" transform="translate(199.2 36.12) scale(0.12 -0.12)">
     <defs>
      <path id="DejaVuSans-Oblique-3be" d="M 2016 397 
Q 2428 394 2628 159 
Q 2844 -88 2772 -463 
Q 2700 -822 2422 -1072 
Q 2119 -1344 1609 -1344 
Q 1656 -1109 1700 -872 
Q 1913 -888 2072 -750 
Q 2194 -641 2216 -525 
Q 2247 -359 2175 -222 
Q 2100 -91 1922 -91 
Q -25 -91 241 1275 
Q 422 2213 1516 2488 
Q 663 2600 822 3413 
Q 941 4028 1678 4284 
L 1028 4284 
L 1141 4863 
L 3606 4863 
L 3494 4284 
Q 1528 4284 1350 3375 
Q 1234 2778 2881 2750 
L 2778 2219 
Q 1009 2288 819 1275 
Q 659 428 2016 397 
z
" transform="scale(0.015625)"/>
      <path id="DejaVuSans-3d" d="M 678 2906 
L 4684 2906 
L 4684 2381 
L 678 2381 
L 678 2906 
z
M 678 1631 
L 4684 1631 
L 4684 1100 
L 678 1100 
L 678 1631 
z
" transform="scale(0.015625)"/>
      <path id="DejaVuSans-32" d="M 1228 531 
L 3431 531 
L 3431 0 
L 469 0 
L 469 531 
Q 828 903 1448 1529 
Q 2069 2156 2228 2338 
Q 2531 2678 2651 2914 
Q 2772 3150 2772 3378 
Q 2772 3750 2511 3984 
Q 2250 4219 1831 4219 
Q 1534 4219 1204 4116 
Q 875 4013 500 3803 
L 500 4441 
Q 881 4594 1212 4672 
Q 1544 4750 1819 4750 
Q 2544 4750 2975 4387 
Q 3406 4025 3406 3419 
Q 3406 3131 3298 2873 
Q 3191 2616 2906 2266 
Q 2828 2175 2409 1742 
Q 1991 1309 1228 531 
z
" transform="scale(0.015625)"/>
      <path id="DejaVuSans-30" d="M 2034 4250 
Q 1547 4250 1301 3770 
Q 1056 3291 1056 2328 
Q 1056 1369 1301 889 
Q 1547 409 2034 409 
Q 2525 409 2770 889 
Q 3016 1369 3016 2328 
Q 3016 3291 2770 3770 
Q 2525 4250 2034 4250 
z
M 2034 4750 
Q 2819 4750 3233 4129 
Q 3647 3509 3647 2328 
Q 3647 1150 3233 529 
Q 2819 -91 2034 -91 
Q 1250 -91 836 529 
Q 422 1150 422 2328 
Q 422 3509 836 4129 
Q 1250 4750 2034 4750 
z
" transform="scale(0.015625)"/>
     </defs>
     <use xlink:href="#DejaVuSans-Oblique-3be" transform="translate(0 0.015625)"/>
     <use xlink:href="#DejaVuSans-3d" transform="translate(75.244141 0.015625)"/>
     <use xlink:href="#DejaVuSans-32" transform="translate(178.515625 0.015625)"/>
     <use xlink:href="#DejaVuSans-30" transform="translate(242.138672 0.015625)"/>
     <use xlink:href="#DejaVuSans-30" transform="translate(305.761719 0.015625)"/>
    </g>
   </g>
  </g>
  <g id="axes_2">
   <g id="patch_4">
    <path d="M 127.345333 181.097182 
C 127.297126 179.817022 127.273016 178.536068 127.273016 177.255 
C 127.273016 175.973932 127.297126 174.692978 127.345333 173.412818 
C 127.285065 174.692659 127.254919 175.973741 127.254919 177.255 
C 127.254919 178.536259 127.285065 179.817341 127.345333 181.097182 
" clip-path="url(#pc4f77948cf)" style="fill: #4682b4; opacity: 0.4; stroke: #4682b4; stroke-linejoin: miter"/>
   </g>
   <g id="patch_5">
    <path d="M 127.345333 173.412818 
C 127.842279 162.859733 130.381937 152.502598 134.82324 142.916703 
C 139.264544 133.330807 145.52371 124.696982 153.253074 117.494795 
C 160.982438 110.292608 170.036189 104.657922 179.911437 100.903718 
C 189.786685 97.149514 200.297139 95.346612 210.858994 95.595154 
C 221.42085 95.843696 231.834865 98.138993 241.522591 102.353554 
C 251.210318 106.568115 259.989003 112.622434 267.371035 120.180223 
C 274.753066 127.738013 280.599186 136.6567 284.584672 146.440895 
C 288.570157 156.22509 290.619825 166.69022 290.619825 177.255 
C 290.619825 187.81978 288.570157 198.28491 284.584672 208.069105 
C 280.599186 217.8533 274.753066 226.771987 267.371035 234.329777 
C 259.989003 241.887566 251.210318 247.941885 241.522591 252.156446 
C 231.834865 256.371007 221.42085 258.666304 210.858994 258.914846 
C 200.297139 259.163388 189.786685 257.360486 179.911437 253.606282 
C 170.036189 249.852078 160.982438 244.217392 153.253074 237.015205 
C 145.52371 229.813018 139.264544 221.179193 134.82324 211.593297 
C 130.381937 202.007402 127.842279 191.650267 127.345333 181.097182 
C 127.843801 194.334207 130.913509 207.348607 136.382922 219.413134 
C 141.852334 231.477661 149.61764 242.363328 159.244912 251.46184 
C 168.872184 260.560353 180.178694 267.699018 192.532631 272.478927 
C 204.886569 277.258836 218.053452 279.589263 231.297513 279.339985 
C 244.541574 279.090707 257.611437 276.266455 269.776754 271.025048 
C 281.942072 265.78364 292.971943 258.224562 302.250015 248.770216 
C 311.528087 239.315869 318.878261 228.145701 323.889806 215.883902 
C 328.901352 203.622103 331.479148 190.501407 331.479148 177.255 
C 331.479148 164.008593 328.901352 150.887897 323.889806 138.626098 
C 318.878261 126.364299 311.528087 115.194131 302.250015 105.739784 
C 292.971943 96.285438 281.942072 88.72636 269.776754 83.484952 
C 257.611437 78.243545 244.541574 75.419293 231.297513 75.170015 
C 218.053452 74.920737 204.886569 77.251164 192.532631 82.031073 
C 180.178694 86.810982 168.872184 93.949647 159.244912 103.04816 
C 149.61764 112.146672 141.852334 123.032339 136.382922 135.096866 
C 130.913509 147.161393 127.843801 160.175793 127.345333 173.412818 
" clip-path="url(#pc4f77948cf)" style="fill: #fa8072; opacity: 0.4; stroke: #fa8072; stroke-linejoin: miter"/>
   </g>
   <g id="patch_6">
    <path d="M 127.345333 181.097182 
C 127.842279 191.650267 130.381937 202.007402 134.82324 211.593297 
C 139.264544 221.179193 145.52371 229.813018 153.253074 237.015205 
C 160.982438 244.217392 170.036189 249.852078 179.911437 253.606282 
C 189.786685 257.360486 200.297139 259.163388 210.858994 258.914846 
C 221.42085 258.666304 231.834865 256.371007 241.522591 252.156446 
C 251.210318 247.941885 259.989003 241.887566 267.371035 234.329777 
C 274.753066 226.771987 280.599186 217.8533 284.584672 208.069105 
C 288.570157 198.28491 290.619825 187.81978 290.619825 177.255 
C 290.619825 166.69022 288.570157 156.22509 284.584672 146.440895 
C 280.599186 136.6567 274.753066 127.738013 267.371035 120.180223 
C 259.989003 112.622434 251.210318 106.568115 241.522591 102.353554 
C 231.834865 98.138993 221.42085 95.843696 210.858994 95.595154 
C 200.297139 95.346612 189.786685 97.149514 179.911437 100.903718 
C 170.036189 104.657922 160.982438 110.292608 153.253074 117.494795 
C 145.52371 124.696982 139.264544 133.330807 134.82324 142.916703 
C 130.381937 152.502598 127.842279 162.859733 127.345333 173.412818 
C 127.297126 174.692978 127.273016 175.973932 127.273016 177.255 
C 127.273016 178.536068 127.297126 179.817022 127.345333 181.097182 
" clip-path="url(#pc4f77948cf)" style="fill: #800080; opacity: 0.7; stroke: #800080; stroke-linejoin: miter"/>
   </g>
   <g id="text_2">
    <!-- n(Y) = 18 -->
    <g style="fill: #030303" transform="translate(286.896362 180.014375) scale(0.1 -0.1)">
     <defs>
      <path id="DejaVuSerif-6e" d="M 263 0 
L 263 331 
L 781 331 
L 781 2988 
L 231 2988 
L 231 3322 
L 1356 3322 
L 1356 2731 
Q 1516 3069 1770 3241 
Q 2025 3413 2363 3413 
Q 2913 3413 3172 3097 
Q 3431 2781 3431 2113 
L 3431 331 
L 3944 331 
L 3944 0 
L 2356 0 
L 2356 331 
L 2853 331 
L 2853 1931 
Q 2853 2541 2703 2767 
Q 2553 2994 2175 2994 
Q 1775 2994 1565 2701 
Q 1356 2409 1356 1850 
L 1356 331 
L 1856 331 
L 1856 0 
L 263 0 
z
" transform="scale(0.015625)"/>
      <path id="DejaVuSerif-28" d="M 2041 -997 
Q 1281 -656 893 83 
Q 506 822 506 1931 
Q 506 3044 893 3783 
Q 1281 4522 2041 4863 
L 2041 4556 
Q 1559 4225 1350 3623 
Q 1141 3022 1141 1931 
Q 1141 844 1350 242 
Q 1559 -359 2041 -691 
L 2041 -997 
z
" transform="scale(0.015625)"/>
      <path id="DejaVuSerif-59" d="M 1209 0 
L 1209 331 
L 1806 331 
L 1806 2009 
L 366 4331 
L -72 4331 
L -72 4666 
L 1663 4666 
L 1663 4331 
L 1119 4331 
L 2284 2444 
L 3450 4331 
L 2925 4331 
L 2925 4666 
L 4281 4666 
L 4281 4331 
L 3841 4331 
L 2438 2069 
L 2438 331 
L 3034 331 
L 3034 0 
L 1209 0 
z
" transform="scale(0.015625)"/>
      <path id="DejaVuSerif-29" d="M 453 -997 
L 453 -691 
Q 934 -359 1145 242 
Q 1356 844 1356 1931 
Q 1356 3022 1145 3623 
Q 934 4225 453 4556 
L 453 4863 
Q 1216 4522 1603 3783 
Q 1991 3044 1991 1931 
Q 1991 822 1603 83 
Q 1216 -656 453 -997 
z
" transform="scale(0.015625)"/>
      <path id="DejaVuSerif-20" transform="scale(0.015625)"/>
      <path id="DejaVuSerif-3d" d="M 678 2894 
L 4684 2894 
L 4684 2394 
L 678 2394 
L 678 2894 
z
M 678 1619 
L 4684 1619 
L 4684 1119 
L 678 1119 
L 678 1619 
z
" transform="scale(0.015625)"/>
      <path id="DejaVuSerif-31" d="M 909 0 
L 909 331 
L 1722 331 
L 1722 4213 
L 781 3603 
L 781 4013 
L 1919 4750 
L 2350 4750 
L 2350 331 
L 3163 331 
L 3163 0 
L 909 0 
z
" transform="scale(0.015625)"/>
      <path id="DejaVuSerif-38" d="M 2981 1275 
Q 2981 1775 2732 2051 
Q 2484 2328 2034 2328 
Q 1584 2328 1336 2051 
Q 1088 1775 1088 1275 
Q 1088 772 1336 495 
Q 1584 219 2034 219 
Q 2484 219 2732 495 
Q 2981 772 2981 1275 
z
M 2853 3541 
Q 2853 3966 2637 4203 
Q 2422 4441 2034 4441 
Q 1650 4441 1433 4203 
Q 1216 3966 1216 3541 
Q 1216 3113 1433 2875 
Q 1650 2638 2034 2638 
Q 2422 2638 2637 2875 
Q 2853 3113 2853 3541 
z
M 2516 2484 
Q 3047 2413 3344 2092 
Q 3641 1772 3641 1275 
Q 3641 619 3225 264 
Q 2809 -91 2034 -91 
Q 1263 -91 845 264 
Q 428 619 428 1275 
Q 428 1772 725 2092 
Q 1022 2413 1556 2484 
Q 1084 2569 832 2842 
Q 581 3116 581 3541 
Q 581 4103 968 4426 
Q 1356 4750 2034 4750 
Q 2713 4750 3100 4426 
Q 3488 4103 3488 3541 
Q 3488 3116 3236 2842 
Q 2984 2569 2516 2484 
z
" transform="scale(0.015625)"/>
     </defs>
     <use xlink:href="#DejaVuSerif-6e"/>
     <use xlink:href="#DejaVuSerif-28" x="64.404297"/>
     <use xlink:href="#DejaVuSerif-59" x="103.417969"/>
     <use xlink:href="#DejaVuSerif-29" x="169.433594"/>
     <use xlink:href="#DejaVuSerif-20" x="208.447266"/>
     <use xlink:href="#DejaVuSerif-3d" x="240.234375"/>
     <use xlink:href="#DejaVuSerif-20" x="324.023438"/>
     <use xlink:href="#DejaVuSerif-31" x="355.810547"/>
     <use xlink:href="#DejaVuSerif-38" x="419.433594"/>
    </g>
   </g>
   <g id="text_3">
    <!-- n(X ∩ Y) = 32 -->
    <g style="fill: #030303" transform="translate(173.865952 180.014375) scale(0.1 -0.1)">
     <defs>
      <path id="DejaVuSerif-58" d="M 2119 1997 
L 978 331 
L 1581 331 
L 1581 0 
L 38 0 
L 38 331 
L 575 331 
L 1919 2291 
L 556 4331 
L 56 4331 
L 56 4666 
L 1906 4666 
L 1906 4331 
L 1356 4331 
L 2356 2828 
L 3384 4331 
L 2784 4331 
L 2784 4666 
L 4313 4666 
L 4313 4331 
L 3788 4331 
L 2553 2534 
L 4025 331 
L 4525 331 
L 4525 0 
L 2675 0 
L 2675 331 
L 3231 331 
L 2119 1997 
z
" transform="scale(0.015625)"/>
      <path id="DejaVuSerif-2229" d="M 1175 2006 
L 1175 0 
L 675 0 
L 675 2006 
Q 675 2550 944 3012 
Q 1213 3475 1675 3744 
Q 2138 4013 2681 4013 
Q 3225 4013 3687 3744 
Q 4150 3475 4419 3012 
Q 4688 2550 4688 2006 
L 4688 0 
L 4188 0 
L 4188 2006 
Q 4188 2413 3984 2759 
Q 3781 3106 3434 3309 
Q 3088 3513 2681 3513 
Q 2275 3513 1928 3309 
Q 1581 3106 1378 2759 
Q 1175 2413 1175 2006 
z
" transform="scale(0.015625)"/>
      <path id="DejaVuSerif-33" d="M 622 4469 
Q 988 4606 1323 4678 
Q 1659 4750 1953 4750 
Q 2638 4750 3022 4454 
Q 3406 4159 3406 3634 
Q 3406 3213 3140 2930 
Q 2875 2647 2388 2547 
Q 2963 2466 3280 2130 
Q 3597 1794 3597 1259 
Q 3597 606 3158 257 
Q 2719 -91 1894 -91 
Q 1528 -91 1179 -12 
Q 831 66 488 225 
L 488 1131 
L 838 1131 
Q 869 681 1141 450 
Q 1413 219 1906 219 
Q 2384 219 2661 495 
Q 2938 772 2938 1253 
Q 2938 1803 2653 2086 
Q 2369 2369 1819 2369 
L 1522 2369 
L 1522 2688 
L 1678 2688 
Q 2225 2688 2498 2914 
Q 2772 3141 2772 3597 
Q 2772 4006 2547 4223 
Q 2322 4441 1900 4441 
Q 1478 4441 1245 4241 
Q 1013 4041 972 3647 
L 622 3647 
L 622 4469 
z
" transform="scale(0.015625)"/>
      <path id="DejaVuSerif-32" d="M 819 3553 
L 469 3553 
L 469 4384 
Q 803 4563 1142 4656 
Q 1481 4750 1806 4750 
Q 2534 4750 2956 4397 
Q 3378 4044 3378 3438 
Q 3378 2753 2422 1800 
Q 2347 1728 2309 1691 
L 1131 513 
L 3078 513 
L 3078 1088 
L 3444 1088 
L 3444 0 
L 434 0 
L 434 341 
L 1850 1753 
Q 2319 2222 2519 2614 
Q 2719 3006 2719 3438 
Q 2719 3909 2473 4175 
Q 2228 4441 1797 4441 
Q 1350 4441 1106 4219 
Q 863 3997 819 3553 
z
" transform="scale(0.015625)"/>
     </defs>
     <use xlink:href="#DejaVuSerif-6e"/>
     <use xlink:href="#DejaVuSerif-28" x="64.404297"/>
     <use xlink:href="#DejaVuSerif-58" x="103.417969"/>
     <use xlink:href="#DejaVuSerif-20" x="174.609375"/>
     <use xlink:href="#DejaVuSerif-2229" x="206.396484"/>
     <use xlink:href="#DejaVuSerif-20" x="290.185547"/>
     <use xlink:href="#DejaVuSerif-59" x="321.972656"/>
     <use xlink:href="#DejaVuSerif-29" x="387.988281"/>
     <use xlink:href="#DejaVuSerif-20" x="427.001953"/>
     <use xlink:href="#DejaVuSerif-3d" x="458.789062"/>
     <use xlink:href="#DejaVuSerif-20" x="542.578125"/>
     <use xlink:href="#DejaVuSerif-33" x="574.365234"/>
     <use xlink:href="#DejaVuSerif-32" x="637.988281"/>
    </g>
   </g>
   <g id="text_4">
    <!-- Turbine (X) -->
    <g style="fill: #030303" transform="translate(139.397372 277.244854) scale(0.12 -0.12)">
     <defs>
      <path id="DejaVuSerif-54" d="M 1222 0 
L 1222 331 
L 1819 331 
L 1819 4294 
L 447 4294 
L 447 3566 
L 63 3566 
L 63 4666 
L 4206 4666 
L 4206 3566 
L 3822 3566 
L 3822 4294 
L 2450 4294 
L 2450 331 
L 3047 331 
L 3047 0 
L 1222 0 
z
" transform="scale(0.015625)"/>
      <path id="DejaVuSerif-75" d="M 2266 3322 
L 3341 3322 
L 3341 331 
L 3884 331 
L 3884 0 
L 2766 0 
L 2766 588 
Q 2606 256 2353 82 
Q 2100 -91 1766 -91 
Q 1213 -91 952 223 
Q 691 538 691 1209 
L 691 2988 
L 172 2988 
L 172 3322 
L 1269 3322 
L 1269 1388 
Q 1269 781 1417 556 
Q 1566 331 1947 331 
Q 2347 331 2556 625 
Q 2766 919 2766 1478 
L 2766 2988 
L 2266 2988 
L 2266 3322 
z
" transform="scale(0.015625)"/>
      <path id="DejaVuSerif-72" d="M 3059 3328 
L 3059 2497 
L 2728 2497 
Q 2713 2744 2591 2866 
Q 2469 2988 2234 2988 
Q 1809 2988 1582 2694 
Q 1356 2400 1356 1850 
L 1356 331 
L 2022 331 
L 2022 0 
L 263 0 
L 263 331 
L 781 331 
L 781 2994 
L 231 2994 
L 231 3322 
L 1356 3322 
L 1356 2731 
Q 1525 3078 1790 3245 
Q 2056 3413 2438 3413 
Q 2578 3413 2733 3391 
Q 2888 3369 3059 3328 
z
" transform="scale(0.015625)"/>
      <path id="DejaVuSerif-62" d="M 738 331 
L 738 4531 
L 184 4531 
L 184 4863 
L 1313 4863 
L 1313 2803 
Q 1481 3116 1742 3264 
Q 2003 3413 2388 3413 
Q 3000 3413 3387 2928 
Q 3775 2444 3775 1663 
Q 3775 881 3387 395 
Q 3000 -91 2388 -91 
Q 2003 -91 1742 57 
Q 1481 206 1313 519 
L 1313 0 
L 184 0 
L 184 331 
L 738 331 
z
M 1313 1497 
Q 1313 897 1542 583 
Q 1772 269 2209 269 
Q 2650 269 2876 622 
Q 3103 975 3103 1663 
Q 3103 2353 2876 2703 
Q 2650 3053 2209 3053 
Q 1772 3053 1542 2737 
Q 1313 2422 1313 1825 
L 1313 1497 
z
" transform="scale(0.015625)"/>
      <path id="DejaVuSerif-69" d="M 622 4353 
Q 622 4497 726 4603 
Q 831 4709 978 4709 
Q 1122 4709 1226 4603 
Q 1331 4497 1331 4353 
Q 1331 4206 1228 4103 
Q 1125 4000 978 4000 
Q 831 4000 726 4103 
Q 622 4206 622 4353 
z
M 1356 331 
L 1900 331 
L 1900 0 
L 231 0 
L 231 331 
L 781 331 
L 781 2988 
L 231 2988 
L 231 3322 
L 1356 3322 
L 1356 331 
z
" transform="scale(0.015625)"/>
      <path id="DejaVuSerif-65" d="M 3469 1600 
L 991 1600 
L 991 1575 
Q 991 903 1244 561 
Q 1497 219 1991 219 
Q 2369 219 2611 417 
Q 2853 616 2950 1006 
L 3413 1006 
Q 3275 459 2904 184 
Q 2534 -91 1931 -91 
Q 1203 -91 761 389 
Q 319 869 319 1663 
Q 319 2450 753 2931 
Q 1188 3413 1894 3413 
Q 2647 3413 3050 2948 
Q 3453 2484 3469 1600 
z
M 2791 1931 
Q 2772 2513 2545 2808 
Q 2319 3103 1894 3103 
Q 1497 3103 1269 2806 
Q 1041 2509 991 1931 
L 2791 1931 
z
" transform="scale(0.015625)"/>
     </defs>
     <use xlink:href="#DejaVuSerif-54"/>
     <use xlink:href="#DejaVuSerif-75" x="66.699219"/>
     <use xlink:href="#DejaVuSerif-72" x="131.103516"/>
     <use xlink:href="#DejaVuSerif-62" x="178.90625"/>
     <use xlink:href="#DejaVuSerif-69" x="242.919922"/>
     <use xlink:href="#DejaVuSerif-6e" x="274.902344"/>
     <use xlink:href="#DejaVuSerif-65" x="339.306641"/>
     <use xlink:href="#DejaVuSerif-20" x="398.486328"/>
     <use xlink:href="#DejaVuSerif-28" x="430.273438"/>
     <use xlink:href="#DejaVuSerif-58" x="469.287109"/>
     <use xlink:href="#DejaVuSerif-29" x="540.478516"/>
    </g>
   </g>
   <g id="text_5">
    <!-- Cooling Pump (Y) -->
    <g style="fill: #030303" transform="translate(229.376082 297.665467) scale(0.12 -0.12)">
     <defs>
      <path id="DejaVuSerif-43" d="M 4513 1234 
Q 4306 581 3820 245 
Q 3334 -91 2591 -91 
Q 2134 -91 1743 65 
Q 1353 222 1050 525 
Q 700 875 529 1320 
Q 359 1766 359 2328 
Q 359 3416 987 4083 
Q 1616 4750 2644 4750 
Q 3025 4750 3456 4650 
Q 3888 4550 4384 4347 
L 4384 3272 
L 4031 3272 
Q 3916 3859 3567 4137 
Q 3219 4416 2591 4416 
Q 1844 4416 1459 3886 
Q 1075 3356 1075 2328 
Q 1075 1303 1459 773 
Q 1844 244 2591 244 
Q 3113 244 3450 492 
Q 3788 741 3938 1234 
L 4513 1234 
z
" transform="scale(0.015625)"/>
      <path id="DejaVuSerif-6f" d="M 1925 219 
Q 2388 219 2623 584 
Q 2859 950 2859 1663 
Q 2859 2375 2623 2739 
Q 2388 3103 1925 3103 
Q 1463 3103 1227 2739 
Q 991 2375 991 1663 
Q 991 950 1228 584 
Q 1466 219 1925 219 
z
M 1925 -91 
Q 1200 -91 759 389 
Q 319 869 319 1663 
Q 319 2456 758 2934 
Q 1197 3413 1925 3413 
Q 2653 3413 3092 2934 
Q 3531 2456 3531 1663 
Q 3531 869 3092 389 
Q 2653 -91 1925 -91 
z
" transform="scale(0.015625)"/>
      <path id="DejaVuSerif-6c" d="M 1313 331 
L 1856 331 
L 1856 0 
L 184 0 
L 184 331 
L 738 331 
L 738 4531 
L 184 4531 
L 184 4863 
L 1313 4863 
L 1313 331 
z
" transform="scale(0.015625)"/>
      <path id="DejaVuSerif-67" d="M 3359 2988 
L 3359 72 
Q 3359 -644 2965 -1033 
Q 2572 -1422 1844 -1422 
Q 1516 -1422 1216 -1362 
Q 916 -1303 641 -1184 
L 641 -488 
L 941 -488 
Q 997 -813 1206 -963 
Q 1416 -1113 1806 -1113 
Q 2313 -1113 2548 -827 
Q 2784 -541 2784 72 
L 2784 519 
Q 2616 206 2355 57 
Q 2094 -91 1709 -91 
Q 1097 -91 708 395 
Q 319 881 319 1663 
Q 319 2444 706 2928 
Q 1094 3413 1709 3413 
Q 2094 3413 2355 3264 
Q 2616 3116 2784 2803 
L 2784 3322 
L 3909 3322 
L 3909 2988 
L 3359 2988 
z
M 2784 1825 
Q 2784 2422 2554 2737 
Q 2325 3053 1888 3053 
Q 1444 3053 1217 2703 
Q 991 2353 991 1663 
Q 991 975 1217 622 
Q 1444 269 1888 269 
Q 2325 269 2554 583 
Q 2784 897 2784 1497 
L 2784 1825 
z
" transform="scale(0.015625)"/>
      <path id="DejaVuSerif-50" d="M 1581 2375 
L 2406 2375 
Q 2872 2375 3115 2626 
Q 3359 2878 3359 3353 
Q 3359 3831 3115 4081 
Q 2872 4331 2406 4331 
L 1581 4331 
L 1581 2375 
z
M 353 0 
L 353 331 
L 947 331 
L 947 4331 
L 353 4331 
L 353 4666 
L 2559 4666 
Q 3259 4666 3668 4311 
Q 4078 3956 4078 3353 
Q 4078 2753 3668 2397 
Q 3259 2041 2559 2041 
L 1581 2041 
L 1581 331 
L 2303 331 
L 2303 0 
L 353 0 
z
" transform="scale(0.015625)"/>
      <path id="DejaVuSerif-6d" d="M 3316 2675 
Q 3481 3041 3739 3227 
Q 3997 3413 4341 3413 
Q 4863 3413 5119 3089 
Q 5375 2766 5375 2113 
L 5375 331 
L 5894 331 
L 5894 0 
L 4300 0 
L 4300 331 
L 4800 331 
L 4800 2047 
Q 4800 2556 4650 2772 
Q 4500 2988 4153 2988 
Q 3769 2988 3567 2697 
Q 3366 2406 3366 1850 
L 3366 331 
L 3866 331 
L 3866 0 
L 2291 0 
L 2291 331 
L 2791 331 
L 2791 2069 
Q 2791 2566 2641 2777 
Q 2491 2988 2144 2988 
Q 1759 2988 1557 2697 
Q 1356 2406 1356 1850 
L 1356 331 
L 1856 331 
L 1856 0 
L 263 0 
L 263 331 
L 781 331 
L 781 2994 
L 231 2994 
L 231 3322 
L 1356 3322 
L 1356 2731 
Q 1516 3063 1762 3238 
Q 2009 3413 2322 3413 
Q 2709 3413 2968 3220 
Q 3228 3028 3316 2675 
z
" transform="scale(0.015625)"/>
      <path id="DejaVuSerif-70" d="M 1313 1825 
L 1313 1497 
Q 1313 897 1542 583 
Q 1772 269 2209 269 
Q 2650 269 2876 622 
Q 3103 975 3103 1663 
Q 3103 2353 2876 2703 
Q 2650 3053 2209 3053 
Q 1772 3053 1542 2737 
Q 1313 2422 1313 1825 
z
M 738 2988 
L 184 2988 
L 184 3322 
L 1313 3322 
L 1313 2803 
Q 1481 3116 1742 3264 
Q 2003 3413 2388 3413 
Q 3000 3413 3387 2928 
Q 3775 2444 3775 1663 
Q 3775 881 3387 395 
Q 3000 -91 2388 -91 
Q 2003 -91 1742 57 
Q 1481 206 1313 519 
L 1313 -997 
L 1856 -997 
L 1856 -1331 
L 184 -1331 
L 184 -997 
L 738 -997 
L 738 2988 
z
" transform="scale(0.015625)"/>
     </defs>
     <use xlink:href="#DejaVuSerif-43"/>
     <use xlink:href="#DejaVuSerif-6f" x="76.513672"/>
     <use xlink:href="#DejaVuSerif-6f" x="136.71875"/>
     <use xlink:href="#DejaVuSerif-6c" x="196.923828"/>
     <use xlink:href="#DejaVuSerif-69" x="228.90625"/>
     <use xlink:href="#DejaVuSerif-6e" x="260.888672"/>
     <use xlink:href="#DejaVuSerif-67" x="325.292969"/>
     <use xlink:href="#DejaVuSerif-20" x="389.306641"/>
     <use xlink:href="#DejaVuSerif-50" x="421.09375"/>
     <use xlink:href="#DejaVuSerif-75" x="488.378906"/>
     <use xlink:href="#DejaVuSerif-6d" x="552.783203"/>
     <use xlink:href="#DejaVuSerif-70" x="647.607422"/>
     <use xlink:href="#DejaVuSerif-20" x="711.621094"/>
     <use xlink:href="#DejaVuSerif-28" x="743.408203"/>
     <use xlink:href="#DejaVuSerif-59" x="782.421875"/>
     <use xlink:href="#DejaVuSerif-29" x="848.4375"/>
    </g>
   </g>
   <g id="text_6">
    <!-- $(X \cup Y)'=$150 -->
    <g style="fill: #030303" transform="translate(62.37 300.542375) scale(0.1 -0.1)">
     <defs>
      <path id="DejaVuSans-28" d="M 1984 4856 
Q 1566 4138 1362 3434 
Q 1159 2731 1159 2009 
Q 1159 1288 1364 580 
Q 1569 -128 1984 -844 
L 1484 -844 
Q 1016 -109 783 600 
Q 550 1309 550 2009 
Q 550 2706 781 3412 
Q 1013 4119 1484 4856 
L 1984 4856 
z
" transform="scale(0.015625)"/>
      <path id="DejaVuSans-Oblique-58" d="M 878 4666 
L 1516 4666 
L 2316 2981 
L 3763 4666 
L 4500 4666 
L 2578 2438 
L 3738 0 
L 3103 0 
L 2163 1966 
L 459 0 
L -275 0 
L 1906 2509 
L 878 4666 
z
" transform="scale(0.015625)"/>
      <path id="DejaVuSans-222a" d="M 825 1856 
L 825 3706 
L 1363 3706 
L 1363 1934 
Q 1363 1172 1594 842 
Q 1825 513 2344 513 
Q 2859 513 3090 842 
Q 3322 1172 3322 1934 
L 3322 3706 
L 3859 3706 
L 3859 1856 
Q 3859 931 3476 465 
Q 3094 0 2344 0 
Q 1591 0 1208 465 
Q 825 931 825 1856 
z
" transform="scale(0.015625)"/>
      <path id="DejaVuSans-Oblique-59" d="M 403 4666 
L 1081 4666 
L 1953 2747 
L 3616 4666 
L 4325 4666 
L 2209 2222 
L 1778 0 
L 1147 0 
L 1575 2222 
L 403 4666 
z
" transform="scale(0.015625)"/>
      <path id="DejaVuSans-29" d="M 513 4856 
L 1013 4856 
Q 1481 4119 1714 3412 
Q 1947 2706 1947 2009 
Q 1947 1309 1714 600 
Q 1481 -109 1013 -844 
L 513 -844 
Q 928 -128 1133 580 
Q 1338 1288 1338 2009 
Q 1338 2731 1133 3434 
Q 928 4138 513 4856 
z
" transform="scale(0.015625)"/>
      <path id="Cmsy10-30" d="M 225 347 
Q 184 359 184 409 
L 966 3316 
Q 1003 3434 1093 3506 
Q 1184 3578 1300 3578 
Q 1450 3578 1564 3479 
Q 1678 3381 1678 3231 
Q 1678 3166 1644 3084 
L 488 319 
Q 466 275 428 275 
Q 394 275 320 306 
Q 247 338 225 347 
z
" transform="scale(0.015625)"/>
      <path id="DejaVuSerif-35" d="M 3219 4666 
L 3219 4153 
L 1081 4153 
L 1081 2816 
Q 1244 2928 1461 2984 
Q 1678 3041 1947 3041 
Q 2703 3041 3140 2622 
Q 3578 2203 3578 1478 
Q 3578 738 3136 323 
Q 2694 -91 1894 -91 
Q 1572 -91 1234 -12 
Q 897 66 544 225 
L 544 1131 
L 897 1131 
Q 925 688 1179 453 
Q 1434 219 1894 219 
Q 2388 219 2653 544 
Q 2919 869 2919 1478 
Q 2919 2084 2655 2407 
Q 2391 2731 1894 2731 
Q 1613 2731 1398 2631 
Q 1184 2531 1019 2322 
L 750 2322 
L 750 4666 
L 3219 4666 
z
" transform="scale(0.015625)"/>
      <path id="DejaVuSerif-30" d="M 2034 219 
Q 2513 219 2750 744 
Q 2988 1269 2988 2328 
Q 2988 3391 2750 3916 
Q 2513 4441 2034 4441 
Q 1556 4441 1318 3916 
Q 1081 3391 1081 2328 
Q 1081 1269 1318 744 
Q 1556 219 2034 219 
z
M 2034 -91 
Q 1275 -91 848 546 
Q 422 1184 422 2328 
Q 422 3475 848 4112 
Q 1275 4750 2034 4750 
Q 2797 4750 3222 4112 
Q 3647 3475 3647 2328 
Q 3647 1184 3222 546 
Q 2797 -91 2034 -91 
z
" transform="scale(0.015625)"/>
     </defs>
     <use xlink:href="#DejaVuSans-28" transform="translate(0 0.584375)"/>
     <use xlink:href="#DejaVuSans-Oblique-58" transform="translate(39.013672 0.584375)"/>
     <use xlink:href="#DejaVuSans-222a" transform="translate(127.001953 0.584375)"/>
     <use xlink:href="#DejaVuSans-Oblique-59" transform="translate(219.677734 0.584375)"/>
     <use xlink:href="#DejaVuSans-29" transform="translate(280.761719 0.584375)"/>
     <use xlink:href="#Cmsy10-30" transform="translate(320.732422 38.865625) scale(0.7)"/>
     <use xlink:href="#DejaVuSans-3d" transform="translate(362.192383 0.584375)"/>
     <use xlink:href="#DejaVuSerif-31" transform="translate(465.463867 0.584375)"/>
     <use xlink:href="#DejaVuSerif-35" transform="translate(529.086914 0.584375)"/>
     <use xlink:href="#DejaVuSerif-30" transform="translate(592.709961 0.584375)"/>
    </g>
   </g>
  </g>
 </g>
 <defs>
  <clipPath id="pc4f77948cf">
   <rect x="54" y="42.12" width="334.8" height="270.27"/>
  </clipPath>
 </defs>
</svg>
