<?xml version="1.0" encoding="utf-8" standalone="no"?>
<!DOCTYPE svg PUBLIC "-//W3C//DTD SVG 1.1//EN"
  "http://www.w3.org/Graphics/SVG/1.1/DTD/svg11.dtd">
<svg xmlns:xlink="http://www.w3.org/1999/xlink" width="360pt" height="288pt" viewBox="0 0 360 288" xmlns="http://www.w3.org/2000/svg" version="1.1">
 <metadata>
  <rdf:RDF xmlns:dc="http://purl.org/dc/elements/1.1/" xmlns:cc="http://creativecommons.org/ns#" xmlns:rdf="http://www.w3.org/1999/02/22-rdf-syntax-ns#">
   <cc:Work>
    <dc:type rdf:resource="http://purl.org/dc/dcmitype/StillImage"/>
    <dc:date>2024-10-06T21:15:47.058814</dc:date>
    <dc:format>image/svg+xml</dc:format>
    <dc:creator>
     <cc:Agent>
      <dc:title>Matplotlib v3.9.2, https://matplotlib.org/</dc:title>
     </cc:Agent>
    </dc:creator>
   </cc:Work>
  </rdf:RDF>
 </metadata>
 <defs>
  <style type="text/css">*{stroke-linejoin: round; stroke-linecap: butt}</style>
 </defs>
 <g id="figure_1">
  <g id="patch_1">
   <path d="M 0 288 
L 360 288 
L 360 0 
L 0 0 
L 0 288 
z
" style="fill: none"/>
  </g>
  <g id="axes_1">
   <g id="patch_2">
    <path d="M 61.705127 235.96 
L 349.2 235.96 
L 349.2 25.44 
L 61.705127 25.44 
L 61.705127 235.96 
z
" style="fill: none"/>
   </g>
   <g id="PolyCollection_1">
    <path d="M 74.773076 217.672525 
L 74.773076 226.390909 
L 75.296841 226.390909 
L 75.820607 226.390909 
L 76.344372 226.390909 
L 76.868138 226.390909 
L 77.391903 226.390909 
L 77.915669 226.390909 
L 78.439434 226.390909 
L 78.9632 226.390909 
L 79.486965 226.390909 
L 80.010731 226.390909 
L 80.534496 226.390909 
L 81.058262 226.390909 
L 81.582027 226.390909 
L 82.105792 226.390909 
L 82.629558 226.390909 
L 83.153323 226.390909 
L 83.677089 226.390909 
L 84.200854 226.390909 
L 84.72462 226.390909 
L 85.248385 226.390909 
L 85.772151 226.390909 
L 86.295916 226.390909 
L 86.819682 226.390909 
L 87.343447 226.390909 
L 87.867213 226.390909 
L 88.390978 226.390909 
L 88.914744 226.390909 
L 89.438509 226.390909 
L 89.962275 226.390909 
L 90.48604 226.390909 
L 91.009806 226.390909 
L 91.533571 226.390909 
L 92.057337 226.390909 
L 92.581102 226.390909 
L 93.104868 226.390909 
L 93.628633 226.390909 
L 94.152399 226.390909 
L 94.676164 226.390909 
L 95.19993 226.390909 
L 95.723695 226.390909 
L 96.24746 226.390909 
L 96.771226 226.390909 
L 97.294991 226.390909 
L 97.818757 226.390909 
L 98.342522 226.390909 
L 98.866288 226.390909 
L 99.390053 226.390909 
L 99.913819 226.390909 
L 100.437584 226.390909 
L 100.96135 226.390909 
L 101.485115 226.390909 
L 102.008881 226.390909 
L 102.532646 226.390909 
L 103.056412 226.390909 
L 103.580177 226.390909 
L 104.103943 226.390909 
L 104.627708 226.390909 
L 105.151474 226.390909 
L 105.675239 226.390909 
L 106.199005 226.390909 
L 106.72277 226.390909 
L 107.246536 226.390909 
L 107.770301 226.390909 
L 108.294067 226.390909 
L 108.817832 226.390909 
L 109.341598 226.390909 
L 109.865363 226.390909 
L 110.389129 226.390909 
L 110.912894 226.390909 
L 111.436659 226.390909 
L 111.960425 226.390909 
L 112.48419 226.390909 
L 113.007956 226.390909 
L 113.531721 226.390909 
L 114.055487 226.390909 
L 114.579252 226.390909 
L 115.103018 226.390909 
L 115.626783 226.390909 
L 116.150549 226.390909 
L 116.674314 226.390909 
L 117.19808 226.390909 
L 117.721845 226.390909 
L 118.245611 226.390909 
L 118.769376 226.390909 
L 119.293142 226.390909 
L 119.816907 226.390909 
L 120.340673 226.390909 
L 120.864438 226.390909 
L 121.388204 226.390909 
L 121.911969 226.390909 
L 122.435735 226.390909 
L 122.9595 226.390909 
L 123.483266 226.390909 
L 124.007031 226.390909 
L 124.530797 226.390909 
L 125.054562 226.390909 
L 125.578327 226.390909 
L 126.102093 226.390909 
L 126.625858 226.390909 
L 127.149624 226.390909 
L 127.673389 226.390909 
L 128.197155 226.390909 
L 128.72092 226.390909 
L 129.244686 226.390909 
L 129.768451 226.390909 
L 130.292217 226.390909 
L 130.815982 226.390909 
L 131.339748 226.390909 
L 131.863513 226.390909 
L 132.387279 226.390909 
L 132.911044 226.390909 
L 133.43481 226.390909 
L 133.958575 226.390909 
L 134.482341 226.390909 
L 135.006106 226.390909 
L 135.529872 226.390909 
L 136.053637 226.390909 
L 136.577403 226.390909 
L 137.101168 226.390909 
L 137.624934 226.390909 
L 138.148699 226.390909 
L 138.672465 226.390909 
L 139.19623 226.390909 
L 139.719995 226.390909 
L 140.243761 226.390909 
L 140.767526 226.390909 
L 141.291292 226.390909 
L 141.815057 226.390909 
L 142.338823 226.390909 
L 142.862588 226.390909 
L 143.386354 226.390909 
L 143.910119 226.390909 
L 144.433885 226.390909 
L 144.95765 226.390909 
L 145.481416 226.390909 
L 146.005181 226.390909 
L 146.528947 226.390909 
L 147.052712 226.390909 
L 147.576478 226.390909 
L 148.100243 226.390909 
L 148.624009 226.390909 
L 149.147774 226.390909 
L 149.67154 226.390909 
L 150.195305 226.390909 
L 150.719071 226.390909 
L 151.242836 226.390909 
L 151.766602 226.390909 
L 152.290367 226.390909 
L 152.814133 226.390909 
L 153.337898 226.390909 
L 153.861664 226.390909 
L 154.385429 226.390909 
L 154.909194 226.390909 
L 155.43296 226.390909 
L 155.956725 226.390909 
L 156.480491 226.390909 
L 157.004256 226.390909 
L 157.528022 226.390909 
L 158.051787 226.390909 
L 158.575553 226.390909 
L 159.099318 226.390909 
L 159.623084 226.390909 
L 160.146849 226.390909 
L 160.670615 226.390909 
L 161.19438 226.390909 
L 161.718146 226.390909 
L 162.241911 226.390909 
L 162.765677 226.390909 
L 163.289442 226.390909 
L 163.813208 226.390909 
L 164.336973 226.390909 
L 164.860739 226.390909 
L 165.384504 226.390909 
L 165.90827 226.390909 
L 166.432035 226.390909 
L 166.955801 226.390909 
L 167.479566 226.390909 
L 168.003332 226.390909 
L 168.527097 226.390909 
L 169.050862 226.390909 
L 169.574628 226.390909 
L 170.098393 226.390909 
L 170.622159 226.390909 
L 171.145924 226.390909 
L 171.66969 226.390909 
L 172.193455 226.390909 
L 172.717221 226.390909 
L 173.240986 226.390909 
L 173.764752 226.390909 
L 174.288517 226.390909 
L 174.812283 226.390909 
L 175.336048 226.390909 
L 175.859814 226.390909 
L 176.383579 226.390909 
L 176.907345 226.390909 
L 177.43111 226.390909 
L 177.954876 226.390909 
L 178.478641 226.390909 
L 179.002407 226.390909 
L 179.526172 226.390909 
L 180.049938 226.390909 
L 180.573703 226.390909 
L 181.097469 226.390909 
L 181.621234 226.390909 
L 181.621234 65.636969 
L 181.621234 65.636969 
L 181.097469 66.841384 
L 180.573703 68.059587 
L 180.049938 69.290942 
L 179.526172 70.534816 
L 179.002407 71.790576 
L 178.478641 73.057591 
L 177.954876 74.335235 
L 177.43111 75.622884 
L 176.907345 76.919919 
L 176.383579 78.225725 
L 175.859814 79.539692 
L 175.336048 80.861216 
L 174.812283 82.189697 
L 174.288517 83.524546 
L 173.764752 84.865176 
L 173.240986 86.211009 
L 172.717221 87.561477 
L 172.193455 88.916015 
L 171.66969 90.274071 
L 171.145924 91.635099 
L 170.622159 92.998564 
L 170.098393 94.363937 
L 169.574628 95.730703 
L 169.050862 97.098352 
L 168.527097 98.466388 
L 168.003332 99.834322 
L 167.479566 101.201677 
L 166.955801 102.567988 
L 166.432035 103.932798 
L 165.90827 105.295661 
L 165.384504 106.656144 
L 164.860739 108.013824 
L 164.336973 109.368289 
L 163.813208 110.719137 
L 163.289442 112.065981 
L 162.765677 113.40844 
L 162.241911 114.746149 
L 161.718146 116.078752 
L 161.19438 117.405906 
L 160.670615 118.727276 
L 160.146849 120.042541 
L 159.623084 121.351392 
L 159.099318 122.653528 
L 158.575553 123.948662 
L 158.051787 125.236517 
L 157.528022 126.516826 
L 157.004256 127.789335 
L 156.480491 129.053799 
L 155.956725 130.309984 
L 155.43296 131.557667 
L 154.909194 132.796635 
L 154.385429 134.026684 
L 153.861664 135.247623 
L 153.337898 136.459268 
L 152.814133 137.661447 
L 152.290367 138.853996 
L 151.766602 140.036762 
L 151.242836 141.209599 
L 150.719071 142.372373 
L 150.195305 143.524957 
L 149.67154 144.667233 
L 149.147774 145.799091 
L 148.624009 146.920431 
L 148.100243 148.031161 
L 147.576478 149.131194 
L 147.052712 150.220455 
L 146.528947 151.298874 
L 146.005181 152.366389 
L 145.481416 153.422946 
L 144.95765 154.468496 
L 144.433885 155.502998 
L 143.910119 156.526419 
L 143.386354 157.538731 
L 142.862588 158.539911 
L 142.338823 159.529945 
L 141.815057 160.508822 
L 141.291292 161.476538 
L 140.767526 162.433095 
L 140.243761 163.3785 
L 139.719995 164.312764 
L 139.19623 165.235903 
L 138.672465 166.147939 
L 138.148699 167.048899 
L 137.624934 167.938812 
L 137.101168 168.817713 
L 136.577403 169.685641 
L 136.053637 170.542637 
L 135.529872 171.388749 
L 135.006106 172.224025 
L 134.482341 173.04852 
L 133.958575 173.862288 
L 133.43481 174.665391 
L 132.911044 175.457889 
L 132.387279 176.239849 
L 131.863513 177.011337 
L 131.339748 177.772425 
L 130.815982 178.523185 
L 130.292217 179.263692 
L 129.768451 179.994022 
L 129.244686 180.714256 
L 128.72092 181.424473 
L 128.197155 182.124757 
L 127.673389 182.815191 
L 127.149624 183.495862 
L 126.625858 184.166857 
L 126.102093 184.828265 
L 125.578327 185.480174 
L 125.054562 186.122676 
L 124.530797 186.755863 
L 124.007031 187.379828 
L 123.483266 187.994664 
L 122.9595 188.600465 
L 122.435735 189.197327 
L 121.911969 189.785345 
L 121.388204 190.364615 
L 120.864438 190.935234 
L 120.340673 191.497298 
L 119.816907 192.050906 
L 119.293142 192.596153 
L 118.769376 193.133138 
L 118.245611 193.661959 
L 117.721845 194.182712 
L 117.19808 194.695497 
L 116.674314 195.200409 
L 116.150549 195.697547 
L 115.626783 196.187008 
L 115.103018 196.668888 
L 114.579252 197.143286 
L 114.055487 197.610296 
L 113.531721 198.070015 
L 113.007956 198.522539 
L 112.48419 198.967964 
L 111.960425 199.406383 
L 111.436659 199.837891 
L 110.912894 200.262582 
L 110.389129 200.680549 
L 109.865363 201.091884 
L 109.341598 201.49668 
L 108.817832 201.895028 
L 108.294067 202.287018 
L 107.770301 202.672741 
L 107.246536 203.052286 
L 106.72277 203.42574 
L 106.199005 203.793193 
L 105.675239 204.154731 
L 105.151474 204.510439 
L 104.627708 204.860405 
L 104.103943 205.204712 
L 103.580177 205.543444 
L 103.056412 205.876683 
L 102.532646 206.204514 
L 102.008881 206.527015 
L 101.485115 206.844269 
L 100.96135 207.156353 
L 100.437584 207.463348 
L 99.913819 207.765331 
L 99.390053 208.062379 
L 98.866288 208.354568 
L 98.342522 208.641973 
L 97.818757 208.924668 
L 97.294991 209.202727 
L 96.771226 209.476222 
L 96.24746 209.745225 
L 95.723695 210.009807 
L 95.19993 210.270037 
L 94.676164 210.525984 
L 94.152399 210.777716 
L 93.628633 211.025301 
L 93.104868 211.268805 
L 92.581102 211.508292 
L 92.057337 211.743828 
L 91.533571 211.975476 
L 91.009806 212.203299 
L 90.48604 212.427359 
L 89.962275 212.647717 
L 89.438509 212.864433 
L 88.914744 213.077566 
L 88.390978 213.287175 
L 87.867213 213.493317 
L 87.343447 213.69605 
L 86.819682 213.895429 
L 86.295916 214.091509 
L 85.772151 214.284345 
L 85.248385 214.47399 
L 84.72462 214.660497 
L 84.200854 214.843919 
L 83.677089 215.024305 
L 83.153323 215.201708 
L 82.629558 215.376175 
L 82.105792 215.547757 
L 81.582027 215.716501 
L 81.058262 215.882454 
L 80.534496 216.045664 
L 80.010731 216.206176 
L 79.486965 216.364036 
L 78.9632 216.519288 
L 78.439434 216.671975 
L 77.915669 216.822142 
L 77.391903 216.969829 
L 76.868138 217.11508 
L 76.344372 217.257935 
L 75.820607 217.398434 
L 75.296841 217.536618 
L 74.773076 217.672525 
z
" clip-path="url(#p62969fafe1)" style="fill: #ffa500; fill-opacity: 0.5; stroke: #ffa500; stroke-opacity: 0.5"/>
    <path d="M 229.283893 65.636969 
L 229.283893 226.390909 
L 229.807658 226.390909 
L 230.331424 226.390909 
L 230.855189 226.390909 
L 231.378955 226.390909 
L 231.90272 226.390909 
L 232.426486 226.390909 
L 232.950251 226.390909 
L 233.474017 226.390909 
L 233.997782 226.390909 
L 234.521548 226.390909 
L 235.045313 226.390909 
L 235.569079 226.390909 
L 236.092844 226.390909 
L 236.61661 226.390909 
L 237.140375 226.390909 
L 237.664141 226.390909 
L 238.187906 226.390909 
L 238.711672 226.390909 
L 239.235437 226.390909 
L 239.759203 226.390909 
L 240.282968 226.390909 
L 240.806734 226.390909 
L 241.330499 226.390909 
L 241.854264 226.390909 
L 242.37803 226.390909 
L 242.901795 226.390909 
L 243.425561 226.390909 
L 243.949326 226.390909 
L 244.473092 226.390909 
L 244.996857 226.390909 
L 245.520623 226.390909 
L 246.044388 226.390909 
L 246.568154 226.390909 
L 247.091919 226.390909 
L 247.615685 226.390909 
L 248.13945 226.390909 
L 248.663216 226.390909 
L 249.186981 226.390909 
L 249.710747 226.390909 
L 250.234512 226.390909 
L 250.758278 226.390909 
L 251.282043 226.390909 
L 251.805809 226.390909 
L 252.329574 226.390909 
L 252.85334 226.390909 
L 253.377105 226.390909 
L 253.900871 226.390909 
L 254.424636 226.390909 
L 254.948402 226.390909 
L 255.472167 226.390909 
L 255.995932 226.390909 
L 256.519698 226.390909 
L 257.043463 226.390909 
L 257.567229 226.390909 
L 258.090994 226.390909 
L 258.61476 226.390909 
L 259.138525 226.390909 
L 259.662291 226.390909 
L 260.186056 226.390909 
L 260.709822 226.390909 
L 261.233587 226.390909 
L 261.757353 226.390909 
L 262.281118 226.390909 
L 262.804884 226.390909 
L 263.328649 226.390909 
L 263.852415 226.390909 
L 264.37618 226.390909 
L 264.899946 226.390909 
L 265.423711 226.390909 
L 265.947477 226.390909 
L 266.471242 226.390909 
L 266.995008 226.390909 
L 267.518773 226.390909 
L 268.042539 226.390909 
L 268.566304 226.390909 
L 269.09007 226.390909 
L 269.613835 226.390909 
L 270.1376 226.390909 
L 270.661366 226.390909 
L 271.185131 226.390909 
L 271.708897 226.390909 
L 272.232662 226.390909 
L 272.756428 226.390909 
L 273.280193 226.390909 
L 273.803959 226.390909 
L 274.327724 226.390909 
L 274.85149 226.390909 
L 275.375255 226.390909 
L 275.899021 226.390909 
L 276.422786 226.390909 
L 276.946552 226.390909 
L 277.470317 226.390909 
L 277.994083 226.390909 
L 278.517848 226.390909 
L 279.041614 226.390909 
L 279.565379 226.390909 
L 280.089145 226.390909 
L 280.61291 226.390909 
L 281.136676 226.390909 
L 281.660441 226.390909 
L 282.184207 226.390909 
L 282.707972 226.390909 
L 283.231738 226.390909 
L 283.755503 226.390909 
L 284.279269 226.390909 
L 284.803034 226.390909 
L 285.326799 226.390909 
L 285.850565 226.390909 
L 286.37433 226.390909 
L 286.898096 226.390909 
L 287.421861 226.390909 
L 287.945627 226.390909 
L 288.469392 226.390909 
L 288.993158 226.390909 
L 289.516923 226.390909 
L 290.040689 226.390909 
L 290.564454 226.390909 
L 291.08822 226.390909 
L 291.611985 226.390909 
L 292.135751 226.390909 
L 292.659516 226.390909 
L 293.183282 226.390909 
L 293.707047 226.390909 
L 294.230813 226.390909 
L 294.754578 226.390909 
L 295.278344 226.390909 
L 295.802109 226.390909 
L 296.325875 226.390909 
L 296.84964 226.390909 
L 297.373406 226.390909 
L 297.897171 226.390909 
L 298.420937 226.390909 
L 298.944702 226.390909 
L 299.468467 226.390909 
L 299.992233 226.390909 
L 300.515998 226.390909 
L 301.039764 226.390909 
L 301.563529 226.390909 
L 302.087295 226.390909 
L 302.61106 226.390909 
L 303.134826 226.390909 
L 303.658591 226.390909 
L 304.182357 226.390909 
L 304.706122 226.390909 
L 305.229888 226.390909 
L 305.753653 226.390909 
L 306.277419 226.390909 
L 306.801184 226.390909 
L 307.32495 226.390909 
L 307.848715 226.390909 
L 308.372481 226.390909 
L 308.896246 226.390909 
L 309.420012 226.390909 
L 309.943777 226.390909 
L 310.467543 226.390909 
L 310.991308 226.390909 
L 311.515074 226.390909 
L 312.038839 226.390909 
L 312.562605 226.390909 
L 313.08637 226.390909 
L 313.610136 226.390909 
L 314.133901 226.390909 
L 314.657666 226.390909 
L 315.181432 226.390909 
L 315.705197 226.390909 
L 316.228963 226.390909 
L 316.752728 226.390909 
L 317.276494 226.390909 
L 317.800259 226.390909 
L 318.324025 226.390909 
L 318.84779 226.390909 
L 319.371556 226.390909 
L 319.895321 226.390909 
L 320.419087 226.390909 
L 320.942852 226.390909 
L 321.466618 226.390909 
L 321.990383 226.390909 
L 322.514149 226.390909 
L 323.037914 226.390909 
L 323.56168 226.390909 
L 324.085445 226.390909 
L 324.609211 226.390909 
L 325.132976 226.390909 
L 325.656742 226.390909 
L 326.180507 226.390909 
L 326.704273 226.390909 
L 327.228038 226.390909 
L 327.751804 226.390909 
L 328.275569 226.390909 
L 328.799334 226.390909 
L 329.3231 226.390909 
L 329.846865 226.390909 
L 330.370631 226.390909 
L 330.894396 226.390909 
L 331.418162 226.390909 
L 331.941927 226.390909 
L 332.465693 226.390909 
L 332.989458 226.390909 
L 333.513224 226.390909 
L 334.036989 226.390909 
L 334.560755 226.390909 
L 335.08452 226.390909 
L 335.608286 226.390909 
L 336.132051 226.390909 
L 336.132051 217.672525 
L 336.132051 217.672525 
L 335.608286 217.536618 
L 335.08452 217.398434 
L 334.560755 217.257935 
L 334.036989 217.11508 
L 333.513224 216.969829 
L 332.989458 216.822142 
L 332.465693 216.671975 
L 331.941927 216.519288 
L 331.418162 216.364036 
L 330.894396 216.206176 
L 330.370631 216.045664 
L 329.846865 215.882454 
L 329.3231 215.716501 
L 328.799334 215.547757 
L 328.275569 215.376175 
L 327.751804 215.201708 
L 327.228038 215.024305 
L 326.704273 214.843919 
L 326.180507 214.660497 
L 325.656742 214.47399 
L 325.132976 214.284345 
L 324.609211 214.091509 
L 324.085445 213.895429 
L 323.56168 213.69605 
L 323.037914 213.493317 
L 322.514149 213.287175 
L 321.990383 213.077566 
L 321.466618 212.864433 
L 320.942852 212.647717 
L 320.419087 212.427359 
L 319.895321 212.203299 
L 319.371556 211.975476 
L 318.84779 211.743828 
L 318.324025 211.508292 
L 317.800259 211.268805 
L 317.276494 211.025301 
L 316.752728 210.777716 
L 316.228963 210.525984 
L 315.705197 210.270037 
L 315.181432 210.009807 
L 314.657666 209.745225 
L 314.133901 209.476222 
L 313.610136 209.202727 
L 313.08637 208.924668 
L 312.562605 208.641973 
L 312.038839 208.354568 
L 311.515074 208.062379 
L 310.991308 207.765331 
L 310.467543 207.463348 
L 309.943777 207.156353 
L 309.420012 206.844269 
L 308.896246 206.527015 
L 308.372481 206.204514 
L 307.848715 205.876683 
L 307.32495 205.543444 
L 306.801184 205.204712 
L 306.277419 204.860405 
L 305.753653 204.510439 
L 305.229888 204.154731 
L 304.706122 203.793193 
L 304.182357 203.42574 
L 303.658591 203.052286 
L 303.134826 202.672741 
L 302.61106 202.287018 
L 302.087295 201.895028 
L 301.563529 201.49668 
L 301.039764 201.091884 
L 300.515998 200.680549 
L 299.992233 200.262582 
L 299.468467 199.837891 
L 298.944702 199.406383 
L 298.420937 198.967964 
L 297.897171 198.522539 
L 297.373406 198.070015 
L 296.84964 197.610296 
L 296.325875 197.143286 
L 295.802109 196.668888 
L 295.278344 196.187008 
L 294.754578 195.697547 
L 294.230813 195.200409 
L 293.707047 194.695497 
L 293.183282 194.182712 
L 292.659516 193.661959 
L 292.135751 193.133138 
L 291.611985 192.596153 
L 291.08822 192.050906 
L 290.564454 191.497298 
L 290.040689 190.935234 
L 289.516923 190.364615 
L 288.993158 189.785345 
L 288.469392 189.197327 
L 287.945627 188.600465 
L 287.421861 187.994664 
L 286.898096 187.379828 
L 286.37433 186.755863 
L 285.850565 186.122676 
L 285.326799 185.480174 
L 284.803034 184.828265 
L 284.279269 184.166857 
L 283.755503 183.495862 
L 283.231738 182.815191 
L 282.707972 182.124757 
L 282.184207 181.424473 
L 281.660441 180.714256 
L 281.136676 179.994022 
L 280.61291 179.263692 
L 280.089145 178.523185 
L 279.565379 177.772425 
L 279.041614 177.011337 
L 278.517848 176.239849 
L 277.994083 175.457889 
L 277.470317 174.665391 
L 276.946552 173.862288 
L 276.422786 173.04852 
L 275.899021 172.224025 
L 275.375255 171.388749 
L 274.85149 170.542637 
L 274.327724 169.685641 
L 273.803959 168.817713 
L 273.280193 167.938812 
L 272.756428 167.048899 
L 272.232662 166.147939 
L 271.708897 165.235903 
L 271.185131 164.312764 
L 270.661366 163.3785 
L 270.1376 162.433095 
L 269.613835 161.476538 
L 269.09007 160.508822 
L 268.566304 159.529945 
L 268.042539 158.539911 
L 267.518773 157.538731 
L 266.995008 156.526419 
L 266.471242 155.502998 
L 265.947477 154.468496 
L 265.423711 153.422946 
L 264.899946 152.366389 
L 264.37618 151.298874 
L 263.852415 150.220455 
L 263.328649 149.131194 
L 262.804884 148.031161 
L 262.281118 146.920431 
L 261.757353 145.799091 
L 261.233587 144.667233 
L 260.709822 143.524957 
L 260.186056 142.372373 
L 259.662291 141.209599 
L 259.138525 140.036762 
L 258.61476 138.853996 
L 258.090994 137.661447 
L 257.567229 136.459268 
L 257.043463 135.247623 
L 256.519698 134.026684 
L 255.995932 132.796635 
L 255.472167 131.557667 
L 254.948402 130.309984 
L 254.424636 129.053799 
L 253.900871 127.789335 
L 253.377105 126.516826 
L 252.85334 125.236517 
L 252.329574 123.948662 
L 251.805809 122.653528 
L 251.282043 121.351392 
L 250.758278 120.042541 
L 250.234512 118.727276 
L 249.710747 117.405906 
L 249.186981 116.078752 
L 248.663216 114.746149 
L 248.13945 113.40844 
L 247.615685 112.065981 
L 247.091919 110.719137 
L 246.568154 109.368289 
L 246.044388 108.013824 
L 245.520623 106.656144 
L 244.996857 105.295661 
L 244.473092 103.932798 
L 243.949326 102.567988 
L 243.425561 101.201677 
L 242.901795 99.834322 
L 242.37803 98.466388 
L 241.854264 97.098352 
L 241.330499 95.730703 
L 240.806734 94.363937 
L 240.282968 92.998564 
L 239.759203 91.635099 
L 239.235437 90.274071 
L 238.711672 88.916015 
L 238.187906 87.561477 
L 237.664141 86.211009 
L 237.140375 84.865176 
L 236.61661 83.524546 
L 236.092844 82.189697 
L 235.569079 80.861216 
L 235.045313 79.539692 
L 234.521548 78.225725 
L 233.997782 76.919919 
L 233.474017 75.622884 
L 232.950251 74.335235 
L 232.426486 73.057591 
L 231.90272 71.790576 
L 231.378955 70.534816 
L 230.855189 69.290942 
L 230.331424 68.059587 
L 229.807658 66.841384 
L 229.283893 65.636969 
z
" clip-path="url(#p62969fafe1)" style="fill: #ffa500; fill-opacity: 0.5; stroke: #ffa500; stroke-opacity: 0.5"/>
   </g>
   <g id="matplotlib.axis_1">
    <g id="xtick_1">
     <g id="line2d_1">
      <defs>
       <path id="m9bbe4718a6" d="M 0 0 
L 0 3.5 
" style="stroke: #030303; stroke-width: 0.8"/>
      </defs>
      <g>
       <use xlink:href="#m9bbe4718a6" x="74.773076" y="235.96" style="fill: #030303; stroke: #030303; stroke-width: 0.8"/>
      </g>
     </g>
     <g id="text_1">
      <!-- $\mathdefault{−3}$ -->
      <g style="fill: #030303" transform="translate(65.153076 252.837969) scale(0.13 -0.13)">
       <defs>
        <path id="DejaVuSerif-2212" d="M 678 2259 
L 4684 2259 
L 4684 1753 
L 678 1753 
L 678 2259 
z
" transform="scale(0.015625)"/>
        <path id="DejaVuSerif-33" d="M 622 4469 
Q 988 4606 1323 4678 
Q 1659 4750 1953 4750 
Q 2638 4750 3022 4454 
Q 3406 4159 3406 3634 
Q 3406 3213 3140 2930 
Q 2875 2647 2388 2547 
Q 2963 2466 3280 2130 
Q 3597 1794 3597 1259 
Q 3597 606 3158 257 
Q 2719 -91 1894 -91 
Q 1528 -91 1179 -12 
Q 831 66 488 225 
L 488 1131 
L 838 1131 
Q 869 681 1141 450 
Q 1413 219 1906 219 
Q 2384 219 2661 495 
Q 2938 772 2938 1253 
Q 2938 1803 2653 2086 
Q 2369 2369 1819 2369 
L 1522 2369 
L 1522 2688 
L 1678 2688 
Q 2225 2688 2498 2914 
Q 2772 3141 2772 3597 
Q 2772 4006 2547 4223 
Q 2322 4441 1900 4441 
Q 1478 4441 1245 4241 
Q 1013 4041 972 3647 
L 622 3647 
L 622 4469 
z
" transform="scale(0.015625)"/>
       </defs>
       <use xlink:href="#DejaVuSerif-2212" transform="translate(0 0.78125)"/>
       <use xlink:href="#DejaVuSerif-33" transform="translate(83.789062 0.78125)"/>
      </g>
     </g>
    </g>
    <g id="xtick_2">
     <g id="line2d_2">
      <g>
       <use xlink:href="#m9bbe4718a6" x="118.332905" y="235.96" style="fill: #030303; stroke: #030303; stroke-width: 0.8"/>
      </g>
     </g>
     <g id="text_2">
      <!-- $\mathdefault{−2}$ -->
      <g style="fill: #030303" transform="translate(108.712905 252.837969) scale(0.13 -0.13)">
       <defs>
        <path id="DejaVuSerif-32" d="M 819 3553 
L 469 3553 
L 469 4384 
Q 803 4563 1142 4656 
Q 1481 4750 1806 4750 
Q 2534 4750 2956 4397 
Q 3378 4044 3378 3438 
Q 3378 2753 2422 1800 
Q 2347 1728 2309 1691 
L 1131 513 
L 3078 513 
L 3078 1088 
L 3444 1088 
L 3444 0 
L 434 0 
L 434 341 
L 1850 1753 
Q 2319 2222 2519 2614 
Q 2719 3006 2719 3438 
Q 2719 3909 2473 4175 
Q 2228 4441 1797 4441 
Q 1350 4441 1106 4219 
Q 863 3997 819 3553 
z
" transform="scale(0.015625)"/>
       </defs>
       <use xlink:href="#DejaVuSerif-2212" transform="translate(0 0.78125)"/>
       <use xlink:href="#DejaVuSerif-32" transform="translate(83.789062 0.78125)"/>
      </g>
     </g>
    </g>
    <g id="xtick_3">
     <g id="line2d_3">
      <g>
       <use xlink:href="#m9bbe4718a6" x="161.892734" y="235.96" style="fill: #030303; stroke: #030303; stroke-width: 0.8"/>
      </g>
     </g>
     <g id="text_3">
      <!-- $\mathdefault{−1}$ -->
      <g style="fill: #030303" transform="translate(152.272734 252.837969) scale(0.13 -0.13)">
       <defs>
        <path id="DejaVuSerif-31" d="M 909 0 
L 909 331 
L 1722 331 
L 1722 4213 
L 781 3603 
L 781 4013 
L 1919 4750 
L 2350 4750 
L 2350 331 
L 3163 331 
L 3163 0 
L 909 0 
z
" transform="scale(0.015625)"/>
       </defs>
       <use xlink:href="#DejaVuSerif-2212" transform="translate(0 0.78125)"/>
       <use xlink:href="#DejaVuSerif-31" transform="translate(83.789062 0.78125)"/>
      </g>
     </g>
    </g>
    <g id="xtick_4">
     <g id="line2d_4">
      <g>
       <use xlink:href="#m9bbe4718a6" x="205.452563" y="235.96" style="fill: #030303; stroke: #030303; stroke-width: 0.8"/>
      </g>
     </g>
     <g id="text_4">
      <!-- $\mathdefault{0}$ -->
      <g style="fill: #030303" transform="translate(201.292563 252.837969) scale(0.13 -0.13)">
       <defs>
        <path id="DejaVuSerif-30" d="M 2034 219 
Q 2513 219 2750 744 
Q 2988 1269 2988 2328 
Q 2988 3391 2750 3916 
Q 2513 4441 2034 4441 
Q 1556 4441 1318 3916 
Q 1081 3391 1081 2328 
Q 1081 1269 1318 744 
Q 1556 219 2034 219 
z
M 2034 -91 
Q 1275 -91 848 546 
Q 422 1184 422 2328 
Q 422 3475 848 4112 
Q 1275 4750 2034 4750 
Q 2797 4750 3222 4112 
Q 3647 3475 3647 2328 
Q 3647 1184 3222 546 
Q 2797 -91 2034 -91 
z
" transform="scale(0.015625)"/>
       </defs>
       <use xlink:href="#DejaVuSerif-30" transform="translate(0 0.78125)"/>
      </g>
     </g>
    </g>
    <g id="xtick_5">
     <g id="line2d_5">
      <g>
       <use xlink:href="#m9bbe4718a6" x="249.012393" y="235.96" style="fill: #030303; stroke: #030303; stroke-width: 0.8"/>
      </g>
     </g>
     <g id="text_5">
      <!-- $\mathdefault{1}$ -->
      <g style="fill: #030303" transform="translate(244.852393 252.837969) scale(0.13 -0.13)">
       <use xlink:href="#DejaVuSerif-31" transform="translate(0 0.78125)"/>
      </g>
     </g>
    </g>
    <g id="xtick_6">
     <g id="line2d_6">
      <g>
       <use xlink:href="#m9bbe4718a6" x="292.572222" y="235.96" style="fill: #030303; stroke: #030303; stroke-width: 0.8"/>
      </g>
     </g>
     <g id="text_6">
      <!-- $\mathdefault{2}$ -->
      <g style="fill: #030303" transform="translate(288.412222 252.837969) scale(0.13 -0.13)">
       <use xlink:href="#DejaVuSerif-32" transform="translate(0 0.78125)"/>
      </g>
     </g>
    </g>
    <g id="xtick_7">
     <g id="line2d_7">
      <g>
       <use xlink:href="#m9bbe4718a6" x="336.132051" y="235.96" style="fill: #030303; stroke: #030303; stroke-width: 0.8"/>
      </g>
     </g>
     <g id="text_7">
      <!-- $\mathdefault{3}$ -->
      <g style="fill: #030303" transform="translate(331.972051 252.837969) scale(0.13 -0.13)">
       <use xlink:href="#DejaVuSerif-33" transform="translate(0 0.78125)"/>
      </g>
     </g>
    </g>
    <g id="text_8">
     <!-- T-statistic -->
     <g transform="translate(161.316001 273.21875) scale(0.18 -0.18)">
      <defs>
       <path id="DejaVuSerif-54" d="M 1222 0 
L 1222 331 
L 1819 331 
L 1819 4294 
L 447 4294 
L 447 3566 
L 63 3566 
L 63 4666 
L 4206 4666 
L 4206 3566 
L 3822 3566 
L 3822 4294 
L 2450 4294 
L 2450 331 
L 3047 331 
L 3047 0 
L 1222 0 
z
" transform="scale(0.015625)"/>
       <path id="DejaVuSerif-2d" d="M 281 1959 
L 1881 1959 
L 1881 1472 
L 281 1472 
L 281 1959 
z
" transform="scale(0.015625)"/>
       <path id="DejaVuSerif-73" d="M 359 184 
L 359 959 
L 691 959 
Q 703 588 923 403 
Q 1144 219 1575 219 
Q 1963 219 2166 364 
Q 2369 509 2369 788 
Q 2369 1006 2220 1140 
Q 2072 1275 1594 1428 
L 1178 1569 
Q 750 1706 558 1912 
Q 366 2119 366 2438 
Q 366 2894 700 3153 
Q 1034 3413 1625 3413 
Q 1888 3413 2178 3344 
Q 2469 3275 2778 3144 
L 2778 2419 
L 2447 2419 
Q 2434 2741 2221 2922 
Q 2009 3103 1644 3103 
Q 1281 3103 1095 2975 
Q 909 2847 909 2591 
Q 909 2381 1050 2254 
Q 1191 2128 1613 1997 
L 2069 1856 
Q 2541 1709 2748 1489 
Q 2956 1269 2956 922 
Q 2956 450 2595 179 
Q 2234 -91 1600 -91 
Q 1278 -91 972 -22 
Q 666 47 359 184 
z
" transform="scale(0.015625)"/>
       <path id="DejaVuSerif-74" d="M 691 2988 
L 184 2988 
L 184 3322 
L 691 3322 
L 691 4353 
L 1269 4353 
L 1269 3322 
L 2350 3322 
L 2350 2988 
L 1269 2988 
L 1269 878 
Q 1269 456 1350 337 
Q 1431 219 1650 219 
Q 1875 219 1978 351 
Q 2081 484 2088 781 
L 2522 781 
Q 2497 328 2275 118 
Q 2053 -91 1600 -91 
Q 1103 -91 897 129 
Q 691 350 691 878 
L 691 2988 
z
" transform="scale(0.015625)"/>
       <path id="DejaVuSerif-61" d="M 2547 1044 
L 2547 1747 
L 1806 1747 
Q 1378 1747 1168 1562 
Q 959 1378 959 997 
Q 959 650 1171 447 
Q 1384 244 1747 244 
Q 2106 244 2326 466 
Q 2547 688 2547 1044 
z
M 3122 2075 
L 3122 331 
L 3634 331 
L 3634 0 
L 2547 0 
L 2547 359 
Q 2356 128 2106 18 
Q 1856 -91 1522 -91 
Q 969 -91 644 203 
Q 319 497 319 997 
Q 319 1513 691 1797 
Q 1063 2081 1741 2081 
L 2547 2081 
L 2547 2309 
Q 2547 2688 2317 2895 
Q 2088 3103 1672 3103 
Q 1328 3103 1125 2947 
Q 922 2791 872 2484 
L 575 2484 
L 575 3156 
Q 875 3284 1158 3348 
Q 1441 3413 1709 3413 
Q 2400 3413 2761 3070 
Q 3122 2728 3122 2075 
z
" transform="scale(0.015625)"/>
       <path id="DejaVuSerif-69" d="M 622 4353 
Q 622 4497 726 4603 
Q 831 4709 978 4709 
Q 1122 4709 1226 4603 
Q 1331 4497 1331 4353 
Q 1331 4206 1228 4103 
Q 1125 4000 978 4000 
Q 831 4000 726 4103 
Q 622 4206 622 4353 
z
M 1356 331 
L 1900 331 
L 1900 0 
L 231 0 
L 231 331 
L 781 331 
L 781 2988 
L 231 2988 
L 231 3322 
L 1356 3322 
L 1356 331 
z
" transform="scale(0.015625)"/>
       <path id="DejaVuSerif-63" d="M 3291 997 
Q 3169 466 2822 187 
Q 2475 -91 1925 -91 
Q 1200 -91 759 389 
Q 319 869 319 1663 
Q 319 2459 759 2936 
Q 1200 3413 1925 3413 
Q 2241 3413 2553 3339 
Q 2866 3266 3181 3116 
L 3181 2266 
L 2847 2266 
Q 2781 2703 2561 2903 
Q 2341 3103 1931 3103 
Q 1466 3103 1228 2742 
Q 991 2381 991 1663 
Q 991 944 1227 581 
Q 1463 219 1931 219 
Q 2303 219 2525 412 
Q 2747 606 2828 997 
L 3291 997 
z
" transform="scale(0.015625)"/>
      </defs>
      <use xlink:href="#DejaVuSerif-54"/>
      <use xlink:href="#DejaVuSerif-2d" x="53.824219"/>
      <use xlink:href="#DejaVuSerif-73" x="87.613281"/>
      <use xlink:href="#DejaVuSerif-74" x="138.931641"/>
      <use xlink:href="#DejaVuSerif-61" x="179.117188"/>
      <use xlink:href="#DejaVuSerif-74" x="238.736328"/>
      <use xlink:href="#DejaVuSerif-69" x="278.921875"/>
      <use xlink:href="#DejaVuSerif-73" x="310.904297"/>
      <use xlink:href="#DejaVuSerif-74" x="362.222656"/>
      <use xlink:href="#DejaVuSerif-69" x="402.408203"/>
      <use xlink:href="#DejaVuSerif-63" x="434.390625"/>
     </g>
    </g>
   </g>
   <g id="matplotlib.axis_2">
    <g id="ytick_1">
     <g id="line2d_8">
      <defs>
       <path id="m915a9b8b10" d="M 0 0 
L -3.5 0 
" style="stroke: #030303; stroke-width: 0.8"/>
      </defs>
      <g>
       <use xlink:href="#m915a9b8b10" x="61.705127" y="226.390909" style="fill: #030303; stroke: #030303; stroke-width: 0.8"/>
      </g>
     </g>
     <g id="text_9">
      <!-- $\mathdefault{0.00}$ -->
      <g style="fill: #030303" transform="translate(32.405127 230.190128) scale(0.1 -0.1)">
       <defs>
        <path id="DejaVuSerif-2e" d="M 603 325 
Q 603 500 722 622 
Q 841 744 1019 744 
Q 1191 744 1312 622 
Q 1434 500 1434 325 
Q 1434 153 1312 31 
Q 1191 -91 1019 -91 
Q 841 -91 722 29 
Q 603 150 603 325 
z
" transform="scale(0.015625)"/>
       </defs>
       <use xlink:href="#DejaVuSerif-30" transform="translate(0 0.78125)"/>
       <use xlink:href="#DejaVuSerif-2e" transform="translate(63.623047 0.78125)"/>
       <use xlink:href="#DejaVuSerif-30" transform="translate(95.410156 0.78125)"/>
       <use xlink:href="#DejaVuSerif-30" transform="translate(159.033203 0.78125)"/>
      </g>
     </g>
    </g>
    <g id="ytick_2">
     <g id="line2d_9">
      <g>
       <use xlink:href="#m915a9b8b10" x="61.705127" y="201.182453" style="fill: #030303; stroke: #030303; stroke-width: 0.8"/>
      </g>
     </g>
     <g id="text_10">
      <!-- $\mathdefault{0.05}$ -->
      <g style="fill: #030303" transform="translate(32.405127 204.981672) scale(0.1 -0.1)">
       <defs>
        <path id="DejaVuSerif-35" d="M 3219 4666 
L 3219 4153 
L 1081 4153 
L 1081 2816 
Q 1244 2928 1461 2984 
Q 1678 3041 1947 3041 
Q 2703 3041 3140 2622 
Q 3578 2203 3578 1478 
Q 3578 738 3136 323 
Q 2694 -91 1894 -91 
Q 1572 -91 1234 -12 
Q 897 66 544 225 
L 544 1131 
L 897 1131 
Q 925 688 1179 453 
Q 1434 219 1894 219 
Q 2388 219 2653 544 
Q 2919 869 2919 1478 
Q 2919 2084 2655 2407 
Q 2391 2731 1894 2731 
Q 1613 2731 1398 2631 
Q 1184 2531 1019 2322 
L 750 2322 
L 750 4666 
L 3219 4666 
z
" transform="scale(0.015625)"/>
       </defs>
       <use xlink:href="#DejaVuSerif-30" transform="translate(0 0.78125)"/>
       <use xlink:href="#DejaVuSerif-2e" transform="translate(63.623047 0.78125)"/>
       <use xlink:href="#DejaVuSerif-30" transform="translate(95.410156 0.78125)"/>
       <use xlink:href="#DejaVuSerif-35" transform="translate(159.033203 0.78125)"/>
      </g>
     </g>
    </g>
    <g id="ytick_3">
     <g id="line2d_10">
      <g>
       <use xlink:href="#m915a9b8b10" x="61.705127" y="175.973998" style="fill: #030303; stroke: #030303; stroke-width: 0.8"/>
      </g>
     </g>
     <g id="text_11">
      <!-- $\mathdefault{0.10}$ -->
      <g style="fill: #030303" transform="translate(32.405127 179.773216) scale(0.1 -0.1)">
       <use xlink:href="#DejaVuSerif-30" transform="translate(0 0.78125)"/>
       <use xlink:href="#DejaVuSerif-2e" transform="translate(63.623047 0.78125)"/>
       <use xlink:href="#DejaVuSerif-31" transform="translate(95.410156 0.78125)"/>
       <use xlink:href="#DejaVuSerif-30" transform="translate(159.033203 0.78125)"/>
      </g>
     </g>
    </g>
    <g id="ytick_4">
     <g id="line2d_11">
      <g>
       <use xlink:href="#m915a9b8b10" x="61.705127" y="150.765542" style="fill: #030303; stroke: #030303; stroke-width: 0.8"/>
      </g>
     </g>
     <g id="text_12">
      <!-- $\mathdefault{0.15}$ -->
      <g style="fill: #030303" transform="translate(32.405127 154.564761) scale(0.1 -0.1)">
       <use xlink:href="#DejaVuSerif-30" transform="translate(0 0.78125)"/>
       <use xlink:href="#DejaVuSerif-2e" transform="translate(63.623047 0.78125)"/>
       <use xlink:href="#DejaVuSerif-31" transform="translate(95.410156 0.78125)"/>
       <use xlink:href="#DejaVuSerif-35" transform="translate(159.033203 0.78125)"/>
      </g>
     </g>
    </g>
    <g id="ytick_5">
     <g id="line2d_12">
      <g>
       <use xlink:href="#m915a9b8b10" x="61.705127" y="125.557086" style="fill: #030303; stroke: #030303; stroke-width: 0.8"/>
      </g>
     </g>
     <g id="text_13">
      <!-- $\mathdefault{0.20}$ -->
      <g style="fill: #030303" transform="translate(32.605127 129.356305) scale(0.1 -0.1)">
       <use xlink:href="#DejaVuSerif-30" transform="translate(0 0.78125)"/>
       <use xlink:href="#DejaVuSerif-2e" transform="translate(63.623047 0.78125)"/>
       <use xlink:href="#DejaVuSerif-32" transform="translate(92.785156 0.78125)"/>
       <use xlink:href="#DejaVuSerif-30" transform="translate(156.408203 0.78125)"/>
      </g>
     </g>
    </g>
    <g id="ytick_6">
     <g id="line2d_13">
      <g>
       <use xlink:href="#m915a9b8b10" x="61.705127" y="100.34863" style="fill: #030303; stroke: #030303; stroke-width: 0.8"/>
      </g>
     </g>
     <g id="text_14">
      <!-- $\mathdefault{0.25}$ -->
      <g style="fill: #030303" transform="translate(32.605127 104.147849) scale(0.1 -0.1)">
       <use xlink:href="#DejaVuSerif-30" transform="translate(0 0.78125)"/>
       <use xlink:href="#DejaVuSerif-2e" transform="translate(63.623047 0.78125)"/>
       <use xlink:href="#DejaVuSerif-32" transform="translate(92.785156 0.78125)"/>
       <use xlink:href="#DejaVuSerif-35" transform="translate(156.408203 0.78125)"/>
      </g>
     </g>
    </g>
    <g id="ytick_7">
     <g id="line2d_14">
      <g>
       <use xlink:href="#m915a9b8b10" x="61.705127" y="75.140175" style="fill: #030303; stroke: #030303; stroke-width: 0.8"/>
      </g>
     </g>
     <g id="text_15">
      <!-- $\mathdefault{0.30}$ -->
      <g style="fill: #030303" transform="translate(32.405127 78.939394) scale(0.1 -0.1)">
       <use xlink:href="#DejaVuSerif-30" transform="translate(0 0.78125)"/>
       <use xlink:href="#DejaVuSerif-2e" transform="translate(63.623047 0.78125)"/>
       <use xlink:href="#DejaVuSerif-33" transform="translate(95.410156 0.78125)"/>
       <use xlink:href="#DejaVuSerif-30" transform="translate(159.033203 0.78125)"/>
      </g>
     </g>
    </g>
    <g id="ytick_8">
     <g id="line2d_15">
      <g>
       <use xlink:href="#m915a9b8b10" x="61.705127" y="49.931719" style="fill: #030303; stroke: #030303; stroke-width: 0.8"/>
      </g>
     </g>
     <g id="text_16">
      <!-- $\mathdefault{0.35}$ -->
      <g style="fill: #030303" transform="translate(32.405127 53.730938) scale(0.1 -0.1)">
       <use xlink:href="#DejaVuSerif-30" transform="translate(0 0.78125)"/>
       <use xlink:href="#DejaVuSerif-2e" transform="translate(63.623047 0.78125)"/>
       <use xlink:href="#DejaVuSerif-33" transform="translate(95.410156 0.78125)"/>
       <use xlink:href="#DejaVuSerif-35" transform="translate(159.033203 0.78125)"/>
      </g>
     </g>
    </g>
    <g id="text_17">
     <!-- Density -->
     <g transform="translate(24.405752 165.2375) rotate(-90) scale(0.18 -0.18)">
      <defs>
       <path id="DejaVuSerif-44" d="M 1581 331 
L 2163 331 
Q 3072 331 3558 850 
Q 4044 1369 4044 2338 
Q 4044 3306 3559 3818 
Q 3075 4331 2163 4331 
L 1581 4331 
L 1581 331 
z
M 353 0 
L 353 331 
L 947 331 
L 947 4331 
L 353 4331 
L 353 4666 
L 2209 4666 
Q 3416 4666 4089 4050 
Q 4763 3434 4763 2338 
Q 4763 1238 4088 619 
Q 3413 0 2209 0 
L 353 0 
z
" transform="scale(0.015625)"/>
       <path id="DejaVuSerif-65" d="M 3469 1600 
L 991 1600 
L 991 1575 
Q 991 903 1244 561 
Q 1497 219 1991 219 
Q 2369 219 2611 417 
Q 2853 616 2950 1006 
L 3413 1006 
Q 3275 459 2904 184 
Q 2534 -91 1931 -91 
Q 1203 -91 761 389 
Q 319 869 319 1663 
Q 319 2450 753 2931 
Q 1188 3413 1894 3413 
Q 2647 3413 3050 2948 
Q 3453 2484 3469 1600 
z
M 2791 1931 
Q 2772 2513 2545 2808 
Q 2319 3103 1894 3103 
Q 1497 3103 1269 2806 
Q 1041 2509 991 1931 
L 2791 1931 
z
" transform="scale(0.015625)"/>
       <path id="DejaVuSerif-6e" d="M 263 0 
L 263 331 
L 781 331 
L 781 2988 
L 231 2988 
L 231 3322 
L 1356 3322 
L 1356 2731 
Q 1516 3069 1770 3241 
Q 2025 3413 2363 3413 
Q 2913 3413 3172 3097 
Q 3431 2781 3431 2113 
L 3431 331 
L 3944 331 
L 3944 0 
L 2356 0 
L 2356 331 
L 2853 331 
L 2853 1931 
Q 2853 2541 2703 2767 
Q 2553 2994 2175 2994 
Q 1775 2994 1565 2701 
Q 1356 2409 1356 1850 
L 1356 331 
L 1856 331 
L 1856 0 
L 263 0 
z
" transform="scale(0.015625)"/>
       <path id="DejaVuSerif-79" d="M 1381 -609 
L 1600 -56 
L 359 2988 
L -19 2988 
L -19 3322 
L 1509 3322 
L 1509 2988 
L 978 2988 
L 1913 703 
L 2847 2988 
L 2350 2988 
L 2350 3322 
L 3597 3322 
L 3597 2988 
L 3225 2988 
L 1703 -750 
Q 1547 -1138 1356 -1280 
Q 1166 -1422 819 -1422 
Q 672 -1422 517 -1397 
Q 363 -1372 206 -1325 
L 206 -691 
L 500 -691 
Q 519 -903 608 -995 
Q 697 -1088 884 -1088 
Q 1056 -1088 1161 -992 
Q 1266 -897 1381 -609 
z
" transform="scale(0.015625)"/>
      </defs>
      <use xlink:href="#DejaVuSerif-44"/>
      <use xlink:href="#DejaVuSerif-65" x="80.175781"/>
      <use xlink:href="#DejaVuSerif-6e" x="139.355469"/>
      <use xlink:href="#DejaVuSerif-73" x="203.759766"/>
      <use xlink:href="#DejaVuSerif-69" x="255.078125"/>
      <use xlink:href="#DejaVuSerif-74" x="287.060547"/>
      <use xlink:href="#DejaVuSerif-79" x="327.246094"/>
     </g>
    </g>
   </g>
   <g id="line2d_16">
    <path d="M 74.773076 217.672525 
L 80.010731 216.206176 
L 84.72462 214.660497 
L 89.438509 212.864433 
L 93.628633 211.025301 
L 97.818757 208.924668 
L 101.485115 206.844269 
L 105.151474 204.510439 
L 108.817832 201.895028 
L 112.48419 198.967964 
L 115.626783 196.187008 
L 118.769376 193.133138 
L 121.911969 189.785345 
L 125.054562 186.122676 
L 128.197155 182.124757 
L 131.339748 177.772425 
L 134.482341 173.04852 
L 137.624934 167.938812 
L 140.767526 162.433095 
L 143.910119 156.526419 
L 147.576478 149.131194 
L 151.242836 141.209599 
L 155.43296 131.557667 
L 160.146849 120.042541 
L 165.90827 105.295661 
L 176.907345 76.919919 
L 180.573703 68.059587 
L 183.716296 60.969911 
L 186.335123 55.522385 
L 188.953951 50.576404 
L 191.049013 47.030542 
L 193.144075 43.888238 
L 195.239137 41.181564 
L 196.810433 39.454618 
L 198.381729 37.999059 
L 199.953026 36.823712 
L 201.524322 35.935778 
L 203.095619 35.340739 
L 204.666915 35.04229 
L 206.238212 35.04229 
L 207.809508 35.340739 
L 209.380805 35.935778 
L 210.952101 36.823712 
L 212.523397 37.999059 
L 214.094694 39.454618 
L 215.66599 41.181564 
L 217.761052 43.888238 
L 219.856114 47.030542 
L 221.951176 50.576404 
L 224.570004 55.522385 
L 227.188831 60.969911 
L 230.331424 68.059587 
L 233.997782 76.919919 
L 239.235437 90.274071 
L 251.805809 122.653528 
L 256.519698 134.026684 
L 260.709822 143.524957 
L 264.37618 151.298874 
L 268.042539 158.539911 
L 271.708897 165.235903 
L 274.85149 170.542637 
L 277.994083 175.457889 
L 281.136676 179.994022 
L 284.279269 184.166857 
L 287.421861 187.994664 
L 290.564454 191.497298 
L 293.707047 194.695497 
L 296.84964 197.610296 
L 300.515998 200.680549 
L 304.182357 203.42574 
L 307.848715 205.876683 
L 311.515074 208.062379 
L 315.181432 210.009807 
L 319.371556 211.975476 
L 323.56168 213.69605 
L 328.275569 215.376175 
L 332.989458 216.822142 
L 336.132051 217.672525 
L 336.132051 217.672525 
" clip-path="url(#p62969fafe1)" style="fill: none; stroke: #000080; stroke-width: 2; stroke-linecap: square"/>
   </g>
   <g id="line2d_17">
    <path d="M 229.225034 235.96 
L 229.225034 25.44 
" clip-path="url(#p62969fafe1)" style="fill: none; stroke-dasharray: 5.55,2.4; stroke-dashoffset: 0; stroke: #ff0000; stroke-width: 1.5"/>
   </g>
   <g id="line2d_18">
    <path d="M 93.478458 235.96 
L 93.478458 25.44 
" clip-path="url(#p62969fafe1)" style="fill: none; stroke-dasharray: 1.5,2.475; stroke-dashoffset: 0; stroke: #8b0000; stroke-width: 1.5"/>
   </g>
   <g id="line2d_19">
    <path d="M 317.426669 235.96 
L 317.426669 25.44 
" clip-path="url(#p62969fafe1)" style="fill: none; stroke-dasharray: 1.5,2.475; stroke-dashoffset: 0; stroke: #8b0000; stroke-width: 1.5"/>
   </g>
   <g id="patch_3">
    <path d="M 61.705127 235.96 
L 61.705127 25.44 
" style="fill: none; stroke: #030303; stroke-width: 1.5; stroke-linejoin: miter; stroke-linecap: square"/>
   </g>
   <g id="patch_4">
    <path d="M 61.705127 235.96 
L 349.2 235.96 
" style="fill: none; stroke: #030303; stroke-width: 1.5; stroke-linejoin: miter; stroke-linecap: square"/>
   </g>
   <g id="patch_5">
    <path d="M 247.151844 58.239244 
Q 239.114103 61.495833 233.14879 63.912754 
" style="fill: none; stroke: #000000; stroke-width: 2; stroke-linecap: round"/>
    <path d="M 238.498743 64.33466 
L 233.14879 63.912754 
L 236.696287 59.885935 
" style="fill: none; stroke: #000000; stroke-width: 2; stroke-linecap: round"/>
   </g>
   <g id="text_18">
    <!-- $T_{\text{obs}}$ -->
    <g style="fill: #ff0000" transform="translate(251.004949 55.419129) scale(0.12 -0.12)">
     <defs>
      <path id="DejaVuSans-Oblique-54" d="M 378 4666 
L 4325 4666 
L 4225 4134 
L 2559 4134 
L 1759 0 
L 1125 0 
L 1925 4134 
L 275 4134 
L 378 4666 
z
" transform="scale(0.015625)"/>
      <path id="DejaVuSans-6f" d="M 1959 3097 
Q 1497 3097 1228 2736 
Q 959 2375 959 1747 
Q 959 1119 1226 758 
Q 1494 397 1959 397 
Q 2419 397 2687 759 
Q 2956 1122 2956 1747 
Q 2956 2369 2687 2733 
Q 2419 3097 1959 3097 
z
M 1959 3584 
Q 2709 3584 3137 3096 
Q 3566 2609 3566 1747 
Q 3566 888 3137 398 
Q 2709 -91 1959 -91 
Q 1206 -91 779 398 
Q 353 888 353 1747 
Q 353 2609 779 3096 
Q 1206 3584 1959 3584 
z
" transform="scale(0.015625)"/>
      <path id="DejaVuSans-62" d="M 3116 1747 
Q 3116 2381 2855 2742 
Q 2594 3103 2138 3103 
Q 1681 3103 1420 2742 
Q 1159 2381 1159 1747 
Q 1159 1113 1420 752 
Q 1681 391 2138 391 
Q 2594 391 2855 752 
Q 3116 1113 3116 1747 
z
M 1159 2969 
Q 1341 3281 1617 3432 
Q 1894 3584 2278 3584 
Q 2916 3584 3314 3078 
Q 3713 2572 3713 1747 
Q 3713 922 3314 415 
Q 2916 -91 2278 -91 
Q 1894 -91 1617 61 
Q 1341 213 1159 525 
L 1159 0 
L 581 0 
L 581 4863 
L 1159 4863 
L 1159 2969 
z
" transform="scale(0.015625)"/>
      <path id="DejaVuSans-73" d="M 2834 3397 
L 2834 2853 
Q 2591 2978 2328 3040 
Q 2066 3103 1784 3103 
Q 1356 3103 1142 2972 
Q 928 2841 928 2578 
Q 928 2378 1081 2264 
Q 1234 2150 1697 2047 
L 1894 2003 
Q 2506 1872 2764 1633 
Q 3022 1394 3022 966 
Q 3022 478 2636 193 
Q 2250 -91 1575 -91 
Q 1294 -91 989 -36 
Q 684 19 347 128 
L 347 722 
Q 666 556 975 473 
Q 1284 391 1588 391 
Q 1994 391 2212 530 
Q 2431 669 2431 922 
Q 2431 1156 2273 1281 
Q 2116 1406 1581 1522 
L 1381 1569 
Q 847 1681 609 1914 
Q 372 2147 372 2553 
Q 372 3047 722 3315 
Q 1072 3584 1716 3584 
Q 2034 3584 2315 3537 
Q 2597 3491 2834 3397 
z
" transform="scale(0.015625)"/>
     </defs>
     <use xlink:href="#DejaVuSans-Oblique-54" transform="translate(0 0.09375)"/>
     <use xlink:href="#DejaVuSans-6f" transform="translate(61.083984 -16.3125) scale(0.7)"/>
     <use xlink:href="#DejaVuSans-62" transform="translate(103.911133 -16.3125) scale(0.7)"/>
     <use xlink:href="#DejaVuSans-73" transform="translate(148.344727 -16.3125) scale(0.7)"/>
    </g>
   </g>
   <g id="text_19">
    <!-- Null Distribution for T-Test -->
    <g style="fill: #000080" transform="translate(123.941626 19.44) scale(0.12 -0.12)">
     <defs>
      <path id="DejaVuSerif-4e" d="M 313 0 
L 313 331 
L 941 331 
L 941 4331 
L 313 4331 
L 313 4666 
L 1509 4666 
L 4306 984 
L 4306 4331 
L 3681 4331 
L 3681 4666 
L 5319 4666 
L 5319 4331 
L 4691 4331 
L 4691 -91 
L 4313 -91 
L 1325 3841 
L 1325 331 
L 1953 331 
L 1953 0 
L 313 0 
z
" transform="scale(0.015625)"/>
      <path id="DejaVuSerif-75" d="M 2266 3322 
L 3341 3322 
L 3341 331 
L 3884 331 
L 3884 0 
L 2766 0 
L 2766 588 
Q 2606 256 2353 82 
Q 2100 -91 1766 -91 
Q 1213 -91 952 223 
Q 691 538 691 1209 
L 691 2988 
L 172 2988 
L 172 3322 
L 1269 3322 
L 1269 1388 
Q 1269 781 1417 556 
Q 1566 331 1947 331 
Q 2347 331 2556 625 
Q 2766 919 2766 1478 
L 2766 2988 
L 2266 2988 
L 2266 3322 
z
" transform="scale(0.015625)"/>
      <path id="DejaVuSerif-6c" d="M 1313 331 
L 1856 331 
L 1856 0 
L 184 0 
L 184 331 
L 738 331 
L 738 4531 
L 184 4531 
L 184 4863 
L 1313 4863 
L 1313 331 
z
" transform="scale(0.015625)"/>
      <path id="DejaVuSerif-20" transform="scale(0.015625)"/>
      <path id="DejaVuSerif-72" d="M 3059 3328 
L 3059 2497 
L 2728 2497 
Q 2713 2744 2591 2866 
Q 2469 2988 2234 2988 
Q 1809 2988 1582 2694 
Q 1356 2400 1356 1850 
L 1356 331 
L 2022 331 
L 2022 0 
L 263 0 
L 263 331 
L 781 331 
L 781 2994 
L 231 2994 
L 231 3322 
L 1356 3322 
L 1356 2731 
Q 1525 3078 1790 3245 
Q 2056 3413 2438 3413 
Q 2578 3413 2733 3391 
Q 2888 3369 3059 3328 
z
" transform="scale(0.015625)"/>
      <path id="DejaVuSerif-62" d="M 738 331 
L 738 4531 
L 184 4531 
L 184 4863 
L 1313 4863 
L 1313 2803 
Q 1481 3116 1742 3264 
Q 2003 3413 2388 3413 
Q 3000 3413 3387 2928 
Q 3775 2444 3775 1663 
Q 3775 881 3387 395 
Q 3000 -91 2388 -91 
Q 2003 -91 1742 57 
Q 1481 206 1313 519 
L 1313 0 
L 184 0 
L 184 331 
L 738 331 
z
M 1313 1497 
Q 1313 897 1542 583 
Q 1772 269 2209 269 
Q 2650 269 2876 622 
Q 3103 975 3103 1663 
Q 3103 2353 2876 2703 
Q 2650 3053 2209 3053 
Q 1772 3053 1542 2737 
Q 1313 2422 1313 1825 
L 1313 1497 
z
" transform="scale(0.015625)"/>
      <path id="DejaVuSerif-6f" d="M 1925 219 
Q 2388 219 2623 584 
Q 2859 950 2859 1663 
Q 2859 2375 2623 2739 
Q 2388 3103 1925 3103 
Q 1463 3103 1227 2739 
Q 991 2375 991 1663 
Q 991 950 1228 584 
Q 1466 219 1925 219 
z
M 1925 -91 
Q 1200 -91 759 389 
Q 319 869 319 1663 
Q 319 2456 758 2934 
Q 1197 3413 1925 3413 
Q 2653 3413 3092 2934 
Q 3531 2456 3531 1663 
Q 3531 869 3092 389 
Q 2653 -91 1925 -91 
z
" transform="scale(0.015625)"/>
      <path id="DejaVuSerif-66" d="M 2753 4078 
L 2450 4078 
Q 2447 4313 2317 4434 
Q 2188 4556 1941 4556 
Q 1619 4556 1487 4379 
Q 1356 4203 1356 3750 
L 1356 3322 
L 2284 3322 
L 2284 2988 
L 1356 2988 
L 1356 331 
L 2094 331 
L 2094 0 
L 231 0 
L 231 331 
L 781 331 
L 781 2988 
L 231 2988 
L 231 3322 
L 781 3322 
L 781 3738 
Q 781 4294 1070 4578 
Q 1359 4863 1919 4863 
Q 2128 4863 2337 4825 
Q 2547 4788 2753 4709 
L 2753 4078 
z
" transform="scale(0.015625)"/>
     </defs>
     <use xlink:href="#DejaVuSerif-4e"/>
     <use xlink:href="#DejaVuSerif-75" x="87.5"/>
     <use xlink:href="#DejaVuSerif-6c" x="151.904297"/>
     <use xlink:href="#DejaVuSerif-6c" x="183.886719"/>
     <use xlink:href="#DejaVuSerif-20" x="215.869141"/>
     <use xlink:href="#DejaVuSerif-44" x="247.65625"/>
     <use xlink:href="#DejaVuSerif-69" x="327.832031"/>
     <use xlink:href="#DejaVuSerif-73" x="359.814453"/>
     <use xlink:href="#DejaVuSerif-74" x="411.132812"/>
     <use xlink:href="#DejaVuSerif-72" x="451.318359"/>
     <use xlink:href="#DejaVuSerif-69" x="499.121094"/>
     <use xlink:href="#DejaVuSerif-62" x="531.103516"/>
     <use xlink:href="#DejaVuSerif-75" x="595.117188"/>
     <use xlink:href="#DejaVuSerif-74" x="659.521484"/>
     <use xlink:href="#DejaVuSerif-69" x="699.707031"/>
     <use xlink:href="#DejaVuSerif-6f" x="731.689453"/>
     <use xlink:href="#DejaVuSerif-6e" x="791.894531"/>
     <use xlink:href="#DejaVuSerif-20" x="856.298828"/>
     <use xlink:href="#DejaVuSerif-66" x="888.085938"/>
     <use xlink:href="#DejaVuSerif-6f" x="925.097656"/>
     <use xlink:href="#DejaVuSerif-72" x="985.302734"/>
     <use xlink:href="#DejaVuSerif-20" x="1033.105469"/>
     <use xlink:href="#DejaVuSerif-54" x="1064.892578"/>
     <use xlink:href="#DejaVuSerif-2d" x="1118.716797"/>
     <use xlink:href="#DejaVuSerif-54" x="1148.880859"/>
     <use xlink:href="#DejaVuSerif-65" x="1207.830078"/>
     <use xlink:href="#DejaVuSerif-73" x="1267.009766"/>
     <use xlink:href="#DejaVuSerif-74" x="1318.328125"/>
    </g>
   </g>
  </g>
 </g>
 <defs>
  <clipPath id="p62969fafe1">
   <rect x="61.705127" y="25.44" width="287.494873" height="210.52"/>
  </clipPath>
 </defs>
</svg>
