<?xml version="1.0" encoding="utf-8" standalone="no"?>
<!DOCTYPE svg PUBLIC "-//W3C//DTD SVG 1.1//EN"
  "http://www.w3.org/Graphics/SVG/1.1/DTD/svg11.dtd">
<svg xmlns:xlink="http://www.w3.org/1999/xlink" width="576pt" height="432pt" viewBox="0 0 576 432" xmlns="http://www.w3.org/2000/svg" version="1.1">
 <metadata>
  <rdf:RDF xmlns:dc="http://purl.org/dc/elements/1.1/" xmlns:cc="http://creativecommons.org/ns#" xmlns:rdf="http://www.w3.org/1999/02/22-rdf-syntax-ns#">
   <cc:Work>
    <dc:type rdf:resource="http://purl.org/dc/dcmitype/StillImage"/>
    <dc:date>2024-05-07T22:10:58.602361</dc:date>
    <dc:format>image/svg+xml</dc:format>
    <dc:creator>
     <cc:Agent>
      <dc:title>Matplotlib v3.8.2, https://matplotlib.org/</dc:title>
     </cc:Agent>
    </dc:creator>
   </cc:Work>
  </rdf:RDF>
 </metadata>
 <defs>
  <style type="text/css">*{stroke-linejoin: round; stroke-linecap: butt}</style>
 </defs>
 <g id="figure_1">
  <g id="patch_1">
   <path d="M 0 432 
L 576 432 
L 576 0 
L 0 0 
L 0 432 
z
" style="fill: none"/>
  </g>
  <g id="axes_1">
   <g id="patch_2">
    <path d="M 55.988721 401.24 
L 565.2 401.24 
L 565.2 25.44 
L 55.988721 25.44 
L 55.988721 401.24 
z
" style="fill: none"/>
   </g>
   <g id="PolyCollection_1">
    <defs>
     <path id="mde5e281fb4" d="M 183.827495 -47.841818 
L 182.755586 -47.841818 
L 182.604533 -50.839219 
L 182.424964 -53.83662 
L 182.215829 -56.834021 
L 181.977318 -59.831422 
L 181.711092 -62.828823 
L 181.420429 -65.826224 
L 181.110233 -68.823625 
L 180.786872 -71.821026 
L 180.457852 -74.818427 
L 180.131297 -77.815828 
L 179.815293 -80.813229 
L 179.517123 -83.81063 
L 179.242469 -86.808031 
L 178.994671 -89.805432 
L 178.774106 -92.802833 
L 178.577795 -95.800234 
L 178.399263 -98.797635 
L 178.228704 -101.795036 
L 178.053448 -104.792437 
L 177.858681 -107.789838 
L 177.628368 -110.787239 
L 177.346274 -113.78464 
L 176.997006 -116.782041 
L 176.566943 -119.779442 
L 176.044996 -122.776843 
L 175.423108 -125.774244 
L 174.696455 -128.771645 
L 173.863334 -131.769046 
L 172.924758 -134.766447 
L 171.883791 -137.763848 
L 170.744704 -140.761249 
L 169.51203 -143.75865 
L 168.189634 -146.756051 
L 166.779894 -149.753452 
L 165.28312 -152.750853 
L 163.697307 -155.748254 
L 162.018291 -158.745655 
L 160.24036 -161.743056 
L 158.357315 -164.740457 
L 156.363916 -167.737858 
L 154.257595 -170.735259 
L 152.040276 -173.73266 
L 149.72009 -176.730061 
L 147.312773 -179.727462 
L 144.842528 -182.724863 
L 142.3422 -185.722264 
L 139.852649 -188.719665 
L 137.421309 -191.717066 
L 135.100008 -194.714467 
L 132.942196 -197.711868 
L 130.99982 -200.709269 
L 129.320114 -203.70667 
L 127.942586 -206.704071 
L 126.896477 -209.701472 
L 126.19891 -212.698873 
L 125.853896 -215.696274 
L 125.852265 -218.693675 
L 126.172527 -221.691076 
L 126.782582 -224.688476 
L 127.642118 -227.685877 
L 128.705506 -230.683278 
L 129.924947 -233.680679 
L 131.253628 -236.67808 
L 132.648636 -239.675481 
L 134.073413 -242.672882 
L 135.499582 -245.670283 
L 136.908011 -248.667684 
L 138.289084 -251.665085 
L 139.642181 -254.662486 
L 140.974468 -257.659887 
L 142.299147 -260.657288 
L 143.633345 -263.654689 
L 144.995875 -266.65209 
L 146.405051 -269.649491 
L 147.876768 -272.646892 
L 149.422964 -275.644293 
L 151.050563 -278.641694 
L 152.760917 -281.639095 
L 154.549725 -284.636496 
L 156.407372 -287.633897 
L 158.319588 -290.631298 
L 160.268334 -293.628699 
L 162.232832 -296.6261 
L 164.190639 -299.623501 
L 166.118723 -302.620902 
L 167.99448 -305.618303 
L 169.796663 -308.615704 
L 171.506195 -311.613105 
L 173.106841 -314.610506 
L 174.585723 -317.607907 
L 175.933655 -320.605308 
L 177.145293 -323.602709 
L 178.219087 -326.60011 
L 179.157055 -329.597511 
L 179.964391 -332.594912 
L 180.648942 -335.592313 
L 181.220598 -338.589714 
L 181.690651 -341.587115 
L 182.071148 -344.584516 
L 184.511933 -344.584516 
L 184.511933 -344.584516 
L 184.89243 -341.587115 
L 185.362483 -338.589714 
L 185.93414 -335.592313 
L 186.61869 -332.594912 
L 187.426026 -329.597511 
L 188.363994 -326.60011 
L 189.437789 -323.602709 
L 190.649426 -320.605308 
L 191.997358 -317.607907 
L 193.47624 -314.610506 
L 195.076886 -311.613105 
L 196.786418 -308.615704 
L 198.588601 -305.618303 
L 200.464358 -302.620902 
L 202.392442 -299.623501 
L 204.350249 -296.6261 
L 206.314747 -293.628699 
L 208.263493 -290.631298 
L 210.175709 -287.633897 
L 212.033356 -284.636496 
L 213.822164 -281.639095 
L 215.532518 -278.641694 
L 217.160117 -275.644293 
L 218.706313 -272.646892 
L 220.17803 -269.649491 
L 221.587206 -266.65209 
L 222.949736 -263.654689 
L 224.283935 -260.657288 
L 225.608613 -257.659887 
L 226.9409 -254.662486 
L 228.293997 -251.665085 
L 229.67507 -248.667684 
L 231.083499 -245.670283 
L 232.509668 -242.672882 
L 233.934445 -239.675481 
L 235.329453 -236.67808 
L 236.658134 -233.680679 
L 237.877575 -230.683278 
L 238.940963 -227.685877 
L 239.800499 -224.688476 
L 240.410554 -221.691076 
L 240.730816 -218.693675 
L 240.729185 -215.696274 
L 240.384171 -212.698873 
L 239.686604 -209.701472 
L 238.640495 -206.704071 
L 237.262967 -203.70667 
L 235.583261 -200.709269 
L 233.640885 -197.711868 
L 231.483073 -194.714467 
L 229.161772 -191.717066 
L 226.730433 -188.719665 
L 224.240881 -185.722264 
L 221.740553 -182.724863 
L 219.270308 -179.727462 
L 216.862991 -176.730061 
L 214.542805 -173.73266 
L 212.325486 -170.735259 
L 210.219165 -167.737858 
L 208.225766 -164.740457 
L 206.342721 -161.743056 
L 204.56479 -158.745655 
L 202.885774 -155.748254 
L 201.299961 -152.750853 
L 199.803187 -149.753452 
L 198.393447 -146.756051 
L 197.071051 -143.75865 
L 195.838377 -140.761249 
L 194.69929 -137.763848 
L 193.658323 -134.766447 
L 192.719747 -131.769046 
L 191.886626 -128.771645 
L 191.159973 -125.774244 
L 190.538085 -122.776843 
L 190.016138 -119.779442 
L 189.586075 -116.782041 
L 189.236807 -113.78464 
L 188.954713 -110.787239 
L 188.7244 -107.789838 
L 188.529633 -104.792437 
L 188.354377 -101.795036 
L 188.183818 -98.797635 
L 188.005286 -95.800234 
L 187.808975 -92.802833 
L 187.588411 -89.805432 
L 187.340612 -86.808031 
L 187.065958 -83.81063 
L 186.767788 -80.813229 
L 186.451784 -77.815828 
L 186.125229 -74.818427 
L 185.796209 -71.821026 
L 185.472848 -68.823625 
L 185.162652 -65.826224 
L 184.871989 -62.828823 
L 184.605763 -59.831422 
L 184.367252 -56.834021 
L 184.158117 -53.83662 
L 183.978548 -50.839219 
L 183.827495 -47.841818 
z
" style="stroke: #3f3f3f; stroke-width: 1.25"/>
    </defs>
    <g clip-path="url(#p26ceed10ce)">
     <use xlink:href="#mde5e281fb4" x="0" y="432" style="fill: #cccccc; stroke: #3f3f3f; stroke-width: 1.25"/>
    </g>
   </g>
   <g id="PolyCollection_2">
    <defs>
     <path id="m9b2896fa1a" d="M 439.317244 -227.225995 
L 436.477116 -227.225995 
L 436.024545 -228.864906 
L 435.460306 -230.503817 
L 434.767232 -232.142728 
L 433.928355 -233.781639 
L 432.927701 -235.42055 
L 431.751155 -237.059461 
L 430.38734 -238.698372 
L 428.828452 -240.337283 
L 427.070975 -241.976194 
L 425.116204 -243.615105 
L 422.970523 -245.254016 
L 420.645387 -246.892927 
L 418.157003 -248.531838 
L 415.525694 -250.170749 
L 412.774994 -251.80966 
L 409.930519 -253.448571 
L 407.018681 -255.087482 
L 404.06534 -256.726393 
L 401.094459 -258.365304 
L 398.126874 -260.004215 
L 395.179225 -261.643126 
L 392.263147 -263.282037 
L 389.38477 -264.920948 
L 386.544568 -266.559859 
L 383.737625 -268.19877 
L 380.954314 -269.837681 
L 378.181423 -271.476592 
L 375.403696 -273.115503 
L 372.60573 -274.754414 
L 369.77415 -276.393324 
L 366.899892 -278.032235 
L 363.980426 -279.671146 
L 361.021681 -281.310057 
L 358.039464 -282.948968 
L 355.060147 -284.587879 
L 352.120489 -286.22679 
L 349.266515 -287.865701 
L 346.551504 -289.504612 
L 344.033242 -291.143523 
L 341.770794 -292.782434 
L 339.821127 -294.421345 
L 338.235938 -296.060256 
L 337.059 -297.699167 
L 336.324277 -299.338078 
L 336.054924 -300.976989 
L 336.263164 -302.6159 
L 336.95089 -304.254811 
L 338.110764 -305.893722 
L 339.727528 -307.532633 
L 341.779238 -309.171544 
L 344.238232 -310.810455 
L 347.071718 -312.449366 
L 350.242003 -314.088277 
L 353.706495 -315.727188 
L 357.417682 -317.366099 
L 361.323346 -319.00501 
L 365.367199 -320.643921 
L 369.490097 -322.282832 
L 373.631844 -323.921743 
L 377.733488 -325.560654 
L 381.739898 -327.199565 
L 385.602329 -328.838476 
L 389.28066 -330.477387 
L 392.745023 -332.116298 
L 395.976602 -333.755209 
L 398.967524 -335.39412 
L 401.719857 -337.033031 
L 404.243887 -338.671942 
L 406.555908 -340.310853 
L 408.675841 -341.949764 
L 410.624961 -343.588674 
L 412.424015 -345.227585 
L 414.091878 -346.866496 
L 415.644838 -348.505407 
L 417.096469 -350.144318 
L 418.457962 -351.783229 
L 419.738759 -353.42214 
L 420.947258 -355.061051 
L 422.091435 -356.699962 
L 423.179227 -358.338873 
L 424.218615 -359.977784 
L 425.217409 -361.616695 
L 426.182803 -363.255606 
L 427.120802 -364.894517 
L 428.035669 -366.533428 
L 428.92949 -368.172339 
L 429.801965 -369.81125 
L 430.650474 -371.450161 
L 431.470406 -373.089072 
L 432.255712 -374.727983 
L 432.999611 -376.366894 
L 433.695337 -378.005805 
L 434.336852 -379.644716 
L 434.919428 -381.283627 
L 435.440055 -382.922538 
L 435.897646 -384.561449 
L 436.293033 -386.20036 
L 436.628807 -387.839271 
L 436.909006 -389.478182 
L 438.885354 -389.478182 
L 438.885354 -389.478182 
L 439.165554 -387.839271 
L 439.501327 -386.20036 
L 439.896715 -384.561449 
L 440.354305 -382.922538 
L 440.874933 -381.283627 
L 441.457509 -379.644716 
L 442.099024 -378.005805 
L 442.79475 -376.366894 
L 443.538648 -374.727983 
L 444.323955 -373.089072 
L 445.143886 -371.450161 
L 445.992395 -369.81125 
L 446.86487 -368.172339 
L 447.758691 -366.533428 
L 448.673558 -364.894517 
L 449.611558 -363.255606 
L 450.576951 -361.616695 
L 451.575745 -359.977784 
L 452.615133 -358.338873 
L 453.702925 -356.699962 
L 454.847103 -355.061051 
L 456.055602 -353.42214 
L 457.336398 -351.783229 
L 458.697891 -350.144318 
L 460.149522 -348.505407 
L 461.702482 -346.866496 
L 463.370345 -345.227585 
L 465.169399 -343.588674 
L 467.118519 -341.949764 
L 469.238452 -340.310853 
L 471.550474 -338.671942 
L 474.074504 -337.033031 
L 476.826837 -335.39412 
L 479.817758 -333.755209 
L 483.049337 -332.116298 
L 486.5137 -330.477387 
L 490.192032 -328.838476 
L 494.054462 -327.199565 
L 498.060873 -325.560654 
L 502.162516 -323.921743 
L 506.304263 -322.282832 
L 510.427161 -320.643921 
L 514.471014 -319.00501 
L 518.376678 -317.366099 
L 522.087866 -315.727188 
L 525.552357 -314.088277 
L 528.722642 -312.449366 
L 531.556129 -310.810455 
L 534.015122 -309.171544 
L 536.066832 -307.532633 
L 537.683596 -305.893722 
L 538.843471 -304.254811 
L 539.531196 -302.6159 
L 539.739436 -300.976989 
L 539.470083 -299.338078 
L 538.73536 -297.699167 
L 537.558422 -296.060256 
L 535.973233 -294.421345 
L 534.023567 -292.782434 
L 531.761119 -291.143523 
L 529.242857 -289.504612 
L 526.527846 -287.865701 
L 523.673871 -286.22679 
L 520.734213 -284.587879 
L 517.754896 -282.948968 
L 514.772679 -281.310057 
L 511.813935 -279.671146 
L 508.894468 -278.032235 
L 506.020211 -276.393324 
L 503.188631 -274.754414 
L 500.390665 -273.115503 
L 497.612937 -271.476592 
L 494.840046 -269.837681 
L 492.056735 -268.19877 
L 489.249792 -266.559859 
L 486.40959 -264.920948 
L 483.531213 -263.282037 
L 480.615136 -261.643126 
L 477.667487 -260.004215 
L 474.699901 -258.365304 
L 471.729021 -256.726393 
L 468.775679 -255.087482 
L 465.863841 -253.448571 
L 463.019366 -251.80966 
L 460.268666 -250.170749 
L 457.637358 -248.531838 
L 455.148974 -246.892927 
L 452.823838 -245.254016 
L 450.678156 -243.615105 
L 448.723385 -241.976194 
L 446.965908 -240.337283 
L 445.40702 -238.698372 
L 444.043205 -237.059461 
L 442.866659 -235.42055 
L 441.866005 -233.781639 
L 441.027128 -232.142728 
L 440.334054 -230.503817 
L 439.769816 -228.864906 
L 439.317244 -227.225995 
z
" style="stroke: #3f3f3f; stroke-width: 1.25"/>
    </defs>
    <g clip-path="url(#p26ceed10ce)">
     <use xlink:href="#m9b2896fa1a" x="0" y="432" style="fill: #cccccc; stroke: #3f3f3f; stroke-width: 1.25"/>
    </g>
   </g>
   <g id="matplotlib.axis_1">
    <g id="xtick_1">
     <g id="line2d_1">
      <defs>
       <path id="mb847da6778" d="M 0 0 
L 0 3.5 
" style="stroke: #030303; stroke-width: 0.8"/>
      </defs>
      <g>
       <use xlink:href="#mb847da6778" x="183.291541" y="401.24" style="fill: #030303; stroke: #030303; stroke-width: 0.8"/>
      </g>
     </g>
     <g id="text_1">
      <!-- Standard Material -->
      <g style="fill: #030303" transform="translate(122.663806 418.117969) scale(0.13 -0.13)">
       <defs>
        <path id="DejaVuSerif-53" d="M 594 225 
L 594 1288 
L 953 1284 
Q 969 753 1261 498 
Q 1553 244 2150 244 
Q 2706 244 2998 464 
Q 3291 684 3291 1106 
Q 3291 1444 3114 1625 
Q 2938 1806 2369 1978 
L 1753 2163 
Q 1084 2366 811 2669 
Q 538 2972 538 3500 
Q 538 4094 959 4422 
Q 1381 4750 2144 4750 
Q 2469 4750 2856 4679 
Q 3244 4609 3681 4475 
L 3681 3481 
L 3328 3481 
Q 3275 3975 2998 4195 
Q 2722 4416 2156 4416 
Q 1663 4416 1405 4214 
Q 1147 4013 1147 3628 
Q 1147 3294 1340 3103 
Q 1534 2913 2163 2725 
L 2741 2553 
Q 3375 2363 3645 2067 
Q 3916 1772 3916 1275 
Q 3916 597 3481 253 
Q 3047 -91 2188 -91 
Q 1803 -91 1404 -12 
Q 1006 66 594 225 
z
" transform="scale(0.015625)"/>
        <path id="DejaVuSerif-74" d="M 691 2988 
L 184 2988 
L 184 3322 
L 691 3322 
L 691 4353 
L 1269 4353 
L 1269 3322 
L 2350 3322 
L 2350 2988 
L 1269 2988 
L 1269 878 
Q 1269 456 1350 337 
Q 1431 219 1650 219 
Q 1875 219 1978 351 
Q 2081 484 2088 781 
L 2522 781 
Q 2497 328 2275 118 
Q 2053 -91 1600 -91 
Q 1103 -91 897 129 
Q 691 350 691 878 
L 691 2988 
z
" transform="scale(0.015625)"/>
        <path id="DejaVuSerif-61" d="M 2547 1044 
L 2547 1747 
L 1806 1747 
Q 1378 1747 1168 1562 
Q 959 1378 959 997 
Q 959 650 1171 447 
Q 1384 244 1747 244 
Q 2106 244 2326 466 
Q 2547 688 2547 1044 
z
M 3122 2075 
L 3122 331 
L 3634 331 
L 3634 0 
L 2547 0 
L 2547 359 
Q 2356 128 2106 18 
Q 1856 -91 1522 -91 
Q 969 -91 644 203 
Q 319 497 319 997 
Q 319 1513 691 1797 
Q 1063 2081 1741 2081 
L 2547 2081 
L 2547 2309 
Q 2547 2688 2317 2895 
Q 2088 3103 1672 3103 
Q 1328 3103 1125 2947 
Q 922 2791 872 2484 
L 575 2484 
L 575 3156 
Q 875 3284 1158 3348 
Q 1441 3413 1709 3413 
Q 2400 3413 2761 3070 
Q 3122 2728 3122 2075 
z
" transform="scale(0.015625)"/>
        <path id="DejaVuSerif-6e" d="M 263 0 
L 263 331 
L 781 331 
L 781 2988 
L 231 2988 
L 231 3322 
L 1356 3322 
L 1356 2731 
Q 1516 3069 1770 3241 
Q 2025 3413 2363 3413 
Q 2913 3413 3172 3097 
Q 3431 2781 3431 2113 
L 3431 331 
L 3944 331 
L 3944 0 
L 2356 0 
L 2356 331 
L 2853 331 
L 2853 1931 
Q 2853 2541 2703 2767 
Q 2553 2994 2175 2994 
Q 1775 2994 1565 2701 
Q 1356 2409 1356 1850 
L 1356 331 
L 1856 331 
L 1856 0 
L 263 0 
z
" transform="scale(0.015625)"/>
        <path id="DejaVuSerif-64" d="M 3359 331 
L 3909 331 
L 3909 0 
L 2784 0 
L 2784 519 
Q 2616 206 2355 57 
Q 2094 -91 1709 -91 
Q 1097 -91 708 395 
Q 319 881 319 1663 
Q 319 2444 706 2928 
Q 1094 3413 1709 3413 
Q 2094 3413 2355 3264 
Q 2616 3116 2784 2803 
L 2784 4531 
L 2241 4531 
L 2241 4863 
L 3359 4863 
L 3359 331 
z
M 2784 1497 
L 2784 1825 
Q 2784 2422 2554 2737 
Q 2325 3053 1888 3053 
Q 1444 3053 1217 2703 
Q 991 2353 991 1663 
Q 991 975 1217 622 
Q 1444 269 1888 269 
Q 2325 269 2554 583 
Q 2784 897 2784 1497 
z
" transform="scale(0.015625)"/>
        <path id="DejaVuSerif-72" d="M 3059 3328 
L 3059 2497 
L 2728 2497 
Q 2713 2744 2591 2866 
Q 2469 2988 2234 2988 
Q 1809 2988 1582 2694 
Q 1356 2400 1356 1850 
L 1356 331 
L 2022 331 
L 2022 0 
L 263 0 
L 263 331 
L 781 331 
L 781 2994 
L 231 2994 
L 231 3322 
L 1356 3322 
L 1356 2731 
Q 1525 3078 1790 3245 
Q 2056 3413 2438 3413 
Q 2578 3413 2733 3391 
Q 2888 3369 3059 3328 
z
" transform="scale(0.015625)"/>
        <path id="DejaVuSerif-20" transform="scale(0.015625)"/>
        <path id="DejaVuSerif-4d" d="M 353 0 
L 353 331 
L 947 331 
L 947 4331 
L 319 4331 
L 319 4666 
L 1678 4666 
L 3316 1344 
L 4953 4666 
L 6228 4666 
L 6228 4331 
L 5606 4331 
L 5606 331 
L 6203 331 
L 6203 0 
L 4378 0 
L 4378 331 
L 4972 331 
L 4972 3938 
L 3372 684 
L 2931 684 
L 1331 3938 
L 1331 331 
L 1925 331 
L 1925 0 
L 353 0 
z
" transform="scale(0.015625)"/>
        <path id="DejaVuSerif-65" d="M 3469 1600 
L 991 1600 
L 991 1575 
Q 991 903 1244 561 
Q 1497 219 1991 219 
Q 2369 219 2611 417 
Q 2853 616 2950 1006 
L 3413 1006 
Q 3275 459 2904 184 
Q 2534 -91 1931 -91 
Q 1203 -91 761 389 
Q 319 869 319 1663 
Q 319 2450 753 2931 
Q 1188 3413 1894 3413 
Q 2647 3413 3050 2948 
Q 3453 2484 3469 1600 
z
M 2791 1931 
Q 2772 2513 2545 2808 
Q 2319 3103 1894 3103 
Q 1497 3103 1269 2806 
Q 1041 2509 991 1931 
L 2791 1931 
z
" transform="scale(0.015625)"/>
        <path id="DejaVuSerif-69" d="M 622 4353 
Q 622 4497 726 4603 
Q 831 4709 978 4709 
Q 1122 4709 1226 4603 
Q 1331 4497 1331 4353 
Q 1331 4206 1228 4103 
Q 1125 4000 978 4000 
Q 831 4000 726 4103 
Q 622 4206 622 4353 
z
M 1356 331 
L 1900 331 
L 1900 0 
L 231 0 
L 231 331 
L 781 331 
L 781 2988 
L 231 2988 
L 231 3322 
L 1356 3322 
L 1356 331 
z
" transform="scale(0.015625)"/>
        <path id="DejaVuSerif-6c" d="M 1313 331 
L 1856 331 
L 1856 0 
L 184 0 
L 184 331 
L 738 331 
L 738 4531 
L 184 4531 
L 184 4863 
L 1313 4863 
L 1313 331 
z
" transform="scale(0.015625)"/>
       </defs>
       <use xlink:href="#DejaVuSerif-53"/>
       <use xlink:href="#DejaVuSerif-74" x="68.505859"/>
       <use xlink:href="#DejaVuSerif-61" x="108.691406"/>
       <use xlink:href="#DejaVuSerif-6e" x="168.310547"/>
       <use xlink:href="#DejaVuSerif-64" x="232.714844"/>
       <use xlink:href="#DejaVuSerif-61" x="296.728516"/>
       <use xlink:href="#DejaVuSerif-72" x="356.347656"/>
       <use xlink:href="#DejaVuSerif-64" x="404.150391"/>
       <use xlink:href="#DejaVuSerif-20" x="468.164062"/>
       <use xlink:href="#DejaVuSerif-4d" x="499.951172"/>
       <use xlink:href="#DejaVuSerif-61" x="602.34375"/>
       <use xlink:href="#DejaVuSerif-74" x="661.962891"/>
       <use xlink:href="#DejaVuSerif-65" x="702.148438"/>
       <use xlink:href="#DejaVuSerif-72" x="761.328125"/>
       <use xlink:href="#DejaVuSerif-69" x="809.130859"/>
       <use xlink:href="#DejaVuSerif-61" x="841.113281"/>
       <use xlink:href="#DejaVuSerif-6c" x="900.732422"/>
      </g>
     </g>
    </g>
    <g id="xtick_2">
     <g id="line2d_2">
      <g>
       <use xlink:href="#mb847da6778" x="437.89718" y="401.24" style="fill: #030303; stroke: #030303; stroke-width: 0.8"/>
      </g>
     </g>
     <g id="text_2">
      <!-- New Composite -->
      <g style="fill: #030303" transform="translate(385.73468 418.117969) scale(0.13 -0.13)">
       <defs>
        <path id="DejaVuSerif-4e" d="M 313 0 
L 313 331 
L 941 331 
L 941 4331 
L 313 4331 
L 313 4666 
L 1509 4666 
L 4306 984 
L 4306 4331 
L 3681 4331 
L 3681 4666 
L 5319 4666 
L 5319 4331 
L 4691 4331 
L 4691 -91 
L 4313 -91 
L 1325 3841 
L 1325 331 
L 1953 331 
L 1953 0 
L 313 0 
z
" transform="scale(0.015625)"/>
        <path id="DejaVuSerif-77" d="M 3072 3322 
L 3922 728 
L 4672 2988 
L 4191 2988 
L 4191 3322 
L 5394 3322 
L 5394 2988 
L 5025 2988 
L 4038 0 
L 3559 0 
L 2741 2484 
L 1919 0 
L 1459 0 
L 475 2988 
L 103 2988 
L 103 3322 
L 1606 3322 
L 1606 2988 
L 1069 2988 
L 1813 728 
L 2669 3322 
L 3072 3322 
z
" transform="scale(0.015625)"/>
        <path id="DejaVuSerif-43" d="M 4513 1234 
Q 4306 581 3820 245 
Q 3334 -91 2591 -91 
Q 2134 -91 1743 65 
Q 1353 222 1050 525 
Q 700 875 529 1320 
Q 359 1766 359 2328 
Q 359 3416 987 4083 
Q 1616 4750 2644 4750 
Q 3025 4750 3456 4650 
Q 3888 4550 4384 4347 
L 4384 3272 
L 4031 3272 
Q 3916 3859 3567 4137 
Q 3219 4416 2591 4416 
Q 1844 4416 1459 3886 
Q 1075 3356 1075 2328 
Q 1075 1303 1459 773 
Q 1844 244 2591 244 
Q 3113 244 3450 492 
Q 3788 741 3938 1234 
L 4513 1234 
z
" transform="scale(0.015625)"/>
        <path id="DejaVuSerif-6f" d="M 1925 219 
Q 2388 219 2623 584 
Q 2859 950 2859 1663 
Q 2859 2375 2623 2739 
Q 2388 3103 1925 3103 
Q 1463 3103 1227 2739 
Q 991 2375 991 1663 
Q 991 950 1228 584 
Q 1466 219 1925 219 
z
M 1925 -91 
Q 1200 -91 759 389 
Q 319 869 319 1663 
Q 319 2456 758 2934 
Q 1197 3413 1925 3413 
Q 2653 3413 3092 2934 
Q 3531 2456 3531 1663 
Q 3531 869 3092 389 
Q 2653 -91 1925 -91 
z
" transform="scale(0.015625)"/>
        <path id="DejaVuSerif-6d" d="M 3316 2675 
Q 3481 3041 3739 3227 
Q 3997 3413 4341 3413 
Q 4863 3413 5119 3089 
Q 5375 2766 5375 2113 
L 5375 331 
L 5894 331 
L 5894 0 
L 4300 0 
L 4300 331 
L 4800 331 
L 4800 2047 
Q 4800 2556 4650 2772 
Q 4500 2988 4153 2988 
Q 3769 2988 3567 2697 
Q 3366 2406 3366 1850 
L 3366 331 
L 3866 331 
L 3866 0 
L 2291 0 
L 2291 331 
L 2791 331 
L 2791 2069 
Q 2791 2566 2641 2777 
Q 2491 2988 2144 2988 
Q 1759 2988 1557 2697 
Q 1356 2406 1356 1850 
L 1356 331 
L 1856 331 
L 1856 0 
L 263 0 
L 263 331 
L 781 331 
L 781 2994 
L 231 2994 
L 231 3322 
L 1356 3322 
L 1356 2731 
Q 1516 3063 1762 3238 
Q 2009 3413 2322 3413 
Q 2709 3413 2968 3220 
Q 3228 3028 3316 2675 
z
" transform="scale(0.015625)"/>
        <path id="DejaVuSerif-70" d="M 1313 1825 
L 1313 1497 
Q 1313 897 1542 583 
Q 1772 269 2209 269 
Q 2650 269 2876 622 
Q 3103 975 3103 1663 
Q 3103 2353 2876 2703 
Q 2650 3053 2209 3053 
Q 1772 3053 1542 2737 
Q 1313 2422 1313 1825 
z
M 738 2988 
L 184 2988 
L 184 3322 
L 1313 3322 
L 1313 2803 
Q 1481 3116 1742 3264 
Q 2003 3413 2388 3413 
Q 3000 3413 3387 2928 
Q 3775 2444 3775 1663 
Q 3775 881 3387 395 
Q 3000 -91 2388 -91 
Q 2003 -91 1742 57 
Q 1481 206 1313 519 
L 1313 -997 
L 1856 -997 
L 1856 -1331 
L 184 -1331 
L 184 -997 
L 738 -997 
L 738 2988 
z
" transform="scale(0.015625)"/>
        <path id="DejaVuSerif-73" d="M 359 184 
L 359 959 
L 691 959 
Q 703 588 923 403 
Q 1144 219 1575 219 
Q 1963 219 2166 364 
Q 2369 509 2369 788 
Q 2369 1006 2220 1140 
Q 2072 1275 1594 1428 
L 1178 1569 
Q 750 1706 558 1912 
Q 366 2119 366 2438 
Q 366 2894 700 3153 
Q 1034 3413 1625 3413 
Q 1888 3413 2178 3344 
Q 2469 3275 2778 3144 
L 2778 2419 
L 2447 2419 
Q 2434 2741 2221 2922 
Q 2009 3103 1644 3103 
Q 1281 3103 1095 2975 
Q 909 2847 909 2591 
Q 909 2381 1050 2254 
Q 1191 2128 1613 1997 
L 2069 1856 
Q 2541 1709 2748 1489 
Q 2956 1269 2956 922 
Q 2956 450 2595 179 
Q 2234 -91 1600 -91 
Q 1278 -91 972 -22 
Q 666 47 359 184 
z
" transform="scale(0.015625)"/>
       </defs>
       <use xlink:href="#DejaVuSerif-4e"/>
       <use xlink:href="#DejaVuSerif-65" x="87.5"/>
       <use xlink:href="#DejaVuSerif-77" x="146.679688"/>
       <use xlink:href="#DejaVuSerif-20" x="232.275391"/>
       <use xlink:href="#DejaVuSerif-43" x="264.0625"/>
       <use xlink:href="#DejaVuSerif-6f" x="340.576172"/>
       <use xlink:href="#DejaVuSerif-6d" x="400.78125"/>
       <use xlink:href="#DejaVuSerif-70" x="495.605469"/>
       <use xlink:href="#DejaVuSerif-6f" x="559.619141"/>
       <use xlink:href="#DejaVuSerif-73" x="619.824219"/>
       <use xlink:href="#DejaVuSerif-69" x="671.142578"/>
       <use xlink:href="#DejaVuSerif-74" x="703.125"/>
       <use xlink:href="#DejaVuSerif-65" x="743.310547"/>
      </g>
     </g>
    </g>
   </g>
   <g id="matplotlib.axis_2">
    <g id="ytick_1">
     <g id="line2d_3">
      <defs>
       <path id="m47120bacd9" d="M 0 0 
L -3.5 0 
" style="stroke: #030303; stroke-width: 0.8"/>
      </defs>
      <g>
       <use xlink:href="#m47120bacd9" x="55.988721" y="370.091934" style="fill: #030303; stroke: #030303; stroke-width: 0.8"/>
      </g>
     </g>
     <g id="text_3">
      <!-- $\mathdefault{4}$ -->
      <g style="fill: #030303" transform="translate(40.668721 375.030918) scale(0.13 -0.13)">
       <defs>
        <path id="DejaVuSerif-34" d="M 2234 1581 
L 2234 4063 
L 641 1581 
L 2234 1581 
z
M 3609 0 
L 1484 0 
L 1484 331 
L 2234 331 
L 2234 1247 
L 197 1247 
L 197 1588 
L 2241 4750 
L 2859 4750 
L 2859 1581 
L 3750 1581 
L 3750 1247 
L 2859 1247 
L 2859 331 
L 3609 331 
L 3609 0 
z
" transform="scale(0.015625)"/>
       </defs>
       <use xlink:href="#DejaVuSerif-34" transform="translate(0 0.78125)"/>
      </g>
     </g>
    </g>
    <g id="ytick_2">
     <g id="line2d_4">
      <g>
       <use xlink:href="#m47120bacd9" x="55.988721" y="313.986227" style="fill: #030303; stroke: #030303; stroke-width: 0.8"/>
      </g>
     </g>
     <g id="text_4">
      <!-- $\mathdefault{5}$ -->
      <g style="fill: #030303" transform="translate(40.668721 318.925211) scale(0.13 -0.13)">
       <defs>
        <path id="DejaVuSerif-35" d="M 3219 4666 
L 3219 4153 
L 1081 4153 
L 1081 2816 
Q 1244 2928 1461 2984 
Q 1678 3041 1947 3041 
Q 2703 3041 3140 2622 
Q 3578 2203 3578 1478 
Q 3578 738 3136 323 
Q 2694 -91 1894 -91 
Q 1572 -91 1234 -12 
Q 897 66 544 225 
L 544 1131 
L 897 1131 
Q 925 688 1179 453 
Q 1434 219 1894 219 
Q 2388 219 2653 544 
Q 2919 869 2919 1478 
Q 2919 2084 2655 2407 
Q 2391 2731 1894 2731 
Q 1613 2731 1398 2631 
Q 1184 2531 1019 2322 
L 750 2322 
L 750 4666 
L 3219 4666 
z
" transform="scale(0.015625)"/>
       </defs>
       <use xlink:href="#DejaVuSerif-35" transform="translate(0 0.09375)"/>
      </g>
     </g>
    </g>
    <g id="ytick_3">
     <g id="line2d_5">
      <g>
       <use xlink:href="#m47120bacd9" x="55.988721" y="257.88052" style="fill: #030303; stroke: #030303; stroke-width: 0.8"/>
      </g>
     </g>
     <g id="text_5">
      <!-- $\mathdefault{6}$ -->
      <g style="fill: #030303" transform="translate(40.668721 262.819504) scale(0.13 -0.13)">
       <defs>
        <path id="DejaVuSerif-36" d="M 2094 219 
Q 2534 219 2771 542 
Q 3009 866 3009 1472 
Q 3009 2078 2771 2401 
Q 2534 2725 2094 2725 
Q 1647 2725 1412 2412 
Q 1178 2100 1178 1509 
Q 1178 888 1415 553 
Q 1653 219 2094 219 
z
M 1075 2569 
Q 1288 2803 1556 2918 
Q 1825 3034 2163 3034 
Q 2859 3034 3264 2615 
Q 3669 2197 3669 1472 
Q 3669 763 3233 336 
Q 2797 -91 2069 -91 
Q 1278 -91 853 498 
Q 428 1088 428 2181 
Q 428 3406 931 4078 
Q 1434 4750 2350 4750 
Q 2597 4750 2869 4703 
Q 3141 4656 3425 4563 
L 3425 3794 
L 3072 3794 
Q 3034 4109 2831 4275 
Q 2628 4441 2284 4441 
Q 1678 4441 1381 3981 
Q 1084 3522 1075 2569 
z
" transform="scale(0.015625)"/>
       </defs>
       <use xlink:href="#DejaVuSerif-36" transform="translate(0 0.78125)"/>
      </g>
     </g>
    </g>
    <g id="ytick_4">
     <g id="line2d_6">
      <g>
       <use xlink:href="#m47120bacd9" x="55.988721" y="201.774813" style="fill: #030303; stroke: #030303; stroke-width: 0.8"/>
      </g>
     </g>
     <g id="text_6">
      <!-- $\mathdefault{7}$ -->
      <g style="fill: #030303" transform="translate(40.668721 206.713797) scale(0.13 -0.13)">
       <defs>
        <path id="DejaVuSerif-37" d="M 3609 4347 
L 1784 0 
L 1319 0 
L 3059 4153 
L 903 4153 
L 903 3578 
L 538 3578 
L 538 4666 
L 3609 4666 
L 3609 4347 
z
" transform="scale(0.015625)"/>
       </defs>
       <use xlink:href="#DejaVuSerif-37" transform="translate(0 0.09375)"/>
      </g>
     </g>
    </g>
    <g id="ytick_5">
     <g id="line2d_7">
      <g>
       <use xlink:href="#m47120bacd9" x="55.988721" y="145.669106" style="fill: #030303; stroke: #030303; stroke-width: 0.8"/>
      </g>
     </g>
     <g id="text_7">
      <!-- $\mathdefault{8}$ -->
      <g style="fill: #030303" transform="translate(40.668721 150.60809) scale(0.13 -0.13)">
       <defs>
        <path id="DejaVuSerif-38" d="M 2981 1275 
Q 2981 1775 2732 2051 
Q 2484 2328 2034 2328 
Q 1584 2328 1336 2051 
Q 1088 1775 1088 1275 
Q 1088 772 1336 495 
Q 1584 219 2034 219 
Q 2484 219 2732 495 
Q 2981 772 2981 1275 
z
M 2853 3541 
Q 2853 3966 2637 4203 
Q 2422 4441 2034 4441 
Q 1650 4441 1433 4203 
Q 1216 3966 1216 3541 
Q 1216 3113 1433 2875 
Q 1650 2638 2034 2638 
Q 2422 2638 2637 2875 
Q 2853 3113 2853 3541 
z
M 2516 2484 
Q 3047 2413 3344 2092 
Q 3641 1772 3641 1275 
Q 3641 619 3225 264 
Q 2809 -91 2034 -91 
Q 1263 -91 845 264 
Q 428 619 428 1275 
Q 428 1772 725 2092 
Q 1022 2413 1556 2484 
Q 1084 2569 832 2842 
Q 581 3116 581 3541 
Q 581 4103 968 4426 
Q 1356 4750 2034 4750 
Q 2713 4750 3100 4426 
Q 3488 4103 3488 3541 
Q 3488 3116 3236 2842 
Q 2984 2569 2516 2484 
z
" transform="scale(0.015625)"/>
       </defs>
       <use xlink:href="#DejaVuSerif-38" transform="translate(0 0.78125)"/>
      </g>
     </g>
    </g>
    <g id="ytick_6">
     <g id="line2d_8">
      <g>
       <use xlink:href="#m47120bacd9" x="55.988721" y="89.563399" style="fill: #030303; stroke: #030303; stroke-width: 0.8"/>
      </g>
     </g>
     <g id="text_8">
      <!-- $\mathdefault{9}$ -->
      <g style="fill: #030303" transform="translate(40.668721 94.502383) scale(0.13 -0.13)">
       <defs>
        <path id="DejaVuSerif-39" d="M 2994 2091 
Q 2784 1856 2512 1740 
Q 2241 1625 1900 1625 
Q 1206 1625 804 2044 
Q 403 2463 403 3188 
Q 403 3897 839 4323 
Q 1275 4750 2003 4750 
Q 2794 4750 3217 4161 
Q 3641 3572 3641 2478 
Q 3641 1253 3137 581 
Q 2634 -91 1722 -91 
Q 1475 -91 1203 -44 
Q 931 3 647 97 
L 647 872 
L 997 872 
Q 1038 556 1241 387 
Q 1444 219 1784 219 
Q 2391 219 2687 676 
Q 2984 1134 2994 2091 
z
M 1978 4441 
Q 1534 4441 1298 4117 
Q 1063 3794 1063 3188 
Q 1063 2581 1298 2256 
Q 1534 1931 1978 1931 
Q 2422 1931 2658 2245 
Q 2894 2559 2894 3150 
Q 2894 3772 2656 4106 
Q 2419 4441 1978 4441 
z
" transform="scale(0.015625)"/>
       </defs>
       <use xlink:href="#DejaVuSerif-39" transform="translate(0 0.78125)"/>
      </g>
     </g>
    </g>
    <g id="ytick_7">
     <g id="line2d_9">
      <g>
       <use xlink:href="#m47120bacd9" x="55.988721" y="33.457692" style="fill: #030303; stroke: #030303; stroke-width: 0.8"/>
      </g>
     </g>
     <g id="text_9">
      <!-- $\mathdefault{10}$ -->
      <g style="fill: #030303" transform="translate(32.348721 38.396676) scale(0.13 -0.13)">
       <defs>
        <path id="DejaVuSerif-31" d="M 909 0 
L 909 331 
L 1722 331 
L 1722 4213 
L 781 3603 
L 781 4013 
L 1919 4750 
L 2350 4750 
L 2350 331 
L 3163 331 
L 3163 0 
L 909 0 
z
" transform="scale(0.015625)"/>
        <path id="DejaVuSerif-30" d="M 2034 219 
Q 2513 219 2750 744 
Q 2988 1269 2988 2328 
Q 2988 3391 2750 3916 
Q 2513 4441 2034 4441 
Q 1556 4441 1318 3916 
Q 1081 3391 1081 2328 
Q 1081 1269 1318 744 
Q 1556 219 2034 219 
z
M 2034 -91 
Q 1275 -91 848 546 
Q 422 1184 422 2328 
Q 422 3475 848 4112 
Q 1275 4750 2034 4750 
Q 2797 4750 3222 4112 
Q 3647 3475 3647 2328 
Q 3647 1184 3222 546 
Q 2797 -91 2034 -91 
z
" transform="scale(0.015625)"/>
       </defs>
       <use xlink:href="#DejaVuSerif-31" transform="translate(0 0.78125)"/>
       <use xlink:href="#DejaVuSerif-30" transform="translate(63.623047 0.78125)"/>
      </g>
     </g>
    </g>
    <g id="text_10">
     <!-- Durability Score -->
     <g style="fill: #030303" transform="translate(24.349346 288.23125) rotate(-90) scale(0.18 -0.18)">
      <defs>
       <path id="DejaVuSerif-44" d="M 1581 331 
L 2163 331 
Q 3072 331 3558 850 
Q 4044 1369 4044 2338 
Q 4044 3306 3559 3818 
Q 3075 4331 2163 4331 
L 1581 4331 
L 1581 331 
z
M 353 0 
L 353 331 
L 947 331 
L 947 4331 
L 353 4331 
L 353 4666 
L 2209 4666 
Q 3416 4666 4089 4050 
Q 4763 3434 4763 2338 
Q 4763 1238 4088 619 
Q 3413 0 2209 0 
L 353 0 
z
" transform="scale(0.015625)"/>
       <path id="DejaVuSerif-75" d="M 2266 3322 
L 3341 3322 
L 3341 331 
L 3884 331 
L 3884 0 
L 2766 0 
L 2766 588 
Q 2606 256 2353 82 
Q 2100 -91 1766 -91 
Q 1213 -91 952 223 
Q 691 538 691 1209 
L 691 2988 
L 172 2988 
L 172 3322 
L 1269 3322 
L 1269 1388 
Q 1269 781 1417 556 
Q 1566 331 1947 331 
Q 2347 331 2556 625 
Q 2766 919 2766 1478 
L 2766 2988 
L 2266 2988 
L 2266 3322 
z
" transform="scale(0.015625)"/>
       <path id="DejaVuSerif-62" d="M 738 331 
L 738 4531 
L 184 4531 
L 184 4863 
L 1313 4863 
L 1313 2803 
Q 1481 3116 1742 3264 
Q 2003 3413 2388 3413 
Q 3000 3413 3387 2928 
Q 3775 2444 3775 1663 
Q 3775 881 3387 395 
Q 3000 -91 2388 -91 
Q 2003 -91 1742 57 
Q 1481 206 1313 519 
L 1313 0 
L 184 0 
L 184 331 
L 738 331 
z
M 1313 1497 
Q 1313 897 1542 583 
Q 1772 269 2209 269 
Q 2650 269 2876 622 
Q 3103 975 3103 1663 
Q 3103 2353 2876 2703 
Q 2650 3053 2209 3053 
Q 1772 3053 1542 2737 
Q 1313 2422 1313 1825 
L 1313 1497 
z
" transform="scale(0.015625)"/>
       <path id="DejaVuSerif-79" d="M 1381 -609 
L 1600 -56 
L 359 2988 
L -19 2988 
L -19 3322 
L 1509 3322 
L 1509 2988 
L 978 2988 
L 1913 703 
L 2847 2988 
L 2350 2988 
L 2350 3322 
L 3597 3322 
L 3597 2988 
L 3225 2988 
L 1703 -750 
Q 1547 -1138 1356 -1280 
Q 1166 -1422 819 -1422 
Q 672 -1422 517 -1397 
Q 363 -1372 206 -1325 
L 206 -691 
L 500 -691 
Q 519 -903 608 -995 
Q 697 -1088 884 -1088 
Q 1056 -1088 1161 -992 
Q 1266 -897 1381 -609 
z
" transform="scale(0.015625)"/>
       <path id="DejaVuSerif-63" d="M 3291 997 
Q 3169 466 2822 187 
Q 2475 -91 1925 -91 
Q 1200 -91 759 389 
Q 319 869 319 1663 
Q 319 2459 759 2936 
Q 1200 3413 1925 3413 
Q 2241 3413 2553 3339 
Q 2866 3266 3181 3116 
L 3181 2266 
L 2847 2266 
Q 2781 2703 2561 2903 
Q 2341 3103 1931 3103 
Q 1466 3103 1228 2742 
Q 991 2381 991 1663 
Q 991 944 1227 581 
Q 1463 219 1931 219 
Q 2303 219 2525 412 
Q 2747 606 2828 997 
L 3291 997 
z
" transform="scale(0.015625)"/>
      </defs>
      <use xlink:href="#DejaVuSerif-44"/>
      <use xlink:href="#DejaVuSerif-75" x="80.175781"/>
      <use xlink:href="#DejaVuSerif-72" x="144.580078"/>
      <use xlink:href="#DejaVuSerif-61" x="192.382812"/>
      <use xlink:href="#DejaVuSerif-62" x="252.001953"/>
      <use xlink:href="#DejaVuSerif-69" x="316.015625"/>
      <use xlink:href="#DejaVuSerif-6c" x="347.998047"/>
      <use xlink:href="#DejaVuSerif-69" x="379.980469"/>
      <use xlink:href="#DejaVuSerif-74" x="411.962891"/>
      <use xlink:href="#DejaVuSerif-79" x="452.148438"/>
      <use xlink:href="#DejaVuSerif-20" x="508.642578"/>
      <use xlink:href="#DejaVuSerif-53" x="540.429688"/>
      <use xlink:href="#DejaVuSerif-63" x="608.935547"/>
      <use xlink:href="#DejaVuSerif-6f" x="664.941406"/>
      <use xlink:href="#DejaVuSerif-72" x="725.146484"/>
      <use xlink:href="#DejaVuSerif-65" x="772.949219"/>
     </g>
    </g>
   </g>
   <g id="patch_3">
    <path d="M 55.988721 401.24 
L 55.988721 25.44 
" style="fill: none; stroke: #030303; stroke-width: 1.5; stroke-linejoin: miter; stroke-linecap: square"/>
   </g>
   <g id="patch_4">
    <path d="M 55.988721 401.24 
L 565.2 401.24 
" style="fill: none; stroke: #030303; stroke-width: 1.5; stroke-linejoin: miter; stroke-linecap: square"/>
   </g>
   <g id="PathCollection_1">
    <defs>
     <path id="me353489f67" d="M 0 2.5 
C 0.663008 2.5 1.29895 2.236584 1.767767 1.767767 
C 2.236584 1.29895 2.5 0.663008 2.5 0 
C 2.5 -0.663008 2.236584 -1.29895 1.767767 -1.767767 
C 1.29895 -2.236584 0.663008 -2.5 0 -2.5 
C -0.663008 -2.5 -1.29895 -2.236584 -1.767767 -1.767767 
C -2.236584 -1.29895 -2.5 -0.663008 -2.5 0 
C -2.5 0.663008 -2.236584 1.29895 -1.767767 1.767767 
C -1.29895 2.236584 -0.663008 2.5 0 2.5 
z
"/>
    </defs>
    <g clip-path="url(#p26ceed10ce)">
     <use xlink:href="#me353489f67" x="183.291541" y="155.597613"/>
     <use xlink:href="#me353489f67" x="186.863121" y="212.989339"/>
     <use xlink:href="#me353489f67" x="185.068535" y="188.643076"/>
     <use xlink:href="#me353489f67" x="183.291541" y="135.532493"/>
     <use xlink:href="#me353489f67" x="180.71313" y="151.24217"/>
     <use xlink:href="#me353489f67" x="183.291541" y="270.950816"/>
     <use xlink:href="#me353489f67" x="179.995252" y="189.84863"/>
     <use xlink:href="#me353489f67" x="187.972552" y="236.196669"/>
     <use xlink:href="#me353489f67" x="174.387182" y="234.171041"/>
     <use xlink:href="#me353489f67" x="192.092813" y="212.549977"/>
     <use xlink:href="#me353489f67" x="186.24192" y="223.766417"/>
     <use xlink:href="#me353489f67" x="183.291541" y="168.632884"/>
     <use xlink:href="#me353489f67" x="181.047261" y="197.803747"/>
     <use xlink:href="#me353489f67" x="179.252779" y="224.707669"/>
     <use xlink:href="#me353489f67" x="181.981169" y="211.150221"/>
     <use xlink:href="#me353489f67" x="178.121091" y="215.786891"/>
     <use xlink:href="#me353489f67" x="188.23819" y="166.957894"/>
     <use xlink:href="#me353489f67" x="183.291541" y="238.460578"/>
     <use xlink:href="#me353489f67" x="183.291541" y="216.654003"/>
     <use xlink:href="#me353489f67" x="183.291541" y="265.7674"/>
     <use xlink:href="#me353489f67" x="183.291541" y="337.25564"/>
     <use xlink:href="#me353489f67" x="183.291541" y="202.323866"/>
     <use xlink:href="#me353489f67" x="183.634052" y="193.452813"/>
     <use xlink:href="#me353489f67" x="181.529467" y="261.057436"/>
     <use xlink:href="#me353489f67" x="178.198763" y="134.318025"/>
     <use xlink:href="#me353489f67" x="183.291541" y="291.026327"/>
     <use xlink:href="#me353489f67" x="183.291541" y="227.902181"/>
     <use xlink:href="#me353489f67" x="178.101955" y="237.704228"/>
     <use xlink:href="#me353489f67" x="173.644357" y="165.32942"/>
     <use xlink:href="#me353489f67" x="178.084021" y="167.998107"/>
    </g>
   </g>
   <g id="PathCollection_2">
    <g clip-path="url(#p26ceed10ce)">
     <use xlink:href="#me353489f67" x="437.89718" y="118.880106"/>
     <use xlink:href="#me353489f67" x="439.70409" y="112.618285"/>
     <use xlink:href="#me353489f67" x="434.799279" y="148.131747"/>
     <use xlink:href="#me353489f67" x="437.89718" y="178.793816"/>
     <use xlink:href="#me353489f67" x="425.957865" y="132.986752"/>
     <use xlink:href="#me353489f67" x="443.147018" y="118.840788"/>
     <use xlink:href="#me353489f67" x="432.711951" y="88.713659"/>
     <use xlink:href="#me353489f67" x="437.89718" y="89.496637"/>
     <use xlink:href="#me353489f67" x="437.89718" y="134.092446"/>
     <use xlink:href="#me353489f67" x="442.511327" y="131.707278"/>
     <use xlink:href="#me353489f67" x="437.355668" y="152.641726"/>
     <use xlink:href="#me353489f67" x="437.89718" y="163.062378"/>
     <use xlink:href="#me353489f67" x="437.89718" y="171.092571"/>
     <use xlink:href="#me353489f67" x="437.89718" y="68.502007"/>
     <use xlink:href="#me353489f67" x="441.649159" y="137.524021"/>
     <use xlink:href="#me353489f67" x="446.457205" y="135.516057"/>
     <use xlink:href="#me353489f67" x="436.080389" y="158.371308"/>
     <use xlink:href="#me353489f67" x="437.89718" y="101.416"/>
     <use xlink:href="#me353489f67" x="433.407264" y="168.501263"/>
     <use xlink:href="#me353489f67" x="436.840367" y="129.194795"/>
     <use xlink:href="#me353489f67" x="440.044402" y="148.347215"/>
     <use xlink:href="#me353489f67" x="444.947774" y="112.373104"/>
     <use xlink:href="#me353489f67" x="434.112261" y="137.556365"/>
     <use xlink:href="#me353489f67" x="440.880839" y="156.346925"/>
     <use xlink:href="#me353489f67" x="437.89718" y="124.017415"/>
     <use xlink:href="#me353489f67" x="431.23366" y="111.210892"/>
     <use xlink:href="#me353489f67" x="433.449525" y="121.360825"/>
     <use xlink:href="#me353489f67" x="434.951006" y="114.741623"/>
     <use xlink:href="#me353489f67" x="437.89718" y="141.021368"/>
     <use xlink:href="#me353489f67" x="431.189662" y="133.402748"/>
    </g>
   </g>
   <g id="text_11">
    <!-- Comparison of Material Durability -->
    <g style="fill: #030303" transform="translate(205.900923 19.44) scale(0.12 -0.12)">
     <defs>
      <path id="DejaVuSerif-66" d="M 2753 4078 
L 2450 4078 
Q 2447 4313 2317 4434 
Q 2188 4556 1941 4556 
Q 1619 4556 1487 4379 
Q 1356 4203 1356 3750 
L 1356 3322 
L 2284 3322 
L 2284 2988 
L 1356 2988 
L 1356 331 
L 2094 331 
L 2094 0 
L 231 0 
L 231 331 
L 781 331 
L 781 2988 
L 231 2988 
L 231 3322 
L 781 3322 
L 781 3738 
Q 781 4294 1070 4578 
Q 1359 4863 1919 4863 
Q 2128 4863 2337 4825 
Q 2547 4788 2753 4709 
L 2753 4078 
z
" transform="scale(0.015625)"/>
     </defs>
     <use xlink:href="#DejaVuSerif-43"/>
     <use xlink:href="#DejaVuSerif-6f" x="76.513672"/>
     <use xlink:href="#DejaVuSerif-6d" x="136.71875"/>
     <use xlink:href="#DejaVuSerif-70" x="231.542969"/>
     <use xlink:href="#DejaVuSerif-61" x="295.556641"/>
     <use xlink:href="#DejaVuSerif-72" x="355.175781"/>
     <use xlink:href="#DejaVuSerif-69" x="402.978516"/>
     <use xlink:href="#DejaVuSerif-73" x="434.960938"/>
     <use xlink:href="#DejaVuSerif-6f" x="486.279297"/>
     <use xlink:href="#DejaVuSerif-6e" x="546.484375"/>
     <use xlink:href="#DejaVuSerif-20" x="610.888672"/>
     <use xlink:href="#DejaVuSerif-6f" x="642.675781"/>
     <use xlink:href="#DejaVuSerif-66" x="702.880859"/>
     <use xlink:href="#DejaVuSerif-20" x="739.892578"/>
     <use xlink:href="#DejaVuSerif-4d" x="771.679688"/>
     <use xlink:href="#DejaVuSerif-61" x="874.072266"/>
     <use xlink:href="#DejaVuSerif-74" x="933.691406"/>
     <use xlink:href="#DejaVuSerif-65" x="973.876953"/>
     <use xlink:href="#DejaVuSerif-72" x="1033.056641"/>
     <use xlink:href="#DejaVuSerif-69" x="1080.859375"/>
     <use xlink:href="#DejaVuSerif-61" x="1112.841797"/>
     <use xlink:href="#DejaVuSerif-6c" x="1172.460938"/>
     <use xlink:href="#DejaVuSerif-20" x="1204.443359"/>
     <use xlink:href="#DejaVuSerif-44" x="1236.230469"/>
     <use xlink:href="#DejaVuSerif-75" x="1316.40625"/>
     <use xlink:href="#DejaVuSerif-72" x="1380.810547"/>
     <use xlink:href="#DejaVuSerif-61" x="1428.613281"/>
     <use xlink:href="#DejaVuSerif-62" x="1488.232422"/>
     <use xlink:href="#DejaVuSerif-69" x="1552.246094"/>
     <use xlink:href="#DejaVuSerif-6c" x="1584.228516"/>
     <use xlink:href="#DejaVuSerif-69" x="1616.210938"/>
     <use xlink:href="#DejaVuSerif-74" x="1648.193359"/>
     <use xlink:href="#DejaVuSerif-79" x="1688.378906"/>
    </g>
   </g>
  </g>
 </g>
 <defs>
  <clipPath id="p26ceed10ce">
   <rect x="55.988721" y="25.44" width="509.211279" height="375.8"/>
  </clipPath>
 </defs>
</svg>
