<?xml version="1.0" encoding="utf-8" standalone="no"?>
<!DOCTYPE svg PUBLIC "-//W3C//DTD SVG 1.1//EN"
  "http://www.w3.org/Graphics/SVG/1.1/DTD/svg11.dtd">
<svg xmlns:xlink="http://www.w3.org/1999/xlink" width="360pt" height="288pt" viewBox="0 0 360 288" xmlns="http://www.w3.org/2000/svg" version="1.1">
 <metadata>
  <rdf:RDF xmlns:dc="http://purl.org/dc/elements/1.1/" xmlns:cc="http://creativecommons.org/ns#" xmlns:rdf="http://www.w3.org/1999/02/22-rdf-syntax-ns#">
   <cc:Work>
    <dc:type rdf:resource="http://purl.org/dc/dcmitype/StillImage"/>
    <dc:date>2024-10-06T21:15:47.373815</dc:date>
    <dc:format>image/svg+xml</dc:format>
    <dc:creator>
     <cc:Agent>
      <dc:title>Matplotlib v3.9.2, https://matplotlib.org/</dc:title>
     </cc:Agent>
    </dc:creator>
   </cc:Work>
  </rdf:RDF>
 </metadata>
 <defs>
  <style type="text/css">*{stroke-linejoin: round; stroke-linecap: butt}</style>
 </defs>
 <g id="figure_1">
  <g id="patch_1">
   <path d="M 0 288 
L 360 288 
L 360 0 
L 0 0 
L 0 288 
z
" style="fill: none"/>
  </g>
  <g id="axes_1">
   <g id="patch_2">
    <path d="M 61.705127 235.48 
L 334.598037 235.48 
L 334.598037 25.44 
L 61.705127 25.44 
L 61.705127 235.48 
z
" style="fill: none"/>
   </g>
   <g id="PolyCollection_1">
    <defs>
     <path id="m828e2db72e" d="M 137.746247 -90.70918 
L 137.746247 -62.067273 
L 138.24341 -62.067273 
L 138.740573 -62.067273 
L 139.237736 -62.067273 
L 139.7349 -62.067273 
L 140.232063 -62.067273 
L 140.729226 -62.067273 
L 141.226389 -62.067273 
L 141.723553 -62.067273 
L 142.220716 -62.067273 
L 142.717879 -62.067273 
L 143.215042 -62.067273 
L 143.712206 -62.067273 
L 144.209369 -62.067273 
L 144.706532 -62.067273 
L 145.203695 -62.067273 
L 145.700859 -62.067273 
L 146.198022 -62.067273 
L 146.695185 -62.067273 
L 147.192349 -62.067273 
L 147.689512 -62.067273 
L 148.186675 -62.067273 
L 148.683838 -62.067273 
L 149.181002 -62.067273 
L 149.678165 -62.067273 
L 150.175328 -62.067273 
L 150.672491 -62.067273 
L 151.169655 -62.067273 
L 151.666818 -62.067273 
L 152.163981 -62.067273 
L 152.661144 -62.067273 
L 153.158308 -62.067273 
L 153.655471 -62.067273 
L 154.152634 -62.067273 
L 154.649797 -62.067273 
L 155.146961 -62.067273 
L 155.644124 -62.067273 
L 156.141287 -62.067273 
L 156.63845 -62.067273 
L 157.135614 -62.067273 
L 157.632777 -62.067273 
L 158.12994 -62.067273 
L 158.627103 -62.067273 
L 159.124267 -62.067273 
L 159.62143 -62.067273 
L 160.118593 -62.067273 
L 160.615756 -62.067273 
L 161.11292 -62.067273 
L 161.610083 -62.067273 
L 162.107246 -62.067273 
L 162.604409 -62.067273 
L 163.101573 -62.067273 
L 163.598736 -62.067273 
L 164.095899 -62.067273 
L 164.593062 -62.067273 
L 165.090226 -62.067273 
L 165.587389 -62.067273 
L 166.084552 -62.067273 
L 166.581715 -62.067273 
L 167.078879 -62.067273 
L 167.576042 -62.067273 
L 168.073205 -62.067273 
L 168.570368 -62.067273 
L 169.067532 -62.067273 
L 169.564695 -62.067273 
L 170.061858 -62.067273 
L 170.559021 -62.067273 
L 171.056185 -62.067273 
L 171.553348 -62.067273 
L 172.050511 -62.067273 
L 172.547674 -62.067273 
L 173.044838 -62.067273 
L 173.542001 -62.067273 
L 174.039164 -62.067273 
L 174.536327 -62.067273 
L 175.033491 -62.067273 
L 175.530654 -62.067273 
L 176.027817 -62.067273 
L 176.524981 -62.067273 
L 177.022144 -62.067273 
L 177.519307 -62.067273 
L 178.01647 -62.067273 
L 178.513634 -62.067273 
L 179.010797 -62.067273 
L 179.50796 -62.067273 
L 180.005123 -62.067273 
L 180.502287 -62.067273 
L 180.99945 -62.067273 
L 181.496613 -62.067273 
L 181.993776 -62.067273 
L 182.49094 -62.067273 
L 182.988103 -62.067273 
L 183.485266 -62.067273 
L 183.982429 -62.067273 
L 184.479593 -62.067273 
L 184.976756 -62.067273 
L 185.473919 -62.067273 
L 185.971082 -62.067273 
L 186.468246 -62.067273 
L 186.965409 -62.067273 
L 187.462572 -62.067273 
L 187.959735 -62.067273 
L 188.456899 -62.067273 
L 188.954062 -62.067273 
L 189.451225 -62.067273 
L 189.948388 -62.067273 
L 190.445552 -62.067273 
L 190.942715 -62.067273 
L 191.439878 -62.067273 
L 191.937041 -62.067273 
L 192.434205 -62.067273 
L 192.931368 -62.067273 
L 193.428531 -62.067273 
L 193.925694 -62.067273 
L 194.422858 -62.067273 
L 194.920021 -62.067273 
L 195.417184 -62.067273 
L 195.914347 -62.067273 
L 196.411511 -62.067273 
L 196.908674 -62.067273 
L 197.405837 -62.067273 
L 197.903 -62.067273 
L 198.400164 -62.067273 
L 198.897327 -62.067273 
L 199.39449 -62.067273 
L 199.891653 -62.067273 
L 200.388817 -62.067273 
L 200.88598 -62.067273 
L 201.383143 -62.067273 
L 201.880306 -62.067273 
L 202.37747 -62.067273 
L 202.874633 -62.067273 
L 203.371796 -62.067273 
L 203.868959 -62.067273 
L 204.366123 -62.067273 
L 204.863286 -62.067273 
L 205.360449 -62.067273 
L 205.857613 -62.067273 
L 206.354776 -62.067273 
L 206.851939 -62.067273 
L 207.349102 -62.067273 
L 207.846266 -62.067273 
L 208.343429 -62.067273 
L 208.840592 -62.067273 
L 209.337755 -62.067273 
L 209.834919 -62.067273 
L 210.332082 -62.067273 
L 210.829245 -62.067273 
L 211.326408 -62.067273 
L 211.823572 -62.067273 
L 212.320735 -62.067273 
L 212.817898 -62.067273 
L 213.315061 -62.067273 
L 213.812225 -62.067273 
L 214.309388 -62.067273 
L 214.806551 -62.067273 
L 215.303714 -62.067273 
L 215.800878 -62.067273 
L 216.298041 -62.067273 
L 216.795204 -62.067273 
L 217.292367 -62.067273 
L 217.789531 -62.067273 
L 218.286694 -62.067273 
L 218.783857 -62.067273 
L 219.28102 -62.067273 
L 219.778184 -62.067273 
L 220.275347 -62.067273 
L 220.77251 -62.067273 
L 221.269673 -62.067273 
L 221.766837 -62.067273 
L 222.264 -62.067273 
L 222.761163 -62.067273 
L 223.258326 -62.067273 
L 223.75549 -62.067273 
L 224.252653 -62.067273 
L 224.749816 -62.067273 
L 225.246979 -62.067273 
L 225.744143 -62.067273 
L 226.241306 -62.067273 
L 226.738469 -62.067273 
L 227.235632 -62.067273 
L 227.732796 -62.067273 
L 228.229959 -62.067273 
L 228.727122 -62.067273 
L 229.224285 -62.067273 
L 229.721449 -62.067273 
L 230.218612 -62.067273 
L 230.715775 -62.067273 
L 231.212938 -62.067273 
L 231.710102 -62.067273 
L 232.207265 -62.067273 
L 232.704428 -62.067273 
L 233.201591 -62.067273 
L 233.698755 -62.067273 
L 234.195918 -62.067273 
L 234.693081 -62.067273 
L 235.190245 -62.067273 
L 235.687408 -62.067273 
L 236.184571 -62.067273 
L 236.681734 -62.067273 
L 237.178898 -62.067273 
L 237.676061 -62.067273 
L 238.173224 -62.067273 
L 238.670387 -62.067273 
L 239.167551 -62.067273 
L 239.664714 -62.067273 
L 240.161877 -62.067273 
L 240.65904 -62.067273 
L 241.156204 -62.067273 
L 241.653367 -62.067273 
L 242.15053 -62.067273 
L 242.647693 -62.067273 
L 243.144857 -62.067273 
L 243.64202 -62.067273 
L 244.139183 -62.067273 
L 244.636346 -62.067273 
L 245.13351 -62.067273 
L 245.630673 -62.067273 
L 246.127836 -62.067273 
L 246.624999 -62.067273 
L 247.122163 -62.067273 
L 247.619326 -62.067273 
L 248.116489 -62.067273 
L 248.613652 -62.067273 
L 249.110816 -62.067273 
L 249.607979 -62.067273 
L 250.105142 -62.067273 
L 250.602305 -62.067273 
L 251.099469 -62.067273 
L 251.596632 -62.067273 
L 252.093795 -62.067273 
L 252.590958 -62.067273 
L 253.088122 -62.067273 
L 253.585285 -62.067273 
L 254.082448 -62.067273 
L 254.579611 -62.067273 
L 255.076775 -62.067273 
L 255.573938 -62.067273 
L 256.071101 -62.067273 
L 256.568264 -62.067273 
L 257.065428 -62.067273 
L 257.562591 -62.067273 
L 258.059754 -62.067273 
L 258.556917 -62.067273 
L 258.556917 -90.70918 
L 258.556917 -90.70918 
L 258.059754 -91.613947 
L 257.562591 -92.539462 
L 257.065428 -93.485892 
L 256.568264 -94.453391 
L 256.071101 -95.442103 
L 255.573938 -96.452161 
L 255.076775 -97.483684 
L 254.579611 -98.536776 
L 254.082448 -99.611531 
L 253.585285 -100.708025 
L 253.088122 -101.826323 
L 252.590958 -102.966471 
L 252.093795 -104.128503 
L 251.596632 -105.312434 
L 251.099469 -106.518263 
L 250.602305 -107.745973 
L 250.105142 -108.995528 
L 249.607979 -110.266875 
L 249.110816 -111.559942 
L 248.613652 -112.874637 
L 248.116489 -114.210852 
L 247.619326 -115.568456 
L 247.122163 -116.947298 
L 246.624999 -118.347209 
L 246.127836 -119.767997 
L 245.630673 -121.20945 
L 245.13351 -122.671333 
L 244.636346 -124.153392 
L 244.139183 -125.655348 
L 243.64202 -127.176902 
L 243.144857 -128.717731 
L 242.647693 -130.277489 
L 242.15053 -131.855809 
L 241.653367 -133.4523 
L 241.156204 -135.066547 
L 240.65904 -136.698113 
L 240.161877 -138.346537 
L 239.664714 -140.011334 
L 239.167551 -141.691997 
L 238.670387 -143.387995 
L 238.173224 -145.098774 
L 237.676061 -146.823755 
L 237.178898 -148.562339 
L 236.681734 -150.313901 
L 236.184571 -152.077795 
L 235.687408 -153.853351 
L 235.190245 -155.639878 
L 234.693081 -157.436663 
L 234.195918 -159.242969 
L 233.698755 -161.058041 
L 233.201591 -162.881099 
L 232.704428 -164.711347 
L 232.207265 -166.547964 
L 231.710102 -168.390112 
L 231.212938 -170.236934 
L 230.715775 -172.087554 
L 230.218612 -173.941076 
L 229.721449 -175.79659 
L 229.224285 -177.653166 
L 228.727122 -179.509861 
L 228.229959 -181.365713 
L 227.732796 -183.219748 
L 227.235632 -185.070977 
L 226.738469 -186.9184 
L 226.241306 -188.761001 
L 225.744143 -190.597757 
L 225.246979 -192.42763 
L 224.749816 -194.249576 
L 224.252653 -196.062542 
L 223.75549 -197.865465 
L 223.258326 -199.657277 
L 222.761163 -201.436906 
L 222.264 -203.203272 
L 221.766837 -204.955295 
L 221.269673 -206.691889 
L 220.77251 -208.41197 
L 220.275347 -210.114452 
L 219.778184 -211.798249 
L 219.28102 -213.462279 
L 218.783857 -215.105462 
L 218.286694 -216.726723 
L 217.789531 -218.324991 
L 217.292367 -219.899204 
L 216.795204 -221.448306 
L 216.298041 -222.97125 
L 215.800878 -224.467 
L 215.303714 -225.93453 
L 214.806551 -227.372829 
L 214.309388 -228.780896 
L 213.812225 -230.157748 
L 213.315061 -231.502416 
L 212.817898 -232.813948 
L 212.320735 -234.091412 
L 211.823572 -235.333894 
L 211.326408 -236.5405 
L 210.829245 -237.710357 
L 210.332082 -238.842617 
L 209.834919 -239.936452 
L 209.337755 -240.991062 
L 208.840592 -242.00567 
L 208.343429 -242.979525 
L 207.846266 -243.911907 
L 207.349102 -244.80212 
L 206.851939 -245.649499 
L 206.354776 -246.453409 
L 205.857613 -247.213246 
L 205.360449 -247.928437 
L 204.863286 -248.598441 
L 204.366123 -249.222749 
L 203.868959 -249.800889 
L 203.371796 -250.332419 
L 202.874633 -250.816933 
L 202.37747 -251.254063 
L 201.880306 -251.643472 
L 201.383143 -251.984863 
L 200.88598 -252.277972 
L 200.388817 -252.522576 
L 199.891653 -252.718485 
L 199.39449 -252.86555 
L 198.897327 -252.963655 
L 198.400164 -253.012727 
L 197.903 -253.012727 
L 197.405837 -252.963655 
L 196.908674 -252.86555 
L 196.411511 -252.718485 
L 195.914347 -252.522576 
L 195.417184 -252.277972 
L 194.920021 -251.984863 
L 194.422858 -251.643472 
L 193.925694 -251.254063 
L 193.428531 -250.816933 
L 192.931368 -250.332419 
L 192.434205 -249.800889 
L 191.937041 -249.222749 
L 191.439878 -248.598441 
L 190.942715 -247.928437 
L 190.445552 -247.213246 
L 189.948388 -246.453409 
L 189.451225 -245.649499 
L 188.954062 -244.80212 
L 188.456899 -243.911907 
L 187.959735 -242.979525 
L 187.462572 -242.00567 
L 186.965409 -240.991062 
L 186.468246 -239.936452 
L 185.971082 -238.842617 
L 185.473919 -237.710357 
L 184.976756 -236.5405 
L 184.479593 -235.333894 
L 183.982429 -234.091412 
L 183.485266 -232.813948 
L 182.988103 -231.502416 
L 182.49094 -230.157748 
L 181.993776 -228.780896 
L 181.496613 -227.372829 
L 180.99945 -225.93453 
L 180.502287 -224.467 
L 180.005123 -222.97125 
L 179.50796 -221.448306 
L 179.010797 -219.899204 
L 178.513634 -218.324991 
L 178.01647 -216.726723 
L 177.519307 -215.105462 
L 177.022144 -213.462279 
L 176.524981 -211.798249 
L 176.027817 -210.114452 
L 175.530654 -208.41197 
L 175.033491 -206.691889 
L 174.536327 -204.955295 
L 174.039164 -203.203272 
L 173.542001 -201.436906 
L 173.044838 -199.657277 
L 172.547674 -197.865465 
L 172.050511 -196.062542 
L 171.553348 -194.249576 
L 171.056185 -192.42763 
L 170.559021 -190.597757 
L 170.061858 -188.761001 
L 169.564695 -186.9184 
L 169.067532 -185.070977 
L 168.570368 -183.219748 
L 168.073205 -181.365713 
L 167.576042 -179.509861 
L 167.078879 -177.653166 
L 166.581715 -175.79659 
L 166.084552 -173.941076 
L 165.587389 -172.087554 
L 165.090226 -170.236934 
L 164.593062 -168.390112 
L 164.095899 -166.547964 
L 163.598736 -164.711347 
L 163.101573 -162.881099 
L 162.604409 -161.058041 
L 162.107246 -159.242969 
L 161.610083 -157.436663 
L 161.11292 -155.639878 
L 160.615756 -153.853351 
L 160.118593 -152.077795 
L 159.62143 -150.313901 
L 159.124267 -148.562339 
L 158.627103 -146.823755 
L 158.12994 -145.098774 
L 157.632777 -143.387995 
L 157.135614 -141.691997 
L 156.63845 -140.011334 
L 156.141287 -138.346537 
L 155.644124 -136.698113 
L 155.146961 -135.066547 
L 154.649797 -133.4523 
L 154.152634 -131.855809 
L 153.655471 -130.277489 
L 153.158308 -128.717731 
L 152.661144 -127.176902 
L 152.163981 -125.655348 
L 151.666818 -124.153392 
L 151.169655 -122.671333 
L 150.672491 -121.20945 
L 150.175328 -119.767997 
L 149.678165 -118.347209 
L 149.181002 -116.947298 
L 148.683838 -115.568456 
L 148.186675 -114.210852 
L 147.689512 -112.874637 
L 147.192349 -111.559942 
L 146.695185 -110.266875 
L 146.198022 -108.995528 
L 145.700859 -107.745973 
L 145.203695 -106.518263 
L 144.706532 -105.312434 
L 144.209369 -104.128503 
L 143.712206 -102.966471 
L 143.215042 -101.826323 
L 142.717879 -100.708025 
L 142.220716 -99.611531 
L 141.723553 -98.536776 
L 141.226389 -97.483684 
L 140.729226 -96.452161 
L 140.232063 -95.442103 
L 139.7349 -94.453391 
L 139.237736 -93.485892 
L 138.740573 -92.539462 
L 138.24341 -91.613947 
L 137.746247 -90.70918 
z
" style="stroke: #add8e6; stroke-opacity: 0.5"/>
    </defs>
    <g clip-path="url(#p3957ab3dc4)">
     <use xlink:href="#m828e2db72e" x="0" y="288" style="fill: #add8e6; fill-opacity: 0.5; stroke: #add8e6; stroke-opacity: 0.5"/>
    </g>
   </g>
   <g id="matplotlib.axis_1">
    <g id="xtick_1">
     <g id="line2d_1">
      <defs>
       <path id="m6b318d3436" d="M 0 0 
L 0 3.5 
" style="stroke: #030303; stroke-width: 0.8"/>
      </defs>
      <g>
       <use xlink:href="#m6b318d3436" x="93.527586" y="235.48" style="fill: #030303; stroke: #030303; stroke-width: 0.8"/>
      </g>
     </g>
     <g id="text_1">
      <!-- $\mathdefault{282}$ -->
      <g style="fill: #030303" transform="translate(81.112586 252.357969) scale(0.13 -0.13)">
       <defs>
        <path id="DejaVuSerif-32" d="M 819 3553 
L 469 3553 
L 469 4384 
Q 803 4563 1142 4656 
Q 1481 4750 1806 4750 
Q 2534 4750 2956 4397 
Q 3378 4044 3378 3438 
Q 3378 2753 2422 1800 
Q 2347 1728 2309 1691 
L 1131 513 
L 3078 513 
L 3078 1088 
L 3444 1088 
L 3444 0 
L 434 0 
L 434 341 
L 1850 1753 
Q 2319 2222 2519 2614 
Q 2719 3006 2719 3438 
Q 2719 3909 2473 4175 
Q 2228 4441 1797 4441 
Q 1350 4441 1106 4219 
Q 863 3997 819 3553 
z
" transform="scale(0.015625)"/>
        <path id="DejaVuSerif-38" d="M 2981 1275 
Q 2981 1775 2732 2051 
Q 2484 2328 2034 2328 
Q 1584 2328 1336 2051 
Q 1088 1775 1088 1275 
Q 1088 772 1336 495 
Q 1584 219 2034 219 
Q 2484 219 2732 495 
Q 2981 772 2981 1275 
z
M 2853 3541 
Q 2853 3966 2637 4203 
Q 2422 4441 2034 4441 
Q 1650 4441 1433 4203 
Q 1216 3966 1216 3541 
Q 1216 3113 1433 2875 
Q 1650 2638 2034 2638 
Q 2422 2638 2637 2875 
Q 2853 3113 2853 3541 
z
M 2516 2484 
Q 3047 2413 3344 2092 
Q 3641 1772 3641 1275 
Q 3641 619 3225 264 
Q 2809 -91 2034 -91 
Q 1263 -91 845 264 
Q 428 619 428 1275 
Q 428 1772 725 2092 
Q 1022 2413 1556 2484 
Q 1084 2569 832 2842 
Q 581 3116 581 3541 
Q 581 4103 968 4426 
Q 1356 4750 2034 4750 
Q 2713 4750 3100 4426 
Q 3488 4103 3488 3541 
Q 3488 3116 3236 2842 
Q 2984 2569 2516 2484 
z
" transform="scale(0.015625)"/>
       </defs>
       <use xlink:href="#DejaVuSerif-32" transform="translate(0 0.78125)"/>
       <use xlink:href="#DejaVuSerif-38" transform="translate(63.623047 0.78125)"/>
       <use xlink:href="#DejaVuSerif-32" transform="translate(127.246094 0.78125)"/>
      </g>
     </g>
    </g>
    <g id="xtick_2">
     <g id="line2d_2">
      <g>
       <use xlink:href="#m6b318d3436" x="151.994387" y="235.48" style="fill: #030303; stroke: #030303; stroke-width: 0.8"/>
      </g>
     </g>
     <g id="text_2">
      <!-- $\mathdefault{284}$ -->
      <g style="fill: #030303" transform="translate(139.579387 252.357969) scale(0.13 -0.13)">
       <defs>
        <path id="DejaVuSerif-34" d="M 2234 1581 
L 2234 4063 
L 641 1581 
L 2234 1581 
z
M 3609 0 
L 1484 0 
L 1484 331 
L 2234 331 
L 2234 1247 
L 197 1247 
L 197 1588 
L 2241 4750 
L 2859 4750 
L 2859 1581 
L 3750 1581 
L 3750 1247 
L 2859 1247 
L 2859 331 
L 3609 331 
L 3609 0 
z
" transform="scale(0.015625)"/>
       </defs>
       <use xlink:href="#DejaVuSerif-32" transform="translate(0 0.78125)"/>
       <use xlink:href="#DejaVuSerif-38" transform="translate(63.623047 0.78125)"/>
       <use xlink:href="#DejaVuSerif-34" transform="translate(127.246094 0.78125)"/>
      </g>
     </g>
    </g>
    <g id="xtick_3">
     <g id="line2d_3">
      <g>
       <use xlink:href="#m6b318d3436" x="210.461189" y="235.48" style="fill: #030303; stroke: #030303; stroke-width: 0.8"/>
      </g>
     </g>
     <g id="text_3">
      <!-- $\mathdefault{286}$ -->
      <g style="fill: #030303" transform="translate(198.046189 252.357969) scale(0.13 -0.13)">
       <defs>
        <path id="DejaVuSerif-36" d="M 2094 219 
Q 2534 219 2771 542 
Q 3009 866 3009 1472 
Q 3009 2078 2771 2401 
Q 2534 2725 2094 2725 
Q 1647 2725 1412 2412 
Q 1178 2100 1178 1509 
Q 1178 888 1415 553 
Q 1653 219 2094 219 
z
M 1075 2569 
Q 1288 2803 1556 2918 
Q 1825 3034 2163 3034 
Q 2859 3034 3264 2615 
Q 3669 2197 3669 1472 
Q 3669 763 3233 336 
Q 2797 -91 2069 -91 
Q 1278 -91 853 498 
Q 428 1088 428 2181 
Q 428 3406 931 4078 
Q 1434 4750 2350 4750 
Q 2597 4750 2869 4703 
Q 3141 4656 3425 4563 
L 3425 3794 
L 3072 3794 
Q 3034 4109 2831 4275 
Q 2628 4441 2284 4441 
Q 1678 4441 1381 3981 
Q 1084 3522 1075 2569 
z
" transform="scale(0.015625)"/>
       </defs>
       <use xlink:href="#DejaVuSerif-32" transform="translate(0 0.78125)"/>
       <use xlink:href="#DejaVuSerif-38" transform="translate(63.623047 0.78125)"/>
       <use xlink:href="#DejaVuSerif-36" transform="translate(127.246094 0.78125)"/>
      </g>
     </g>
    </g>
    <g id="xtick_4">
     <g id="line2d_4">
      <g>
       <use xlink:href="#m6b318d3436" x="268.92799" y="235.48" style="fill: #030303; stroke: #030303; stroke-width: 0.8"/>
      </g>
     </g>
     <g id="text_4">
      <!-- $\mathdefault{288}$ -->
      <g style="fill: #030303" transform="translate(256.51299 252.357969) scale(0.13 -0.13)">
       <use xlink:href="#DejaVuSerif-32" transform="translate(0 0.78125)"/>
       <use xlink:href="#DejaVuSerif-38" transform="translate(63.623047 0.78125)"/>
       <use xlink:href="#DejaVuSerif-38" transform="translate(127.246094 0.78125)"/>
      </g>
     </g>
    </g>
    <g id="xtick_5">
     <g id="line2d_5">
      <g>
       <use xlink:href="#m6b318d3436" x="327.394791" y="235.48" style="fill: #030303; stroke: #030303; stroke-width: 0.8"/>
      </g>
     </g>
     <g id="text_5">
      <!-- $\mathdefault{290}$ -->
      <g style="fill: #030303" transform="translate(315.044791 252.357969) scale(0.13 -0.13)">
       <defs>
        <path id="DejaVuSerif-39" d="M 2994 2091 
Q 2784 1856 2512 1740 
Q 2241 1625 1900 1625 
Q 1206 1625 804 2044 
Q 403 2463 403 3188 
Q 403 3897 839 4323 
Q 1275 4750 2003 4750 
Q 2794 4750 3217 4161 
Q 3641 3572 3641 2478 
Q 3641 1253 3137 581 
Q 2634 -91 1722 -91 
Q 1475 -91 1203 -44 
Q 931 3 647 97 
L 647 872 
L 997 872 
Q 1038 556 1241 387 
Q 1444 219 1784 219 
Q 2391 219 2687 676 
Q 2984 1134 2994 2091 
z
M 1978 4441 
Q 1534 4441 1298 4117 
Q 1063 3794 1063 3188 
Q 1063 2581 1298 2256 
Q 1534 1931 1978 1931 
Q 2422 1931 2658 2245 
Q 2894 2559 2894 3150 
Q 2894 3772 2656 4106 
Q 2419 4441 1978 4441 
z
" transform="scale(0.015625)"/>
        <path id="DejaVuSerif-30" d="M 2034 219 
Q 2513 219 2750 744 
Q 2988 1269 2988 2328 
Q 2988 3391 2750 3916 
Q 2513 4441 2034 4441 
Q 1556 4441 1318 3916 
Q 1081 3391 1081 2328 
Q 1081 1269 1318 744 
Q 1556 219 2034 219 
z
M 2034 -91 
Q 1275 -91 848 546 
Q 422 1184 422 2328 
Q 422 3475 848 4112 
Q 1275 4750 2034 4750 
Q 2797 4750 3222 4112 
Q 3647 3475 3647 2328 
Q 3647 1184 3222 546 
Q 2797 -91 2034 -91 
z
" transform="scale(0.015625)"/>
       </defs>
       <use xlink:href="#DejaVuSerif-32" transform="translate(0 0.78125)"/>
       <use xlink:href="#DejaVuSerif-39" transform="translate(61.873047 0.78125)"/>
       <use xlink:href="#DejaVuSerif-30" transform="translate(125.496094 0.78125)"/>
      </g>
     </g>
    </g>
    <g id="text_6">
     <!-- Sample Mean (Material Strength) -->
     <g transform="translate(43.478145 272.73875) scale(0.18 -0.18)">
      <defs>
       <path id="DejaVuSerif-53" d="M 594 225 
L 594 1288 
L 953 1284 
Q 969 753 1261 498 
Q 1553 244 2150 244 
Q 2706 244 2998 464 
Q 3291 684 3291 1106 
Q 3291 1444 3114 1625 
Q 2938 1806 2369 1978 
L 1753 2163 
Q 1084 2366 811 2669 
Q 538 2972 538 3500 
Q 538 4094 959 4422 
Q 1381 4750 2144 4750 
Q 2469 4750 2856 4679 
Q 3244 4609 3681 4475 
L 3681 3481 
L 3328 3481 
Q 3275 3975 2998 4195 
Q 2722 4416 2156 4416 
Q 1663 4416 1405 4214 
Q 1147 4013 1147 3628 
Q 1147 3294 1340 3103 
Q 1534 2913 2163 2725 
L 2741 2553 
Q 3375 2363 3645 2067 
Q 3916 1772 3916 1275 
Q 3916 597 3481 253 
Q 3047 -91 2188 -91 
Q 1803 -91 1404 -12 
Q 1006 66 594 225 
z
" transform="scale(0.015625)"/>
       <path id="DejaVuSerif-61" d="M 2547 1044 
L 2547 1747 
L 1806 1747 
Q 1378 1747 1168 1562 
Q 959 1378 959 997 
Q 959 650 1171 447 
Q 1384 244 1747 244 
Q 2106 244 2326 466 
Q 2547 688 2547 1044 
z
M 3122 2075 
L 3122 331 
L 3634 331 
L 3634 0 
L 2547 0 
L 2547 359 
Q 2356 128 2106 18 
Q 1856 -91 1522 -91 
Q 969 -91 644 203 
Q 319 497 319 997 
Q 319 1513 691 1797 
Q 1063 2081 1741 2081 
L 2547 2081 
L 2547 2309 
Q 2547 2688 2317 2895 
Q 2088 3103 1672 3103 
Q 1328 3103 1125 2947 
Q 922 2791 872 2484 
L 575 2484 
L 575 3156 
Q 875 3284 1158 3348 
Q 1441 3413 1709 3413 
Q 2400 3413 2761 3070 
Q 3122 2728 3122 2075 
z
" transform="scale(0.015625)"/>
       <path id="DejaVuSerif-6d" d="M 3316 2675 
Q 3481 3041 3739 3227 
Q 3997 3413 4341 3413 
Q 4863 3413 5119 3089 
Q 5375 2766 5375 2113 
L 5375 331 
L 5894 331 
L 5894 0 
L 4300 0 
L 4300 331 
L 4800 331 
L 4800 2047 
Q 4800 2556 4650 2772 
Q 4500 2988 4153 2988 
Q 3769 2988 3567 2697 
Q 3366 2406 3366 1850 
L 3366 331 
L 3866 331 
L 3866 0 
L 2291 0 
L 2291 331 
L 2791 331 
L 2791 2069 
Q 2791 2566 2641 2777 
Q 2491 2988 2144 2988 
Q 1759 2988 1557 2697 
Q 1356 2406 1356 1850 
L 1356 331 
L 1856 331 
L 1856 0 
L 263 0 
L 263 331 
L 781 331 
L 781 2994 
L 231 2994 
L 231 3322 
L 1356 3322 
L 1356 2731 
Q 1516 3063 1762 3238 
Q 2009 3413 2322 3413 
Q 2709 3413 2968 3220 
Q 3228 3028 3316 2675 
z
" transform="scale(0.015625)"/>
       <path id="DejaVuSerif-70" d="M 1313 1825 
L 1313 1497 
Q 1313 897 1542 583 
Q 1772 269 2209 269 
Q 2650 269 2876 622 
Q 3103 975 3103 1663 
Q 3103 2353 2876 2703 
Q 2650 3053 2209 3053 
Q 1772 3053 1542 2737 
Q 1313 2422 1313 1825 
z
M 738 2988 
L 184 2988 
L 184 3322 
L 1313 3322 
L 1313 2803 
Q 1481 3116 1742 3264 
Q 2003 3413 2388 3413 
Q 3000 3413 3387 2928 
Q 3775 2444 3775 1663 
Q 3775 881 3387 395 
Q 3000 -91 2388 -91 
Q 2003 -91 1742 57 
Q 1481 206 1313 519 
L 1313 -997 
L 1856 -997 
L 1856 -1331 
L 184 -1331 
L 184 -997 
L 738 -997 
L 738 2988 
z
" transform="scale(0.015625)"/>
       <path id="DejaVuSerif-6c" d="M 1313 331 
L 1856 331 
L 1856 0 
L 184 0 
L 184 331 
L 738 331 
L 738 4531 
L 184 4531 
L 184 4863 
L 1313 4863 
L 1313 331 
z
" transform="scale(0.015625)"/>
       <path id="DejaVuSerif-65" d="M 3469 1600 
L 991 1600 
L 991 1575 
Q 991 903 1244 561 
Q 1497 219 1991 219 
Q 2369 219 2611 417 
Q 2853 616 2950 1006 
L 3413 1006 
Q 3275 459 2904 184 
Q 2534 -91 1931 -91 
Q 1203 -91 761 389 
Q 319 869 319 1663 
Q 319 2450 753 2931 
Q 1188 3413 1894 3413 
Q 2647 3413 3050 2948 
Q 3453 2484 3469 1600 
z
M 2791 1931 
Q 2772 2513 2545 2808 
Q 2319 3103 1894 3103 
Q 1497 3103 1269 2806 
Q 1041 2509 991 1931 
L 2791 1931 
z
" transform="scale(0.015625)"/>
       <path id="DejaVuSerif-20" transform="scale(0.015625)"/>
       <path id="DejaVuSerif-4d" d="M 353 0 
L 353 331 
L 947 331 
L 947 4331 
L 319 4331 
L 319 4666 
L 1678 4666 
L 3316 1344 
L 4953 4666 
L 6228 4666 
L 6228 4331 
L 5606 4331 
L 5606 331 
L 6203 331 
L 6203 0 
L 4378 0 
L 4378 331 
L 4972 331 
L 4972 3938 
L 3372 684 
L 2931 684 
L 1331 3938 
L 1331 331 
L 1925 331 
L 1925 0 
L 353 0 
z
" transform="scale(0.015625)"/>
       <path id="DejaVuSerif-6e" d="M 263 0 
L 263 331 
L 781 331 
L 781 2988 
L 231 2988 
L 231 3322 
L 1356 3322 
L 1356 2731 
Q 1516 3069 1770 3241 
Q 2025 3413 2363 3413 
Q 2913 3413 3172 3097 
Q 3431 2781 3431 2113 
L 3431 331 
L 3944 331 
L 3944 0 
L 2356 0 
L 2356 331 
L 2853 331 
L 2853 1931 
Q 2853 2541 2703 2767 
Q 2553 2994 2175 2994 
Q 1775 2994 1565 2701 
Q 1356 2409 1356 1850 
L 1356 331 
L 1856 331 
L 1856 0 
L 263 0 
z
" transform="scale(0.015625)"/>
       <path id="DejaVuSerif-28" d="M 2041 -997 
Q 1281 -656 893 83 
Q 506 822 506 1931 
Q 506 3044 893 3783 
Q 1281 4522 2041 4863 
L 2041 4556 
Q 1559 4225 1350 3623 
Q 1141 3022 1141 1931 
Q 1141 844 1350 242 
Q 1559 -359 2041 -691 
L 2041 -997 
z
" transform="scale(0.015625)"/>
       <path id="DejaVuSerif-74" d="M 691 2988 
L 184 2988 
L 184 3322 
L 691 3322 
L 691 4353 
L 1269 4353 
L 1269 3322 
L 2350 3322 
L 2350 2988 
L 1269 2988 
L 1269 878 
Q 1269 456 1350 337 
Q 1431 219 1650 219 
Q 1875 219 1978 351 
Q 2081 484 2088 781 
L 2522 781 
Q 2497 328 2275 118 
Q 2053 -91 1600 -91 
Q 1103 -91 897 129 
Q 691 350 691 878 
L 691 2988 
z
" transform="scale(0.015625)"/>
       <path id="DejaVuSerif-72" d="M 3059 3328 
L 3059 2497 
L 2728 2497 
Q 2713 2744 2591 2866 
Q 2469 2988 2234 2988 
Q 1809 2988 1582 2694 
Q 1356 2400 1356 1850 
L 1356 331 
L 2022 331 
L 2022 0 
L 263 0 
L 263 331 
L 781 331 
L 781 2994 
L 231 2994 
L 231 3322 
L 1356 3322 
L 1356 2731 
Q 1525 3078 1790 3245 
Q 2056 3413 2438 3413 
Q 2578 3413 2733 3391 
Q 2888 3369 3059 3328 
z
" transform="scale(0.015625)"/>
       <path id="DejaVuSerif-69" d="M 622 4353 
Q 622 4497 726 4603 
Q 831 4709 978 4709 
Q 1122 4709 1226 4603 
Q 1331 4497 1331 4353 
Q 1331 4206 1228 4103 
Q 1125 4000 978 4000 
Q 831 4000 726 4103 
Q 622 4206 622 4353 
z
M 1356 331 
L 1900 331 
L 1900 0 
L 231 0 
L 231 331 
L 781 331 
L 781 2988 
L 231 2988 
L 231 3322 
L 1356 3322 
L 1356 331 
z
" transform="scale(0.015625)"/>
       <path id="DejaVuSerif-67" d="M 3359 2988 
L 3359 72 
Q 3359 -644 2965 -1033 
Q 2572 -1422 1844 -1422 
Q 1516 -1422 1216 -1362 
Q 916 -1303 641 -1184 
L 641 -488 
L 941 -488 
Q 997 -813 1206 -963 
Q 1416 -1113 1806 -1113 
Q 2313 -1113 2548 -827 
Q 2784 -541 2784 72 
L 2784 519 
Q 2616 206 2355 57 
Q 2094 -91 1709 -91 
Q 1097 -91 708 395 
Q 319 881 319 1663 
Q 319 2444 706 2928 
Q 1094 3413 1709 3413 
Q 2094 3413 2355 3264 
Q 2616 3116 2784 2803 
L 2784 3322 
L 3909 3322 
L 3909 2988 
L 3359 2988 
z
M 2784 1825 
Q 2784 2422 2554 2737 
Q 2325 3053 1888 3053 
Q 1444 3053 1217 2703 
Q 991 2353 991 1663 
Q 991 975 1217 622 
Q 1444 269 1888 269 
Q 2325 269 2554 583 
Q 2784 897 2784 1497 
L 2784 1825 
z
" transform="scale(0.015625)"/>
       <path id="DejaVuSerif-68" d="M 263 0 
L 263 331 
L 781 331 
L 781 4531 
L 231 4531 
L 231 4863 
L 1356 4863 
L 1356 2731 
Q 1516 3069 1770 3241 
Q 2025 3413 2363 3413 
Q 2913 3413 3172 3097 
Q 3431 2781 3431 2113 
L 3431 331 
L 3944 331 
L 3944 0 
L 2356 0 
L 2356 331 
L 2853 331 
L 2853 1931 
Q 2853 2541 2704 2764 
Q 2556 2988 2175 2988 
Q 1775 2988 1565 2697 
Q 1356 2406 1356 1850 
L 1356 331 
L 1856 331 
L 1856 0 
L 263 0 
z
" transform="scale(0.015625)"/>
       <path id="DejaVuSerif-29" d="M 453 -997 
L 453 -691 
Q 934 -359 1145 242 
Q 1356 844 1356 1931 
Q 1356 3022 1145 3623 
Q 934 4225 453 4556 
L 453 4863 
Q 1216 4522 1603 3783 
Q 1991 3044 1991 1931 
Q 1991 822 1603 83 
Q 1216 -656 453 -997 
z
" transform="scale(0.015625)"/>
      </defs>
      <use xlink:href="#DejaVuSerif-53"/>
      <use xlink:href="#DejaVuSerif-61" x="68.505859"/>
      <use xlink:href="#DejaVuSerif-6d" x="128.125"/>
      <use xlink:href="#DejaVuSerif-70" x="222.949219"/>
      <use xlink:href="#DejaVuSerif-6c" x="286.962891"/>
      <use xlink:href="#DejaVuSerif-65" x="318.945312"/>
      <use xlink:href="#DejaVuSerif-20" x="378.125"/>
      <use xlink:href="#DejaVuSerif-4d" x="409.912109"/>
      <use xlink:href="#DejaVuSerif-65" x="512.304688"/>
      <use xlink:href="#DejaVuSerif-61" x="571.484375"/>
      <use xlink:href="#DejaVuSerif-6e" x="631.103516"/>
      <use xlink:href="#DejaVuSerif-20" x="695.507812"/>
      <use xlink:href="#DejaVuSerif-28" x="727.294922"/>
      <use xlink:href="#DejaVuSerif-4d" x="766.308594"/>
      <use xlink:href="#DejaVuSerif-61" x="868.701172"/>
      <use xlink:href="#DejaVuSerif-74" x="928.320312"/>
      <use xlink:href="#DejaVuSerif-65" x="968.505859"/>
      <use xlink:href="#DejaVuSerif-72" x="1027.685547"/>
      <use xlink:href="#DejaVuSerif-69" x="1075.488281"/>
      <use xlink:href="#DejaVuSerif-61" x="1107.470703"/>
      <use xlink:href="#DejaVuSerif-6c" x="1167.089844"/>
      <use xlink:href="#DejaVuSerif-20" x="1199.072266"/>
      <use xlink:href="#DejaVuSerif-53" x="1230.859375"/>
      <use xlink:href="#DejaVuSerif-74" x="1299.365234"/>
      <use xlink:href="#DejaVuSerif-72" x="1339.550781"/>
      <use xlink:href="#DejaVuSerif-65" x="1387.353516"/>
      <use xlink:href="#DejaVuSerif-6e" x="1446.533203"/>
      <use xlink:href="#DejaVuSerif-67" x="1510.9375"/>
      <use xlink:href="#DejaVuSerif-74" x="1574.951172"/>
      <use xlink:href="#DejaVuSerif-68" x="1615.136719"/>
      <use xlink:href="#DejaVuSerif-29" x="1679.541016"/>
     </g>
    </g>
   </g>
   <g id="matplotlib.axis_2">
    <g id="ytick_1">
     <g id="line2d_6">
      <defs>
       <path id="mc43b354b71" d="M 0 0 
L -3.5 0 
" style="stroke: #030303; stroke-width: 0.8"/>
      </defs>
      <g>
       <use xlink:href="#mc43b354b71" x="61.705127" y="225.932727" style="fill: #030303; stroke: #030303; stroke-width: 0.8"/>
      </g>
     </g>
     <g id="text_7">
      <!-- $\mathdefault{0.00}$ -->
      <g style="fill: #030303" transform="translate(32.405127 229.731946) scale(0.1 -0.1)">
       <defs>
        <path id="DejaVuSerif-2e" d="M 603 325 
Q 603 500 722 622 
Q 841 744 1019 744 
Q 1191 744 1312 622 
Q 1434 500 1434 325 
Q 1434 153 1312 31 
Q 1191 -91 1019 -91 
Q 841 -91 722 29 
Q 603 150 603 325 
z
" transform="scale(0.015625)"/>
       </defs>
       <use xlink:href="#DejaVuSerif-30" transform="translate(0 0.78125)"/>
       <use xlink:href="#DejaVuSerif-2e" transform="translate(63.623047 0.78125)"/>
       <use xlink:href="#DejaVuSerif-30" transform="translate(95.410156 0.78125)"/>
       <use xlink:href="#DejaVuSerif-30" transform="translate(159.033203 0.78125)"/>
      </g>
     </g>
    </g>
    <g id="ytick_2">
     <g id="line2d_7">
      <g>
       <use xlink:href="#mc43b354b71" x="61.705127" y="200.545606" style="fill: #030303; stroke: #030303; stroke-width: 0.8"/>
      </g>
     </g>
     <g id="text_8">
      <!-- $\mathdefault{0.05}$ -->
      <g style="fill: #030303" transform="translate(32.405127 204.344825) scale(0.1 -0.1)">
       <defs>
        <path id="DejaVuSerif-35" d="M 3219 4666 
L 3219 4153 
L 1081 4153 
L 1081 2816 
Q 1244 2928 1461 2984 
Q 1678 3041 1947 3041 
Q 2703 3041 3140 2622 
Q 3578 2203 3578 1478 
Q 3578 738 3136 323 
Q 2694 -91 1894 -91 
Q 1572 -91 1234 -12 
Q 897 66 544 225 
L 544 1131 
L 897 1131 
Q 925 688 1179 453 
Q 1434 219 1894 219 
Q 2388 219 2653 544 
Q 2919 869 2919 1478 
Q 2919 2084 2655 2407 
Q 2391 2731 1894 2731 
Q 1613 2731 1398 2631 
Q 1184 2531 1019 2322 
L 750 2322 
L 750 4666 
L 3219 4666 
z
" transform="scale(0.015625)"/>
       </defs>
       <use xlink:href="#DejaVuSerif-30" transform="translate(0 0.78125)"/>
       <use xlink:href="#DejaVuSerif-2e" transform="translate(63.623047 0.78125)"/>
       <use xlink:href="#DejaVuSerif-30" transform="translate(95.410156 0.78125)"/>
       <use xlink:href="#DejaVuSerif-35" transform="translate(159.033203 0.78125)"/>
      </g>
     </g>
    </g>
    <g id="ytick_3">
     <g id="line2d_8">
      <g>
       <use xlink:href="#mc43b354b71" x="61.705127" y="175.158485" style="fill: #030303; stroke: #030303; stroke-width: 0.8"/>
      </g>
     </g>
     <g id="text_9">
      <!-- $\mathdefault{0.10}$ -->
      <g style="fill: #030303" transform="translate(32.405127 178.957703) scale(0.1 -0.1)">
       <defs>
        <path id="DejaVuSerif-31" d="M 909 0 
L 909 331 
L 1722 331 
L 1722 4213 
L 781 3603 
L 781 4013 
L 1919 4750 
L 2350 4750 
L 2350 331 
L 3163 331 
L 3163 0 
L 909 0 
z
" transform="scale(0.015625)"/>
       </defs>
       <use xlink:href="#DejaVuSerif-30" transform="translate(0 0.78125)"/>
       <use xlink:href="#DejaVuSerif-2e" transform="translate(63.623047 0.78125)"/>
       <use xlink:href="#DejaVuSerif-31" transform="translate(95.410156 0.78125)"/>
       <use xlink:href="#DejaVuSerif-30" transform="translate(159.033203 0.78125)"/>
      </g>
     </g>
    </g>
    <g id="ytick_4">
     <g id="line2d_9">
      <g>
       <use xlink:href="#mc43b354b71" x="61.705127" y="149.771363" style="fill: #030303; stroke: #030303; stroke-width: 0.8"/>
      </g>
     </g>
     <g id="text_10">
      <!-- $\mathdefault{0.15}$ -->
      <g style="fill: #030303" transform="translate(32.405127 153.570582) scale(0.1 -0.1)">
       <use xlink:href="#DejaVuSerif-30" transform="translate(0 0.78125)"/>
       <use xlink:href="#DejaVuSerif-2e" transform="translate(63.623047 0.78125)"/>
       <use xlink:href="#DejaVuSerif-31" transform="translate(95.410156 0.78125)"/>
       <use xlink:href="#DejaVuSerif-35" transform="translate(159.033203 0.78125)"/>
      </g>
     </g>
    </g>
    <g id="ytick_5">
     <g id="line2d_10">
      <g>
       <use xlink:href="#mc43b354b71" x="61.705127" y="124.384242" style="fill: #030303; stroke: #030303; stroke-width: 0.8"/>
      </g>
     </g>
     <g id="text_11">
      <!-- $\mathdefault{0.20}$ -->
      <g style="fill: #030303" transform="translate(32.605127 128.183461) scale(0.1 -0.1)">
       <use xlink:href="#DejaVuSerif-30" transform="translate(0 0.78125)"/>
       <use xlink:href="#DejaVuSerif-2e" transform="translate(63.623047 0.78125)"/>
       <use xlink:href="#DejaVuSerif-32" transform="translate(92.785156 0.78125)"/>
       <use xlink:href="#DejaVuSerif-30" transform="translate(156.408203 0.78125)"/>
      </g>
     </g>
    </g>
    <g id="ytick_6">
     <g id="line2d_11">
      <g>
       <use xlink:href="#mc43b354b71" x="61.705127" y="98.997121" style="fill: #030303; stroke: #030303; stroke-width: 0.8"/>
      </g>
     </g>
     <g id="text_12">
      <!-- $\mathdefault{0.25}$ -->
      <g style="fill: #030303" transform="translate(32.605127 102.796339) scale(0.1 -0.1)">
       <use xlink:href="#DejaVuSerif-30" transform="translate(0 0.78125)"/>
       <use xlink:href="#DejaVuSerif-2e" transform="translate(63.623047 0.78125)"/>
       <use xlink:href="#DejaVuSerif-32" transform="translate(92.785156 0.78125)"/>
       <use xlink:href="#DejaVuSerif-35" transform="translate(156.408203 0.78125)"/>
      </g>
     </g>
    </g>
    <g id="ytick_7">
     <g id="line2d_12">
      <g>
       <use xlink:href="#mc43b354b71" x="61.705127" y="73.609999" style="fill: #030303; stroke: #030303; stroke-width: 0.8"/>
      </g>
     </g>
     <g id="text_13">
      <!-- $\mathdefault{0.30}$ -->
      <g style="fill: #030303" transform="translate(32.405127 77.409218) scale(0.1 -0.1)">
       <defs>
        <path id="DejaVuSerif-33" d="M 622 4469 
Q 988 4606 1323 4678 
Q 1659 4750 1953 4750 
Q 2638 4750 3022 4454 
Q 3406 4159 3406 3634 
Q 3406 3213 3140 2930 
Q 2875 2647 2388 2547 
Q 2963 2466 3280 2130 
Q 3597 1794 3597 1259 
Q 3597 606 3158 257 
Q 2719 -91 1894 -91 
Q 1528 -91 1179 -12 
Q 831 66 488 225 
L 488 1131 
L 838 1131 
Q 869 681 1141 450 
Q 1413 219 1906 219 
Q 2384 219 2661 495 
Q 2938 772 2938 1253 
Q 2938 1803 2653 2086 
Q 2369 2369 1819 2369 
L 1522 2369 
L 1522 2688 
L 1678 2688 
Q 2225 2688 2498 2914 
Q 2772 3141 2772 3597 
Q 2772 4006 2547 4223 
Q 2322 4441 1900 4441 
Q 1478 4441 1245 4241 
Q 1013 4041 972 3647 
L 622 3647 
L 622 4469 
z
" transform="scale(0.015625)"/>
       </defs>
       <use xlink:href="#DejaVuSerif-30" transform="translate(0 0.78125)"/>
       <use xlink:href="#DejaVuSerif-2e" transform="translate(63.623047 0.78125)"/>
       <use xlink:href="#DejaVuSerif-33" transform="translate(95.410156 0.78125)"/>
       <use xlink:href="#DejaVuSerif-30" transform="translate(159.033203 0.78125)"/>
      </g>
     </g>
    </g>
    <g id="ytick_8">
     <g id="line2d_13">
      <g>
       <use xlink:href="#mc43b354b71" x="61.705127" y="48.222878" style="fill: #030303; stroke: #030303; stroke-width: 0.8"/>
      </g>
     </g>
     <g id="text_14">
      <!-- $\mathdefault{0.35}$ -->
      <g style="fill: #030303" transform="translate(32.405127 52.022097) scale(0.1 -0.1)">
       <use xlink:href="#DejaVuSerif-30" transform="translate(0 0.78125)"/>
       <use xlink:href="#DejaVuSerif-2e" transform="translate(63.623047 0.78125)"/>
       <use xlink:href="#DejaVuSerif-33" transform="translate(95.410156 0.78125)"/>
       <use xlink:href="#DejaVuSerif-35" transform="translate(159.033203 0.78125)"/>
      </g>
     </g>
    </g>
    <g id="text_15">
     <!-- Density -->
     <g transform="translate(24.405752 164.9975) rotate(-90) scale(0.18 -0.18)">
      <defs>
       <path id="DejaVuSerif-44" d="M 1581 331 
L 2163 331 
Q 3072 331 3558 850 
Q 4044 1369 4044 2338 
Q 4044 3306 3559 3818 
Q 3075 4331 2163 4331 
L 1581 4331 
L 1581 331 
z
M 353 0 
L 353 331 
L 947 331 
L 947 4331 
L 353 4331 
L 353 4666 
L 2209 4666 
Q 3416 4666 4089 4050 
Q 4763 3434 4763 2338 
Q 4763 1238 4088 619 
Q 3413 0 2209 0 
L 353 0 
z
" transform="scale(0.015625)"/>
       <path id="DejaVuSerif-73" d="M 359 184 
L 359 959 
L 691 959 
Q 703 588 923 403 
Q 1144 219 1575 219 
Q 1963 219 2166 364 
Q 2369 509 2369 788 
Q 2369 1006 2220 1140 
Q 2072 1275 1594 1428 
L 1178 1569 
Q 750 1706 558 1912 
Q 366 2119 366 2438 
Q 366 2894 700 3153 
Q 1034 3413 1625 3413 
Q 1888 3413 2178 3344 
Q 2469 3275 2778 3144 
L 2778 2419 
L 2447 2419 
Q 2434 2741 2221 2922 
Q 2009 3103 1644 3103 
Q 1281 3103 1095 2975 
Q 909 2847 909 2591 
Q 909 2381 1050 2254 
Q 1191 2128 1613 1997 
L 2069 1856 
Q 2541 1709 2748 1489 
Q 2956 1269 2956 922 
Q 2956 450 2595 179 
Q 2234 -91 1600 -91 
Q 1278 -91 972 -22 
Q 666 47 359 184 
z
" transform="scale(0.015625)"/>
       <path id="DejaVuSerif-79" d="M 1381 -609 
L 1600 -56 
L 359 2988 
L -19 2988 
L -19 3322 
L 1509 3322 
L 1509 2988 
L 978 2988 
L 1913 703 
L 2847 2988 
L 2350 2988 
L 2350 3322 
L 3597 3322 
L 3597 2988 
L 3225 2988 
L 1703 -750 
Q 1547 -1138 1356 -1280 
Q 1166 -1422 819 -1422 
Q 672 -1422 517 -1397 
Q 363 -1372 206 -1325 
L 206 -691 
L 500 -691 
Q 519 -903 608 -995 
Q 697 -1088 884 -1088 
Q 1056 -1088 1161 -992 
Q 1266 -897 1381 -609 
z
" transform="scale(0.015625)"/>
      </defs>
      <use xlink:href="#DejaVuSerif-44"/>
      <use xlink:href="#DejaVuSerif-65" x="80.175781"/>
      <use xlink:href="#DejaVuSerif-6e" x="139.355469"/>
      <use xlink:href="#DejaVuSerif-73" x="203.759766"/>
      <use xlink:href="#DejaVuSerif-69" x="255.078125"/>
      <use xlink:href="#DejaVuSerif-74" x="287.060547"/>
      <use xlink:href="#DejaVuSerif-79" x="327.246094"/>
     </g>
    </g>
   </g>
   <g id="line2d_14">
    <path d="M 74.10935 225.86867 
L 85.544105 225.671147 
L 92.504391 225.356452 
L 97.973186 224.898059 
L 102.447656 224.300754 
L 106.424962 223.528119 
L 109.905104 222.602501 
L 112.888084 221.574142 
L 115.871063 220.28077 
L 118.35688 218.963677 
L 120.842696 217.394696 
L 123.328512 215.539482 
L 125.814329 213.362185 
L 128.300145 210.826146 
L 130.785961 207.894753 
L 133.271777 204.532485 
L 135.757594 200.706113 
L 138.24341 196.386053 
L 140.729226 191.547839 
L 143.215042 186.173677 
L 145.700859 180.254027 
L 148.186675 173.789148 
L 151.169655 165.328667 
L 154.152634 156.144191 
L 157.632777 144.612005 
L 161.610083 130.563337 
L 167.576042 108.490139 
L 173.542001 86.563094 
L 177.022144 74.537721 
L 180.005123 65.02875 
L 182.49094 57.842252 
L 184.479593 52.666106 
L 186.468246 48.063548 
L 188.456899 44.088093 
L 189.948388 41.546591 
L 191.439878 39.401559 
L 192.931368 37.667581 
L 194.422858 36.356528 
L 195.417184 35.722028 
L 196.411511 35.281515 
L 197.405837 35.036345 
L 198.400164 34.987273 
L 199.39449 35.13445 
L 200.388817 35.477424 
L 201.383143 36.015137 
L 202.37747 36.745937 
L 203.868959 38.199111 
L 205.360449 40.071563 
L 206.851939 42.350501 
L 208.343429 45.020475 
L 210.332082 49.157383 
L 212.320735 53.908588 
L 214.309388 59.219104 
L 216.795204 66.551694 
L 219.778184 76.201751 
L 223.258326 88.342723 
L 228.229959 106.634287 
L 236.184571 135.922205 
L 240.161877 149.653463 
L 243.64202 160.823098 
L 246.624999 169.652791 
L 249.607979 177.733125 
L 252.093795 183.871497 
L 254.579611 189.463224 
L 257.065428 194.514108 
L 259.551244 199.038833 
L 262.03706 203.059383 
L 264.522877 206.603477 
L 267.008693 209.703057 
L 269.494509 212.39288 
L 271.980325 214.709256 
L 274.466142 216.688939 
L 276.951958 218.368194 
L 279.437774 219.78204 
L 281.92359 220.963664 
L 284.90657 222.118453 
L 287.889549 223.03184 
L 291.369692 223.849401 
L 295.346998 224.527498 
L 299.821468 225.047976 
L 305.290263 225.444113 
L 312.250549 225.713319 
L 322.193814 225.86867 
L 322.193814 225.86867 
" clip-path="url(#p3957ab3dc4)" style="fill: none; stroke: #000080; stroke-width: 2; stroke-linecap: square"/>
   </g>
   <g id="line2d_15">
    <path d="M 181.227788 235.48 
L 181.227788 25.44 
" clip-path="url(#p3957ab3dc4)" style="fill: none; stroke-dasharray: 5.55,2.4; stroke-dashoffset: 0; stroke: #ff0000; stroke-width: 1.5"/>
   </g>
   <g id="patch_3">
    <path d="M 61.705127 235.48 
L 61.705127 25.44 
" style="fill: none; stroke: #030303; stroke-width: 1.5; stroke-linejoin: miter; stroke-linecap: square"/>
   </g>
   <g id="patch_4">
    <path d="M 61.705127 235.48 
L 334.598037 235.48 
" style="fill: none; stroke: #030303; stroke-width: 1.5; stroke-linejoin: miter; stroke-linecap: square"/>
   </g>
   <g id="patch_5">
    <path d="M 223.990248 56.016432 
Q 203.602128 58.583758 185.432556 60.871719 
" style="fill: none; stroke: #000000; stroke-width: 2; stroke-linecap: round"/>
    <path d="M 190.494794 62.653222 
L 185.432556 60.871719 
L 189.895101 57.890831 
" style="fill: none; stroke: #000000; stroke-width: 2; stroke-linecap: round"/>
   </g>
   <g id="text_16">
    <!-- $H_0$: Population Mean -->
    <g style="fill: #ff0000" transform="translate(225.077889 51.246346) scale(0.12 -0.12)">
     <defs>
      <path id="DejaVuSans-Oblique-48" d="M 1081 4666 
L 1716 4666 
L 1344 2753 
L 3634 2753 
L 4006 4666 
L 4641 4666 
L 3731 0 
L 3097 0 
L 3531 2222 
L 1241 2222 
L 806 0 
L 172 0 
L 1081 4666 
z
" transform="scale(0.015625)"/>
      <path id="DejaVuSans-30" d="M 2034 4250 
Q 1547 4250 1301 3770 
Q 1056 3291 1056 2328 
Q 1056 1369 1301 889 
Q 1547 409 2034 409 
Q 2525 409 2770 889 
Q 3016 1369 3016 2328 
Q 3016 3291 2770 3770 
Q 2525 4250 2034 4250 
z
M 2034 4750 
Q 2819 4750 3233 4129 
Q 3647 3509 3647 2328 
Q 3647 1150 3233 529 
Q 2819 -91 2034 -91 
Q 1250 -91 836 529 
Q 422 1150 422 2328 
Q 422 3509 836 4129 
Q 1250 4750 2034 4750 
z
" transform="scale(0.015625)"/>
      <path id="DejaVuSerif-3a" d="M 666 325 
Q 666 500 786 622 
Q 906 744 1081 744 
Q 1256 744 1376 622 
Q 1497 500 1497 325 
Q 1497 150 1378 29 
Q 1259 -91 1081 -91 
Q 903 -91 784 29 
Q 666 150 666 325 
z
M 666 2363 
Q 666 2538 786 2658 
Q 906 2778 1081 2778 
Q 1259 2778 1378 2659 
Q 1497 2541 1497 2363 
Q 1497 2184 1378 2065 
Q 1259 1947 1081 1947 
Q 906 1947 786 2067 
Q 666 2188 666 2363 
z
" transform="scale(0.015625)"/>
      <path id="DejaVuSerif-50" d="M 1581 2375 
L 2406 2375 
Q 2872 2375 3115 2626 
Q 3359 2878 3359 3353 
Q 3359 3831 3115 4081 
Q 2872 4331 2406 4331 
L 1581 4331 
L 1581 2375 
z
M 353 0 
L 353 331 
L 947 331 
L 947 4331 
L 353 4331 
L 353 4666 
L 2559 4666 
Q 3259 4666 3668 4311 
Q 4078 3956 4078 3353 
Q 4078 2753 3668 2397 
Q 3259 2041 2559 2041 
L 1581 2041 
L 1581 331 
L 2303 331 
L 2303 0 
L 353 0 
z
" transform="scale(0.015625)"/>
      <path id="DejaVuSerif-6f" d="M 1925 219 
Q 2388 219 2623 584 
Q 2859 950 2859 1663 
Q 2859 2375 2623 2739 
Q 2388 3103 1925 3103 
Q 1463 3103 1227 2739 
Q 991 2375 991 1663 
Q 991 950 1228 584 
Q 1466 219 1925 219 
z
M 1925 -91 
Q 1200 -91 759 389 
Q 319 869 319 1663 
Q 319 2456 758 2934 
Q 1197 3413 1925 3413 
Q 2653 3413 3092 2934 
Q 3531 2456 3531 1663 
Q 3531 869 3092 389 
Q 2653 -91 1925 -91 
z
" transform="scale(0.015625)"/>
      <path id="DejaVuSerif-75" d="M 2266 3322 
L 3341 3322 
L 3341 331 
L 3884 331 
L 3884 0 
L 2766 0 
L 2766 588 
Q 2606 256 2353 82 
Q 2100 -91 1766 -91 
Q 1213 -91 952 223 
Q 691 538 691 1209 
L 691 2988 
L 172 2988 
L 172 3322 
L 1269 3322 
L 1269 1388 
Q 1269 781 1417 556 
Q 1566 331 1947 331 
Q 2347 331 2556 625 
Q 2766 919 2766 1478 
L 2766 2988 
L 2266 2988 
L 2266 3322 
z
" transform="scale(0.015625)"/>
     </defs>
     <use xlink:href="#DejaVuSans-Oblique-48" transform="translate(0 0.015625)"/>
     <use xlink:href="#DejaVuSans-30" transform="translate(75.195312 -16.390625) scale(0.7)"/>
     <use xlink:href="#DejaVuSerif-3a" transform="translate(122.46582 0.015625)"/>
     <use xlink:href="#DejaVuSerif-20" transform="translate(156.157227 0.015625)"/>
     <use xlink:href="#DejaVuSerif-50" transform="translate(187.944336 0.015625)"/>
     <use xlink:href="#DejaVuSerif-6f" transform="translate(255.229492 0.015625)"/>
     <use xlink:href="#DejaVuSerif-70" transform="translate(315.43457 0.015625)"/>
     <use xlink:href="#DejaVuSerif-75" transform="translate(379.448242 0.015625)"/>
     <use xlink:href="#DejaVuSerif-6c" transform="translate(443.852539 0.015625)"/>
     <use xlink:href="#DejaVuSerif-61" transform="translate(475.834961 0.015625)"/>
     <use xlink:href="#DejaVuSerif-74" transform="translate(535.454102 0.015625)"/>
     <use xlink:href="#DejaVuSerif-69" transform="translate(575.639648 0.015625)"/>
     <use xlink:href="#DejaVuSerif-6f" transform="translate(607.62207 0.015625)"/>
     <use xlink:href="#DejaVuSerif-6e" transform="translate(667.827148 0.015625)"/>
     <use xlink:href="#DejaVuSerif-20" transform="translate(732.231445 0.015625)"/>
     <use xlink:href="#DejaVuSerif-4d" transform="translate(764.018555 0.015625)"/>
     <use xlink:href="#DejaVuSerif-65" transform="translate(866.411133 0.015625)"/>
     <use xlink:href="#DejaVuSerif-61" transform="translate(925.59082 0.015625)"/>
     <use xlink:href="#DejaVuSerif-6e" transform="translate(985.209961 0.015625)"/>
    </g>
   </g>
   <g id="text_17">
    <!-- Sampling Distribution of Sample Mean -->
    <g style="fill: #000080" transform="translate(79.585957 19.44) scale(0.12 -0.12)">
     <defs>
      <path id="DejaVuSerif-62" d="M 738 331 
L 738 4531 
L 184 4531 
L 184 4863 
L 1313 4863 
L 1313 2803 
Q 1481 3116 1742 3264 
Q 2003 3413 2388 3413 
Q 3000 3413 3387 2928 
Q 3775 2444 3775 1663 
Q 3775 881 3387 395 
Q 3000 -91 2388 -91 
Q 2003 -91 1742 57 
Q 1481 206 1313 519 
L 1313 0 
L 184 0 
L 184 331 
L 738 331 
z
M 1313 1497 
Q 1313 897 1542 583 
Q 1772 269 2209 269 
Q 2650 269 2876 622 
Q 3103 975 3103 1663 
Q 3103 2353 2876 2703 
Q 2650 3053 2209 3053 
Q 1772 3053 1542 2737 
Q 1313 2422 1313 1825 
L 1313 1497 
z
" transform="scale(0.015625)"/>
      <path id="DejaVuSerif-66" d="M 2753 4078 
L 2450 4078 
Q 2447 4313 2317 4434 
Q 2188 4556 1941 4556 
Q 1619 4556 1487 4379 
Q 1356 4203 1356 3750 
L 1356 3322 
L 2284 3322 
L 2284 2988 
L 1356 2988 
L 1356 331 
L 2094 331 
L 2094 0 
L 231 0 
L 231 331 
L 781 331 
L 781 2988 
L 231 2988 
L 231 3322 
L 781 3322 
L 781 3738 
Q 781 4294 1070 4578 
Q 1359 4863 1919 4863 
Q 2128 4863 2337 4825 
Q 2547 4788 2753 4709 
L 2753 4078 
z
" transform="scale(0.015625)"/>
     </defs>
     <use xlink:href="#DejaVuSerif-53"/>
     <use xlink:href="#DejaVuSerif-61" x="68.505859"/>
     <use xlink:href="#DejaVuSerif-6d" x="128.125"/>
     <use xlink:href="#DejaVuSerif-70" x="222.949219"/>
     <use xlink:href="#DejaVuSerif-6c" x="286.962891"/>
     <use xlink:href="#DejaVuSerif-69" x="318.945312"/>
     <use xlink:href="#DejaVuSerif-6e" x="350.927734"/>
     <use xlink:href="#DejaVuSerif-67" x="415.332031"/>
     <use xlink:href="#DejaVuSerif-20" x="479.345703"/>
     <use xlink:href="#DejaVuSerif-44" x="511.132812"/>
     <use xlink:href="#DejaVuSerif-69" x="591.308594"/>
     <use xlink:href="#DejaVuSerif-73" x="623.291016"/>
     <use xlink:href="#DejaVuSerif-74" x="674.609375"/>
     <use xlink:href="#DejaVuSerif-72" x="714.794922"/>
     <use xlink:href="#DejaVuSerif-69" x="762.597656"/>
     <use xlink:href="#DejaVuSerif-62" x="794.580078"/>
     <use xlink:href="#DejaVuSerif-75" x="858.59375"/>
     <use xlink:href="#DejaVuSerif-74" x="922.998047"/>
     <use xlink:href="#DejaVuSerif-69" x="963.183594"/>
     <use xlink:href="#DejaVuSerif-6f" x="995.166016"/>
     <use xlink:href="#DejaVuSerif-6e" x="1055.371094"/>
     <use xlink:href="#DejaVuSerif-20" x="1119.775391"/>
     <use xlink:href="#DejaVuSerif-6f" x="1151.5625"/>
     <use xlink:href="#DejaVuSerif-66" x="1211.767578"/>
     <use xlink:href="#DejaVuSerif-20" x="1248.779297"/>
     <use xlink:href="#DejaVuSerif-53" x="1280.566406"/>
     <use xlink:href="#DejaVuSerif-61" x="1349.072266"/>
     <use xlink:href="#DejaVuSerif-6d" x="1408.691406"/>
     <use xlink:href="#DejaVuSerif-70" x="1503.515625"/>
     <use xlink:href="#DejaVuSerif-6c" x="1567.529297"/>
     <use xlink:href="#DejaVuSerif-65" x="1599.511719"/>
     <use xlink:href="#DejaVuSerif-20" x="1658.691406"/>
     <use xlink:href="#DejaVuSerif-4d" x="1690.478516"/>
     <use xlink:href="#DejaVuSerif-65" x="1792.871094"/>
     <use xlink:href="#DejaVuSerif-61" x="1852.050781"/>
     <use xlink:href="#DejaVuSerif-6e" x="1911.669922"/>
    </g>
   </g>
  </g>
 </g>
 <defs>
  <clipPath id="p3957ab3dc4">
   <rect x="61.705127" y="25.44" width="272.89291" height="210.04"/>
  </clipPath>
 </defs>
</svg>
