<?xml version="1.0" encoding="utf-8" standalone="no"?>
<!DOCTYPE svg PUBLIC "-//W3C//DTD SVG 1.1//EN"
  "http://www.w3.org/Graphics/SVG/1.1/DTD/svg11.dtd">
<svg xmlns:xlink="http://www.w3.org/1999/xlink" width="360pt" height="288pt" viewBox="0 0 360 288" xmlns="http://www.w3.org/2000/svg" version="1.1">
 <metadata>
  <rdf:RDF xmlns:dc="http://purl.org/dc/elements/1.1/" xmlns:cc="http://creativecommons.org/ns#" xmlns:rdf="http://www.w3.org/1999/02/22-rdf-syntax-ns#">
   <cc:Work>
    <dc:type rdf:resource="http://purl.org/dc/dcmitype/StillImage"/>
    <dc:date>2024-10-06T20:53:34.346500</dc:date>
    <dc:format>image/svg+xml</dc:format>
    <dc:creator>
     <cc:Agent>
      <dc:title>Matplotlib v3.9.2, https://matplotlib.org/</dc:title>
     </cc:Agent>
    </dc:creator>
   </cc:Work>
  </rdf:RDF>
 </metadata>
 <defs>
  <style type="text/css">*{stroke-linejoin: round; stroke-linecap: butt}</style>
 </defs>
 <g id="figure_1">
  <g id="patch_1">
   <path d="M 0 288 
L 360 288 
L 360 0 
L 0 0 
L 0 288 
z
" style="fill: none"/>
  </g>
  <g id="axes_1">
   <g id="patch_2">
    <path d="M 55.480098 235.72 
L 311.183654 235.72 
L 311.183654 25.44 
L 55.480098 25.44 
L 55.480098 235.72 
z
" style="fill: none"/>
   </g>
   <g id="PolyCollection_1">
    <defs>
     <path id="mac167a8de1" d="M 126.731435 -90.512816 
L 126.731435 -61.838182 
L 127.197282 -61.838182 
L 127.663129 -61.838182 
L 128.128977 -61.838182 
L 128.594824 -61.838182 
L 129.060671 -61.838182 
L 129.526518 -61.838182 
L 129.992366 -61.838182 
L 130.458213 -61.838182 
L 130.92406 -61.838182 
L 131.389907 -61.838182 
L 131.855755 -61.838182 
L 132.321602 -61.838182 
L 132.787449 -61.838182 
L 133.253296 -61.838182 
L 133.719144 -61.838182 
L 134.184991 -61.838182 
L 134.650838 -61.838182 
L 135.116685 -61.838182 
L 135.582533 -61.838182 
L 136.04838 -61.838182 
L 136.514227 -61.838182 
L 136.980074 -61.838182 
L 137.445922 -61.838182 
L 137.911769 -61.838182 
L 138.377616 -61.838182 
L 138.843463 -61.838182 
L 139.309311 -61.838182 
L 139.775158 -61.838182 
L 140.241005 -61.838182 
L 140.706852 -61.838182 
L 141.1727 -61.838182 
L 141.638547 -61.838182 
L 142.104394 -61.838182 
L 142.570241 -61.838182 
L 143.036089 -61.838182 
L 143.501936 -61.838182 
L 143.967783 -61.838182 
L 144.43363 -61.838182 
L 144.899478 -61.838182 
L 145.365325 -61.838182 
L 145.831172 -61.838182 
L 146.297019 -61.838182 
L 146.762867 -61.838182 
L 147.228714 -61.838182 
L 147.694561 -61.838182 
L 148.160408 -61.838182 
L 148.626256 -61.838182 
L 149.092103 -61.838182 
L 149.55795 -61.838182 
L 150.023798 -61.838182 
L 150.489645 -61.838182 
L 150.955492 -61.838182 
L 151.421339 -61.838182 
L 151.887187 -61.838182 
L 152.353034 -61.838182 
L 152.818881 -61.838182 
L 153.284728 -61.838182 
L 153.750576 -61.838182 
L 154.216423 -61.838182 
L 154.68227 -61.838182 
L 155.148117 -61.838182 
L 155.613965 -61.838182 
L 156.079812 -61.838182 
L 156.545659 -61.838182 
L 157.011506 -61.838182 
L 157.477354 -61.838182 
L 157.943201 -61.838182 
L 158.409048 -61.838182 
L 158.874895 -61.838182 
L 159.340743 -61.838182 
L 159.80659 -61.838182 
L 160.272437 -61.838182 
L 160.738284 -61.838182 
L 161.204132 -61.838182 
L 161.669979 -61.838182 
L 162.135826 -61.838182 
L 162.601673 -61.838182 
L 163.067521 -61.838182 
L 163.533368 -61.838182 
L 163.999215 -61.838182 
L 164.465062 -61.838182 
L 164.93091 -61.838182 
L 165.396757 -61.838182 
L 165.862604 -61.838182 
L 166.328451 -61.838182 
L 166.794299 -61.838182 
L 167.260146 -61.838182 
L 167.725993 -61.838182 
L 168.19184 -61.838182 
L 168.657688 -61.838182 
L 169.123535 -61.838182 
L 169.589382 -61.838182 
L 170.055229 -61.838182 
L 170.521077 -61.838182 
L 170.986924 -61.838182 
L 171.452771 -61.838182 
L 171.918618 -61.838182 
L 172.384466 -61.838182 
L 172.850313 -61.838182 
L 173.31616 -61.838182 
L 173.782007 -61.838182 
L 174.247855 -61.838182 
L 174.713702 -61.838182 
L 175.179549 -61.838182 
L 175.645396 -61.838182 
L 176.111244 -61.838182 
L 176.577091 -61.838182 
L 177.042938 -61.838182 
L 177.508785 -61.838182 
L 177.974633 -61.838182 
L 178.44048 -61.838182 
L 178.906327 -61.838182 
L 179.372174 -61.838182 
L 179.838022 -61.838182 
L 180.303869 -61.838182 
L 180.769716 -61.838182 
L 181.235563 -61.838182 
L 181.701411 -61.838182 
L 182.167258 -61.838182 
L 182.633105 -61.838182 
L 183.098952 -61.838182 
L 183.5648 -61.838182 
L 184.030647 -61.838182 
L 184.496494 -61.838182 
L 184.962341 -61.838182 
L 185.428189 -61.838182 
L 185.894036 -61.838182 
L 186.359883 -61.838182 
L 186.82573 -61.838182 
L 187.291578 -61.838182 
L 187.757425 -61.838182 
L 188.223272 -61.838182 
L 188.689119 -61.838182 
L 189.154967 -61.838182 
L 189.620814 -61.838182 
L 190.086661 -61.838182 
L 190.552508 -61.838182 
L 191.018356 -61.838182 
L 191.484203 -61.838182 
L 191.95005 -61.838182 
L 192.415897 -61.838182 
L 192.881745 -61.838182 
L 193.347592 -61.838182 
L 193.813439 -61.838182 
L 194.279286 -61.838182 
L 194.745134 -61.838182 
L 195.210981 -61.838182 
L 195.676828 -61.838182 
L 196.142675 -61.838182 
L 196.608523 -61.838182 
L 197.07437 -61.838182 
L 197.540217 -61.838182 
L 198.006064 -61.838182 
L 198.471912 -61.838182 
L 198.937759 -61.838182 
L 199.403606 -61.838182 
L 199.869453 -61.838182 
L 200.335301 -61.838182 
L 200.801148 -61.838182 
L 201.266995 -61.838182 
L 201.732843 -61.838182 
L 202.19869 -61.838182 
L 202.664537 -61.838182 
L 203.130384 -61.838182 
L 203.596232 -61.838182 
L 204.062079 -61.838182 
L 204.527926 -61.838182 
L 204.993773 -61.838182 
L 205.459621 -61.838182 
L 205.925468 -61.838182 
L 206.391315 -61.838182 
L 206.857162 -61.838182 
L 207.32301 -61.838182 
L 207.788857 -61.838182 
L 208.254704 -61.838182 
L 208.720551 -61.838182 
L 209.186399 -61.838182 
L 209.652246 -61.838182 
L 210.118093 -61.838182 
L 210.58394 -61.838182 
L 211.049788 -61.838182 
L 211.515635 -61.838182 
L 211.981482 -61.838182 
L 212.447329 -61.838182 
L 212.913177 -61.838182 
L 213.379024 -61.838182 
L 213.844871 -61.838182 
L 214.310718 -61.838182 
L 214.776566 -61.838182 
L 215.242413 -61.838182 
L 215.70826 -61.838182 
L 216.174107 -61.838182 
L 216.639955 -61.838182 
L 217.105802 -61.838182 
L 217.571649 -61.838182 
L 218.037496 -61.838182 
L 218.503344 -61.838182 
L 218.969191 -61.838182 
L 219.435038 -61.838182 
L 219.900885 -61.838182 
L 220.366733 -61.838182 
L 220.83258 -61.838182 
L 221.298427 -61.838182 
L 221.764274 -61.838182 
L 222.230122 -61.838182 
L 222.695969 -61.838182 
L 223.161816 -61.838182 
L 223.627663 -61.838182 
L 224.093511 -61.838182 
L 224.559358 -61.838182 
L 225.025205 -61.838182 
L 225.491052 -61.838182 
L 225.9569 -61.838182 
L 226.422747 -61.838182 
L 226.888594 -61.838182 
L 227.354441 -61.838182 
L 227.820289 -61.838182 
L 228.286136 -61.838182 
L 228.751983 -61.838182 
L 229.21783 -61.838182 
L 229.683678 -61.838182 
L 230.149525 -61.838182 
L 230.615372 -61.838182 
L 231.081219 -61.838182 
L 231.547067 -61.838182 
L 232.012914 -61.838182 
L 232.478761 -61.838182 
L 232.944608 -61.838182 
L 233.410456 -61.838182 
L 233.876303 -61.838182 
L 234.34215 -61.838182 
L 234.807997 -61.838182 
L 235.273845 -61.838182 
L 235.739692 -61.838182 
L 236.205539 -61.838182 
L 236.671386 -61.838182 
L 237.137234 -61.838182 
L 237.603081 -61.838182 
L 238.068928 -61.838182 
L 238.534775 -61.838182 
L 239.000623 -61.838182 
L 239.46647 -61.838182 
L 239.932317 -61.838182 
L 239.932317 -90.512816 
L 239.932317 -90.512816 
L 239.46647 -91.418618 
L 239.000623 -92.34519 
L 238.534775 -93.292701 
L 238.068928 -94.261305 
L 237.603081 -95.251148 
L 237.137234 -96.26236 
L 236.671386 -97.295061 
L 236.205539 -98.349357 
L 235.739692 -99.425339 
L 235.273845 -100.523087 
L 234.807997 -101.642662 
L 234.34215 -102.784113 
L 233.876303 -103.947473 
L 233.410456 -105.132756 
L 232.944608 -106.339963 
L 232.478761 -107.569076 
L 232.012914 -108.820059 
L 231.547067 -110.092859 
L 231.081219 -111.387403 
L 230.615372 -112.703601 
L 230.149525 -114.041342 
L 229.683678 -115.400497 
L 229.21783 -116.780915 
L 228.751983 -118.182426 
L 228.286136 -119.604837 
L 227.820289 -121.047937 
L 227.354441 -122.511491 
L 226.888594 -123.995243 
L 226.422747 -125.498916 
L 225.9569 -127.022208 
L 225.491052 -128.564797 
L 225.025205 -130.126338 
L 224.559358 -131.706461 
L 224.093511 -133.304776 
L 223.627663 -134.920868 
L 223.161816 -136.554298 
L 222.695969 -138.204606 
L 222.230122 -139.871305 
L 221.764274 -141.553889 
L 221.298427 -143.251825 
L 220.83258 -144.964558 
L 220.366733 -146.691511 
L 219.900885 -148.432081 
L 219.435038 -150.185644 
L 218.969191 -151.951553 
L 218.503344 -153.729138 
L 218.037496 -155.517707 
L 217.571649 -157.316544 
L 217.105802 -159.124915 
L 216.639955 -160.94206 
L 216.174107 -162.767202 
L 215.70826 -164.599541 
L 215.242413 -166.438257 
L 214.776566 -168.28251 
L 214.310718 -170.131442 
L 213.844871 -171.984176 
L 213.379024 -173.839817 
L 212.913177 -175.697451 
L 212.447329 -177.556148 
L 211.981482 -179.414964 
L 211.515635 -181.272937 
L 211.049788 -183.129091 
L 210.58394 -184.982435 
L 210.118093 -186.831969 
L 209.652246 -188.676676 
L 209.186399 -190.51553 
L 208.720551 -192.347494 
L 208.254704 -194.171522 
L 207.788857 -195.986559 
L 207.32301 -197.791542 
L 206.857162 -199.585402 
L 206.391315 -201.367064 
L 205.925468 -203.135449 
L 205.459621 -204.889474 
L 204.993773 -206.628052 
L 204.527926 -208.350099 
L 204.062079 -210.054525 
L 203.596232 -211.740246 
L 203.130384 -213.406178 
L 202.664537 -215.051239 
L 202.19869 -216.674352 
L 201.732843 -218.274447 
L 201.266995 -219.850458 
L 200.801148 -221.40133 
L 200.335301 -222.926014 
L 199.869453 -224.423473 
L 199.403606 -225.892681 
L 198.937759 -227.332623 
L 198.471912 -228.742299 
L 198.006064 -230.120724 
L 197.540217 -231.466928 
L 197.07437 -232.779959 
L 196.608523 -234.058883 
L 196.142675 -235.302785 
L 195.676828 -236.510769 
L 195.210981 -237.681963 
L 194.745134 -238.815517 
L 194.279286 -239.910602 
L 193.813439 -240.966417 
L 193.347592 -241.982184 
L 192.881745 -242.957152 
L 192.415897 -243.890599 
L 191.95005 -244.781829 
L 191.484203 -245.630176 
L 191.018356 -246.435005 
L 190.552508 -247.19571 
L 190.086661 -247.911718 
L 189.620814 -248.582487 
L 189.154967 -249.20751 
L 188.689119 -249.78631 
L 188.223272 -250.318447 
L 187.757425 -250.803515 
L 187.291578 -251.241144 
L 186.82573 -251.630998 
L 186.359883 -251.972779 
L 185.894036 -252.266224 
L 185.428189 -252.511107 
L 184.962341 -252.70724 
L 184.496494 -252.854472 
L 184.030647 -252.95269 
L 183.5648 -253.001818 
L 183.098952 -253.001818 
L 182.633105 -252.95269 
L 182.167258 -252.854472 
L 181.701411 -252.70724 
L 181.235563 -252.511107 
L 180.769716 -252.266224 
L 180.303869 -251.972779 
L 179.838022 -251.630998 
L 179.372174 -251.241144 
L 178.906327 -250.803515 
L 178.44048 -250.318447 
L 177.974633 -249.78631 
L 177.508785 -249.20751 
L 177.042938 -248.582487 
L 176.577091 -247.911718 
L 176.111244 -247.19571 
L 175.645396 -246.435005 
L 175.179549 -245.630176 
L 174.713702 -244.781829 
L 174.247855 -243.890599 
L 173.782007 -242.957152 
L 173.31616 -241.982184 
L 172.850313 -240.966417 
L 172.384466 -239.910602 
L 171.918618 -238.815517 
L 171.452771 -237.681963 
L 170.986924 -236.510769 
L 170.521077 -235.302785 
L 170.055229 -234.058883 
L 169.589382 -232.779959 
L 169.123535 -231.466928 
L 168.657688 -230.120724 
L 168.19184 -228.742299 
L 167.725993 -227.332623 
L 167.260146 -225.892681 
L 166.794299 -224.423473 
L 166.328451 -222.926014 
L 165.862604 -221.40133 
L 165.396757 -219.850458 
L 164.93091 -218.274447 
L 164.465062 -216.674352 
L 163.999215 -215.051239 
L 163.533368 -213.406178 
L 163.067521 -211.740246 
L 162.601673 -210.054525 
L 162.135826 -208.350099 
L 161.669979 -206.628052 
L 161.204132 -204.889474 
L 160.738284 -203.135449 
L 160.272437 -201.367064 
L 159.80659 -199.585402 
L 159.340743 -197.791542 
L 158.874895 -195.986559 
L 158.409048 -194.171522 
L 157.943201 -192.347494 
L 157.477354 -190.51553 
L 157.011506 -188.676676 
L 156.545659 -186.831969 
L 156.079812 -184.982435 
L 155.613965 -183.129091 
L 155.148117 -181.272937 
L 154.68227 -179.414964 
L 154.216423 -177.556148 
L 153.750576 -175.697451 
L 153.284728 -173.839817 
L 152.818881 -171.984176 
L 152.353034 -170.131442 
L 151.887187 -168.28251 
L 151.421339 -166.438257 
L 150.955492 -164.599541 
L 150.489645 -162.767202 
L 150.023798 -160.94206 
L 149.55795 -159.124915 
L 149.092103 -157.316544 
L 148.626256 -155.517707 
L 148.160408 -153.729138 
L 147.694561 -151.951553 
L 147.228714 -150.185644 
L 146.762867 -148.432081 
L 146.297019 -146.691511 
L 145.831172 -144.964558 
L 145.365325 -143.251825 
L 144.899478 -141.553889 
L 144.43363 -139.871305 
L 143.967783 -138.204606 
L 143.501936 -136.554298 
L 143.036089 -134.920868 
L 142.570241 -133.304776 
L 142.104394 -131.706461 
L 141.638547 -130.126338 
L 141.1727 -128.564797 
L 140.706852 -127.022208 
L 140.241005 -125.498916 
L 139.775158 -123.995243 
L 139.309311 -122.511491 
L 138.843463 -121.047937 
L 138.377616 -119.604837 
L 137.911769 -118.182426 
L 137.445922 -116.780915 
L 136.980074 -115.400497 
L 136.514227 -114.041342 
L 136.04838 -112.703601 
L 135.582533 -111.387403 
L 135.116685 -110.092859 
L 134.650838 -108.820059 
L 134.184991 -107.569076 
L 133.719144 -106.339963 
L 133.253296 -105.132756 
L 132.787449 -103.947473 
L 132.321602 -102.784113 
L 131.855755 -101.642662 
L 131.389907 -100.523087 
L 130.92406 -99.425339 
L 130.458213 -98.349357 
L 129.992366 -97.295061 
L 129.526518 -96.26236 
L 129.060671 -95.251148 
L 128.594824 -94.261305 
L 128.128977 -93.292701 
L 127.663129 -92.34519 
L 127.197282 -91.418618 
L 126.731435 -90.512816 
z
" style="stroke: #add8e6; stroke-opacity: 0.5"/>
    </defs>
    <g clip-path="url(#pd6c2a56ac0)">
     <use xlink:href="#mac167a8de1" x="0" y="288" style="fill: #add8e6; fill-opacity: 0.5; stroke: #add8e6; stroke-opacity: 0.5"/>
    </g>
   </g>
   <g id="matplotlib.axis_1">
    <g id="xtick_1">
     <g id="line2d_1">
      <defs>
       <path id="m3414235530" d="M 0 0 
L 0 3.5 
" style="stroke: #030303; stroke-width: 0.8"/>
      </defs>
      <g>
       <use xlink:href="#m3414235530" x="95.690648" y="235.72" style="fill: #030303; stroke: #030303; stroke-width: 0.8"/>
      </g>
     </g>
     <g id="text_1">
      <!-- $\mathdefault{117}$ -->
      <g style="fill: #030303" transform="translate(83.275648 252.597969) scale(0.13 -0.13)">
       <defs>
        <path id="DejaVuSerif-31" d="M 909 0 
L 909 331 
L 1722 331 
L 1722 4213 
L 781 3603 
L 781 4013 
L 1919 4750 
L 2350 4750 
L 2350 331 
L 3163 331 
L 3163 0 
L 909 0 
z
" transform="scale(0.015625)"/>
        <path id="DejaVuSerif-37" d="M 3609 4347 
L 1784 0 
L 1319 0 
L 3059 4153 
L 903 4153 
L 903 3578 
L 538 3578 
L 538 4666 
L 3609 4666 
L 3609 4347 
z
" transform="scale(0.015625)"/>
       </defs>
       <use xlink:href="#DejaVuSerif-31" transform="translate(0 0.78125)"/>
       <use xlink:href="#DejaVuSerif-31" transform="translate(63.623047 0.78125)"/>
       <use xlink:href="#DejaVuSerif-37" transform="translate(127.246094 0.78125)"/>
      </g>
     </g>
    </g>
    <g id="xtick_2">
     <g id="line2d_2">
      <g>
       <use xlink:href="#m3414235530" x="145.083619" y="235.72" style="fill: #030303; stroke: #030303; stroke-width: 0.8"/>
      </g>
     </g>
     <g id="text_2">
      <!-- $\mathdefault{118}$ -->
      <g style="fill: #030303" transform="translate(132.668619 252.597969) scale(0.13 -0.13)">
       <defs>
        <path id="DejaVuSerif-38" d="M 2981 1275 
Q 2981 1775 2732 2051 
Q 2484 2328 2034 2328 
Q 1584 2328 1336 2051 
Q 1088 1775 1088 1275 
Q 1088 772 1336 495 
Q 1584 219 2034 219 
Q 2484 219 2732 495 
Q 2981 772 2981 1275 
z
M 2853 3541 
Q 2853 3966 2637 4203 
Q 2422 4441 2034 4441 
Q 1650 4441 1433 4203 
Q 1216 3966 1216 3541 
Q 1216 3113 1433 2875 
Q 1650 2638 2034 2638 
Q 2422 2638 2637 2875 
Q 2853 3113 2853 3541 
z
M 2516 2484 
Q 3047 2413 3344 2092 
Q 3641 1772 3641 1275 
Q 3641 619 3225 264 
Q 2809 -91 2034 -91 
Q 1263 -91 845 264 
Q 428 619 428 1275 
Q 428 1772 725 2092 
Q 1022 2413 1556 2484 
Q 1084 2569 832 2842 
Q 581 3116 581 3541 
Q 581 4103 968 4426 
Q 1356 4750 2034 4750 
Q 2713 4750 3100 4426 
Q 3488 4103 3488 3541 
Q 3488 3116 3236 2842 
Q 2984 2569 2516 2484 
z
" transform="scale(0.015625)"/>
       </defs>
       <use xlink:href="#DejaVuSerif-31" transform="translate(0 0.78125)"/>
       <use xlink:href="#DejaVuSerif-31" transform="translate(63.623047 0.78125)"/>
       <use xlink:href="#DejaVuSerif-38" transform="translate(127.246094 0.78125)"/>
      </g>
     </g>
    </g>
    <g id="xtick_3">
     <g id="line2d_3">
      <g>
       <use xlink:href="#m3414235530" x="194.476591" y="235.72" style="fill: #030303; stroke: #030303; stroke-width: 0.8"/>
      </g>
     </g>
     <g id="text_3">
      <!-- $\mathdefault{119}$ -->
      <g style="fill: #030303" transform="translate(182.061591 252.597969) scale(0.13 -0.13)">
       <defs>
        <path id="DejaVuSerif-39" d="M 2994 2091 
Q 2784 1856 2512 1740 
Q 2241 1625 1900 1625 
Q 1206 1625 804 2044 
Q 403 2463 403 3188 
Q 403 3897 839 4323 
Q 1275 4750 2003 4750 
Q 2794 4750 3217 4161 
Q 3641 3572 3641 2478 
Q 3641 1253 3137 581 
Q 2634 -91 1722 -91 
Q 1475 -91 1203 -44 
Q 931 3 647 97 
L 647 872 
L 997 872 
Q 1038 556 1241 387 
Q 1444 219 1784 219 
Q 2391 219 2687 676 
Q 2984 1134 2994 2091 
z
M 1978 4441 
Q 1534 4441 1298 4117 
Q 1063 3794 1063 3188 
Q 1063 2581 1298 2256 
Q 1534 1931 1978 1931 
Q 2422 1931 2658 2245 
Q 2894 2559 2894 3150 
Q 2894 3772 2656 4106 
Q 2419 4441 1978 4441 
z
" transform="scale(0.015625)"/>
       </defs>
       <use xlink:href="#DejaVuSerif-31" transform="translate(0 0.78125)"/>
       <use xlink:href="#DejaVuSerif-31" transform="translate(63.623047 0.78125)"/>
       <use xlink:href="#DejaVuSerif-39" transform="translate(127.246094 0.78125)"/>
      </g>
     </g>
    </g>
    <g id="xtick_4">
     <g id="line2d_4">
      <g>
       <use xlink:href="#m3414235530" x="243.869562" y="235.72" style="fill: #030303; stroke: #030303; stroke-width: 0.8"/>
      </g>
     </g>
     <g id="text_4">
      <!-- $\mathdefault{120}$ -->
      <g style="fill: #030303" transform="translate(231.454562 252.597969) scale(0.13 -0.13)">
       <defs>
        <path id="DejaVuSerif-32" d="M 819 3553 
L 469 3553 
L 469 4384 
Q 803 4563 1142 4656 
Q 1481 4750 1806 4750 
Q 2534 4750 2956 4397 
Q 3378 4044 3378 3438 
Q 3378 2753 2422 1800 
Q 2347 1728 2309 1691 
L 1131 513 
L 3078 513 
L 3078 1088 
L 3444 1088 
L 3444 0 
L 434 0 
L 434 341 
L 1850 1753 
Q 2319 2222 2519 2614 
Q 2719 3006 2719 3438 
Q 2719 3909 2473 4175 
Q 2228 4441 1797 4441 
Q 1350 4441 1106 4219 
Q 863 3997 819 3553 
z
" transform="scale(0.015625)"/>
        <path id="DejaVuSerif-30" d="M 2034 219 
Q 2513 219 2750 744 
Q 2988 1269 2988 2328 
Q 2988 3391 2750 3916 
Q 2513 4441 2034 4441 
Q 1556 4441 1318 3916 
Q 1081 3391 1081 2328 
Q 1081 1269 1318 744 
Q 1556 219 2034 219 
z
M 2034 -91 
Q 1275 -91 848 546 
Q 422 1184 422 2328 
Q 422 3475 848 4112 
Q 1275 4750 2034 4750 
Q 2797 4750 3222 4112 
Q 3647 3475 3647 2328 
Q 3647 1184 3222 546 
Q 2797 -91 2034 -91 
z
" transform="scale(0.015625)"/>
       </defs>
       <use xlink:href="#DejaVuSerif-31" transform="translate(0 0.78125)"/>
       <use xlink:href="#DejaVuSerif-32" transform="translate(63.623047 0.78125)"/>
       <use xlink:href="#DejaVuSerif-30" transform="translate(127.246094 0.78125)"/>
      </g>
     </g>
    </g>
    <g id="xtick_5">
     <g id="line2d_5">
      <g>
       <use xlink:href="#m3414235530" x="293.262534" y="235.72" style="fill: #030303; stroke: #030303; stroke-width: 0.8"/>
      </g>
     </g>
     <g id="text_5">
      <!-- $\mathdefault{121}$ -->
      <g style="fill: #030303" transform="translate(280.847534 252.597969) scale(0.13 -0.13)">
       <use xlink:href="#DejaVuSerif-31" transform="translate(0 0.78125)"/>
       <use xlink:href="#DejaVuSerif-32" transform="translate(63.623047 0.78125)"/>
       <use xlink:href="#DejaVuSerif-31" transform="translate(127.246094 0.78125)"/>
      </g>
     </g>
    </g>
    <g id="text_6">
     <!-- Sample Mean (Muscle Force) -->
     <g transform="translate(49.278282 272.97875) scale(0.18 -0.18)">
      <defs>
       <path id="DejaVuSerif-53" d="M 594 225 
L 594 1288 
L 953 1284 
Q 969 753 1261 498 
Q 1553 244 2150 244 
Q 2706 244 2998 464 
Q 3291 684 3291 1106 
Q 3291 1444 3114 1625 
Q 2938 1806 2369 1978 
L 1753 2163 
Q 1084 2366 811 2669 
Q 538 2972 538 3500 
Q 538 4094 959 4422 
Q 1381 4750 2144 4750 
Q 2469 4750 2856 4679 
Q 3244 4609 3681 4475 
L 3681 3481 
L 3328 3481 
Q 3275 3975 2998 4195 
Q 2722 4416 2156 4416 
Q 1663 4416 1405 4214 
Q 1147 4013 1147 3628 
Q 1147 3294 1340 3103 
Q 1534 2913 2163 2725 
L 2741 2553 
Q 3375 2363 3645 2067 
Q 3916 1772 3916 1275 
Q 3916 597 3481 253 
Q 3047 -91 2188 -91 
Q 1803 -91 1404 -12 
Q 1006 66 594 225 
z
" transform="scale(0.015625)"/>
       <path id="DejaVuSerif-61" d="M 2547 1044 
L 2547 1747 
L 1806 1747 
Q 1378 1747 1168 1562 
Q 959 1378 959 997 
Q 959 650 1171 447 
Q 1384 244 1747 244 
Q 2106 244 2326 466 
Q 2547 688 2547 1044 
z
M 3122 2075 
L 3122 331 
L 3634 331 
L 3634 0 
L 2547 0 
L 2547 359 
Q 2356 128 2106 18 
Q 1856 -91 1522 -91 
Q 969 -91 644 203 
Q 319 497 319 997 
Q 319 1513 691 1797 
Q 1063 2081 1741 2081 
L 2547 2081 
L 2547 2309 
Q 2547 2688 2317 2895 
Q 2088 3103 1672 3103 
Q 1328 3103 1125 2947 
Q 922 2791 872 2484 
L 575 2484 
L 575 3156 
Q 875 3284 1158 3348 
Q 1441 3413 1709 3413 
Q 2400 3413 2761 3070 
Q 3122 2728 3122 2075 
z
" transform="scale(0.015625)"/>
       <path id="DejaVuSerif-6d" d="M 3316 2675 
Q 3481 3041 3739 3227 
Q 3997 3413 4341 3413 
Q 4863 3413 5119 3089 
Q 5375 2766 5375 2113 
L 5375 331 
L 5894 331 
L 5894 0 
L 4300 0 
L 4300 331 
L 4800 331 
L 4800 2047 
Q 4800 2556 4650 2772 
Q 4500 2988 4153 2988 
Q 3769 2988 3567 2697 
Q 3366 2406 3366 1850 
L 3366 331 
L 3866 331 
L 3866 0 
L 2291 0 
L 2291 331 
L 2791 331 
L 2791 2069 
Q 2791 2566 2641 2777 
Q 2491 2988 2144 2988 
Q 1759 2988 1557 2697 
Q 1356 2406 1356 1850 
L 1356 331 
L 1856 331 
L 1856 0 
L 263 0 
L 263 331 
L 781 331 
L 781 2994 
L 231 2994 
L 231 3322 
L 1356 3322 
L 1356 2731 
Q 1516 3063 1762 3238 
Q 2009 3413 2322 3413 
Q 2709 3413 2968 3220 
Q 3228 3028 3316 2675 
z
" transform="scale(0.015625)"/>
       <path id="DejaVuSerif-70" d="M 1313 1825 
L 1313 1497 
Q 1313 897 1542 583 
Q 1772 269 2209 269 
Q 2650 269 2876 622 
Q 3103 975 3103 1663 
Q 3103 2353 2876 2703 
Q 2650 3053 2209 3053 
Q 1772 3053 1542 2737 
Q 1313 2422 1313 1825 
z
M 738 2988 
L 184 2988 
L 184 3322 
L 1313 3322 
L 1313 2803 
Q 1481 3116 1742 3264 
Q 2003 3413 2388 3413 
Q 3000 3413 3387 2928 
Q 3775 2444 3775 1663 
Q 3775 881 3387 395 
Q 3000 -91 2388 -91 
Q 2003 -91 1742 57 
Q 1481 206 1313 519 
L 1313 -997 
L 1856 -997 
L 1856 -1331 
L 184 -1331 
L 184 -997 
L 738 -997 
L 738 2988 
z
" transform="scale(0.015625)"/>
       <path id="DejaVuSerif-6c" d="M 1313 331 
L 1856 331 
L 1856 0 
L 184 0 
L 184 331 
L 738 331 
L 738 4531 
L 184 4531 
L 184 4863 
L 1313 4863 
L 1313 331 
z
" transform="scale(0.015625)"/>
       <path id="DejaVuSerif-65" d="M 3469 1600 
L 991 1600 
L 991 1575 
Q 991 903 1244 561 
Q 1497 219 1991 219 
Q 2369 219 2611 417 
Q 2853 616 2950 1006 
L 3413 1006 
Q 3275 459 2904 184 
Q 2534 -91 1931 -91 
Q 1203 -91 761 389 
Q 319 869 319 1663 
Q 319 2450 753 2931 
Q 1188 3413 1894 3413 
Q 2647 3413 3050 2948 
Q 3453 2484 3469 1600 
z
M 2791 1931 
Q 2772 2513 2545 2808 
Q 2319 3103 1894 3103 
Q 1497 3103 1269 2806 
Q 1041 2509 991 1931 
L 2791 1931 
z
" transform="scale(0.015625)"/>
       <path id="DejaVuSerif-20" transform="scale(0.015625)"/>
       <path id="DejaVuSerif-4d" d="M 353 0 
L 353 331 
L 947 331 
L 947 4331 
L 319 4331 
L 319 4666 
L 1678 4666 
L 3316 1344 
L 4953 4666 
L 6228 4666 
L 6228 4331 
L 5606 4331 
L 5606 331 
L 6203 331 
L 6203 0 
L 4378 0 
L 4378 331 
L 4972 331 
L 4972 3938 
L 3372 684 
L 2931 684 
L 1331 3938 
L 1331 331 
L 1925 331 
L 1925 0 
L 353 0 
z
" transform="scale(0.015625)"/>
       <path id="DejaVuSerif-6e" d="M 263 0 
L 263 331 
L 781 331 
L 781 2988 
L 231 2988 
L 231 3322 
L 1356 3322 
L 1356 2731 
Q 1516 3069 1770 3241 
Q 2025 3413 2363 3413 
Q 2913 3413 3172 3097 
Q 3431 2781 3431 2113 
L 3431 331 
L 3944 331 
L 3944 0 
L 2356 0 
L 2356 331 
L 2853 331 
L 2853 1931 
Q 2853 2541 2703 2767 
Q 2553 2994 2175 2994 
Q 1775 2994 1565 2701 
Q 1356 2409 1356 1850 
L 1356 331 
L 1856 331 
L 1856 0 
L 263 0 
z
" transform="scale(0.015625)"/>
       <path id="DejaVuSerif-28" d="M 2041 -997 
Q 1281 -656 893 83 
Q 506 822 506 1931 
Q 506 3044 893 3783 
Q 1281 4522 2041 4863 
L 2041 4556 
Q 1559 4225 1350 3623 
Q 1141 3022 1141 1931 
Q 1141 844 1350 242 
Q 1559 -359 2041 -691 
L 2041 -997 
z
" transform="scale(0.015625)"/>
       <path id="DejaVuSerif-75" d="M 2266 3322 
L 3341 3322 
L 3341 331 
L 3884 331 
L 3884 0 
L 2766 0 
L 2766 588 
Q 2606 256 2353 82 
Q 2100 -91 1766 -91 
Q 1213 -91 952 223 
Q 691 538 691 1209 
L 691 2988 
L 172 2988 
L 172 3322 
L 1269 3322 
L 1269 1388 
Q 1269 781 1417 556 
Q 1566 331 1947 331 
Q 2347 331 2556 625 
Q 2766 919 2766 1478 
L 2766 2988 
L 2266 2988 
L 2266 3322 
z
" transform="scale(0.015625)"/>
       <path id="DejaVuSerif-73" d="M 359 184 
L 359 959 
L 691 959 
Q 703 588 923 403 
Q 1144 219 1575 219 
Q 1963 219 2166 364 
Q 2369 509 2369 788 
Q 2369 1006 2220 1140 
Q 2072 1275 1594 1428 
L 1178 1569 
Q 750 1706 558 1912 
Q 366 2119 366 2438 
Q 366 2894 700 3153 
Q 1034 3413 1625 3413 
Q 1888 3413 2178 3344 
Q 2469 3275 2778 3144 
L 2778 2419 
L 2447 2419 
Q 2434 2741 2221 2922 
Q 2009 3103 1644 3103 
Q 1281 3103 1095 2975 
Q 909 2847 909 2591 
Q 909 2381 1050 2254 
Q 1191 2128 1613 1997 
L 2069 1856 
Q 2541 1709 2748 1489 
Q 2956 1269 2956 922 
Q 2956 450 2595 179 
Q 2234 -91 1600 -91 
Q 1278 -91 972 -22 
Q 666 47 359 184 
z
" transform="scale(0.015625)"/>
       <path id="DejaVuSerif-63" d="M 3291 997 
Q 3169 466 2822 187 
Q 2475 -91 1925 -91 
Q 1200 -91 759 389 
Q 319 869 319 1663 
Q 319 2459 759 2936 
Q 1200 3413 1925 3413 
Q 2241 3413 2553 3339 
Q 2866 3266 3181 3116 
L 3181 2266 
L 2847 2266 
Q 2781 2703 2561 2903 
Q 2341 3103 1931 3103 
Q 1466 3103 1228 2742 
Q 991 2381 991 1663 
Q 991 944 1227 581 
Q 1463 219 1931 219 
Q 2303 219 2525 412 
Q 2747 606 2828 997 
L 3291 997 
z
" transform="scale(0.015625)"/>
       <path id="DejaVuSerif-46" d="M 353 0 
L 353 331 
L 947 331 
L 947 4331 
L 353 4331 
L 353 4666 
L 4172 4666 
L 4172 3628 
L 3788 3628 
L 3788 4281 
L 1581 4281 
L 1581 2719 
L 3175 2719 
L 3175 3303 
L 3559 3303 
L 3559 1753 
L 3175 1753 
L 3175 2338 
L 1581 2338 
L 1581 331 
L 2328 331 
L 2328 0 
L 353 0 
z
" transform="scale(0.015625)"/>
       <path id="DejaVuSerif-6f" d="M 1925 219 
Q 2388 219 2623 584 
Q 2859 950 2859 1663 
Q 2859 2375 2623 2739 
Q 2388 3103 1925 3103 
Q 1463 3103 1227 2739 
Q 991 2375 991 1663 
Q 991 950 1228 584 
Q 1466 219 1925 219 
z
M 1925 -91 
Q 1200 -91 759 389 
Q 319 869 319 1663 
Q 319 2456 758 2934 
Q 1197 3413 1925 3413 
Q 2653 3413 3092 2934 
Q 3531 2456 3531 1663 
Q 3531 869 3092 389 
Q 2653 -91 1925 -91 
z
" transform="scale(0.015625)"/>
       <path id="DejaVuSerif-72" d="M 3059 3328 
L 3059 2497 
L 2728 2497 
Q 2713 2744 2591 2866 
Q 2469 2988 2234 2988 
Q 1809 2988 1582 2694 
Q 1356 2400 1356 1850 
L 1356 331 
L 2022 331 
L 2022 0 
L 263 0 
L 263 331 
L 781 331 
L 781 2994 
L 231 2994 
L 231 3322 
L 1356 3322 
L 1356 2731 
Q 1525 3078 1790 3245 
Q 2056 3413 2438 3413 
Q 2578 3413 2733 3391 
Q 2888 3369 3059 3328 
z
" transform="scale(0.015625)"/>
       <path id="DejaVuSerif-29" d="M 453 -997 
L 453 -691 
Q 934 -359 1145 242 
Q 1356 844 1356 1931 
Q 1356 3022 1145 3623 
Q 934 4225 453 4556 
L 453 4863 
Q 1216 4522 1603 3783 
Q 1991 3044 1991 1931 
Q 1991 822 1603 83 
Q 1216 -656 453 -997 
z
" transform="scale(0.015625)"/>
      </defs>
      <use xlink:href="#DejaVuSerif-53"/>
      <use xlink:href="#DejaVuSerif-61" x="68.505859"/>
      <use xlink:href="#DejaVuSerif-6d" x="128.125"/>
      <use xlink:href="#DejaVuSerif-70" x="222.949219"/>
      <use xlink:href="#DejaVuSerif-6c" x="286.962891"/>
      <use xlink:href="#DejaVuSerif-65" x="318.945312"/>
      <use xlink:href="#DejaVuSerif-20" x="378.125"/>
      <use xlink:href="#DejaVuSerif-4d" x="409.912109"/>
      <use xlink:href="#DejaVuSerif-65" x="512.304688"/>
      <use xlink:href="#DejaVuSerif-61" x="571.484375"/>
      <use xlink:href="#DejaVuSerif-6e" x="631.103516"/>
      <use xlink:href="#DejaVuSerif-20" x="695.507812"/>
      <use xlink:href="#DejaVuSerif-28" x="727.294922"/>
      <use xlink:href="#DejaVuSerif-4d" x="766.308594"/>
      <use xlink:href="#DejaVuSerif-75" x="868.701172"/>
      <use xlink:href="#DejaVuSerif-73" x="933.105469"/>
      <use xlink:href="#DejaVuSerif-63" x="984.423828"/>
      <use xlink:href="#DejaVuSerif-6c" x="1040.429688"/>
      <use xlink:href="#DejaVuSerif-65" x="1072.412109"/>
      <use xlink:href="#DejaVuSerif-20" x="1131.591797"/>
      <use xlink:href="#DejaVuSerif-46" x="1163.378906"/>
      <use xlink:href="#DejaVuSerif-6f" x="1227.263672"/>
      <use xlink:href="#DejaVuSerif-72" x="1287.46875"/>
      <use xlink:href="#DejaVuSerif-63" x="1335.271484"/>
      <use xlink:href="#DejaVuSerif-65" x="1391.277344"/>
      <use xlink:href="#DejaVuSerif-29" x="1450.457031"/>
     </g>
    </g>
   </g>
   <g id="matplotlib.axis_2">
    <g id="ytick_1">
     <g id="line2d_6">
      <defs>
       <path id="mecd621c816" d="M 0 0 
L -3.5 0 
" style="stroke: #030303; stroke-width: 0.8"/>
      </defs>
      <g>
       <use xlink:href="#mecd621c816" x="55.480098" y="226.161818" style="fill: #030303; stroke: #030303; stroke-width: 0.8"/>
      </g>
     </g>
     <g id="text_7">
      <!-- $\mathdefault{0.0}$ -->
      <g style="fill: #030303" transform="translate(32.480098 229.961037) scale(0.1 -0.1)">
       <defs>
        <path id="DejaVuSerif-2e" d="M 603 325 
Q 603 500 722 622 
Q 841 744 1019 744 
Q 1191 744 1312 622 
Q 1434 500 1434 325 
Q 1434 153 1312 31 
Q 1191 -91 1019 -91 
Q 841 -91 722 29 
Q 603 150 603 325 
z
" transform="scale(0.015625)"/>
       </defs>
       <use xlink:href="#DejaVuSerif-30" transform="translate(0 0.78125)"/>
       <use xlink:href="#DejaVuSerif-2e" transform="translate(63.623047 0.78125)"/>
       <use xlink:href="#DejaVuSerif-30" transform="translate(95.410156 0.78125)"/>
      </g>
     </g>
    </g>
    <g id="ytick_2">
     <g id="line2d_7">
      <g>
       <use xlink:href="#mecd621c816" x="55.480098" y="197.971621" style="fill: #030303; stroke: #030303; stroke-width: 0.8"/>
      </g>
     </g>
     <g id="text_8">
      <!-- $\mathdefault{0.1}$ -->
      <g style="fill: #030303" transform="translate(32.480098 201.77084) scale(0.1 -0.1)">
       <use xlink:href="#DejaVuSerif-30" transform="translate(0 0.78125)"/>
       <use xlink:href="#DejaVuSerif-2e" transform="translate(63.623047 0.78125)"/>
       <use xlink:href="#DejaVuSerif-31" transform="translate(95.410156 0.78125)"/>
      </g>
     </g>
    </g>
    <g id="ytick_3">
     <g id="line2d_8">
      <g>
       <use xlink:href="#mecd621c816" x="55.480098" y="169.781424" style="fill: #030303; stroke: #030303; stroke-width: 0.8"/>
      </g>
     </g>
     <g id="text_9">
      <!-- $\mathdefault{0.2}$ -->
      <g style="fill: #030303" transform="translate(32.780098 173.580643) scale(0.1 -0.1)">
       <use xlink:href="#DejaVuSerif-30" transform="translate(0 0.78125)"/>
       <use xlink:href="#DejaVuSerif-2e" transform="translate(63.623047 0.78125)"/>
       <use xlink:href="#DejaVuSerif-32" transform="translate(92.785156 0.78125)"/>
      </g>
     </g>
    </g>
    <g id="ytick_4">
     <g id="line2d_9">
      <g>
       <use xlink:href="#mecd621c816" x="55.480098" y="141.591227" style="fill: #030303; stroke: #030303; stroke-width: 0.8"/>
      </g>
     </g>
     <g id="text_10">
      <!-- $\mathdefault{0.3}$ -->
      <g style="fill: #030303" transform="translate(32.480098 145.390446) scale(0.1 -0.1)">
       <defs>
        <path id="DejaVuSerif-33" d="M 622 4469 
Q 988 4606 1323 4678 
Q 1659 4750 1953 4750 
Q 2638 4750 3022 4454 
Q 3406 4159 3406 3634 
Q 3406 3213 3140 2930 
Q 2875 2647 2388 2547 
Q 2963 2466 3280 2130 
Q 3597 1794 3597 1259 
Q 3597 606 3158 257 
Q 2719 -91 1894 -91 
Q 1528 -91 1179 -12 
Q 831 66 488 225 
L 488 1131 
L 838 1131 
Q 869 681 1141 450 
Q 1413 219 1906 219 
Q 2384 219 2661 495 
Q 2938 772 2938 1253 
Q 2938 1803 2653 2086 
Q 2369 2369 1819 2369 
L 1522 2369 
L 1522 2688 
L 1678 2688 
Q 2225 2688 2498 2914 
Q 2772 3141 2772 3597 
Q 2772 4006 2547 4223 
Q 2322 4441 1900 4441 
Q 1478 4441 1245 4241 
Q 1013 4041 972 3647 
L 622 3647 
L 622 4469 
z
" transform="scale(0.015625)"/>
       </defs>
       <use xlink:href="#DejaVuSerif-30" transform="translate(0 0.78125)"/>
       <use xlink:href="#DejaVuSerif-2e" transform="translate(63.623047 0.78125)"/>
       <use xlink:href="#DejaVuSerif-33" transform="translate(95.410156 0.78125)"/>
      </g>
     </g>
    </g>
    <g id="ytick_5">
     <g id="line2d_10">
      <g>
       <use xlink:href="#mecd621c816" x="55.480098" y="113.40103" style="fill: #030303; stroke: #030303; stroke-width: 0.8"/>
      </g>
     </g>
     <g id="text_11">
      <!-- $\mathdefault{0.4}$ -->
      <g style="fill: #030303" transform="translate(32.480098 117.200249) scale(0.1 -0.1)">
       <defs>
        <path id="DejaVuSerif-34" d="M 2234 1581 
L 2234 4063 
L 641 1581 
L 2234 1581 
z
M 3609 0 
L 1484 0 
L 1484 331 
L 2234 331 
L 2234 1247 
L 197 1247 
L 197 1588 
L 2241 4750 
L 2859 4750 
L 2859 1581 
L 3750 1581 
L 3750 1247 
L 2859 1247 
L 2859 331 
L 3609 331 
L 3609 0 
z
" transform="scale(0.015625)"/>
       </defs>
       <use xlink:href="#DejaVuSerif-30" transform="translate(0 0.78125)"/>
       <use xlink:href="#DejaVuSerif-2e" transform="translate(63.623047 0.78125)"/>
       <use xlink:href="#DejaVuSerif-34" transform="translate(95.410156 0.78125)"/>
      </g>
     </g>
    </g>
    <g id="ytick_6">
     <g id="line2d_11">
      <g>
       <use xlink:href="#mecd621c816" x="55.480098" y="85.210833" style="fill: #030303; stroke: #030303; stroke-width: 0.8"/>
      </g>
     </g>
     <g id="text_12">
      <!-- $\mathdefault{0.5}$ -->
      <g style="fill: #030303" transform="translate(32.480098 89.010052) scale(0.1 -0.1)">
       <defs>
        <path id="DejaVuSerif-35" d="M 3219 4666 
L 3219 4153 
L 1081 4153 
L 1081 2816 
Q 1244 2928 1461 2984 
Q 1678 3041 1947 3041 
Q 2703 3041 3140 2622 
Q 3578 2203 3578 1478 
Q 3578 738 3136 323 
Q 2694 -91 1894 -91 
Q 1572 -91 1234 -12 
Q 897 66 544 225 
L 544 1131 
L 897 1131 
Q 925 688 1179 453 
Q 1434 219 1894 219 
Q 2388 219 2653 544 
Q 2919 869 2919 1478 
Q 2919 2084 2655 2407 
Q 2391 2731 1894 2731 
Q 1613 2731 1398 2631 
Q 1184 2531 1019 2322 
L 750 2322 
L 750 4666 
L 3219 4666 
z
" transform="scale(0.015625)"/>
       </defs>
       <use xlink:href="#DejaVuSerif-30" transform="translate(0 0.78125)"/>
       <use xlink:href="#DejaVuSerif-2e" transform="translate(63.623047 0.78125)"/>
       <use xlink:href="#DejaVuSerif-35" transform="translate(95.410156 0.78125)"/>
      </g>
     </g>
    </g>
    <g id="ytick_7">
     <g id="line2d_12">
      <g>
       <use xlink:href="#mecd621c816" x="55.480098" y="57.020636" style="fill: #030303; stroke: #030303; stroke-width: 0.8"/>
      </g>
     </g>
     <g id="text_13">
      <!-- $\mathdefault{0.6}$ -->
      <g style="fill: #030303" transform="translate(32.480098 60.819854) scale(0.1 -0.1)">
       <defs>
        <path id="DejaVuSerif-36" d="M 2094 219 
Q 2534 219 2771 542 
Q 3009 866 3009 1472 
Q 3009 2078 2771 2401 
Q 2534 2725 2094 2725 
Q 1647 2725 1412 2412 
Q 1178 2100 1178 1509 
Q 1178 888 1415 553 
Q 1653 219 2094 219 
z
M 1075 2569 
Q 1288 2803 1556 2918 
Q 1825 3034 2163 3034 
Q 2859 3034 3264 2615 
Q 3669 2197 3669 1472 
Q 3669 763 3233 336 
Q 2797 -91 2069 -91 
Q 1278 -91 853 498 
Q 428 1088 428 2181 
Q 428 3406 931 4078 
Q 1434 4750 2350 4750 
Q 2597 4750 2869 4703 
Q 3141 4656 3425 4563 
L 3425 3794 
L 3072 3794 
Q 3034 4109 2831 4275 
Q 2628 4441 2284 4441 
Q 1678 4441 1381 3981 
Q 1084 3522 1075 2569 
z
" transform="scale(0.015625)"/>
       </defs>
       <use xlink:href="#DejaVuSerif-30" transform="translate(0 0.78125)"/>
       <use xlink:href="#DejaVuSerif-2e" transform="translate(63.623047 0.78125)"/>
       <use xlink:href="#DejaVuSerif-36" transform="translate(95.410156 0.78125)"/>
      </g>
     </g>
    </g>
    <g id="ytick_8">
     <g id="line2d_13">
      <g>
       <use xlink:href="#mecd621c816" x="55.480098" y="28.830439" style="fill: #030303; stroke: #030303; stroke-width: 0.8"/>
      </g>
     </g>
     <g id="text_14">
      <!-- $\mathdefault{0.7}$ -->
      <g style="fill: #030303" transform="translate(32.480098 32.629657) scale(0.1 -0.1)">
       <use xlink:href="#DejaVuSerif-30" transform="translate(0 0.78125)"/>
       <use xlink:href="#DejaVuSerif-2e" transform="translate(63.623047 0.78125)"/>
       <use xlink:href="#DejaVuSerif-37" transform="translate(95.410156 0.78125)"/>
      </g>
     </g>
    </g>
    <g id="text_15">
     <!-- Density -->
     <g transform="translate(24.480723 165.1175) rotate(-90) scale(0.18 -0.18)">
      <defs>
       <path id="DejaVuSerif-44" d="M 1581 331 
L 2163 331 
Q 3072 331 3558 850 
Q 4044 1369 4044 2338 
Q 4044 3306 3559 3818 
Q 3075 4331 2163 4331 
L 1581 4331 
L 1581 331 
z
M 353 0 
L 353 331 
L 947 331 
L 947 4331 
L 353 4331 
L 353 4666 
L 2209 4666 
Q 3416 4666 4089 4050 
Q 4763 3434 4763 2338 
Q 4763 1238 4088 619 
Q 3413 0 2209 0 
L 353 0 
z
" transform="scale(0.015625)"/>
       <path id="DejaVuSerif-69" d="M 622 4353 
Q 622 4497 726 4603 
Q 831 4709 978 4709 
Q 1122 4709 1226 4603 
Q 1331 4497 1331 4353 
Q 1331 4206 1228 4103 
Q 1125 4000 978 4000 
Q 831 4000 726 4103 
Q 622 4206 622 4353 
z
M 1356 331 
L 1900 331 
L 1900 0 
L 231 0 
L 231 331 
L 781 331 
L 781 2988 
L 231 2988 
L 231 3322 
L 1356 3322 
L 1356 331 
z
" transform="scale(0.015625)"/>
       <path id="DejaVuSerif-74" d="M 691 2988 
L 184 2988 
L 184 3322 
L 691 3322 
L 691 4353 
L 1269 4353 
L 1269 3322 
L 2350 3322 
L 2350 2988 
L 1269 2988 
L 1269 878 
Q 1269 456 1350 337 
Q 1431 219 1650 219 
Q 1875 219 1978 351 
Q 2081 484 2088 781 
L 2522 781 
Q 2497 328 2275 118 
Q 2053 -91 1600 -91 
Q 1103 -91 897 129 
Q 691 350 691 878 
L 691 2988 
z
" transform="scale(0.015625)"/>
       <path id="DejaVuSerif-79" d="M 1381 -609 
L 1600 -56 
L 359 2988 
L -19 2988 
L -19 3322 
L 1509 3322 
L 1509 2988 
L 978 2988 
L 1913 703 
L 2847 2988 
L 2350 2988 
L 2350 3322 
L 3597 3322 
L 3597 2988 
L 3225 2988 
L 1703 -750 
Q 1547 -1138 1356 -1280 
Q 1166 -1422 819 -1422 
Q 672 -1422 517 -1397 
Q 363 -1372 206 -1325 
L 206 -691 
L 500 -691 
Q 519 -903 608 -995 
Q 697 -1088 884 -1088 
Q 1056 -1088 1161 -992 
Q 1266 -897 1381 -609 
z
" transform="scale(0.015625)"/>
      </defs>
      <use xlink:href="#DejaVuSerif-44"/>
      <use xlink:href="#DejaVuSerif-65" x="80.175781"/>
      <use xlink:href="#DejaVuSerif-6e" x="139.355469"/>
      <use xlink:href="#DejaVuSerif-73" x="203.759766"/>
      <use xlink:href="#DejaVuSerif-69" x="255.078125"/>
      <use xlink:href="#DejaVuSerif-74" x="287.060547"/>
      <use xlink:href="#DejaVuSerif-79" x="327.246094"/>
     </g>
    </g>
   </g>
   <g id="line2d_14">
    <path d="M 67.102987 226.097688 
L 77.817473 225.899939 
L 84.339335 225.584884 
L 89.463655 225.125967 
L 93.65628 224.52798 
L 97.383058 223.754463 
L 100.643989 222.827787 
L 103.439072 221.798252 
L 106.234156 220.503403 
L 108.563392 219.184804 
L 110.892628 217.614031 
L 113.221865 215.756697 
L 115.551101 213.576912 
L 117.880337 211.037975 
L 120.209573 208.103233 
L 122.53881 204.737124 
L 124.868046 200.906379 
L 127.197282 196.581382 
L 129.526518 191.73764 
L 131.855755 186.357338 
L 134.184991 180.430924 
L 136.514227 173.958658 
L 139.309311 165.488509 
L 142.104394 156.293539 
L 145.365325 144.748175 
L 149.092103 130.683456 
L 154.68227 108.585036 
L 160.738284 84.864551 
L 163.999215 72.948761 
L 166.794299 63.576527 
L 169.123535 56.533072 
L 170.986924 51.489231 
L 172.850313 47.033583 
L 174.713702 43.218171 
L 176.111244 40.80429 
L 177.508785 38.79249 
L 178.906327 37.196485 
L 180.303869 36.027221 
L 181.235563 35.488893 
L 182.167258 35.145528 
L 183.098952 34.998182 
L 184.030647 35.04731 
L 184.962341 35.29276 
L 185.894036 35.733776 
L 186.82573 36.369002 
L 188.223272 37.681553 
L 189.620814 39.417513 
L 191.018356 41.564995 
L 192.415897 44.109401 
L 194.279286 48.089398 
L 196.142675 52.697215 
L 198.006064 57.879276 
L 200.335301 65.073986 
L 203.130384 74.593822 
L 206.391315 86.632936 
L 211.049788 104.870909 
L 218.969191 136.048447 
L 222.695969 149.795394 
L 225.9569 160.977792 
L 228.751983 169.817574 
L 231.547067 177.907141 
L 233.876303 184.052527 
L 236.205539 189.650643 
L 238.534775 194.707299 
L 240.864012 199.237194 
L 243.193248 203.262338 
L 245.522484 206.810482 
L 247.85172 209.913603 
L 250.180957 212.6065 
L 252.510193 214.925523 
L 254.839429 216.907468 
L 257.168666 218.588641 
L 259.497902 220.004103 
L 261.827138 221.187077 
L 264.622222 222.343185 
L 267.417305 223.257616 
L 270.678236 224.076111 
L 274.405014 224.754983 
L 278.597639 225.276056 
L 283.721959 225.672645 
L 290.24382 225.942159 
L 299.560765 226.097688 
L 299.560765 226.097688 
" clip-path="url(#pd6c2a56ac0)" style="fill: none; stroke: #000080; stroke-width: 2; stroke-linecap: square"/>
   </g>
   <g id="line2d_15">
    <path d="M 243.869562 235.72 
L 243.869562 25.44 
" clip-path="url(#pd6c2a56ac0)" style="fill: none; stroke-dasharray: 5.55,2.4; stroke-dashoffset: 0; stroke: #ff0000; stroke-width: 1.5"/>
   </g>
   <g id="patch_3">
    <path d="M 55.480098 235.72 
L 55.480098 25.44 
" style="fill: none; stroke: #030303; stroke-width: 1.5; stroke-linejoin: miter; stroke-linecap: square"/>
   </g>
   <g id="patch_4">
    <path d="M 55.480098 235.72 
L 311.183654 235.72 
" style="fill: none; stroke: #030303; stroke-width: 1.5; stroke-linejoin: miter; stroke-linecap: square"/>
   </g>
   <g id="patch_5">
    <path d="M 313.964337 197.327771 
Q 279.911642 200.734555 248.083908 203.918744 
" style="fill: none; stroke: #000000; stroke-width: 2; stroke-linecap: round"/>
    <path d="M 253.098979 205.828995 
L 248.083908 203.918744 
L 252.621151 201.052837 
" style="fill: none; stroke: #000000; stroke-width: 2; stroke-linecap: round"/>
   </g>
   <g id="text_16">
    <!-- $H_0$: $\mu$ -->
    <g style="fill: #ff0000" transform="translate(317.95902 198.702327) scale(0.12 -0.12)">
     <defs>
      <path id="DejaVuSans-Oblique-48" d="M 1081 4666 
L 1716 4666 
L 1344 2753 
L 3634 2753 
L 4006 4666 
L 4641 4666 
L 3731 0 
L 3097 0 
L 3531 2222 
L 1241 2222 
L 806 0 
L 172 0 
L 1081 4666 
z
" transform="scale(0.015625)"/>
      <path id="DejaVuSans-30" d="M 2034 4250 
Q 1547 4250 1301 3770 
Q 1056 3291 1056 2328 
Q 1056 1369 1301 889 
Q 1547 409 2034 409 
Q 2525 409 2770 889 
Q 3016 1369 3016 2328 
Q 3016 3291 2770 3770 
Q 2525 4250 2034 4250 
z
M 2034 4750 
Q 2819 4750 3233 4129 
Q 3647 3509 3647 2328 
Q 3647 1150 3233 529 
Q 2819 -91 2034 -91 
Q 1250 -91 836 529 
Q 422 1150 422 2328 
Q 422 3509 836 4129 
Q 1250 4750 2034 4750 
z
" transform="scale(0.015625)"/>
      <path id="DejaVuSerif-3a" d="M 666 325 
Q 666 500 786 622 
Q 906 744 1081 744 
Q 1256 744 1376 622 
Q 1497 500 1497 325 
Q 1497 150 1378 29 
Q 1259 -91 1081 -91 
Q 903 -91 784 29 
Q 666 150 666 325 
z
M 666 2363 
Q 666 2538 786 2658 
Q 906 2778 1081 2778 
Q 1259 2778 1378 2659 
Q 1497 2541 1497 2363 
Q 1497 2184 1378 2065 
Q 1259 1947 1081 1947 
Q 906 1947 786 2067 
Q 666 2188 666 2363 
z
" transform="scale(0.015625)"/>
      <path id="DejaVuSans-Oblique-3bc" d="M -84 -1331 
L 856 3500 
L 1434 3500 
L 1009 1322 
Q 997 1256 987 1175 
Q 978 1094 978 1013 
Q 978 722 1161 565 
Q 1344 409 1684 409 
Q 2147 409 2431 671 
Q 2716 934 2816 1459 
L 3213 3500 
L 3788 3500 
L 3266 809 
Q 3253 750 3248 706 
Q 3244 663 3244 628 
Q 3244 531 3283 486 
Q 3322 441 3406 441 
Q 3438 441 3492 456 
Q 3547 472 3647 513 
L 3559 50 
Q 3422 -19 3297 -55 
Q 3172 -91 3053 -91 
Q 2847 -91 2730 40 
Q 2613 172 2613 403 
Q 2438 153 2195 31 
Q 1953 -91 1625 -91 
Q 1334 -91 1117 43 
Q 900 178 831 397 
L 494 -1331 
L -84 -1331 
z
" transform="scale(0.015625)"/>
     </defs>
     <use xlink:href="#DejaVuSans-Oblique-48" transform="translate(0 0.09375)"/>
     <use xlink:href="#DejaVuSans-30" transform="translate(75.195312 -16.3125) scale(0.7)"/>
     <use xlink:href="#DejaVuSerif-3a" transform="translate(122.46582 0.09375)"/>
     <use xlink:href="#DejaVuSerif-20" transform="translate(156.157227 0.09375)"/>
     <use xlink:href="#DejaVuSans-Oblique-3bc" transform="translate(187.944336 0.09375)"/>
    </g>
   </g>
   <g id="text_17">
    <!-- Sampling Distribution of Sample Mean -->
    <g style="fill: #000080" transform="translate(64.766251 19.44) scale(0.12 -0.12)">
     <defs>
      <path id="DejaVuSerif-67" d="M 3359 2988 
L 3359 72 
Q 3359 -644 2965 -1033 
Q 2572 -1422 1844 -1422 
Q 1516 -1422 1216 -1362 
Q 916 -1303 641 -1184 
L 641 -488 
L 941 -488 
Q 997 -813 1206 -963 
Q 1416 -1113 1806 -1113 
Q 2313 -1113 2548 -827 
Q 2784 -541 2784 72 
L 2784 519 
Q 2616 206 2355 57 
Q 2094 -91 1709 -91 
Q 1097 -91 708 395 
Q 319 881 319 1663 
Q 319 2444 706 2928 
Q 1094 3413 1709 3413 
Q 2094 3413 2355 3264 
Q 2616 3116 2784 2803 
L 2784 3322 
L 3909 3322 
L 3909 2988 
L 3359 2988 
z
M 2784 1825 
Q 2784 2422 2554 2737 
Q 2325 3053 1888 3053 
Q 1444 3053 1217 2703 
Q 991 2353 991 1663 
Q 991 975 1217 622 
Q 1444 269 1888 269 
Q 2325 269 2554 583 
Q 2784 897 2784 1497 
L 2784 1825 
z
" transform="scale(0.015625)"/>
      <path id="DejaVuSerif-62" d="M 738 331 
L 738 4531 
L 184 4531 
L 184 4863 
L 1313 4863 
L 1313 2803 
Q 1481 3116 1742 3264 
Q 2003 3413 2388 3413 
Q 3000 3413 3387 2928 
Q 3775 2444 3775 1663 
Q 3775 881 3387 395 
Q 3000 -91 2388 -91 
Q 2003 -91 1742 57 
Q 1481 206 1313 519 
L 1313 0 
L 184 0 
L 184 331 
L 738 331 
z
M 1313 1497 
Q 1313 897 1542 583 
Q 1772 269 2209 269 
Q 2650 269 2876 622 
Q 3103 975 3103 1663 
Q 3103 2353 2876 2703 
Q 2650 3053 2209 3053 
Q 1772 3053 1542 2737 
Q 1313 2422 1313 1825 
L 1313 1497 
z
" transform="scale(0.015625)"/>
      <path id="DejaVuSerif-66" d="M 2753 4078 
L 2450 4078 
Q 2447 4313 2317 4434 
Q 2188 4556 1941 4556 
Q 1619 4556 1487 4379 
Q 1356 4203 1356 3750 
L 1356 3322 
L 2284 3322 
L 2284 2988 
L 1356 2988 
L 1356 331 
L 2094 331 
L 2094 0 
L 231 0 
L 231 331 
L 781 331 
L 781 2988 
L 231 2988 
L 231 3322 
L 781 3322 
L 781 3738 
Q 781 4294 1070 4578 
Q 1359 4863 1919 4863 
Q 2128 4863 2337 4825 
Q 2547 4788 2753 4709 
L 2753 4078 
z
" transform="scale(0.015625)"/>
     </defs>
     <use xlink:href="#DejaVuSerif-53"/>
     <use xlink:href="#DejaVuSerif-61" x="68.505859"/>
     <use xlink:href="#DejaVuSerif-6d" x="128.125"/>
     <use xlink:href="#DejaVuSerif-70" x="222.949219"/>
     <use xlink:href="#DejaVuSerif-6c" x="286.962891"/>
     <use xlink:href="#DejaVuSerif-69" x="318.945312"/>
     <use xlink:href="#DejaVuSerif-6e" x="350.927734"/>
     <use xlink:href="#DejaVuSerif-67" x="415.332031"/>
     <use xlink:href="#DejaVuSerif-20" x="479.345703"/>
     <use xlink:href="#DejaVuSerif-44" x="511.132812"/>
     <use xlink:href="#DejaVuSerif-69" x="591.308594"/>
     <use xlink:href="#DejaVuSerif-73" x="623.291016"/>
     <use xlink:href="#DejaVuSerif-74" x="674.609375"/>
     <use xlink:href="#DejaVuSerif-72" x="714.794922"/>
     <use xlink:href="#DejaVuSerif-69" x="762.597656"/>
     <use xlink:href="#DejaVuSerif-62" x="794.580078"/>
     <use xlink:href="#DejaVuSerif-75" x="858.59375"/>
     <use xlink:href="#DejaVuSerif-74" x="922.998047"/>
     <use xlink:href="#DejaVuSerif-69" x="963.183594"/>
     <use xlink:href="#DejaVuSerif-6f" x="995.166016"/>
     <use xlink:href="#DejaVuSerif-6e" x="1055.371094"/>
     <use xlink:href="#DejaVuSerif-20" x="1119.775391"/>
     <use xlink:href="#DejaVuSerif-6f" x="1151.5625"/>
     <use xlink:href="#DejaVuSerif-66" x="1211.767578"/>
     <use xlink:href="#DejaVuSerif-20" x="1248.779297"/>
     <use xlink:href="#DejaVuSerif-53" x="1280.566406"/>
     <use xlink:href="#DejaVuSerif-61" x="1349.072266"/>
     <use xlink:href="#DejaVuSerif-6d" x="1408.691406"/>
     <use xlink:href="#DejaVuSerif-70" x="1503.515625"/>
     <use xlink:href="#DejaVuSerif-6c" x="1567.529297"/>
     <use xlink:href="#DejaVuSerif-65" x="1599.511719"/>
     <use xlink:href="#DejaVuSerif-20" x="1658.691406"/>
     <use xlink:href="#DejaVuSerif-4d" x="1690.478516"/>
     <use xlink:href="#DejaVuSerif-65" x="1792.871094"/>
     <use xlink:href="#DejaVuSerif-61" x="1852.050781"/>
     <use xlink:href="#DejaVuSerif-6e" x="1911.669922"/>
    </g>
   </g>
  </g>
 </g>
 <defs>
  <clipPath id="pd6c2a56ac0">
   <rect x="55.480098" y="25.44" width="255.703557" height="210.28"/>
  </clipPath>
 </defs>
</svg>
