<?xml version="1.0" encoding="utf-8" standalone="no"?>
<!DOCTYPE svg PUBLIC "-//W3C//DTD SVG 1.1//EN"
  "http://www.w3.org/Graphics/SVG/1.1/DTD/svg11.dtd">
<svg xmlns:xlink="http://www.w3.org/1999/xlink" width="360pt" height="288pt" viewBox="0 0 360 288" xmlns="http://www.w3.org/2000/svg" version="1.1">
 <metadata>
  <rdf:RDF xmlns:dc="http://purl.org/dc/elements/1.1/" xmlns:cc="http://creativecommons.org/ns#" xmlns:rdf="http://www.w3.org/1999/02/22-rdf-syntax-ns#">
   <cc:Work>
    <dc:type rdf:resource="http://purl.org/dc/dcmitype/StillImage"/>
    <dc:date>2024-10-06T20:53:33.487523</dc:date>
    <dc:format>image/svg+xml</dc:format>
    <dc:creator>
     <cc:Agent>
      <dc:title>Matplotlib v3.9.2, https://matplotlib.org/</dc:title>
     </cc:Agent>
    </dc:creator>
   </cc:Work>
  </rdf:RDF>
 </metadata>
 <defs>
  <style type="text/css">*{stroke-linejoin: round; stroke-linecap: butt}</style>
 </defs>
 <g id="figure_1">
  <g id="patch_1">
   <path d="M 0 288 
L 360 288 
L 360 0 
L 0 0 
L 0 288 
z
" style="fill: none"/>
  </g>
  <g id="axes_1">
   <g id="patch_2">
    <path d="M 61.705127 235.96 
L 349.2 235.96 
L 349.2 25.44 
L 61.705127 25.44 
L 61.705127 235.96 
z
" style="fill: none"/>
   </g>
   <g id="PolyCollection_1">
    <path d="M 74.773076 224.264811 
L 74.773076 226.390909 
L 75.296841 226.390909 
L 75.820607 226.390909 
L 76.344372 226.390909 
L 76.868138 226.390909 
L 77.391903 226.390909 
L 77.915669 226.390909 
L 78.439434 226.390909 
L 78.9632 226.390909 
L 79.486965 226.390909 
L 80.010731 226.390909 
L 80.534496 226.390909 
L 81.058262 226.390909 
L 81.582027 226.390909 
L 82.105792 226.390909 
L 82.629558 226.390909 
L 83.153323 226.390909 
L 83.677089 226.390909 
L 84.200854 226.390909 
L 84.72462 226.390909 
L 85.248385 226.390909 
L 85.772151 226.390909 
L 86.295916 226.390909 
L 86.819682 226.390909 
L 87.343447 226.390909 
L 87.867213 226.390909 
L 88.390978 226.390909 
L 88.914744 226.390909 
L 89.438509 226.390909 
L 89.962275 226.390909 
L 90.48604 226.390909 
L 91.009806 226.390909 
L 91.533571 226.390909 
L 92.057337 226.390909 
L 92.581102 226.390909 
L 93.104868 226.390909 
L 93.628633 226.390909 
L 94.152399 226.390909 
L 94.676164 226.390909 
L 95.19993 226.390909 
L 95.723695 226.390909 
L 96.24746 226.390909 
L 96.771226 226.390909 
L 97.294991 226.390909 
L 97.818757 226.390909 
L 98.342522 226.390909 
L 98.866288 226.390909 
L 99.390053 226.390909 
L 99.913819 226.390909 
L 100.437584 226.390909 
L 100.96135 226.390909 
L 101.485115 226.390909 
L 102.008881 226.390909 
L 102.532646 226.390909 
L 103.056412 226.390909 
L 103.580177 226.390909 
L 104.103943 226.390909 
L 104.627708 226.390909 
L 105.151474 226.390909 
L 105.675239 226.390909 
L 106.199005 226.390909 
L 106.72277 226.390909 
L 107.246536 226.390909 
L 107.770301 226.390909 
L 108.294067 226.390909 
L 108.817832 226.390909 
L 109.341598 226.390909 
L 109.865363 226.390909 
L 110.389129 226.390909 
L 110.912894 226.390909 
L 111.436659 226.390909 
L 111.960425 226.390909 
L 112.48419 226.390909 
L 113.007956 226.390909 
L 113.531721 226.390909 
L 114.055487 226.390909 
L 114.579252 226.390909 
L 114.579252 204.670963 
L 114.579252 204.670963 
L 114.055487 205.210546 
L 113.531721 205.73971 
L 113.007956 206.258564 
L 112.48419 206.76722 
L 111.960425 207.26579 
L 111.436659 207.754387 
L 110.912894 208.233127 
L 110.389129 208.702127 
L 109.865363 209.161504 
L 109.341598 209.611378 
L 108.817832 210.051867 
L 108.294067 210.483093 
L 107.770301 210.905176 
L 107.246536 211.31824 
L 106.72277 211.722407 
L 106.199005 212.1178 
L 105.675239 212.504543 
L 105.151474 212.88276 
L 104.627708 213.252575 
L 104.103943 213.614113 
L 103.580177 213.967498 
L 103.056412 214.312856 
L 102.532646 214.650311 
L 102.008881 214.979987 
L 101.485115 215.30201 
L 100.96135 215.616502 
L 100.437584 215.923589 
L 99.913819 216.223393 
L 99.390053 216.516038 
L 98.866288 216.801647 
L 98.342522 217.080341 
L 97.818757 217.352243 
L 97.294991 217.617472 
L 96.771226 217.87615 
L 96.24746 218.128395 
L 95.723695 218.374327 
L 95.19993 218.614063 
L 94.676164 218.847721 
L 94.152399 219.075416 
L 93.628633 219.297264 
L 93.104868 219.513378 
L 92.581102 219.723872 
L 92.057337 219.928858 
L 91.533571 220.128447 
L 91.009806 220.322749 
L 90.48604 220.511873 
L 89.962275 220.695925 
L 89.438509 220.875013 
L 88.914744 221.049242 
L 88.390978 221.218715 
L 87.867213 221.383535 
L 87.343447 221.543804 
L 86.819682 221.699622 
L 86.295916 221.851087 
L 85.772151 221.998296 
L 85.248385 222.141347 
L 84.72462 222.280334 
L 84.200854 222.415349 
L 83.677089 222.546486 
L 83.153323 222.673835 
L 82.629558 222.797484 
L 82.105792 222.917523 
L 81.582027 223.034037 
L 81.058262 223.147112 
L 80.534496 223.256831 
L 80.010731 223.363276 
L 79.486965 223.466529 
L 78.9632 223.566669 
L 78.439434 223.663775 
L 77.915669 223.757922 
L 77.391903 223.849186 
L 76.868138 223.937642 
L 76.344372 224.023362 
L 75.820607 224.106417 
L 75.296841 224.186877 
L 74.773076 224.264811 
z
" clip-path="url(#p1e1b00fbcc)" style="fill: #ffa500; fill-opacity: 0.5; stroke: #ffa500; stroke-opacity: 0.5"/>
    <path d="M 296.325875 204.670963 
L 296.325875 226.390909 
L 296.84964 226.390909 
L 297.373406 226.390909 
L 297.897171 226.390909 
L 298.420937 226.390909 
L 298.944702 226.390909 
L 299.468467 226.390909 
L 299.992233 226.390909 
L 300.515998 226.390909 
L 301.039764 226.390909 
L 301.563529 226.390909 
L 302.087295 226.390909 
L 302.61106 226.390909 
L 303.134826 226.390909 
L 303.658591 226.390909 
L 304.182357 226.390909 
L 304.706122 226.390909 
L 305.229888 226.390909 
L 305.753653 226.390909 
L 306.277419 226.390909 
L 306.801184 226.390909 
L 307.32495 226.390909 
L 307.848715 226.390909 
L 308.372481 226.390909 
L 308.896246 226.390909 
L 309.420012 226.390909 
L 309.943777 226.390909 
L 310.467543 226.390909 
L 310.991308 226.390909 
L 311.515074 226.390909 
L 312.038839 226.390909 
L 312.562605 226.390909 
L 313.08637 226.390909 
L 313.610136 226.390909 
L 314.133901 226.390909 
L 314.657666 226.390909 
L 315.181432 226.390909 
L 315.705197 226.390909 
L 316.228963 226.390909 
L 316.752728 226.390909 
L 317.276494 226.390909 
L 317.800259 226.390909 
L 318.324025 226.390909 
L 318.84779 226.390909 
L 319.371556 226.390909 
L 319.895321 226.390909 
L 320.419087 226.390909 
L 320.942852 226.390909 
L 321.466618 226.390909 
L 321.990383 226.390909 
L 322.514149 226.390909 
L 323.037914 226.390909 
L 323.56168 226.390909 
L 324.085445 226.390909 
L 324.609211 226.390909 
L 325.132976 226.390909 
L 325.656742 226.390909 
L 326.180507 226.390909 
L 326.704273 226.390909 
L 327.228038 226.390909 
L 327.751804 226.390909 
L 328.275569 226.390909 
L 328.799334 226.390909 
L 329.3231 226.390909 
L 329.846865 226.390909 
L 330.370631 226.390909 
L 330.894396 226.390909 
L 331.418162 226.390909 
L 331.941927 226.390909 
L 332.465693 226.390909 
L 332.989458 226.390909 
L 333.513224 226.390909 
L 334.036989 226.390909 
L 334.560755 226.390909 
L 335.08452 226.390909 
L 335.608286 226.390909 
L 336.132051 226.390909 
L 336.132051 224.264811 
L 336.132051 224.264811 
L 335.608286 224.186877 
L 335.08452 224.106417 
L 334.560755 224.023362 
L 334.036989 223.937642 
L 333.513224 223.849186 
L 332.989458 223.757922 
L 332.465693 223.663775 
L 331.941927 223.566669 
L 331.418162 223.466529 
L 330.894396 223.363276 
L 330.370631 223.256831 
L 329.846865 223.147112 
L 329.3231 223.034037 
L 328.799334 222.917523 
L 328.275569 222.797484 
L 327.751804 222.673835 
L 327.228038 222.546486 
L 326.704273 222.415349 
L 326.180507 222.280334 
L 325.656742 222.141347 
L 325.132976 221.998296 
L 324.609211 221.851087 
L 324.085445 221.699622 
L 323.56168 221.543804 
L 323.037914 221.383535 
L 322.514149 221.218715 
L 321.990383 221.049242 
L 321.466618 220.875013 
L 320.942852 220.695925 
L 320.419087 220.511873 
L 319.895321 220.322749 
L 319.371556 220.128447 
L 318.84779 219.928858 
L 318.324025 219.723872 
L 317.800259 219.513378 
L 317.276494 219.297264 
L 316.752728 219.075416 
L 316.228963 218.847721 
L 315.705197 218.614063 
L 315.181432 218.374327 
L 314.657666 218.128395 
L 314.133901 217.87615 
L 313.610136 217.617472 
L 313.08637 217.352243 
L 312.562605 217.080341 
L 312.038839 216.801647 
L 311.515074 216.516038 
L 310.991308 216.223393 
L 310.467543 215.923589 
L 309.943777 215.616502 
L 309.420012 215.30201 
L 308.896246 214.979987 
L 308.372481 214.650311 
L 307.848715 214.312856 
L 307.32495 213.967498 
L 306.801184 213.614113 
L 306.277419 213.252575 
L 305.753653 212.88276 
L 305.229888 212.504543 
L 304.706122 212.1178 
L 304.182357 211.722407 
L 303.658591 211.31824 
L 303.134826 210.905176 
L 302.61106 210.483093 
L 302.087295 210.051867 
L 301.563529 209.611378 
L 301.039764 209.161504 
L 300.515998 208.702127 
L 299.992233 208.233127 
L 299.468467 207.754387 
L 298.944702 207.26579 
L 298.420937 206.76722 
L 297.897171 206.258564 
L 297.373406 205.73971 
L 296.84964 205.210546 
L 296.325875 204.670963 
z
" clip-path="url(#p1e1b00fbcc)" style="fill: #ffa500; fill-opacity: 0.5; stroke: #ffa500; stroke-opacity: 0.5"/>
   </g>
   <g id="matplotlib.axis_1">
    <g id="xtick_1">
     <g id="line2d_1">
      <defs>
       <path id="m4c11fa33cb" d="M 0 0 
L 0 3.5 
" style="stroke: #030303; stroke-width: 0.8"/>
      </defs>
      <g>
       <use xlink:href="#m4c11fa33cb" x="74.773076" y="235.96" style="fill: #030303; stroke: #030303; stroke-width: 0.8"/>
      </g>
     </g>
     <g id="text_1">
      <!-- $\mathdefault{−3}$ -->
      <g style="fill: #030303" transform="translate(65.153076 252.837969) scale(0.13 -0.13)">
       <defs>
        <path id="DejaVuSerif-2212" d="M 678 2259 
L 4684 2259 
L 4684 1753 
L 678 1753 
L 678 2259 
z
" transform="scale(0.015625)"/>
        <path id="DejaVuSerif-33" d="M 622 4469 
Q 988 4606 1323 4678 
Q 1659 4750 1953 4750 
Q 2638 4750 3022 4454 
Q 3406 4159 3406 3634 
Q 3406 3213 3140 2930 
Q 2875 2647 2388 2547 
Q 2963 2466 3280 2130 
Q 3597 1794 3597 1259 
Q 3597 606 3158 257 
Q 2719 -91 1894 -91 
Q 1528 -91 1179 -12 
Q 831 66 488 225 
L 488 1131 
L 838 1131 
Q 869 681 1141 450 
Q 1413 219 1906 219 
Q 2384 219 2661 495 
Q 2938 772 2938 1253 
Q 2938 1803 2653 2086 
Q 2369 2369 1819 2369 
L 1522 2369 
L 1522 2688 
L 1678 2688 
Q 2225 2688 2498 2914 
Q 2772 3141 2772 3597 
Q 2772 4006 2547 4223 
Q 2322 4441 1900 4441 
Q 1478 4441 1245 4241 
Q 1013 4041 972 3647 
L 622 3647 
L 622 4469 
z
" transform="scale(0.015625)"/>
       </defs>
       <use xlink:href="#DejaVuSerif-2212" transform="translate(0 0.78125)"/>
       <use xlink:href="#DejaVuSerif-33" transform="translate(83.789062 0.78125)"/>
      </g>
     </g>
    </g>
    <g id="xtick_2">
     <g id="line2d_2">
      <g>
       <use xlink:href="#m4c11fa33cb" x="118.332905" y="235.96" style="fill: #030303; stroke: #030303; stroke-width: 0.8"/>
      </g>
     </g>
     <g id="text_2">
      <!-- $\mathdefault{−2}$ -->
      <g style="fill: #030303" transform="translate(108.712905 252.837969) scale(0.13 -0.13)">
       <defs>
        <path id="DejaVuSerif-32" d="M 819 3553 
L 469 3553 
L 469 4384 
Q 803 4563 1142 4656 
Q 1481 4750 1806 4750 
Q 2534 4750 2956 4397 
Q 3378 4044 3378 3438 
Q 3378 2753 2422 1800 
Q 2347 1728 2309 1691 
L 1131 513 
L 3078 513 
L 3078 1088 
L 3444 1088 
L 3444 0 
L 434 0 
L 434 341 
L 1850 1753 
Q 2319 2222 2519 2614 
Q 2719 3006 2719 3438 
Q 2719 3909 2473 4175 
Q 2228 4441 1797 4441 
Q 1350 4441 1106 4219 
Q 863 3997 819 3553 
z
" transform="scale(0.015625)"/>
       </defs>
       <use xlink:href="#DejaVuSerif-2212" transform="translate(0 0.78125)"/>
       <use xlink:href="#DejaVuSerif-32" transform="translate(83.789062 0.78125)"/>
      </g>
     </g>
    </g>
    <g id="xtick_3">
     <g id="line2d_3">
      <g>
       <use xlink:href="#m4c11fa33cb" x="161.892734" y="235.96" style="fill: #030303; stroke: #030303; stroke-width: 0.8"/>
      </g>
     </g>
     <g id="text_3">
      <!-- $\mathdefault{−1}$ -->
      <g style="fill: #030303" transform="translate(152.272734 252.837969) scale(0.13 -0.13)">
       <defs>
        <path id="DejaVuSerif-31" d="M 909 0 
L 909 331 
L 1722 331 
L 1722 4213 
L 781 3603 
L 781 4013 
L 1919 4750 
L 2350 4750 
L 2350 331 
L 3163 331 
L 3163 0 
L 909 0 
z
" transform="scale(0.015625)"/>
       </defs>
       <use xlink:href="#DejaVuSerif-2212" transform="translate(0 0.78125)"/>
       <use xlink:href="#DejaVuSerif-31" transform="translate(83.789062 0.78125)"/>
      </g>
     </g>
    </g>
    <g id="xtick_4">
     <g id="line2d_4">
      <g>
       <use xlink:href="#m4c11fa33cb" x="205.452563" y="235.96" style="fill: #030303; stroke: #030303; stroke-width: 0.8"/>
      </g>
     </g>
     <g id="text_4">
      <!-- $\mathdefault{0}$ -->
      <g style="fill: #030303" transform="translate(201.292563 252.837969) scale(0.13 -0.13)">
       <defs>
        <path id="DejaVuSerif-30" d="M 2034 219 
Q 2513 219 2750 744 
Q 2988 1269 2988 2328 
Q 2988 3391 2750 3916 
Q 2513 4441 2034 4441 
Q 1556 4441 1318 3916 
Q 1081 3391 1081 2328 
Q 1081 1269 1318 744 
Q 1556 219 2034 219 
z
M 2034 -91 
Q 1275 -91 848 546 
Q 422 1184 422 2328 
Q 422 3475 848 4112 
Q 1275 4750 2034 4750 
Q 2797 4750 3222 4112 
Q 3647 3475 3647 2328 
Q 3647 1184 3222 546 
Q 2797 -91 2034 -91 
z
" transform="scale(0.015625)"/>
       </defs>
       <use xlink:href="#DejaVuSerif-30" transform="translate(0 0.78125)"/>
      </g>
     </g>
    </g>
    <g id="xtick_5">
     <g id="line2d_5">
      <g>
       <use xlink:href="#m4c11fa33cb" x="249.012393" y="235.96" style="fill: #030303; stroke: #030303; stroke-width: 0.8"/>
      </g>
     </g>
     <g id="text_5">
      <!-- $\mathdefault{1}$ -->
      <g style="fill: #030303" transform="translate(244.852393 252.837969) scale(0.13 -0.13)">
       <use xlink:href="#DejaVuSerif-31" transform="translate(0 0.78125)"/>
      </g>
     </g>
    </g>
    <g id="xtick_6">
     <g id="line2d_6">
      <g>
       <use xlink:href="#m4c11fa33cb" x="292.572222" y="235.96" style="fill: #030303; stroke: #030303; stroke-width: 0.8"/>
      </g>
     </g>
     <g id="text_6">
      <!-- $\mathdefault{2}$ -->
      <g style="fill: #030303" transform="translate(288.412222 252.837969) scale(0.13 -0.13)">
       <use xlink:href="#DejaVuSerif-32" transform="translate(0 0.78125)"/>
      </g>
     </g>
    </g>
    <g id="xtick_7">
     <g id="line2d_7">
      <g>
       <use xlink:href="#m4c11fa33cb" x="336.132051" y="235.96" style="fill: #030303; stroke: #030303; stroke-width: 0.8"/>
      </g>
     </g>
     <g id="text_7">
      <!-- $\mathdefault{3}$ -->
      <g style="fill: #030303" transform="translate(331.972051 252.837969) scale(0.13 -0.13)">
       <use xlink:href="#DejaVuSerif-33" transform="translate(0 0.78125)"/>
      </g>
     </g>
    </g>
    <g id="text_8">
     <!-- Z-statistic -->
     <g transform="translate(159.906938 273.21875) scale(0.18 -0.18)">
      <defs>
       <path id="DejaVuSerif-5a" d="M 288 0 
L 288 225 
L 3194 4281 
L 781 4281 
L 781 3584 
L 397 3584 
L 397 4666 
L 4084 4666 
L 4084 4441 
L 1178 384 
L 3816 384 
L 3816 1038 
L 4197 1038 
L 4197 0 
L 288 0 
z
" transform="scale(0.015625)"/>
       <path id="DejaVuSerif-2d" d="M 281 1959 
L 1881 1959 
L 1881 1472 
L 281 1472 
L 281 1959 
z
" transform="scale(0.015625)"/>
       <path id="DejaVuSerif-73" d="M 359 184 
L 359 959 
L 691 959 
Q 703 588 923 403 
Q 1144 219 1575 219 
Q 1963 219 2166 364 
Q 2369 509 2369 788 
Q 2369 1006 2220 1140 
Q 2072 1275 1594 1428 
L 1178 1569 
Q 750 1706 558 1912 
Q 366 2119 366 2438 
Q 366 2894 700 3153 
Q 1034 3413 1625 3413 
Q 1888 3413 2178 3344 
Q 2469 3275 2778 3144 
L 2778 2419 
L 2447 2419 
Q 2434 2741 2221 2922 
Q 2009 3103 1644 3103 
Q 1281 3103 1095 2975 
Q 909 2847 909 2591 
Q 909 2381 1050 2254 
Q 1191 2128 1613 1997 
L 2069 1856 
Q 2541 1709 2748 1489 
Q 2956 1269 2956 922 
Q 2956 450 2595 179 
Q 2234 -91 1600 -91 
Q 1278 -91 972 -22 
Q 666 47 359 184 
z
" transform="scale(0.015625)"/>
       <path id="DejaVuSerif-74" d="M 691 2988 
L 184 2988 
L 184 3322 
L 691 3322 
L 691 4353 
L 1269 4353 
L 1269 3322 
L 2350 3322 
L 2350 2988 
L 1269 2988 
L 1269 878 
Q 1269 456 1350 337 
Q 1431 219 1650 219 
Q 1875 219 1978 351 
Q 2081 484 2088 781 
L 2522 781 
Q 2497 328 2275 118 
Q 2053 -91 1600 -91 
Q 1103 -91 897 129 
Q 691 350 691 878 
L 691 2988 
z
" transform="scale(0.015625)"/>
       <path id="DejaVuSerif-61" d="M 2547 1044 
L 2547 1747 
L 1806 1747 
Q 1378 1747 1168 1562 
Q 959 1378 959 997 
Q 959 650 1171 447 
Q 1384 244 1747 244 
Q 2106 244 2326 466 
Q 2547 688 2547 1044 
z
M 3122 2075 
L 3122 331 
L 3634 331 
L 3634 0 
L 2547 0 
L 2547 359 
Q 2356 128 2106 18 
Q 1856 -91 1522 -91 
Q 969 -91 644 203 
Q 319 497 319 997 
Q 319 1513 691 1797 
Q 1063 2081 1741 2081 
L 2547 2081 
L 2547 2309 
Q 2547 2688 2317 2895 
Q 2088 3103 1672 3103 
Q 1328 3103 1125 2947 
Q 922 2791 872 2484 
L 575 2484 
L 575 3156 
Q 875 3284 1158 3348 
Q 1441 3413 1709 3413 
Q 2400 3413 2761 3070 
Q 3122 2728 3122 2075 
z
" transform="scale(0.015625)"/>
       <path id="DejaVuSerif-69" d="M 622 4353 
Q 622 4497 726 4603 
Q 831 4709 978 4709 
Q 1122 4709 1226 4603 
Q 1331 4497 1331 4353 
Q 1331 4206 1228 4103 
Q 1125 4000 978 4000 
Q 831 4000 726 4103 
Q 622 4206 622 4353 
z
M 1356 331 
L 1900 331 
L 1900 0 
L 231 0 
L 231 331 
L 781 331 
L 781 2988 
L 231 2988 
L 231 3322 
L 1356 3322 
L 1356 331 
z
" transform="scale(0.015625)"/>
       <path id="DejaVuSerif-63" d="M 3291 997 
Q 3169 466 2822 187 
Q 2475 -91 1925 -91 
Q 1200 -91 759 389 
Q 319 869 319 1663 
Q 319 2459 759 2936 
Q 1200 3413 1925 3413 
Q 2241 3413 2553 3339 
Q 2866 3266 3181 3116 
L 3181 2266 
L 2847 2266 
Q 2781 2703 2561 2903 
Q 2341 3103 1931 3103 
Q 1466 3103 1228 2742 
Q 991 2381 991 1663 
Q 991 944 1227 581 
Q 1463 219 1931 219 
Q 2303 219 2525 412 
Q 2747 606 2828 997 
L 3291 997 
z
" transform="scale(0.015625)"/>
      </defs>
      <use xlink:href="#DejaVuSerif-5a"/>
      <use xlink:href="#DejaVuSerif-2d" x="69.482422"/>
      <use xlink:href="#DejaVuSerif-73" x="103.271484"/>
      <use xlink:href="#DejaVuSerif-74" x="154.589844"/>
      <use xlink:href="#DejaVuSerif-61" x="194.775391"/>
      <use xlink:href="#DejaVuSerif-74" x="254.394531"/>
      <use xlink:href="#DejaVuSerif-69" x="294.580078"/>
      <use xlink:href="#DejaVuSerif-73" x="326.5625"/>
      <use xlink:href="#DejaVuSerif-74" x="377.880859"/>
      <use xlink:href="#DejaVuSerif-69" x="418.066406"/>
      <use xlink:href="#DejaVuSerif-63" x="450.048828"/>
     </g>
    </g>
   </g>
   <g id="matplotlib.axis_2">
    <g id="ytick_1">
     <g id="line2d_8">
      <defs>
       <path id="med0a537c02" d="M 0 0 
L -3.5 0 
" style="stroke: #030303; stroke-width: 0.8"/>
      </defs>
      <g>
       <use xlink:href="#med0a537c02" x="61.705127" y="226.390909" style="fill: #030303; stroke: #030303; stroke-width: 0.8"/>
      </g>
     </g>
     <g id="text_9">
      <!-- $\mathdefault{0.00}$ -->
      <g style="fill: #030303" transform="translate(32.405127 230.190128) scale(0.1 -0.1)">
       <defs>
        <path id="DejaVuSerif-2e" d="M 603 325 
Q 603 500 722 622 
Q 841 744 1019 744 
Q 1191 744 1312 622 
Q 1434 500 1434 325 
Q 1434 153 1312 31 
Q 1191 -91 1019 -91 
Q 841 -91 722 29 
Q 603 150 603 325 
z
" transform="scale(0.015625)"/>
       </defs>
       <use xlink:href="#DejaVuSerif-30" transform="translate(0 0.78125)"/>
       <use xlink:href="#DejaVuSerif-2e" transform="translate(63.623047 0.78125)"/>
       <use xlink:href="#DejaVuSerif-30" transform="translate(95.410156 0.78125)"/>
       <use xlink:href="#DejaVuSerif-30" transform="translate(159.033203 0.78125)"/>
      </g>
     </g>
    </g>
    <g id="ytick_2">
     <g id="line2d_9">
      <g>
       <use xlink:href="#med0a537c02" x="61.705127" y="202.404322" style="fill: #030303; stroke: #030303; stroke-width: 0.8"/>
      </g>
     </g>
     <g id="text_10">
      <!-- $\mathdefault{0.05}$ -->
      <g style="fill: #030303" transform="translate(32.405127 206.203541) scale(0.1 -0.1)">
       <defs>
        <path id="DejaVuSerif-35" d="M 3219 4666 
L 3219 4153 
L 1081 4153 
L 1081 2816 
Q 1244 2928 1461 2984 
Q 1678 3041 1947 3041 
Q 2703 3041 3140 2622 
Q 3578 2203 3578 1478 
Q 3578 738 3136 323 
Q 2694 -91 1894 -91 
Q 1572 -91 1234 -12 
Q 897 66 544 225 
L 544 1131 
L 897 1131 
Q 925 688 1179 453 
Q 1434 219 1894 219 
Q 2388 219 2653 544 
Q 2919 869 2919 1478 
Q 2919 2084 2655 2407 
Q 2391 2731 1894 2731 
Q 1613 2731 1398 2631 
Q 1184 2531 1019 2322 
L 750 2322 
L 750 4666 
L 3219 4666 
z
" transform="scale(0.015625)"/>
       </defs>
       <use xlink:href="#DejaVuSerif-30" transform="translate(0 0.78125)"/>
       <use xlink:href="#DejaVuSerif-2e" transform="translate(63.623047 0.78125)"/>
       <use xlink:href="#DejaVuSerif-30" transform="translate(95.410156 0.78125)"/>
       <use xlink:href="#DejaVuSerif-35" transform="translate(159.033203 0.78125)"/>
      </g>
     </g>
    </g>
    <g id="ytick_3">
     <g id="line2d_10">
      <g>
       <use xlink:href="#med0a537c02" x="61.705127" y="178.417734" style="fill: #030303; stroke: #030303; stroke-width: 0.8"/>
      </g>
     </g>
     <g id="text_11">
      <!-- $\mathdefault{0.10}$ -->
      <g style="fill: #030303" transform="translate(32.405127 182.216953) scale(0.1 -0.1)">
       <use xlink:href="#DejaVuSerif-30" transform="translate(0 0.78125)"/>
       <use xlink:href="#DejaVuSerif-2e" transform="translate(63.623047 0.78125)"/>
       <use xlink:href="#DejaVuSerif-31" transform="translate(95.410156 0.78125)"/>
       <use xlink:href="#DejaVuSerif-30" transform="translate(159.033203 0.78125)"/>
      </g>
     </g>
    </g>
    <g id="ytick_4">
     <g id="line2d_11">
      <g>
       <use xlink:href="#med0a537c02" x="61.705127" y="154.431147" style="fill: #030303; stroke: #030303; stroke-width: 0.8"/>
      </g>
     </g>
     <g id="text_12">
      <!-- $\mathdefault{0.15}$ -->
      <g style="fill: #030303" transform="translate(32.405127 158.230366) scale(0.1 -0.1)">
       <use xlink:href="#DejaVuSerif-30" transform="translate(0 0.78125)"/>
       <use xlink:href="#DejaVuSerif-2e" transform="translate(63.623047 0.78125)"/>
       <use xlink:href="#DejaVuSerif-31" transform="translate(95.410156 0.78125)"/>
       <use xlink:href="#DejaVuSerif-35" transform="translate(159.033203 0.78125)"/>
      </g>
     </g>
    </g>
    <g id="ytick_5">
     <g id="line2d_12">
      <g>
       <use xlink:href="#med0a537c02" x="61.705127" y="130.44456" style="fill: #030303; stroke: #030303; stroke-width: 0.8"/>
      </g>
     </g>
     <g id="text_13">
      <!-- $\mathdefault{0.20}$ -->
      <g style="fill: #030303" transform="translate(32.605127 134.243779) scale(0.1 -0.1)">
       <use xlink:href="#DejaVuSerif-30" transform="translate(0 0.78125)"/>
       <use xlink:href="#DejaVuSerif-2e" transform="translate(63.623047 0.78125)"/>
       <use xlink:href="#DejaVuSerif-32" transform="translate(92.785156 0.78125)"/>
       <use xlink:href="#DejaVuSerif-30" transform="translate(156.408203 0.78125)"/>
      </g>
     </g>
    </g>
    <g id="ytick_6">
     <g id="line2d_13">
      <g>
       <use xlink:href="#med0a537c02" x="61.705127" y="106.457972" style="fill: #030303; stroke: #030303; stroke-width: 0.8"/>
      </g>
     </g>
     <g id="text_14">
      <!-- $\mathdefault{0.25}$ -->
      <g style="fill: #030303" transform="translate(32.605127 110.257191) scale(0.1 -0.1)">
       <use xlink:href="#DejaVuSerif-30" transform="translate(0 0.78125)"/>
       <use xlink:href="#DejaVuSerif-2e" transform="translate(63.623047 0.78125)"/>
       <use xlink:href="#DejaVuSerif-32" transform="translate(92.785156 0.78125)"/>
       <use xlink:href="#DejaVuSerif-35" transform="translate(156.408203 0.78125)"/>
      </g>
     </g>
    </g>
    <g id="ytick_7">
     <g id="line2d_14">
      <g>
       <use xlink:href="#med0a537c02" x="61.705127" y="82.471385" style="fill: #030303; stroke: #030303; stroke-width: 0.8"/>
      </g>
     </g>
     <g id="text_15">
      <!-- $\mathdefault{0.30}$ -->
      <g style="fill: #030303" transform="translate(32.405127 86.270604) scale(0.1 -0.1)">
       <use xlink:href="#DejaVuSerif-30" transform="translate(0 0.78125)"/>
       <use xlink:href="#DejaVuSerif-2e" transform="translate(63.623047 0.78125)"/>
       <use xlink:href="#DejaVuSerif-33" transform="translate(95.410156 0.78125)"/>
       <use xlink:href="#DejaVuSerif-30" transform="translate(159.033203 0.78125)"/>
      </g>
     </g>
    </g>
    <g id="ytick_8">
     <g id="line2d_15">
      <g>
       <use xlink:href="#med0a537c02" x="61.705127" y="58.484798" style="fill: #030303; stroke: #030303; stroke-width: 0.8"/>
      </g>
     </g>
     <g id="text_16">
      <!-- $\mathdefault{0.35}$ -->
      <g style="fill: #030303" transform="translate(32.405127 62.284017) scale(0.1 -0.1)">
       <use xlink:href="#DejaVuSerif-30" transform="translate(0 0.78125)"/>
       <use xlink:href="#DejaVuSerif-2e" transform="translate(63.623047 0.78125)"/>
       <use xlink:href="#DejaVuSerif-33" transform="translate(95.410156 0.78125)"/>
       <use xlink:href="#DejaVuSerif-35" transform="translate(159.033203 0.78125)"/>
      </g>
     </g>
    </g>
    <g id="ytick_9">
     <g id="line2d_16">
      <g>
       <use xlink:href="#med0a537c02" x="61.705127" y="34.498211" style="fill: #030303; stroke: #030303; stroke-width: 0.8"/>
      </g>
     </g>
     <g id="text_17">
      <!-- $\mathdefault{0.40}$ -->
      <g style="fill: #030303" transform="translate(32.405127 38.297429) scale(0.1 -0.1)">
       <defs>
        <path id="DejaVuSerif-34" d="M 2234 1581 
L 2234 4063 
L 641 1581 
L 2234 1581 
z
M 3609 0 
L 1484 0 
L 1484 331 
L 2234 331 
L 2234 1247 
L 197 1247 
L 197 1588 
L 2241 4750 
L 2859 4750 
L 2859 1581 
L 3750 1581 
L 3750 1247 
L 2859 1247 
L 2859 331 
L 3609 331 
L 3609 0 
z
" transform="scale(0.015625)"/>
       </defs>
       <use xlink:href="#DejaVuSerif-30" transform="translate(0 0.78125)"/>
       <use xlink:href="#DejaVuSerif-2e" transform="translate(63.623047 0.78125)"/>
       <use xlink:href="#DejaVuSerif-34" transform="translate(95.410156 0.78125)"/>
       <use xlink:href="#DejaVuSerif-30" transform="translate(159.033203 0.78125)"/>
      </g>
     </g>
    </g>
    <g id="text_18">
     <!-- Density -->
     <g transform="translate(24.405752 165.2375) rotate(-90) scale(0.18 -0.18)">
      <defs>
       <path id="DejaVuSerif-44" d="M 1581 331 
L 2163 331 
Q 3072 331 3558 850 
Q 4044 1369 4044 2338 
Q 4044 3306 3559 3818 
Q 3075 4331 2163 4331 
L 1581 4331 
L 1581 331 
z
M 353 0 
L 353 331 
L 947 331 
L 947 4331 
L 353 4331 
L 353 4666 
L 2209 4666 
Q 3416 4666 4089 4050 
Q 4763 3434 4763 2338 
Q 4763 1238 4088 619 
Q 3413 0 2209 0 
L 353 0 
z
" transform="scale(0.015625)"/>
       <path id="DejaVuSerif-65" d="M 3469 1600 
L 991 1600 
L 991 1575 
Q 991 903 1244 561 
Q 1497 219 1991 219 
Q 2369 219 2611 417 
Q 2853 616 2950 1006 
L 3413 1006 
Q 3275 459 2904 184 
Q 2534 -91 1931 -91 
Q 1203 -91 761 389 
Q 319 869 319 1663 
Q 319 2450 753 2931 
Q 1188 3413 1894 3413 
Q 2647 3413 3050 2948 
Q 3453 2484 3469 1600 
z
M 2791 1931 
Q 2772 2513 2545 2808 
Q 2319 3103 1894 3103 
Q 1497 3103 1269 2806 
Q 1041 2509 991 1931 
L 2791 1931 
z
" transform="scale(0.015625)"/>
       <path id="DejaVuSerif-6e" d="M 263 0 
L 263 331 
L 781 331 
L 781 2988 
L 231 2988 
L 231 3322 
L 1356 3322 
L 1356 2731 
Q 1516 3069 1770 3241 
Q 2025 3413 2363 3413 
Q 2913 3413 3172 3097 
Q 3431 2781 3431 2113 
L 3431 331 
L 3944 331 
L 3944 0 
L 2356 0 
L 2356 331 
L 2853 331 
L 2853 1931 
Q 2853 2541 2703 2767 
Q 2553 2994 2175 2994 
Q 1775 2994 1565 2701 
Q 1356 2409 1356 1850 
L 1356 331 
L 1856 331 
L 1856 0 
L 263 0 
z
" transform="scale(0.015625)"/>
       <path id="DejaVuSerif-79" d="M 1381 -609 
L 1600 -56 
L 359 2988 
L -19 2988 
L -19 3322 
L 1509 3322 
L 1509 2988 
L 978 2988 
L 1913 703 
L 2847 2988 
L 2350 2988 
L 2350 3322 
L 3597 3322 
L 3597 2988 
L 3225 2988 
L 1703 -750 
Q 1547 -1138 1356 -1280 
Q 1166 -1422 819 -1422 
Q 672 -1422 517 -1397 
Q 363 -1372 206 -1325 
L 206 -691 
L 500 -691 
Q 519 -903 608 -995 
Q 697 -1088 884 -1088 
Q 1056 -1088 1161 -992 
Q 1266 -897 1381 -609 
z
" transform="scale(0.015625)"/>
      </defs>
      <use xlink:href="#DejaVuSerif-44"/>
      <use xlink:href="#DejaVuSerif-65" x="80.175781"/>
      <use xlink:href="#DejaVuSerif-6e" x="139.355469"/>
      <use xlink:href="#DejaVuSerif-73" x="203.759766"/>
      <use xlink:href="#DejaVuSerif-69" x="255.078125"/>
      <use xlink:href="#DejaVuSerif-74" x="287.060547"/>
      <use xlink:href="#DejaVuSerif-79" x="327.246094"/>
     </g>
    </g>
   </g>
   <g id="line2d_17">
    <path d="M 74.773076 224.264811 
L 79.486965 223.466529 
L 83.677089 222.546486 
L 87.867213 221.383535 
L 91.533571 220.128447 
L 95.19993 218.614063 
L 98.342522 217.080341 
L 101.485115 215.30201 
L 104.627708 213.252575 
L 107.770301 210.905176 
L 110.912894 208.233127 
L 114.055487 205.210546 
L 116.674314 202.406324 
L 119.816907 198.679492 
L 122.9595 194.539779 
L 126.102093 189.971698 
L 129.244686 184.964641 
L 132.387279 179.513816 
L 135.529872 173.621149 
L 138.672465 167.296125 
L 142.338823 159.394693 
L 146.005181 150.97296 
L 150.195305 140.790043 
L 155.43296 127.403168 
L 163.813208 105.195421 
L 170.622159 87.372118 
L 174.812283 76.95046 
L 178.478641 68.39638 
L 181.621234 61.607403 
L 184.240061 56.404797 
L 186.858889 51.670592 
L 189.477716 47.452469 
L 191.572778 44.478792 
L 193.66784 41.883003 
L 195.762902 39.682575 
L 197.334199 38.3008 
L 198.905495 37.155192 
L 200.476791 36.250179 
L 202.048088 35.58927 
L 203.619384 35.175036 
L 205.190681 35.009091 
L 206.761977 35.092082 
L 208.333274 35.423684 
L 209.90457 36.002607 
L 211.475867 36.826596 
L 213.047163 37.892453 
L 214.618459 39.196053 
L 216.189756 40.732373 
L 218.284818 43.132512 
L 220.37988 45.91958 
L 222.474942 49.074912 
L 225.093769 53.504923 
L 227.712596 58.432432 
L 230.331424 63.808209 
L 233.474017 70.776728 
L 237.140375 79.499554 
L 241.330499 90.059177 
L 247.615685 106.589119 
L 258.090994 134.173131 
L 262.804884 145.94967 
L 266.995008 155.845938 
L 270.661366 163.976694 
L 274.327724 171.560146 
L 277.470317 177.598382 
L 280.61291 183.197058 
L 283.755503 188.351819 
L 286.898096 193.065315 
L 290.040689 197.346318 
L 293.183282 201.208793 
L 296.325875 204.670963 
L 299.468467 207.754387 
L 302.61106 210.483093 
L 305.753653 212.88276 
L 308.896246 214.979987 
L 312.038839 216.801647 
L 315.181432 218.374327 
L 318.324025 219.723872 
L 321.990383 221.049242 
L 325.656742 222.141347 
L 329.846865 223.147112 
L 334.560755 224.023362 
L 336.132051 224.264811 
L 336.132051 224.264811 
" clip-path="url(#p1e1b00fbcc)" style="fill: none; stroke: #000080; stroke-width: 2; stroke-linecap: square"/>
   </g>
   <g id="line2d_18">
    <path d="M 114.700211 235.96 
L 114.700211 25.44 
" clip-path="url(#p1e1b00fbcc)" style="fill: none; stroke-dasharray: 5.55,2.4; stroke-dashoffset: 0; stroke: #ff0000; stroke-width: 1.5"/>
   </g>
   <g id="line2d_19">
    <path d="M 120.075298 235.96 
L 120.075298 25.44 
" clip-path="url(#p1e1b00fbcc)" style="fill: none; stroke-dasharray: 1.5,2.475; stroke-dashoffset: 0; stroke: #8b0000; stroke-width: 1.5"/>
   </g>
   <g id="line2d_20">
    <path d="M 290.829829 235.96 
L 290.829829 25.44 
" clip-path="url(#p1e1b00fbcc)" style="fill: none; stroke-dasharray: 1.5,2.475; stroke-dashoffset: 0; stroke: #8b0000; stroke-width: 1.5"/>
   </g>
   <g id="patch_3">
    <path d="M 61.705127 235.96 
L 61.705127 25.44 
" style="fill: none; stroke: #030303; stroke-width: 1.5; stroke-linejoin: miter; stroke-linecap: square"/>
   </g>
   <g id="patch_4">
    <path d="M 61.705127 235.96 
L 349.2 235.96 
" style="fill: none; stroke: #030303; stroke-width: 1.5; stroke-linejoin: miter; stroke-linecap: square"/>
   </g>
   <g id="patch_5">
    <path d="M 132.610618 197.64073 
Q 124.588977 200.732923 118.653754 203.020841 
" style="fill: none; stroke: #000000; stroke-width: 2; stroke-linecap: round"/>
    <path d="M 123.995751 203.533742 
L 118.653754 203.020841 
L 122.269273 199.054984 
" style="fill: none; stroke: #000000; stroke-width: 2; stroke-linecap: round"/>
   </g>
   <g id="text_19">
    <!-- $Z_{\text{obs}}$ -->
    <g style="fill: #ff0000" transform="translate(136.480126 194.950224) scale(0.12 -0.12)">
     <defs>
      <path id="DejaVuSans-Oblique-5a" d="M 838 4666 
L 4500 4666 
L 4409 4184 
L 794 531 
L 3769 531 
L 3669 0 
L -141 0 
L -50 481 
L 3566 4134 
L 738 4134 
L 838 4666 
z
" transform="scale(0.015625)"/>
      <path id="DejaVuSans-6f" d="M 1959 3097 
Q 1497 3097 1228 2736 
Q 959 2375 959 1747 
Q 959 1119 1226 758 
Q 1494 397 1959 397 
Q 2419 397 2687 759 
Q 2956 1122 2956 1747 
Q 2956 2369 2687 2733 
Q 2419 3097 1959 3097 
z
M 1959 3584 
Q 2709 3584 3137 3096 
Q 3566 2609 3566 1747 
Q 3566 888 3137 398 
Q 2709 -91 1959 -91 
Q 1206 -91 779 398 
Q 353 888 353 1747 
Q 353 2609 779 3096 
Q 1206 3584 1959 3584 
z
" transform="scale(0.015625)"/>
      <path id="DejaVuSans-62" d="M 3116 1747 
Q 3116 2381 2855 2742 
Q 2594 3103 2138 3103 
Q 1681 3103 1420 2742 
Q 1159 2381 1159 1747 
Q 1159 1113 1420 752 
Q 1681 391 2138 391 
Q 2594 391 2855 752 
Q 3116 1113 3116 1747 
z
M 1159 2969 
Q 1341 3281 1617 3432 
Q 1894 3584 2278 3584 
Q 2916 3584 3314 3078 
Q 3713 2572 3713 1747 
Q 3713 922 3314 415 
Q 2916 -91 2278 -91 
Q 1894 -91 1617 61 
Q 1341 213 1159 525 
L 1159 0 
L 581 0 
L 581 4863 
L 1159 4863 
L 1159 2969 
z
" transform="scale(0.015625)"/>
      <path id="DejaVuSans-73" d="M 2834 3397 
L 2834 2853 
Q 2591 2978 2328 3040 
Q 2066 3103 1784 3103 
Q 1356 3103 1142 2972 
Q 928 2841 928 2578 
Q 928 2378 1081 2264 
Q 1234 2150 1697 2047 
L 1894 2003 
Q 2506 1872 2764 1633 
Q 3022 1394 3022 966 
Q 3022 478 2636 193 
Q 2250 -91 1575 -91 
Q 1294 -91 989 -36 
Q 684 19 347 128 
L 347 722 
Q 666 556 975 473 
Q 1284 391 1588 391 
Q 1994 391 2212 530 
Q 2431 669 2431 922 
Q 2431 1156 2273 1281 
Q 2116 1406 1581 1522 
L 1381 1569 
Q 847 1681 609 1914 
Q 372 2147 372 2553 
Q 372 3047 722 3315 
Q 1072 3584 1716 3584 
Q 2034 3584 2315 3537 
Q 2597 3491 2834 3397 
z
" transform="scale(0.015625)"/>
     </defs>
     <use xlink:href="#DejaVuSans-Oblique-5a" transform="translate(0 0.09375)"/>
     <use xlink:href="#DejaVuSans-6f" transform="translate(68.505859 -16.3125) scale(0.7)"/>
     <use xlink:href="#DejaVuSans-62" transform="translate(111.333008 -16.3125) scale(0.7)"/>
     <use xlink:href="#DejaVuSans-73" transform="translate(155.766602 -16.3125) scale(0.7)"/>
    </g>
   </g>
   <g id="text_20">
    <!-- Null Distribution for Z-Test -->
    <g style="fill: #000080" transform="translate(123.002251 19.44) scale(0.12 -0.12)">
     <defs>
      <path id="DejaVuSerif-4e" d="M 313 0 
L 313 331 
L 941 331 
L 941 4331 
L 313 4331 
L 313 4666 
L 1509 4666 
L 4306 984 
L 4306 4331 
L 3681 4331 
L 3681 4666 
L 5319 4666 
L 5319 4331 
L 4691 4331 
L 4691 -91 
L 4313 -91 
L 1325 3841 
L 1325 331 
L 1953 331 
L 1953 0 
L 313 0 
z
" transform="scale(0.015625)"/>
      <path id="DejaVuSerif-75" d="M 2266 3322 
L 3341 3322 
L 3341 331 
L 3884 331 
L 3884 0 
L 2766 0 
L 2766 588 
Q 2606 256 2353 82 
Q 2100 -91 1766 -91 
Q 1213 -91 952 223 
Q 691 538 691 1209 
L 691 2988 
L 172 2988 
L 172 3322 
L 1269 3322 
L 1269 1388 
Q 1269 781 1417 556 
Q 1566 331 1947 331 
Q 2347 331 2556 625 
Q 2766 919 2766 1478 
L 2766 2988 
L 2266 2988 
L 2266 3322 
z
" transform="scale(0.015625)"/>
      <path id="DejaVuSerif-6c" d="M 1313 331 
L 1856 331 
L 1856 0 
L 184 0 
L 184 331 
L 738 331 
L 738 4531 
L 184 4531 
L 184 4863 
L 1313 4863 
L 1313 331 
z
" transform="scale(0.015625)"/>
      <path id="DejaVuSerif-20" transform="scale(0.015625)"/>
      <path id="DejaVuSerif-72" d="M 3059 3328 
L 3059 2497 
L 2728 2497 
Q 2713 2744 2591 2866 
Q 2469 2988 2234 2988 
Q 1809 2988 1582 2694 
Q 1356 2400 1356 1850 
L 1356 331 
L 2022 331 
L 2022 0 
L 263 0 
L 263 331 
L 781 331 
L 781 2994 
L 231 2994 
L 231 3322 
L 1356 3322 
L 1356 2731 
Q 1525 3078 1790 3245 
Q 2056 3413 2438 3413 
Q 2578 3413 2733 3391 
Q 2888 3369 3059 3328 
z
" transform="scale(0.015625)"/>
      <path id="DejaVuSerif-62" d="M 738 331 
L 738 4531 
L 184 4531 
L 184 4863 
L 1313 4863 
L 1313 2803 
Q 1481 3116 1742 3264 
Q 2003 3413 2388 3413 
Q 3000 3413 3387 2928 
Q 3775 2444 3775 1663 
Q 3775 881 3387 395 
Q 3000 -91 2388 -91 
Q 2003 -91 1742 57 
Q 1481 206 1313 519 
L 1313 0 
L 184 0 
L 184 331 
L 738 331 
z
M 1313 1497 
Q 1313 897 1542 583 
Q 1772 269 2209 269 
Q 2650 269 2876 622 
Q 3103 975 3103 1663 
Q 3103 2353 2876 2703 
Q 2650 3053 2209 3053 
Q 1772 3053 1542 2737 
Q 1313 2422 1313 1825 
L 1313 1497 
z
" transform="scale(0.015625)"/>
      <path id="DejaVuSerif-6f" d="M 1925 219 
Q 2388 219 2623 584 
Q 2859 950 2859 1663 
Q 2859 2375 2623 2739 
Q 2388 3103 1925 3103 
Q 1463 3103 1227 2739 
Q 991 2375 991 1663 
Q 991 950 1228 584 
Q 1466 219 1925 219 
z
M 1925 -91 
Q 1200 -91 759 389 
Q 319 869 319 1663 
Q 319 2456 758 2934 
Q 1197 3413 1925 3413 
Q 2653 3413 3092 2934 
Q 3531 2456 3531 1663 
Q 3531 869 3092 389 
Q 2653 -91 1925 -91 
z
" transform="scale(0.015625)"/>
      <path id="DejaVuSerif-66" d="M 2753 4078 
L 2450 4078 
Q 2447 4313 2317 4434 
Q 2188 4556 1941 4556 
Q 1619 4556 1487 4379 
Q 1356 4203 1356 3750 
L 1356 3322 
L 2284 3322 
L 2284 2988 
L 1356 2988 
L 1356 331 
L 2094 331 
L 2094 0 
L 231 0 
L 231 331 
L 781 331 
L 781 2988 
L 231 2988 
L 231 3322 
L 781 3322 
L 781 3738 
Q 781 4294 1070 4578 
Q 1359 4863 1919 4863 
Q 2128 4863 2337 4825 
Q 2547 4788 2753 4709 
L 2753 4078 
z
" transform="scale(0.015625)"/>
      <path id="DejaVuSerif-54" d="M 1222 0 
L 1222 331 
L 1819 331 
L 1819 4294 
L 447 4294 
L 447 3566 
L 63 3566 
L 63 4666 
L 4206 4666 
L 4206 3566 
L 3822 3566 
L 3822 4294 
L 2450 4294 
L 2450 331 
L 3047 331 
L 3047 0 
L 1222 0 
z
" transform="scale(0.015625)"/>
     </defs>
     <use xlink:href="#DejaVuSerif-4e"/>
     <use xlink:href="#DejaVuSerif-75" x="87.5"/>
     <use xlink:href="#DejaVuSerif-6c" x="151.904297"/>
     <use xlink:href="#DejaVuSerif-6c" x="183.886719"/>
     <use xlink:href="#DejaVuSerif-20" x="215.869141"/>
     <use xlink:href="#DejaVuSerif-44" x="247.65625"/>
     <use xlink:href="#DejaVuSerif-69" x="327.832031"/>
     <use xlink:href="#DejaVuSerif-73" x="359.814453"/>
     <use xlink:href="#DejaVuSerif-74" x="411.132812"/>
     <use xlink:href="#DejaVuSerif-72" x="451.318359"/>
     <use xlink:href="#DejaVuSerif-69" x="499.121094"/>
     <use xlink:href="#DejaVuSerif-62" x="531.103516"/>
     <use xlink:href="#DejaVuSerif-75" x="595.117188"/>
     <use xlink:href="#DejaVuSerif-74" x="659.521484"/>
     <use xlink:href="#DejaVuSerif-69" x="699.707031"/>
     <use xlink:href="#DejaVuSerif-6f" x="731.689453"/>
     <use xlink:href="#DejaVuSerif-6e" x="791.894531"/>
     <use xlink:href="#DejaVuSerif-20" x="856.298828"/>
     <use xlink:href="#DejaVuSerif-66" x="888.085938"/>
     <use xlink:href="#DejaVuSerif-6f" x="925.097656"/>
     <use xlink:href="#DejaVuSerif-72" x="985.302734"/>
     <use xlink:href="#DejaVuSerif-20" x="1033.105469"/>
     <use xlink:href="#DejaVuSerif-5a" x="1064.892578"/>
     <use xlink:href="#DejaVuSerif-2d" x="1134.375"/>
     <use xlink:href="#DejaVuSerif-54" x="1164.539062"/>
     <use xlink:href="#DejaVuSerif-65" x="1223.488281"/>
     <use xlink:href="#DejaVuSerif-73" x="1282.667969"/>
     <use xlink:href="#DejaVuSerif-74" x="1333.986328"/>
    </g>
   </g>
  </g>
 </g>
 <defs>
  <clipPath id="p1e1b00fbcc">
   <rect x="61.705127" y="25.44" width="287.494873" height="210.52"/>
  </clipPath>
 </defs>
</svg>
