<?xml version="1.0" encoding="utf-8" standalone="no"?>
<!DOCTYPE svg PUBLIC "-//W3C//DTD SVG 1.1//EN"
  "http://www.w3.org/Graphics/SVG/1.1/DTD/svg11.dtd">
<svg xmlns:xlink="http://www.w3.org/1999/xlink" width="525" height="457" viewBox="45 25 430 357" xmlns="http://www.w3.org/2000/svg" version="1.1">
 <metadata>
  <rdf:RDF xmlns:dc="http://purl.org/dc/elements/1.1/" xmlns:cc="http://creativecommons.org/ns#" xmlns:rdf="http://www.w3.org/1999/02/22-rdf-syntax-ns#">
   <cc:Work>
    <dc:type rdf:resource="http://purl.org/dc/dcmitype/StillImage"/>
    <dc:date>2024-08-23T13:19:25.521031</dc:date>
    <dc:format>image/svg+xml</dc:format>
    <dc:creator>
     <cc:Agent>
      <dc:title>Matplotlib v3.9.2, https://matplotlib.org/</dc:title>
     </cc:Agent>
    </dc:creator>
   </cc:Work>
  </rdf:RDF>
 </metadata>
 <defs>
  <style type="text/css">*{stroke-linejoin: round; stroke-linecap: butt}</style>
 </defs>
 <g id="figure_1">
  <g id="patch_1">
   <path d="M 0 426.5625 
L 525 426.5625 
L 525 0 
L 0 0 
L 0 426.5625 
z
" style="fill: none"/>
  </g>
  <g id="axes_1">
   <g id="patch_2">
    <path d="M 65.625 379.640625 
L 472.5 379.640625 
L 472.5 51.1875 
L 65.625 51.1875 
L 65.625 379.640625 
z
" style="fill: none"/>
   </g>
   <g id="patch_3">
    <path d="M 65.625 379.640625 
L 472.5 379.640625 
L 472.5 51.1875 
L 65.625 51.1875 
z
" clip-path="url(#pac2c855dce)" style="fill: #d2d2d2; stroke: #000000; stroke-linejoin: miter"/>
   </g>
   <g id="matplotlib.axis_1"/>
   <g id="matplotlib.axis_2"/>
   <g id="text_1">
    <!-- $\xi$ -->
    <g style="fill: #030303" transform="translate(265.7025 45.1875) scale(0.12 -0.12)">
     <defs>
      <path id="DejaVuSans-Oblique-3be" d="M 2016 397 
Q 2428 394 2628 159 
Q 2844 -88 2772 -463 
Q 2700 -822 2422 -1072 
Q 2119 -1344 1609 -1344 
Q 1656 -1109 1700 -872 
Q 1913 -888 2072 -750 
Q 2194 -641 2216 -525 
Q 2247 -359 2175 -222 
Q 2100 -91 1922 -91 
Q -25 -91 241 1275 
Q 422 2213 1516 2488 
Q 663 2600 822 3413 
Q 941 4028 1678 4284 
L 1028 4284 
L 1141 4863 
L 3606 4863 
L 3494 4284 
Q 1528 4284 1350 3375 
Q 1234 2778 2881 2750 
L 2778 2219 
Q 1009 2288 819 1275 
Q 659 428 2016 397 
z
" transform="scale(0.015625)"/>
     </defs>
     <use xlink:href="#DejaVuSans-Oblique-3be" transform="translate(0 0.015625)"/>
    </g>
   </g>
  </g>
  <g id="axes_2">
   <g id="patch_4">
    <path d="M 298.642407 307.866561 
C 276.554713 304.482134 256.394805 293.291844 241.839842 276.336797 
C 227.284879 259.38175 219.277088 237.759545 219.277088 215.414062 
C 219.277088 193.06858 227.284879 171.446375 241.839842 154.491328 
C 256.394805 137.536281 276.554713 126.345991 298.642407 122.961564 
C 281.957586 111.984145 262.608218 105.725406 242.655171 104.851955 
C 222.702124 103.978504 202.879863 108.522491 185.299623 117.999946 
C 167.719383 127.4774 153.028285 141.539459 142.791054 158.688397 
C 132.553823 175.837336 127.147287 195.441907 127.147287 215.414062 
C 127.147287 235.386218 132.553823 254.990789 142.791054 272.139728 
C 153.028285 289.288666 167.719383 303.350725 185.299623 312.828179 
C 202.879863 322.305634 222.702124 326.849621 242.655171 325.97617 
C 262.608218 325.102719 281.957586 318.84398 298.642407 307.866561 
" clip-path="url(#pac2c855dce)" style="fill: #6495ed; opacity: 0.4; stroke: #6495ed; stroke-linejoin: miter"/>
   </g>
   <g id="patch_5">
    <path d="M 298.642407 122.961564 
C 313.956797 133.037337 326.530384 146.762145 335.229395 162.898408 
C 343.928405 179.03467 348.483268 197.082348 348.483268 215.414062 
C 348.483268 233.745777 343.928405 251.793455 335.229395 267.929717 
C 326.530384 284.06598 313.956797 297.790788 298.642407 307.866561 
C 311.966903 309.908232 325.576636 309.045435 338.53663 305.337446 
C 351.496623 301.629457 363.503141 295.163176 373.731346 286.382832 
C 383.959551 277.602488 392.16973 266.713861 397.797852 254.464989 
C 403.425974 242.216117 406.340135 228.89407 406.340135 215.414062 
C 406.340135 201.934055 403.425974 188.612008 397.797852 176.363136 
C 392.16973 164.114264 383.959551 153.225637 373.731346 144.445293 
C 363.503141 135.664949 351.496623 129.198668 338.53663 125.490679 
C 325.576636 121.78269 311.966903 120.919893 298.642407 122.961564 
" clip-path="url(#pac2c855dce)" style="fill: #ffd700; opacity: 0.4; stroke: #ffd700; stroke-linejoin: miter"/>
   </g>
   <g id="patch_6">
    <path d="M 298.642407 307.866561 
C 313.956797 297.790788 326.530384 284.06598 335.229395 267.929717 
C 343.928405 251.793455 348.483268 233.745777 348.483268 215.414062 
C 348.483268 197.082348 343.928405 179.03467 335.229395 162.898408 
C 326.530384 146.762145 313.956797 133.037337 298.642407 122.961564 
C 276.554713 126.345991 256.394805 137.536281 241.839842 154.491328 
C 227.284879 171.446375 219.277088 193.06858 219.277088 215.414062 
C 219.277088 237.759545 227.284879 259.38175 241.839842 276.336797 
C 256.394805 293.291844 276.554713 304.482134 298.642407 307.866561 
" clip-path="url(#pac2c855dce)" style="fill: #9faf90; opacity: 0.4; stroke: #9faf90; stroke-linejoin: miter"/>
   </g>
   <g id="text_2">
    <!-- P(A) -->
    <g style="fill: #030303" transform="translate(162.335625 218.173438) scale(0.1 -0.1)">
     <defs>
      <path id="DejaVuSerif-50" d="M 1581 2375 
L 2406 2375 
Q 2872 2375 3115 2626 
Q 3359 2878 3359 3353 
Q 3359 3831 3115 4081 
Q 2872 4331 2406 4331 
L 1581 4331 
L 1581 2375 
z
M 353 0 
L 353 331 
L 947 331 
L 947 4331 
L 353 4331 
L 353 4666 
L 2559 4666 
Q 3259 4666 3668 4311 
Q 4078 3956 4078 3353 
Q 4078 2753 3668 2397 
Q 3259 2041 2559 2041 
L 1581 2041 
L 1581 331 
L 2303 331 
L 2303 0 
L 353 0 
z
" transform="scale(0.015625)"/>
      <path id="DejaVuSerif-28" d="M 2041 -997 
Q 1281 -656 893 83 
Q 506 822 506 1931 
Q 506 3044 893 3783 
Q 1281 4522 2041 4863 
L 2041 4556 
Q 1559 4225 1350 3623 
Q 1141 3022 1141 1931 
Q 1141 844 1350 242 
Q 1559 -359 2041 -691 
L 2041 -997 
z
" transform="scale(0.015625)"/>
      <path id="DejaVuSerif-41" d="M 1281 1691 
L 2994 1691 
L 2138 3909 
L 1281 1691 
z
M -38 0 
L -38 331 
L 372 331 
L 2034 4666 
L 2559 4666 
L 4225 331 
L 4684 331 
L 4684 0 
L 2988 0 
L 2988 331 
L 3506 331 
L 3116 1356 
L 1153 1356 
L 763 331 
L 1275 331 
L 1275 0 
L -38 0 
z
" transform="scale(0.015625)"/>
      <path id="DejaVuSerif-29" d="M 453 -997 
L 453 -691 
Q 934 -359 1145 242 
Q 1356 844 1356 1931 
Q 1356 3022 1145 3623 
Q 934 4225 453 4556 
L 453 4863 
Q 1216 4522 1603 3783 
Q 1991 3044 1991 1931 
Q 1991 822 1603 83 
Q 1216 -656 453 -997 
z
" transform="scale(0.015625)"/>
     </defs>
     <use xlink:href="#DejaVuSerif-50"/>
     <use xlink:href="#DejaVuSerif-28" x="67.285156"/>
     <use xlink:href="#DejaVuSerif-41" x="106.298828"/>
     <use xlink:href="#DejaVuSerif-29" x="178.515625"/>
    </g>
   </g>
   <g id="text_3">
    <!-- P(B) -->
    <g style="fill: #030303" transform="translate(366.471858 218.173438) scale(0.1 -0.1)">
     <defs>
      <path id="DejaVuSerif-42" d="M 1581 331 
L 2516 331 
Q 3078 331 3337 575 
Q 3597 819 3597 1350 
Q 3597 1878 3339 2120 
Q 3081 2363 2516 2363 
L 1581 2363 
L 1581 331 
z
M 1581 2694 
L 2375 2694 
Q 2888 2694 3123 2891 
Q 3359 3088 3359 3513 
Q 3359 3941 3123 4136 
Q 2888 4331 2375 4331 
L 1581 4331 
L 1581 2694 
z
M 353 0 
L 353 331 
L 947 331 
L 947 4331 
L 353 4331 
L 353 4666 
L 2656 4666 
Q 3363 4666 3720 4377 
Q 4078 4088 4078 3513 
Q 4078 3097 3829 2850 
Q 3581 2603 3103 2547 
Q 3697 2472 4005 2167 
Q 4313 1863 4313 1350 
Q 4313 656 3875 328 
Q 3438 0 2509 0 
L 353 0 
z
" transform="scale(0.015625)"/>
     </defs>
     <use xlink:href="#DejaVuSerif-50"/>
     <use xlink:href="#DejaVuSerif-28" x="67.285156"/>
     <use xlink:href="#DejaVuSerif-42" x="106.298828"/>
     <use xlink:href="#DejaVuSerif-29" x="179.785156"/>
    </g>
   </g>
   <g id="text_4">
    <!-- P(A ∩ B) -->
    <g style="fill: #030303" transform="translate(261.961428 212.409219) scale(0.1 -0.1)">
     <defs>
      <path id="DejaVuSerif-20" transform="scale(0.015625)"/>
      <path id="DejaVuSerif-2229" d="M 1175 2006 
L 1175 0 
L 675 0 
L 675 2006 
Q 675 2550 944 3012 
Q 1213 3475 1675 3744 
Q 2138 4013 2681 4013 
Q 3225 4013 3687 3744 
Q 4150 3475 4419 3012 
Q 4688 2550 4688 2006 
L 4688 0 
L 4188 0 
L 4188 2006 
Q 4188 2413 3984 2759 
Q 3781 3106 3434 3309 
Q 3088 3513 2681 3513 
Q 2275 3513 1928 3309 
Q 1581 3106 1378 2759 
Q 1175 2413 1175 2006 
z
" transform="scale(0.015625)"/>
     </defs>
     <use xlink:href="#DejaVuSerif-50"/>
     <use xlink:href="#DejaVuSerif-28" x="67.285156"/>
     <use xlink:href="#DejaVuSerif-41" x="106.298828"/>
     <use xlink:href="#DejaVuSerif-20" x="178.515625"/>
     <use xlink:href="#DejaVuSerif-2229" x="210.302734"/>
     <use xlink:href="#DejaVuSerif-20" x="294.091797"/>
     <use xlink:href="#DejaVuSerif-42" x="325.878906"/>
     <use xlink:href="#DejaVuSerif-29" x="399.365234"/>
    </g>
    <!-- = P(A) * P(B | A) -->
    <g style="fill: #030303" transform="translate(242.133303 223.659531) scale(0.1 -0.1)">
     <defs>
      <path id="DejaVuSerif-3d" d="M 678 2894 
L 4684 2894 
L 4684 2394 
L 678 2394 
L 678 2894 
z
M 678 1619 
L 4684 1619 
L 4684 1119 
L 678 1119 
L 678 1619 
z
" transform="scale(0.015625)"/>
      <path id="DejaVuSerif-2a" d="M 3097 3866 
L 1875 3297 
L 3097 2719 
L 2859 2350 
L 1772 3028 
L 1813 1838 
L 1388 1838 
L 1428 3028 
L 341 2350 
L 103 2719 
L 1325 3291 
L 103 3866 
L 341 4238 
L 1428 3559 
L 1388 4750 
L 1813 4750 
L 1772 3559 
L 2859 4238 
L 3097 3866 
z
" transform="scale(0.015625)"/>
      <path id="DejaVuSerif-7c" d="M 1331 4891 
L 1331 -1509 
L 825 -1509 
L 825 4891 
L 1331 4891 
z
" transform="scale(0.015625)"/>
     </defs>
     <use xlink:href="#DejaVuSerif-3d"/>
     <use xlink:href="#DejaVuSerif-20" x="83.789062"/>
     <use xlink:href="#DejaVuSerif-50" x="115.576172"/>
     <use xlink:href="#DejaVuSerif-28" x="182.861328"/>
     <use xlink:href="#DejaVuSerif-41" x="221.875"/>
     <use xlink:href="#DejaVuSerif-29" x="294.091797"/>
     <use xlink:href="#DejaVuSerif-20" x="333.105469"/>
     <use xlink:href="#DejaVuSerif-2a" x="364.892578"/>
     <use xlink:href="#DejaVuSerif-20" x="414.892578"/>
     <use xlink:href="#DejaVuSerif-50" x="446.679688"/>
     <use xlink:href="#DejaVuSerif-28" x="513.964844"/>
     <use xlink:href="#DejaVuSerif-42" x="552.978516"/>
     <use xlink:href="#DejaVuSerif-20" x="626.464844"/>
     <use xlink:href="#DejaVuSerif-7c" x="658.251953"/>
     <use xlink:href="#DejaVuSerif-20" x="691.943359"/>
     <use xlink:href="#DejaVuSerif-41" x="723.730469"/>
     <use xlink:href="#DejaVuSerif-29" x="795.947266"/>
    </g>
   </g>
   <g id="text_5">
    <!-- A -->
    <g style="fill: #030303" transform="translate(229.149028 345.410154) scale(0.12 -0.12)">
     <use xlink:href="#DejaVuSerif-41"/>
    </g>
   </g>
   <g id="text_6">
    <!-- B -->
    <g style="fill: #030303" transform="translate(312.808611 328.273686) scale(0.12 -0.12)">
     <use xlink:href="#DejaVuSerif-42"/>
    </g>
   </g>
   <g id="text_7">
    <!-- $(A \cup B)'$ -->
    <g style="fill: #030303" transform="translate(75.796875 356.510938) scale(0.1 -0.1)">
     <defs>
      <path id="DejaVuSans-28" d="M 1984 4856 
Q 1566 4138 1362 3434 
Q 1159 2731 1159 2009 
Q 1159 1288 1364 580 
Q 1569 -128 1984 -844 
L 1484 -844 
Q 1016 -109 783 600 
Q 550 1309 550 2009 
Q 550 2706 781 3412 
Q 1013 4119 1484 4856 
L 1984 4856 
z
" transform="scale(0.015625)"/>
      <path id="DejaVuSans-Oblique-41" d="M 2356 4666 
L 3072 4666 
L 3938 0 
L 3278 0 
L 3084 1197 
L 984 1197 
L 325 0 
L -341 0 
L 2356 4666 
z
M 2584 4044 
L 1275 1722 
L 2988 1722 
L 2584 4044 
z
" transform="scale(0.015625)"/>
      <path id="DejaVuSans-222a" d="M 825 1856 
L 825 3706 
L 1363 3706 
L 1363 1934 
Q 1363 1172 1594 842 
Q 1825 513 2344 513 
Q 2859 513 3090 842 
Q 3322 1172 3322 1934 
L 3322 3706 
L 3859 3706 
L 3859 1856 
Q 3859 931 3476 465 
Q 3094 0 2344 0 
Q 1591 0 1208 465 
Q 825 931 825 1856 
z
" transform="scale(0.015625)"/>
      <path id="DejaVuSans-Oblique-42" d="M 1081 4666 
L 2694 4666 
Q 3350 4666 3675 4422 
Q 4000 4178 4000 3688 
Q 4000 3238 3720 2911 
Q 3441 2584 2988 2516 
Q 3375 2428 3569 2181 
Q 3763 1934 3763 1522 
Q 3763 819 3242 409 
Q 2722 0 1819 0 
L 172 0 
L 1081 4666 
z
M 1234 2228 
L 903 519 
L 1919 519 
Q 2491 519 2800 781 
Q 3109 1044 3109 1522 
Q 3109 1891 2904 2059 
Q 2700 2228 2247 2228 
L 1234 2228 
z
M 1606 4147 
L 1331 2741 
L 2272 2741 
Q 2775 2741 3058 2959 
Q 3341 3178 3341 3566 
Q 3341 3869 3150 4008 
Q 2959 4147 2541 4147 
L 1606 4147 
z
" transform="scale(0.015625)"/>
      <path id="DejaVuSans-29" d="M 513 4856 
L 1013 4856 
Q 1481 4119 1714 3412 
Q 1947 2706 1947 2009 
Q 1947 1309 1714 600 
Q 1481 -109 1013 -844 
L 513 -844 
Q 928 -128 1133 580 
Q 1338 1288 1338 2009 
Q 1338 2731 1133 3434 
Q 928 4138 513 4856 
z
" transform="scale(0.015625)"/>
      <path id="Cmsy10-30" d="M 225 347 
Q 184 359 184 409 
L 966 3316 
Q 1003 3434 1093 3506 
Q 1184 3578 1300 3578 
Q 1450 3578 1564 3479 
Q 1678 3381 1678 3231 
Q 1678 3166 1644 3084 
L 488 319 
Q 466 275 428 275 
Q 394 275 320 306 
Q 247 338 225 347 
z
" transform="scale(0.015625)"/>
     </defs>
     <use xlink:href="#DejaVuSans-28" transform="translate(0 0.584375)"/>
     <use xlink:href="#DejaVuSans-Oblique-41" transform="translate(39.013672 0.584375)"/>
     <use xlink:href="#DejaVuSans-222a" transform="translate(126.904297 0.584375)"/>
     <use xlink:href="#DejaVuSans-Oblique-42" transform="translate(219.580078 0.584375)"/>
     <use xlink:href="#DejaVuSans-29" transform="translate(288.183594 0.584375)"/>
     <use xlink:href="#Cmsy10-30" transform="translate(328.154297 38.865625) scale(0.7)"/>
    </g>
   </g>
  </g>
 </g>
 <defs>
  <clipPath id="pac2c855dce">
   <rect x="65.625" y="51.1875" width="406.875" height="328.453125"/>
  </clipPath>
 </defs>
</svg>
