<?xml version="1.0" encoding="utf-8" standalone="no"?>
<!DOCTYPE svg PUBLIC "-//W3C//DTD SVG 1.1//EN"
  "http://www.w3.org/Graphics/SVG/1.1/DTD/svg11.dtd">
<svg xmlns:xlink="http://www.w3.org/1999/xlink" width="360pt" height="288pt" viewBox="0 0 360 288" xmlns="http://www.w3.org/2000/svg" version="1.1">
 <metadata>
  <rdf:RDF xmlns:dc="http://purl.org/dc/elements/1.1/" xmlns:cc="http://creativecommons.org/ns#" xmlns:rdf="http://www.w3.org/1999/02/22-rdf-syntax-ns#">
   <cc:Work>
    <dc:type rdf:resource="http://purl.org/dc/dcmitype/StillImage"/>
    <dc:date>2024-10-06T21:46:45.686279</dc:date>
    <dc:format>image/svg+xml</dc:format>
    <dc:creator>
     <cc:Agent>
      <dc:title>Matplotlib v3.9.2, https://matplotlib.org/</dc:title>
     </cc:Agent>
    </dc:creator>
   </cc:Work>
  </rdf:RDF>
 </metadata>
 <defs>
  <style type="text/css">*{stroke-linejoin: round; stroke-linecap: butt}</style>
 </defs>
 <g id="figure_1">
  <g id="patch_1">
   <path d="M 0 288 
L 360 288 
L 360 0 
L 0 0 
L 0 288 
z
" style="fill: none"/>
  </g>
  <g id="axes_1">
   <g id="patch_2">
    <path d="M 40.425127 235.96 
L 349.2 235.96 
L 349.2 25.44 
L 40.425127 25.44 
L 40.425127 235.96 
z
" style="fill: none"/>
   </g>
   <g id="PolyCollection_1">
    <path d="M 54.460348 224.264811 
L 54.460348 226.390909 
L 55.022882 226.390909 
L 55.585416 226.390909 
L 56.14795 226.390909 
L 56.710484 226.390909 
L 57.273018 226.390909 
L 57.835552 226.390909 
L 58.398086 226.390909 
L 58.96062 226.390909 
L 59.523154 226.390909 
L 60.085688 226.390909 
L 60.648222 226.390909 
L 61.210756 226.390909 
L 61.77329 226.390909 
L 62.335823 226.390909 
L 62.898357 226.390909 
L 63.460891 226.390909 
L 64.023425 226.390909 
L 64.585959 226.390909 
L 65.148493 226.390909 
L 65.711027 226.390909 
L 66.273561 226.390909 
L 66.836095 226.390909 
L 67.398629 226.390909 
L 67.961163 226.390909 
L 68.523697 226.390909 
L 69.086231 226.390909 
L 69.648765 226.390909 
L 70.211298 226.390909 
L 70.773832 226.390909 
L 71.336366 226.390909 
L 71.8989 226.390909 
L 72.461434 226.390909 
L 73.023968 226.390909 
L 73.586502 226.390909 
L 74.149036 226.390909 
L 74.71157 226.390909 
L 75.274104 226.390909 
L 75.836638 226.390909 
L 76.399172 226.390909 
L 76.961706 226.390909 
L 77.52424 226.390909 
L 78.086773 226.390909 
L 78.649307 226.390909 
L 79.211841 226.390909 
L 79.774375 226.390909 
L 80.336909 226.390909 
L 80.899443 226.390909 
L 81.461977 226.390909 
L 82.024511 226.390909 
L 82.587045 226.390909 
L 83.149579 226.390909 
L 83.712113 226.390909 
L 84.274647 226.390909 
L 84.837181 226.390909 
L 85.399714 226.390909 
L 85.962248 226.390909 
L 86.524782 226.390909 
L 87.087316 226.390909 
L 87.64985 226.390909 
L 88.212384 226.390909 
L 88.774918 226.390909 
L 89.337452 226.390909 
L 89.899986 226.390909 
L 90.46252 226.390909 
L 91.025054 226.390909 
L 91.587588 226.390909 
L 92.150122 226.390909 
L 92.712656 226.390909 
L 93.275189 226.390909 
L 93.837723 226.390909 
L 94.400257 226.390909 
L 94.962791 226.390909 
L 95.525325 226.390909 
L 96.087859 226.390909 
L 96.650393 226.390909 
L 97.212927 226.390909 
L 97.775461 226.390909 
L 98.337995 226.390909 
L 98.900529 226.390909 
L 99.463063 226.390909 
L 100.025597 226.390909 
L 100.588131 226.390909 
L 101.150664 226.390909 
L 101.713198 226.390909 
L 102.275732 226.390909 
L 102.838266 226.390909 
L 103.4008 226.390909 
L 103.963334 226.390909 
L 104.525868 226.390909 
L 105.088402 226.390909 
L 105.650936 226.390909 
L 106.21347 226.390909 
L 106.776004 226.390909 
L 107.338538 226.390909 
L 107.901072 226.390909 
L 108.463606 226.390909 
L 109.026139 226.390909 
L 109.588673 226.390909 
L 110.151207 226.390909 
L 110.713741 226.390909 
L 111.276275 226.390909 
L 111.838809 226.390909 
L 112.401343 226.390909 
L 112.963877 226.390909 
L 113.526411 226.390909 
L 114.088945 226.390909 
L 114.651479 226.390909 
L 115.214013 226.390909 
L 115.776547 226.390909 
L 116.339081 226.390909 
L 116.901614 226.390909 
L 117.464148 226.390909 
L 118.026682 226.390909 
L 118.589216 226.390909 
L 119.15175 226.390909 
L 119.714284 226.390909 
L 120.276818 226.390909 
L 120.839352 226.390909 
L 121.401886 226.390909 
L 121.96442 226.390909 
L 122.526954 226.390909 
L 123.089488 226.390909 
L 123.652022 226.390909 
L 124.214556 226.390909 
L 124.777089 226.390909 
L 125.339623 226.390909 
L 125.902157 226.390909 
L 126.464691 226.390909 
L 127.027225 226.390909 
L 127.589759 226.390909 
L 128.152293 226.390909 
L 128.714827 226.390909 
L 129.277361 226.390909 
L 129.839895 226.390909 
L 130.402429 226.390909 
L 130.964963 226.390909 
L 131.527497 226.390909 
L 132.090031 226.390909 
L 132.652564 226.390909 
L 133.215098 226.390909 
L 133.777632 226.390909 
L 134.340166 226.390909 
L 134.9027 226.390909 
L 135.465234 226.390909 
L 136.027768 226.390909 
L 136.590302 226.390909 
L 137.152836 226.390909 
L 137.71537 226.390909 
L 138.277904 226.390909 
L 138.840438 226.390909 
L 139.402972 226.390909 
L 139.965506 226.390909 
L 140.528039 226.390909 
L 141.090573 226.390909 
L 141.653107 226.390909 
L 142.215641 226.390909 
L 142.778175 226.390909 
L 143.340709 226.390909 
L 143.903243 226.390909 
L 144.465777 226.390909 
L 145.028311 226.390909 
L 145.590845 226.390909 
L 146.153379 226.390909 
L 146.715913 226.390909 
L 147.278447 226.390909 
L 147.278447 112.170731 
L 147.278447 112.170731 
L 146.715913 113.565805 
L 146.153379 114.959952 
L 145.590845 116.352781 
L 145.028311 117.743911 
L 144.465777 119.132961 
L 143.903243 120.51956 
L 143.340709 121.903342 
L 142.778175 123.283945 
L 142.215641 124.661014 
L 141.653107 126.034203 
L 141.090573 127.403168 
L 140.528039 128.767574 
L 139.965506 130.127092 
L 139.402972 131.4814 
L 138.840438 132.830183 
L 138.277904 134.173131 
L 137.71537 135.509943 
L 137.152836 136.840325 
L 136.590302 138.163988 
L 136.027768 139.480652 
L 135.465234 140.790043 
L 134.9027 142.091896 
L 134.340166 143.385951 
L 133.777632 144.671957 
L 133.215098 145.94967 
L 132.652564 147.218852 
L 132.090031 148.479274 
L 131.527497 149.730715 
L 130.964963 150.97296 
L 130.402429 152.2058 
L 129.839895 153.429037 
L 129.277361 154.642478 
L 128.714827 155.845938 
L 128.152293 157.03924 
L 127.589759 158.222212 
L 127.027225 159.394693 
L 126.464691 160.556526 
L 125.902157 161.707564 
L 125.339623 162.847664 
L 124.777089 163.976694 
L 124.214556 165.094526 
L 123.652022 166.201041 
L 123.089488 167.296125 
L 122.526954 168.379673 
L 121.96442 169.451586 
L 121.401886 170.511772 
L 120.839352 171.560146 
L 120.276818 172.596629 
L 119.714284 173.621149 
L 119.15175 174.63364 
L 118.589216 175.634043 
L 118.026682 176.622306 
L 117.464148 177.598382 
L 116.901614 178.56223 
L 116.339081 179.513816 
L 115.776547 180.453111 
L 115.214013 181.380094 
L 114.651479 182.294747 
L 114.088945 183.197058 
L 113.526411 184.087023 
L 112.963877 184.964641 
L 112.401343 185.829916 
L 111.838809 186.68286 
L 111.276275 187.523488 
L 110.713741 188.351819 
L 110.151207 189.167879 
L 109.588673 189.971698 
L 109.026139 190.76331 
L 108.463606 191.542753 
L 107.901072 192.310073 
L 107.338538 193.065315 
L 106.776004 193.808532 
L 106.21347 194.539779 
L 105.650936 195.259116 
L 105.088402 195.966606 
L 104.525868 196.662317 
L 103.963334 197.346318 
L 103.4008 198.018684 
L 102.838266 198.679492 
L 102.275732 199.328822 
L 101.713198 199.966757 
L 101.150664 200.593385 
L 100.588131 201.208793 
L 100.025597 201.813075 
L 99.463063 202.406324 
L 98.900529 202.988636 
L 98.337995 203.560113 
L 97.775461 204.120854 
L 97.212927 204.670963 
L 96.650393 205.210546 
L 96.087859 205.73971 
L 95.525325 206.258564 
L 94.962791 206.76722 
L 94.400257 207.26579 
L 93.837723 207.754387 
L 93.275189 208.233127 
L 92.712656 208.702127 
L 92.150122 209.161504 
L 91.587588 209.611378 
L 91.025054 210.051867 
L 90.46252 210.483093 
L 89.899986 210.905176 
L 89.337452 211.31824 
L 88.774918 211.722407 
L 88.212384 212.1178 
L 87.64985 212.504543 
L 87.087316 212.88276 
L 86.524782 213.252575 
L 85.962248 213.614113 
L 85.399714 213.967498 
L 84.837181 214.312856 
L 84.274647 214.650311 
L 83.712113 214.979987 
L 83.149579 215.30201 
L 82.587045 215.616502 
L 82.024511 215.923589 
L 81.461977 216.223393 
L 80.899443 216.516038 
L 80.336909 216.801647 
L 79.774375 217.080341 
L 79.211841 217.352243 
L 78.649307 217.617472 
L 78.086773 217.87615 
L 77.52424 218.128395 
L 76.961706 218.374327 
L 76.399172 218.614063 
L 75.836638 218.847721 
L 75.274104 219.075416 
L 74.71157 219.297264 
L 74.149036 219.513378 
L 73.586502 219.723872 
L 73.023968 219.928858 
L 72.461434 220.128447 
L 71.8989 220.322749 
L 71.336366 220.511873 
L 70.773832 220.695925 
L 70.211298 220.875013 
L 69.648765 221.049242 
L 69.086231 221.218715 
L 68.523697 221.383535 
L 67.961163 221.543804 
L 67.398629 221.699622 
L 66.836095 221.851087 
L 66.273561 221.998296 
L 65.711027 222.141347 
L 65.148493 222.280334 
L 64.585959 222.415349 
L 64.023425 222.546486 
L 63.460891 222.673835 
L 62.898357 222.797484 
L 62.335823 222.917523 
L 61.77329 223.034037 
L 61.210756 223.147112 
L 60.648222 223.256831 
L 60.085688 223.363276 
L 59.523154 223.466529 
L 58.96062 223.566669 
L 58.398086 223.663775 
L 57.835552 223.757922 
L 57.273018 223.849186 
L 56.710484 223.937642 
L 56.14795 224.023362 
L 55.585416 224.106417 
L 55.022882 224.186877 
L 54.460348 224.264811 
z
" clip-path="url(#p526b47cce0)" style="fill: #ffa500; fill-opacity: 0.5; stroke: #ffa500; stroke-opacity: 0.5"/>
    <path d="M 242.34668 112.170731 
L 242.34668 226.390909 
L 242.909214 226.390909 
L 243.471748 226.390909 
L 244.034282 226.390909 
L 244.596816 226.390909 
L 245.15935 226.390909 
L 245.721884 226.390909 
L 246.284418 226.390909 
L 246.846952 226.390909 
L 247.409486 226.390909 
L 247.97202 226.390909 
L 248.534554 226.390909 
L 249.097088 226.390909 
L 249.659621 226.390909 
L 250.222155 226.390909 
L 250.784689 226.390909 
L 251.347223 226.390909 
L 251.909757 226.390909 
L 252.472291 226.390909 
L 253.034825 226.390909 
L 253.597359 226.390909 
L 254.159893 226.390909 
L 254.722427 226.390909 
L 255.284961 226.390909 
L 255.847495 226.390909 
L 256.410029 226.390909 
L 256.972563 226.390909 
L 257.535096 226.390909 
L 258.09763 226.390909 
L 258.660164 226.390909 
L 259.222698 226.390909 
L 259.785232 226.390909 
L 260.347766 226.390909 
L 260.9103 226.390909 
L 261.472834 226.390909 
L 262.035368 226.390909 
L 262.597902 226.390909 
L 263.160436 226.390909 
L 263.72297 226.390909 
L 264.285504 226.390909 
L 264.848038 226.390909 
L 265.410571 226.390909 
L 265.973105 226.390909 
L 266.535639 226.390909 
L 267.098173 226.390909 
L 267.660707 226.390909 
L 268.223241 226.390909 
L 268.785775 226.390909 
L 269.348309 226.390909 
L 269.910843 226.390909 
L 270.473377 226.390909 
L 271.035911 226.390909 
L 271.598445 226.390909 
L 272.160979 226.390909 
L 272.723512 226.390909 
L 273.286046 226.390909 
L 273.84858 226.390909 
L 274.411114 226.390909 
L 274.973648 226.390909 
L 275.536182 226.390909 
L 276.098716 226.390909 
L 276.66125 226.390909 
L 277.223784 226.390909 
L 277.786318 226.390909 
L 278.348852 226.390909 
L 278.911386 226.390909 
L 279.47392 226.390909 
L 280.036454 226.390909 
L 280.598987 226.390909 
L 281.161521 226.390909 
L 281.724055 226.390909 
L 282.286589 226.390909 
L 282.849123 226.390909 
L 283.411657 226.390909 
L 283.974191 226.390909 
L 284.536725 226.390909 
L 285.099259 226.390909 
L 285.661793 226.390909 
L 286.224327 226.390909 
L 286.786861 226.390909 
L 287.349395 226.390909 
L 287.911929 226.390909 
L 288.474462 226.390909 
L 289.036996 226.390909 
L 289.59953 226.390909 
L 290.162064 226.390909 
L 290.724598 226.390909 
L 291.287132 226.390909 
L 291.849666 226.390909 
L 292.4122 226.390909 
L 292.974734 226.390909 
L 293.537268 226.390909 
L 294.099802 226.390909 
L 294.662336 226.390909 
L 295.22487 226.390909 
L 295.787404 226.390909 
L 296.349937 226.390909 
L 296.912471 226.390909 
L 297.475005 226.390909 
L 298.037539 226.390909 
L 298.600073 226.390909 
L 299.162607 226.390909 
L 299.725141 226.390909 
L 300.287675 226.390909 
L 300.850209 226.390909 
L 301.412743 226.390909 
L 301.975277 226.390909 
L 302.537811 226.390909 
L 303.100345 226.390909 
L 303.662879 226.390909 
L 304.225412 226.390909 
L 304.787946 226.390909 
L 305.35048 226.390909 
L 305.913014 226.390909 
L 306.475548 226.390909 
L 307.038082 226.390909 
L 307.600616 226.390909 
L 308.16315 226.390909 
L 308.725684 226.390909 
L 309.288218 226.390909 
L 309.850752 226.390909 
L 310.413286 226.390909 
L 310.97582 226.390909 
L 311.538354 226.390909 
L 312.100887 226.390909 
L 312.663421 226.390909 
L 313.225955 226.390909 
L 313.788489 226.390909 
L 314.351023 226.390909 
L 314.913557 226.390909 
L 315.476091 226.390909 
L 316.038625 226.390909 
L 316.601159 226.390909 
L 317.163693 226.390909 
L 317.726227 226.390909 
L 318.288761 226.390909 
L 318.851295 226.390909 
L 319.413829 226.390909 
L 319.976362 226.390909 
L 320.538896 226.390909 
L 321.10143 226.390909 
L 321.663964 226.390909 
L 322.226498 226.390909 
L 322.789032 226.390909 
L 323.351566 226.390909 
L 323.9141 226.390909 
L 324.476634 226.390909 
L 325.039168 226.390909 
L 325.601702 226.390909 
L 326.164236 226.390909 
L 326.72677 226.390909 
L 327.289304 226.390909 
L 327.851837 226.390909 
L 328.414371 226.390909 
L 328.976905 226.390909 
L 329.539439 226.390909 
L 330.101973 226.390909 
L 330.664507 226.390909 
L 331.227041 226.390909 
L 331.789575 226.390909 
L 332.352109 226.390909 
L 332.914643 226.390909 
L 333.477177 226.390909 
L 334.039711 226.390909 
L 334.602245 226.390909 
L 335.164778 226.390909 
L 335.164778 224.264811 
L 335.164778 224.264811 
L 334.602245 224.186877 
L 334.039711 224.106417 
L 333.477177 224.023362 
L 332.914643 223.937642 
L 332.352109 223.849186 
L 331.789575 223.757922 
L 331.227041 223.663775 
L 330.664507 223.566669 
L 330.101973 223.466529 
L 329.539439 223.363276 
L 328.976905 223.256831 
L 328.414371 223.147112 
L 327.851837 223.034037 
L 327.289304 222.917523 
L 326.72677 222.797484 
L 326.164236 222.673835 
L 325.601702 222.546486 
L 325.039168 222.415349 
L 324.476634 222.280334 
L 323.9141 222.141347 
L 323.351566 221.998296 
L 322.789032 221.851087 
L 322.226498 221.699622 
L 321.663964 221.543804 
L 321.10143 221.383535 
L 320.538896 221.218715 
L 319.976362 221.049242 
L 319.413829 220.875013 
L 318.851295 220.695925 
L 318.288761 220.511873 
L 317.726227 220.322749 
L 317.163693 220.128447 
L 316.601159 219.928858 
L 316.038625 219.723872 
L 315.476091 219.513378 
L 314.913557 219.297264 
L 314.351023 219.075416 
L 313.788489 218.847721 
L 313.225955 218.614063 
L 312.663421 218.374327 
L 312.100887 218.128395 
L 311.538354 217.87615 
L 310.97582 217.617472 
L 310.413286 217.352243 
L 309.850752 217.080341 
L 309.288218 216.801647 
L 308.725684 216.516038 
L 308.16315 216.223393 
L 307.600616 215.923589 
L 307.038082 215.616502 
L 306.475548 215.30201 
L 305.913014 214.979987 
L 305.35048 214.650311 
L 304.787946 214.312856 
L 304.225412 213.967498 
L 303.662879 213.614113 
L 303.100345 213.252575 
L 302.537811 212.88276 
L 301.975277 212.504543 
L 301.412743 212.1178 
L 300.850209 211.722407 
L 300.287675 211.31824 
L 299.725141 210.905176 
L 299.162607 210.483093 
L 298.600073 210.051867 
L 298.037539 209.611378 
L 297.475005 209.161504 
L 296.912471 208.702127 
L 296.349937 208.233127 
L 295.787404 207.754387 
L 295.22487 207.26579 
L 294.662336 206.76722 
L 294.099802 206.258564 
L 293.537268 205.73971 
L 292.974734 205.210546 
L 292.4122 204.670963 
L 291.849666 204.120854 
L 291.287132 203.560113 
L 290.724598 202.988636 
L 290.162064 202.406324 
L 289.59953 201.813075 
L 289.036996 201.208793 
L 288.474462 200.593385 
L 287.911929 199.966757 
L 287.349395 199.328822 
L 286.786861 198.679492 
L 286.224327 198.018684 
L 285.661793 197.346318 
L 285.099259 196.662317 
L 284.536725 195.966606 
L 283.974191 195.259116 
L 283.411657 194.539779 
L 282.849123 193.808532 
L 282.286589 193.065315 
L 281.724055 192.310073 
L 281.161521 191.542753 
L 280.598987 190.76331 
L 280.036454 189.971698 
L 279.47392 189.167879 
L 278.911386 188.351819 
L 278.348852 187.523488 
L 277.786318 186.68286 
L 277.223784 185.829916 
L 276.66125 184.964641 
L 276.098716 184.087023 
L 275.536182 183.197058 
L 274.973648 182.294747 
L 274.411114 181.380094 
L 273.84858 180.453111 
L 273.286046 179.513816 
L 272.723512 178.56223 
L 272.160979 177.598382 
L 271.598445 176.622306 
L 271.035911 175.634043 
L 270.473377 174.63364 
L 269.910843 173.621149 
L 269.348309 172.596629 
L 268.785775 171.560146 
L 268.223241 170.511772 
L 267.660707 169.451586 
L 267.098173 168.379673 
L 266.535639 167.296125 
L 265.973105 166.201041 
L 265.410571 165.094526 
L 264.848038 163.976694 
L 264.285504 162.847664 
L 263.72297 161.707564 
L 263.160436 160.556526 
L 262.597902 159.394693 
L 262.035368 158.222212 
L 261.472834 157.03924 
L 260.9103 155.845938 
L 260.347766 154.642478 
L 259.785232 153.429037 
L 259.222698 152.2058 
L 258.660164 150.97296 
L 258.09763 149.730715 
L 257.535096 148.479274 
L 256.972563 147.218852 
L 256.410029 145.94967 
L 255.847495 144.671957 
L 255.284961 143.385951 
L 254.722427 142.091896 
L 254.159893 140.790043 
L 253.597359 139.480652 
L 253.034825 138.163988 
L 252.472291 136.840325 
L 251.909757 135.509943 
L 251.347223 134.173131 
L 250.784689 132.830183 
L 250.222155 131.4814 
L 249.659621 130.127092 
L 249.097088 128.767574 
L 248.534554 127.403168 
L 247.97202 126.034203 
L 247.409486 124.661014 
L 246.846952 123.283945 
L 246.284418 121.903342 
L 245.721884 120.51956 
L 245.15935 119.132961 
L 244.596816 117.743911 
L 244.034282 116.352781 
L 243.471748 114.959952 
L 242.909214 113.565805 
L 242.34668 112.170731 
z
" clip-path="url(#p526b47cce0)" style="fill: #ffa500; fill-opacity: 0.5; stroke: #ffa500; stroke-opacity: 0.5"/>
   </g>
   <g id="matplotlib.axis_1">
    <g id="xtick_1">
     <g id="line2d_1">
      <defs>
       <path id="m00013af6d3" d="M 0 0 
L 0 3.5 
" style="stroke: #030303; stroke-width: 0.8"/>
      </defs>
      <g>
       <use xlink:href="#m00013af6d3" x="54.460348" y="235.96" style="fill: #030303; stroke: #030303; stroke-width: 0.8"/>
      </g>
     </g>
     <g id="text_1">
      <!-- $\mathdefault{−3}$ -->
      <g style="fill: #030303" transform="translate(44.840348 252.837969) scale(0.13 -0.13)">
       <defs>
        <path id="DejaVuSerif-2212" d="M 678 2259 
L 4684 2259 
L 4684 1753 
L 678 1753 
L 678 2259 
z
" transform="scale(0.015625)"/>
        <path id="DejaVuSerif-33" d="M 622 4469 
Q 988 4606 1323 4678 
Q 1659 4750 1953 4750 
Q 2638 4750 3022 4454 
Q 3406 4159 3406 3634 
Q 3406 3213 3140 2930 
Q 2875 2647 2388 2547 
Q 2963 2466 3280 2130 
Q 3597 1794 3597 1259 
Q 3597 606 3158 257 
Q 2719 -91 1894 -91 
Q 1528 -91 1179 -12 
Q 831 66 488 225 
L 488 1131 
L 838 1131 
Q 869 681 1141 450 
Q 1413 219 1906 219 
Q 2384 219 2661 495 
Q 2938 772 2938 1253 
Q 2938 1803 2653 2086 
Q 2369 2369 1819 2369 
L 1522 2369 
L 1522 2688 
L 1678 2688 
Q 2225 2688 2498 2914 
Q 2772 3141 2772 3597 
Q 2772 4006 2547 4223 
Q 2322 4441 1900 4441 
Q 1478 4441 1245 4241 
Q 1013 4041 972 3647 
L 622 3647 
L 622 4469 
z
" transform="scale(0.015625)"/>
       </defs>
       <use xlink:href="#DejaVuSerif-2212" transform="translate(0 0.78125)"/>
       <use xlink:href="#DejaVuSerif-33" transform="translate(83.789062 0.78125)"/>
      </g>
     </g>
    </g>
    <g id="xtick_2">
     <g id="line2d_2">
      <g>
       <use xlink:href="#m00013af6d3" x="101.24442" y="235.96" style="fill: #030303; stroke: #030303; stroke-width: 0.8"/>
      </g>
     </g>
     <g id="text_2">
      <!-- $\mathdefault{−2}$ -->
      <g style="fill: #030303" transform="translate(91.62442 252.837969) scale(0.13 -0.13)">
       <defs>
        <path id="DejaVuSerif-32" d="M 819 3553 
L 469 3553 
L 469 4384 
Q 803 4563 1142 4656 
Q 1481 4750 1806 4750 
Q 2534 4750 2956 4397 
Q 3378 4044 3378 3438 
Q 3378 2753 2422 1800 
Q 2347 1728 2309 1691 
L 1131 513 
L 3078 513 
L 3078 1088 
L 3444 1088 
L 3444 0 
L 434 0 
L 434 341 
L 1850 1753 
Q 2319 2222 2519 2614 
Q 2719 3006 2719 3438 
Q 2719 3909 2473 4175 
Q 2228 4441 1797 4441 
Q 1350 4441 1106 4219 
Q 863 3997 819 3553 
z
" transform="scale(0.015625)"/>
       </defs>
       <use xlink:href="#DejaVuSerif-2212" transform="translate(0 0.78125)"/>
       <use xlink:href="#DejaVuSerif-32" transform="translate(83.789062 0.78125)"/>
      </g>
     </g>
    </g>
    <g id="xtick_3">
     <g id="line2d_3">
      <g>
       <use xlink:href="#m00013af6d3" x="148.028492" y="235.96" style="fill: #030303; stroke: #030303; stroke-width: 0.8"/>
      </g>
     </g>
     <g id="text_3">
      <!-- $\mathdefault{−1}$ -->
      <g style="fill: #030303" transform="translate(138.408492 252.837969) scale(0.13 -0.13)">
       <defs>
        <path id="DejaVuSerif-31" d="M 909 0 
L 909 331 
L 1722 331 
L 1722 4213 
L 781 3603 
L 781 4013 
L 1919 4750 
L 2350 4750 
L 2350 331 
L 3163 331 
L 3163 0 
L 909 0 
z
" transform="scale(0.015625)"/>
       </defs>
       <use xlink:href="#DejaVuSerif-2212" transform="translate(0 0.78125)"/>
       <use xlink:href="#DejaVuSerif-31" transform="translate(83.789062 0.78125)"/>
      </g>
     </g>
    </g>
    <g id="xtick_4">
     <g id="line2d_4">
      <g>
       <use xlink:href="#m00013af6d3" x="194.812563" y="235.96" style="fill: #030303; stroke: #030303; stroke-width: 0.8"/>
      </g>
     </g>
     <g id="text_4">
      <!-- $\mathdefault{0}$ -->
      <g style="fill: #030303" transform="translate(190.652563 252.837969) scale(0.13 -0.13)">
       <defs>
        <path id="DejaVuSerif-30" d="M 2034 219 
Q 2513 219 2750 744 
Q 2988 1269 2988 2328 
Q 2988 3391 2750 3916 
Q 2513 4441 2034 4441 
Q 1556 4441 1318 3916 
Q 1081 3391 1081 2328 
Q 1081 1269 1318 744 
Q 1556 219 2034 219 
z
M 2034 -91 
Q 1275 -91 848 546 
Q 422 1184 422 2328 
Q 422 3475 848 4112 
Q 1275 4750 2034 4750 
Q 2797 4750 3222 4112 
Q 3647 3475 3647 2328 
Q 3647 1184 3222 546 
Q 2797 -91 2034 -91 
z
" transform="scale(0.015625)"/>
       </defs>
       <use xlink:href="#DejaVuSerif-30" transform="translate(0 0.78125)"/>
      </g>
     </g>
    </g>
    <g id="xtick_5">
     <g id="line2d_5">
      <g>
       <use xlink:href="#m00013af6d3" x="241.596635" y="235.96" style="fill: #030303; stroke: #030303; stroke-width: 0.8"/>
      </g>
     </g>
     <g id="text_5">
      <!-- $\mathdefault{1}$ -->
      <g style="fill: #030303" transform="translate(237.436635 252.837969) scale(0.13 -0.13)">
       <use xlink:href="#DejaVuSerif-31" transform="translate(0 0.78125)"/>
      </g>
     </g>
    </g>
    <g id="xtick_6">
     <g id="line2d_6">
      <g>
       <use xlink:href="#m00013af6d3" x="288.380707" y="235.96" style="fill: #030303; stroke: #030303; stroke-width: 0.8"/>
      </g>
     </g>
     <g id="text_6">
      <!-- $\mathdefault{2}$ -->
      <g style="fill: #030303" transform="translate(284.220707 252.837969) scale(0.13 -0.13)">
       <use xlink:href="#DejaVuSerif-32" transform="translate(0 0.78125)"/>
      </g>
     </g>
    </g>
    <g id="xtick_7">
     <g id="line2d_7">
      <g>
       <use xlink:href="#m00013af6d3" x="335.164778" y="235.96" style="fill: #030303; stroke: #030303; stroke-width: 0.8"/>
      </g>
     </g>
     <g id="text_7">
      <!-- $\mathdefault{3}$ -->
      <g style="fill: #030303" transform="translate(331.004778 252.837969) scale(0.13 -0.13)">
       <use xlink:href="#DejaVuSerif-33" transform="translate(0 0.78125)"/>
      </g>
     </g>
    </g>
    <g id="text_8">
     <!-- Z-statistic -->
     <g style="fill: #030303" transform="translate(149.266938 273.21875) scale(0.18 -0.18)">
      <defs>
       <path id="DejaVuSerif-5a" d="M 288 0 
L 288 225 
L 3194 4281 
L 781 4281 
L 781 3584 
L 397 3584 
L 397 4666 
L 4084 4666 
L 4084 4441 
L 1178 384 
L 3816 384 
L 3816 1038 
L 4197 1038 
L 4197 0 
L 288 0 
z
" transform="scale(0.015625)"/>
       <path id="DejaVuSerif-2d" d="M 281 1959 
L 1881 1959 
L 1881 1472 
L 281 1472 
L 281 1959 
z
" transform="scale(0.015625)"/>
       <path id="DejaVuSerif-73" d="M 359 184 
L 359 959 
L 691 959 
Q 703 588 923 403 
Q 1144 219 1575 219 
Q 1963 219 2166 364 
Q 2369 509 2369 788 
Q 2369 1006 2220 1140 
Q 2072 1275 1594 1428 
L 1178 1569 
Q 750 1706 558 1912 
Q 366 2119 366 2438 
Q 366 2894 700 3153 
Q 1034 3413 1625 3413 
Q 1888 3413 2178 3344 
Q 2469 3275 2778 3144 
L 2778 2419 
L 2447 2419 
Q 2434 2741 2221 2922 
Q 2009 3103 1644 3103 
Q 1281 3103 1095 2975 
Q 909 2847 909 2591 
Q 909 2381 1050 2254 
Q 1191 2128 1613 1997 
L 2069 1856 
Q 2541 1709 2748 1489 
Q 2956 1269 2956 922 
Q 2956 450 2595 179 
Q 2234 -91 1600 -91 
Q 1278 -91 972 -22 
Q 666 47 359 184 
z
" transform="scale(0.015625)"/>
       <path id="DejaVuSerif-74" d="M 691 2988 
L 184 2988 
L 184 3322 
L 691 3322 
L 691 4353 
L 1269 4353 
L 1269 3322 
L 2350 3322 
L 2350 2988 
L 1269 2988 
L 1269 878 
Q 1269 456 1350 337 
Q 1431 219 1650 219 
Q 1875 219 1978 351 
Q 2081 484 2088 781 
L 2522 781 
Q 2497 328 2275 118 
Q 2053 -91 1600 -91 
Q 1103 -91 897 129 
Q 691 350 691 878 
L 691 2988 
z
" transform="scale(0.015625)"/>
       <path id="DejaVuSerif-61" d="M 2547 1044 
L 2547 1747 
L 1806 1747 
Q 1378 1747 1168 1562 
Q 959 1378 959 997 
Q 959 650 1171 447 
Q 1384 244 1747 244 
Q 2106 244 2326 466 
Q 2547 688 2547 1044 
z
M 3122 2075 
L 3122 331 
L 3634 331 
L 3634 0 
L 2547 0 
L 2547 359 
Q 2356 128 2106 18 
Q 1856 -91 1522 -91 
Q 969 -91 644 203 
Q 319 497 319 997 
Q 319 1513 691 1797 
Q 1063 2081 1741 2081 
L 2547 2081 
L 2547 2309 
Q 2547 2688 2317 2895 
Q 2088 3103 1672 3103 
Q 1328 3103 1125 2947 
Q 922 2791 872 2484 
L 575 2484 
L 575 3156 
Q 875 3284 1158 3348 
Q 1441 3413 1709 3413 
Q 2400 3413 2761 3070 
Q 3122 2728 3122 2075 
z
" transform="scale(0.015625)"/>
       <path id="DejaVuSerif-69" d="M 622 4353 
Q 622 4497 726 4603 
Q 831 4709 978 4709 
Q 1122 4709 1226 4603 
Q 1331 4497 1331 4353 
Q 1331 4206 1228 4103 
Q 1125 4000 978 4000 
Q 831 4000 726 4103 
Q 622 4206 622 4353 
z
M 1356 331 
L 1900 331 
L 1900 0 
L 231 0 
L 231 331 
L 781 331 
L 781 2988 
L 231 2988 
L 231 3322 
L 1356 3322 
L 1356 331 
z
" transform="scale(0.015625)"/>
       <path id="DejaVuSerif-63" d="M 3291 997 
Q 3169 466 2822 187 
Q 2475 -91 1925 -91 
Q 1200 -91 759 389 
Q 319 869 319 1663 
Q 319 2459 759 2936 
Q 1200 3413 1925 3413 
Q 2241 3413 2553 3339 
Q 2866 3266 3181 3116 
L 3181 2266 
L 2847 2266 
Q 2781 2703 2561 2903 
Q 2341 3103 1931 3103 
Q 1466 3103 1228 2742 
Q 991 2381 991 1663 
Q 991 944 1227 581 
Q 1463 219 1931 219 
Q 2303 219 2525 412 
Q 2747 606 2828 997 
L 3291 997 
z
" transform="scale(0.015625)"/>
      </defs>
      <use xlink:href="#DejaVuSerif-5a"/>
      <use xlink:href="#DejaVuSerif-2d" x="69.482422"/>
      <use xlink:href="#DejaVuSerif-73" x="103.271484"/>
      <use xlink:href="#DejaVuSerif-74" x="154.589844"/>
      <use xlink:href="#DejaVuSerif-61" x="194.775391"/>
      <use xlink:href="#DejaVuSerif-74" x="254.394531"/>
      <use xlink:href="#DejaVuSerif-69" x="294.580078"/>
      <use xlink:href="#DejaVuSerif-73" x="326.5625"/>
      <use xlink:href="#DejaVuSerif-74" x="377.880859"/>
      <use xlink:href="#DejaVuSerif-69" x="418.066406"/>
      <use xlink:href="#DejaVuSerif-63" x="450.048828"/>
     </g>
    </g>
   </g>
   <g id="matplotlib.axis_2">
    <g id="ytick_1">
     <g id="line2d_8">
      <defs>
       <path id="mc1df8d8ac4" d="M 0 0 
L -3.5 0 
" style="stroke: #030303; stroke-width: 0.8"/>
      </defs>
      <g>
       <use xlink:href="#mc1df8d8ac4" x="40.425127" y="226.390909" style="fill: #030303; stroke: #030303; stroke-width: 0.8"/>
      </g>
     </g>
     <g id="text_9">
      <!-- $\mathdefault{0.00}$ -->
      <g style="fill: #030303" transform="translate(11.125127 230.190128) scale(0.1 -0.1)">
       <defs>
        <path id="DejaVuSerif-2e" d="M 603 325 
Q 603 500 722 622 
Q 841 744 1019 744 
Q 1191 744 1312 622 
Q 1434 500 1434 325 
Q 1434 153 1312 31 
Q 1191 -91 1019 -91 
Q 841 -91 722 29 
Q 603 150 603 325 
z
" transform="scale(0.015625)"/>
       </defs>
       <use xlink:href="#DejaVuSerif-30" transform="translate(0 0.78125)"/>
       <use xlink:href="#DejaVuSerif-2e" transform="translate(63.623047 0.78125)"/>
       <use xlink:href="#DejaVuSerif-30" transform="translate(95.410156 0.78125)"/>
       <use xlink:href="#DejaVuSerif-30" transform="translate(159.033203 0.78125)"/>
      </g>
     </g>
    </g>
    <g id="ytick_2">
     <g id="line2d_9">
      <g>
       <use xlink:href="#mc1df8d8ac4" x="40.425127" y="202.404322" style="fill: #030303; stroke: #030303; stroke-width: 0.8"/>
      </g>
     </g>
     <g id="text_10">
      <!-- $\mathdefault{0.05}$ -->
      <g style="fill: #030303" transform="translate(11.125127 206.203541) scale(0.1 -0.1)">
       <defs>
        <path id="DejaVuSerif-35" d="M 3219 4666 
L 3219 4153 
L 1081 4153 
L 1081 2816 
Q 1244 2928 1461 2984 
Q 1678 3041 1947 3041 
Q 2703 3041 3140 2622 
Q 3578 2203 3578 1478 
Q 3578 738 3136 323 
Q 2694 -91 1894 -91 
Q 1572 -91 1234 -12 
Q 897 66 544 225 
L 544 1131 
L 897 1131 
Q 925 688 1179 453 
Q 1434 219 1894 219 
Q 2388 219 2653 544 
Q 2919 869 2919 1478 
Q 2919 2084 2655 2407 
Q 2391 2731 1894 2731 
Q 1613 2731 1398 2631 
Q 1184 2531 1019 2322 
L 750 2322 
L 750 4666 
L 3219 4666 
z
" transform="scale(0.015625)"/>
       </defs>
       <use xlink:href="#DejaVuSerif-30" transform="translate(0 0.78125)"/>
       <use xlink:href="#DejaVuSerif-2e" transform="translate(63.623047 0.78125)"/>
       <use xlink:href="#DejaVuSerif-30" transform="translate(95.410156 0.78125)"/>
       <use xlink:href="#DejaVuSerif-35" transform="translate(159.033203 0.78125)"/>
      </g>
     </g>
    </g>
    <g id="ytick_3">
     <g id="line2d_10">
      <g>
       <use xlink:href="#mc1df8d8ac4" x="40.425127" y="178.417734" style="fill: #030303; stroke: #030303; stroke-width: 0.8"/>
      </g>
     </g>
     <g id="text_11">
      <!-- $\mathdefault{0.10}$ -->
      <g style="fill: #030303" transform="translate(11.125127 182.216953) scale(0.1 -0.1)">
       <use xlink:href="#DejaVuSerif-30" transform="translate(0 0.78125)"/>
       <use xlink:href="#DejaVuSerif-2e" transform="translate(63.623047 0.78125)"/>
       <use xlink:href="#DejaVuSerif-31" transform="translate(95.410156 0.78125)"/>
       <use xlink:href="#DejaVuSerif-30" transform="translate(159.033203 0.78125)"/>
      </g>
     </g>
    </g>
    <g id="ytick_4">
     <g id="line2d_11">
      <g>
       <use xlink:href="#mc1df8d8ac4" x="40.425127" y="154.431147" style="fill: #030303; stroke: #030303; stroke-width: 0.8"/>
      </g>
     </g>
     <g id="text_12">
      <!-- $\mathdefault{0.15}$ -->
      <g style="fill: #030303" transform="translate(11.125127 158.230366) scale(0.1 -0.1)">
       <use xlink:href="#DejaVuSerif-30" transform="translate(0 0.78125)"/>
       <use xlink:href="#DejaVuSerif-2e" transform="translate(63.623047 0.78125)"/>
       <use xlink:href="#DejaVuSerif-31" transform="translate(95.410156 0.78125)"/>
       <use xlink:href="#DejaVuSerif-35" transform="translate(159.033203 0.78125)"/>
      </g>
     </g>
    </g>
    <g id="ytick_5">
     <g id="line2d_12">
      <g>
       <use xlink:href="#mc1df8d8ac4" x="40.425127" y="130.44456" style="fill: #030303; stroke: #030303; stroke-width: 0.8"/>
      </g>
     </g>
     <g id="text_13">
      <!-- $\mathdefault{0.20}$ -->
      <g style="fill: #030303" transform="translate(11.325127 134.243779) scale(0.1 -0.1)">
       <use xlink:href="#DejaVuSerif-30" transform="translate(0 0.78125)"/>
       <use xlink:href="#DejaVuSerif-2e" transform="translate(63.623047 0.78125)"/>
       <use xlink:href="#DejaVuSerif-32" transform="translate(92.785156 0.78125)"/>
       <use xlink:href="#DejaVuSerif-30" transform="translate(156.408203 0.78125)"/>
      </g>
     </g>
    </g>
    <g id="ytick_6">
     <g id="line2d_13">
      <g>
       <use xlink:href="#mc1df8d8ac4" x="40.425127" y="106.457972" style="fill: #030303; stroke: #030303; stroke-width: 0.8"/>
      </g>
     </g>
     <g id="text_14">
      <!-- $\mathdefault{0.25}$ -->
      <g style="fill: #030303" transform="translate(11.325127 110.257191) scale(0.1 -0.1)">
       <use xlink:href="#DejaVuSerif-30" transform="translate(0 0.78125)"/>
       <use xlink:href="#DejaVuSerif-2e" transform="translate(63.623047 0.78125)"/>
       <use xlink:href="#DejaVuSerif-32" transform="translate(92.785156 0.78125)"/>
       <use xlink:href="#DejaVuSerif-35" transform="translate(156.408203 0.78125)"/>
      </g>
     </g>
    </g>
    <g id="ytick_7">
     <g id="line2d_14">
      <g>
       <use xlink:href="#mc1df8d8ac4" x="40.425127" y="82.471385" style="fill: #030303; stroke: #030303; stroke-width: 0.8"/>
      </g>
     </g>
     <g id="text_15">
      <!-- $\mathdefault{0.30}$ -->
      <g style="fill: #030303" transform="translate(11.125127 86.270604) scale(0.1 -0.1)">
       <use xlink:href="#DejaVuSerif-30" transform="translate(0 0.78125)"/>
       <use xlink:href="#DejaVuSerif-2e" transform="translate(63.623047 0.78125)"/>
       <use xlink:href="#DejaVuSerif-33" transform="translate(95.410156 0.78125)"/>
       <use xlink:href="#DejaVuSerif-30" transform="translate(159.033203 0.78125)"/>
      </g>
     </g>
    </g>
    <g id="ytick_8">
     <g id="line2d_15">
      <g>
       <use xlink:href="#mc1df8d8ac4" x="40.425127" y="58.484798" style="fill: #030303; stroke: #030303; stroke-width: 0.8"/>
      </g>
     </g>
     <g id="text_16">
      <!-- $\mathdefault{0.35}$ -->
      <g style="fill: #030303" transform="translate(11.125127 62.284017) scale(0.1 -0.1)">
       <use xlink:href="#DejaVuSerif-30" transform="translate(0 0.78125)"/>
       <use xlink:href="#DejaVuSerif-2e" transform="translate(63.623047 0.78125)"/>
       <use xlink:href="#DejaVuSerif-33" transform="translate(95.410156 0.78125)"/>
       <use xlink:href="#DejaVuSerif-35" transform="translate(159.033203 0.78125)"/>
      </g>
     </g>
    </g>
    <g id="ytick_9">
     <g id="line2d_16">
      <g>
       <use xlink:href="#mc1df8d8ac4" x="40.425127" y="34.498211" style="fill: #030303; stroke: #030303; stroke-width: 0.8"/>
      </g>
     </g>
     <g id="text_17">
      <!-- $\mathdefault{0.40}$ -->
      <g style="fill: #030303" transform="translate(11.125127 38.297429) scale(0.1 -0.1)">
       <defs>
        <path id="DejaVuSerif-34" d="M 2234 1581 
L 2234 4063 
L 641 1581 
L 2234 1581 
z
M 3609 0 
L 1484 0 
L 1484 331 
L 2234 331 
L 2234 1247 
L 197 1247 
L 197 1588 
L 2241 4750 
L 2859 4750 
L 2859 1581 
L 3750 1581 
L 3750 1247 
L 2859 1247 
L 2859 331 
L 3609 331 
L 3609 0 
z
" transform="scale(0.015625)"/>
       </defs>
       <use xlink:href="#DejaVuSerif-30" transform="translate(0 0.78125)"/>
       <use xlink:href="#DejaVuSerif-2e" transform="translate(63.623047 0.78125)"/>
       <use xlink:href="#DejaVuSerif-34" transform="translate(95.410156 0.78125)"/>
       <use xlink:href="#DejaVuSerif-30" transform="translate(159.033203 0.78125)"/>
      </g>
     </g>
    </g>
   </g>
   <g id="line2d_17">
    <path d="M 54.460348 224.264811 
L 59.523154 223.466529 
L 64.023425 222.546486 
L 68.523697 221.383535 
L 72.461434 220.128447 
L 76.399172 218.614063 
L 79.774375 217.080341 
L 83.149579 215.30201 
L 86.524782 213.252575 
L 89.899986 210.905176 
L 92.712656 208.702127 
L 95.525325 206.258564 
L 98.337995 203.560113 
L 101.150664 200.593385 
L 103.963334 197.346318 
L 106.776004 193.808532 
L 110.151207 189.167879 
L 113.526411 184.087023 
L 116.901614 178.56223 
L 120.276818 172.596629 
L 123.652022 166.201041 
L 127.589759 158.222212 
L 131.527497 149.730715 
L 136.027768 139.480652 
L 141.653107 126.034203 
L 151.778718 101.025088 
L 157.966591 86.039233 
L 162.466863 75.692057 
L 166.4046 67.227107 
L 169.779804 60.531827 
L 172.592473 55.418901 
L 175.405143 50.784228 
L 177.655279 47.452469 
L 179.905414 44.478792 
L 182.15555 41.883003 
L 184.405686 39.682575 
L 186.093288 38.3008 
L 187.780889 37.155192 
L 189.468491 36.250179 
L 191.156093 35.58927 
L 192.843695 35.175036 
L 194.531297 35.009091 
L 196.218898 35.092082 
L 197.9065 35.423684 
L 199.594102 36.002607 
L 201.281704 36.826596 
L 202.969305 37.892453 
L 204.656907 39.196053 
L 206.344509 40.732373 
L 208.594645 43.132512 
L 210.84478 45.91958 
L 213.094916 49.074912 
L 215.345052 52.577613 
L 218.157721 57.409441 
L 220.970391 62.699672 
L 224.345595 69.579736 
L 228.283332 78.219778 
L 232.783604 88.712251 
L 238.971477 103.803234 
L 251.347223 134.173131 
L 256.410029 145.94967 
L 260.9103 155.845938 
L 264.848038 163.976694 
L 268.785775 171.560146 
L 272.160979 177.598382 
L 275.536182 183.197058 
L 278.911386 188.351819 
L 282.286589 193.065315 
L 285.661793 197.346318 
L 289.036996 201.208793 
L 291.849666 204.120854 
L 294.662336 206.76722 
L 298.037539 209.611378 
L 301.412743 212.1178 
L 304.787946 214.312856 
L 308.16315 216.223393 
L 311.538354 217.87615 
L 314.913557 219.297264 
L 318.851295 220.695925 
L 322.789032 221.851087 
L 327.289304 222.917523 
L 331.789575 223.757922 
L 335.164778 224.264811 
L 335.164778 224.264811 
" clip-path="url(#p526b47cce0)" style="fill: none; stroke: #000080; stroke-width: 2; stroke-linecap: square"/>
   </g>
   <g id="line2d_18">
    <path d="M 147.330454 235.96 
L 147.330454 25.44 
" clip-path="url(#p526b47cce0)" style="fill: none; stroke-dasharray: 5.55,2.4; stroke-dashoffset: 0; stroke: #ff0000; stroke-width: 1.5"/>
   </g>
   <g id="line2d_19">
    <path d="M 103.115783 235.96 
L 103.115783 25.44 
" clip-path="url(#p526b47cce0)" style="fill: none; stroke-dasharray: 1.5,2.475; stroke-dashoffset: 0; stroke: #8b0000; stroke-width: 1.5"/>
   </g>
   <g id="line2d_20">
    <path d="M 286.509344 235.96 
L 286.509344 25.44 
" clip-path="url(#p526b47cce0)" style="fill: none; stroke-dasharray: 1.5,2.475; stroke-dashoffset: 0; stroke: #8b0000; stroke-width: 1.5"/>
   </g>
   <g id="patch_3">
    <path d="M 40.425127 235.96 
L 40.425127 25.44 
" style="fill: none; stroke: #030303; stroke-width: 1.5; stroke-linejoin: miter; stroke-linecap: square"/>
   </g>
   <g id="patch_4">
    <path d="M 40.425127 235.96 
L 349.2 235.96 
" style="fill: none; stroke: #030303; stroke-width: 1.5; stroke-linejoin: miter; stroke-linecap: square"/>
   </g>
   <g id="text_18">
    <!-- Null Distribution for Two-Sample Z-Test -->
    <g style="fill: #030303" transform="translate(73.206626 19.44) scale(0.12 -0.12)">
     <defs>
      <path id="DejaVuSerif-4e" d="M 313 0 
L 313 331 
L 941 331 
L 941 4331 
L 313 4331 
L 313 4666 
L 1509 4666 
L 4306 984 
L 4306 4331 
L 3681 4331 
L 3681 4666 
L 5319 4666 
L 5319 4331 
L 4691 4331 
L 4691 -91 
L 4313 -91 
L 1325 3841 
L 1325 331 
L 1953 331 
L 1953 0 
L 313 0 
z
" transform="scale(0.015625)"/>
      <path id="DejaVuSerif-75" d="M 2266 3322 
L 3341 3322 
L 3341 331 
L 3884 331 
L 3884 0 
L 2766 0 
L 2766 588 
Q 2606 256 2353 82 
Q 2100 -91 1766 -91 
Q 1213 -91 952 223 
Q 691 538 691 1209 
L 691 2988 
L 172 2988 
L 172 3322 
L 1269 3322 
L 1269 1388 
Q 1269 781 1417 556 
Q 1566 331 1947 331 
Q 2347 331 2556 625 
Q 2766 919 2766 1478 
L 2766 2988 
L 2266 2988 
L 2266 3322 
z
" transform="scale(0.015625)"/>
      <path id="DejaVuSerif-6c" d="M 1313 331 
L 1856 331 
L 1856 0 
L 184 0 
L 184 331 
L 738 331 
L 738 4531 
L 184 4531 
L 184 4863 
L 1313 4863 
L 1313 331 
z
" transform="scale(0.015625)"/>
      <path id="DejaVuSerif-20" transform="scale(0.015625)"/>
      <path id="DejaVuSerif-44" d="M 1581 331 
L 2163 331 
Q 3072 331 3558 850 
Q 4044 1369 4044 2338 
Q 4044 3306 3559 3818 
Q 3075 4331 2163 4331 
L 1581 4331 
L 1581 331 
z
M 353 0 
L 353 331 
L 947 331 
L 947 4331 
L 353 4331 
L 353 4666 
L 2209 4666 
Q 3416 4666 4089 4050 
Q 4763 3434 4763 2338 
Q 4763 1238 4088 619 
Q 3413 0 2209 0 
L 353 0 
z
" transform="scale(0.015625)"/>
      <path id="DejaVuSerif-72" d="M 3059 3328 
L 3059 2497 
L 2728 2497 
Q 2713 2744 2591 2866 
Q 2469 2988 2234 2988 
Q 1809 2988 1582 2694 
Q 1356 2400 1356 1850 
L 1356 331 
L 2022 331 
L 2022 0 
L 263 0 
L 263 331 
L 781 331 
L 781 2994 
L 231 2994 
L 231 3322 
L 1356 3322 
L 1356 2731 
Q 1525 3078 1790 3245 
Q 2056 3413 2438 3413 
Q 2578 3413 2733 3391 
Q 2888 3369 3059 3328 
z
" transform="scale(0.015625)"/>
      <path id="DejaVuSerif-62" d="M 738 331 
L 738 4531 
L 184 4531 
L 184 4863 
L 1313 4863 
L 1313 2803 
Q 1481 3116 1742 3264 
Q 2003 3413 2388 3413 
Q 3000 3413 3387 2928 
Q 3775 2444 3775 1663 
Q 3775 881 3387 395 
Q 3000 -91 2388 -91 
Q 2003 -91 1742 57 
Q 1481 206 1313 519 
L 1313 0 
L 184 0 
L 184 331 
L 738 331 
z
M 1313 1497 
Q 1313 897 1542 583 
Q 1772 269 2209 269 
Q 2650 269 2876 622 
Q 3103 975 3103 1663 
Q 3103 2353 2876 2703 
Q 2650 3053 2209 3053 
Q 1772 3053 1542 2737 
Q 1313 2422 1313 1825 
L 1313 1497 
z
" transform="scale(0.015625)"/>
      <path id="DejaVuSerif-6f" d="M 1925 219 
Q 2388 219 2623 584 
Q 2859 950 2859 1663 
Q 2859 2375 2623 2739 
Q 2388 3103 1925 3103 
Q 1463 3103 1227 2739 
Q 991 2375 991 1663 
Q 991 950 1228 584 
Q 1466 219 1925 219 
z
M 1925 -91 
Q 1200 -91 759 389 
Q 319 869 319 1663 
Q 319 2456 758 2934 
Q 1197 3413 1925 3413 
Q 2653 3413 3092 2934 
Q 3531 2456 3531 1663 
Q 3531 869 3092 389 
Q 2653 -91 1925 -91 
z
" transform="scale(0.015625)"/>
      <path id="DejaVuSerif-6e" d="M 263 0 
L 263 331 
L 781 331 
L 781 2988 
L 231 2988 
L 231 3322 
L 1356 3322 
L 1356 2731 
Q 1516 3069 1770 3241 
Q 2025 3413 2363 3413 
Q 2913 3413 3172 3097 
Q 3431 2781 3431 2113 
L 3431 331 
L 3944 331 
L 3944 0 
L 2356 0 
L 2356 331 
L 2853 331 
L 2853 1931 
Q 2853 2541 2703 2767 
Q 2553 2994 2175 2994 
Q 1775 2994 1565 2701 
Q 1356 2409 1356 1850 
L 1356 331 
L 1856 331 
L 1856 0 
L 263 0 
z
" transform="scale(0.015625)"/>
      <path id="DejaVuSerif-66" d="M 2753 4078 
L 2450 4078 
Q 2447 4313 2317 4434 
Q 2188 4556 1941 4556 
Q 1619 4556 1487 4379 
Q 1356 4203 1356 3750 
L 1356 3322 
L 2284 3322 
L 2284 2988 
L 1356 2988 
L 1356 331 
L 2094 331 
L 2094 0 
L 231 0 
L 231 331 
L 781 331 
L 781 2988 
L 231 2988 
L 231 3322 
L 781 3322 
L 781 3738 
Q 781 4294 1070 4578 
Q 1359 4863 1919 4863 
Q 2128 4863 2337 4825 
Q 2547 4788 2753 4709 
L 2753 4078 
z
" transform="scale(0.015625)"/>
      <path id="DejaVuSerif-54" d="M 1222 0 
L 1222 331 
L 1819 331 
L 1819 4294 
L 447 4294 
L 447 3566 
L 63 3566 
L 63 4666 
L 4206 4666 
L 4206 3566 
L 3822 3566 
L 3822 4294 
L 2450 4294 
L 2450 331 
L 3047 331 
L 3047 0 
L 1222 0 
z
" transform="scale(0.015625)"/>
      <path id="DejaVuSerif-77" d="M 3072 3322 
L 3922 728 
L 4672 2988 
L 4191 2988 
L 4191 3322 
L 5394 3322 
L 5394 2988 
L 5025 2988 
L 4038 0 
L 3559 0 
L 2741 2484 
L 1919 0 
L 1459 0 
L 475 2988 
L 103 2988 
L 103 3322 
L 1606 3322 
L 1606 2988 
L 1069 2988 
L 1813 728 
L 2669 3322 
L 3072 3322 
z
" transform="scale(0.015625)"/>
      <path id="DejaVuSerif-53" d="M 594 225 
L 594 1288 
L 953 1284 
Q 969 753 1261 498 
Q 1553 244 2150 244 
Q 2706 244 2998 464 
Q 3291 684 3291 1106 
Q 3291 1444 3114 1625 
Q 2938 1806 2369 1978 
L 1753 2163 
Q 1084 2366 811 2669 
Q 538 2972 538 3500 
Q 538 4094 959 4422 
Q 1381 4750 2144 4750 
Q 2469 4750 2856 4679 
Q 3244 4609 3681 4475 
L 3681 3481 
L 3328 3481 
Q 3275 3975 2998 4195 
Q 2722 4416 2156 4416 
Q 1663 4416 1405 4214 
Q 1147 4013 1147 3628 
Q 1147 3294 1340 3103 
Q 1534 2913 2163 2725 
L 2741 2553 
Q 3375 2363 3645 2067 
Q 3916 1772 3916 1275 
Q 3916 597 3481 253 
Q 3047 -91 2188 -91 
Q 1803 -91 1404 -12 
Q 1006 66 594 225 
z
" transform="scale(0.015625)"/>
      <path id="DejaVuSerif-6d" d="M 3316 2675 
Q 3481 3041 3739 3227 
Q 3997 3413 4341 3413 
Q 4863 3413 5119 3089 
Q 5375 2766 5375 2113 
L 5375 331 
L 5894 331 
L 5894 0 
L 4300 0 
L 4300 331 
L 4800 331 
L 4800 2047 
Q 4800 2556 4650 2772 
Q 4500 2988 4153 2988 
Q 3769 2988 3567 2697 
Q 3366 2406 3366 1850 
L 3366 331 
L 3866 331 
L 3866 0 
L 2291 0 
L 2291 331 
L 2791 331 
L 2791 2069 
Q 2791 2566 2641 2777 
Q 2491 2988 2144 2988 
Q 1759 2988 1557 2697 
Q 1356 2406 1356 1850 
L 1356 331 
L 1856 331 
L 1856 0 
L 263 0 
L 263 331 
L 781 331 
L 781 2994 
L 231 2994 
L 231 3322 
L 1356 3322 
L 1356 2731 
Q 1516 3063 1762 3238 
Q 2009 3413 2322 3413 
Q 2709 3413 2968 3220 
Q 3228 3028 3316 2675 
z
" transform="scale(0.015625)"/>
      <path id="DejaVuSerif-70" d="M 1313 1825 
L 1313 1497 
Q 1313 897 1542 583 
Q 1772 269 2209 269 
Q 2650 269 2876 622 
Q 3103 975 3103 1663 
Q 3103 2353 2876 2703 
Q 2650 3053 2209 3053 
Q 1772 3053 1542 2737 
Q 1313 2422 1313 1825 
z
M 738 2988 
L 184 2988 
L 184 3322 
L 1313 3322 
L 1313 2803 
Q 1481 3116 1742 3264 
Q 2003 3413 2388 3413 
Q 3000 3413 3387 2928 
Q 3775 2444 3775 1663 
Q 3775 881 3387 395 
Q 3000 -91 2388 -91 
Q 2003 -91 1742 57 
Q 1481 206 1313 519 
L 1313 -997 
L 1856 -997 
L 1856 -1331 
L 184 -1331 
L 184 -997 
L 738 -997 
L 738 2988 
z
" transform="scale(0.015625)"/>
      <path id="DejaVuSerif-65" d="M 3469 1600 
L 991 1600 
L 991 1575 
Q 991 903 1244 561 
Q 1497 219 1991 219 
Q 2369 219 2611 417 
Q 2853 616 2950 1006 
L 3413 1006 
Q 3275 459 2904 184 
Q 2534 -91 1931 -91 
Q 1203 -91 761 389 
Q 319 869 319 1663 
Q 319 2450 753 2931 
Q 1188 3413 1894 3413 
Q 2647 3413 3050 2948 
Q 3453 2484 3469 1600 
z
M 2791 1931 
Q 2772 2513 2545 2808 
Q 2319 3103 1894 3103 
Q 1497 3103 1269 2806 
Q 1041 2509 991 1931 
L 2791 1931 
z
" transform="scale(0.015625)"/>
     </defs>
     <use xlink:href="#DejaVuSerif-4e"/>
     <use xlink:href="#DejaVuSerif-75" x="87.5"/>
     <use xlink:href="#DejaVuSerif-6c" x="151.904297"/>
     <use xlink:href="#DejaVuSerif-6c" x="183.886719"/>
     <use xlink:href="#DejaVuSerif-20" x="215.869141"/>
     <use xlink:href="#DejaVuSerif-44" x="247.65625"/>
     <use xlink:href="#DejaVuSerif-69" x="327.832031"/>
     <use xlink:href="#DejaVuSerif-73" x="359.814453"/>
     <use xlink:href="#DejaVuSerif-74" x="411.132812"/>
     <use xlink:href="#DejaVuSerif-72" x="451.318359"/>
     <use xlink:href="#DejaVuSerif-69" x="499.121094"/>
     <use xlink:href="#DejaVuSerif-62" x="531.103516"/>
     <use xlink:href="#DejaVuSerif-75" x="595.117188"/>
     <use xlink:href="#DejaVuSerif-74" x="659.521484"/>
     <use xlink:href="#DejaVuSerif-69" x="699.707031"/>
     <use xlink:href="#DejaVuSerif-6f" x="731.689453"/>
     <use xlink:href="#DejaVuSerif-6e" x="791.894531"/>
     <use xlink:href="#DejaVuSerif-20" x="856.298828"/>
     <use xlink:href="#DejaVuSerif-66" x="888.085938"/>
     <use xlink:href="#DejaVuSerif-6f" x="925.097656"/>
     <use xlink:href="#DejaVuSerif-72" x="985.302734"/>
     <use xlink:href="#DejaVuSerif-20" x="1033.105469"/>
     <use xlink:href="#DejaVuSerif-54" x="1064.892578"/>
     <use xlink:href="#DejaVuSerif-77" x="1127.966797"/>
     <use xlink:href="#DejaVuSerif-6f" x="1213.5625"/>
     <use xlink:href="#DejaVuSerif-2d" x="1273.767578"/>
     <use xlink:href="#DejaVuSerif-53" x="1307.556641"/>
     <use xlink:href="#DejaVuSerif-61" x="1376.0625"/>
     <use xlink:href="#DejaVuSerif-6d" x="1435.681641"/>
     <use xlink:href="#DejaVuSerif-70" x="1530.505859"/>
     <use xlink:href="#DejaVuSerif-6c" x="1594.519531"/>
     <use xlink:href="#DejaVuSerif-65" x="1626.501953"/>
     <use xlink:href="#DejaVuSerif-20" x="1685.681641"/>
     <use xlink:href="#DejaVuSerif-5a" x="1717.46875"/>
     <use xlink:href="#DejaVuSerif-2d" x="1786.951172"/>
     <use xlink:href="#DejaVuSerif-54" x="1817.115234"/>
     <use xlink:href="#DejaVuSerif-65" x="1876.064453"/>
     <use xlink:href="#DejaVuSerif-73" x="1935.244141"/>
     <use xlink:href="#DejaVuSerif-74" x="1986.5625"/>
    </g>
   </g>
  </g>
 </g>
 <defs>
  <clipPath id="p526b47cce0">
   <rect x="40.425127" y="25.44" width="308.774873" height="210.52"/>
  </clipPath>
 </defs>
</svg>
