<?xml version="1.0" encoding="utf-8" standalone="no"?>
<!DOCTYPE svg PUBLIC "-//W3C//DTD SVG 1.1//EN"
  "http://www.w3.org/Graphics/SVG/1.1/DTD/svg11.dtd">
<svg xmlns:xlink="http://www.w3.org/1999/xlink" width="360pt" height="288pt" viewBox="0 0 360 288" xmlns="http://www.w3.org/2000/svg" version="1.1">
 <metadata>
  <rdf:RDF xmlns:dc="http://purl.org/dc/elements/1.1/" xmlns:cc="http://creativecommons.org/ns#" xmlns:rdf="http://www.w3.org/1999/02/22-rdf-syntax-ns#">
   <cc:Work>
    <dc:type rdf:resource="http://purl.org/dc/dcmitype/StillImage"/>
    <dc:date>2024-10-06T21:46:45.970280</dc:date>
    <dc:format>image/svg+xml</dc:format>
    <dc:creator>
     <cc:Agent>
      <dc:title>Matplotlib v3.9.2, https://matplotlib.org/</dc:title>
     </cc:Agent>
    </dc:creator>
   </cc:Work>
  </rdf:RDF>
 </metadata>
 <defs>
  <style type="text/css">*{stroke-linejoin: round; stroke-linecap: butt}</style>
 </defs>
 <g id="figure_1">
  <g id="patch_1">
   <path d="M 0 288 
L 360 288 
L 360 0 
L 0 0 
L 0 288 
z
" style="fill: none"/>
  </g>
  <g id="axes_1">
   <g id="patch_2">
    <path d="M 40.425127 235.48 
L 349.2 235.48 
L 349.2 25.44 
L 40.425127 25.44 
L 40.425127 235.48 
z
" style="fill: none"/>
   </g>
   <g id="PolyCollection_1">
    <defs>
     <path id="m4e943a26dc" d="M 126.464691 -90.70918 
L 126.464691 -62.067273 
L 127.027225 -62.067273 
L 127.589759 -62.067273 
L 128.152293 -62.067273 
L 128.714827 -62.067273 
L 129.277361 -62.067273 
L 129.839895 -62.067273 
L 130.402429 -62.067273 
L 130.964963 -62.067273 
L 131.527497 -62.067273 
L 132.090031 -62.067273 
L 132.652564 -62.067273 
L 133.215098 -62.067273 
L 133.777632 -62.067273 
L 134.340166 -62.067273 
L 134.9027 -62.067273 
L 135.465234 -62.067273 
L 136.027768 -62.067273 
L 136.590302 -62.067273 
L 137.152836 -62.067273 
L 137.71537 -62.067273 
L 138.277904 -62.067273 
L 138.840438 -62.067273 
L 139.402972 -62.067273 
L 139.965506 -62.067273 
L 140.528039 -62.067273 
L 141.090573 -62.067273 
L 141.653107 -62.067273 
L 142.215641 -62.067273 
L 142.778175 -62.067273 
L 143.340709 -62.067273 
L 143.903243 -62.067273 
L 144.465777 -62.067273 
L 145.028311 -62.067273 
L 145.590845 -62.067273 
L 146.153379 -62.067273 
L 146.715913 -62.067273 
L 147.278447 -62.067273 
L 147.84098 -62.067273 
L 148.403514 -62.067273 
L 148.966048 -62.067273 
L 149.528582 -62.067273 
L 150.091116 -62.067273 
L 150.65365 -62.067273 
L 151.216184 -62.067273 
L 151.778718 -62.067273 
L 152.341252 -62.067273 
L 152.903786 -62.067273 
L 153.46632 -62.067273 
L 154.028854 -62.067273 
L 154.591388 -62.067273 
L 155.153922 -62.067273 
L 155.716455 -62.067273 
L 156.278989 -62.067273 
L 156.841523 -62.067273 
L 157.404057 -62.067273 
L 157.966591 -62.067273 
L 158.529125 -62.067273 
L 159.091659 -62.067273 
L 159.654193 -62.067273 
L 160.216727 -62.067273 
L 160.779261 -62.067273 
L 161.341795 -62.067273 
L 161.904329 -62.067273 
L 162.466863 -62.067273 
L 163.029397 -62.067273 
L 163.59193 -62.067273 
L 164.154464 -62.067273 
L 164.716998 -62.067273 
L 165.279532 -62.067273 
L 165.842066 -62.067273 
L 166.4046 -62.067273 
L 166.967134 -62.067273 
L 167.529668 -62.067273 
L 168.092202 -62.067273 
L 168.654736 -62.067273 
L 169.21727 -62.067273 
L 169.779804 -62.067273 
L 170.342338 -62.067273 
L 170.904872 -62.067273 
L 171.467405 -62.067273 
L 172.029939 -62.067273 
L 172.592473 -62.067273 
L 173.155007 -62.067273 
L 173.717541 -62.067273 
L 174.280075 -62.067273 
L 174.842609 -62.067273 
L 175.405143 -62.067273 
L 175.967677 -62.067273 
L 176.530211 -62.067273 
L 177.092745 -62.067273 
L 177.655279 -62.067273 
L 178.217813 -62.067273 
L 178.780347 -62.067273 
L 179.34288 -62.067273 
L 179.905414 -62.067273 
L 180.467948 -62.067273 
L 181.030482 -62.067273 
L 181.593016 -62.067273 
L 182.15555 -62.067273 
L 182.718084 -62.067273 
L 183.280618 -62.067273 
L 183.843152 -62.067273 
L 184.405686 -62.067273 
L 184.96822 -62.067273 
L 185.530754 -62.067273 
L 186.093288 -62.067273 
L 186.655822 -62.067273 
L 187.218355 -62.067273 
L 187.780889 -62.067273 
L 188.343423 -62.067273 
L 188.905957 -62.067273 
L 189.468491 -62.067273 
L 190.031025 -62.067273 
L 190.593559 -62.067273 
L 191.156093 -62.067273 
L 191.718627 -62.067273 
L 192.281161 -62.067273 
L 192.843695 -62.067273 
L 193.406229 -62.067273 
L 193.968763 -62.067273 
L 194.531297 -62.067273 
L 195.09383 -62.067273 
L 195.656364 -62.067273 
L 196.218898 -62.067273 
L 196.781432 -62.067273 
L 197.343966 -62.067273 
L 197.9065 -62.067273 
L 198.469034 -62.067273 
L 199.031568 -62.067273 
L 199.594102 -62.067273 
L 200.156636 -62.067273 
L 200.71917 -62.067273 
L 201.281704 -62.067273 
L 201.844238 -62.067273 
L 202.406772 -62.067273 
L 202.969305 -62.067273 
L 203.531839 -62.067273 
L 204.094373 -62.067273 
L 204.656907 -62.067273 
L 205.219441 -62.067273 
L 205.781975 -62.067273 
L 206.344509 -62.067273 
L 206.907043 -62.067273 
L 207.469577 -62.067273 
L 208.032111 -62.067273 
L 208.594645 -62.067273 
L 209.157179 -62.067273 
L 209.719713 -62.067273 
L 210.282246 -62.067273 
L 210.84478 -62.067273 
L 211.407314 -62.067273 
L 211.969848 -62.067273 
L 212.532382 -62.067273 
L 213.094916 -62.067273 
L 213.65745 -62.067273 
L 214.219984 -62.067273 
L 214.782518 -62.067273 
L 215.345052 -62.067273 
L 215.907586 -62.067273 
L 216.47012 -62.067273 
L 217.032654 -62.067273 
L 217.595188 -62.067273 
L 218.157721 -62.067273 
L 218.720255 -62.067273 
L 219.282789 -62.067273 
L 219.845323 -62.067273 
L 220.407857 -62.067273 
L 220.970391 -62.067273 
L 221.532925 -62.067273 
L 222.095459 -62.067273 
L 222.657993 -62.067273 
L 223.220527 -62.067273 
L 223.783061 -62.067273 
L 224.345595 -62.067273 
L 224.908129 -62.067273 
L 225.470663 -62.067273 
L 226.033196 -62.067273 
L 226.59573 -62.067273 
L 227.158264 -62.067273 
L 227.720798 -62.067273 
L 228.283332 -62.067273 
L 228.845866 -62.067273 
L 229.4084 -62.067273 
L 229.970934 -62.067273 
L 230.533468 -62.067273 
L 231.096002 -62.067273 
L 231.658536 -62.067273 
L 232.22107 -62.067273 
L 232.783604 -62.067273 
L 233.346138 -62.067273 
L 233.908671 -62.067273 
L 234.471205 -62.067273 
L 235.033739 -62.067273 
L 235.596273 -62.067273 
L 236.158807 -62.067273 
L 236.721341 -62.067273 
L 237.283875 -62.067273 
L 237.846409 -62.067273 
L 238.408943 -62.067273 
L 238.971477 -62.067273 
L 239.534011 -62.067273 
L 240.096545 -62.067273 
L 240.659079 -62.067273 
L 241.221613 -62.067273 
L 241.784146 -62.067273 
L 242.34668 -62.067273 
L 242.909214 -62.067273 
L 243.471748 -62.067273 
L 244.034282 -62.067273 
L 244.596816 -62.067273 
L 245.15935 -62.067273 
L 245.721884 -62.067273 
L 246.284418 -62.067273 
L 246.846952 -62.067273 
L 247.409486 -62.067273 
L 247.97202 -62.067273 
L 248.534554 -62.067273 
L 249.097088 -62.067273 
L 249.659621 -62.067273 
L 250.222155 -62.067273 
L 250.784689 -62.067273 
L 251.347223 -62.067273 
L 251.909757 -62.067273 
L 252.472291 -62.067273 
L 253.034825 -62.067273 
L 253.597359 -62.067273 
L 254.159893 -62.067273 
L 254.722427 -62.067273 
L 255.284961 -62.067273 
L 255.847495 -62.067273 
L 256.410029 -62.067273 
L 256.972563 -62.067273 
L 257.535096 -62.067273 
L 258.09763 -62.067273 
L 258.660164 -62.067273 
L 259.222698 -62.067273 
L 259.785232 -62.067273 
L 260.347766 -62.067273 
L 260.9103 -62.067273 
L 261.472834 -62.067273 
L 262.035368 -62.067273 
L 262.597902 -62.067273 
L 263.160436 -62.067273 
L 263.160436 -90.70918 
L 263.160436 -90.70918 
L 262.597902 -91.613947 
L 262.035368 -92.539462 
L 261.472834 -93.485892 
L 260.9103 -94.453391 
L 260.347766 -95.442103 
L 259.785232 -96.452161 
L 259.222698 -97.483684 
L 258.660164 -98.536776 
L 258.09763 -99.611531 
L 257.535096 -100.708025 
L 256.972563 -101.826323 
L 256.410029 -102.966471 
L 255.847495 -104.128503 
L 255.284961 -105.312434 
L 254.722427 -106.518263 
L 254.159893 -107.745973 
L 253.597359 -108.995528 
L 253.034825 -110.266875 
L 252.472291 -111.559942 
L 251.909757 -112.874637 
L 251.347223 -114.210852 
L 250.784689 -115.568456 
L 250.222155 -116.947298 
L 249.659621 -118.347209 
L 249.097088 -119.767997 
L 248.534554 -121.20945 
L 247.97202 -122.671333 
L 247.409486 -124.153392 
L 246.846952 -125.655348 
L 246.284418 -127.176902 
L 245.721884 -128.717731 
L 245.15935 -130.277489 
L 244.596816 -131.855809 
L 244.034282 -133.4523 
L 243.471748 -135.066547 
L 242.909214 -136.698113 
L 242.34668 -138.346537 
L 241.784146 -140.011334 
L 241.221613 -141.691997 
L 240.659079 -143.387995 
L 240.096545 -145.098774 
L 239.534011 -146.823755 
L 238.971477 -148.562339 
L 238.408943 -150.313901 
L 237.846409 -152.077795 
L 237.283875 -153.853351 
L 236.721341 -155.639878 
L 236.158807 -157.436663 
L 235.596273 -159.242969 
L 235.033739 -161.058041 
L 234.471205 -162.881099 
L 233.908671 -164.711347 
L 233.346138 -166.547964 
L 232.783604 -168.390112 
L 232.22107 -170.236934 
L 231.658536 -172.087554 
L 231.096002 -173.941076 
L 230.533468 -175.79659 
L 229.970934 -177.653166 
L 229.4084 -179.509861 
L 228.845866 -181.365713 
L 228.283332 -183.219748 
L 227.720798 -185.070977 
L 227.158264 -186.9184 
L 226.59573 -188.761001 
L 226.033196 -190.597757 
L 225.470663 -192.42763 
L 224.908129 -194.249576 
L 224.345595 -196.062542 
L 223.783061 -197.865465 
L 223.220527 -199.657277 
L 222.657993 -201.436906 
L 222.095459 -203.203272 
L 221.532925 -204.955295 
L 220.970391 -206.691889 
L 220.407857 -208.41197 
L 219.845323 -210.114452 
L 219.282789 -211.798249 
L 218.720255 -213.462279 
L 218.157721 -215.105462 
L 217.595188 -216.726723 
L 217.032654 -218.324991 
L 216.47012 -219.899204 
L 215.907586 -221.448306 
L 215.345052 -222.97125 
L 214.782518 -224.467 
L 214.219984 -225.93453 
L 213.65745 -227.372829 
L 213.094916 -228.780896 
L 212.532382 -230.157748 
L 211.969848 -231.502416 
L 211.407314 -232.813948 
L 210.84478 -234.091412 
L 210.282246 -235.333894 
L 209.719713 -236.5405 
L 209.157179 -237.710357 
L 208.594645 -238.842617 
L 208.032111 -239.936452 
L 207.469577 -240.991062 
L 206.907043 -242.00567 
L 206.344509 -242.979525 
L 205.781975 -243.911907 
L 205.219441 -244.80212 
L 204.656907 -245.649499 
L 204.094373 -246.453409 
L 203.531839 -247.213246 
L 202.969305 -247.928437 
L 202.406772 -248.598441 
L 201.844238 -249.222749 
L 201.281704 -249.800889 
L 200.71917 -250.332419 
L 200.156636 -250.816933 
L 199.594102 -251.254063 
L 199.031568 -251.643472 
L 198.469034 -251.984863 
L 197.9065 -252.277972 
L 197.343966 -252.522576 
L 196.781432 -252.718485 
L 196.218898 -252.86555 
L 195.656364 -252.963655 
L 195.09383 -253.012727 
L 194.531297 -253.012727 
L 193.968763 -252.963655 
L 193.406229 -252.86555 
L 192.843695 -252.718485 
L 192.281161 -252.522576 
L 191.718627 -252.277972 
L 191.156093 -251.984863 
L 190.593559 -251.643472 
L 190.031025 -251.254063 
L 189.468491 -250.816933 
L 188.905957 -250.332419 
L 188.343423 -249.800889 
L 187.780889 -249.222749 
L 187.218355 -248.598441 
L 186.655822 -247.928437 
L 186.093288 -247.213246 
L 185.530754 -246.453409 
L 184.96822 -245.649499 
L 184.405686 -244.80212 
L 183.843152 -243.911907 
L 183.280618 -242.979525 
L 182.718084 -242.00567 
L 182.15555 -240.991062 
L 181.593016 -239.936452 
L 181.030482 -238.842617 
L 180.467948 -237.710357 
L 179.905414 -236.5405 
L 179.34288 -235.333894 
L 178.780347 -234.091412 
L 178.217813 -232.813948 
L 177.655279 -231.502416 
L 177.092745 -230.157748 
L 176.530211 -228.780896 
L 175.967677 -227.372829 
L 175.405143 -225.93453 
L 174.842609 -224.467 
L 174.280075 -222.97125 
L 173.717541 -221.448306 
L 173.155007 -219.899204 
L 172.592473 -218.324991 
L 172.029939 -216.726723 
L 171.467405 -215.105462 
L 170.904872 -213.462279 
L 170.342338 -211.798249 
L 169.779804 -210.114452 
L 169.21727 -208.41197 
L 168.654736 -206.691889 
L 168.092202 -204.955295 
L 167.529668 -203.203272 
L 166.967134 -201.436906 
L 166.4046 -199.657277 
L 165.842066 -197.865465 
L 165.279532 -196.062542 
L 164.716998 -194.249576 
L 164.154464 -192.42763 
L 163.59193 -190.597757 
L 163.029397 -188.761001 
L 162.466863 -186.9184 
L 161.904329 -185.070977 
L 161.341795 -183.219748 
L 160.779261 -181.365713 
L 160.216727 -179.509861 
L 159.654193 -177.653166 
L 159.091659 -175.79659 
L 158.529125 -173.941076 
L 157.966591 -172.087554 
L 157.404057 -170.236934 
L 156.841523 -168.390112 
L 156.278989 -166.547964 
L 155.716455 -164.711347 
L 155.153922 -162.881099 
L 154.591388 -161.058041 
L 154.028854 -159.242969 
L 153.46632 -157.436663 
L 152.903786 -155.639878 
L 152.341252 -153.853351 
L 151.778718 -152.077795 
L 151.216184 -150.313901 
L 150.65365 -148.562339 
L 150.091116 -146.823755 
L 149.528582 -145.098774 
L 148.966048 -143.387995 
L 148.403514 -141.691997 
L 147.84098 -140.011334 
L 147.278447 -138.346537 
L 146.715913 -136.698113 
L 146.153379 -135.066547 
L 145.590845 -133.4523 
L 145.028311 -131.855809 
L 144.465777 -130.277489 
L 143.903243 -128.717731 
L 143.340709 -127.176902 
L 142.778175 -125.655348 
L 142.215641 -124.153392 
L 141.653107 -122.671333 
L 141.090573 -121.20945 
L 140.528039 -119.767997 
L 139.965506 -118.347209 
L 139.402972 -116.947298 
L 138.840438 -115.568456 
L 138.277904 -114.210852 
L 137.71537 -112.874637 
L 137.152836 -111.559942 
L 136.590302 -110.266875 
L 136.027768 -108.995528 
L 135.465234 -107.745973 
L 134.9027 -106.518263 
L 134.340166 -105.312434 
L 133.777632 -104.128503 
L 133.215098 -102.966471 
L 132.652564 -101.826323 
L 132.090031 -100.708025 
L 131.527497 -99.611531 
L 130.964963 -98.536776 
L 130.402429 -97.483684 
L 129.839895 -96.452161 
L 129.277361 -95.442103 
L 128.714827 -94.453391 
L 128.152293 -93.485892 
L 127.589759 -92.539462 
L 127.027225 -91.613947 
L 126.464691 -90.70918 
z
" style="stroke: #add8e6; stroke-opacity: 0.5"/>
    </defs>
    <g clip-path="url(#pf818bcd970)">
     <use xlink:href="#m4e943a26dc" x="0" y="288" style="fill: #add8e6; fill-opacity: 0.5; stroke: #add8e6; stroke-opacity: 0.5"/>
    </g>
   </g>
   <g id="matplotlib.axis_1">
    <g id="xtick_1">
     <g id="line2d_1">
      <defs>
       <path id="mfd60dd3c45" d="M 0 0 
L 0 3.5 
" style="stroke: #030303; stroke-width: 0.8"/>
      </defs>
      <g>
       <use xlink:href="#mfd60dd3c45" x="72.144028" y="235.48" style="fill: #030303; stroke: #030303; stroke-width: 0.8"/>
      </g>
     </g>
     <g id="text_1">
      <!-- $\mathdefault{−6}$ -->
      <g style="fill: #030303" transform="translate(62.524028 252.357969) scale(0.13 -0.13)">
       <defs>
        <path id="DejaVuSerif-2212" d="M 678 2259 
L 4684 2259 
L 4684 1753 
L 678 1753 
L 678 2259 
z
" transform="scale(0.015625)"/>
        <path id="DejaVuSerif-36" d="M 2094 219 
Q 2534 219 2771 542 
Q 3009 866 3009 1472 
Q 3009 2078 2771 2401 
Q 2534 2725 2094 2725 
Q 1647 2725 1412 2412 
Q 1178 2100 1178 1509 
Q 1178 888 1415 553 
Q 1653 219 2094 219 
z
M 1075 2569 
Q 1288 2803 1556 2918 
Q 1825 3034 2163 3034 
Q 2859 3034 3264 2615 
Q 3669 2197 3669 1472 
Q 3669 763 3233 336 
Q 2797 -91 2069 -91 
Q 1278 -91 853 498 
Q 428 1088 428 2181 
Q 428 3406 931 4078 
Q 1434 4750 2350 4750 
Q 2597 4750 2869 4703 
Q 3141 4656 3425 4563 
L 3425 3794 
L 3072 3794 
Q 3034 4109 2831 4275 
Q 2628 4441 2284 4441 
Q 1678 4441 1381 3981 
Q 1084 3522 1075 2569 
z
" transform="scale(0.015625)"/>
       </defs>
       <use xlink:href="#DejaVuSerif-2212" transform="translate(0 0.78125)"/>
       <use xlink:href="#DejaVuSerif-36" transform="translate(83.789062 0.78125)"/>
      </g>
     </g>
    </g>
    <g id="xtick_2">
     <g id="line2d_2">
      <g>
       <use xlink:href="#mfd60dd3c45" x="124.904067" y="235.48" style="fill: #030303; stroke: #030303; stroke-width: 0.8"/>
      </g>
     </g>
     <g id="text_2">
      <!-- $\mathdefault{−4}$ -->
      <g style="fill: #030303" transform="translate(115.284067 252.357969) scale(0.13 -0.13)">
       <defs>
        <path id="DejaVuSerif-34" d="M 2234 1581 
L 2234 4063 
L 641 1581 
L 2234 1581 
z
M 3609 0 
L 1484 0 
L 1484 331 
L 2234 331 
L 2234 1247 
L 197 1247 
L 197 1588 
L 2241 4750 
L 2859 4750 
L 2859 1581 
L 3750 1581 
L 3750 1247 
L 2859 1247 
L 2859 331 
L 3609 331 
L 3609 0 
z
" transform="scale(0.015625)"/>
       </defs>
       <use xlink:href="#DejaVuSerif-2212" transform="translate(0 0.78125)"/>
       <use xlink:href="#DejaVuSerif-34" transform="translate(83.789062 0.78125)"/>
      </g>
     </g>
    </g>
    <g id="xtick_3">
     <g id="line2d_3">
      <g>
       <use xlink:href="#mfd60dd3c45" x="177.664107" y="235.48" style="fill: #030303; stroke: #030303; stroke-width: 0.8"/>
      </g>
     </g>
     <g id="text_3">
      <!-- $\mathdefault{−2}$ -->
      <g style="fill: #030303" transform="translate(168.044107 252.357969) scale(0.13 -0.13)">
       <defs>
        <path id="DejaVuSerif-32" d="M 819 3553 
L 469 3553 
L 469 4384 
Q 803 4563 1142 4656 
Q 1481 4750 1806 4750 
Q 2534 4750 2956 4397 
Q 3378 4044 3378 3438 
Q 3378 2753 2422 1800 
Q 2347 1728 2309 1691 
L 1131 513 
L 3078 513 
L 3078 1088 
L 3444 1088 
L 3444 0 
L 434 0 
L 434 341 
L 1850 1753 
Q 2319 2222 2519 2614 
Q 2719 3006 2719 3438 
Q 2719 3909 2473 4175 
Q 2228 4441 1797 4441 
Q 1350 4441 1106 4219 
Q 863 3997 819 3553 
z
" transform="scale(0.015625)"/>
       </defs>
       <use xlink:href="#DejaVuSerif-2212" transform="translate(0 0.78125)"/>
       <use xlink:href="#DejaVuSerif-32" transform="translate(83.789062 0.78125)"/>
      </g>
     </g>
    </g>
    <g id="xtick_4">
     <g id="line2d_4">
      <g>
       <use xlink:href="#mfd60dd3c45" x="230.424146" y="235.48" style="fill: #030303; stroke: #030303; stroke-width: 0.8"/>
      </g>
     </g>
     <g id="text_4">
      <!-- $\mathdefault{0}$ -->
      <g style="fill: #030303" transform="translate(226.264146 252.357969) scale(0.13 -0.13)">
       <defs>
        <path id="DejaVuSerif-30" d="M 2034 219 
Q 2513 219 2750 744 
Q 2988 1269 2988 2328 
Q 2988 3391 2750 3916 
Q 2513 4441 2034 4441 
Q 1556 4441 1318 3916 
Q 1081 3391 1081 2328 
Q 1081 1269 1318 744 
Q 1556 219 2034 219 
z
M 2034 -91 
Q 1275 -91 848 546 
Q 422 1184 422 2328 
Q 422 3475 848 4112 
Q 1275 4750 2034 4750 
Q 2797 4750 3222 4112 
Q 3647 3475 3647 2328 
Q 3647 1184 3222 546 
Q 2797 -91 2034 -91 
z
" transform="scale(0.015625)"/>
       </defs>
       <use xlink:href="#DejaVuSerif-30" transform="translate(0 0.78125)"/>
      </g>
     </g>
    </g>
    <g id="xtick_5">
     <g id="line2d_5">
      <g>
       <use xlink:href="#mfd60dd3c45" x="283.184185" y="235.48" style="fill: #030303; stroke: #030303; stroke-width: 0.8"/>
      </g>
     </g>
     <g id="text_5">
      <!-- $\mathdefault{2}$ -->
      <g style="fill: #030303" transform="translate(279.024185 252.357969) scale(0.13 -0.13)">
       <use xlink:href="#DejaVuSerif-32" transform="translate(0 0.78125)"/>
      </g>
     </g>
    </g>
    <g id="xtick_6">
     <g id="line2d_6">
      <g>
       <use xlink:href="#mfd60dd3c45" x="335.944224" y="235.48" style="fill: #030303; stroke: #030303; stroke-width: 0.8"/>
      </g>
     </g>
     <g id="text_6">
      <!-- $\mathdefault{4}$ -->
      <g style="fill: #030303" transform="translate(331.784224 252.357969) scale(0.13 -0.13)">
       <use xlink:href="#DejaVuSerif-34" transform="translate(0 0.78125)"/>
      </g>
     </g>
    </g>
    <g id="text_7">
     <!-- Difference in Means (g) -->
     <g style="fill: #030303" transform="translate(86.573501 272.73875) scale(0.18 -0.18)">
      <defs>
       <path id="DejaVuSerif-44" d="M 1581 331 
L 2163 331 
Q 3072 331 3558 850 
Q 4044 1369 4044 2338 
Q 4044 3306 3559 3818 
Q 3075 4331 2163 4331 
L 1581 4331 
L 1581 331 
z
M 353 0 
L 353 331 
L 947 331 
L 947 4331 
L 353 4331 
L 353 4666 
L 2209 4666 
Q 3416 4666 4089 4050 
Q 4763 3434 4763 2338 
Q 4763 1238 4088 619 
Q 3413 0 2209 0 
L 353 0 
z
" transform="scale(0.015625)"/>
       <path id="DejaVuSerif-69" d="M 622 4353 
Q 622 4497 726 4603 
Q 831 4709 978 4709 
Q 1122 4709 1226 4603 
Q 1331 4497 1331 4353 
Q 1331 4206 1228 4103 
Q 1125 4000 978 4000 
Q 831 4000 726 4103 
Q 622 4206 622 4353 
z
M 1356 331 
L 1900 331 
L 1900 0 
L 231 0 
L 231 331 
L 781 331 
L 781 2988 
L 231 2988 
L 231 3322 
L 1356 3322 
L 1356 331 
z
" transform="scale(0.015625)"/>
       <path id="DejaVuSerif-66" d="M 2753 4078 
L 2450 4078 
Q 2447 4313 2317 4434 
Q 2188 4556 1941 4556 
Q 1619 4556 1487 4379 
Q 1356 4203 1356 3750 
L 1356 3322 
L 2284 3322 
L 2284 2988 
L 1356 2988 
L 1356 331 
L 2094 331 
L 2094 0 
L 231 0 
L 231 331 
L 781 331 
L 781 2988 
L 231 2988 
L 231 3322 
L 781 3322 
L 781 3738 
Q 781 4294 1070 4578 
Q 1359 4863 1919 4863 
Q 2128 4863 2337 4825 
Q 2547 4788 2753 4709 
L 2753 4078 
z
" transform="scale(0.015625)"/>
       <path id="DejaVuSerif-65" d="M 3469 1600 
L 991 1600 
L 991 1575 
Q 991 903 1244 561 
Q 1497 219 1991 219 
Q 2369 219 2611 417 
Q 2853 616 2950 1006 
L 3413 1006 
Q 3275 459 2904 184 
Q 2534 -91 1931 -91 
Q 1203 -91 761 389 
Q 319 869 319 1663 
Q 319 2450 753 2931 
Q 1188 3413 1894 3413 
Q 2647 3413 3050 2948 
Q 3453 2484 3469 1600 
z
M 2791 1931 
Q 2772 2513 2545 2808 
Q 2319 3103 1894 3103 
Q 1497 3103 1269 2806 
Q 1041 2509 991 1931 
L 2791 1931 
z
" transform="scale(0.015625)"/>
       <path id="DejaVuSerif-72" d="M 3059 3328 
L 3059 2497 
L 2728 2497 
Q 2713 2744 2591 2866 
Q 2469 2988 2234 2988 
Q 1809 2988 1582 2694 
Q 1356 2400 1356 1850 
L 1356 331 
L 2022 331 
L 2022 0 
L 263 0 
L 263 331 
L 781 331 
L 781 2994 
L 231 2994 
L 231 3322 
L 1356 3322 
L 1356 2731 
Q 1525 3078 1790 3245 
Q 2056 3413 2438 3413 
Q 2578 3413 2733 3391 
Q 2888 3369 3059 3328 
z
" transform="scale(0.015625)"/>
       <path id="DejaVuSerif-6e" d="M 263 0 
L 263 331 
L 781 331 
L 781 2988 
L 231 2988 
L 231 3322 
L 1356 3322 
L 1356 2731 
Q 1516 3069 1770 3241 
Q 2025 3413 2363 3413 
Q 2913 3413 3172 3097 
Q 3431 2781 3431 2113 
L 3431 331 
L 3944 331 
L 3944 0 
L 2356 0 
L 2356 331 
L 2853 331 
L 2853 1931 
Q 2853 2541 2703 2767 
Q 2553 2994 2175 2994 
Q 1775 2994 1565 2701 
Q 1356 2409 1356 1850 
L 1356 331 
L 1856 331 
L 1856 0 
L 263 0 
z
" transform="scale(0.015625)"/>
       <path id="DejaVuSerif-63" d="M 3291 997 
Q 3169 466 2822 187 
Q 2475 -91 1925 -91 
Q 1200 -91 759 389 
Q 319 869 319 1663 
Q 319 2459 759 2936 
Q 1200 3413 1925 3413 
Q 2241 3413 2553 3339 
Q 2866 3266 3181 3116 
L 3181 2266 
L 2847 2266 
Q 2781 2703 2561 2903 
Q 2341 3103 1931 3103 
Q 1466 3103 1228 2742 
Q 991 2381 991 1663 
Q 991 944 1227 581 
Q 1463 219 1931 219 
Q 2303 219 2525 412 
Q 2747 606 2828 997 
L 3291 997 
z
" transform="scale(0.015625)"/>
       <path id="DejaVuSerif-20" transform="scale(0.015625)"/>
       <path id="DejaVuSerif-4d" d="M 353 0 
L 353 331 
L 947 331 
L 947 4331 
L 319 4331 
L 319 4666 
L 1678 4666 
L 3316 1344 
L 4953 4666 
L 6228 4666 
L 6228 4331 
L 5606 4331 
L 5606 331 
L 6203 331 
L 6203 0 
L 4378 0 
L 4378 331 
L 4972 331 
L 4972 3938 
L 3372 684 
L 2931 684 
L 1331 3938 
L 1331 331 
L 1925 331 
L 1925 0 
L 353 0 
z
" transform="scale(0.015625)"/>
       <path id="DejaVuSerif-61" d="M 2547 1044 
L 2547 1747 
L 1806 1747 
Q 1378 1747 1168 1562 
Q 959 1378 959 997 
Q 959 650 1171 447 
Q 1384 244 1747 244 
Q 2106 244 2326 466 
Q 2547 688 2547 1044 
z
M 3122 2075 
L 3122 331 
L 3634 331 
L 3634 0 
L 2547 0 
L 2547 359 
Q 2356 128 2106 18 
Q 1856 -91 1522 -91 
Q 969 -91 644 203 
Q 319 497 319 997 
Q 319 1513 691 1797 
Q 1063 2081 1741 2081 
L 2547 2081 
L 2547 2309 
Q 2547 2688 2317 2895 
Q 2088 3103 1672 3103 
Q 1328 3103 1125 2947 
Q 922 2791 872 2484 
L 575 2484 
L 575 3156 
Q 875 3284 1158 3348 
Q 1441 3413 1709 3413 
Q 2400 3413 2761 3070 
Q 3122 2728 3122 2075 
z
" transform="scale(0.015625)"/>
       <path id="DejaVuSerif-73" d="M 359 184 
L 359 959 
L 691 959 
Q 703 588 923 403 
Q 1144 219 1575 219 
Q 1963 219 2166 364 
Q 2369 509 2369 788 
Q 2369 1006 2220 1140 
Q 2072 1275 1594 1428 
L 1178 1569 
Q 750 1706 558 1912 
Q 366 2119 366 2438 
Q 366 2894 700 3153 
Q 1034 3413 1625 3413 
Q 1888 3413 2178 3344 
Q 2469 3275 2778 3144 
L 2778 2419 
L 2447 2419 
Q 2434 2741 2221 2922 
Q 2009 3103 1644 3103 
Q 1281 3103 1095 2975 
Q 909 2847 909 2591 
Q 909 2381 1050 2254 
Q 1191 2128 1613 1997 
L 2069 1856 
Q 2541 1709 2748 1489 
Q 2956 1269 2956 922 
Q 2956 450 2595 179 
Q 2234 -91 1600 -91 
Q 1278 -91 972 -22 
Q 666 47 359 184 
z
" transform="scale(0.015625)"/>
       <path id="DejaVuSerif-28" d="M 2041 -997 
Q 1281 -656 893 83 
Q 506 822 506 1931 
Q 506 3044 893 3783 
Q 1281 4522 2041 4863 
L 2041 4556 
Q 1559 4225 1350 3623 
Q 1141 3022 1141 1931 
Q 1141 844 1350 242 
Q 1559 -359 2041 -691 
L 2041 -997 
z
" transform="scale(0.015625)"/>
       <path id="DejaVuSerif-67" d="M 3359 2988 
L 3359 72 
Q 3359 -644 2965 -1033 
Q 2572 -1422 1844 -1422 
Q 1516 -1422 1216 -1362 
Q 916 -1303 641 -1184 
L 641 -488 
L 941 -488 
Q 997 -813 1206 -963 
Q 1416 -1113 1806 -1113 
Q 2313 -1113 2548 -827 
Q 2784 -541 2784 72 
L 2784 519 
Q 2616 206 2355 57 
Q 2094 -91 1709 -91 
Q 1097 -91 708 395 
Q 319 881 319 1663 
Q 319 2444 706 2928 
Q 1094 3413 1709 3413 
Q 2094 3413 2355 3264 
Q 2616 3116 2784 2803 
L 2784 3322 
L 3909 3322 
L 3909 2988 
L 3359 2988 
z
M 2784 1825 
Q 2784 2422 2554 2737 
Q 2325 3053 1888 3053 
Q 1444 3053 1217 2703 
Q 991 2353 991 1663 
Q 991 975 1217 622 
Q 1444 269 1888 269 
Q 2325 269 2554 583 
Q 2784 897 2784 1497 
L 2784 1825 
z
" transform="scale(0.015625)"/>
       <path id="DejaVuSerif-29" d="M 453 -997 
L 453 -691 
Q 934 -359 1145 242 
Q 1356 844 1356 1931 
Q 1356 3022 1145 3623 
Q 934 4225 453 4556 
L 453 4863 
Q 1216 4522 1603 3783 
Q 1991 3044 1991 1931 
Q 1991 822 1603 83 
Q 1216 -656 453 -997 
z
" transform="scale(0.015625)"/>
      </defs>
      <use xlink:href="#DejaVuSerif-44"/>
      <use xlink:href="#DejaVuSerif-69" x="80.175781"/>
      <use xlink:href="#DejaVuSerif-66" x="112.158203"/>
      <use xlink:href="#DejaVuSerif-66" x="149.169922"/>
      <use xlink:href="#DejaVuSerif-65" x="186.181641"/>
      <use xlink:href="#DejaVuSerif-72" x="245.361328"/>
      <use xlink:href="#DejaVuSerif-65" x="293.164062"/>
      <use xlink:href="#DejaVuSerif-6e" x="352.34375"/>
      <use xlink:href="#DejaVuSerif-63" x="416.748047"/>
      <use xlink:href="#DejaVuSerif-65" x="472.753906"/>
      <use xlink:href="#DejaVuSerif-20" x="531.933594"/>
      <use xlink:href="#DejaVuSerif-69" x="563.720703"/>
      <use xlink:href="#DejaVuSerif-6e" x="595.703125"/>
      <use xlink:href="#DejaVuSerif-20" x="660.107422"/>
      <use xlink:href="#DejaVuSerif-4d" x="691.894531"/>
      <use xlink:href="#DejaVuSerif-65" x="794.287109"/>
      <use xlink:href="#DejaVuSerif-61" x="853.466797"/>
      <use xlink:href="#DejaVuSerif-6e" x="913.085938"/>
      <use xlink:href="#DejaVuSerif-73" x="977.490234"/>
      <use xlink:href="#DejaVuSerif-20" x="1028.808594"/>
      <use xlink:href="#DejaVuSerif-28" x="1060.595703"/>
      <use xlink:href="#DejaVuSerif-67" x="1099.609375"/>
      <use xlink:href="#DejaVuSerif-29" x="1163.623047"/>
     </g>
    </g>
   </g>
   <g id="matplotlib.axis_2">
    <g id="ytick_1">
     <g id="line2d_7">
      <defs>
       <path id="mde79565429" d="M 0 0 
L -3.5 0 
" style="stroke: #030303; stroke-width: 0.8"/>
      </defs>
      <g>
       <use xlink:href="#mde79565429" x="40.425127" y="225.932727" style="fill: #030303; stroke: #030303; stroke-width: 0.8"/>
      </g>
     </g>
     <g id="text_8">
      <!-- $\mathdefault{0.00}$ -->
      <g style="fill: #030303" transform="translate(11.125127 229.731946) scale(0.1 -0.1)">
       <defs>
        <path id="DejaVuSerif-2e" d="M 603 325 
Q 603 500 722 622 
Q 841 744 1019 744 
Q 1191 744 1312 622 
Q 1434 500 1434 325 
Q 1434 153 1312 31 
Q 1191 -91 1019 -91 
Q 841 -91 722 29 
Q 603 150 603 325 
z
" transform="scale(0.015625)"/>
       </defs>
       <use xlink:href="#DejaVuSerif-30" transform="translate(0 0.78125)"/>
       <use xlink:href="#DejaVuSerif-2e" transform="translate(63.623047 0.78125)"/>
       <use xlink:href="#DejaVuSerif-30" transform="translate(95.410156 0.78125)"/>
       <use xlink:href="#DejaVuSerif-30" transform="translate(159.033203 0.78125)"/>
      </g>
     </g>
    </g>
    <g id="ytick_2">
     <g id="line2d_8">
      <g>
       <use xlink:href="#mde79565429" x="40.425127" y="194.100474" style="fill: #030303; stroke: #030303; stroke-width: 0.8"/>
      </g>
     </g>
     <g id="text_9">
      <!-- $\mathdefault{0.05}$ -->
      <g style="fill: #030303" transform="translate(11.125127 197.899693) scale(0.1 -0.1)">
       <defs>
        <path id="DejaVuSerif-35" d="M 3219 4666 
L 3219 4153 
L 1081 4153 
L 1081 2816 
Q 1244 2928 1461 2984 
Q 1678 3041 1947 3041 
Q 2703 3041 3140 2622 
Q 3578 2203 3578 1478 
Q 3578 738 3136 323 
Q 2694 -91 1894 -91 
Q 1572 -91 1234 -12 
Q 897 66 544 225 
L 544 1131 
L 897 1131 
Q 925 688 1179 453 
Q 1434 219 1894 219 
Q 2388 219 2653 544 
Q 2919 869 2919 1478 
Q 2919 2084 2655 2407 
Q 2391 2731 1894 2731 
Q 1613 2731 1398 2631 
Q 1184 2531 1019 2322 
L 750 2322 
L 750 4666 
L 3219 4666 
z
" transform="scale(0.015625)"/>
       </defs>
       <use xlink:href="#DejaVuSerif-30" transform="translate(0 0.78125)"/>
       <use xlink:href="#DejaVuSerif-2e" transform="translate(63.623047 0.78125)"/>
       <use xlink:href="#DejaVuSerif-30" transform="translate(95.410156 0.78125)"/>
       <use xlink:href="#DejaVuSerif-35" transform="translate(159.033203 0.78125)"/>
      </g>
     </g>
    </g>
    <g id="ytick_3">
     <g id="line2d_9">
      <g>
       <use xlink:href="#mde79565429" x="40.425127" y="162.268221" style="fill: #030303; stroke: #030303; stroke-width: 0.8"/>
      </g>
     </g>
     <g id="text_10">
      <!-- $\mathdefault{0.10}$ -->
      <g style="fill: #030303" transform="translate(11.125127 166.067439) scale(0.1 -0.1)">
       <defs>
        <path id="DejaVuSerif-31" d="M 909 0 
L 909 331 
L 1722 331 
L 1722 4213 
L 781 3603 
L 781 4013 
L 1919 4750 
L 2350 4750 
L 2350 331 
L 3163 331 
L 3163 0 
L 909 0 
z
" transform="scale(0.015625)"/>
       </defs>
       <use xlink:href="#DejaVuSerif-30" transform="translate(0 0.78125)"/>
       <use xlink:href="#DejaVuSerif-2e" transform="translate(63.623047 0.78125)"/>
       <use xlink:href="#DejaVuSerif-31" transform="translate(95.410156 0.78125)"/>
       <use xlink:href="#DejaVuSerif-30" transform="translate(159.033203 0.78125)"/>
      </g>
     </g>
    </g>
    <g id="ytick_4">
     <g id="line2d_10">
      <g>
       <use xlink:href="#mde79565429" x="40.425127" y="130.435967" style="fill: #030303; stroke: #030303; stroke-width: 0.8"/>
      </g>
     </g>
     <g id="text_11">
      <!-- $\mathdefault{0.15}$ -->
      <g style="fill: #030303" transform="translate(11.125127 134.235186) scale(0.1 -0.1)">
       <use xlink:href="#DejaVuSerif-30" transform="translate(0 0.78125)"/>
       <use xlink:href="#DejaVuSerif-2e" transform="translate(63.623047 0.78125)"/>
       <use xlink:href="#DejaVuSerif-31" transform="translate(95.410156 0.78125)"/>
       <use xlink:href="#DejaVuSerif-35" transform="translate(159.033203 0.78125)"/>
      </g>
     </g>
    </g>
    <g id="ytick_5">
     <g id="line2d_11">
      <g>
       <use xlink:href="#mde79565429" x="40.425127" y="98.603714" style="fill: #030303; stroke: #030303; stroke-width: 0.8"/>
      </g>
     </g>
     <g id="text_12">
      <!-- $\mathdefault{0.20}$ -->
      <g style="fill: #030303" transform="translate(11.325127 102.402933) scale(0.1 -0.1)">
       <use xlink:href="#DejaVuSerif-30" transform="translate(0 0.78125)"/>
       <use xlink:href="#DejaVuSerif-2e" transform="translate(63.623047 0.78125)"/>
       <use xlink:href="#DejaVuSerif-32" transform="translate(92.785156 0.78125)"/>
       <use xlink:href="#DejaVuSerif-30" transform="translate(156.408203 0.78125)"/>
      </g>
     </g>
    </g>
    <g id="ytick_6">
     <g id="line2d_12">
      <g>
       <use xlink:href="#mde79565429" x="40.425127" y="66.771461" style="fill: #030303; stroke: #030303; stroke-width: 0.8"/>
      </g>
     </g>
     <g id="text_13">
      <!-- $\mathdefault{0.25}$ -->
      <g style="fill: #030303" transform="translate(11.325127 70.57068) scale(0.1 -0.1)">
       <use xlink:href="#DejaVuSerif-30" transform="translate(0 0.78125)"/>
       <use xlink:href="#DejaVuSerif-2e" transform="translate(63.623047 0.78125)"/>
       <use xlink:href="#DejaVuSerif-32" transform="translate(92.785156 0.78125)"/>
       <use xlink:href="#DejaVuSerif-35" transform="translate(156.408203 0.78125)"/>
      </g>
     </g>
    </g>
    <g id="ytick_7">
     <g id="line2d_13">
      <g>
       <use xlink:href="#mde79565429" x="40.425127" y="34.939207" style="fill: #030303; stroke: #030303; stroke-width: 0.8"/>
      </g>
     </g>
     <g id="text_14">
      <!-- $\mathdefault{0.30}$ -->
      <g style="fill: #030303" transform="translate(11.125127 38.738426) scale(0.1 -0.1)">
       <defs>
        <path id="DejaVuSerif-33" d="M 622 4469 
Q 988 4606 1323 4678 
Q 1659 4750 1953 4750 
Q 2638 4750 3022 4454 
Q 3406 4159 3406 3634 
Q 3406 3213 3140 2930 
Q 2875 2647 2388 2547 
Q 2963 2466 3280 2130 
Q 3597 1794 3597 1259 
Q 3597 606 3158 257 
Q 2719 -91 1894 -91 
Q 1528 -91 1179 -12 
Q 831 66 488 225 
L 488 1131 
L 838 1131 
Q 869 681 1141 450 
Q 1413 219 1906 219 
Q 2384 219 2661 495 
Q 2938 772 2938 1253 
Q 2938 1803 2653 2086 
Q 2369 2369 1819 2369 
L 1522 2369 
L 1522 2688 
L 1678 2688 
Q 2225 2688 2498 2914 
Q 2772 3141 2772 3597 
Q 2772 4006 2547 4223 
Q 2322 4441 1900 4441 
Q 1478 4441 1245 4241 
Q 1013 4041 972 3647 
L 622 3647 
L 622 4469 
z
" transform="scale(0.015625)"/>
       </defs>
       <use xlink:href="#DejaVuSerif-30" transform="translate(0 0.78125)"/>
       <use xlink:href="#DejaVuSerif-2e" transform="translate(63.623047 0.78125)"/>
       <use xlink:href="#DejaVuSerif-33" transform="translate(95.410156 0.78125)"/>
       <use xlink:href="#DejaVuSerif-30" transform="translate(159.033203 0.78125)"/>
      </g>
     </g>
    </g>
   </g>
   <g id="line2d_14">
    <path d="M 54.460348 225.86867 
L 67.398629 225.671147 
L 75.274104 225.356452 
L 81.461977 224.898059 
L 86.524782 224.300754 
L 91.025054 223.528119 
L 94.962791 222.602501 
L 98.337995 221.574142 
L 101.150664 220.516847 
L 103.963334 219.24618 
L 106.776004 217.730267 
L 109.588673 215.935128 
L 112.401343 213.825165 
L 114.651479 211.885966 
L 116.901614 209.703057 
L 119.15175 207.257874 
L 121.401886 204.532485 
L 123.652022 201.51 
L 125.902157 198.175018 
L 128.152293 194.514108 
L 130.964963 189.463224 
L 133.777632 183.871497 
L 136.590302 177.733125 
L 139.402972 171.052702 
L 142.215641 163.846608 
L 145.590845 154.5477 
L 148.966048 144.612005 
L 152.903786 132.360122 
L 158.529125 114.058924 
L 166.967134 86.563094 
L 170.904872 74.537721 
L 173.717541 66.551694 
L 176.530211 59.219104 
L 178.780347 53.908588 
L 181.030482 49.157383 
L 183.280618 45.020475 
L 184.96822 42.350501 
L 186.655822 40.071563 
L 188.343423 38.199111 
L 190.031025 36.745937 
L 191.156093 36.015137 
L 192.281161 35.477424 
L 193.406229 35.13445 
L 194.531297 34.987273 
L 195.656364 35.036345 
L 196.781432 35.281515 
L 197.9065 35.722028 
L 199.031568 36.356528 
L 200.156636 37.183067 
L 201.844238 38.777251 
L 203.531839 40.786754 
L 205.219441 43.19788 
L 206.907043 45.99433 
L 208.594645 49.157383 
L 210.84478 53.908588 
L 213.094916 59.219104 
L 215.907586 66.551694 
L 218.720255 74.537721 
L 222.095459 84.796728 
L 226.59573 99.238999 
L 238.971477 139.437661 
L 242.909214 151.301887 
L 246.284418 160.823098 
L 249.659621 169.652791 
L 252.472291 176.440058 
L 255.284961 182.687566 
L 258.09763 188.388469 
L 260.9103 193.546609 
L 263.72297 198.175018 
L 266.535639 202.294346 
L 268.785775 205.241048 
L 271.035911 207.894753 
L 273.286046 210.272655 
L 276.098716 212.884855 
L 278.911386 215.130955 
L 281.724055 217.047682 
L 284.536725 218.671104 
L 287.349395 220.035918 
L 290.162064 221.174887 
L 293.537268 222.286216 
L 296.912471 223.163704 
L 300.850209 223.947676 
L 305.35048 224.596536 
L 310.413286 225.093387 
L 316.601159 225.4705 
L 325.039168 225.737835 
L 335.164778 225.86867 
L 335.164778 225.86867 
" clip-path="url(#pf818bcd970)" style="fill: none; stroke: #000080; stroke-width: 2; stroke-linecap: square"/>
   </g>
   <g id="line2d_15">
    <path d="M 230.424146 235.48 
L 230.424146 25.44 
" clip-path="url(#pf818bcd970)" style="fill: none; stroke-dasharray: 5.55,2.4; stroke-dashoffset: 0; stroke: #ff0000; stroke-width: 1.5"/>
   </g>
   <g id="patch_3">
    <path d="M 40.425127 235.48 
L 40.425127 25.44 
" style="fill: none; stroke: #030303; stroke-width: 1.5; stroke-linejoin: miter; stroke-linecap: square"/>
   </g>
   <g id="patch_4">
    <path d="M 40.425127 235.48 
L 349.2 235.48 
" style="fill: none; stroke: #030303; stroke-width: 1.5; stroke-linejoin: miter; stroke-linecap: square"/>
   </g>
   <g id="text_15">
    <!-- Sampling Distribution of Mean Difference -->
    <g style="fill: #030303" transform="translate(67.018188 19.44) scale(0.12 -0.12)">
     <defs>
      <path id="DejaVuSerif-53" d="M 594 225 
L 594 1288 
L 953 1284 
Q 969 753 1261 498 
Q 1553 244 2150 244 
Q 2706 244 2998 464 
Q 3291 684 3291 1106 
Q 3291 1444 3114 1625 
Q 2938 1806 2369 1978 
L 1753 2163 
Q 1084 2366 811 2669 
Q 538 2972 538 3500 
Q 538 4094 959 4422 
Q 1381 4750 2144 4750 
Q 2469 4750 2856 4679 
Q 3244 4609 3681 4475 
L 3681 3481 
L 3328 3481 
Q 3275 3975 2998 4195 
Q 2722 4416 2156 4416 
Q 1663 4416 1405 4214 
Q 1147 4013 1147 3628 
Q 1147 3294 1340 3103 
Q 1534 2913 2163 2725 
L 2741 2553 
Q 3375 2363 3645 2067 
Q 3916 1772 3916 1275 
Q 3916 597 3481 253 
Q 3047 -91 2188 -91 
Q 1803 -91 1404 -12 
Q 1006 66 594 225 
z
" transform="scale(0.015625)"/>
      <path id="DejaVuSerif-6d" d="M 3316 2675 
Q 3481 3041 3739 3227 
Q 3997 3413 4341 3413 
Q 4863 3413 5119 3089 
Q 5375 2766 5375 2113 
L 5375 331 
L 5894 331 
L 5894 0 
L 4300 0 
L 4300 331 
L 4800 331 
L 4800 2047 
Q 4800 2556 4650 2772 
Q 4500 2988 4153 2988 
Q 3769 2988 3567 2697 
Q 3366 2406 3366 1850 
L 3366 331 
L 3866 331 
L 3866 0 
L 2291 0 
L 2291 331 
L 2791 331 
L 2791 2069 
Q 2791 2566 2641 2777 
Q 2491 2988 2144 2988 
Q 1759 2988 1557 2697 
Q 1356 2406 1356 1850 
L 1356 331 
L 1856 331 
L 1856 0 
L 263 0 
L 263 331 
L 781 331 
L 781 2994 
L 231 2994 
L 231 3322 
L 1356 3322 
L 1356 2731 
Q 1516 3063 1762 3238 
Q 2009 3413 2322 3413 
Q 2709 3413 2968 3220 
Q 3228 3028 3316 2675 
z
" transform="scale(0.015625)"/>
      <path id="DejaVuSerif-70" d="M 1313 1825 
L 1313 1497 
Q 1313 897 1542 583 
Q 1772 269 2209 269 
Q 2650 269 2876 622 
Q 3103 975 3103 1663 
Q 3103 2353 2876 2703 
Q 2650 3053 2209 3053 
Q 1772 3053 1542 2737 
Q 1313 2422 1313 1825 
z
M 738 2988 
L 184 2988 
L 184 3322 
L 1313 3322 
L 1313 2803 
Q 1481 3116 1742 3264 
Q 2003 3413 2388 3413 
Q 3000 3413 3387 2928 
Q 3775 2444 3775 1663 
Q 3775 881 3387 395 
Q 3000 -91 2388 -91 
Q 2003 -91 1742 57 
Q 1481 206 1313 519 
L 1313 -997 
L 1856 -997 
L 1856 -1331 
L 184 -1331 
L 184 -997 
L 738 -997 
L 738 2988 
z
" transform="scale(0.015625)"/>
      <path id="DejaVuSerif-6c" d="M 1313 331 
L 1856 331 
L 1856 0 
L 184 0 
L 184 331 
L 738 331 
L 738 4531 
L 184 4531 
L 184 4863 
L 1313 4863 
L 1313 331 
z
" transform="scale(0.015625)"/>
      <path id="DejaVuSerif-74" d="M 691 2988 
L 184 2988 
L 184 3322 
L 691 3322 
L 691 4353 
L 1269 4353 
L 1269 3322 
L 2350 3322 
L 2350 2988 
L 1269 2988 
L 1269 878 
Q 1269 456 1350 337 
Q 1431 219 1650 219 
Q 1875 219 1978 351 
Q 2081 484 2088 781 
L 2522 781 
Q 2497 328 2275 118 
Q 2053 -91 1600 -91 
Q 1103 -91 897 129 
Q 691 350 691 878 
L 691 2988 
z
" transform="scale(0.015625)"/>
      <path id="DejaVuSerif-62" d="M 738 331 
L 738 4531 
L 184 4531 
L 184 4863 
L 1313 4863 
L 1313 2803 
Q 1481 3116 1742 3264 
Q 2003 3413 2388 3413 
Q 3000 3413 3387 2928 
Q 3775 2444 3775 1663 
Q 3775 881 3387 395 
Q 3000 -91 2388 -91 
Q 2003 -91 1742 57 
Q 1481 206 1313 519 
L 1313 0 
L 184 0 
L 184 331 
L 738 331 
z
M 1313 1497 
Q 1313 897 1542 583 
Q 1772 269 2209 269 
Q 2650 269 2876 622 
Q 3103 975 3103 1663 
Q 3103 2353 2876 2703 
Q 2650 3053 2209 3053 
Q 1772 3053 1542 2737 
Q 1313 2422 1313 1825 
L 1313 1497 
z
" transform="scale(0.015625)"/>
      <path id="DejaVuSerif-75" d="M 2266 3322 
L 3341 3322 
L 3341 331 
L 3884 331 
L 3884 0 
L 2766 0 
L 2766 588 
Q 2606 256 2353 82 
Q 2100 -91 1766 -91 
Q 1213 -91 952 223 
Q 691 538 691 1209 
L 691 2988 
L 172 2988 
L 172 3322 
L 1269 3322 
L 1269 1388 
Q 1269 781 1417 556 
Q 1566 331 1947 331 
Q 2347 331 2556 625 
Q 2766 919 2766 1478 
L 2766 2988 
L 2266 2988 
L 2266 3322 
z
" transform="scale(0.015625)"/>
      <path id="DejaVuSerif-6f" d="M 1925 219 
Q 2388 219 2623 584 
Q 2859 950 2859 1663 
Q 2859 2375 2623 2739 
Q 2388 3103 1925 3103 
Q 1463 3103 1227 2739 
Q 991 2375 991 1663 
Q 991 950 1228 584 
Q 1466 219 1925 219 
z
M 1925 -91 
Q 1200 -91 759 389 
Q 319 869 319 1663 
Q 319 2456 758 2934 
Q 1197 3413 1925 3413 
Q 2653 3413 3092 2934 
Q 3531 2456 3531 1663 
Q 3531 869 3092 389 
Q 2653 -91 1925 -91 
z
" transform="scale(0.015625)"/>
     </defs>
     <use xlink:href="#DejaVuSerif-53"/>
     <use xlink:href="#DejaVuSerif-61" x="68.505859"/>
     <use xlink:href="#DejaVuSerif-6d" x="128.125"/>
     <use xlink:href="#DejaVuSerif-70" x="222.949219"/>
     <use xlink:href="#DejaVuSerif-6c" x="286.962891"/>
     <use xlink:href="#DejaVuSerif-69" x="318.945312"/>
     <use xlink:href="#DejaVuSerif-6e" x="350.927734"/>
     <use xlink:href="#DejaVuSerif-67" x="415.332031"/>
     <use xlink:href="#DejaVuSerif-20" x="479.345703"/>
     <use xlink:href="#DejaVuSerif-44" x="511.132812"/>
     <use xlink:href="#DejaVuSerif-69" x="591.308594"/>
     <use xlink:href="#DejaVuSerif-73" x="623.291016"/>
     <use xlink:href="#DejaVuSerif-74" x="674.609375"/>
     <use xlink:href="#DejaVuSerif-72" x="714.794922"/>
     <use xlink:href="#DejaVuSerif-69" x="762.597656"/>
     <use xlink:href="#DejaVuSerif-62" x="794.580078"/>
     <use xlink:href="#DejaVuSerif-75" x="858.59375"/>
     <use xlink:href="#DejaVuSerif-74" x="922.998047"/>
     <use xlink:href="#DejaVuSerif-69" x="963.183594"/>
     <use xlink:href="#DejaVuSerif-6f" x="995.166016"/>
     <use xlink:href="#DejaVuSerif-6e" x="1055.371094"/>
     <use xlink:href="#DejaVuSerif-20" x="1119.775391"/>
     <use xlink:href="#DejaVuSerif-6f" x="1151.5625"/>
     <use xlink:href="#DejaVuSerif-66" x="1211.767578"/>
     <use xlink:href="#DejaVuSerif-20" x="1248.779297"/>
     <use xlink:href="#DejaVuSerif-4d" x="1280.566406"/>
     <use xlink:href="#DejaVuSerif-65" x="1382.958984"/>
     <use xlink:href="#DejaVuSerif-61" x="1442.138672"/>
     <use xlink:href="#DejaVuSerif-6e" x="1501.757812"/>
     <use xlink:href="#DejaVuSerif-20" x="1566.162109"/>
     <use xlink:href="#DejaVuSerif-44" x="1597.949219"/>
     <use xlink:href="#DejaVuSerif-69" x="1678.125"/>
     <use xlink:href="#DejaVuSerif-66" x="1710.107422"/>
     <use xlink:href="#DejaVuSerif-66" x="1747.119141"/>
     <use xlink:href="#DejaVuSerif-65" x="1784.130859"/>
     <use xlink:href="#DejaVuSerif-72" x="1843.310547"/>
     <use xlink:href="#DejaVuSerif-65" x="1891.113281"/>
     <use xlink:href="#DejaVuSerif-6e" x="1950.292969"/>
     <use xlink:href="#DejaVuSerif-63" x="2014.697266"/>
     <use xlink:href="#DejaVuSerif-65" x="2070.703125"/>
    </g>
   </g>
  </g>
 </g>
 <defs>
  <clipPath id="pf818bcd970">
   <rect x="40.425127" y="25.44" width="308.774873" height="210.04"/>
  </clipPath>
 </defs>
</svg>
