<?xml version="1.0" encoding="utf-8" standalone="no"?>
<!DOCTYPE svg PUBLIC "-//W3C//DTD SVG 1.1//EN"
  "http://www.w3.org/Graphics/SVG/1.1/DTD/svg11.dtd">
<svg xmlns:xlink="http://www.w3.org/1999/xlink" width="432pt" height="306pt" viewBox="0 0 432 306" xmlns="http://www.w3.org/2000/svg" version="1.1">
 <metadata>
  <rdf:RDF xmlns:dc="http://purl.org/dc/elements/1.1/" xmlns:cc="http://creativecommons.org/ns#" xmlns:rdf="http://www.w3.org/1999/02/22-rdf-syntax-ns#">
   <cc:Work>
    <dc:type rdf:resource="http://purl.org/dc/dcmitype/StillImage"/>
    <dc:date>2024-03-23T13:00:07.152222</dc:date>
    <dc:format>image/svg+xml</dc:format>
    <dc:creator>
     <cc:Agent>
      <dc:title>Matplotlib v3.8.2, https://matplotlib.org/</dc:title>
     </cc:Agent>
    </dc:creator>
   </cc:Work>
  </rdf:RDF>
 </metadata>
 <defs>
  <style type="text/css">*{stroke-linejoin: round; stroke-linecap: butt}</style>
 </defs>
 <g id="figure_1">
  <g id="patch_1">
   <path d="M 0 306 
L 432 306 
L 432 0 
L 0 0 
L 0 306 
z
" style="fill: none"/>
  </g>
  <g id="axes_1">
   <g id="patch_2">
    <path d="M 67.617842 256.4 
L 421.2 256.4 
L 421.2 10.8 
L 67.617842 10.8 
L 67.617842 256.4 
z
" style="fill: none"/>
   </g>
   <g id="matplotlib.axis_1">
    <g id="xtick_1">
     <g id="line2d_1">
      <defs>
       <path id="mfe3c267015" d="M 0 0 
L 0 4 
" style="stroke: #030303"/>
      </defs>
      <g>
       <use xlink:href="#mfe3c267015" x="75.939756" y="256.4" style="fill: #030303; stroke: #030303"/>
      </g>
     </g>
     <g id="text_1">
      <!-- $\mathdefault{0}$ -->
      <g style="fill: #030303" transform="translate(71.459756 273.037813) scale(0.14 -0.14)">
       <defs>
        <path id="DejaVuSerif-30" d="M 2034 219 
Q 2513 219 2750 744 
Q 2988 1269 2988 2328 
Q 2988 3391 2750 3916 
Q 2513 4441 2034 4441 
Q 1556 4441 1318 3916 
Q 1081 3391 1081 2328 
Q 1081 1269 1318 744 
Q 1556 219 2034 219 
z
M 2034 -91 
Q 1275 -91 848 546 
Q 422 1184 422 2328 
Q 422 3475 848 4112 
Q 1275 4750 2034 4750 
Q 2797 4750 3222 4112 
Q 3647 3475 3647 2328 
Q 3647 1184 3222 546 
Q 2797 -91 2034 -91 
z
" transform="scale(0.015625)"/>
       </defs>
       <use xlink:href="#DejaVuSerif-30" transform="translate(0 0.78125)"/>
      </g>
     </g>
    </g>
    <g id="xtick_2">
     <g id="line2d_2">
      <g>
       <use xlink:href="#mfe3c267015" x="122.626514" y="256.4" style="fill: #030303; stroke: #030303"/>
      </g>
     </g>
     <g id="text_2">
      <!-- $\mathdefault{10}$ -->
      <g style="fill: #030303" transform="translate(113.666514 273.037813) scale(0.14 -0.14)">
       <defs>
        <path id="DejaVuSerif-31" d="M 909 0 
L 909 331 
L 1722 331 
L 1722 4213 
L 781 3603 
L 781 4013 
L 1919 4750 
L 2350 4750 
L 2350 331 
L 3163 331 
L 3163 0 
L 909 0 
z
" transform="scale(0.015625)"/>
       </defs>
       <use xlink:href="#DejaVuSerif-31" transform="translate(0 0.78125)"/>
       <use xlink:href="#DejaVuSerif-30" transform="translate(63.623047 0.78125)"/>
      </g>
     </g>
    </g>
    <g id="xtick_3">
     <g id="line2d_3">
      <g>
       <use xlink:href="#mfe3c267015" x="169.313271" y="256.4" style="fill: #030303; stroke: #030303"/>
      </g>
     </g>
     <g id="text_3">
      <!-- $\mathdefault{20}$ -->
      <g style="fill: #030303" transform="translate(160.353271 273.037813) scale(0.14 -0.14)">
       <defs>
        <path id="DejaVuSerif-32" d="M 819 3553 
L 469 3553 
L 469 4384 
Q 803 4563 1142 4656 
Q 1481 4750 1806 4750 
Q 2534 4750 2956 4397 
Q 3378 4044 3378 3438 
Q 3378 2753 2422 1800 
Q 2347 1728 2309 1691 
L 1131 513 
L 3078 513 
L 3078 1088 
L 3444 1088 
L 3444 0 
L 434 0 
L 434 341 
L 1850 1753 
Q 2319 2222 2519 2614 
Q 2719 3006 2719 3438 
Q 2719 3909 2473 4175 
Q 2228 4441 1797 4441 
Q 1350 4441 1106 4219 
Q 863 3997 819 3553 
z
" transform="scale(0.015625)"/>
       </defs>
       <use xlink:href="#DejaVuSerif-32" transform="translate(0 0.78125)"/>
       <use xlink:href="#DejaVuSerif-30" transform="translate(63.623047 0.78125)"/>
      </g>
     </g>
    </g>
    <g id="xtick_4">
     <g id="line2d_4">
      <g>
       <use xlink:href="#mfe3c267015" x="216.000029" y="256.4" style="fill: #030303; stroke: #030303"/>
      </g>
     </g>
     <g id="text_4">
      <!-- $\mathdefault{30}$ -->
      <g style="fill: #030303" transform="translate(207.040029 273.037813) scale(0.14 -0.14)">
       <defs>
        <path id="DejaVuSerif-33" d="M 622 4469 
Q 988 4606 1323 4678 
Q 1659 4750 1953 4750 
Q 2638 4750 3022 4454 
Q 3406 4159 3406 3634 
Q 3406 3213 3140 2930 
Q 2875 2647 2388 2547 
Q 2963 2466 3280 2130 
Q 3597 1794 3597 1259 
Q 3597 606 3158 257 
Q 2719 -91 1894 -91 
Q 1528 -91 1179 -12 
Q 831 66 488 225 
L 488 1131 
L 838 1131 
Q 869 681 1141 450 
Q 1413 219 1906 219 
Q 2384 219 2661 495 
Q 2938 772 2938 1253 
Q 2938 1803 2653 2086 
Q 2369 2369 1819 2369 
L 1522 2369 
L 1522 2688 
L 1678 2688 
Q 2225 2688 2498 2914 
Q 2772 3141 2772 3597 
Q 2772 4006 2547 4223 
Q 2322 4441 1900 4441 
Q 1478 4441 1245 4241 
Q 1013 4041 972 3647 
L 622 3647 
L 622 4469 
z
" transform="scale(0.015625)"/>
       </defs>
       <use xlink:href="#DejaVuSerif-33" transform="translate(0 0.78125)"/>
       <use xlink:href="#DejaVuSerif-30" transform="translate(63.623047 0.78125)"/>
      </g>
     </g>
    </g>
    <g id="xtick_5">
     <g id="line2d_5">
      <g>
       <use xlink:href="#mfe3c267015" x="262.686786" y="256.4" style="fill: #030303; stroke: #030303"/>
      </g>
     </g>
     <g id="text_5">
      <!-- $\mathdefault{40}$ -->
      <g style="fill: #030303" transform="translate(253.726786 273.037813) scale(0.14 -0.14)">
       <defs>
        <path id="DejaVuSerif-34" d="M 2234 1581 
L 2234 4063 
L 641 1581 
L 2234 1581 
z
M 3609 0 
L 1484 0 
L 1484 331 
L 2234 331 
L 2234 1247 
L 197 1247 
L 197 1588 
L 2241 4750 
L 2859 4750 
L 2859 1581 
L 3750 1581 
L 3750 1247 
L 2859 1247 
L 2859 331 
L 3609 331 
L 3609 0 
z
" transform="scale(0.015625)"/>
       </defs>
       <use xlink:href="#DejaVuSerif-34" transform="translate(0 0.78125)"/>
       <use xlink:href="#DejaVuSerif-30" transform="translate(63.623047 0.78125)"/>
      </g>
     </g>
    </g>
    <g id="xtick_6">
     <g id="line2d_6">
      <g>
       <use xlink:href="#mfe3c267015" x="309.373544" y="256.4" style="fill: #030303; stroke: #030303"/>
      </g>
     </g>
     <g id="text_6">
      <!-- $\mathdefault{50}$ -->
      <g style="fill: #030303" transform="translate(300.413544 273.037813) scale(0.14 -0.14)">
       <defs>
        <path id="DejaVuSerif-35" d="M 3219 4666 
L 3219 4153 
L 1081 4153 
L 1081 2816 
Q 1244 2928 1461 2984 
Q 1678 3041 1947 3041 
Q 2703 3041 3140 2622 
Q 3578 2203 3578 1478 
Q 3578 738 3136 323 
Q 2694 -91 1894 -91 
Q 1572 -91 1234 -12 
Q 897 66 544 225 
L 544 1131 
L 897 1131 
Q 925 688 1179 453 
Q 1434 219 1894 219 
Q 2388 219 2653 544 
Q 2919 869 2919 1478 
Q 2919 2084 2655 2407 
Q 2391 2731 1894 2731 
Q 1613 2731 1398 2631 
Q 1184 2531 1019 2322 
L 750 2322 
L 750 4666 
L 3219 4666 
z
" transform="scale(0.015625)"/>
       </defs>
       <use xlink:href="#DejaVuSerif-35" transform="translate(0 0.78125)"/>
       <use xlink:href="#DejaVuSerif-30" transform="translate(63.623047 0.78125)"/>
      </g>
     </g>
    </g>
    <g id="xtick_7">
     <g id="line2d_7">
      <g>
       <use xlink:href="#mfe3c267015" x="356.060302" y="256.4" style="fill: #030303; stroke: #030303"/>
      </g>
     </g>
     <g id="text_7">
      <!-- $\mathdefault{60}$ -->
      <g style="fill: #030303" transform="translate(347.100302 273.037813) scale(0.14 -0.14)">
       <defs>
        <path id="DejaVuSerif-36" d="M 2094 219 
Q 2534 219 2771 542 
Q 3009 866 3009 1472 
Q 3009 2078 2771 2401 
Q 2534 2725 2094 2725 
Q 1647 2725 1412 2412 
Q 1178 2100 1178 1509 
Q 1178 888 1415 553 
Q 1653 219 2094 219 
z
M 1075 2569 
Q 1288 2803 1556 2918 
Q 1825 3034 2163 3034 
Q 2859 3034 3264 2615 
Q 3669 2197 3669 1472 
Q 3669 763 3233 336 
Q 2797 -91 2069 -91 
Q 1278 -91 853 498 
Q 428 1088 428 2181 
Q 428 3406 931 4078 
Q 1434 4750 2350 4750 
Q 2597 4750 2869 4703 
Q 3141 4656 3425 4563 
L 3425 3794 
L 3072 3794 
Q 3034 4109 2831 4275 
Q 2628 4441 2284 4441 
Q 1678 4441 1381 3981 
Q 1084 3522 1075 2569 
z
" transform="scale(0.015625)"/>
       </defs>
       <use xlink:href="#DejaVuSerif-36" transform="translate(0 0.78125)"/>
       <use xlink:href="#DejaVuSerif-30" transform="translate(63.623047 0.78125)"/>
      </g>
     </g>
    </g>
    <g id="xtick_8">
     <g id="line2d_8">
      <g>
       <use xlink:href="#mfe3c267015" x="402.747059" y="256.4" style="fill: #030303; stroke: #030303"/>
      </g>
     </g>
     <g id="text_8">
      <!-- $\mathdefault{70}$ -->
      <g style="fill: #030303" transform="translate(393.787059 273.037813) scale(0.14 -0.14)">
       <defs>
        <path id="DejaVuSerif-37" d="M 3609 4347 
L 1784 0 
L 1319 0 
L 3059 4153 
L 903 4153 
L 903 3578 
L 538 3578 
L 538 4666 
L 3609 4666 
L 3609 4347 
z
" transform="scale(0.015625)"/>
       </defs>
       <use xlink:href="#DejaVuSerif-37" transform="translate(0 0.78125)"/>
       <use xlink:href="#DejaVuSerif-30" transform="translate(63.623047 0.78125)"/>
      </g>
     </g>
    </g>
    <g id="text_9">
     <!-- Bill amount ($) -->
     <g style="fill: #030303" transform="translate(183.743921 292.106875) scale(0.16 -0.16)">
      <defs>
       <path id="DejaVuSerif-42" d="M 1581 331 
L 2516 331 
Q 3078 331 3337 575 
Q 3597 819 3597 1350 
Q 3597 1878 3339 2120 
Q 3081 2363 2516 2363 
L 1581 2363 
L 1581 331 
z
M 1581 2694 
L 2375 2694 
Q 2888 2694 3123 2891 
Q 3359 3088 3359 3513 
Q 3359 3941 3123 4136 
Q 2888 4331 2375 4331 
L 1581 4331 
L 1581 2694 
z
M 353 0 
L 353 331 
L 947 331 
L 947 4331 
L 353 4331 
L 353 4666 
L 2656 4666 
Q 3363 4666 3720 4377 
Q 4078 4088 4078 3513 
Q 4078 3097 3829 2850 
Q 3581 2603 3103 2547 
Q 3697 2472 4005 2167 
Q 4313 1863 4313 1350 
Q 4313 656 3875 328 
Q 3438 0 2509 0 
L 353 0 
z
" transform="scale(0.015625)"/>
       <path id="DejaVuSerif-69" d="M 622 4353 
Q 622 4497 726 4603 
Q 831 4709 978 4709 
Q 1122 4709 1226 4603 
Q 1331 4497 1331 4353 
Q 1331 4206 1228 4103 
Q 1125 4000 978 4000 
Q 831 4000 726 4103 
Q 622 4206 622 4353 
z
M 1356 331 
L 1900 331 
L 1900 0 
L 231 0 
L 231 331 
L 781 331 
L 781 2988 
L 231 2988 
L 231 3322 
L 1356 3322 
L 1356 331 
z
" transform="scale(0.015625)"/>
       <path id="DejaVuSerif-6c" d="M 1313 331 
L 1856 331 
L 1856 0 
L 184 0 
L 184 331 
L 738 331 
L 738 4531 
L 184 4531 
L 184 4863 
L 1313 4863 
L 1313 331 
z
" transform="scale(0.015625)"/>
       <path id="DejaVuSerif-20" transform="scale(0.015625)"/>
       <path id="DejaVuSerif-61" d="M 2547 1044 
L 2547 1747 
L 1806 1747 
Q 1378 1747 1168 1562 
Q 959 1378 959 997 
Q 959 650 1171 447 
Q 1384 244 1747 244 
Q 2106 244 2326 466 
Q 2547 688 2547 1044 
z
M 3122 2075 
L 3122 331 
L 3634 331 
L 3634 0 
L 2547 0 
L 2547 359 
Q 2356 128 2106 18 
Q 1856 -91 1522 -91 
Q 969 -91 644 203 
Q 319 497 319 997 
Q 319 1513 691 1797 
Q 1063 2081 1741 2081 
L 2547 2081 
L 2547 2309 
Q 2547 2688 2317 2895 
Q 2088 3103 1672 3103 
Q 1328 3103 1125 2947 
Q 922 2791 872 2484 
L 575 2484 
L 575 3156 
Q 875 3284 1158 3348 
Q 1441 3413 1709 3413 
Q 2400 3413 2761 3070 
Q 3122 2728 3122 2075 
z
" transform="scale(0.015625)"/>
       <path id="DejaVuSerif-6d" d="M 3316 2675 
Q 3481 3041 3739 3227 
Q 3997 3413 4341 3413 
Q 4863 3413 5119 3089 
Q 5375 2766 5375 2113 
L 5375 331 
L 5894 331 
L 5894 0 
L 4300 0 
L 4300 331 
L 4800 331 
L 4800 2047 
Q 4800 2556 4650 2772 
Q 4500 2988 4153 2988 
Q 3769 2988 3567 2697 
Q 3366 2406 3366 1850 
L 3366 331 
L 3866 331 
L 3866 0 
L 2291 0 
L 2291 331 
L 2791 331 
L 2791 2069 
Q 2791 2566 2641 2777 
Q 2491 2988 2144 2988 
Q 1759 2988 1557 2697 
Q 1356 2406 1356 1850 
L 1356 331 
L 1856 331 
L 1856 0 
L 263 0 
L 263 331 
L 781 331 
L 781 2994 
L 231 2994 
L 231 3322 
L 1356 3322 
L 1356 2731 
Q 1516 3063 1762 3238 
Q 2009 3413 2322 3413 
Q 2709 3413 2968 3220 
Q 3228 3028 3316 2675 
z
" transform="scale(0.015625)"/>
       <path id="DejaVuSerif-6f" d="M 1925 219 
Q 2388 219 2623 584 
Q 2859 950 2859 1663 
Q 2859 2375 2623 2739 
Q 2388 3103 1925 3103 
Q 1463 3103 1227 2739 
Q 991 2375 991 1663 
Q 991 950 1228 584 
Q 1466 219 1925 219 
z
M 1925 -91 
Q 1200 -91 759 389 
Q 319 869 319 1663 
Q 319 2456 758 2934 
Q 1197 3413 1925 3413 
Q 2653 3413 3092 2934 
Q 3531 2456 3531 1663 
Q 3531 869 3092 389 
Q 2653 -91 1925 -91 
z
" transform="scale(0.015625)"/>
       <path id="DejaVuSerif-75" d="M 2266 3322 
L 3341 3322 
L 3341 331 
L 3884 331 
L 3884 0 
L 2766 0 
L 2766 588 
Q 2606 256 2353 82 
Q 2100 -91 1766 -91 
Q 1213 -91 952 223 
Q 691 538 691 1209 
L 691 2988 
L 172 2988 
L 172 3322 
L 1269 3322 
L 1269 1388 
Q 1269 781 1417 556 
Q 1566 331 1947 331 
Q 2347 331 2556 625 
Q 2766 919 2766 1478 
L 2766 2988 
L 2266 2988 
L 2266 3322 
z
" transform="scale(0.015625)"/>
       <path id="DejaVuSerif-6e" d="M 263 0 
L 263 331 
L 781 331 
L 781 2988 
L 231 2988 
L 231 3322 
L 1356 3322 
L 1356 2731 
Q 1516 3069 1770 3241 
Q 2025 3413 2363 3413 
Q 2913 3413 3172 3097 
Q 3431 2781 3431 2113 
L 3431 331 
L 3944 331 
L 3944 0 
L 2356 0 
L 2356 331 
L 2853 331 
L 2853 1931 
Q 2853 2541 2703 2767 
Q 2553 2994 2175 2994 
Q 1775 2994 1565 2701 
Q 1356 2409 1356 1850 
L 1356 331 
L 1856 331 
L 1856 0 
L 263 0 
z
" transform="scale(0.015625)"/>
       <path id="DejaVuSerif-74" d="M 691 2988 
L 184 2988 
L 184 3322 
L 691 3322 
L 691 4353 
L 1269 4353 
L 1269 3322 
L 2350 3322 
L 2350 2988 
L 1269 2988 
L 1269 878 
Q 1269 456 1350 337 
Q 1431 219 1650 219 
Q 1875 219 1978 351 
Q 2081 484 2088 781 
L 2522 781 
Q 2497 328 2275 118 
Q 2053 -91 1600 -91 
Q 1103 -91 897 129 
Q 691 350 691 878 
L 691 2988 
z
" transform="scale(0.015625)"/>
       <path id="DejaVuSerif-28" d="M 2041 -997 
Q 1281 -656 893 83 
Q 506 822 506 1931 
Q 506 3044 893 3783 
Q 1281 4522 2041 4863 
L 2041 4556 
Q 1559 4225 1350 3623 
Q 1141 3022 1141 1931 
Q 1141 844 1350 242 
Q 1559 -359 2041 -691 
L 2041 -997 
z
" transform="scale(0.015625)"/>
       <path id="DejaVuSerif-24" d="M 2156 213 
Q 2509 244 2695 416 
Q 2881 588 2881 884 
Q 2881 1153 2697 1340 
Q 2513 1528 2156 1625 
L 2156 213 
z
M 1844 3709 
Q 1522 3688 1344 3523 
Q 1166 3359 1166 3084 
Q 1166 2834 1330 2668 
Q 1494 2503 1844 2400 
L 1844 3709 
z
M 550 225 
L 550 1088 
L 888 1088 
Q 900 659 1137 440 
Q 1375 222 1844 213 
L 1844 1728 
Q 1125 1928 834 2189 
Q 544 2450 544 2881 
Q 544 3381 887 3684 
Q 1231 3988 1844 4025 
L 1844 4863 
L 2156 4863 
L 2156 4025 
Q 2472 4000 2764 3923 
Q 3056 3847 3334 3719 
L 3334 2900 
L 2994 2900 
Q 2956 3263 2740 3472 
Q 2525 3681 2156 3709 
L 2156 2297 
Q 2925 2088 3233 1817 
Q 3541 1547 3541 1094 
Q 3541 575 3178 262 
Q 2816 -50 2156 -97 
L 2156 -941 
L 1844 -941 
L 1844 -97 
Q 1544 -91 1222 -11 
Q 900 69 550 225 
z
" transform="scale(0.015625)"/>
       <path id="DejaVuSerif-29" d="M 453 -997 
L 453 -691 
Q 934 -359 1145 242 
Q 1356 844 1356 1931 
Q 1356 3022 1145 3623 
Q 934 4225 453 4556 
L 453 4863 
Q 1216 4522 1603 3783 
Q 1991 3044 1991 1931 
Q 1991 822 1603 83 
Q 1216 -656 453 -997 
z
" transform="scale(0.015625)"/>
      </defs>
      <use xlink:href="#DejaVuSerif-42"/>
      <use xlink:href="#DejaVuSerif-69" x="73.486328"/>
      <use xlink:href="#DejaVuSerif-6c" x="105.46875"/>
      <use xlink:href="#DejaVuSerif-6c" x="137.451172"/>
      <use xlink:href="#DejaVuSerif-20" x="169.433594"/>
      <use xlink:href="#DejaVuSerif-61" x="201.220703"/>
      <use xlink:href="#DejaVuSerif-6d" x="260.839844"/>
      <use xlink:href="#DejaVuSerif-6f" x="355.664062"/>
      <use xlink:href="#DejaVuSerif-75" x="415.869141"/>
      <use xlink:href="#DejaVuSerif-6e" x="480.273438"/>
      <use xlink:href="#DejaVuSerif-74" x="544.677734"/>
      <use xlink:href="#DejaVuSerif-20" x="584.863281"/>
      <use xlink:href="#DejaVuSerif-28" x="616.650391"/>
      <use xlink:href="#DejaVuSerif-24" x="655.664062"/>
      <use xlink:href="#DejaVuSerif-29" x="719.287109"/>
     </g>
    </g>
   </g>
   <g id="matplotlib.axis_2">
    <g id="ytick_1">
     <g id="line2d_9">
      <defs>
       <path id="m3861884852" d="M 0 0 
L -4 0 
" style="stroke: #030303"/>
      </defs>
      <g>
       <use xlink:href="#m3861884852" x="67.617842" y="249.020647" style="fill: #030303; stroke: #030303"/>
      </g>
     </g>
     <g id="text_10">
      <!-- $\mathdefault{0.0}$ -->
      <g style="fill: #030303" transform="translate(39.217842 254.339553) scale(0.14 -0.14)">
       <defs>
        <path id="DejaVuSerif-2e" d="M 603 325 
Q 603 500 722 622 
Q 841 744 1019 744 
Q 1191 744 1312 622 
Q 1434 500 1434 325 
Q 1434 153 1312 31 
Q 1191 -91 1019 -91 
Q 841 -91 722 29 
Q 603 150 603 325 
z
" transform="scale(0.015625)"/>
       </defs>
       <use xlink:href="#DejaVuSerif-30" transform="translate(0 0.78125)"/>
       <use xlink:href="#DejaVuSerif-2e" transform="translate(63.623047 0.78125)"/>
       <use xlink:href="#DejaVuSerif-30" transform="translate(95.410156 0.78125)"/>
      </g>
     </g>
    </g>
    <g id="ytick_2">
     <g id="line2d_10">
      <g>
       <use xlink:href="#m3861884852" x="67.617842" y="211.177812" style="fill: #030303; stroke: #030303"/>
      </g>
     </g>
     <g id="text_11">
      <!-- $\mathdefault{2.5}$ -->
      <g style="fill: #030303" transform="translate(39.217842 216.496718) scale(0.14 -0.14)">
       <use xlink:href="#DejaVuSerif-32" transform="translate(0 0.78125)"/>
       <use xlink:href="#DejaVuSerif-2e" transform="translate(63.623047 0.78125)"/>
       <use xlink:href="#DejaVuSerif-35" transform="translate(95.410156 0.78125)"/>
      </g>
     </g>
    </g>
    <g id="ytick_3">
     <g id="line2d_11">
      <g>
       <use xlink:href="#m3861884852" x="67.617842" y="173.334977" style="fill: #030303; stroke: #030303"/>
      </g>
     </g>
     <g id="text_12">
      <!-- $\mathdefault{5.0}$ -->
      <g style="fill: #030303" transform="translate(39.217842 178.653883) scale(0.14 -0.14)">
       <use xlink:href="#DejaVuSerif-35" transform="translate(0 0.78125)"/>
       <use xlink:href="#DejaVuSerif-2e" transform="translate(63.623047 0.78125)"/>
       <use xlink:href="#DejaVuSerif-30" transform="translate(95.410156 0.78125)"/>
      </g>
     </g>
    </g>
    <g id="ytick_4">
     <g id="line2d_12">
      <g>
       <use xlink:href="#m3861884852" x="67.617842" y="135.492142" style="fill: #030303; stroke: #030303"/>
      </g>
     </g>
     <g id="text_13">
      <!-- $\mathdefault{7.5}$ -->
      <g style="fill: #030303" transform="translate(39.217842 140.811048) scale(0.14 -0.14)">
       <use xlink:href="#DejaVuSerif-37" transform="translate(0 0.09375)"/>
       <use xlink:href="#DejaVuSerif-2e" transform="translate(63.623047 0.09375)"/>
       <use xlink:href="#DejaVuSerif-35" transform="translate(95.410156 0.09375)"/>
      </g>
     </g>
    </g>
    <g id="ytick_5">
     <g id="line2d_13">
      <g>
       <use xlink:href="#m3861884852" x="67.617842" y="97.649307" style="fill: #030303; stroke: #030303"/>
      </g>
     </g>
     <g id="text_14">
      <!-- $\mathdefault{10.0}$ -->
      <g style="fill: #030303" transform="translate(30.397842 102.968213) scale(0.14 -0.14)">
       <use xlink:href="#DejaVuSerif-31" transform="translate(0 0.78125)"/>
       <use xlink:href="#DejaVuSerif-30" transform="translate(63.623047 0.78125)"/>
       <use xlink:href="#DejaVuSerif-2e" transform="translate(127.246094 0.78125)"/>
       <use xlink:href="#DejaVuSerif-30" transform="translate(159.033203 0.78125)"/>
      </g>
     </g>
    </g>
    <g id="ytick_6">
     <g id="line2d_14">
      <g>
       <use xlink:href="#m3861884852" x="67.617842" y="59.806471" style="fill: #030303; stroke: #030303"/>
      </g>
     </g>
     <g id="text_15">
      <!-- $\mathdefault{12.5}$ -->
      <g style="fill: #030303" transform="translate(30.397842 65.125378) scale(0.14 -0.14)">
       <use xlink:href="#DejaVuSerif-31" transform="translate(0 0.78125)"/>
       <use xlink:href="#DejaVuSerif-32" transform="translate(63.623047 0.78125)"/>
       <use xlink:href="#DejaVuSerif-2e" transform="translate(127.246094 0.78125)"/>
       <use xlink:href="#DejaVuSerif-35" transform="translate(159.033203 0.78125)"/>
      </g>
     </g>
    </g>
    <g id="ytick_7">
     <g id="line2d_15">
      <g>
       <use xlink:href="#m3861884852" x="67.617842" y="21.963636" style="fill: #030303; stroke: #030303"/>
      </g>
     </g>
     <g id="text_16">
      <!-- $\mathdefault{15.0}$ -->
      <g style="fill: #030303" transform="translate(30.397842 27.282543) scale(0.14 -0.14)">
       <use xlink:href="#DejaVuSerif-31" transform="translate(0 0.78125)"/>
       <use xlink:href="#DejaVuSerif-35" transform="translate(63.623047 0.78125)"/>
       <use xlink:href="#DejaVuSerif-2e" transform="translate(127.246094 0.78125)"/>
       <use xlink:href="#DejaVuSerif-30" transform="translate(159.033203 0.78125)"/>
      </g>
     </g>
    </g>
    <g id="text_17">
     <!-- Tip amount ($) -->
     <g style="fill: #030303" transform="translate(23.070342 193.72625) rotate(-90) scale(0.16 -0.16)">
      <defs>
       <path id="DejaVuSerif-54" d="M 1222 0 
L 1222 331 
L 1819 331 
L 1819 4294 
L 447 4294 
L 447 3566 
L 63 3566 
L 63 4666 
L 4206 4666 
L 4206 3566 
L 3822 3566 
L 3822 4294 
L 2450 4294 
L 2450 331 
L 3047 331 
L 3047 0 
L 1222 0 
z
" transform="scale(0.015625)"/>
       <path id="DejaVuSerif-70" d="M 1313 1825 
L 1313 1497 
Q 1313 897 1542 583 
Q 1772 269 2209 269 
Q 2650 269 2876 622 
Q 3103 975 3103 1663 
Q 3103 2353 2876 2703 
Q 2650 3053 2209 3053 
Q 1772 3053 1542 2737 
Q 1313 2422 1313 1825 
z
M 738 2988 
L 184 2988 
L 184 3322 
L 1313 3322 
L 1313 2803 
Q 1481 3116 1742 3264 
Q 2003 3413 2388 3413 
Q 3000 3413 3387 2928 
Q 3775 2444 3775 1663 
Q 3775 881 3387 395 
Q 3000 -91 2388 -91 
Q 2003 -91 1742 57 
Q 1481 206 1313 519 
L 1313 -997 
L 1856 -997 
L 1856 -1331 
L 184 -1331 
L 184 -997 
L 738 -997 
L 738 2988 
z
" transform="scale(0.015625)"/>
      </defs>
      <use xlink:href="#DejaVuSerif-54"/>
      <use xlink:href="#DejaVuSerif-69" x="66.699219"/>
      <use xlink:href="#DejaVuSerif-70" x="98.681641"/>
      <use xlink:href="#DejaVuSerif-20" x="162.695312"/>
      <use xlink:href="#DejaVuSerif-61" x="194.482422"/>
      <use xlink:href="#DejaVuSerif-6d" x="254.101562"/>
      <use xlink:href="#DejaVuSerif-6f" x="348.925781"/>
      <use xlink:href="#DejaVuSerif-75" x="409.130859"/>
      <use xlink:href="#DejaVuSerif-6e" x="473.535156"/>
      <use xlink:href="#DejaVuSerif-74" x="537.939453"/>
      <use xlink:href="#DejaVuSerif-20" x="578.125"/>
      <use xlink:href="#DejaVuSerif-28" x="609.912109"/>
      <use xlink:href="#DejaVuSerif-24" x="648.925781"/>
      <use xlink:href="#DejaVuSerif-29" x="712.548828"/>
     </g>
    </g>
   </g>
   <g id="line2d_16">
    <defs>
     <path id="m8028c30c2a" d="M 0 3 
C 0.795609 3 1.55874 2.683901 2.12132 2.12132 
C 2.683901 1.55874 3 0.795609 3 0 
C 3 -0.795609 2.683901 -1.55874 2.12132 -2.12132 
C 1.55874 -2.683901 0.795609 -3 0 -3 
C -0.795609 -3 -1.55874 -2.683901 -2.12132 -2.12132 
C -2.683901 -1.55874 -3 -0.795609 -3 0 
C -3 0.795609 -2.683901 1.55874 -2.12132 2.12132 
C -1.55874 2.683901 -0.795609 3 0 3 
z
" style="stroke: #4682b4"/>
    </defs>
    <g clip-path="url(#p7b57183f5c)">
     <use xlink:href="#m8028c30c2a" x="83.689758" y="245.236364" style="fill: #4682b4; stroke: #4682b4"/>
     <use xlink:href="#m8028c30c2a" x="91.159639" y="237.819168" style="fill: #4682b4; stroke: #4682b4"/>
     <use xlink:href="#m8028c30c2a" x="93.44729" y="245.236364" style="fill: #4682b4; stroke: #4682b4"/>
     <use xlink:href="#m8028c30c2a" x="107.173197" y="233.883513" style="fill: #4682b4; stroke: #4682b4"/>
     <use xlink:href="#m8028c30c2a" x="110.674704" y="225.406718" style="fill: #4682b4; stroke: #4682b4"/>
     <use xlink:href="#m8028c30c2a" x="111.141572" y="229.947858" style="fill: #4682b4; stroke: #4682b4"/>
     <use xlink:href="#m8028c30c2a" x="111.88856" y="233.883513" style="fill: #4682b4; stroke: #4682b4"/>
     <use xlink:href="#m8028c30c2a" x="112.16868" y="233.883513" style="fill: #4682b4; stroke: #4682b4"/>
     <use xlink:href="#m8028c30c2a" x="113.149102" y="233.429399" style="fill: #4682b4; stroke: #4682b4"/>
     <use xlink:href="#m8028c30c2a" x="113.662656" y="233.883513" style="fill: #4682b4; stroke: #4682b4"/>
     <use xlink:href="#m8028c30c2a" x="114.643078" y="233.883513" style="fill: #4682b4; stroke: #4682b4"/>
     <use xlink:href="#m8028c30c2a" x="115.156633" y="224.801233" style="fill: #4682b4; stroke: #4682b4"/>
     <use xlink:href="#m8028c30c2a" x="117.164163" y="230.09923" style="fill: #4682b4; stroke: #4682b4"/>
     <use xlink:href="#m8028c30c2a" x="117.397597" y="232.067057" style="fill: #4682b4; stroke: #4682b4"/>
     <use xlink:href="#m8028c30c2a" x="118.891573" y="221.773806" style="fill: #4682b4; stroke: #4682b4"/>
     <use xlink:href="#m8028c30c2a" x="119.405128" y="230.09923" style="fill: #4682b4; stroke: #4682b4"/>
     <use xlink:href="#m8028c30c2a" x="119.638561" y="227.223174" style="fill: #4682b4; stroke: #4682b4"/>
     <use xlink:href="#m8028c30c2a" x="120.38555" y="233.883513" style="fill: #4682b4; stroke: #4682b4"/>
     <use xlink:href="#m8028c30c2a" x="120.66567" y="227.525917" style="fill: #4682b4; stroke: #4682b4"/>
     <use xlink:href="#m8028c30c2a" x="121.879526" y="216.324438" style="fill: #4682b4; stroke: #4682b4"/>
     <use xlink:href="#m8028c30c2a" x="123.420189" y="217.232666" style="fill: #4682b4; stroke: #4682b4"/>
     <use xlink:href="#m8028c30c2a" x="123.420189" y="218.746379" style="fill: #4682b4; stroke: #4682b4"/>
     <use xlink:href="#m8028c30c2a" x="123.420189" y="221.319692" style="fill: #4682b4; stroke: #4682b4"/>
     <use xlink:href="#m8028c30c2a" x="125.381033" y="226.314946" style="fill: #4682b4; stroke: #4682b4"/>
     <use xlink:href="#m8028c30c2a" x="128.135551" y="221.471063" style="fill: #4682b4; stroke: #4682b4"/>
     <use xlink:href="#m8028c30c2a" x="128.135551" y="218.746379" style="fill: #4682b4; stroke: #4682b4"/>
     <use xlink:href="#m8028c30c2a" x="130.376516" y="226.314946" style="fill: #4682b4; stroke: #4682b4"/>
     <use xlink:href="#m8028c30c2a" x="130.656636" y="214.507982" style="fill: #4682b4; stroke: #4682b4"/>
     <use xlink:href="#m8028c30c2a" x="131.637058" y="218.746379" style="fill: #4682b4; stroke: #4682b4"/>
     <use xlink:href="#m8028c30c2a" x="133.411155" y="220.260092" style="fill: #4682b4; stroke: #4682b4"/>
     <use xlink:href="#m8028c30c2a" x="134.391577" y="226.314946" style="fill: #4682b4; stroke: #4682b4"/>
     <use xlink:href="#m8028c30c2a" x="134.48495" y="218.746379" style="fill: #4682b4; stroke: #4682b4"/>
     <use xlink:href="#m8028c30c2a" x="134.625011" y="218.746379" style="fill: #4682b4; stroke: #4682b4"/>
     <use xlink:href="#m8028c30c2a" x="137.146095" y="218.746379" style="fill: #4682b4; stroke: #4682b4"/>
     <use xlink:href="#m8028c30c2a" x="138.406638" y="218.746379" style="fill: #4682b4; stroke: #4682b4"/>
     <use xlink:href="#m8028c30c2a" x="140.647602" y="231.764314" style="fill: #4682b4; stroke: #4682b4"/>
     <use xlink:href="#m8028c30c2a" x="142.375012" y="216.475809" style="fill: #4682b4; stroke: #4682b4"/>
     <use xlink:href="#m8028c30c2a" x="142.888567" y="218.746379" style="fill: #4682b4; stroke: #4682b4"/>
     <use xlink:href="#m8028c30c2a" x="145.362965" y="201.641418" style="fill: #4682b4; stroke: #4682b4"/>
     <use xlink:href="#m8028c30c2a" x="146.856941" y="222.530663" style="fill: #4682b4; stroke: #4682b4"/>
     <use xlink:href="#m8028c30c2a" x="147.137062" y="207.393529" style="fill: #4682b4; stroke: #4682b4"/>
     <use xlink:href="#m8028c30c2a" x="147.88405" y="203.609245" style="fill: #4682b4; stroke: #4682b4"/>
     <use xlink:href="#m8028c30c2a" x="148.864472" y="206.4853" style="fill: #4682b4; stroke: #4682b4"/>
     <use xlink:href="#m8028c30c2a" x="149.378026" y="173.334977" style="fill: #4682b4; stroke: #4682b4"/>
     <use xlink:href="#m8028c30c2a" x="151.852424" y="212.237411" style="fill: #4682b4; stroke: #4682b4"/>
     <use xlink:href="#m8028c30c2a" x="152.879533" y="203.609245" style="fill: #4682b4; stroke: #4682b4"/>
     <use xlink:href="#m8028c30c2a" x="153.112967" y="211.631926" style="fill: #4682b4; stroke: #4682b4"/>
     <use xlink:href="#m8028c30c2a" x="154.373509" y="215.718952" style="fill: #4682b4; stroke: #4682b4"/>
     <use xlink:href="#m8028c30c2a" x="154.606943" y="203.609245" style="fill: #4682b4; stroke: #4682b4"/>
     <use xlink:href="#m8028c30c2a" x="155.867485" y="211.177812" style="fill: #4682b4; stroke: #4682b4"/>
     <use xlink:href="#m8028c30c2a" x="155.867485" y="192.710508" style="fill: #4682b4; stroke: #4682b4"/>
     <use xlink:href="#m8028c30c2a" x="157.128028" y="194.375593" style="fill: #4682b4; stroke: #4682b4"/>
     <use xlink:href="#m8028c30c2a" x="157.128028" y="194.375593" style="fill: #4682b4; stroke: #4682b4"/>
     <use xlink:href="#m8028c30c2a" x="157.361461" y="218.746379" style="fill: #4682b4; stroke: #4682b4"/>
     <use xlink:href="#m8028c30c2a" x="157.361461" y="193.013251" style="fill: #4682b4; stroke: #4682b4"/>
     <use xlink:href="#m8028c30c2a" x="157.594895" y="203.609245" style="fill: #4682b4; stroke: #4682b4"/>
     <use xlink:href="#m8028c30c2a" x="158.622004" y="214.205239" style="fill: #4682b4; stroke: #4682b4"/>
     <use xlink:href="#m8028c30c2a" x="159.135558" y="207.393529" style="fill: #4682b4; stroke: #4682b4"/>
     <use xlink:href="#m8028c30c2a" x="159.135558" y="200.884561" style="fill: #4682b4; stroke: #4682b4"/>
     <use xlink:href="#m8028c30c2a" x="160.349414" y="218.746379" style="fill: #4682b4; stroke: #4682b4"/>
     <use xlink:href="#m8028c30c2a" x="160.629534" y="188.472111" style="fill: #4682b4; stroke: #4682b4"/>
     <use xlink:href="#m8028c30c2a" x="160.629534" y="207.393529" style="fill: #4682b4; stroke: #4682b4"/>
     <use xlink:href="#m8028c30c2a" x="161.84339" y="207.393529" style="fill: #4682b4; stroke: #4682b4"/>
     <use xlink:href="#m8028c30c2a" x="161.84339" y="209.664099" style="fill: #4682b4; stroke: #4682b4"/>
     <use xlink:href="#m8028c30c2a" x="162.870499" y="211.177812" style="fill: #4682b4; stroke: #4682b4"/>
     <use xlink:href="#m8028c30c2a" x="162.870499" y="198.311248" style="fill: #4682b4; stroke: #4682b4"/>
     <use xlink:href="#m8028c30c2a" x="162.870499" y="206.788043" style="fill: #4682b4; stroke: #4682b4"/>
     <use xlink:href="#m8028c30c2a" x="162.870499" y="212.994268" style="fill: #4682b4; stroke: #4682b4"/>
     <use xlink:href="#m8028c30c2a" x="162.870499" y="201.94416" style="fill: #4682b4; stroke: #4682b4"/>
     <use xlink:href="#m8028c30c2a" x="163.103933" y="203.609245" style="fill: #4682b4; stroke: #4682b4"/>
     <use xlink:href="#m8028c30c2a" x="163.103933" y="218.746379" style="fill: #4682b4; stroke: #4682b4"/>
     <use xlink:href="#m8028c30c2a" x="163.103933" y="198.613991" style="fill: #4682b4; stroke: #4682b4"/>
     <use xlink:href="#m8028c30c2a" x="163.384053" y="214.659353" style="fill: #4682b4; stroke: #4682b4"/>
     <use xlink:href="#m8028c30c2a" x="163.850921" y="206.636672" style="fill: #4682b4; stroke: #4682b4"/>
     <use xlink:href="#m8028c30c2a" x="166.605439" y="203.609245" style="fill: #4682b4; stroke: #4682b4"/>
     <use xlink:href="#m8028c30c2a" x="167.118994" y="127.923575" style="fill: #4682b4; stroke: #4682b4"/>
     <use xlink:href="#m8028c30c2a" x="167.352428" y="212.388783" style="fill: #4682b4; stroke: #4682b4"/>
     <use xlink:href="#m8028c30c2a" x="167.865982" y="214.053867" style="fill: #4682b4; stroke: #4682b4"/>
     <use xlink:href="#m8028c30c2a" x="170.34038" y="218.746379" style="fill: #4682b4; stroke: #4682b4"/>
     <use xlink:href="#m8028c30c2a" x="170.34038" y="182.871371" style="fill: #4682b4; stroke: #4682b4"/>
     <use xlink:href="#m8028c30c2a" x="170.853934" y="188.472111" style="fill: #4682b4; stroke: #4682b4"/>
     <use xlink:href="#m8028c30c2a" x="172.861465" y="203.609245" style="fill: #4682b4; stroke: #4682b4"/>
     <use xlink:href="#m8028c30c2a" x="173.375019" y="201.641418" style="fill: #4682b4; stroke: #4682b4"/>
     <use xlink:href="#m8028c30c2a" x="174.122007" y="203.609245" style="fill: #4682b4; stroke: #4682b4"/>
     <use xlink:href="#m8028c30c2a" x="175.102429" y="194.224222" style="fill: #4682b4; stroke: #4682b4"/>
     <use xlink:href="#m8028c30c2a" x="176.596406" y="196.948906" style="fill: #4682b4; stroke: #4682b4"/>
     <use xlink:href="#m8028c30c2a" x="178.090382" y="188.472111" style="fill: #4682b4; stroke: #4682b4"/>
     <use xlink:href="#m8028c30c2a" x="179.584358" y="188.472111" style="fill: #4682b4; stroke: #4682b4"/>
     <use xlink:href="#m8028c30c2a" x="179.864479" y="192.407766" style="fill: #4682b4; stroke: #4682b4"/>
     <use xlink:href="#m8028c30c2a" x="180.331346" y="203.609245" style="fill: #4682b4; stroke: #4682b4"/>
     <use xlink:href="#m8028c30c2a" x="180.844901" y="188.472111" style="fill: #4682b4; stroke: #4682b4"/>
     <use xlink:href="#m8028c30c2a" x="181.825322" y="195.283821" style="fill: #4682b4; stroke: #4682b4"/>
     <use xlink:href="#m8028c30c2a" x="183.085865" y="187.715254" style="fill: #4682b4; stroke: #4682b4"/>
     <use xlink:href="#m8028c30c2a" x="183.319299" y="192.256394" style="fill: #4682b4; stroke: #4682b4"/>
     <use xlink:href="#m8028c30c2a" x="184.579841" y="192.559137" style="fill: #4682b4; stroke: #4682b4"/>
     <use xlink:href="#m8028c30c2a" x="185.093395" y="188.472111" style="fill: #4682b4; stroke: #4682b4"/>
     <use xlink:href="#m8028c30c2a" x="185.326829" y="188.472111" style="fill: #4682b4; stroke: #4682b4"/>
     <use xlink:href="#m8028c30c2a" x="186.073817" y="203.609245" style="fill: #4682b4; stroke: #4682b4"/>
     <use xlink:href="#m8028c30c2a" x="186.353938" y="201.338675" style="fill: #4682b4; stroke: #4682b4"/>
     <use xlink:href="#m8028c30c2a" x="186.587372" y="97.649307" style="fill: #4682b4; stroke: #4682b4"/>
     <use xlink:href="#m8028c30c2a" x="187.567794" y="188.472111" style="fill: #4682b4; stroke: #4682b4"/>
     <use xlink:href="#m8028c30c2a" x="187.847914" y="188.472111" style="fill: #4682b4; stroke: #4682b4"/>
     <use xlink:href="#m8028c30c2a" x="189.575324" y="188.472111" style="fill: #4682b4; stroke: #4682b4"/>
     <use xlink:href="#m8028c30c2a" x="190.322312" y="196.040678" style="fill: #4682b4; stroke: #4682b4"/>
     <use xlink:href="#m8028c30c2a" x="191.816289" y="182.417257" style="fill: #4682b4; stroke: #4682b4"/>
     <use xlink:href="#m8028c30c2a" x="193.076831" y="173.334977" style="fill: #4682b4; stroke: #4682b4"/>
     <use xlink:href="#m8028c30c2a" x="195.597916" y="173.334977" style="fill: #4682b4; stroke: #4682b4"/>
     <use xlink:href="#m8028c30c2a" x="197.091892" y="187.715254" style="fill: #4682b4; stroke: #4682b4"/>
     <use xlink:href="#m8028c30c2a" x="198.072314" y="180.44943" style="fill: #4682b4; stroke: #4682b4"/>
     <use xlink:href="#m8028c30c2a" x="201.060267" y="215.718952" style="fill: #4682b4; stroke: #4682b4"/>
     <use xlink:href="#m8028c30c2a" x="204.094906" y="188.472111" style="fill: #4682b4; stroke: #4682b4"/>
     <use xlink:href="#m8028c30c2a" x="205.075328" y="186.050169" style="fill: #4682b4; stroke: #4682b4"/>
     <use xlink:href="#m8028c30c2a" x="205.822316" y="177.724746" style="fill: #4682b4; stroke: #4682b4"/>
     <use xlink:href="#m8028c30c2a" x="206.569304" y="166.977381" style="fill: #4682b4; stroke: #4682b4"/>
     <use xlink:href="#m8028c30c2a" x="207.082858" y="171.669892" style="fill: #4682b4; stroke: #4682b4"/>
     <use xlink:href="#m8028c30c2a" x="208.343401" y="170.30755" style="fill: #4682b4; stroke: #4682b4"/>
     <use xlink:href="#m8028c30c2a" x="208.343401" y="166.674638" style="fill: #4682b4; stroke: #4682b4"/>
     <use xlink:href="#m8028c30c2a" x="210.584365" y="170.913035" style="fill: #4682b4; stroke: #4682b4"/>
     <use xlink:href="#m8028c30c2a" x="210.817799" y="196.646163" style="fill: #4682b4; stroke: #4682b4"/>
     <use xlink:href="#m8028c30c2a" x="211.331353" y="188.472111" style="fill: #4682b4; stroke: #4682b4"/>
     <use xlink:href="#m8028c30c2a" x="211.564787" y="159.560185" style="fill: #4682b4; stroke: #4682b4"/>
     <use xlink:href="#m8028c30c2a" x="213.805751" y="181.357658" style="fill: #4682b4; stroke: #4682b4"/>
     <use xlink:href="#m8028c30c2a" x="214.319306" y="158.197843" style="fill: #4682b4; stroke: #4682b4"/>
     <use xlink:href="#m8028c30c2a" x="215.299728" y="186.201541" style="fill: #4682b4; stroke: #4682b4"/>
     <use xlink:href="#m8028c30c2a" x="218.801234" y="173.334977" style="fill: #4682b4; stroke: #4682b4"/>
     <use xlink:href="#m8028c30c2a" x="220.575331" y="173.032234" style="fill: #4682b4; stroke: #4682b4"/>
     <use xlink:href="#m8028c30c2a" x="220.575331" y="188.169368" style="fill: #4682b4; stroke: #4682b4"/>
     <use xlink:href="#m8028c30c2a" x="221.322319" y="173.334977" style="fill: #4682b4; stroke: #4682b4"/>
     <use xlink:href="#m8028c30c2a" x="222.069307" y="162.738983" style="fill: #4682b4; stroke: #4682b4"/>
     <use xlink:href="#m8028c30c2a" x="222.302741" y="180.903544" style="fill: #4682b4; stroke: #4682b4"/>
     <use xlink:href="#m8028c30c2a" x="225.05726" y="127.015347" style="fill: #4682b4; stroke: #4682b4"/>
     <use xlink:href="#m8028c30c2a" x="225.290694" y="173.183606" style="fill: #4682b4; stroke: #4682b4"/>
     <use xlink:href="#m8028c30c2a" x="226.78467" y="178.027488" style="fill: #4682b4; stroke: #4682b4"/>
     <use xlink:href="#m8028c30c2a" x="228.558767" y="173.334977" style="fill: #4682b4; stroke: #4682b4"/>
     <use xlink:href="#m8028c30c2a" x="239.063287" y="143.666194" style="fill: #4682b4; stroke: #4682b4"/>
     <use xlink:href="#m8028c30c2a" x="242.518107" y="173.334977" style="fill: #4682b4; stroke: #4682b4"/>
     <use xlink:href="#m8028c30c2a" x="243.545216" y="173.334977" style="fill: #4682b4; stroke: #4682b4"/>
     <use xlink:href="#m8028c30c2a" x="243.77865" y="157.440986" style="fill: #4682b4; stroke: #4682b4"/>
     <use xlink:href="#m8028c30c2a" x="244.525638" y="143.060709" style="fill: #4682b4; stroke: #4682b4"/>
     <use xlink:href="#m8028c30c2a" x="245.272626" y="143.060709" style="fill: #4682b4; stroke: #4682b4"/>
     <use xlink:href="#m8028c30c2a" x="248.027145" y="156.078644" style="fill: #4682b4; stroke: #4682b4"/>
     <use xlink:href="#m8028c30c2a" x="249.801241" y="147.601849" style="fill: #4682b4; stroke: #4682b4"/>
     <use xlink:href="#m8028c30c2a" x="250.268109" y="158.803328" style="fill: #4682b4; stroke: #4682b4"/>
     <use xlink:href="#m8028c30c2a" x="256.757568" y="162.738983" style="fill: #4682b4; stroke: #4682b4"/>
     <use xlink:href="#m8028c30c2a" x="261.519618" y="139.276425" style="fill: #4682b4; stroke: #4682b4"/>
     <use xlink:href="#m8028c30c2a" x="261.753051" y="153.656703" style="fill: #4682b4; stroke: #4682b4"/>
     <use xlink:href="#m8028c30c2a" x="271.744017" y="142.152481" style="fill: #4682b4; stroke: #4682b4"/>
     <use xlink:href="#m8028c30c2a" x="276.506067" y="142.455223" style="fill: #4682b4; stroke: #4682b4"/>
     <use xlink:href="#m8028c30c2a" x="307.459387" y="91.443082" style="fill: #4682b4; stroke: #4682b4"/>
     <use xlink:href="#m8028c30c2a" x="310.494026" y="101.282219" style="fill: #4682b4; stroke: #4682b4"/>
     <use xlink:href="#m8028c30c2a" x="317.216919" y="97.649307" style="fill: #4682b4; stroke: #4682b4"/>
     <use xlink:href="#m8028c30c2a" x="325.900656" y="112.786441" style="fill: #4682b4; stroke: #4682b4"/>
     <use xlink:href="#m8028c30c2a" x="335.471441" y="97.649307" style="fill: #4682b4; stroke: #4682b4"/>
     <use xlink:href="#m8028c30c2a" x="343.454877" y="97.649307" style="fill: #4682b4; stroke: #4682b4"/>
     <use xlink:href="#m8028c30c2a" x="352.932289" y="97.649307" style="fill: #4682b4; stroke: #4682b4"/>
     <use xlink:href="#m8028c30c2a" x="359.421748" y="21.963636" style="fill: #4682b4; stroke: #4682b4"/>
     <use xlink:href="#m8028c30c2a" x="405.128084" y="90.232111" style="fill: #4682b4; stroke: #4682b4"/>
    </g>
   </g>
   <g id="patch_3">
    <path d="M 67.617842 256.4 
L 67.617842 10.8 
" style="fill: none; stroke: #030303; stroke-width: 1.5; stroke-linejoin: miter; stroke-linecap: square"/>
   </g>
   <g id="patch_4">
    <path d="M 67.617842 256.4 
L 421.2 256.4 
" style="fill: none; stroke: #030303; stroke-width: 1.5; stroke-linejoin: miter; stroke-linecap: square"/>
   </g>
  </g>
  <g id="axes_2">
   <g id="text_18">
    <!-- r=0.915 -->
    <g style="fill: #4682b4" transform="translate(74.689485 36.757188) scale(0.18 -0.18)">
     <defs>
      <path id="DejaVuSerif-72" d="M 3059 3328 
L 3059 2497 
L 2728 2497 
Q 2713 2744 2591 2866 
Q 2469 2988 2234 2988 
Q 1809 2988 1582 2694 
Q 1356 2400 1356 1850 
L 1356 331 
L 2022 331 
L 2022 0 
L 263 0 
L 263 331 
L 781 331 
L 781 2994 
L 231 2994 
L 231 3322 
L 1356 3322 
L 1356 2731 
Q 1525 3078 1790 3245 
Q 2056 3413 2438 3413 
Q 2578 3413 2733 3391 
Q 2888 3369 3059 3328 
z
" transform="scale(0.015625)"/>
      <path id="DejaVuSerif-3d" d="M 678 2894 
L 4684 2894 
L 4684 2394 
L 678 2394 
L 678 2894 
z
M 678 1619 
L 4684 1619 
L 4684 1119 
L 678 1119 
L 678 1619 
z
" transform="scale(0.015625)"/>
      <path id="DejaVuSerif-39" d="M 2994 2091 
Q 2784 1856 2512 1740 
Q 2241 1625 1900 1625 
Q 1206 1625 804 2044 
Q 403 2463 403 3188 
Q 403 3897 839 4323 
Q 1275 4750 2003 4750 
Q 2794 4750 3217 4161 
Q 3641 3572 3641 2478 
Q 3641 1253 3137 581 
Q 2634 -91 1722 -91 
Q 1475 -91 1203 -44 
Q 931 3 647 97 
L 647 872 
L 997 872 
Q 1038 556 1241 387 
Q 1444 219 1784 219 
Q 2391 219 2687 676 
Q 2984 1134 2994 2091 
z
M 1978 4441 
Q 1534 4441 1298 4117 
Q 1063 3794 1063 3188 
Q 1063 2581 1298 2256 
Q 1534 1931 1978 1931 
Q 2422 1931 2658 2245 
Q 2894 2559 2894 3150 
Q 2894 3772 2656 4106 
Q 2419 4441 1978 4441 
z
" transform="scale(0.015625)"/>
     </defs>
     <use xlink:href="#DejaVuSerif-72"/>
     <use xlink:href="#DejaVuSerif-3d" x="47.802734"/>
     <use xlink:href="#DejaVuSerif-30" x="131.591797"/>
     <use xlink:href="#DejaVuSerif-2e" x="195.214844"/>
     <use xlink:href="#DejaVuSerif-39" x="227.001953"/>
     <use xlink:href="#DejaVuSerif-31" x="290.625"/>
     <use xlink:href="#DejaVuSerif-35" x="354.248047"/>
    </g>
   </g>
  </g>
  <g id="axes_3">
   <g id="line2d_17">
    <path d="M 83.689758 248.866112 
L 405.128084 58.963432 
" clip-path="url(#p7b57183f5c)" style="fill: none; stroke: #e04b4b; stroke-width: 2; stroke-linecap: square"/>
   </g>
   <g id="text_19">
    <!-- $y=-0.292+0.182x$ -->
    <g style="fill: #e04b4b" transform="translate(232.02 238.094028) scale(0.18 -0.18)">
     <defs>
      <path id="DejaVuSans-Oblique-79" d="M 1588 -325 
Q 1188 -997 936 -1164 
Q 684 -1331 294 -1331 
L -159 -1331 
L -63 -850 
L 269 -850 
Q 509 -850 678 -719 
Q 847 -588 1056 -206 
L 1234 128 
L 459 3500 
L 1069 3500 
L 1650 819 
L 3256 3500 
L 3859 3500 
L 1588 -325 
z
" transform="scale(0.015625)"/>
      <path id="DejaVuSans-3d" d="M 678 2906 
L 4684 2906 
L 4684 2381 
L 678 2381 
L 678 2906 
z
M 678 1631 
L 4684 1631 
L 4684 1100 
L 678 1100 
L 678 1631 
z
" transform="scale(0.015625)"/>
      <path id="DejaVuSans-2212" d="M 678 2272 
L 4684 2272 
L 4684 1741 
L 678 1741 
L 678 2272 
z
" transform="scale(0.015625)"/>
      <path id="DejaVuSans-30" d="M 2034 4250 
Q 1547 4250 1301 3770 
Q 1056 3291 1056 2328 
Q 1056 1369 1301 889 
Q 1547 409 2034 409 
Q 2525 409 2770 889 
Q 3016 1369 3016 2328 
Q 3016 3291 2770 3770 
Q 2525 4250 2034 4250 
z
M 2034 4750 
Q 2819 4750 3233 4129 
Q 3647 3509 3647 2328 
Q 3647 1150 3233 529 
Q 2819 -91 2034 -91 
Q 1250 -91 836 529 
Q 422 1150 422 2328 
Q 422 3509 836 4129 
Q 1250 4750 2034 4750 
z
" transform="scale(0.015625)"/>
      <path id="DejaVuSans-2e" d="M 684 794 
L 1344 794 
L 1344 0 
L 684 0 
L 684 794 
z
" transform="scale(0.015625)"/>
      <path id="DejaVuSans-32" d="M 1228 531 
L 3431 531 
L 3431 0 
L 469 0 
L 469 531 
Q 828 903 1448 1529 
Q 2069 2156 2228 2338 
Q 2531 2678 2651 2914 
Q 2772 3150 2772 3378 
Q 2772 3750 2511 3984 
Q 2250 4219 1831 4219 
Q 1534 4219 1204 4116 
Q 875 4013 500 3803 
L 500 4441 
Q 881 4594 1212 4672 
Q 1544 4750 1819 4750 
Q 2544 4750 2975 4387 
Q 3406 4025 3406 3419 
Q 3406 3131 3298 2873 
Q 3191 2616 2906 2266 
Q 2828 2175 2409 1742 
Q 1991 1309 1228 531 
z
" transform="scale(0.015625)"/>
      <path id="DejaVuSans-39" d="M 703 97 
L 703 672 
Q 941 559 1184 500 
Q 1428 441 1663 441 
Q 2288 441 2617 861 
Q 2947 1281 2994 2138 
Q 2813 1869 2534 1725 
Q 2256 1581 1919 1581 
Q 1219 1581 811 2004 
Q 403 2428 403 3163 
Q 403 3881 828 4315 
Q 1253 4750 1959 4750 
Q 2769 4750 3195 4129 
Q 3622 3509 3622 2328 
Q 3622 1225 3098 567 
Q 2575 -91 1691 -91 
Q 1453 -91 1209 -44 
Q 966 3 703 97 
z
M 1959 2075 
Q 2384 2075 2632 2365 
Q 2881 2656 2881 3163 
Q 2881 3666 2632 3958 
Q 2384 4250 1959 4250 
Q 1534 4250 1286 3958 
Q 1038 3666 1038 3163 
Q 1038 2656 1286 2365 
Q 1534 2075 1959 2075 
z
" transform="scale(0.015625)"/>
      <path id="DejaVuSans-2b" d="M 2944 4013 
L 2944 2272 
L 4684 2272 
L 4684 1741 
L 2944 1741 
L 2944 0 
L 2419 0 
L 2419 1741 
L 678 1741 
L 678 2272 
L 2419 2272 
L 2419 4013 
L 2944 4013 
z
" transform="scale(0.015625)"/>
      <path id="DejaVuSans-31" d="M 794 531 
L 1825 531 
L 1825 4091 
L 703 3866 
L 703 4441 
L 1819 4666 
L 2450 4666 
L 2450 531 
L 3481 531 
L 3481 0 
L 794 0 
L 794 531 
z
" transform="scale(0.015625)"/>
      <path id="DejaVuSans-38" d="M 2034 2216 
Q 1584 2216 1326 1975 
Q 1069 1734 1069 1313 
Q 1069 891 1326 650 
Q 1584 409 2034 409 
Q 2484 409 2743 651 
Q 3003 894 3003 1313 
Q 3003 1734 2745 1975 
Q 2488 2216 2034 2216 
z
M 1403 2484 
Q 997 2584 770 2862 
Q 544 3141 544 3541 
Q 544 4100 942 4425 
Q 1341 4750 2034 4750 
Q 2731 4750 3128 4425 
Q 3525 4100 3525 3541 
Q 3525 3141 3298 2862 
Q 3072 2584 2669 2484 
Q 3125 2378 3379 2068 
Q 3634 1759 3634 1313 
Q 3634 634 3220 271 
Q 2806 -91 2034 -91 
Q 1263 -91 848 271 
Q 434 634 434 1313 
Q 434 1759 690 2068 
Q 947 2378 1403 2484 
z
M 1172 3481 
Q 1172 3119 1398 2916 
Q 1625 2713 2034 2713 
Q 2441 2713 2670 2916 
Q 2900 3119 2900 3481 
Q 2900 3844 2670 4047 
Q 2441 4250 2034 4250 
Q 1625 4250 1398 4047 
Q 1172 3844 1172 3481 
z
" transform="scale(0.015625)"/>
      <path id="DejaVuSans-Oblique-78" d="M 3841 3500 
L 2234 1784 
L 3219 0 
L 2559 0 
L 1819 1388 
L 531 0 
L -166 0 
L 1556 1844 
L 641 3500 
L 1300 3500 
L 1972 2234 
L 3144 3500 
L 3841 3500 
z
" transform="scale(0.015625)"/>
     </defs>
     <use xlink:href="#DejaVuSans-Oblique-79" transform="translate(0 0.78125)"/>
     <use xlink:href="#DejaVuSans-3d" transform="translate(78.662109 0.78125)"/>
     <use xlink:href="#DejaVuSans-2212" transform="translate(201.416016 0.78125)"/>
     <use xlink:href="#DejaVuSans-30" transform="translate(304.6875 0.78125)"/>
     <use xlink:href="#DejaVuSans-2e" transform="translate(368.310547 0.78125)"/>
     <use xlink:href="#DejaVuSans-32" transform="translate(394.597656 0.78125)"/>
     <use xlink:href="#DejaVuSans-39" transform="translate(456.470703 0.78125)"/>
     <use xlink:href="#DejaVuSans-32" transform="translate(518.34375 0.78125)"/>
     <use xlink:href="#DejaVuSans-2b" transform="translate(601.449219 0.78125)"/>
     <use xlink:href="#DejaVuSans-30" transform="translate(704.720703 0.78125)"/>
     <use xlink:href="#DejaVuSans-2e" transform="translate(768.34375 0.78125)"/>
     <use xlink:href="#DejaVuSans-31" transform="translate(800.130859 0.78125)"/>
     <use xlink:href="#DejaVuSans-38" transform="translate(863.753906 0.78125)"/>
     <use xlink:href="#DejaVuSans-32" transform="translate(927.376953 0.78125)"/>
     <use xlink:href="#DejaVuSans-Oblique-78" transform="translate(991 0.78125)"/>
    </g>
   </g>
  </g>
  <g id="axes_4">
   <g id="PolyCollection_1">
    <defs>
     <path id="m550b413626" d="M 83.689758 -61.821997 
L 83.689758 -52.445778 
L 91.159639 -57.123752 
L 93.44729 -58.555225 
L 107.173197 -67.130281 
L 110.674704 -69.313348 
L 111.141572 -69.604265 
L 111.88856 -70.069653 
L 112.16868 -70.244147 
L 113.149102 -70.854765 
L 113.662656 -71.174541 
L 114.643078 -71.784883 
L 115.156633 -72.104512 
L 117.164163 -73.353466 
L 117.397597 -73.49864 
L 118.891573 -74.427481 
L 119.405128 -74.746659 
L 119.638561 -74.891721 
L 120.38555 -75.355838 
L 120.66567 -75.529849 
L 121.879526 -76.283691 
L 123.420189 -77.239991 
L 123.420189 -77.239991 
L 123.420189 -77.239991 
L 125.381033 -78.456256 
L 128.135551 -80.163136 
L 128.135551 -80.163136 
L 130.376516 -81.550239 
L 130.656636 -81.723525 
L 131.637058 -82.329842 
L 133.411155 -83.426238 
L 134.391577 -84.031715 
L 134.48495 -84.089363 
L 134.625011 -84.17583 
L 137.146095 -85.731108 
L 138.406638 -86.50792 
L 140.647602 -87.887485 
L 142.375012 -88.94959 
L 142.888567 -89.265122 
L 145.362965 -90.783891 
L 146.856941 -91.699614 
L 147.137062 -91.871202 
L 147.88405 -92.328598 
L 148.864472 -92.92854 
L 149.378026 -93.242617 
L 151.852424 -94.754115 
L 152.879533 -95.380638 
L 153.112967 -95.522955 
L 154.373509 -96.290975 
L 154.606943 -96.433109 
L 155.867485 -97.20013 
L 155.867485 -97.20013 
L 157.128028 -97.966284 
L 157.128028 -97.966284 
L 157.361461 -98.108068 
L 157.361461 -98.108068 
L 157.594895 -98.249821 
L 158.622004 -98.873166 
L 159.135558 -99.184611 
L 159.135558 -99.184611 
L 160.349414 -99.920143 
L 160.629534 -100.089757 
L 160.629534 -100.089757 
L 161.84339 -100.824208 
L 161.84339 -100.824208 
L 162.870499 -101.444966 
L 162.870499 -101.444966 
L 162.870499 -101.444966 
L 162.870499 -101.444966 
L 162.870499 -101.444966 
L 163.103933 -101.585956 
L 163.103933 -101.585956 
L 163.103933 -101.585956 
L 163.384053 -101.7551 
L 163.850921 -102.036897 
L 166.605439 -103.696672 
L 167.118994 -104.005577 
L 167.352428 -104.145931 
L 167.865982 -104.454583 
L 170.34038 -105.939239 
L 170.34038 -105.939239 
L 170.853934 -106.246853 
L 172.861465 -107.447592 
L 173.375019 -107.754305 
L 174.122007 -108.200101 
L 175.102429 -108.784607 
L 176.596406 -109.673962 
L 178.090382 -110.56171 
L 179.584358 -111.44784 
L 179.864479 -111.613809 
L 180.331346 -111.890296 
L 180.844901 -112.194249 
L 181.825322 -112.773988 
L 183.085865 -113.518335 
L 183.319299 -113.656049 
L 184.579841 -114.399022 
L 185.093395 -114.701383 
L 185.326829 -114.838757 
L 186.073817 -115.278085 
L 186.353938 -115.442729 
L 186.587372 -115.579889 
L 187.567794 -116.155531 
L 187.847914 -116.319873 
L 189.575324 -117.332071 
L 190.322312 -117.76912 
L 191.816289 -118.642035 
L 193.076831 -119.377343 
L 195.597916 -120.844683 
L 197.091892 -121.712196 
L 198.072314 -122.2807 
L 201.060267 -124.009463 
L 204.094906 -125.759558 
L 205.075328 -126.323796 
L 205.822316 -126.753317 
L 206.569304 -127.182519 
L 207.082858 -127.477412 
L 208.343401 -128.20062 
L 208.343401 -128.20062 
L 210.584365 -129.4842 
L 210.817799 -129.617754 
L 211.331353 -129.911473 
L 211.564787 -130.044938 
L 213.805751 -131.324804 
L 214.319306 -131.61776 
L 215.299728 -132.176689 
L 218.801234 -134.169265 
L 220.575331 -135.176793 
L 220.575331 -135.176793 
L 221.322319 -135.600624 
L 222.069307 -136.024228 
L 222.302741 -136.156559 
L 225.05726 -137.71647 
L 225.290694 -137.848535 
L 226.78467 -138.693281 
L 228.558767 -139.695396 
L 239.063287 -145.608812 
L 242.518107 -147.547098 
L 243.545216 -148.122798 
L 243.77865 -148.253605 
L 244.525638 -148.672106 
L 245.272626 -149.090483 
L 248.027145 -150.632225 
L 249.801241 -151.624394 
L 250.268109 -151.88539 
L 256.757568 -155.509152 
L 261.519618 -158.163938 
L 261.753051 -158.293989 
L 271.744017 -163.853454 
L 276.506067 -166.499217 
L 307.459387 -183.650977 
L 310.494026 -185.329302 
L 317.216919 -189.045905 
L 325.900656 -193.843733 
L 335.471441 -199.128542 
L 343.454877 -203.534702 
L 352.932289 -208.763231 
L 359.421748 -212.342162 
L 405.128084 -237.528687 
L 405.128084 -256.544449 
L 405.128084 -256.544449 
L 359.421748 -227.725244 
L 352.932289 -223.636354 
L 343.454877 -217.666556 
L 335.471441 -212.639641 
L 325.900656 -206.615794 
L 317.216919 -201.153085 
L 310.494026 -196.926046 
L 307.459387 -195.0187 
L 276.506067 -175.596611 
L 271.744017 -172.615628 
L 261.753051 -166.369959 
L 261.519618 -166.224188 
L 256.757568 -163.252228 
L 250.268109 -159.20817 
L 249.801241 -158.917524 
L 248.027145 -157.813455 
L 245.272626 -156.10051 
L 244.525638 -155.63626 
L 243.77865 -155.172135 
L 243.545216 -155.027121 
L 242.518107 -154.389208 
L 239.063287 -152.245346 
L 228.558767 -145.746821 
L 226.78467 -144.652698 
L 225.290694 -143.73219 
L 225.05726 -143.588434 
L 222.302741 -141.893659 
L 222.069307 -141.750169 
L 221.322319 -141.291147 
L 220.575331 -140.83235 
L 220.575331 -140.83235 
L 218.801234 -139.743639 
L 215.299728 -137.598902 
L 214.319306 -136.999384 
L 213.805751 -136.685534 
L 211.564787 -135.317519 
L 211.331353 -135.175163 
L 210.817799 -134.862077 
L 210.584365 -134.71981 
L 208.343401 -133.355509 
L 208.343401 -133.355509 
L 207.082858 -132.589284 
L 206.569304 -132.277371 
L 205.822316 -131.823946 
L 205.075328 -131.37084 
L 204.094906 -130.776631 
L 201.060267 -128.941054 
L 198.072314 -127.13931 
L 197.091892 -126.549366 
L 195.597916 -125.651625 
L 193.076831 -124.1401 
L 191.816289 -123.385975 
L 190.322312 -122.493637 
L 189.575324 -122.048059 
L 187.847914 -121.019182 
L 187.567794 -120.852539 
L 186.587372 -120.269733 
L 186.353938 -120.131072 
L 186.073817 -119.964731 
L 185.326829 -119.521433 
L 185.093395 -119.382985 
L 184.579841 -119.07854 
L 183.319299 -118.33208 
L 183.085865 -118.193974 
L 181.825322 -117.448889 
L 180.844901 -116.87018 
L 180.331346 -116.567326 
L 179.864479 -116.292172 
L 179.584358 -116.127156 
L 178.090382 -115.248032 
L 176.596406 -114.370527 
L 175.102429 -113.494628 
L 174.122007 -112.920686 
L 173.375019 -112.483855 
L 172.861465 -112.183762 
L 170.853934 -111.012441 
L 170.34038 -110.713249 
L 170.34038 -110.713249 
L 167.865982 -109.274205 
L 167.352428 -108.97605 
L 167.118994 -108.840583 
L 166.605439 -108.542683 
L 163.850921 -106.947771 
L 163.384053 -106.677927 
L 163.103933 -106.516085 
L 163.103933 -106.516085 
L 163.103933 -106.516085 
L 162.870499 -106.381255 
L 162.870499 -106.381255 
L 162.870499 -106.381255 
L 162.870499 -106.381255 
L 162.870499 -106.381255 
L 161.84339 -105.7884 
L 161.84339 -105.7884 
L 160.629534 -105.088583 
L 160.629534 -105.088583 
L 160.349414 -104.927212 
L 159.135558 -104.228475 
L 159.135558 -104.228475 
L 158.622004 -103.933114 
L 157.594895 -103.342847 
L 157.361461 -103.208779 
L 157.361461 -103.208779 
L 157.128028 -103.074742 
L 157.128028 -103.074742 
L 155.867485 -102.351463 
L 155.867485 -102.351463 
L 154.606943 -101.629052 
L 154.373509 -101.495365 
L 153.112967 -100.773953 
L 152.879533 -100.640448 
L 151.852424 -100.053359 
L 149.378026 -98.641156 
L 148.864472 -98.348427 
L 147.88405 -97.789922 
L 147.137062 -97.36469 
L 146.856941 -97.205293 
L 145.362965 -96.355763 
L 142.888567 -94.95083 
L 142.375012 -94.659557 
L 140.647602 -93.680587 
L 138.406638 -92.412271 
L 137.146095 -91.69965 
L 134.625011 -90.276063 
L 134.48495 -90.197038 
L 134.391577 -90.144357 
L 133.411155 -89.591386 
L 131.637058 -88.591544 
L 130.656636 -88.039413 
L 130.376516 -87.881714 
L 128.135551 -86.620937 
L 128.135551 -86.620937 
L 125.381033 -85.07313 
L 123.420189 -83.9725 
L 123.420189 -83.9725 
L 123.420189 -83.9725 
L 121.879526 -83.108382 
L 120.66567 -82.427955 
L 120.38555 -82.270981 
L 119.638561 -81.852471 
L 119.405128 -81.721712 
L 118.891573 -81.434084 
L 117.397597 -80.597671 
L 117.164163 -80.467024 
L 115.156633 -79.343919 
L 114.643078 -79.056742 
L 113.662656 -78.508637 
L 113.149102 -78.221607 
L 112.16868 -77.673777 
L 111.88856 -77.517286 
L 111.141572 -77.100047 
L 110.674704 -76.839322 
L 107.173197 -74.885076 
L 93.44729 -67.241864 
L 91.159639 -65.970292 
L 83.689758 -61.821997 
z
" style="stroke: #f5d76e; stroke-opacity: 0.5"/>
    </defs>
    <g clip-path="url(#p7b57183f5c)">
     <use xlink:href="#m550b413626" x="0" y="306" style="fill: #f5d76e; fill-opacity: 0.5; stroke: #f5d76e; stroke-opacity: 0.5"/>
    </g>
   </g>
  </g>
  <g id="axes_5">
   <g id="text_20">
    <!-- $R^2 = 0.837$ -->
    <g style="fill: #f5d76e" transform="translate(325.62 214.308526) scale(0.18 -0.18)">
     <defs>
      <path id="DejaVuSans-Oblique-52" d="M 1613 4147 
L 1294 2491 
L 2106 2491 
Q 2584 2491 2879 2755 
Q 3175 3019 3175 3444 
Q 3175 3784 2976 3965 
Q 2778 4147 2406 4147 
L 1613 4147 
z
M 2772 2241 
Q 2972 2194 3105 2009 
Q 3238 1825 3413 1275 
L 3809 0 
L 3144 0 
L 2778 1197 
Q 2638 1659 2453 1815 
Q 2269 1972 1888 1972 
L 1191 1972 
L 806 0 
L 172 0 
L 1081 4666 
L 2503 4666 
Q 3150 4666 3495 4373 
Q 3841 4081 3841 3531 
Q 3841 3044 3547 2687 
Q 3253 2331 2772 2241 
z
" transform="scale(0.015625)"/>
      <path id="DejaVuSans-33" d="M 2597 2516 
Q 3050 2419 3304 2112 
Q 3559 1806 3559 1356 
Q 3559 666 3084 287 
Q 2609 -91 1734 -91 
Q 1441 -91 1130 -33 
Q 819 25 488 141 
L 488 750 
Q 750 597 1062 519 
Q 1375 441 1716 441 
Q 2309 441 2620 675 
Q 2931 909 2931 1356 
Q 2931 1769 2642 2001 
Q 2353 2234 1838 2234 
L 1294 2234 
L 1294 2753 
L 1863 2753 
Q 2328 2753 2575 2939 
Q 2822 3125 2822 3475 
Q 2822 3834 2567 4026 
Q 2313 4219 1838 4219 
Q 1578 4219 1281 4162 
Q 984 4106 628 3988 
L 628 4550 
Q 988 4650 1302 4700 
Q 1616 4750 1894 4750 
Q 2613 4750 3031 4423 
Q 3450 4097 3450 3541 
Q 3450 3153 3228 2886 
Q 3006 2619 2597 2516 
z
" transform="scale(0.015625)"/>
      <path id="DejaVuSans-37" d="M 525 4666 
L 3525 4666 
L 3525 4397 
L 1831 0 
L 1172 0 
L 2766 4134 
L 525 4134 
L 525 4666 
z
" transform="scale(0.015625)"/>
     </defs>
     <use xlink:href="#DejaVuSans-Oblique-52" transform="translate(0 0.765625)"/>
     <use xlink:href="#DejaVuSans-32" transform="translate(76.499193 39.046875) scale(0.7)"/>
     <use xlink:href="#DejaVuSans-3d" transform="translate(143.252122 0.765625)"/>
     <use xlink:href="#DejaVuSans-30" transform="translate(246.523607 0.765625)"/>
     <use xlink:href="#DejaVuSans-2e" transform="translate(310.146654 0.765625)"/>
     <use xlink:href="#DejaVuSans-38" transform="translate(339.308763 0.765625)"/>
     <use xlink:href="#DejaVuSans-33" transform="translate(402.93181 0.765625)"/>
     <use xlink:href="#DejaVuSans-37" transform="translate(466.554857 0.765625)"/>
    </g>
   </g>
  </g>
  <g id="axes_6">
   <g id="line2d_18">
    <defs>
     <path id="m7ff1712dc4" d="M 0 7.5 
C 1.989023 7.5 3.896849 6.709753 5.303301 5.303301 
C 6.709753 3.896849 7.5 1.989023 7.5 0 
C 7.5 -1.989023 6.709753 -3.896849 5.303301 -5.303301 
C 3.896849 -6.709753 1.989023 -7.5 0 -7.5 
C -1.989023 -7.5 -3.896849 -6.709753 -5.303301 -5.303301 
C -6.709753 -3.896849 -7.5 -1.989023 -7.5 0 
C -7.5 1.989023 -6.709753 3.896849 -5.303301 5.303301 
C -3.896849 6.709753 -1.989023 7.5 0 7.5 
z
" style="stroke: #e04b4b"/>
    </defs>
    <g clip-path="url(#p7b57183f5c)">
     <use xlink:href="#m7ff1712dc4" x="149.378026" y="173.334977" style="fill: #e04b4b; stroke: #e04b4b"/>
     <use xlink:href="#m7ff1712dc4" x="167.118994" y="127.923575" style="fill: #e04b4b; stroke: #e04b4b"/>
     <use xlink:href="#m7ff1712dc4" x="186.587372" y="97.649307" style="fill: #e04b4b; stroke: #e04b4b"/>
    </g>
   </g>
  </g>
 </g>
 <defs>
  <clipPath id="p7b57183f5c">
   <rect x="67.617842" y="10.8" width="353.582158" height="245.6"/>
  </clipPath>
 </defs>
</svg>
