<?xml version="1.0" encoding="utf-8" standalone="no"?>
<!DOCTYPE svg PUBLIC "-//W3C//DTD SVG 1.1//EN"
  "http://www.w3.org/Graphics/SVG/1.1/DTD/svg11.dtd">
<svg xmlns:xlink="http://www.w3.org/1999/xlink" width="432pt" height="270pt" viewBox="0 0 432 270" xmlns="http://www.w3.org/2000/svg" version="1.1">
 <metadata>
  <rdf:RDF xmlns:dc="http://purl.org/dc/elements/1.1/" xmlns:cc="http://creativecommons.org/ns#" xmlns:rdf="http://www.w3.org/1999/02/22-rdf-syntax-ns#">
   <cc:Work>
    <dc:type rdf:resource="http://purl.org/dc/dcmitype/StillImage"/>
    <dc:date>2024-09-17T12:48:16.384906</dc:date>
    <dc:format>image/svg+xml</dc:format>
    <dc:creator>
     <cc:Agent>
      <dc:title>Matplotlib v3.9.2, https://matplotlib.org/</dc:title>
     </cc:Agent>
    </dc:creator>
   </cc:Work>
  </rdf:RDF>
 </metadata>
 <defs>
  <style type="text/css">*{stroke-linejoin: round; stroke-linecap: butt}</style>
 </defs>
 <g id="figure_1">
  <g id="patch_1">
   <path d="M 0 270 
L 432 270 
L 432 0 
L 0 0 
L 0 270 
z
" style="fill: none"/>
  </g>
  <g id="axes_1">
   <g id="patch_2">
    <path d="M 54 240.3 
L 388.8 240.3 
L 388.8 32.4 
L 54 32.4 
L 54 240.3 
z
" style="fill: none"/>
   </g>
   <g id="PolyCollection_1">
    <path d="M 77.914286 240.3 
L 77.914286 240.233576 
L 78.297681 240.229186 
L 78.681076 240.224525 
L 79.064472 240.219578 
L 79.447867 240.214329 
L 79.831263 240.208761 
L 80.214658 240.202856 
L 80.598053 240.196595 
L 80.981449 240.189959 
L 81.364844 240.182927 
L 81.748239 240.175478 
L 82.131635 240.167588 
L 82.51503 240.159236 
L 82.898425 240.150394 
L 83.281821 240.141039 
L 83.665216 240.131141 
L 84.048612 240.120674 
L 84.432007 240.109606 
L 84.815402 240.097908 
L 85.198798 240.085545 
L 85.582193 240.072485 
L 85.965588 240.058692 
L 86.348984 240.044128 
L 86.732379 240.028755 
L 87.115774 240.012533 
L 87.49917 239.995418 
L 87.882565 239.977367 
L 88.26596 239.958335 
L 88.649356 239.938273 
L 89.032751 239.917131 
L 89.416147 239.894857 
L 89.799542 239.871398 
L 90.182937 239.846697 
L 90.566333 239.820696 
L 90.949728 239.793333 
L 91.333123 239.764546 
L 91.716519 239.734269 
L 92.099914 239.702434 
L 92.483309 239.668969 
L 92.866705 239.633802 
L 93.2501 239.596855 
L 93.633496 239.55805 
L 94.016891 239.517305 
L 94.400286 239.474534 
L 94.783682 239.42965 
L 95.167077 239.382561 
L 95.550472 239.333173 
L 95.933868 239.281388 
L 96.317263 239.227105 
L 96.700658 239.17022 
L 97.084054 239.110625 
L 97.467449 239.048208 
L 97.850845 238.982853 
L 98.23424 238.914443 
L 98.617635 238.842854 
L 99.001031 238.767961 
L 99.384426 238.689631 
L 99.767821 238.607733 
L 100.151217 238.522126 
L 100.534612 238.432668 
L 100.918007 238.339213 
L 101.301403 238.24161 
L 101.684798 238.139705 
L 102.068194 238.033336 
L 102.451589 237.922342 
L 102.834984 237.806553 
L 103.21838 237.685797 
L 103.601775 237.559898 
L 103.98517 237.428674 
L 104.368566 237.291938 
L 104.751961 237.149501 
L 105.135356 237.001168 
L 105.518752 236.846738 
L 105.902147 236.686007 
L 106.285543 236.518768 
L 106.668938 236.344806 
L 107.052333 236.163904 
L 107.435729 235.975839 
L 107.819124 235.780385 
L 108.202519 235.577311 
L 108.585915 235.36638 
L 108.96931 235.147353 
L 109.352705 234.919985 
L 109.736101 234.684028 
L 110.119496 234.439229 
L 110.502891 234.185331 
L 110.886287 233.922073 
L 111.269682 233.649191 
L 111.653078 233.366416 
L 112.036473 233.073475 
L 112.419868 232.770094 
L 112.803264 232.455992 
L 113.186659 232.130888 
L 113.570054 231.794497 
L 113.95345 231.446529 
L 114.336845 231.086693 
L 114.72024 230.714697 
L 115.103636 230.330244 
L 115.487031 229.933036 
L 115.870427 229.522772 
L 116.253822 229.099153 
L 116.637217 228.661874 
L 117.020613 228.210631 
L 117.404008 227.74512 
L 117.787403 227.265035 
L 118.170799 226.770069 
L 118.554194 226.259918 
L 118.937589 225.734276 
L 119.320985 225.192838 
L 119.70438 224.6353 
L 120.087776 224.061361 
L 120.471171 223.470719 
L 120.854566 222.863076 
L 121.237962 222.238136 
L 121.621357 221.595607 
L 122.004752 220.935198 
L 122.388148 220.256624 
L 122.771543 219.559603 
L 123.154938 218.843859 
L 123.538334 218.109119 
L 123.921729 217.355117 
L 124.305125 216.581592 
L 124.68852 215.788291 
L 125.071915 214.974967 
L 125.455311 214.14138 
L 125.838706 213.287299 
L 126.222101 212.412501 
L 126.605497 211.516772 
L 126.605497 240.3 
L 126.605497 240.3 
L 126.222101 240.3 
L 125.838706 240.3 
L 125.455311 240.3 
L 125.071915 240.3 
L 124.68852 240.3 
L 124.305125 240.3 
L 123.921729 240.3 
L 123.538334 240.3 
L 123.154938 240.3 
L 122.771543 240.3 
L 122.388148 240.3 
L 122.004752 240.3 
L 121.621357 240.3 
L 121.237962 240.3 
L 120.854566 240.3 
L 120.471171 240.3 
L 120.087776 240.3 
L 119.70438 240.3 
L 119.320985 240.3 
L 118.937589 240.3 
L 118.554194 240.3 
L 118.170799 240.3 
L 117.787403 240.3 
L 117.404008 240.3 
L 117.020613 240.3 
L 116.637217 240.3 
L 116.253822 240.3 
L 115.870427 240.3 
L 115.487031 240.3 
L 115.103636 240.3 
L 114.72024 240.3 
L 114.336845 240.3 
L 113.95345 240.3 
L 113.570054 240.3 
L 113.186659 240.3 
L 112.803264 240.3 
L 112.419868 240.3 
L 112.036473 240.3 
L 111.653078 240.3 
L 111.269682 240.3 
L 110.886287 240.3 
L 110.502891 240.3 
L 110.119496 240.3 
L 109.736101 240.3 
L 109.352705 240.3 
L 108.96931 240.3 
L 108.585915 240.3 
L 108.202519 240.3 
L 107.819124 240.3 
L 107.435729 240.3 
L 107.052333 240.3 
L 106.668938 240.3 
L 106.285543 240.3 
L 105.902147 240.3 
L 105.518752 240.3 
L 105.135356 240.3 
L 104.751961 240.3 
L 104.368566 240.3 
L 103.98517 240.3 
L 103.601775 240.3 
L 103.21838 240.3 
L 102.834984 240.3 
L 102.451589 240.3 
L 102.068194 240.3 
L 101.684798 240.3 
L 101.301403 240.3 
L 100.918007 240.3 
L 100.534612 240.3 
L 100.151217 240.3 
L 99.767821 240.3 
L 99.384426 240.3 
L 99.001031 240.3 
L 98.617635 240.3 
L 98.23424 240.3 
L 97.850845 240.3 
L 97.467449 240.3 
L 97.084054 240.3 
L 96.700658 240.3 
L 96.317263 240.3 
L 95.933868 240.3 
L 95.550472 240.3 
L 95.167077 240.3 
L 94.783682 240.3 
L 94.400286 240.3 
L 94.016891 240.3 
L 93.633496 240.3 
L 93.2501 240.3 
L 92.866705 240.3 
L 92.483309 240.3 
L 92.099914 240.3 
L 91.716519 240.3 
L 91.333123 240.3 
L 90.949728 240.3 
L 90.566333 240.3 
L 90.182937 240.3 
L 89.799542 240.3 
L 89.416147 240.3 
L 89.032751 240.3 
L 88.649356 240.3 
L 88.26596 240.3 
L 87.882565 240.3 
L 87.49917 240.3 
L 87.115774 240.3 
L 86.732379 240.3 
L 86.348984 240.3 
L 85.965588 240.3 
L 85.582193 240.3 
L 85.198798 240.3 
L 84.815402 240.3 
L 84.432007 240.3 
L 84.048612 240.3 
L 83.665216 240.3 
L 83.281821 240.3 
L 82.898425 240.3 
L 82.51503 240.3 
L 82.131635 240.3 
L 81.748239 240.3 
L 81.364844 240.3 
L 80.981449 240.3 
L 80.598053 240.3 
L 80.214658 240.3 
L 79.831263 240.3 
L 79.447867 240.3 
L 79.064472 240.3 
L 78.681076 240.3 
L 78.297681 240.3 
L 77.914286 240.3 
z
" clip-path="url(#pbe7013526d)" style="fill: #ffa500; fill-opacity: 0.5; stroke: #ffa500; stroke-opacity: 0.5"/>
    <path d="M 220.53736 240.3 
L 220.53736 211.516772 
L 220.920756 212.412501 
L 221.304151 213.287299 
L 221.687547 214.14138 
L 222.070942 214.974967 
L 222.454337 215.788291 
L 222.837733 216.581592 
L 223.221128 217.355117 
L 223.604523 218.109119 
L 223.987919 218.843859 
L 224.371314 219.559603 
L 224.754709 220.256624 
L 225.138105 220.935198 
L 225.5215 221.595607 
L 225.904896 222.238136 
L 226.288291 222.863076 
L 226.671686 223.470719 
L 227.055082 224.061361 
L 227.438477 224.6353 
L 227.821872 225.192838 
L 228.205268 225.734276 
L 228.588663 226.259918 
L 228.972058 226.770069 
L 229.355454 227.265035 
L 229.738849 227.74512 
L 230.122244 228.210631 
L 230.50564 228.661874 
L 230.889035 229.099153 
L 231.272431 229.522772 
L 231.655826 229.933036 
L 232.039221 230.330244 
L 232.422617 230.714697 
L 232.806012 231.086693 
L 233.189407 231.446529 
L 233.572803 231.794497 
L 233.956198 232.130888 
L 234.339593 232.455992 
L 234.722989 232.770094 
L 235.106384 233.073475 
L 235.48978 233.366416 
L 235.873175 233.649191 
L 236.25657 233.922073 
L 236.639966 234.185331 
L 237.023361 234.439229 
L 237.406756 234.684028 
L 237.790152 234.919985 
L 238.173547 235.147353 
L 238.556942 235.36638 
L 238.940338 235.577311 
L 239.323733 235.780385 
L 239.707129 235.975839 
L 240.090524 236.163904 
L 240.473919 236.344806 
L 240.857315 236.518768 
L 241.24071 236.686007 
L 241.624105 236.846738 
L 242.007501 237.001168 
L 242.390896 237.149501 
L 242.774291 237.291938 
L 243.157687 237.428674 
L 243.541082 237.559898 
L 243.924478 237.685797 
L 244.307873 237.806553 
L 244.691268 237.922342 
L 245.074664 238.033336 
L 245.458059 238.139705 
L 245.841454 238.24161 
L 246.22485 238.339213 
L 246.608245 238.432668 
L 246.99164 238.522126 
L 247.375036 238.607733 
L 247.758431 238.689631 
L 248.141827 238.767961 
L 248.525222 238.842854 
L 248.908617 238.914443 
L 249.292013 238.982853 
L 249.675408 239.048208 
L 250.058803 239.110625 
L 250.442199 239.17022 
L 250.825594 239.227105 
L 251.208989 239.281388 
L 251.592385 239.333173 
L 251.97578 239.382561 
L 252.359175 239.42965 
L 252.742571 239.474534 
L 253.125966 239.517305 
L 253.509362 239.55805 
L 253.892757 239.596855 
L 254.276152 239.633802 
L 254.659548 239.668969 
L 255.042943 239.702434 
L 255.426338 239.734269 
L 255.809734 239.764546 
L 256.193129 239.793333 
L 256.576524 239.820696 
L 256.95992 239.846697 
L 257.343315 239.871398 
L 257.726711 239.894857 
L 258.110106 239.917131 
L 258.493501 239.938273 
L 258.876897 239.958335 
L 259.260292 239.977367 
L 259.643687 239.995418 
L 260.027083 240.012533 
L 260.410478 240.028755 
L 260.793873 240.044128 
L 261.177269 240.058692 
L 261.560664 240.072485 
L 261.94406 240.085545 
L 262.327455 240.097908 
L 262.71085 240.109606 
L 263.094246 240.120674 
L 263.477641 240.131141 
L 263.861036 240.141039 
L 264.244432 240.150394 
L 264.627827 240.159236 
L 265.011222 240.167588 
L 265.394618 240.175478 
L 265.778013 240.182927 
L 266.161409 240.189959 
L 266.544804 240.196595 
L 266.928199 240.202856 
L 267.311595 240.208761 
L 267.69499 240.214329 
L 268.078385 240.219578 
L 268.461781 240.224525 
L 268.845176 240.229186 
L 269.228571 240.233576 
L 269.228571 240.3 
L 269.228571 240.3 
L 268.845176 240.3 
L 268.461781 240.3 
L 268.078385 240.3 
L 267.69499 240.3 
L 267.311595 240.3 
L 266.928199 240.3 
L 266.544804 240.3 
L 266.161409 240.3 
L 265.778013 240.3 
L 265.394618 240.3 
L 265.011222 240.3 
L 264.627827 240.3 
L 264.244432 240.3 
L 263.861036 240.3 
L 263.477641 240.3 
L 263.094246 240.3 
L 262.71085 240.3 
L 262.327455 240.3 
L 261.94406 240.3 
L 261.560664 240.3 
L 261.177269 240.3 
L 260.793873 240.3 
L 260.410478 240.3 
L 260.027083 240.3 
L 259.643687 240.3 
L 259.260292 240.3 
L 258.876897 240.3 
L 258.493501 240.3 
L 258.110106 240.3 
L 257.726711 240.3 
L 257.343315 240.3 
L 256.95992 240.3 
L 256.576524 240.3 
L 256.193129 240.3 
L 255.809734 240.3 
L 255.426338 240.3 
L 255.042943 240.3 
L 254.659548 240.3 
L 254.276152 240.3 
L 253.892757 240.3 
L 253.509362 240.3 
L 253.125966 240.3 
L 252.742571 240.3 
L 252.359175 240.3 
L 251.97578 240.3 
L 251.592385 240.3 
L 251.208989 240.3 
L 250.825594 240.3 
L 250.442199 240.3 
L 250.058803 240.3 
L 249.675408 240.3 
L 249.292013 240.3 
L 248.908617 240.3 
L 248.525222 240.3 
L 248.141827 240.3 
L 247.758431 240.3 
L 247.375036 240.3 
L 246.99164 240.3 
L 246.608245 240.3 
L 246.22485 240.3 
L 245.841454 240.3 
L 245.458059 240.3 
L 245.074664 240.3 
L 244.691268 240.3 
L 244.307873 240.3 
L 243.924478 240.3 
L 243.541082 240.3 
L 243.157687 240.3 
L 242.774291 240.3 
L 242.390896 240.3 
L 242.007501 240.3 
L 241.624105 240.3 
L 241.24071 240.3 
L 240.857315 240.3 
L 240.473919 240.3 
L 240.090524 240.3 
L 239.707129 240.3 
L 239.323733 240.3 
L 238.940338 240.3 
L 238.556942 240.3 
L 238.173547 240.3 
L 237.790152 240.3 
L 237.406756 240.3 
L 237.023361 240.3 
L 236.639966 240.3 
L 236.25657 240.3 
L 235.873175 240.3 
L 235.48978 240.3 
L 235.106384 240.3 
L 234.722989 240.3 
L 234.339593 240.3 
L 233.956198 240.3 
L 233.572803 240.3 
L 233.189407 240.3 
L 232.806012 240.3 
L 232.422617 240.3 
L 232.039221 240.3 
L 231.655826 240.3 
L 231.272431 240.3 
L 230.889035 240.3 
L 230.50564 240.3 
L 230.122244 240.3 
L 229.738849 240.3 
L 229.355454 240.3 
L 228.972058 240.3 
L 228.588663 240.3 
L 228.205268 240.3 
L 227.821872 240.3 
L 227.438477 240.3 
L 227.055082 240.3 
L 226.671686 240.3 
L 226.288291 240.3 
L 225.904896 240.3 
L 225.5215 240.3 
L 225.138105 240.3 
L 224.754709 240.3 
L 224.371314 240.3 
L 223.987919 240.3 
L 223.604523 240.3 
L 223.221128 240.3 
L 222.837733 240.3 
L 222.454337 240.3 
L 222.070942 240.3 
L 221.687547 240.3 
L 221.304151 240.3 
L 220.920756 240.3 
L 220.53736 240.3 
z
" clip-path="url(#pbe7013526d)" style="fill: #ffa500; fill-opacity: 0.5; stroke: #ffa500; stroke-opacity: 0.5"/>
   </g>
   <g id="matplotlib.axis_1">
    <g id="xtick_1">
     <g id="line2d_1">
      <defs>
       <path id="m7145b88fa6" d="M 0 0 
L 0 3.5 
" style="stroke: #030303; stroke-width: 0.8"/>
      </defs>
      <g>
       <use xlink:href="#m7145b88fa6" x="77.914286" y="240.3" style="fill: #030303; stroke: #030303; stroke-width: 0.8"/>
      </g>
     </g>
     <g id="text_1">
      <!-- $\mathdefault{−4}$ -->
      <g style="fill: #030303" transform="translate(68.294286 257.177969) scale(0.13 -0.13)">
       <defs>
        <path id="DejaVuSerif-2212" d="M 678 2259 
L 4684 2259 
L 4684 1753 
L 678 1753 
L 678 2259 
z
" transform="scale(0.015625)"/>
        <path id="DejaVuSerif-34" d="M 2234 1581 
L 2234 4063 
L 641 1581 
L 2234 1581 
z
M 3609 0 
L 1484 0 
L 1484 331 
L 2234 331 
L 2234 1247 
L 197 1247 
L 197 1588 
L 2241 4750 
L 2859 4750 
L 2859 1581 
L 3750 1581 
L 3750 1247 
L 2859 1247 
L 2859 331 
L 3609 331 
L 3609 0 
z
" transform="scale(0.015625)"/>
       </defs>
       <use xlink:href="#DejaVuSerif-2212" transform="translate(0 0.78125)"/>
       <use xlink:href="#DejaVuSerif-34" transform="translate(83.789062 0.78125)"/>
      </g>
     </g>
    </g>
    <g id="xtick_2">
     <g id="line2d_2">
      <g>
       <use xlink:href="#m7145b88fa6" x="125.742857" y="240.3" style="fill: #030303; stroke: #030303; stroke-width: 0.8"/>
      </g>
     </g>
     <g id="text_2">
      <!-- $\mathdefault{−2}$ -->
      <g style="fill: #030303" transform="translate(116.122857 257.177969) scale(0.13 -0.13)">
       <defs>
        <path id="DejaVuSerif-32" d="M 819 3553 
L 469 3553 
L 469 4384 
Q 803 4563 1142 4656 
Q 1481 4750 1806 4750 
Q 2534 4750 2956 4397 
Q 3378 4044 3378 3438 
Q 3378 2753 2422 1800 
Q 2347 1728 2309 1691 
L 1131 513 
L 3078 513 
L 3078 1088 
L 3444 1088 
L 3444 0 
L 434 0 
L 434 341 
L 1850 1753 
Q 2319 2222 2519 2614 
Q 2719 3006 2719 3438 
Q 2719 3909 2473 4175 
Q 2228 4441 1797 4441 
Q 1350 4441 1106 4219 
Q 863 3997 819 3553 
z
" transform="scale(0.015625)"/>
       </defs>
       <use xlink:href="#DejaVuSerif-2212" transform="translate(0 0.78125)"/>
       <use xlink:href="#DejaVuSerif-32" transform="translate(83.789062 0.78125)"/>
      </g>
     </g>
    </g>
    <g id="xtick_3">
     <g id="line2d_3">
      <g>
       <use xlink:href="#m7145b88fa6" x="173.571429" y="240.3" style="fill: #030303; stroke: #030303; stroke-width: 0.8"/>
      </g>
     </g>
     <g id="text_3">
      <!-- $\mathdefault{0}$ -->
      <g style="fill: #030303" transform="translate(169.411429 257.177969) scale(0.13 -0.13)">
       <defs>
        <path id="DejaVuSerif-30" d="M 2034 219 
Q 2513 219 2750 744 
Q 2988 1269 2988 2328 
Q 2988 3391 2750 3916 
Q 2513 4441 2034 4441 
Q 1556 4441 1318 3916 
Q 1081 3391 1081 2328 
Q 1081 1269 1318 744 
Q 1556 219 2034 219 
z
M 2034 -91 
Q 1275 -91 848 546 
Q 422 1184 422 2328 
Q 422 3475 848 4112 
Q 1275 4750 2034 4750 
Q 2797 4750 3222 4112 
Q 3647 3475 3647 2328 
Q 3647 1184 3222 546 
Q 2797 -91 2034 -91 
z
" transform="scale(0.015625)"/>
       </defs>
       <use xlink:href="#DejaVuSerif-30" transform="translate(0 0.78125)"/>
      </g>
     </g>
    </g>
    <g id="xtick_4">
     <g id="line2d_4">
      <g>
       <use xlink:href="#m7145b88fa6" x="221.4" y="240.3" style="fill: #030303; stroke: #030303; stroke-width: 0.8"/>
      </g>
     </g>
     <g id="text_4">
      <!-- $\mathdefault{2}$ -->
      <g style="fill: #030303" transform="translate(217.24 257.177969) scale(0.13 -0.13)">
       <use xlink:href="#DejaVuSerif-32" transform="translate(0 0.78125)"/>
      </g>
     </g>
    </g>
    <g id="xtick_5">
     <g id="line2d_5">
      <g>
       <use xlink:href="#m7145b88fa6" x="269.228571" y="240.3" style="fill: #030303; stroke: #030303; stroke-width: 0.8"/>
      </g>
     </g>
     <g id="text_5">
      <!-- $\mathdefault{4}$ -->
      <g style="fill: #030303" transform="translate(265.068571 257.177969) scale(0.13 -0.13)">
       <use xlink:href="#DejaVuSerif-34" transform="translate(0 0.78125)"/>
      </g>
     </g>
    </g>
    <g id="xtick_6">
     <g id="line2d_6">
      <g>
       <use xlink:href="#m7145b88fa6" x="317.057143" y="240.3" style="fill: #030303; stroke: #030303; stroke-width: 0.8"/>
      </g>
     </g>
     <g id="text_6">
      <!-- $\mathdefault{6}$ -->
      <g style="fill: #030303" transform="translate(312.897143 257.177969) scale(0.13 -0.13)">
       <defs>
        <path id="DejaVuSerif-36" d="M 2094 219 
Q 2534 219 2771 542 
Q 3009 866 3009 1472 
Q 3009 2078 2771 2401 
Q 2534 2725 2094 2725 
Q 1647 2725 1412 2412 
Q 1178 2100 1178 1509 
Q 1178 888 1415 553 
Q 1653 219 2094 219 
z
M 1075 2569 
Q 1288 2803 1556 2918 
Q 1825 3034 2163 3034 
Q 2859 3034 3264 2615 
Q 3669 2197 3669 1472 
Q 3669 763 3233 336 
Q 2797 -91 2069 -91 
Q 1278 -91 853 498 
Q 428 1088 428 2181 
Q 428 3406 931 4078 
Q 1434 4750 2350 4750 
Q 2597 4750 2869 4703 
Q 3141 4656 3425 4563 
L 3425 3794 
L 3072 3794 
Q 3034 4109 2831 4275 
Q 2628 4441 2284 4441 
Q 1678 4441 1381 3981 
Q 1084 3522 1075 2569 
z
" transform="scale(0.015625)"/>
       </defs>
       <use xlink:href="#DejaVuSerif-36" transform="translate(0 0.78125)"/>
      </g>
     </g>
    </g>
    <g id="xtick_7">
     <g id="line2d_7">
      <g>
       <use xlink:href="#m7145b88fa6" x="364.885714" y="240.3" style="fill: #030303; stroke: #030303; stroke-width: 0.8"/>
      </g>
     </g>
     <g id="text_7">
      <!-- $\mathdefault{8}$ -->
      <g style="fill: #030303" transform="translate(360.725714 257.177969) scale(0.13 -0.13)">
       <defs>
        <path id="DejaVuSerif-38" d="M 2981 1275 
Q 2981 1775 2732 2051 
Q 2484 2328 2034 2328 
Q 1584 2328 1336 2051 
Q 1088 1775 1088 1275 
Q 1088 772 1336 495 
Q 1584 219 2034 219 
Q 2484 219 2732 495 
Q 2981 772 2981 1275 
z
M 2853 3541 
Q 2853 3966 2637 4203 
Q 2422 4441 2034 4441 
Q 1650 4441 1433 4203 
Q 1216 3966 1216 3541 
Q 1216 3113 1433 2875 
Q 1650 2638 2034 2638 
Q 2422 2638 2637 2875 
Q 2853 3113 2853 3541 
z
M 2516 2484 
Q 3047 2413 3344 2092 
Q 3641 1772 3641 1275 
Q 3641 619 3225 264 
Q 2809 -91 2034 -91 
Q 1263 -91 845 264 
Q 428 619 428 1275 
Q 428 1772 725 2092 
Q 1022 2413 1556 2484 
Q 1084 2569 832 2842 
Q 581 3116 581 3541 
Q 581 4103 968 4426 
Q 1356 4750 2034 4750 
Q 2713 4750 3100 4426 
Q 3488 4103 3488 3541 
Q 3488 3116 3236 2842 
Q 2984 2569 2516 2484 
z
" transform="scale(0.015625)"/>
       </defs>
       <use xlink:href="#DejaVuSerif-38" transform="translate(0 0.78125)"/>
      </g>
     </g>
    </g>
    <g id="text_8">
     <!-- Z-score -->
     <g style="fill: #030303" transform="translate(187.399687 277.55875) scale(0.18 -0.18)">
      <defs>
       <path id="DejaVuSerif-5a" d="M 288 0 
L 288 225 
L 3194 4281 
L 781 4281 
L 781 3584 
L 397 3584 
L 397 4666 
L 4084 4666 
L 4084 4441 
L 1178 384 
L 3816 384 
L 3816 1038 
L 4197 1038 
L 4197 0 
L 288 0 
z
" transform="scale(0.015625)"/>
       <path id="DejaVuSerif-2d" d="M 281 1959 
L 1881 1959 
L 1881 1472 
L 281 1472 
L 281 1959 
z
" transform="scale(0.015625)"/>
       <path id="DejaVuSerif-73" d="M 359 184 
L 359 959 
L 691 959 
Q 703 588 923 403 
Q 1144 219 1575 219 
Q 1963 219 2166 364 
Q 2369 509 2369 788 
Q 2369 1006 2220 1140 
Q 2072 1275 1594 1428 
L 1178 1569 
Q 750 1706 558 1912 
Q 366 2119 366 2438 
Q 366 2894 700 3153 
Q 1034 3413 1625 3413 
Q 1888 3413 2178 3344 
Q 2469 3275 2778 3144 
L 2778 2419 
L 2447 2419 
Q 2434 2741 2221 2922 
Q 2009 3103 1644 3103 
Q 1281 3103 1095 2975 
Q 909 2847 909 2591 
Q 909 2381 1050 2254 
Q 1191 2128 1613 1997 
L 2069 1856 
Q 2541 1709 2748 1489 
Q 2956 1269 2956 922 
Q 2956 450 2595 179 
Q 2234 -91 1600 -91 
Q 1278 -91 972 -22 
Q 666 47 359 184 
z
" transform="scale(0.015625)"/>
       <path id="DejaVuSerif-63" d="M 3291 997 
Q 3169 466 2822 187 
Q 2475 -91 1925 -91 
Q 1200 -91 759 389 
Q 319 869 319 1663 
Q 319 2459 759 2936 
Q 1200 3413 1925 3413 
Q 2241 3413 2553 3339 
Q 2866 3266 3181 3116 
L 3181 2266 
L 2847 2266 
Q 2781 2703 2561 2903 
Q 2341 3103 1931 3103 
Q 1466 3103 1228 2742 
Q 991 2381 991 1663 
Q 991 944 1227 581 
Q 1463 219 1931 219 
Q 2303 219 2525 412 
Q 2747 606 2828 997 
L 3291 997 
z
" transform="scale(0.015625)"/>
       <path id="DejaVuSerif-6f" d="M 1925 219 
Q 2388 219 2623 584 
Q 2859 950 2859 1663 
Q 2859 2375 2623 2739 
Q 2388 3103 1925 3103 
Q 1463 3103 1227 2739 
Q 991 2375 991 1663 
Q 991 950 1228 584 
Q 1466 219 1925 219 
z
M 1925 -91 
Q 1200 -91 759 389 
Q 319 869 319 1663 
Q 319 2456 758 2934 
Q 1197 3413 1925 3413 
Q 2653 3413 3092 2934 
Q 3531 2456 3531 1663 
Q 3531 869 3092 389 
Q 2653 -91 1925 -91 
z
" transform="scale(0.015625)"/>
       <path id="DejaVuSerif-72" d="M 3059 3328 
L 3059 2497 
L 2728 2497 
Q 2713 2744 2591 2866 
Q 2469 2988 2234 2988 
Q 1809 2988 1582 2694 
Q 1356 2400 1356 1850 
L 1356 331 
L 2022 331 
L 2022 0 
L 263 0 
L 263 331 
L 781 331 
L 781 2994 
L 231 2994 
L 231 3322 
L 1356 3322 
L 1356 2731 
Q 1525 3078 1790 3245 
Q 2056 3413 2438 3413 
Q 2578 3413 2733 3391 
Q 2888 3369 3059 3328 
z
" transform="scale(0.015625)"/>
       <path id="DejaVuSerif-65" d="M 3469 1600 
L 991 1600 
L 991 1575 
Q 991 903 1244 561 
Q 1497 219 1991 219 
Q 2369 219 2611 417 
Q 2853 616 2950 1006 
L 3413 1006 
Q 3275 459 2904 184 
Q 2534 -91 1931 -91 
Q 1203 -91 761 389 
Q 319 869 319 1663 
Q 319 2450 753 2931 
Q 1188 3413 1894 3413 
Q 2647 3413 3050 2948 
Q 3453 2484 3469 1600 
z
M 2791 1931 
Q 2772 2513 2545 2808 
Q 2319 3103 1894 3103 
Q 1497 3103 1269 2806 
Q 1041 2509 991 1931 
L 2791 1931 
z
" transform="scale(0.015625)"/>
      </defs>
      <use xlink:href="#DejaVuSerif-5a"/>
      <use xlink:href="#DejaVuSerif-2d" x="69.482422"/>
      <use xlink:href="#DejaVuSerif-73" x="103.271484"/>
      <use xlink:href="#DejaVuSerif-63" x="154.589844"/>
      <use xlink:href="#DejaVuSerif-6f" x="210.595703"/>
      <use xlink:href="#DejaVuSerif-72" x="270.800781"/>
      <use xlink:href="#DejaVuSerif-65" x="318.603516"/>
     </g>
    </g>
   </g>
   <g id="matplotlib.axis_2">
    <g id="ytick_1">
     <g id="line2d_8">
      <defs>
       <path id="m18f5ab266f" d="M 0 0 
L -3.5 0 
" style="stroke: #030303; stroke-width: 0.8"/>
      </defs>
      <g>
       <use xlink:href="#m18f5ab266f" x="54" y="240.3" style="fill: #030303; stroke: #030303; stroke-width: 0.8"/>
      </g>
     </g>
     <g id="text_9">
      <!-- $\mathdefault{0.00}$ -->
      <g style="fill: #030303" transform="translate(24.7 244.099219) scale(0.1 -0.1)">
       <defs>
        <path id="DejaVuSerif-2e" d="M 603 325 
Q 603 500 722 622 
Q 841 744 1019 744 
Q 1191 744 1312 622 
Q 1434 500 1434 325 
Q 1434 153 1312 31 
Q 1191 -91 1019 -91 
Q 841 -91 722 29 
Q 603 150 603 325 
z
" transform="scale(0.015625)"/>
       </defs>
       <use xlink:href="#DejaVuSerif-30" transform="translate(0 0.78125)"/>
       <use xlink:href="#DejaVuSerif-2e" transform="translate(63.623047 0.78125)"/>
       <use xlink:href="#DejaVuSerif-30" transform="translate(95.410156 0.78125)"/>
       <use xlink:href="#DejaVuSerif-30" transform="translate(159.033203 0.78125)"/>
      </g>
     </g>
    </g>
    <g id="ytick_2">
     <g id="line2d_9">
      <g>
       <use xlink:href="#m18f5ab266f" x="54" y="215.483583" style="fill: #030303; stroke: #030303; stroke-width: 0.8"/>
      </g>
     </g>
     <g id="text_10">
      <!-- $\mathdefault{0.05}$ -->
      <g style="fill: #030303" transform="translate(24.7 219.282802) scale(0.1 -0.1)">
       <defs>
        <path id="DejaVuSerif-35" d="M 3219 4666 
L 3219 4153 
L 1081 4153 
L 1081 2816 
Q 1244 2928 1461 2984 
Q 1678 3041 1947 3041 
Q 2703 3041 3140 2622 
Q 3578 2203 3578 1478 
Q 3578 738 3136 323 
Q 2694 -91 1894 -91 
Q 1572 -91 1234 -12 
Q 897 66 544 225 
L 544 1131 
L 897 1131 
Q 925 688 1179 453 
Q 1434 219 1894 219 
Q 2388 219 2653 544 
Q 2919 869 2919 1478 
Q 2919 2084 2655 2407 
Q 2391 2731 1894 2731 
Q 1613 2731 1398 2631 
Q 1184 2531 1019 2322 
L 750 2322 
L 750 4666 
L 3219 4666 
z
" transform="scale(0.015625)"/>
       </defs>
       <use xlink:href="#DejaVuSerif-30" transform="translate(0 0.78125)"/>
       <use xlink:href="#DejaVuSerif-2e" transform="translate(63.623047 0.78125)"/>
       <use xlink:href="#DejaVuSerif-30" transform="translate(95.410156 0.78125)"/>
       <use xlink:href="#DejaVuSerif-35" transform="translate(159.033203 0.78125)"/>
      </g>
     </g>
    </g>
    <g id="ytick_3">
     <g id="line2d_10">
      <g>
       <use xlink:href="#m18f5ab266f" x="54" y="190.667166" style="fill: #030303; stroke: #030303; stroke-width: 0.8"/>
      </g>
     </g>
     <g id="text_11">
      <!-- $\mathdefault{0.10}$ -->
      <g style="fill: #030303" transform="translate(24.7 194.466384) scale(0.1 -0.1)">
       <defs>
        <path id="DejaVuSerif-31" d="M 909 0 
L 909 331 
L 1722 331 
L 1722 4213 
L 781 3603 
L 781 4013 
L 1919 4750 
L 2350 4750 
L 2350 331 
L 3163 331 
L 3163 0 
L 909 0 
z
" transform="scale(0.015625)"/>
       </defs>
       <use xlink:href="#DejaVuSerif-30" transform="translate(0 0.78125)"/>
       <use xlink:href="#DejaVuSerif-2e" transform="translate(63.623047 0.78125)"/>
       <use xlink:href="#DejaVuSerif-31" transform="translate(95.410156 0.78125)"/>
       <use xlink:href="#DejaVuSerif-30" transform="translate(159.033203 0.78125)"/>
      </g>
     </g>
    </g>
    <g id="ytick_4">
     <g id="line2d_11">
      <g>
       <use xlink:href="#m18f5ab266f" x="54" y="165.850748" style="fill: #030303; stroke: #030303; stroke-width: 0.8"/>
      </g>
     </g>
     <g id="text_12">
      <!-- $\mathdefault{0.15}$ -->
      <g style="fill: #030303" transform="translate(24.7 169.649967) scale(0.1 -0.1)">
       <use xlink:href="#DejaVuSerif-30" transform="translate(0 0.78125)"/>
       <use xlink:href="#DejaVuSerif-2e" transform="translate(63.623047 0.78125)"/>
       <use xlink:href="#DejaVuSerif-31" transform="translate(95.410156 0.78125)"/>
       <use xlink:href="#DejaVuSerif-35" transform="translate(159.033203 0.78125)"/>
      </g>
     </g>
    </g>
    <g id="ytick_5">
     <g id="line2d_12">
      <g>
       <use xlink:href="#m18f5ab266f" x="54" y="141.034331" style="fill: #030303; stroke: #030303; stroke-width: 0.8"/>
      </g>
     </g>
     <g id="text_13">
      <!-- $\mathdefault{0.20}$ -->
      <g style="fill: #030303" transform="translate(24.9 144.83355) scale(0.1 -0.1)">
       <use xlink:href="#DejaVuSerif-30" transform="translate(0 0.78125)"/>
       <use xlink:href="#DejaVuSerif-2e" transform="translate(63.623047 0.78125)"/>
       <use xlink:href="#DejaVuSerif-32" transform="translate(92.785156 0.78125)"/>
       <use xlink:href="#DejaVuSerif-30" transform="translate(156.408203 0.78125)"/>
      </g>
     </g>
    </g>
    <g id="ytick_6">
     <g id="line2d_13">
      <g>
       <use xlink:href="#m18f5ab266f" x="54" y="116.217914" style="fill: #030303; stroke: #030303; stroke-width: 0.8"/>
      </g>
     </g>
     <g id="text_14">
      <!-- $\mathdefault{0.25}$ -->
      <g style="fill: #030303" transform="translate(24.9 120.017133) scale(0.1 -0.1)">
       <use xlink:href="#DejaVuSerif-30" transform="translate(0 0.78125)"/>
       <use xlink:href="#DejaVuSerif-2e" transform="translate(63.623047 0.78125)"/>
       <use xlink:href="#DejaVuSerif-32" transform="translate(92.785156 0.78125)"/>
       <use xlink:href="#DejaVuSerif-35" transform="translate(156.408203 0.78125)"/>
      </g>
     </g>
    </g>
    <g id="ytick_7">
     <g id="line2d_14">
      <g>
       <use xlink:href="#m18f5ab266f" x="54" y="91.401497" style="fill: #030303; stroke: #030303; stroke-width: 0.8"/>
      </g>
     </g>
     <g id="text_15">
      <!-- $\mathdefault{0.30}$ -->
      <g style="fill: #030303" transform="translate(24.7 95.200715) scale(0.1 -0.1)">
       <defs>
        <path id="DejaVuSerif-33" d="M 622 4469 
Q 988 4606 1323 4678 
Q 1659 4750 1953 4750 
Q 2638 4750 3022 4454 
Q 3406 4159 3406 3634 
Q 3406 3213 3140 2930 
Q 2875 2647 2388 2547 
Q 2963 2466 3280 2130 
Q 3597 1794 3597 1259 
Q 3597 606 3158 257 
Q 2719 -91 1894 -91 
Q 1528 -91 1179 -12 
Q 831 66 488 225 
L 488 1131 
L 838 1131 
Q 869 681 1141 450 
Q 1413 219 1906 219 
Q 2384 219 2661 495 
Q 2938 772 2938 1253 
Q 2938 1803 2653 2086 
Q 2369 2369 1819 2369 
L 1522 2369 
L 1522 2688 
L 1678 2688 
Q 2225 2688 2498 2914 
Q 2772 3141 2772 3597 
Q 2772 4006 2547 4223 
Q 2322 4441 1900 4441 
Q 1478 4441 1245 4241 
Q 1013 4041 972 3647 
L 622 3647 
L 622 4469 
z
" transform="scale(0.015625)"/>
       </defs>
       <use xlink:href="#DejaVuSerif-30" transform="translate(0 0.78125)"/>
       <use xlink:href="#DejaVuSerif-2e" transform="translate(63.623047 0.78125)"/>
       <use xlink:href="#DejaVuSerif-33" transform="translate(95.410156 0.78125)"/>
       <use xlink:href="#DejaVuSerif-30" transform="translate(159.033203 0.78125)"/>
      </g>
     </g>
    </g>
    <g id="ytick_8">
     <g id="line2d_15">
      <g>
       <use xlink:href="#m18f5ab266f" x="54" y="66.585079" style="fill: #030303; stroke: #030303; stroke-width: 0.8"/>
      </g>
     </g>
     <g id="text_16">
      <!-- $\mathdefault{0.35}$ -->
      <g style="fill: #030303" transform="translate(24.7 70.384298) scale(0.1 -0.1)">
       <use xlink:href="#DejaVuSerif-30" transform="translate(0 0.78125)"/>
       <use xlink:href="#DejaVuSerif-2e" transform="translate(63.623047 0.78125)"/>
       <use xlink:href="#DejaVuSerif-33" transform="translate(95.410156 0.78125)"/>
       <use xlink:href="#DejaVuSerif-35" transform="translate(159.033203 0.78125)"/>
      </g>
     </g>
    </g>
    <g id="ytick_9">
     <g id="line2d_16">
      <g>
       <use xlink:href="#m18f5ab266f" x="54" y="41.768662" style="fill: #030303; stroke: #030303; stroke-width: 0.8"/>
      </g>
     </g>
     <g id="text_17">
      <!-- $\mathdefault{0.40}$ -->
      <g style="fill: #030303" transform="translate(24.7 45.567881) scale(0.1 -0.1)">
       <use xlink:href="#DejaVuSerif-30" transform="translate(0 0.78125)"/>
       <use xlink:href="#DejaVuSerif-2e" transform="translate(63.623047 0.78125)"/>
       <use xlink:href="#DejaVuSerif-34" transform="translate(95.410156 0.78125)"/>
       <use xlink:href="#DejaVuSerif-30" transform="translate(159.033203 0.78125)"/>
      </g>
     </g>
    </g>
    <g id="text_18">
     <!-- Probability Density -->
     <g style="fill: #030303" transform="translate(16.700625 223.749844) rotate(-90) scale(0.18 -0.18)">
      <defs>
       <path id="DejaVuSerif-50" d="M 1581 2375 
L 2406 2375 
Q 2872 2375 3115 2626 
Q 3359 2878 3359 3353 
Q 3359 3831 3115 4081 
Q 2872 4331 2406 4331 
L 1581 4331 
L 1581 2375 
z
M 353 0 
L 353 331 
L 947 331 
L 947 4331 
L 353 4331 
L 353 4666 
L 2559 4666 
Q 3259 4666 3668 4311 
Q 4078 3956 4078 3353 
Q 4078 2753 3668 2397 
Q 3259 2041 2559 2041 
L 1581 2041 
L 1581 331 
L 2303 331 
L 2303 0 
L 353 0 
z
" transform="scale(0.015625)"/>
       <path id="DejaVuSerif-62" d="M 738 331 
L 738 4531 
L 184 4531 
L 184 4863 
L 1313 4863 
L 1313 2803 
Q 1481 3116 1742 3264 
Q 2003 3413 2388 3413 
Q 3000 3413 3387 2928 
Q 3775 2444 3775 1663 
Q 3775 881 3387 395 
Q 3000 -91 2388 -91 
Q 2003 -91 1742 57 
Q 1481 206 1313 519 
L 1313 0 
L 184 0 
L 184 331 
L 738 331 
z
M 1313 1497 
Q 1313 897 1542 583 
Q 1772 269 2209 269 
Q 2650 269 2876 622 
Q 3103 975 3103 1663 
Q 3103 2353 2876 2703 
Q 2650 3053 2209 3053 
Q 1772 3053 1542 2737 
Q 1313 2422 1313 1825 
L 1313 1497 
z
" transform="scale(0.015625)"/>
       <path id="DejaVuSerif-61" d="M 2547 1044 
L 2547 1747 
L 1806 1747 
Q 1378 1747 1168 1562 
Q 959 1378 959 997 
Q 959 650 1171 447 
Q 1384 244 1747 244 
Q 2106 244 2326 466 
Q 2547 688 2547 1044 
z
M 3122 2075 
L 3122 331 
L 3634 331 
L 3634 0 
L 2547 0 
L 2547 359 
Q 2356 128 2106 18 
Q 1856 -91 1522 -91 
Q 969 -91 644 203 
Q 319 497 319 997 
Q 319 1513 691 1797 
Q 1063 2081 1741 2081 
L 2547 2081 
L 2547 2309 
Q 2547 2688 2317 2895 
Q 2088 3103 1672 3103 
Q 1328 3103 1125 2947 
Q 922 2791 872 2484 
L 575 2484 
L 575 3156 
Q 875 3284 1158 3348 
Q 1441 3413 1709 3413 
Q 2400 3413 2761 3070 
Q 3122 2728 3122 2075 
z
" transform="scale(0.015625)"/>
       <path id="DejaVuSerif-69" d="M 622 4353 
Q 622 4497 726 4603 
Q 831 4709 978 4709 
Q 1122 4709 1226 4603 
Q 1331 4497 1331 4353 
Q 1331 4206 1228 4103 
Q 1125 4000 978 4000 
Q 831 4000 726 4103 
Q 622 4206 622 4353 
z
M 1356 331 
L 1900 331 
L 1900 0 
L 231 0 
L 231 331 
L 781 331 
L 781 2988 
L 231 2988 
L 231 3322 
L 1356 3322 
L 1356 331 
z
" transform="scale(0.015625)"/>
       <path id="DejaVuSerif-6c" d="M 1313 331 
L 1856 331 
L 1856 0 
L 184 0 
L 184 331 
L 738 331 
L 738 4531 
L 184 4531 
L 184 4863 
L 1313 4863 
L 1313 331 
z
" transform="scale(0.015625)"/>
       <path id="DejaVuSerif-74" d="M 691 2988 
L 184 2988 
L 184 3322 
L 691 3322 
L 691 4353 
L 1269 4353 
L 1269 3322 
L 2350 3322 
L 2350 2988 
L 1269 2988 
L 1269 878 
Q 1269 456 1350 337 
Q 1431 219 1650 219 
Q 1875 219 1978 351 
Q 2081 484 2088 781 
L 2522 781 
Q 2497 328 2275 118 
Q 2053 -91 1600 -91 
Q 1103 -91 897 129 
Q 691 350 691 878 
L 691 2988 
z
" transform="scale(0.015625)"/>
       <path id="DejaVuSerif-79" d="M 1381 -609 
L 1600 -56 
L 359 2988 
L -19 2988 
L -19 3322 
L 1509 3322 
L 1509 2988 
L 978 2988 
L 1913 703 
L 2847 2988 
L 2350 2988 
L 2350 3322 
L 3597 3322 
L 3597 2988 
L 3225 2988 
L 1703 -750 
Q 1547 -1138 1356 -1280 
Q 1166 -1422 819 -1422 
Q 672 -1422 517 -1397 
Q 363 -1372 206 -1325 
L 206 -691 
L 500 -691 
Q 519 -903 608 -995 
Q 697 -1088 884 -1088 
Q 1056 -1088 1161 -992 
Q 1266 -897 1381 -609 
z
" transform="scale(0.015625)"/>
       <path id="DejaVuSerif-20" transform="scale(0.015625)"/>
       <path id="DejaVuSerif-44" d="M 1581 331 
L 2163 331 
Q 3072 331 3558 850 
Q 4044 1369 4044 2338 
Q 4044 3306 3559 3818 
Q 3075 4331 2163 4331 
L 1581 4331 
L 1581 331 
z
M 353 0 
L 353 331 
L 947 331 
L 947 4331 
L 353 4331 
L 353 4666 
L 2209 4666 
Q 3416 4666 4089 4050 
Q 4763 3434 4763 2338 
Q 4763 1238 4088 619 
Q 3413 0 2209 0 
L 353 0 
z
" transform="scale(0.015625)"/>
       <path id="DejaVuSerif-6e" d="M 263 0 
L 263 331 
L 781 331 
L 781 2988 
L 231 2988 
L 231 3322 
L 1356 3322 
L 1356 2731 
Q 1516 3069 1770 3241 
Q 2025 3413 2363 3413 
Q 2913 3413 3172 3097 
Q 3431 2781 3431 2113 
L 3431 331 
L 3944 331 
L 3944 0 
L 2356 0 
L 2356 331 
L 2853 331 
L 2853 1931 
Q 2853 2541 2703 2767 
Q 2553 2994 2175 2994 
Q 1775 2994 1565 2701 
Q 1356 2409 1356 1850 
L 1356 331 
L 1856 331 
L 1856 0 
L 263 0 
z
" transform="scale(0.015625)"/>
      </defs>
      <use xlink:href="#DejaVuSerif-50"/>
      <use xlink:href="#DejaVuSerif-72" x="67.285156"/>
      <use xlink:href="#DejaVuSerif-6f" x="115.087891"/>
      <use xlink:href="#DejaVuSerif-62" x="175.292969"/>
      <use xlink:href="#DejaVuSerif-61" x="239.306641"/>
      <use xlink:href="#DejaVuSerif-62" x="298.925781"/>
      <use xlink:href="#DejaVuSerif-69" x="362.939453"/>
      <use xlink:href="#DejaVuSerif-6c" x="394.921875"/>
      <use xlink:href="#DejaVuSerif-69" x="426.904297"/>
      <use xlink:href="#DejaVuSerif-74" x="458.886719"/>
      <use xlink:href="#DejaVuSerif-79" x="499.072266"/>
      <use xlink:href="#DejaVuSerif-20" x="555.566406"/>
      <use xlink:href="#DejaVuSerif-44" x="587.353516"/>
      <use xlink:href="#DejaVuSerif-65" x="667.529297"/>
      <use xlink:href="#DejaVuSerif-6e" x="726.708984"/>
      <use xlink:href="#DejaVuSerif-73" x="791.113281"/>
      <use xlink:href="#DejaVuSerif-69" x="842.431641"/>
      <use xlink:href="#DejaVuSerif-74" x="874.414062"/>
      <use xlink:href="#DejaVuSerif-79" x="914.599609"/>
     </g>
    </g>
   </g>
   <g id="line2d_17">
    <path d="M 77.914286 240.233576 
L 86.732379 240.028755 
L 92.099914 239.702434 
L 96.317263 239.227105 
L 99.767821 238.607733 
L 102.451589 237.922342 
L 105.135356 237.001168 
L 107.435729 235.975839 
L 109.736101 234.684028 
L 111.653078 233.366416 
L 113.570054 231.794497 
L 115.487031 229.933036 
L 117.404008 227.74512 
L 119.320985 225.192838 
L 121.237962 222.238136 
L 123.154938 218.843859 
L 125.071915 214.974967 
L 126.988892 210.599908 
L 128.905869 205.692125 
L 130.822846 200.231652 
L 133.123218 192.933685 
L 135.42359 184.822198 
L 137.723962 175.920088 
L 140.40773 164.603742 
L 143.474893 150.609344 
L 147.308846 131.959234 
L 156.12694 88.548547 
L 158.810707 76.636913 
L 161.111079 67.427084 
L 163.028056 60.631984 
L 164.561638 55.859382 
L 166.095219 51.737053 
L 167.6288 48.313745 
L 168.778987 46.23 
L 169.929173 44.576918 
L 171.079359 43.36584 
L 171.846149 42.80826 
L 172.61294 42.452615 
L 173.379731 42.3 
L 174.146522 42.350885 
L 174.913312 42.605113 
L 175.680103 43.061901 
L 176.446894 43.719843 
L 177.59708 45.079334 
L 178.747266 46.877374 
L 179.897452 49.101654 
L 181.047638 51.737053 
L 182.58122 55.859382 
L 184.114801 60.631984 
L 186.031778 67.427084 
L 187.948755 75.03058 
L 190.249127 85.037162 
L 193.31629 99.484697 
L 198.300429 124.29298 
L 203.284569 148.79307 
L 206.735127 164.603742 
L 209.418895 175.920088 
L 212.102662 186.229958 
L 214.403035 194.206753 
L 216.703407 201.368657 
L 219.003779 207.720609 
L 220.920756 212.412501 
L 222.837733 216.581592 
L 224.754709 220.256624 
L 226.671686 223.470719 
L 228.588663 226.259918 
L 230.50564 228.661874 
L 232.422617 230.714697 
L 234.339593 232.455992 
L 236.25657 233.922073 
L 238.173547 235.147353 
L 240.473919 236.344806 
L 242.774291 237.291938 
L 245.458059 238.139705 
L 248.525222 238.842854 
L 251.97578 239.382561 
L 256.193129 239.793333 
L 261.560664 240.072485 
L 269.228571 240.233576 
L 269.228571 240.233576 
" clip-path="url(#pbe7013526d)" style="fill: none; stroke: #cb4154; stroke-width: 1.5; stroke-linecap: square"/>
   </g>
   <g id="line2d_18">
    <path d="M 132.490926 240.233576 
L 141.30902 240.028755 
L 146.676555 239.702434 
L 150.893904 239.227105 
L 154.344462 238.607733 
L 157.028229 237.922342 
L 159.711997 237.001168 
L 162.012369 235.975839 
L 164.312741 234.684028 
L 166.229718 233.366416 
L 168.146695 231.794497 
L 170.063672 229.933036 
L 171.980649 227.74512 
L 173.897625 225.192838 
L 175.814602 222.238136 
L 177.731579 218.843859 
L 179.648556 214.974967 
L 181.565533 210.599908 
L 183.482509 205.692125 
L 185.399486 200.231652 
L 187.699858 192.933685 
L 190.000231 184.822198 
L 192.300603 175.920088 
L 194.98437 164.603742 
L 198.051533 150.609344 
L 201.885487 131.959234 
L 210.70358 88.548547 
L 213.387348 76.636913 
L 215.68772 67.427084 
L 217.604697 60.631984 
L 219.138278 55.859382 
L 220.67186 51.737053 
L 222.205441 48.313745 
L 223.355627 46.23 
L 224.505813 44.576918 
L 225.655999 43.36584 
L 226.42279 42.80826 
L 227.189581 42.452615 
L 227.956371 42.3 
L 228.723162 42.350885 
L 229.489953 42.605113 
L 230.256744 43.061901 
L 231.023534 43.719843 
L 232.17372 45.079334 
L 233.323907 46.877374 
L 234.474093 49.101654 
L 235.624279 51.737053 
L 237.15786 55.859382 
L 238.691442 60.631984 
L 240.608418 67.427084 
L 242.525395 75.03058 
L 244.825767 85.037162 
L 247.89293 99.484697 
L 252.87707 124.29298 
L 257.86121 148.79307 
L 261.311768 164.603742 
L 263.995535 175.920088 
L 266.679303 186.229958 
L 268.979675 194.206753 
L 271.280047 201.368657 
L 273.58042 207.720609 
L 275.497396 212.412501 
L 277.414373 216.581592 
L 279.33135 220.256624 
L 281.248327 223.470719 
L 283.165304 226.259918 
L 285.08228 228.661874 
L 286.999257 230.714697 
L 288.916234 232.455992 
L 290.833211 233.922073 
L 292.750188 235.147353 
L 295.05056 236.344806 
L 297.350932 237.291938 
L 300.0347 238.139705 
L 303.101862 238.842854 
L 306.552421 239.382561 
L 310.76977 239.793333 
L 316.137305 240.072485 
L 323.805212 240.233576 
L 323.805212 240.233576 
" clip-path="url(#pbe7013526d)" style="fill: none; stroke: #28a745; stroke-width: 1.5; stroke-linecap: square"/>
   </g>
   <g id="line2d_19">
    <path d="M 228.148069 240.3 
L 228.148069 32.4 
" clip-path="url(#pbe7013526d)" style="fill: none; stroke: #28a745; stroke-width: 1.5; stroke-linecap: square"/>
   </g>
   <g id="line2d_20">
    <path d="M 126.70029 240.3 
L 126.70029 32.4 
" clip-path="url(#pbe7013526d)" style="fill: none; stroke-dasharray: 1.5,2.475; stroke-dashoffset: 0; stroke: #000000; stroke-width: 1.5"/>
   </g>
   <g id="line2d_21">
    <path d="M 220.442567 240.3 
L 220.442567 32.4 
" clip-path="url(#pbe7013526d)" style="fill: none; stroke-dasharray: 1.5,2.475; stroke-dashoffset: 0; stroke: #000000; stroke-width: 1.5"/>
   </g>
   <g id="patch_3">
    <path d="M 54 240.3 
L 54 32.4 
" style="fill: none; stroke: #030303; stroke-width: 1.5; stroke-linejoin: miter; stroke-linecap: square"/>
   </g>
   <g id="patch_4">
    <path d="M 54 240.3 
L 388.8 240.3 
" style="fill: none; stroke: #030303; stroke-width: 1.5; stroke-linejoin: miter; stroke-linecap: square"/>
   </g>
   <g id="legend_1">
    <g id="patch_5">
     <path d="M 253.67375 62.39875 
L 383.2 62.39875 
Q 384.8 62.39875 384.8 60.79875 
L 384.8 38 
Q 384.8 36.4 383.2 36.4 
L 253.67375 36.4 
Q 252.07375 36.4 252.07375 38 
L 252.07375 60.79875 
Q 252.07375 62.39875 253.67375 62.39875 
z
" style="fill: #ffffff; opacity: 0.8; stroke: #cccccc; stroke-linejoin: miter"/>
    </g>
    <g id="line2d_22">
     <path d="M 255.27375 42.87875 
L 263.27375 42.87875 
L 271.27375 42.87875 
" style="fill: none; stroke: #cb4154; stroke-width: 1.5; stroke-linecap: square"/>
    </g>
    <g id="text_19">
     <!-- Null Distribution (Z) -->
     <g style="fill: #030303" transform="translate(277.67375 45.67875) scale(0.08 -0.08)">
      <defs>
       <path id="DejaVuSerif-4e" d="M 313 0 
L 313 331 
L 941 331 
L 941 4331 
L 313 4331 
L 313 4666 
L 1509 4666 
L 4306 984 
L 4306 4331 
L 3681 4331 
L 3681 4666 
L 5319 4666 
L 5319 4331 
L 4691 4331 
L 4691 -91 
L 4313 -91 
L 1325 3841 
L 1325 331 
L 1953 331 
L 1953 0 
L 313 0 
z
" transform="scale(0.015625)"/>
       <path id="DejaVuSerif-75" d="M 2266 3322 
L 3341 3322 
L 3341 331 
L 3884 331 
L 3884 0 
L 2766 0 
L 2766 588 
Q 2606 256 2353 82 
Q 2100 -91 1766 -91 
Q 1213 -91 952 223 
Q 691 538 691 1209 
L 691 2988 
L 172 2988 
L 172 3322 
L 1269 3322 
L 1269 1388 
Q 1269 781 1417 556 
Q 1566 331 1947 331 
Q 2347 331 2556 625 
Q 2766 919 2766 1478 
L 2766 2988 
L 2266 2988 
L 2266 3322 
z
" transform="scale(0.015625)"/>
       <path id="DejaVuSerif-28" d="M 2041 -997 
Q 1281 -656 893 83 
Q 506 822 506 1931 
Q 506 3044 893 3783 
Q 1281 4522 2041 4863 
L 2041 4556 
Q 1559 4225 1350 3623 
Q 1141 3022 1141 1931 
Q 1141 844 1350 242 
Q 1559 -359 2041 -691 
L 2041 -997 
z
" transform="scale(0.015625)"/>
       <path id="DejaVuSerif-29" d="M 453 -997 
L 453 -691 
Q 934 -359 1145 242 
Q 1356 844 1356 1931 
Q 1356 3022 1145 3623 
Q 934 4225 453 4556 
L 453 4863 
Q 1216 4522 1603 3783 
Q 1991 3044 1991 1931 
Q 1991 822 1603 83 
Q 1216 -656 453 -997 
z
" transform="scale(0.015625)"/>
      </defs>
      <use xlink:href="#DejaVuSerif-4e"/>
      <use xlink:href="#DejaVuSerif-75" x="87.5"/>
      <use xlink:href="#DejaVuSerif-6c" x="151.904297"/>
      <use xlink:href="#DejaVuSerif-6c" x="183.886719"/>
      <use xlink:href="#DejaVuSerif-20" x="215.869141"/>
      <use xlink:href="#DejaVuSerif-44" x="247.65625"/>
      <use xlink:href="#DejaVuSerif-69" x="327.832031"/>
      <use xlink:href="#DejaVuSerif-73" x="359.814453"/>
      <use xlink:href="#DejaVuSerif-74" x="411.132812"/>
      <use xlink:href="#DejaVuSerif-72" x="451.318359"/>
      <use xlink:href="#DejaVuSerif-69" x="499.121094"/>
      <use xlink:href="#DejaVuSerif-62" x="531.103516"/>
      <use xlink:href="#DejaVuSerif-75" x="595.117188"/>
      <use xlink:href="#DejaVuSerif-74" x="659.521484"/>
      <use xlink:href="#DejaVuSerif-69" x="699.707031"/>
      <use xlink:href="#DejaVuSerif-6f" x="731.689453"/>
      <use xlink:href="#DejaVuSerif-6e" x="791.894531"/>
      <use xlink:href="#DejaVuSerif-20" x="856.298828"/>
      <use xlink:href="#DejaVuSerif-28" x="888.085938"/>
      <use xlink:href="#DejaVuSerif-5a" x="927.099609"/>
      <use xlink:href="#DejaVuSerif-29" x="996.582031"/>
     </g>
    </g>
    <g id="line2d_23">
     <path d="M 255.27375 54.62125 
L 263.27375 54.62125 
L 271.27375 54.62125 
" style="fill: none; stroke: #28a745; stroke-width: 1.5; stroke-linecap: square"/>
    </g>
    <g id="text_20">
     <!-- Sampling Distribution (Z) -->
     <g style="fill: #030303" transform="translate(277.67375 57.42125) scale(0.08 -0.08)">
      <defs>
       <path id="DejaVuSerif-53" d="M 594 225 
L 594 1288 
L 953 1284 
Q 969 753 1261 498 
Q 1553 244 2150 244 
Q 2706 244 2998 464 
Q 3291 684 3291 1106 
Q 3291 1444 3114 1625 
Q 2938 1806 2369 1978 
L 1753 2163 
Q 1084 2366 811 2669 
Q 538 2972 538 3500 
Q 538 4094 959 4422 
Q 1381 4750 2144 4750 
Q 2469 4750 2856 4679 
Q 3244 4609 3681 4475 
L 3681 3481 
L 3328 3481 
Q 3275 3975 2998 4195 
Q 2722 4416 2156 4416 
Q 1663 4416 1405 4214 
Q 1147 4013 1147 3628 
Q 1147 3294 1340 3103 
Q 1534 2913 2163 2725 
L 2741 2553 
Q 3375 2363 3645 2067 
Q 3916 1772 3916 1275 
Q 3916 597 3481 253 
Q 3047 -91 2188 -91 
Q 1803 -91 1404 -12 
Q 1006 66 594 225 
z
" transform="scale(0.015625)"/>
       <path id="DejaVuSerif-6d" d="M 3316 2675 
Q 3481 3041 3739 3227 
Q 3997 3413 4341 3413 
Q 4863 3413 5119 3089 
Q 5375 2766 5375 2113 
L 5375 331 
L 5894 331 
L 5894 0 
L 4300 0 
L 4300 331 
L 4800 331 
L 4800 2047 
Q 4800 2556 4650 2772 
Q 4500 2988 4153 2988 
Q 3769 2988 3567 2697 
Q 3366 2406 3366 1850 
L 3366 331 
L 3866 331 
L 3866 0 
L 2291 0 
L 2291 331 
L 2791 331 
L 2791 2069 
Q 2791 2566 2641 2777 
Q 2491 2988 2144 2988 
Q 1759 2988 1557 2697 
Q 1356 2406 1356 1850 
L 1356 331 
L 1856 331 
L 1856 0 
L 263 0 
L 263 331 
L 781 331 
L 781 2994 
L 231 2994 
L 231 3322 
L 1356 3322 
L 1356 2731 
Q 1516 3063 1762 3238 
Q 2009 3413 2322 3413 
Q 2709 3413 2968 3220 
Q 3228 3028 3316 2675 
z
" transform="scale(0.015625)"/>
       <path id="DejaVuSerif-70" d="M 1313 1825 
L 1313 1497 
Q 1313 897 1542 583 
Q 1772 269 2209 269 
Q 2650 269 2876 622 
Q 3103 975 3103 1663 
Q 3103 2353 2876 2703 
Q 2650 3053 2209 3053 
Q 1772 3053 1542 2737 
Q 1313 2422 1313 1825 
z
M 738 2988 
L 184 2988 
L 184 3322 
L 1313 3322 
L 1313 2803 
Q 1481 3116 1742 3264 
Q 2003 3413 2388 3413 
Q 3000 3413 3387 2928 
Q 3775 2444 3775 1663 
Q 3775 881 3387 395 
Q 3000 -91 2388 -91 
Q 2003 -91 1742 57 
Q 1481 206 1313 519 
L 1313 -997 
L 1856 -997 
L 1856 -1331 
L 184 -1331 
L 184 -997 
L 738 -997 
L 738 2988 
z
" transform="scale(0.015625)"/>
       <path id="DejaVuSerif-67" d="M 3359 2988 
L 3359 72 
Q 3359 -644 2965 -1033 
Q 2572 -1422 1844 -1422 
Q 1516 -1422 1216 -1362 
Q 916 -1303 641 -1184 
L 641 -488 
L 941 -488 
Q 997 -813 1206 -963 
Q 1416 -1113 1806 -1113 
Q 2313 -1113 2548 -827 
Q 2784 -541 2784 72 
L 2784 519 
Q 2616 206 2355 57 
Q 2094 -91 1709 -91 
Q 1097 -91 708 395 
Q 319 881 319 1663 
Q 319 2444 706 2928 
Q 1094 3413 1709 3413 
Q 2094 3413 2355 3264 
Q 2616 3116 2784 2803 
L 2784 3322 
L 3909 3322 
L 3909 2988 
L 3359 2988 
z
M 2784 1825 
Q 2784 2422 2554 2737 
Q 2325 3053 1888 3053 
Q 1444 3053 1217 2703 
Q 991 2353 991 1663 
Q 991 975 1217 622 
Q 1444 269 1888 269 
Q 2325 269 2554 583 
Q 2784 897 2784 1497 
L 2784 1825 
z
" transform="scale(0.015625)"/>
      </defs>
      <use xlink:href="#DejaVuSerif-53"/>
      <use xlink:href="#DejaVuSerif-61" x="68.505859"/>
      <use xlink:href="#DejaVuSerif-6d" x="128.125"/>
      <use xlink:href="#DejaVuSerif-70" x="222.949219"/>
      <use xlink:href="#DejaVuSerif-6c" x="286.962891"/>
      <use xlink:href="#DejaVuSerif-69" x="318.945312"/>
      <use xlink:href="#DejaVuSerif-6e" x="350.927734"/>
      <use xlink:href="#DejaVuSerif-67" x="415.332031"/>
      <use xlink:href="#DejaVuSerif-20" x="479.345703"/>
      <use xlink:href="#DejaVuSerif-44" x="511.132812"/>
      <use xlink:href="#DejaVuSerif-69" x="591.308594"/>
      <use xlink:href="#DejaVuSerif-73" x="623.291016"/>
      <use xlink:href="#DejaVuSerif-74" x="674.609375"/>
      <use xlink:href="#DejaVuSerif-72" x="714.794922"/>
      <use xlink:href="#DejaVuSerif-69" x="762.597656"/>
      <use xlink:href="#DejaVuSerif-62" x="794.580078"/>
      <use xlink:href="#DejaVuSerif-75" x="858.59375"/>
      <use xlink:href="#DejaVuSerif-74" x="922.998047"/>
      <use xlink:href="#DejaVuSerif-69" x="963.183594"/>
      <use xlink:href="#DejaVuSerif-6f" x="995.166016"/>
      <use xlink:href="#DejaVuSerif-6e" x="1055.371094"/>
      <use xlink:href="#DejaVuSerif-20" x="1119.775391"/>
      <use xlink:href="#DejaVuSerif-28" x="1151.5625"/>
      <use xlink:href="#DejaVuSerif-5a" x="1190.576172"/>
      <use xlink:href="#DejaVuSerif-29" x="1260.058594"/>
     </g>
    </g>
   </g>
  </g>
 </g>
 <defs>
  <clipPath id="pbe7013526d">
   <rect x="54" y="32.4" width="334.8" height="207.9"/>
  </clipPath>
 </defs>
</svg>
