<?xml version="1.0" encoding="utf-8" standalone="no"?>
<!DOCTYPE svg PUBLIC "-//W3C//DTD SVG 1.1//EN"
  "http://www.w3.org/Graphics/SVG/1.1/DTD/svg11.dtd">
<svg xmlns:xlink="http://www.w3.org/1999/xlink" width="432pt" height="270pt" viewBox="0 0 432 270" xmlns="http://www.w3.org/2000/svg" version="1.1">
 <metadata>
  <rdf:RDF xmlns:dc="http://purl.org/dc/elements/1.1/" xmlns:cc="http://creativecommons.org/ns#" xmlns:rdf="http://www.w3.org/1999/02/22-rdf-syntax-ns#">
   <cc:Work>
    <dc:type rdf:resource="http://purl.org/dc/dcmitype/StillImage"/>
    <dc:date>2024-09-17T23:16:26.889890</dc:date>
    <dc:format>image/svg+xml</dc:format>
    <dc:creator>
     <cc:Agent>
      <dc:title>Matplotlib v3.9.2, https://matplotlib.org/</dc:title>
     </cc:Agent>
    </dc:creator>
   </cc:Work>
  </rdf:RDF>
 </metadata>
 <defs>
  <style type="text/css">*{stroke-linejoin: round; stroke-linecap: butt}</style>
 </defs>
 <g id="figure_1">
  <g id="patch_1">
   <path d="M 0 270 
L 432 270 
L 432 0 
L 0 0 
L 0 270 
z
" style="fill: none"/>
  </g>
  <g id="axes_1">
   <g id="patch_2">
    <path d="M 32.32 217.96 
L 421.2 217.96 
L 421.2 10.8 
L 32.32 10.8 
L 32.32 217.96 
z
" style="fill: none"/>
   </g>
   <g id="matplotlib.axis_1">
    <g id="xtick_1">
     <g id="line2d_1">
      <defs>
       <path id="m8094e3e843" d="M 0 0 
L 0 3.5 
" style="stroke: #030303; stroke-width: 0.8"/>
      </defs>
      <g>
       <use xlink:href="#m8094e3e843" x="49.996364" y="217.96" style="fill: #030303; stroke: #030303; stroke-width: 0.8"/>
      </g>
     </g>
     <g id="text_1">
      <!-- $\mathdefault{−4}$ -->
      <g style="fill: #030303" transform="translate(40.376364 234.837969) scale(0.13 -0.13)">
       <defs>
        <path id="DejaVuSerif-2212" d="M 678 2259 
L 4684 2259 
L 4684 1753 
L 678 1753 
L 678 2259 
z
" transform="scale(0.015625)"/>
        <path id="DejaVuSerif-34" d="M 2234 1581 
L 2234 4063 
L 641 1581 
L 2234 1581 
z
M 3609 0 
L 1484 0 
L 1484 331 
L 2234 331 
L 2234 1247 
L 197 1247 
L 197 1588 
L 2241 4750 
L 2859 4750 
L 2859 1581 
L 3750 1581 
L 3750 1247 
L 2859 1247 
L 2859 331 
L 3609 331 
L 3609 0 
z
" transform="scale(0.015625)"/>
       </defs>
       <use xlink:href="#DejaVuSerif-2212" transform="translate(0 0.78125)"/>
       <use xlink:href="#DejaVuSerif-34" transform="translate(83.789062 0.78125)"/>
      </g>
     </g>
    </g>
    <g id="xtick_2">
     <g id="line2d_2">
      <g>
       <use xlink:href="#m8094e3e843" x="118.761424" y="217.96" style="fill: #030303; stroke: #030303; stroke-width: 0.8"/>
      </g>
     </g>
     <g id="text_2">
      <!-- $\mathdefault{−2}$ -->
      <g style="fill: #030303" transform="translate(109.141424 234.837969) scale(0.13 -0.13)">
       <defs>
        <path id="DejaVuSerif-32" d="M 819 3553 
L 469 3553 
L 469 4384 
Q 803 4563 1142 4656 
Q 1481 4750 1806 4750 
Q 2534 4750 2956 4397 
Q 3378 4044 3378 3438 
Q 3378 2753 2422 1800 
Q 2347 1728 2309 1691 
L 1131 513 
L 3078 513 
L 3078 1088 
L 3444 1088 
L 3444 0 
L 434 0 
L 434 341 
L 1850 1753 
Q 2319 2222 2519 2614 
Q 2719 3006 2719 3438 
Q 2719 3909 2473 4175 
Q 2228 4441 1797 4441 
Q 1350 4441 1106 4219 
Q 863 3997 819 3553 
z
" transform="scale(0.015625)"/>
       </defs>
       <use xlink:href="#DejaVuSerif-2212" transform="translate(0 0.78125)"/>
       <use xlink:href="#DejaVuSerif-32" transform="translate(83.789062 0.78125)"/>
      </g>
     </g>
    </g>
    <g id="xtick_3">
     <g id="line2d_3">
      <g>
       <use xlink:href="#m8094e3e843" x="187.526485" y="217.96" style="fill: #030303; stroke: #030303; stroke-width: 0.8"/>
      </g>
     </g>
     <g id="text_3">
      <!-- $\mathdefault{0}$ -->
      <g style="fill: #030303" transform="translate(183.366485 234.837969) scale(0.13 -0.13)">
       <defs>
        <path id="DejaVuSerif-30" d="M 2034 219 
Q 2513 219 2750 744 
Q 2988 1269 2988 2328 
Q 2988 3391 2750 3916 
Q 2513 4441 2034 4441 
Q 1556 4441 1318 3916 
Q 1081 3391 1081 2328 
Q 1081 1269 1318 744 
Q 1556 219 2034 219 
z
M 2034 -91 
Q 1275 -91 848 546 
Q 422 1184 422 2328 
Q 422 3475 848 4112 
Q 1275 4750 2034 4750 
Q 2797 4750 3222 4112 
Q 3647 3475 3647 2328 
Q 3647 1184 3222 546 
Q 2797 -91 2034 -91 
z
" transform="scale(0.015625)"/>
       </defs>
       <use xlink:href="#DejaVuSerif-30" transform="translate(0 0.78125)"/>
      </g>
     </g>
    </g>
    <g id="xtick_4">
     <g id="line2d_4">
      <g>
       <use xlink:href="#m8094e3e843" x="256.291545" y="217.96" style="fill: #030303; stroke: #030303; stroke-width: 0.8"/>
      </g>
     </g>
     <g id="text_4">
      <!-- $\mathdefault{2}$ -->
      <g style="fill: #030303" transform="translate(252.131545 234.837969) scale(0.13 -0.13)">
       <use xlink:href="#DejaVuSerif-32" transform="translate(0 0.78125)"/>
      </g>
     </g>
    </g>
    <g id="xtick_5">
     <g id="line2d_5">
      <g>
       <use xlink:href="#m8094e3e843" x="325.056606" y="217.96" style="fill: #030303; stroke: #030303; stroke-width: 0.8"/>
      </g>
     </g>
     <g id="text_5">
      <!-- $\mathdefault{4}$ -->
      <g style="fill: #030303" transform="translate(320.896606 234.837969) scale(0.13 -0.13)">
       <use xlink:href="#DejaVuSerif-34" transform="translate(0 0.78125)"/>
      </g>
     </g>
    </g>
    <g id="xtick_6">
     <g id="line2d_6">
      <g>
       <use xlink:href="#m8094e3e843" x="393.821666" y="217.96" style="fill: #030303; stroke: #030303; stroke-width: 0.8"/>
      </g>
     </g>
     <g id="text_6">
      <!-- $\mathdefault{6}$ -->
      <g style="fill: #030303" transform="translate(389.661666 234.837969) scale(0.13 -0.13)">
       <defs>
        <path id="DejaVuSerif-36" d="M 2094 219 
Q 2534 219 2771 542 
Q 3009 866 3009 1472 
Q 3009 2078 2771 2401 
Q 2534 2725 2094 2725 
Q 1647 2725 1412 2412 
Q 1178 2100 1178 1509 
Q 1178 888 1415 553 
Q 1653 219 2094 219 
z
M 1075 2569 
Q 1288 2803 1556 2918 
Q 1825 3034 2163 3034 
Q 2859 3034 3264 2615 
Q 3669 2197 3669 1472 
Q 3669 763 3233 336 
Q 2797 -91 2069 -91 
Q 1278 -91 853 498 
Q 428 1088 428 2181 
Q 428 3406 931 4078 
Q 1434 4750 2350 4750 
Q 2597 4750 2869 4703 
Q 3141 4656 3425 4563 
L 3425 3794 
L 3072 3794 
Q 3034 4109 2831 4275 
Q 2628 4441 2284 4441 
Q 1678 4441 1381 3981 
Q 1084 3522 1075 2569 
z
" transform="scale(0.015625)"/>
       </defs>
       <use xlink:href="#DejaVuSerif-36" transform="translate(0 0.78125)"/>
      </g>
     </g>
    </g>
    <g id="text_7">
     <!-- Z-Score -->
     <g style="fill: #030303" transform="translate(191.212813 255.21875) scale(0.18 -0.18)">
      <defs>
       <path id="DejaVuSerif-5a" d="M 288 0 
L 288 225 
L 3194 4281 
L 781 4281 
L 781 3584 
L 397 3584 
L 397 4666 
L 4084 4666 
L 4084 4441 
L 1178 384 
L 3816 384 
L 3816 1038 
L 4197 1038 
L 4197 0 
L 288 0 
z
" transform="scale(0.015625)"/>
       <path id="DejaVuSerif-2d" d="M 281 1959 
L 1881 1959 
L 1881 1472 
L 281 1472 
L 281 1959 
z
" transform="scale(0.015625)"/>
       <path id="DejaVuSerif-53" d="M 594 225 
L 594 1288 
L 953 1284 
Q 969 753 1261 498 
Q 1553 244 2150 244 
Q 2706 244 2998 464 
Q 3291 684 3291 1106 
Q 3291 1444 3114 1625 
Q 2938 1806 2369 1978 
L 1753 2163 
Q 1084 2366 811 2669 
Q 538 2972 538 3500 
Q 538 4094 959 4422 
Q 1381 4750 2144 4750 
Q 2469 4750 2856 4679 
Q 3244 4609 3681 4475 
L 3681 3481 
L 3328 3481 
Q 3275 3975 2998 4195 
Q 2722 4416 2156 4416 
Q 1663 4416 1405 4214 
Q 1147 4013 1147 3628 
Q 1147 3294 1340 3103 
Q 1534 2913 2163 2725 
L 2741 2553 
Q 3375 2363 3645 2067 
Q 3916 1772 3916 1275 
Q 3916 597 3481 253 
Q 3047 -91 2188 -91 
Q 1803 -91 1404 -12 
Q 1006 66 594 225 
z
" transform="scale(0.015625)"/>
       <path id="DejaVuSerif-63" d="M 3291 997 
Q 3169 466 2822 187 
Q 2475 -91 1925 -91 
Q 1200 -91 759 389 
Q 319 869 319 1663 
Q 319 2459 759 2936 
Q 1200 3413 1925 3413 
Q 2241 3413 2553 3339 
Q 2866 3266 3181 3116 
L 3181 2266 
L 2847 2266 
Q 2781 2703 2561 2903 
Q 2341 3103 1931 3103 
Q 1466 3103 1228 2742 
Q 991 2381 991 1663 
Q 991 944 1227 581 
Q 1463 219 1931 219 
Q 2303 219 2525 412 
Q 2747 606 2828 997 
L 3291 997 
z
" transform="scale(0.015625)"/>
       <path id="DejaVuSerif-6f" d="M 1925 219 
Q 2388 219 2623 584 
Q 2859 950 2859 1663 
Q 2859 2375 2623 2739 
Q 2388 3103 1925 3103 
Q 1463 3103 1227 2739 
Q 991 2375 991 1663 
Q 991 950 1228 584 
Q 1466 219 1925 219 
z
M 1925 -91 
Q 1200 -91 759 389 
Q 319 869 319 1663 
Q 319 2456 758 2934 
Q 1197 3413 1925 3413 
Q 2653 3413 3092 2934 
Q 3531 2456 3531 1663 
Q 3531 869 3092 389 
Q 2653 -91 1925 -91 
z
" transform="scale(0.015625)"/>
       <path id="DejaVuSerif-72" d="M 3059 3328 
L 3059 2497 
L 2728 2497 
Q 2713 2744 2591 2866 
Q 2469 2988 2234 2988 
Q 1809 2988 1582 2694 
Q 1356 2400 1356 1850 
L 1356 331 
L 2022 331 
L 2022 0 
L 263 0 
L 263 331 
L 781 331 
L 781 2994 
L 231 2994 
L 231 3322 
L 1356 3322 
L 1356 2731 
Q 1525 3078 1790 3245 
Q 2056 3413 2438 3413 
Q 2578 3413 2733 3391 
Q 2888 3369 3059 3328 
z
" transform="scale(0.015625)"/>
       <path id="DejaVuSerif-65" d="M 3469 1600 
L 991 1600 
L 991 1575 
Q 991 903 1244 561 
Q 1497 219 1991 219 
Q 2369 219 2611 417 
Q 2853 616 2950 1006 
L 3413 1006 
Q 3275 459 2904 184 
Q 2534 -91 1931 -91 
Q 1203 -91 761 389 
Q 319 869 319 1663 
Q 319 2450 753 2931 
Q 1188 3413 1894 3413 
Q 2647 3413 3050 2948 
Q 3453 2484 3469 1600 
z
M 2791 1931 
Q 2772 2513 2545 2808 
Q 2319 3103 1894 3103 
Q 1497 3103 1269 2806 
Q 1041 2509 991 1931 
L 2791 1931 
z
" transform="scale(0.015625)"/>
      </defs>
      <use xlink:href="#DejaVuSerif-5a"/>
      <use xlink:href="#DejaVuSerif-2d" x="69.482422"/>
      <use xlink:href="#DejaVuSerif-53" x="103.271484"/>
      <use xlink:href="#DejaVuSerif-63" x="171.777344"/>
      <use xlink:href="#DejaVuSerif-6f" x="227.783203"/>
      <use xlink:href="#DejaVuSerif-72" x="287.988281"/>
      <use xlink:href="#DejaVuSerif-65" x="335.791016"/>
     </g>
    </g>
   </g>
   <g id="matplotlib.axis_2">
    <g id="text_8">
     <!-- Probability Density -->
     <g style="fill: #030303" transform="translate(24.320625 201.779844) rotate(-90) scale(0.18 -0.18)">
      <defs>
       <path id="DejaVuSerif-50" d="M 1581 2375 
L 2406 2375 
Q 2872 2375 3115 2626 
Q 3359 2878 3359 3353 
Q 3359 3831 3115 4081 
Q 2872 4331 2406 4331 
L 1581 4331 
L 1581 2375 
z
M 353 0 
L 353 331 
L 947 331 
L 947 4331 
L 353 4331 
L 353 4666 
L 2559 4666 
Q 3259 4666 3668 4311 
Q 4078 3956 4078 3353 
Q 4078 2753 3668 2397 
Q 3259 2041 2559 2041 
L 1581 2041 
L 1581 331 
L 2303 331 
L 2303 0 
L 353 0 
z
" transform="scale(0.015625)"/>
       <path id="DejaVuSerif-62" d="M 738 331 
L 738 4531 
L 184 4531 
L 184 4863 
L 1313 4863 
L 1313 2803 
Q 1481 3116 1742 3264 
Q 2003 3413 2388 3413 
Q 3000 3413 3387 2928 
Q 3775 2444 3775 1663 
Q 3775 881 3387 395 
Q 3000 -91 2388 -91 
Q 2003 -91 1742 57 
Q 1481 206 1313 519 
L 1313 0 
L 184 0 
L 184 331 
L 738 331 
z
M 1313 1497 
Q 1313 897 1542 583 
Q 1772 269 2209 269 
Q 2650 269 2876 622 
Q 3103 975 3103 1663 
Q 3103 2353 2876 2703 
Q 2650 3053 2209 3053 
Q 1772 3053 1542 2737 
Q 1313 2422 1313 1825 
L 1313 1497 
z
" transform="scale(0.015625)"/>
       <path id="DejaVuSerif-61" d="M 2547 1044 
L 2547 1747 
L 1806 1747 
Q 1378 1747 1168 1562 
Q 959 1378 959 997 
Q 959 650 1171 447 
Q 1384 244 1747 244 
Q 2106 244 2326 466 
Q 2547 688 2547 1044 
z
M 3122 2075 
L 3122 331 
L 3634 331 
L 3634 0 
L 2547 0 
L 2547 359 
Q 2356 128 2106 18 
Q 1856 -91 1522 -91 
Q 969 -91 644 203 
Q 319 497 319 997 
Q 319 1513 691 1797 
Q 1063 2081 1741 2081 
L 2547 2081 
L 2547 2309 
Q 2547 2688 2317 2895 
Q 2088 3103 1672 3103 
Q 1328 3103 1125 2947 
Q 922 2791 872 2484 
L 575 2484 
L 575 3156 
Q 875 3284 1158 3348 
Q 1441 3413 1709 3413 
Q 2400 3413 2761 3070 
Q 3122 2728 3122 2075 
z
" transform="scale(0.015625)"/>
       <path id="DejaVuSerif-69" d="M 622 4353 
Q 622 4497 726 4603 
Q 831 4709 978 4709 
Q 1122 4709 1226 4603 
Q 1331 4497 1331 4353 
Q 1331 4206 1228 4103 
Q 1125 4000 978 4000 
Q 831 4000 726 4103 
Q 622 4206 622 4353 
z
M 1356 331 
L 1900 331 
L 1900 0 
L 231 0 
L 231 331 
L 781 331 
L 781 2988 
L 231 2988 
L 231 3322 
L 1356 3322 
L 1356 331 
z
" transform="scale(0.015625)"/>
       <path id="DejaVuSerif-6c" d="M 1313 331 
L 1856 331 
L 1856 0 
L 184 0 
L 184 331 
L 738 331 
L 738 4531 
L 184 4531 
L 184 4863 
L 1313 4863 
L 1313 331 
z
" transform="scale(0.015625)"/>
       <path id="DejaVuSerif-74" d="M 691 2988 
L 184 2988 
L 184 3322 
L 691 3322 
L 691 4353 
L 1269 4353 
L 1269 3322 
L 2350 3322 
L 2350 2988 
L 1269 2988 
L 1269 878 
Q 1269 456 1350 337 
Q 1431 219 1650 219 
Q 1875 219 1978 351 
Q 2081 484 2088 781 
L 2522 781 
Q 2497 328 2275 118 
Q 2053 -91 1600 -91 
Q 1103 -91 897 129 
Q 691 350 691 878 
L 691 2988 
z
" transform="scale(0.015625)"/>
       <path id="DejaVuSerif-79" d="M 1381 -609 
L 1600 -56 
L 359 2988 
L -19 2988 
L -19 3322 
L 1509 3322 
L 1509 2988 
L 978 2988 
L 1913 703 
L 2847 2988 
L 2350 2988 
L 2350 3322 
L 3597 3322 
L 3597 2988 
L 3225 2988 
L 1703 -750 
Q 1547 -1138 1356 -1280 
Q 1166 -1422 819 -1422 
Q 672 -1422 517 -1397 
Q 363 -1372 206 -1325 
L 206 -691 
L 500 -691 
Q 519 -903 608 -995 
Q 697 -1088 884 -1088 
Q 1056 -1088 1161 -992 
Q 1266 -897 1381 -609 
z
" transform="scale(0.015625)"/>
       <path id="DejaVuSerif-20" transform="scale(0.015625)"/>
       <path id="DejaVuSerif-44" d="M 1581 331 
L 2163 331 
Q 3072 331 3558 850 
Q 4044 1369 4044 2338 
Q 4044 3306 3559 3818 
Q 3075 4331 2163 4331 
L 1581 4331 
L 1581 331 
z
M 353 0 
L 353 331 
L 947 331 
L 947 4331 
L 353 4331 
L 353 4666 
L 2209 4666 
Q 3416 4666 4089 4050 
Q 4763 3434 4763 2338 
Q 4763 1238 4088 619 
Q 3413 0 2209 0 
L 353 0 
z
" transform="scale(0.015625)"/>
       <path id="DejaVuSerif-6e" d="M 263 0 
L 263 331 
L 781 331 
L 781 2988 
L 231 2988 
L 231 3322 
L 1356 3322 
L 1356 2731 
Q 1516 3069 1770 3241 
Q 2025 3413 2363 3413 
Q 2913 3413 3172 3097 
Q 3431 2781 3431 2113 
L 3431 331 
L 3944 331 
L 3944 0 
L 2356 0 
L 2356 331 
L 2853 331 
L 2853 1931 
Q 2853 2541 2703 2767 
Q 2553 2994 2175 2994 
Q 1775 2994 1565 2701 
Q 1356 2409 1356 1850 
L 1356 331 
L 1856 331 
L 1856 0 
L 263 0 
z
" transform="scale(0.015625)"/>
       <path id="DejaVuSerif-73" d="M 359 184 
L 359 959 
L 691 959 
Q 703 588 923 403 
Q 1144 219 1575 219 
Q 1963 219 2166 364 
Q 2369 509 2369 788 
Q 2369 1006 2220 1140 
Q 2072 1275 1594 1428 
L 1178 1569 
Q 750 1706 558 1912 
Q 366 2119 366 2438 
Q 366 2894 700 3153 
Q 1034 3413 1625 3413 
Q 1888 3413 2178 3344 
Q 2469 3275 2778 3144 
L 2778 2419 
L 2447 2419 
Q 2434 2741 2221 2922 
Q 2009 3103 1644 3103 
Q 1281 3103 1095 2975 
Q 909 2847 909 2591 
Q 909 2381 1050 2254 
Q 1191 2128 1613 1997 
L 2069 1856 
Q 2541 1709 2748 1489 
Q 2956 1269 2956 922 
Q 2956 450 2595 179 
Q 2234 -91 1600 -91 
Q 1278 -91 972 -22 
Q 666 47 359 184 
z
" transform="scale(0.015625)"/>
      </defs>
      <use xlink:href="#DejaVuSerif-50"/>
      <use xlink:href="#DejaVuSerif-72" x="67.285156"/>
      <use xlink:href="#DejaVuSerif-6f" x="115.087891"/>
      <use xlink:href="#DejaVuSerif-62" x="175.292969"/>
      <use xlink:href="#DejaVuSerif-61" x="239.306641"/>
      <use xlink:href="#DejaVuSerif-62" x="298.925781"/>
      <use xlink:href="#DejaVuSerif-69" x="362.939453"/>
      <use xlink:href="#DejaVuSerif-6c" x="394.921875"/>
      <use xlink:href="#DejaVuSerif-69" x="426.904297"/>
      <use xlink:href="#DejaVuSerif-74" x="458.886719"/>
      <use xlink:href="#DejaVuSerif-79" x="499.072266"/>
      <use xlink:href="#DejaVuSerif-20" x="555.566406"/>
      <use xlink:href="#DejaVuSerif-44" x="587.353516"/>
      <use xlink:href="#DejaVuSerif-65" x="667.529297"/>
      <use xlink:href="#DejaVuSerif-6e" x="726.708984"/>
      <use xlink:href="#DejaVuSerif-73" x="791.113281"/>
      <use xlink:href="#DejaVuSerif-69" x="842.431641"/>
      <use xlink:href="#DejaVuSerif-74" x="874.414062"/>
      <use xlink:href="#DejaVuSerif-79" x="914.599609"/>
     </g>
    </g>
   </g>
   <g id="line2d_7">
    <path d="M 49.996364 217.893812 
L 62.674491 217.689717 
L 70.391612 217.364551 
L 76.455064 216.890907 
L 81.416071 216.273729 
L 85.274631 215.590767 
L 89.133192 214.672857 
L 92.440529 213.651162 
L 95.196644 212.599049 
L 97.952759 211.332758 
L 100.708873 209.819836 
L 103.464988 208.025571 
L 106.221102 205.91347 
L 108.425994 203.969669 
L 110.630886 201.778902 
L 112.835778 199.321885 
L 115.040669 196.579889 
L 117.245561 193.535148 
L 119.450453 190.17132 
L 121.655344 186.473972 
L 124.411459 181.365252 
L 127.167574 175.700047 
L 129.923688 169.470397 
L 132.679803 162.678782 
L 135.435918 155.339585 
L 138.743255 145.849533 
L 142.050593 135.686086 
L 145.909153 123.120113 
L 151.421383 104.27924 
L 160.24095 73.953408 
L 164.09951 61.527939 
L 166.855625 53.276209 
L 169.611739 45.699657 
L 171.816631 40.212455 
L 174.021523 35.303173 
L 176.226415 31.028626 
L 177.880083 28.26982 
L 179.533752 25.91506 
L 181.187421 23.98031 
L 182.84109 22.478787 
L 183.943536 21.723673 
L 185.045981 21.168069 
L 186.148427 20.813685 
L 187.250873 20.66161 
L 188.353319 20.712315 
L 189.455765 20.965642 
L 190.558211 21.420811 
L 191.660657 22.076422 
L 192.763102 22.93046 
L 194.416771 24.577684 
L 196.07044 26.654045 
L 197.724109 29.145392 
L 199.377778 32.034883 
L 201.031446 35.303173 
L 203.236338 40.212455 
L 205.44123 45.699657 
L 208.197344 53.276209 
L 210.953459 61.527939 
L 214.260797 72.128272 
L 218.67058 87.051051 
L 230.797485 128.587161 
L 234.656045 140.846121 
L 237.963383 150.684112 
L 241.27072 159.807577 
L 244.026835 166.820663 
L 246.78295 173.276032 
L 249.539064 179.166609 
L 252.295179 184.496365 
L 255.051293 189.278765 
L 257.807408 193.535148 
L 260.0123 196.579889 
L 262.217192 199.321885 
L 264.422083 201.778902 
L 266.626975 203.969669 
L 269.38309 206.363113 
L 272.139204 208.408662 
L 274.895319 210.143788 
L 277.651434 211.604673 
L 280.407548 212.825611 
L 283.714886 214.018821 
L 287.022223 214.962597 
L 290.880784 215.807359 
L 295.290567 216.508018 
L 300.251574 217.045812 
L 306.315026 217.455129 
L 314.032147 217.733292 
L 325.056606 217.893812 
L 325.056606 217.893812 
" clip-path="url(#pdaef7cf9b5)" style="fill: none; stroke: #cb4154; stroke-width: 1.5; stroke-linecap: square"/>
   </g>
   <g id="patch_3">
    <path d="M 32.32 217.96 
L 32.32 10.8 
" style="fill: none; stroke: #030303; stroke-width: 1.5; stroke-linejoin: miter; stroke-linecap: square"/>
   </g>
   <g id="patch_4">
    <path d="M 32.32 217.96 
L 421.2 217.96 
" style="fill: none; stroke: #030303; stroke-width: 1.5; stroke-linejoin: miter; stroke-linecap: square"/>
   </g>
  </g>
  <g id="axes_2">
   <g id="matplotlib.axis_3"/>
   <g id="line2d_8">
    <path d="M 265.993515 217.96 
L 265.993515 10.8 
" clip-path="url(#pdaef7cf9b5)" style="fill: none; stroke: #28a745; stroke-width: 1.5; stroke-linecap: square"/>
   </g>
   <g id="patch_5">
    <path d="M 32.32 217.96 
L 421.2 217.96 
" style="fill: none; stroke: #030303; stroke-width: 1.5; stroke-linejoin: miter; stroke-linecap: square"/>
   </g>
  </g>
  <g id="axes_3">
   <g id="matplotlib.axis_4"/>
   <g id="line2d_9">
    <path d="M 120.137964 217.96 
L 120.137964 10.8 
" clip-path="url(#pdaef7cf9b5)" style="fill: none; stroke-dasharray: 1.5,2.475; stroke-dashoffset: 0; stroke: #000000; stroke-width: 1.5"/>
   </g>
   <g id="line2d_10">
    <path d="M 254.915006 217.96 
L 254.915006 10.8 
" clip-path="url(#pdaef7cf9b5)" style="fill: none; stroke-dasharray: 1.5,2.475; stroke-dashoffset: 0; stroke: #000000; stroke-width: 1.5"/>
   </g>
   <g id="patch_6">
    <path d="M 32.32 217.96 
L 421.2 217.96 
" style="fill: none; stroke: #030303; stroke-width: 1.5; stroke-linejoin: miter; stroke-linecap: square"/>
   </g>
  </g>
  <g id="axes_4">
   <g id="PolyCollection_1">
    <path d="M 49.996364 217.96 
L 49.996364 217.893812 
L 50.547587 217.889437 
L 51.098809 217.884793 
L 51.650032 217.879863 
L 52.201255 217.874633 
L 52.752478 217.869084 
L 53.303701 217.8632 
L 53.854924 217.856961 
L 54.406147 217.850349 
L 54.95737 217.843342 
L 55.508593 217.835919 
L 56.059816 217.828058 
L 56.611039 217.819734 
L 57.162262 217.810924 
L 57.713485 217.801602 
L 58.264708 217.79174 
L 58.815931 217.781309 
L 59.367153 217.770281 
L 59.918376 217.758624 
L 60.469599 217.746305 
L 61.020822 217.733292 
L 61.572045 217.719547 
L 62.123268 217.705035 
L 62.674491 217.689717 
L 63.225714 217.673551 
L 63.776937 217.656497 
L 64.32816 217.638511 
L 64.879383 217.619546 
L 65.430606 217.599554 
L 65.981829 217.578487 
L 66.533052 217.556293 
L 67.084274 217.532917 
L 67.635497 217.508303 
L 68.18672 217.482394 
L 68.737943 217.455129 
L 69.289166 217.426444 
L 69.840389 217.396274 
L 70.391612 217.364551 
L 70.942835 217.331205 
L 71.494058 217.296162 
L 72.045281 217.259347 
L 72.596504 217.220679 
L 73.147727 217.180078 
L 73.69895 217.137459 
L 74.250173 217.092734 
L 74.801395 217.045812 
L 75.352618 216.996599 
L 75.903841 216.944998 
L 76.455064 216.890907 
L 77.006287 216.834224 
L 77.55751 216.774839 
L 78.108733 216.712643 
L 78.659956 216.64752 
L 79.211179 216.579353 
L 79.762402 216.508018 
L 80.313625 216.433389 
L 80.864848 216.355338 
L 81.416071 216.273729 
L 81.967294 216.188425 
L 82.518516 216.099285 
L 83.069739 216.006161 
L 83.620962 215.908904 
L 84.172185 215.807359 
L 84.723408 215.701368 
L 85.274631 215.590767 
L 85.825854 215.475388 
L 86.377077 215.355061 
L 86.9283 215.229608 
L 87.479523 215.098848 
L 88.030746 214.962597 
L 88.581969 214.820665 
L 89.133192 214.672857 
L 89.684415 214.518974 
L 90.235638 214.358813 
L 90.78686 214.192166 
L 91.338083 214.018821 
L 91.889306 213.83856 
L 92.440529 213.651162 
L 92.991752 213.4564 
L 93.542975 213.254045 
L 94.094198 213.043862 
L 94.645421 212.825611 
L 95.196644 212.599049 
L 95.747867 212.363928 
L 96.29909 212.119997 
L 96.850313 211.866998 
L 97.401536 211.604673 
L 97.952759 211.332758 
L 98.503981 211.050985 
L 99.055204 210.759082 
L 99.606427 210.456776 
L 100.15765 210.143788 
L 100.708873 209.819836 
L 101.260096 209.484636 
L 101.811319 209.137901 
L 102.362542 208.77934 
L 102.913765 208.408662 
L 103.464988 208.025571 
L 104.016211 207.629771 
L 104.567434 207.220961 
L 105.118657 206.798843 
L 105.66988 206.363113 
L 106.221102 205.91347 
L 106.772325 205.449608 
L 107.323548 204.971224 
L 107.874771 204.478013 
L 108.425994 203.969669 
L 108.977217 203.44589 
L 109.52844 202.90637 
L 110.079663 202.350808 
L 110.630886 201.778902 
L 111.182109 201.190353 
L 111.733332 200.584863 
L 112.284555 199.962138 
L 112.835778 199.321885 
L 113.387001 198.663817 
L 113.938223 197.987648 
L 114.489446 197.293097 
L 115.040669 196.579889 
L 115.591892 195.847752 
L 116.143115 195.096422 
L 116.694338 194.325638 
L 117.245561 193.535148 
L 117.796784 192.724706 
L 118.348007 191.894073 
L 118.89923 191.043018 
L 119.450453 190.17132 
L 120.001676 189.278765 
L 120.001676 217.96 
L 120.001676 217.96 
L 119.450453 217.96 
L 118.89923 217.96 
L 118.348007 217.96 
L 117.796784 217.96 
L 117.245561 217.96 
L 116.694338 217.96 
L 116.143115 217.96 
L 115.591892 217.96 
L 115.040669 217.96 
L 114.489446 217.96 
L 113.938223 217.96 
L 113.387001 217.96 
L 112.835778 217.96 
L 112.284555 217.96 
L 111.733332 217.96 
L 111.182109 217.96 
L 110.630886 217.96 
L 110.079663 217.96 
L 109.52844 217.96 
L 108.977217 217.96 
L 108.425994 217.96 
L 107.874771 217.96 
L 107.323548 217.96 
L 106.772325 217.96 
L 106.221102 217.96 
L 105.66988 217.96 
L 105.118657 217.96 
L 104.567434 217.96 
L 104.016211 217.96 
L 103.464988 217.96 
L 102.913765 217.96 
L 102.362542 217.96 
L 101.811319 217.96 
L 101.260096 217.96 
L 100.708873 217.96 
L 100.15765 217.96 
L 99.606427 217.96 
L 99.055204 217.96 
L 98.503981 217.96 
L 97.952759 217.96 
L 97.401536 217.96 
L 96.850313 217.96 
L 96.29909 217.96 
L 95.747867 217.96 
L 95.196644 217.96 
L 94.645421 217.96 
L 94.094198 217.96 
L 93.542975 217.96 
L 92.991752 217.96 
L 92.440529 217.96 
L 91.889306 217.96 
L 91.338083 217.96 
L 90.78686 217.96 
L 90.235638 217.96 
L 89.684415 217.96 
L 89.133192 217.96 
L 88.581969 217.96 
L 88.030746 217.96 
L 87.479523 217.96 
L 86.9283 217.96 
L 86.377077 217.96 
L 85.825854 217.96 
L 85.274631 217.96 
L 84.723408 217.96 
L 84.172185 217.96 
L 83.620962 217.96 
L 83.069739 217.96 
L 82.518516 217.96 
L 81.967294 217.96 
L 81.416071 217.96 
L 80.864848 217.96 
L 80.313625 217.96 
L 79.762402 217.96 
L 79.211179 217.96 
L 78.659956 217.96 
L 78.108733 217.96 
L 77.55751 217.96 
L 77.006287 217.96 
L 76.455064 217.96 
L 75.903841 217.96 
L 75.352618 217.96 
L 74.801395 217.96 
L 74.250173 217.96 
L 73.69895 217.96 
L 73.147727 217.96 
L 72.596504 217.96 
L 72.045281 217.96 
L 71.494058 217.96 
L 70.942835 217.96 
L 70.391612 217.96 
L 69.840389 217.96 
L 69.289166 217.96 
L 68.737943 217.96 
L 68.18672 217.96 
L 67.635497 217.96 
L 67.084274 217.96 
L 66.533052 217.96 
L 65.981829 217.96 
L 65.430606 217.96 
L 64.879383 217.96 
L 64.32816 217.96 
L 63.776937 217.96 
L 63.225714 217.96 
L 62.674491 217.96 
L 62.123268 217.96 
L 61.572045 217.96 
L 61.020822 217.96 
L 60.469599 217.96 
L 59.918376 217.96 
L 59.367153 217.96 
L 58.815931 217.96 
L 58.264708 217.96 
L 57.713485 217.96 
L 57.162262 217.96 
L 56.611039 217.96 
L 56.059816 217.96 
L 55.508593 217.96 
L 54.95737 217.96 
L 54.406147 217.96 
L 53.854924 217.96 
L 53.303701 217.96 
L 52.752478 217.96 
L 52.201255 217.96 
L 51.650032 217.96 
L 51.098809 217.96 
L 50.547587 217.96 
L 49.996364 217.96 
z
" clip-path="url(#pdaef7cf9b5)" style="fill: #ffa500; fill-opacity: 0.5; stroke: #ffa500; stroke-opacity: 0.5"/>
    <path d="M 255.051293 217.96 
L 255.051293 189.278765 
L 255.602516 190.17132 
L 256.153739 191.043018 
L 256.704962 191.894073 
L 257.256185 192.724706 
L 257.807408 193.535148 
L 258.358631 194.325638 
L 258.909854 195.096422 
L 259.461077 195.847752 
L 260.0123 196.579889 
L 260.563523 197.293097 
L 261.114746 197.987648 
L 261.665969 198.663817 
L 262.217192 199.321885 
L 262.768414 199.962138 
L 263.319637 200.584863 
L 263.87086 201.190353 
L 264.422083 201.778902 
L 264.973306 202.350808 
L 265.524529 202.90637 
L 266.075752 203.44589 
L 266.626975 203.969669 
L 267.178198 204.478013 
L 267.729421 204.971224 
L 268.280644 205.449608 
L 268.831867 205.91347 
L 269.38309 206.363113 
L 269.934313 206.798843 
L 270.485536 207.220961 
L 271.036758 207.629771 
L 271.587981 208.025571 
L 272.139204 208.408662 
L 272.690427 208.77934 
L 273.24165 209.137901 
L 273.792873 209.484636 
L 274.344096 209.819836 
L 274.895319 210.143788 
L 275.446542 210.456776 
L 275.997765 210.759082 
L 276.548988 211.050985 
L 277.100211 211.332758 
L 277.651434 211.604673 
L 278.202657 211.866998 
L 278.753879 212.119997 
L 279.305102 212.363928 
L 279.856325 212.599049 
L 280.407548 212.825611 
L 280.958771 213.043862 
L 281.509994 213.254045 
L 282.061217 213.4564 
L 282.61244 213.651162 
L 283.163663 213.83856 
L 283.714886 214.018821 
L 284.266109 214.192166 
L 284.817332 214.358813 
L 285.368555 214.518974 
L 285.919778 214.672857 
L 286.471 214.820665 
L 287.022223 214.962597 
L 287.573446 215.098848 
L 288.124669 215.229608 
L 288.675892 215.355061 
L 289.227115 215.475388 
L 289.778338 215.590767 
L 290.329561 215.701368 
L 290.880784 215.807359 
L 291.432007 215.908904 
L 291.98323 216.006161 
L 292.534453 216.099285 
L 293.085676 216.188425 
L 293.636899 216.273729 
L 294.188121 216.355338 
L 294.739344 216.433389 
L 295.290567 216.508018 
L 295.84179 216.579353 
L 296.393013 216.64752 
L 296.944236 216.712643 
L 297.495459 216.774839 
L 298.046682 216.834224 
L 298.597905 216.890907 
L 299.149128 216.944998 
L 299.700351 216.996599 
L 300.251574 217.045812 
L 300.802797 217.092734 
L 301.35402 217.137459 
L 301.905243 217.180078 
L 302.456465 217.220679 
L 303.007688 217.259347 
L 303.558911 217.296162 
L 304.110134 217.331205 
L 304.661357 217.364551 
L 305.21258 217.396274 
L 305.763803 217.426444 
L 306.315026 217.455129 
L 306.866249 217.482394 
L 307.417472 217.508303 
L 307.968695 217.532917 
L 308.519918 217.556293 
L 309.071141 217.578487 
L 309.622364 217.599554 
L 310.173586 217.619546 
L 310.724809 217.638511 
L 311.276032 217.656497 
L 311.827255 217.673551 
L 312.378478 217.689717 
L 312.929701 217.705035 
L 313.480924 217.719547 
L 314.032147 217.733292 
L 314.58337 217.746305 
L 315.134593 217.758624 
L 315.685816 217.770281 
L 316.237039 217.781309 
L 316.788262 217.79174 
L 317.339485 217.801602 
L 317.890707 217.810924 
L 318.44193 217.819734 
L 318.993153 217.828058 
L 319.544376 217.835919 
L 320.095599 217.843342 
L 320.646822 217.850349 
L 321.198045 217.856961 
L 321.749268 217.8632 
L 322.300491 217.869084 
L 322.851714 217.874633 
L 323.402937 217.879863 
L 323.95416 217.884793 
L 324.505383 217.889437 
L 325.056606 217.893812 
L 325.056606 217.96 
L 325.056606 217.96 
L 324.505383 217.96 
L 323.95416 217.96 
L 323.402937 217.96 
L 322.851714 217.96 
L 322.300491 217.96 
L 321.749268 217.96 
L 321.198045 217.96 
L 320.646822 217.96 
L 320.095599 217.96 
L 319.544376 217.96 
L 318.993153 217.96 
L 318.44193 217.96 
L 317.890707 217.96 
L 317.339485 217.96 
L 316.788262 217.96 
L 316.237039 217.96 
L 315.685816 217.96 
L 315.134593 217.96 
L 314.58337 217.96 
L 314.032147 217.96 
L 313.480924 217.96 
L 312.929701 217.96 
L 312.378478 217.96 
L 311.827255 217.96 
L 311.276032 217.96 
L 310.724809 217.96 
L 310.173586 217.96 
L 309.622364 217.96 
L 309.071141 217.96 
L 308.519918 217.96 
L 307.968695 217.96 
L 307.417472 217.96 
L 306.866249 217.96 
L 306.315026 217.96 
L 305.763803 217.96 
L 305.21258 217.96 
L 304.661357 217.96 
L 304.110134 217.96 
L 303.558911 217.96 
L 303.007688 217.96 
L 302.456465 217.96 
L 301.905243 217.96 
L 301.35402 217.96 
L 300.802797 217.96 
L 300.251574 217.96 
L 299.700351 217.96 
L 299.149128 217.96 
L 298.597905 217.96 
L 298.046682 217.96 
L 297.495459 217.96 
L 296.944236 217.96 
L 296.393013 217.96 
L 295.84179 217.96 
L 295.290567 217.96 
L 294.739344 217.96 
L 294.188121 217.96 
L 293.636899 217.96 
L 293.085676 217.96 
L 292.534453 217.96 
L 291.98323 217.96 
L 291.432007 217.96 
L 290.880784 217.96 
L 290.329561 217.96 
L 289.778338 217.96 
L 289.227115 217.96 
L 288.675892 217.96 
L 288.124669 217.96 
L 287.573446 217.96 
L 287.022223 217.96 
L 286.471 217.96 
L 285.919778 217.96 
L 285.368555 217.96 
L 284.817332 217.96 
L 284.266109 217.96 
L 283.714886 217.96 
L 283.163663 217.96 
L 282.61244 217.96 
L 282.061217 217.96 
L 281.509994 217.96 
L 280.958771 217.96 
L 280.407548 217.96 
L 279.856325 217.96 
L 279.305102 217.96 
L 278.753879 217.96 
L 278.202657 217.96 
L 277.651434 217.96 
L 277.100211 217.96 
L 276.548988 217.96 
L 275.997765 217.96 
L 275.446542 217.96 
L 274.895319 217.96 
L 274.344096 217.96 
L 273.792873 217.96 
L 273.24165 217.96 
L 272.690427 217.96 
L 272.139204 217.96 
L 271.587981 217.96 
L 271.036758 217.96 
L 270.485536 217.96 
L 269.934313 217.96 
L 269.38309 217.96 
L 268.831867 217.96 
L 268.280644 217.96 
L 267.729421 217.96 
L 267.178198 217.96 
L 266.626975 217.96 
L 266.075752 217.96 
L 265.524529 217.96 
L 264.973306 217.96 
L 264.422083 217.96 
L 263.87086 217.96 
L 263.319637 217.96 
L 262.768414 217.96 
L 262.217192 217.96 
L 261.665969 217.96 
L 261.114746 217.96 
L 260.563523 217.96 
L 260.0123 217.96 
L 259.461077 217.96 
L 258.909854 217.96 
L 258.358631 217.96 
L 257.807408 217.96 
L 257.256185 217.96 
L 256.704962 217.96 
L 256.153739 217.96 
L 255.602516 217.96 
L 255.051293 217.96 
z
" clip-path="url(#pdaef7cf9b5)" style="fill: #ffa500; fill-opacity: 0.5; stroke: #ffa500; stroke-opacity: 0.5"/>
   </g>
   <g id="matplotlib.axis_5"/>
   <g id="patch_7">
    <path d="M 32.32 217.96 
L 421.2 217.96 
" style="fill: none; stroke: #030303; stroke-width: 1.5; stroke-linejoin: miter; stroke-linecap: square"/>
   </g>
  </g>
  <g id="axes_5">
   <g id="PolyCollection_2">
    <path d="M 49.996364 217.96 
L 49.996364 217.893812 
L 50.547587 217.889437 
L 51.098809 217.884793 
L 51.650032 217.879863 
L 52.201255 217.874633 
L 52.752478 217.869084 
L 53.303701 217.8632 
L 53.854924 217.856961 
L 54.406147 217.850349 
L 54.95737 217.843342 
L 55.508593 217.835919 
L 56.059816 217.828058 
L 56.611039 217.819734 
L 57.162262 217.810924 
L 57.713485 217.801602 
L 58.264708 217.79174 
L 58.815931 217.781309 
L 59.367153 217.770281 
L 59.918376 217.758624 
L 60.469599 217.746305 
L 61.020822 217.733292 
L 61.572045 217.719547 
L 62.123268 217.705035 
L 62.674491 217.689717 
L 63.225714 217.673551 
L 63.776937 217.656497 
L 64.32816 217.638511 
L 64.879383 217.619546 
L 65.430606 217.599554 
L 65.981829 217.578487 
L 66.533052 217.556293 
L 67.084274 217.532917 
L 67.635497 217.508303 
L 68.18672 217.482394 
L 68.737943 217.455129 
L 69.289166 217.426444 
L 69.840389 217.396274 
L 70.391612 217.364551 
L 70.942835 217.331205 
L 71.494058 217.296162 
L 72.045281 217.259347 
L 72.596504 217.220679 
L 73.147727 217.180078 
L 73.69895 217.137459 
L 74.250173 217.092734 
L 74.801395 217.045812 
L 75.352618 216.996599 
L 75.903841 216.944998 
L 76.455064 216.890907 
L 77.006287 216.834224 
L 77.55751 216.774839 
L 78.108733 216.712643 
L 78.659956 216.64752 
L 79.211179 216.579353 
L 79.762402 216.508018 
L 80.313625 216.433389 
L 80.864848 216.355338 
L 81.416071 216.273729 
L 81.967294 216.188425 
L 82.518516 216.099285 
L 83.069739 216.006161 
L 83.620962 215.908904 
L 84.172185 215.807359 
L 84.723408 215.701368 
L 85.274631 215.590767 
L 85.825854 215.475388 
L 86.377077 215.355061 
L 86.9283 215.229608 
L 87.479523 215.098848 
L 88.030746 214.962597 
L 88.581969 214.820665 
L 89.133192 214.672857 
L 89.684415 214.518974 
L 90.235638 214.358813 
L 90.78686 214.192166 
L 91.338083 214.018821 
L 91.889306 213.83856 
L 92.440529 213.651162 
L 92.991752 213.4564 
L 93.542975 213.254045 
L 94.094198 213.043862 
L 94.645421 212.825611 
L 95.196644 212.599049 
L 95.747867 212.363928 
L 96.29909 212.119997 
L 96.850313 211.866998 
L 97.401536 211.604673 
L 97.952759 211.332758 
L 98.503981 211.050985 
L 99.055204 210.759082 
L 99.606427 210.456776 
L 100.15765 210.143788 
L 100.708873 209.819836 
L 101.260096 209.484636 
L 101.811319 209.137901 
L 102.362542 208.77934 
L 102.913765 208.408662 
L 103.464988 208.025571 
L 104.016211 207.629771 
L 104.567434 207.220961 
L 105.118657 206.798843 
L 105.66988 206.363113 
L 106.221102 205.91347 
L 106.772325 205.449608 
L 107.323548 204.971224 
L 107.874771 204.478013 
L 108.425994 203.969669 
L 108.977217 203.44589 
L 108.977217 217.96 
L 108.977217 217.96 
L 108.425994 217.96 
L 107.874771 217.96 
L 107.323548 217.96 
L 106.772325 217.96 
L 106.221102 217.96 
L 105.66988 217.96 
L 105.118657 217.96 
L 104.567434 217.96 
L 104.016211 217.96 
L 103.464988 217.96 
L 102.913765 217.96 
L 102.362542 217.96 
L 101.811319 217.96 
L 101.260096 217.96 
L 100.708873 217.96 
L 100.15765 217.96 
L 99.606427 217.96 
L 99.055204 217.96 
L 98.503981 217.96 
L 97.952759 217.96 
L 97.401536 217.96 
L 96.850313 217.96 
L 96.29909 217.96 
L 95.747867 217.96 
L 95.196644 217.96 
L 94.645421 217.96 
L 94.094198 217.96 
L 93.542975 217.96 
L 92.991752 217.96 
L 92.440529 217.96 
L 91.889306 217.96 
L 91.338083 217.96 
L 90.78686 217.96 
L 90.235638 217.96 
L 89.684415 217.96 
L 89.133192 217.96 
L 88.581969 217.96 
L 88.030746 217.96 
L 87.479523 217.96 
L 86.9283 217.96 
L 86.377077 217.96 
L 85.825854 217.96 
L 85.274631 217.96 
L 84.723408 217.96 
L 84.172185 217.96 
L 83.620962 217.96 
L 83.069739 217.96 
L 82.518516 217.96 
L 81.967294 217.96 
L 81.416071 217.96 
L 80.864848 217.96 
L 80.313625 217.96 
L 79.762402 217.96 
L 79.211179 217.96 
L 78.659956 217.96 
L 78.108733 217.96 
L 77.55751 217.96 
L 77.006287 217.96 
L 76.455064 217.96 
L 75.903841 217.96 
L 75.352618 217.96 
L 74.801395 217.96 
L 74.250173 217.96 
L 73.69895 217.96 
L 73.147727 217.96 
L 72.596504 217.96 
L 72.045281 217.96 
L 71.494058 217.96 
L 70.942835 217.96 
L 70.391612 217.96 
L 69.840389 217.96 
L 69.289166 217.96 
L 68.737943 217.96 
L 68.18672 217.96 
L 67.635497 217.96 
L 67.084274 217.96 
L 66.533052 217.96 
L 65.981829 217.96 
L 65.430606 217.96 
L 64.879383 217.96 
L 64.32816 217.96 
L 63.776937 217.96 
L 63.225714 217.96 
L 62.674491 217.96 
L 62.123268 217.96 
L 61.572045 217.96 
L 61.020822 217.96 
L 60.469599 217.96 
L 59.918376 217.96 
L 59.367153 217.96 
L 58.815931 217.96 
L 58.264708 217.96 
L 57.713485 217.96 
L 57.162262 217.96 
L 56.611039 217.96 
L 56.059816 217.96 
L 55.508593 217.96 
L 54.95737 217.96 
L 54.406147 217.96 
L 53.854924 217.96 
L 53.303701 217.96 
L 52.752478 217.96 
L 52.201255 217.96 
L 51.650032 217.96 
L 51.098809 217.96 
L 50.547587 217.96 
L 49.996364 217.96 
z
" clip-path="url(#pdaef7cf9b5)" style="fill: #28a745; fill-opacity: 0.5; stroke: #28a745; stroke-opacity: 0.5"/>
    <path d="M 266.075752 217.96 
L 266.075752 203.44589 
L 266.626975 203.969669 
L 267.178198 204.478013 
L 267.729421 204.971224 
L 268.280644 205.449608 
L 268.831867 205.91347 
L 269.38309 206.363113 
L 269.934313 206.798843 
L 270.485536 207.220961 
L 271.036758 207.629771 
L 271.587981 208.025571 
L 272.139204 208.408662 
L 272.690427 208.77934 
L 273.24165 209.137901 
L 273.792873 209.484636 
L 274.344096 209.819836 
L 274.895319 210.143788 
L 275.446542 210.456776 
L 275.997765 210.759082 
L 276.548988 211.050985 
L 277.100211 211.332758 
L 277.651434 211.604673 
L 278.202657 211.866998 
L 278.753879 212.119997 
L 279.305102 212.363928 
L 279.856325 212.599049 
L 280.407548 212.825611 
L 280.958771 213.043862 
L 281.509994 213.254045 
L 282.061217 213.4564 
L 282.61244 213.651162 
L 283.163663 213.83856 
L 283.714886 214.018821 
L 284.266109 214.192166 
L 284.817332 214.358813 
L 285.368555 214.518974 
L 285.919778 214.672857 
L 286.471 214.820665 
L 287.022223 214.962597 
L 287.573446 215.098848 
L 288.124669 215.229608 
L 288.675892 215.355061 
L 289.227115 215.475388 
L 289.778338 215.590767 
L 290.329561 215.701368 
L 290.880784 215.807359 
L 291.432007 215.908904 
L 291.98323 216.006161 
L 292.534453 216.099285 
L 293.085676 216.188425 
L 293.636899 216.273729 
L 294.188121 216.355338 
L 294.739344 216.433389 
L 295.290567 216.508018 
L 295.84179 216.579353 
L 296.393013 216.64752 
L 296.944236 216.712643 
L 297.495459 216.774839 
L 298.046682 216.834224 
L 298.597905 216.890907 
L 299.149128 216.944998 
L 299.700351 216.996599 
L 300.251574 217.045812 
L 300.802797 217.092734 
L 301.35402 217.137459 
L 301.905243 217.180078 
L 302.456465 217.220679 
L 303.007688 217.259347 
L 303.558911 217.296162 
L 304.110134 217.331205 
L 304.661357 217.364551 
L 305.21258 217.396274 
L 305.763803 217.426444 
L 306.315026 217.455129 
L 306.866249 217.482394 
L 307.417472 217.508303 
L 307.968695 217.532917 
L 308.519918 217.556293 
L 309.071141 217.578487 
L 309.622364 217.599554 
L 310.173586 217.619546 
L 310.724809 217.638511 
L 311.276032 217.656497 
L 311.827255 217.673551 
L 312.378478 217.689717 
L 312.929701 217.705035 
L 313.480924 217.719547 
L 314.032147 217.733292 
L 314.58337 217.746305 
L 315.134593 217.758624 
L 315.685816 217.770281 
L 316.237039 217.781309 
L 316.788262 217.79174 
L 317.339485 217.801602 
L 317.890707 217.810924 
L 318.44193 217.819734 
L 318.993153 217.828058 
L 319.544376 217.835919 
L 320.095599 217.843342 
L 320.646822 217.850349 
L 321.198045 217.856961 
L 321.749268 217.8632 
L 322.300491 217.869084 
L 322.851714 217.874633 
L 323.402937 217.879863 
L 323.95416 217.884793 
L 324.505383 217.889437 
L 325.056606 217.893812 
L 325.056606 217.96 
L 325.056606 217.96 
L 324.505383 217.96 
L 323.95416 217.96 
L 323.402937 217.96 
L 322.851714 217.96 
L 322.300491 217.96 
L 321.749268 217.96 
L 321.198045 217.96 
L 320.646822 217.96 
L 320.095599 217.96 
L 319.544376 217.96 
L 318.993153 217.96 
L 318.44193 217.96 
L 317.890707 217.96 
L 317.339485 217.96 
L 316.788262 217.96 
L 316.237039 217.96 
L 315.685816 217.96 
L 315.134593 217.96 
L 314.58337 217.96 
L 314.032147 217.96 
L 313.480924 217.96 
L 312.929701 217.96 
L 312.378478 217.96 
L 311.827255 217.96 
L 311.276032 217.96 
L 310.724809 217.96 
L 310.173586 217.96 
L 309.622364 217.96 
L 309.071141 217.96 
L 308.519918 217.96 
L 307.968695 217.96 
L 307.417472 217.96 
L 306.866249 217.96 
L 306.315026 217.96 
L 305.763803 217.96 
L 305.21258 217.96 
L 304.661357 217.96 
L 304.110134 217.96 
L 303.558911 217.96 
L 303.007688 217.96 
L 302.456465 217.96 
L 301.905243 217.96 
L 301.35402 217.96 
L 300.802797 217.96 
L 300.251574 217.96 
L 299.700351 217.96 
L 299.149128 217.96 
L 298.597905 217.96 
L 298.046682 217.96 
L 297.495459 217.96 
L 296.944236 217.96 
L 296.393013 217.96 
L 295.84179 217.96 
L 295.290567 217.96 
L 294.739344 217.96 
L 294.188121 217.96 
L 293.636899 217.96 
L 293.085676 217.96 
L 292.534453 217.96 
L 291.98323 217.96 
L 291.432007 217.96 
L 290.880784 217.96 
L 290.329561 217.96 
L 289.778338 217.96 
L 289.227115 217.96 
L 288.675892 217.96 
L 288.124669 217.96 
L 287.573446 217.96 
L 287.022223 217.96 
L 286.471 217.96 
L 285.919778 217.96 
L 285.368555 217.96 
L 284.817332 217.96 
L 284.266109 217.96 
L 283.714886 217.96 
L 283.163663 217.96 
L 282.61244 217.96 
L 282.061217 217.96 
L 281.509994 217.96 
L 280.958771 217.96 
L 280.407548 217.96 
L 279.856325 217.96 
L 279.305102 217.96 
L 278.753879 217.96 
L 278.202657 217.96 
L 277.651434 217.96 
L 277.100211 217.96 
L 276.548988 217.96 
L 275.997765 217.96 
L 275.446542 217.96 
L 274.895319 217.96 
L 274.344096 217.96 
L 273.792873 217.96 
L 273.24165 217.96 
L 272.690427 217.96 
L 272.139204 217.96 
L 271.587981 217.96 
L 271.036758 217.96 
L 270.485536 217.96 
L 269.934313 217.96 
L 269.38309 217.96 
L 268.831867 217.96 
L 268.280644 217.96 
L 267.729421 217.96 
L 267.178198 217.96 
L 266.626975 217.96 
L 266.075752 217.96 
z
" clip-path="url(#pdaef7cf9b5)" style="fill: #28a745; fill-opacity: 0.5; stroke: #28a745; stroke-opacity: 0.5"/>
   </g>
   <g id="matplotlib.axis_6"/>
   <g id="patch_8">
    <path d="M 32.32 217.96 
L 421.2 217.96 
" style="fill: none; stroke: #030303; stroke-width: 1.5; stroke-linejoin: miter; stroke-linecap: square"/>
   </g>
  </g>
  <g id="axes_6">
   <g id="matplotlib.axis_7"/>
   <g id="line2d_11">
    <path d="M 128.463394 217.893812 
L 141.141522 217.689717 
L 148.858643 217.364551 
L 154.922095 216.890907 
L 159.883101 216.273729 
L 163.741662 215.590767 
L 167.600222 214.672857 
L 170.90756 213.651162 
L 173.663675 212.599049 
L 176.419789 211.332758 
L 179.175904 209.819836 
L 181.932019 208.025571 
L 184.688133 205.91347 
L 186.893025 203.969669 
L 189.097917 201.778902 
L 191.302808 199.321885 
L 193.5077 196.579889 
L 195.712592 193.535148 
L 197.917484 190.17132 
L 200.122375 186.473972 
L 202.87849 181.365252 
L 205.634605 175.700047 
L 208.390719 169.470397 
L 211.146834 162.678782 
L 213.902949 155.339585 
L 217.210286 145.849533 
L 220.517624 135.686086 
L 224.376184 123.120113 
L 229.888414 104.27924 
L 238.70798 73.953408 
L 242.566541 61.527939 
L 245.322656 53.276209 
L 248.07877 45.699657 
L 250.283662 40.212455 
L 252.488554 35.303173 
L 254.693445 31.028626 
L 256.347114 28.26982 
L 258.000783 25.91506 
L 259.654452 23.98031 
L 261.308121 22.478787 
L 262.410566 21.723673 
L 263.513012 21.168069 
L 264.615458 20.813685 
L 265.717904 20.66161 
L 266.82035 20.712315 
L 267.922796 20.965642 
L 269.025242 21.420811 
L 270.127687 22.076422 
L 271.230133 22.93046 
L 272.883802 24.577684 
L 274.537471 26.654045 
L 276.19114 29.145392 
L 277.844808 32.034883 
L 279.498477 35.303173 
L 281.703369 40.212455 
L 283.908261 45.699657 
L 286.664375 53.276209 
L 289.42049 61.527939 
L 292.727827 72.128272 
L 297.137611 87.051051 
L 309.264515 128.587161 
L 313.123076 140.846121 
L 316.430413 150.684112 
L 319.737751 159.807577 
L 322.493866 166.820663 
L 325.24998 173.276032 
L 328.006095 179.166609 
L 330.76221 184.496365 
L 333.518324 189.278765 
L 336.274439 193.535148 
L 338.479331 196.579889 
L 340.684222 199.321885 
L 342.889114 201.778902 
L 345.094006 203.969669 
L 347.85012 206.363113 
L 350.606235 208.408662 
L 353.36235 210.143788 
L 356.118464 211.604673 
L 358.874579 212.825611 
L 362.181917 214.018821 
L 365.489254 214.962597 
L 369.347815 215.807359 
L 373.757598 216.508018 
L 378.718605 217.045812 
L 384.782057 217.455129 
L 392.499178 217.733292 
L 403.523636 217.893812 
L 403.523636 217.893812 
" clip-path="url(#pdaef7cf9b5)" style="fill: none; stroke: #28a745; stroke-width: 1.5; stroke-linecap: square"/>
   </g>
   <g id="patch_9">
    <path d="M 32.32 217.96 
L 421.2 217.96 
" style="fill: none; stroke: #030303; stroke-width: 1.5; stroke-linejoin: miter; stroke-linecap: square"/>
   </g>
  </g>
  <g id="axes_7">
   <g id="matplotlib.axis_8"/>
   <g id="patch_10">
    <path d="M 32.32 217.96 
L 421.2 217.96 
" style="fill: none; stroke: #030303; stroke-width: 1.5; stroke-linejoin: miter; stroke-linecap: square"/>
   </g>
   <g id="legend_1">
    <g id="patch_11">
     <path d="M 286.07375 40.79875 
L 415.6 40.79875 
Q 417.2 40.79875 417.2 39.19875 
L 417.2 16.4 
Q 417.2 14.8 415.6 14.8 
L 286.07375 14.8 
Q 284.47375 14.8 284.47375 16.4 
L 284.47375 39.19875 
Q 284.47375 40.79875 286.07375 40.79875 
z
" style="fill: #ffffff; opacity: 0.8; stroke: #cccccc; stroke-linejoin: miter"/>
    </g>
    <g id="line2d_12">
     <path d="M 287.67375 21.27875 
L 295.67375 21.27875 
L 303.67375 21.27875 
" style="fill: none; stroke: #cb4154; stroke-width: 1.5; stroke-linecap: square"/>
    </g>
    <g id="text_9">
     <!-- Null Distribution (Z) -->
     <g style="fill: #030303" transform="translate(310.07375 24.07875) scale(0.08 -0.08)">
      <defs>
       <path id="DejaVuSerif-4e" d="M 313 0 
L 313 331 
L 941 331 
L 941 4331 
L 313 4331 
L 313 4666 
L 1509 4666 
L 4306 984 
L 4306 4331 
L 3681 4331 
L 3681 4666 
L 5319 4666 
L 5319 4331 
L 4691 4331 
L 4691 -91 
L 4313 -91 
L 1325 3841 
L 1325 331 
L 1953 331 
L 1953 0 
L 313 0 
z
" transform="scale(0.015625)"/>
       <path id="DejaVuSerif-75" d="M 2266 3322 
L 3341 3322 
L 3341 331 
L 3884 331 
L 3884 0 
L 2766 0 
L 2766 588 
Q 2606 256 2353 82 
Q 2100 -91 1766 -91 
Q 1213 -91 952 223 
Q 691 538 691 1209 
L 691 2988 
L 172 2988 
L 172 3322 
L 1269 3322 
L 1269 1388 
Q 1269 781 1417 556 
Q 1566 331 1947 331 
Q 2347 331 2556 625 
Q 2766 919 2766 1478 
L 2766 2988 
L 2266 2988 
L 2266 3322 
z
" transform="scale(0.015625)"/>
       <path id="DejaVuSerif-28" d="M 2041 -997 
Q 1281 -656 893 83 
Q 506 822 506 1931 
Q 506 3044 893 3783 
Q 1281 4522 2041 4863 
L 2041 4556 
Q 1559 4225 1350 3623 
Q 1141 3022 1141 1931 
Q 1141 844 1350 242 
Q 1559 -359 2041 -691 
L 2041 -997 
z
" transform="scale(0.015625)"/>
       <path id="DejaVuSerif-29" d="M 453 -997 
L 453 -691 
Q 934 -359 1145 242 
Q 1356 844 1356 1931 
Q 1356 3022 1145 3623 
Q 934 4225 453 4556 
L 453 4863 
Q 1216 4522 1603 3783 
Q 1991 3044 1991 1931 
Q 1991 822 1603 83 
Q 1216 -656 453 -997 
z
" transform="scale(0.015625)"/>
      </defs>
      <use xlink:href="#DejaVuSerif-4e"/>
      <use xlink:href="#DejaVuSerif-75" x="87.5"/>
      <use xlink:href="#DejaVuSerif-6c" x="151.904297"/>
      <use xlink:href="#DejaVuSerif-6c" x="183.886719"/>
      <use xlink:href="#DejaVuSerif-20" x="215.869141"/>
      <use xlink:href="#DejaVuSerif-44" x="247.65625"/>
      <use xlink:href="#DejaVuSerif-69" x="327.832031"/>
      <use xlink:href="#DejaVuSerif-73" x="359.814453"/>
      <use xlink:href="#DejaVuSerif-74" x="411.132812"/>
      <use xlink:href="#DejaVuSerif-72" x="451.318359"/>
      <use xlink:href="#DejaVuSerif-69" x="499.121094"/>
      <use xlink:href="#DejaVuSerif-62" x="531.103516"/>
      <use xlink:href="#DejaVuSerif-75" x="595.117188"/>
      <use xlink:href="#DejaVuSerif-74" x="659.521484"/>
      <use xlink:href="#DejaVuSerif-69" x="699.707031"/>
      <use xlink:href="#DejaVuSerif-6f" x="731.689453"/>
      <use xlink:href="#DejaVuSerif-6e" x="791.894531"/>
      <use xlink:href="#DejaVuSerif-20" x="856.298828"/>
      <use xlink:href="#DejaVuSerif-28" x="888.085938"/>
      <use xlink:href="#DejaVuSerif-5a" x="927.099609"/>
      <use xlink:href="#DejaVuSerif-29" x="996.582031"/>
     </g>
    </g>
    <g id="line2d_13">
     <path d="M 287.67375 33.02125 
L 295.67375 33.02125 
L 303.67375 33.02125 
" style="fill: none; stroke: #28a745; stroke-width: 1.5; stroke-linecap: square"/>
    </g>
    <g id="text_10">
     <!-- Sampling Distribution (Z) -->
     <g style="fill: #030303" transform="translate(310.07375 35.82125) scale(0.08 -0.08)">
      <defs>
       <path id="DejaVuSerif-6d" d="M 3316 2675 
Q 3481 3041 3739 3227 
Q 3997 3413 4341 3413 
Q 4863 3413 5119 3089 
Q 5375 2766 5375 2113 
L 5375 331 
L 5894 331 
L 5894 0 
L 4300 0 
L 4300 331 
L 4800 331 
L 4800 2047 
Q 4800 2556 4650 2772 
Q 4500 2988 4153 2988 
Q 3769 2988 3567 2697 
Q 3366 2406 3366 1850 
L 3366 331 
L 3866 331 
L 3866 0 
L 2291 0 
L 2291 331 
L 2791 331 
L 2791 2069 
Q 2791 2566 2641 2777 
Q 2491 2988 2144 2988 
Q 1759 2988 1557 2697 
Q 1356 2406 1356 1850 
L 1356 331 
L 1856 331 
L 1856 0 
L 263 0 
L 263 331 
L 781 331 
L 781 2994 
L 231 2994 
L 231 3322 
L 1356 3322 
L 1356 2731 
Q 1516 3063 1762 3238 
Q 2009 3413 2322 3413 
Q 2709 3413 2968 3220 
Q 3228 3028 3316 2675 
z
" transform="scale(0.015625)"/>
       <path id="DejaVuSerif-70" d="M 1313 1825 
L 1313 1497 
Q 1313 897 1542 583 
Q 1772 269 2209 269 
Q 2650 269 2876 622 
Q 3103 975 3103 1663 
Q 3103 2353 2876 2703 
Q 2650 3053 2209 3053 
Q 1772 3053 1542 2737 
Q 1313 2422 1313 1825 
z
M 738 2988 
L 184 2988 
L 184 3322 
L 1313 3322 
L 1313 2803 
Q 1481 3116 1742 3264 
Q 2003 3413 2388 3413 
Q 3000 3413 3387 2928 
Q 3775 2444 3775 1663 
Q 3775 881 3387 395 
Q 3000 -91 2388 -91 
Q 2003 -91 1742 57 
Q 1481 206 1313 519 
L 1313 -997 
L 1856 -997 
L 1856 -1331 
L 184 -1331 
L 184 -997 
L 738 -997 
L 738 2988 
z
" transform="scale(0.015625)"/>
       <path id="DejaVuSerif-67" d="M 3359 2988 
L 3359 72 
Q 3359 -644 2965 -1033 
Q 2572 -1422 1844 -1422 
Q 1516 -1422 1216 -1362 
Q 916 -1303 641 -1184 
L 641 -488 
L 941 -488 
Q 997 -813 1206 -963 
Q 1416 -1113 1806 -1113 
Q 2313 -1113 2548 -827 
Q 2784 -541 2784 72 
L 2784 519 
Q 2616 206 2355 57 
Q 2094 -91 1709 -91 
Q 1097 -91 708 395 
Q 319 881 319 1663 
Q 319 2444 706 2928 
Q 1094 3413 1709 3413 
Q 2094 3413 2355 3264 
Q 2616 3116 2784 2803 
L 2784 3322 
L 3909 3322 
L 3909 2988 
L 3359 2988 
z
M 2784 1825 
Q 2784 2422 2554 2737 
Q 2325 3053 1888 3053 
Q 1444 3053 1217 2703 
Q 991 2353 991 1663 
Q 991 975 1217 622 
Q 1444 269 1888 269 
Q 2325 269 2554 583 
Q 2784 897 2784 1497 
L 2784 1825 
z
" transform="scale(0.015625)"/>
      </defs>
      <use xlink:href="#DejaVuSerif-53"/>
      <use xlink:href="#DejaVuSerif-61" x="68.505859"/>
      <use xlink:href="#DejaVuSerif-6d" x="128.125"/>
      <use xlink:href="#DejaVuSerif-70" x="222.949219"/>
      <use xlink:href="#DejaVuSerif-6c" x="286.962891"/>
      <use xlink:href="#DejaVuSerif-69" x="318.945312"/>
      <use xlink:href="#DejaVuSerif-6e" x="350.927734"/>
      <use xlink:href="#DejaVuSerif-67" x="415.332031"/>
      <use xlink:href="#DejaVuSerif-20" x="479.345703"/>
      <use xlink:href="#DejaVuSerif-44" x="511.132812"/>
      <use xlink:href="#DejaVuSerif-69" x="591.308594"/>
      <use xlink:href="#DejaVuSerif-73" x="623.291016"/>
      <use xlink:href="#DejaVuSerif-74" x="674.609375"/>
      <use xlink:href="#DejaVuSerif-72" x="714.794922"/>
      <use xlink:href="#DejaVuSerif-69" x="762.597656"/>
      <use xlink:href="#DejaVuSerif-62" x="794.580078"/>
      <use xlink:href="#DejaVuSerif-75" x="858.59375"/>
      <use xlink:href="#DejaVuSerif-74" x="922.998047"/>
      <use xlink:href="#DejaVuSerif-69" x="963.183594"/>
      <use xlink:href="#DejaVuSerif-6f" x="995.166016"/>
      <use xlink:href="#DejaVuSerif-6e" x="1055.371094"/>
      <use xlink:href="#DejaVuSerif-20" x="1119.775391"/>
      <use xlink:href="#DejaVuSerif-28" x="1151.5625"/>
      <use xlink:href="#DejaVuSerif-5a" x="1190.576172"/>
      <use xlink:href="#DejaVuSerif-29" x="1260.058594"/>
     </g>
    </g>
   </g>
  </g>
 </g>
 <defs>
  <clipPath id="pdaef7cf9b5">
   <rect x="32.32" y="10.8" width="388.88" height="207.16"/>
  </clipPath>
 </defs>
</svg>
