<?xml version="1.0" encoding="utf-8" standalone="no"?>
<!DOCTYPE svg PUBLIC "-//W3C//DTD SVG 1.1//EN"
  "http://www.w3.org/Graphics/SVG/1.1/DTD/svg11.dtd">
<svg xmlns:xlink="http://www.w3.org/1999/xlink" width="432pt" height="270pt" viewBox="0 0 432 270" xmlns="http://www.w3.org/2000/svg" version="1.1">
 <metadata>
  <rdf:RDF xmlns:dc="http://purl.org/dc/elements/1.1/" xmlns:cc="http://creativecommons.org/ns#" xmlns:rdf="http://www.w3.org/1999/02/22-rdf-syntax-ns#">
   <cc:Work>
    <dc:type rdf:resource="http://purl.org/dc/dcmitype/StillImage"/>
    <dc:date>2024-09-13T10:20:28.120340</dc:date>
    <dc:format>image/svg+xml</dc:format>
    <dc:creator>
     <cc:Agent>
      <dc:title>Matplotlib v3.9.2, https://matplotlib.org/</dc:title>
     </cc:Agent>
    </dc:creator>
   </cc:Work>
  </rdf:RDF>
 </metadata>
 <defs>
  <style type="text/css">*{stroke-linejoin: round; stroke-linecap: butt}</style>
 </defs>
 <g id="figure_1">
  <g id="patch_1">
   <path d="M 0 270 
L 432 270 
L 432 0 
L 0 0 
L 0 270 
z
" style="fill: none"/>
  </g>
  <g id="axes_1">
   <g id="patch_2">
    <path d="M 54 240.3 
L 388.8 240.3 
L 388.8 32.4 
L 54 32.4 
L 54 240.3 
z
" style="fill: none"/>
   </g>
   <g id="matplotlib.axis_1">
    <g id="xtick_1">
     <g id="line2d_1">
      <defs>
       <path id="mf14ad9bf0e" d="M 0 0 
L 0 3.5 
" style="stroke: #030303; stroke-width: 0.8"/>
      </defs>
      <g>
       <use xlink:href="#mf14ad9bf0e" x="69.218182" y="240.3" style="fill: #030303; stroke: #030303; stroke-width: 0.8"/>
      </g>
     </g>
     <g id="text_1">
      <!-- $\mathdefault{0}$ -->
      <g style="fill: #030303" transform="translate(65.058182 257.177969) scale(0.13 -0.13)">
       <defs>
        <path id="DejaVuSerif-30" d="M 2034 219 
Q 2513 219 2750 744 
Q 2988 1269 2988 2328 
Q 2988 3391 2750 3916 
Q 2513 4441 2034 4441 
Q 1556 4441 1318 3916 
Q 1081 3391 1081 2328 
Q 1081 1269 1318 744 
Q 1556 219 2034 219 
z
M 2034 -91 
Q 1275 -91 848 546 
Q 422 1184 422 2328 
Q 422 3475 848 4112 
Q 1275 4750 2034 4750 
Q 2797 4750 3222 4112 
Q 3647 3475 3647 2328 
Q 3647 1184 3222 546 
Q 2797 -91 2034 -91 
z
" transform="scale(0.015625)"/>
       </defs>
       <use xlink:href="#DejaVuSerif-30" transform="translate(0 0.78125)"/>
      </g>
     </g>
    </g>
    <g id="xtick_2">
     <g id="line2d_2">
      <g>
       <use xlink:href="#mf14ad9bf0e" x="112.0863" y="240.3" style="fill: #030303; stroke: #030303; stroke-width: 0.8"/>
      </g>
     </g>
     <g id="text_2">
      <!-- $\mathdefault{100}$ -->
      <g style="fill: #030303" transform="translate(99.6713 257.177969) scale(0.13 -0.13)">
       <defs>
        <path id="DejaVuSerif-31" d="M 909 0 
L 909 331 
L 1722 331 
L 1722 4213 
L 781 3603 
L 781 4013 
L 1919 4750 
L 2350 4750 
L 2350 331 
L 3163 331 
L 3163 0 
L 909 0 
z
" transform="scale(0.015625)"/>
       </defs>
       <use xlink:href="#DejaVuSerif-31" transform="translate(0 0.78125)"/>
       <use xlink:href="#DejaVuSerif-30" transform="translate(63.623047 0.78125)"/>
       <use xlink:href="#DejaVuSerif-30" transform="translate(127.246094 0.78125)"/>
      </g>
     </g>
    </g>
    <g id="xtick_3">
     <g id="line2d_3">
      <g>
       <use xlink:href="#mf14ad9bf0e" x="154.954417" y="240.3" style="fill: #030303; stroke: #030303; stroke-width: 0.8"/>
      </g>
     </g>
     <g id="text_3">
      <!-- $\mathdefault{200}$ -->
      <g style="fill: #030303" transform="translate(142.539417 257.177969) scale(0.13 -0.13)">
       <defs>
        <path id="DejaVuSerif-32" d="M 819 3553 
L 469 3553 
L 469 4384 
Q 803 4563 1142 4656 
Q 1481 4750 1806 4750 
Q 2534 4750 2956 4397 
Q 3378 4044 3378 3438 
Q 3378 2753 2422 1800 
Q 2347 1728 2309 1691 
L 1131 513 
L 3078 513 
L 3078 1088 
L 3444 1088 
L 3444 0 
L 434 0 
L 434 341 
L 1850 1753 
Q 2319 2222 2519 2614 
Q 2719 3006 2719 3438 
Q 2719 3909 2473 4175 
Q 2228 4441 1797 4441 
Q 1350 4441 1106 4219 
Q 863 3997 819 3553 
z
" transform="scale(0.015625)"/>
       </defs>
       <use xlink:href="#DejaVuSerif-32" transform="translate(0 0.78125)"/>
       <use xlink:href="#DejaVuSerif-30" transform="translate(63.623047 0.78125)"/>
       <use xlink:href="#DejaVuSerif-30" transform="translate(127.246094 0.78125)"/>
      </g>
     </g>
    </g>
    <g id="xtick_4">
     <g id="line2d_4">
      <g>
       <use xlink:href="#mf14ad9bf0e" x="197.822535" y="240.3" style="fill: #030303; stroke: #030303; stroke-width: 0.8"/>
      </g>
     </g>
     <g id="text_4">
      <!-- $\mathdefault{300}$ -->
      <g style="fill: #030303" transform="translate(185.407535 257.177969) scale(0.13 -0.13)">
       <defs>
        <path id="DejaVuSerif-33" d="M 622 4469 
Q 988 4606 1323 4678 
Q 1659 4750 1953 4750 
Q 2638 4750 3022 4454 
Q 3406 4159 3406 3634 
Q 3406 3213 3140 2930 
Q 2875 2647 2388 2547 
Q 2963 2466 3280 2130 
Q 3597 1794 3597 1259 
Q 3597 606 3158 257 
Q 2719 -91 1894 -91 
Q 1528 -91 1179 -12 
Q 831 66 488 225 
L 488 1131 
L 838 1131 
Q 869 681 1141 450 
Q 1413 219 1906 219 
Q 2384 219 2661 495 
Q 2938 772 2938 1253 
Q 2938 1803 2653 2086 
Q 2369 2369 1819 2369 
L 1522 2369 
L 1522 2688 
L 1678 2688 
Q 2225 2688 2498 2914 
Q 2772 3141 2772 3597 
Q 2772 4006 2547 4223 
Q 2322 4441 1900 4441 
Q 1478 4441 1245 4241 
Q 1013 4041 972 3647 
L 622 3647 
L 622 4469 
z
" transform="scale(0.015625)"/>
       </defs>
       <use xlink:href="#DejaVuSerif-33" transform="translate(0 0.78125)"/>
       <use xlink:href="#DejaVuSerif-30" transform="translate(63.623047 0.78125)"/>
       <use xlink:href="#DejaVuSerif-30" transform="translate(127.246094 0.78125)"/>
      </g>
     </g>
    </g>
    <g id="xtick_5">
     <g id="line2d_5">
      <g>
       <use xlink:href="#mf14ad9bf0e" x="240.690653" y="240.3" style="fill: #030303; stroke: #030303; stroke-width: 0.8"/>
      </g>
     </g>
     <g id="text_5">
      <!-- $\mathdefault{400}$ -->
      <g style="fill: #030303" transform="translate(228.275653 257.177969) scale(0.13 -0.13)">
       <defs>
        <path id="DejaVuSerif-34" d="M 2234 1581 
L 2234 4063 
L 641 1581 
L 2234 1581 
z
M 3609 0 
L 1484 0 
L 1484 331 
L 2234 331 
L 2234 1247 
L 197 1247 
L 197 1588 
L 2241 4750 
L 2859 4750 
L 2859 1581 
L 3750 1581 
L 3750 1247 
L 2859 1247 
L 2859 331 
L 3609 331 
L 3609 0 
z
" transform="scale(0.015625)"/>
       </defs>
       <use xlink:href="#DejaVuSerif-34" transform="translate(0 0.78125)"/>
       <use xlink:href="#DejaVuSerif-30" transform="translate(63.623047 0.78125)"/>
       <use xlink:href="#DejaVuSerif-30" transform="translate(127.246094 0.78125)"/>
      </g>
     </g>
    </g>
    <g id="xtick_6">
     <g id="line2d_6">
      <g>
       <use xlink:href="#mf14ad9bf0e" x="283.558771" y="240.3" style="fill: #030303; stroke: #030303; stroke-width: 0.8"/>
      </g>
     </g>
     <g id="text_6">
      <!-- $\mathdefault{500}$ -->
      <g style="fill: #030303" transform="translate(271.143771 257.177969) scale(0.13 -0.13)">
       <defs>
        <path id="DejaVuSerif-35" d="M 3219 4666 
L 3219 4153 
L 1081 4153 
L 1081 2816 
Q 1244 2928 1461 2984 
Q 1678 3041 1947 3041 
Q 2703 3041 3140 2622 
Q 3578 2203 3578 1478 
Q 3578 738 3136 323 
Q 2694 -91 1894 -91 
Q 1572 -91 1234 -12 
Q 897 66 544 225 
L 544 1131 
L 897 1131 
Q 925 688 1179 453 
Q 1434 219 1894 219 
Q 2388 219 2653 544 
Q 2919 869 2919 1478 
Q 2919 2084 2655 2407 
Q 2391 2731 1894 2731 
Q 1613 2731 1398 2631 
Q 1184 2531 1019 2322 
L 750 2322 
L 750 4666 
L 3219 4666 
z
" transform="scale(0.015625)"/>
       </defs>
       <use xlink:href="#DejaVuSerif-35" transform="translate(0 0.78125)"/>
       <use xlink:href="#DejaVuSerif-30" transform="translate(63.623047 0.78125)"/>
       <use xlink:href="#DejaVuSerif-30" transform="translate(127.246094 0.78125)"/>
      </g>
     </g>
    </g>
    <g id="xtick_7">
     <g id="line2d_7">
      <g>
       <use xlink:href="#mf14ad9bf0e" x="326.426889" y="240.3" style="fill: #030303; stroke: #030303; stroke-width: 0.8"/>
      </g>
     </g>
     <g id="text_7">
      <!-- $\mathdefault{600}$ -->
      <g style="fill: #030303" transform="translate(314.011889 257.177969) scale(0.13 -0.13)">
       <defs>
        <path id="DejaVuSerif-36" d="M 2094 219 
Q 2534 219 2771 542 
Q 3009 866 3009 1472 
Q 3009 2078 2771 2401 
Q 2534 2725 2094 2725 
Q 1647 2725 1412 2412 
Q 1178 2100 1178 1509 
Q 1178 888 1415 553 
Q 1653 219 2094 219 
z
M 1075 2569 
Q 1288 2803 1556 2918 
Q 1825 3034 2163 3034 
Q 2859 3034 3264 2615 
Q 3669 2197 3669 1472 
Q 3669 763 3233 336 
Q 2797 -91 2069 -91 
Q 1278 -91 853 498 
Q 428 1088 428 2181 
Q 428 3406 931 4078 
Q 1434 4750 2350 4750 
Q 2597 4750 2869 4703 
Q 3141 4656 3425 4563 
L 3425 3794 
L 3072 3794 
Q 3034 4109 2831 4275 
Q 2628 4441 2284 4441 
Q 1678 4441 1381 3981 
Q 1084 3522 1075 2569 
z
" transform="scale(0.015625)"/>
       </defs>
       <use xlink:href="#DejaVuSerif-36" transform="translate(0 0.78125)"/>
       <use xlink:href="#DejaVuSerif-30" transform="translate(63.623047 0.78125)"/>
       <use xlink:href="#DejaVuSerif-30" transform="translate(127.246094 0.78125)"/>
      </g>
     </g>
    </g>
    <g id="xtick_8">
     <g id="line2d_8">
      <g>
       <use xlink:href="#mf14ad9bf0e" x="369.295006" y="240.3" style="fill: #030303; stroke: #030303; stroke-width: 0.8"/>
      </g>
     </g>
     <g id="text_8">
      <!-- $\mathdefault{700}$ -->
      <g style="fill: #030303" transform="translate(356.880006 257.177969) scale(0.13 -0.13)">
       <defs>
        <path id="DejaVuSerif-37" d="M 3609 4347 
L 1784 0 
L 1319 0 
L 3059 4153 
L 903 4153 
L 903 3578 
L 538 3578 
L 538 4666 
L 3609 4666 
L 3609 4347 
z
" transform="scale(0.015625)"/>
       </defs>
       <use xlink:href="#DejaVuSerif-37" transform="translate(0 0.78125)"/>
       <use xlink:href="#DejaVuSerif-30" transform="translate(63.623047 0.78125)"/>
       <use xlink:href="#DejaVuSerif-30" transform="translate(127.246094 0.78125)"/>
      </g>
     </g>
    </g>
    <g id="text_9">
     <!-- Stress (MPa) -->
     <g style="fill: #030303" transform="translate(162.638438 277.55875) scale(0.18 -0.18)">
      <defs>
       <path id="DejaVuSerif-53" d="M 594 225 
L 594 1288 
L 953 1284 
Q 969 753 1261 498 
Q 1553 244 2150 244 
Q 2706 244 2998 464 
Q 3291 684 3291 1106 
Q 3291 1444 3114 1625 
Q 2938 1806 2369 1978 
L 1753 2163 
Q 1084 2366 811 2669 
Q 538 2972 538 3500 
Q 538 4094 959 4422 
Q 1381 4750 2144 4750 
Q 2469 4750 2856 4679 
Q 3244 4609 3681 4475 
L 3681 3481 
L 3328 3481 
Q 3275 3975 2998 4195 
Q 2722 4416 2156 4416 
Q 1663 4416 1405 4214 
Q 1147 4013 1147 3628 
Q 1147 3294 1340 3103 
Q 1534 2913 2163 2725 
L 2741 2553 
Q 3375 2363 3645 2067 
Q 3916 1772 3916 1275 
Q 3916 597 3481 253 
Q 3047 -91 2188 -91 
Q 1803 -91 1404 -12 
Q 1006 66 594 225 
z
" transform="scale(0.015625)"/>
       <path id="DejaVuSerif-74" d="M 691 2988 
L 184 2988 
L 184 3322 
L 691 3322 
L 691 4353 
L 1269 4353 
L 1269 3322 
L 2350 3322 
L 2350 2988 
L 1269 2988 
L 1269 878 
Q 1269 456 1350 337 
Q 1431 219 1650 219 
Q 1875 219 1978 351 
Q 2081 484 2088 781 
L 2522 781 
Q 2497 328 2275 118 
Q 2053 -91 1600 -91 
Q 1103 -91 897 129 
Q 691 350 691 878 
L 691 2988 
z
" transform="scale(0.015625)"/>
       <path id="DejaVuSerif-72" d="M 3059 3328 
L 3059 2497 
L 2728 2497 
Q 2713 2744 2591 2866 
Q 2469 2988 2234 2988 
Q 1809 2988 1582 2694 
Q 1356 2400 1356 1850 
L 1356 331 
L 2022 331 
L 2022 0 
L 263 0 
L 263 331 
L 781 331 
L 781 2994 
L 231 2994 
L 231 3322 
L 1356 3322 
L 1356 2731 
Q 1525 3078 1790 3245 
Q 2056 3413 2438 3413 
Q 2578 3413 2733 3391 
Q 2888 3369 3059 3328 
z
" transform="scale(0.015625)"/>
       <path id="DejaVuSerif-65" d="M 3469 1600 
L 991 1600 
L 991 1575 
Q 991 903 1244 561 
Q 1497 219 1991 219 
Q 2369 219 2611 417 
Q 2853 616 2950 1006 
L 3413 1006 
Q 3275 459 2904 184 
Q 2534 -91 1931 -91 
Q 1203 -91 761 389 
Q 319 869 319 1663 
Q 319 2450 753 2931 
Q 1188 3413 1894 3413 
Q 2647 3413 3050 2948 
Q 3453 2484 3469 1600 
z
M 2791 1931 
Q 2772 2513 2545 2808 
Q 2319 3103 1894 3103 
Q 1497 3103 1269 2806 
Q 1041 2509 991 1931 
L 2791 1931 
z
" transform="scale(0.015625)"/>
       <path id="DejaVuSerif-73" d="M 359 184 
L 359 959 
L 691 959 
Q 703 588 923 403 
Q 1144 219 1575 219 
Q 1963 219 2166 364 
Q 2369 509 2369 788 
Q 2369 1006 2220 1140 
Q 2072 1275 1594 1428 
L 1178 1569 
Q 750 1706 558 1912 
Q 366 2119 366 2438 
Q 366 2894 700 3153 
Q 1034 3413 1625 3413 
Q 1888 3413 2178 3344 
Q 2469 3275 2778 3144 
L 2778 2419 
L 2447 2419 
Q 2434 2741 2221 2922 
Q 2009 3103 1644 3103 
Q 1281 3103 1095 2975 
Q 909 2847 909 2591 
Q 909 2381 1050 2254 
Q 1191 2128 1613 1997 
L 2069 1856 
Q 2541 1709 2748 1489 
Q 2956 1269 2956 922 
Q 2956 450 2595 179 
Q 2234 -91 1600 -91 
Q 1278 -91 972 -22 
Q 666 47 359 184 
z
" transform="scale(0.015625)"/>
       <path id="DejaVuSerif-20" transform="scale(0.015625)"/>
       <path id="DejaVuSerif-28" d="M 2041 -997 
Q 1281 -656 893 83 
Q 506 822 506 1931 
Q 506 3044 893 3783 
Q 1281 4522 2041 4863 
L 2041 4556 
Q 1559 4225 1350 3623 
Q 1141 3022 1141 1931 
Q 1141 844 1350 242 
Q 1559 -359 2041 -691 
L 2041 -997 
z
" transform="scale(0.015625)"/>
       <path id="DejaVuSerif-4d" d="M 353 0 
L 353 331 
L 947 331 
L 947 4331 
L 319 4331 
L 319 4666 
L 1678 4666 
L 3316 1344 
L 4953 4666 
L 6228 4666 
L 6228 4331 
L 5606 4331 
L 5606 331 
L 6203 331 
L 6203 0 
L 4378 0 
L 4378 331 
L 4972 331 
L 4972 3938 
L 3372 684 
L 2931 684 
L 1331 3938 
L 1331 331 
L 1925 331 
L 1925 0 
L 353 0 
z
" transform="scale(0.015625)"/>
       <path id="DejaVuSerif-50" d="M 1581 2375 
L 2406 2375 
Q 2872 2375 3115 2626 
Q 3359 2878 3359 3353 
Q 3359 3831 3115 4081 
Q 2872 4331 2406 4331 
L 1581 4331 
L 1581 2375 
z
M 353 0 
L 353 331 
L 947 331 
L 947 4331 
L 353 4331 
L 353 4666 
L 2559 4666 
Q 3259 4666 3668 4311 
Q 4078 3956 4078 3353 
Q 4078 2753 3668 2397 
Q 3259 2041 2559 2041 
L 1581 2041 
L 1581 331 
L 2303 331 
L 2303 0 
L 353 0 
z
" transform="scale(0.015625)"/>
       <path id="DejaVuSerif-61" d="M 2547 1044 
L 2547 1747 
L 1806 1747 
Q 1378 1747 1168 1562 
Q 959 1378 959 997 
Q 959 650 1171 447 
Q 1384 244 1747 244 
Q 2106 244 2326 466 
Q 2547 688 2547 1044 
z
M 3122 2075 
L 3122 331 
L 3634 331 
L 3634 0 
L 2547 0 
L 2547 359 
Q 2356 128 2106 18 
Q 1856 -91 1522 -91 
Q 969 -91 644 203 
Q 319 497 319 997 
Q 319 1513 691 1797 
Q 1063 2081 1741 2081 
L 2547 2081 
L 2547 2309 
Q 2547 2688 2317 2895 
Q 2088 3103 1672 3103 
Q 1328 3103 1125 2947 
Q 922 2791 872 2484 
L 575 2484 
L 575 3156 
Q 875 3284 1158 3348 
Q 1441 3413 1709 3413 
Q 2400 3413 2761 3070 
Q 3122 2728 3122 2075 
z
" transform="scale(0.015625)"/>
       <path id="DejaVuSerif-29" d="M 453 -997 
L 453 -691 
Q 934 -359 1145 242 
Q 1356 844 1356 1931 
Q 1356 3022 1145 3623 
Q 934 4225 453 4556 
L 453 4863 
Q 1216 4522 1603 3783 
Q 1991 3044 1991 1931 
Q 1991 822 1603 83 
Q 1216 -656 453 -997 
z
" transform="scale(0.015625)"/>
      </defs>
      <use xlink:href="#DejaVuSerif-53"/>
      <use xlink:href="#DejaVuSerif-74" x="68.505859"/>
      <use xlink:href="#DejaVuSerif-72" x="108.691406"/>
      <use xlink:href="#DejaVuSerif-65" x="156.494141"/>
      <use xlink:href="#DejaVuSerif-73" x="215.673828"/>
      <use xlink:href="#DejaVuSerif-73" x="266.992188"/>
      <use xlink:href="#DejaVuSerif-20" x="318.310547"/>
      <use xlink:href="#DejaVuSerif-28" x="350.097656"/>
      <use xlink:href="#DejaVuSerif-4d" x="389.111328"/>
      <use xlink:href="#DejaVuSerif-50" x="491.503906"/>
      <use xlink:href="#DejaVuSerif-61" x="554.289062"/>
      <use xlink:href="#DejaVuSerif-29" x="613.908203"/>
     </g>
    </g>
   </g>
   <g id="matplotlib.axis_2">
    <g id="text_10">
     <!-- Probability Density -->
     <g style="fill: #030303" transform="translate(46.000625 223.749844) rotate(-90) scale(0.18 -0.18)">
      <defs>
       <path id="DejaVuSerif-6f" d="M 1925 219 
Q 2388 219 2623 584 
Q 2859 950 2859 1663 
Q 2859 2375 2623 2739 
Q 2388 3103 1925 3103 
Q 1463 3103 1227 2739 
Q 991 2375 991 1663 
Q 991 950 1228 584 
Q 1466 219 1925 219 
z
M 1925 -91 
Q 1200 -91 759 389 
Q 319 869 319 1663 
Q 319 2456 758 2934 
Q 1197 3413 1925 3413 
Q 2653 3413 3092 2934 
Q 3531 2456 3531 1663 
Q 3531 869 3092 389 
Q 2653 -91 1925 -91 
z
" transform="scale(0.015625)"/>
       <path id="DejaVuSerif-62" d="M 738 331 
L 738 4531 
L 184 4531 
L 184 4863 
L 1313 4863 
L 1313 2803 
Q 1481 3116 1742 3264 
Q 2003 3413 2388 3413 
Q 3000 3413 3387 2928 
Q 3775 2444 3775 1663 
Q 3775 881 3387 395 
Q 3000 -91 2388 -91 
Q 2003 -91 1742 57 
Q 1481 206 1313 519 
L 1313 0 
L 184 0 
L 184 331 
L 738 331 
z
M 1313 1497 
Q 1313 897 1542 583 
Q 1772 269 2209 269 
Q 2650 269 2876 622 
Q 3103 975 3103 1663 
Q 3103 2353 2876 2703 
Q 2650 3053 2209 3053 
Q 1772 3053 1542 2737 
Q 1313 2422 1313 1825 
L 1313 1497 
z
" transform="scale(0.015625)"/>
       <path id="DejaVuSerif-69" d="M 622 4353 
Q 622 4497 726 4603 
Q 831 4709 978 4709 
Q 1122 4709 1226 4603 
Q 1331 4497 1331 4353 
Q 1331 4206 1228 4103 
Q 1125 4000 978 4000 
Q 831 4000 726 4103 
Q 622 4206 622 4353 
z
M 1356 331 
L 1900 331 
L 1900 0 
L 231 0 
L 231 331 
L 781 331 
L 781 2988 
L 231 2988 
L 231 3322 
L 1356 3322 
L 1356 331 
z
" transform="scale(0.015625)"/>
       <path id="DejaVuSerif-6c" d="M 1313 331 
L 1856 331 
L 1856 0 
L 184 0 
L 184 331 
L 738 331 
L 738 4531 
L 184 4531 
L 184 4863 
L 1313 4863 
L 1313 331 
z
" transform="scale(0.015625)"/>
       <path id="DejaVuSerif-79" d="M 1381 -609 
L 1600 -56 
L 359 2988 
L -19 2988 
L -19 3322 
L 1509 3322 
L 1509 2988 
L 978 2988 
L 1913 703 
L 2847 2988 
L 2350 2988 
L 2350 3322 
L 3597 3322 
L 3597 2988 
L 3225 2988 
L 1703 -750 
Q 1547 -1138 1356 -1280 
Q 1166 -1422 819 -1422 
Q 672 -1422 517 -1397 
Q 363 -1372 206 -1325 
L 206 -691 
L 500 -691 
Q 519 -903 608 -995 
Q 697 -1088 884 -1088 
Q 1056 -1088 1161 -992 
Q 1266 -897 1381 -609 
z
" transform="scale(0.015625)"/>
       <path id="DejaVuSerif-44" d="M 1581 331 
L 2163 331 
Q 3072 331 3558 850 
Q 4044 1369 4044 2338 
Q 4044 3306 3559 3818 
Q 3075 4331 2163 4331 
L 1581 4331 
L 1581 331 
z
M 353 0 
L 353 331 
L 947 331 
L 947 4331 
L 353 4331 
L 353 4666 
L 2209 4666 
Q 3416 4666 4089 4050 
Q 4763 3434 4763 2338 
Q 4763 1238 4088 619 
Q 3413 0 2209 0 
L 353 0 
z
" transform="scale(0.015625)"/>
       <path id="DejaVuSerif-6e" d="M 263 0 
L 263 331 
L 781 331 
L 781 2988 
L 231 2988 
L 231 3322 
L 1356 3322 
L 1356 2731 
Q 1516 3069 1770 3241 
Q 2025 3413 2363 3413 
Q 2913 3413 3172 3097 
Q 3431 2781 3431 2113 
L 3431 331 
L 3944 331 
L 3944 0 
L 2356 0 
L 2356 331 
L 2853 331 
L 2853 1931 
Q 2853 2541 2703 2767 
Q 2553 2994 2175 2994 
Q 1775 2994 1565 2701 
Q 1356 2409 1356 1850 
L 1356 331 
L 1856 331 
L 1856 0 
L 263 0 
z
" transform="scale(0.015625)"/>
      </defs>
      <use xlink:href="#DejaVuSerif-50"/>
      <use xlink:href="#DejaVuSerif-72" x="67.285156"/>
      <use xlink:href="#DejaVuSerif-6f" x="115.087891"/>
      <use xlink:href="#DejaVuSerif-62" x="175.292969"/>
      <use xlink:href="#DejaVuSerif-61" x="239.306641"/>
      <use xlink:href="#DejaVuSerif-62" x="298.925781"/>
      <use xlink:href="#DejaVuSerif-69" x="362.939453"/>
      <use xlink:href="#DejaVuSerif-6c" x="394.921875"/>
      <use xlink:href="#DejaVuSerif-69" x="426.904297"/>
      <use xlink:href="#DejaVuSerif-74" x="458.886719"/>
      <use xlink:href="#DejaVuSerif-79" x="499.072266"/>
      <use xlink:href="#DejaVuSerif-20" x="555.566406"/>
      <use xlink:href="#DejaVuSerif-44" x="587.353516"/>
      <use xlink:href="#DejaVuSerif-65" x="667.529297"/>
      <use xlink:href="#DejaVuSerif-6e" x="726.708984"/>
      <use xlink:href="#DejaVuSerif-73" x="791.113281"/>
      <use xlink:href="#DejaVuSerif-69" x="842.431641"/>
      <use xlink:href="#DejaVuSerif-74" x="874.414062"/>
      <use xlink:href="#DejaVuSerif-79" x="914.599609"/>
     </g>
    </g>
   </g>
   <g id="line2d_9">
    <path d="M 133.520359 238.099245 
L 135.837554 237.27388 
L 138.026017 236.255584 
L 139.957013 235.121003 
L 141.888009 233.721745 
L 143.690272 232.136597 
L 145.492536 230.240851 
L 147.166066 228.165441 
L 148.839596 225.750796 
L 150.513126 222.961684 
L 152.315389 219.499547 
L 154.117652 215.521891 
L 155.919916 210.991539 
L 157.722179 205.877109 
L 159.653175 199.722627 
L 161.712904 192.371063 
L 163.901367 183.671247 
L 166.218562 173.495984 
L 168.793224 161.124823 
L 171.754085 145.742346 
L 175.873544 123.028931 
L 181.666533 91.183434 
L 184.369928 77.610665 
L 186.55839 67.74567 
L 188.360653 60.586232 
L 189.90545 55.257817 
L 191.321514 51.10008 
L 192.608845 47.969154 
L 193.767443 45.708127 
L 194.797308 44.157728 
L 195.698439 43.164686 
L 196.470838 42.587846 
L 197.243236 42.26665 
L 198.015635 42.202348 
L 198.788033 42.395191 
L 199.560432 42.844427 
L 200.33283 43.548311 
L 201.233962 44.687656 
L 202.263827 46.401802 
L 203.422424 48.841331 
L 204.709755 52.161765 
L 206.125819 56.515075 
L 207.670616 62.038926 
L 209.47288 69.399607 
L 211.532609 78.844228 
L 213.978538 91.183434 
L 217.325598 109.347762 
L 225.564515 154.570086 
L 228.396643 168.67426 
L 230.971305 180.386757 
L 233.288501 189.906627 
L 235.476963 197.961217 
L 237.536692 204.702734 
L 239.467689 210.29731 
L 241.398685 215.217033 
L 243.200948 219.232992 
L 245.003211 222.730625 
L 246.805475 225.750796 
L 248.607738 228.336683 
L 250.410001 230.532273 
L 252.212264 232.3811 
L 254.014527 233.925213 
L 255.945524 235.286619 
L 258.005253 236.454482 
L 260.193716 237.427988 
L 262.124712 238.099245 
L 262.124712 238.099245 
" clip-path="url(#pd8b28be15a)" style="fill: none; stroke: #28a745; stroke-width: 2; stroke-linecap: square"/>
   </g>
   <g id="patch_3">
    <path d="M 54 240.3 
L 54 32.4 
" style="fill: none; stroke: #030303; stroke-width: 1.5; stroke-linejoin: miter; stroke-linecap: square"/>
   </g>
   <g id="patch_4">
    <path d="M 54 240.3 
L 388.8 240.3 
" style="fill: none; stroke: #030303; stroke-width: 1.5; stroke-linejoin: miter; stroke-linecap: square"/>
   </g>
  </g>
  <g id="axes_2">
   <g id="patch_5">
    <path d="M 219.256594 236.351536 
Q 219.256594 180.222823 219.256594 124.094109 
" clip-path="url(#pd8b28be15a)" style="fill: none; stroke: #000000; stroke-width: 1.5; stroke-linecap: round"/>
    <path d="M 221.756594 230.351536 
L 219.256594 236.351536 
L 216.756594 230.351536 
z
" clip-path="url(#pd8b28be15a)" style="stroke: #000000; stroke-width: 1.5; stroke-linecap: round"/>
    <path d="M 216.756594 130.094109 
L 219.256594 124.094109 
L 221.756594 130.094109 
z
" clip-path="url(#pd8b28be15a)" style="stroke: #000000; stroke-width: 1.5; stroke-linecap: round"/>
   </g>
   <g id="matplotlib.axis_3"/>
   <g id="line2d_10">
    <path d="M 69.218182 238.591984 
L 75.616216 237.864002 
L 81.404914 236.985724 
L 86.584275 235.981189 
L 91.458968 234.810224 
L 96.028993 233.481462 
L 100.294349 232.01181 
L 104.255037 230.425849 
L 108.215725 228.605941 
L 112.176413 226.532462 
L 115.832432 224.377579 
L 119.488452 221.978196 
L 123.144472 219.323468 
L 126.800491 216.405085 
L 130.456511 213.217819 
L 134.417199 209.459757 
L 138.377887 205.387781 
L 142.643243 200.662982 
L 146.9086 195.607085 
L 151.783292 189.464334 
L 157.267322 182.166288 
L 164.274693 172.428403 
L 178.898771 151.971992 
L 183.773464 145.581342 
L 188.038821 140.350321 
L 191.69484 136.208401 
L 195.046192 132.739365 
L 198.092875 129.892861 
L 200.834889 127.605146 
L 203.576904 125.596391 
L 206.318919 123.88307 
L 208.756265 122.619677 
L 211.193612 121.609324 
L 213.630958 120.858736 
L 215.763636 120.419048 
L 217.896314 120.184371 
L 220.028993 120.155913 
L 222.161671 120.333821 
L 224.294349 120.717178 
L 226.427027 121.304013 
L 228.864373 122.219932 
L 231.30172 123.391548 
L 233.739066 124.811094 
L 236.176413 126.469234 
L 238.918428 128.606322 
L 241.660442 131.014236 
L 244.707125 133.983734 
L 248.058477 137.574102 
L 251.714496 141.830535 
L 255.979853 147.17043 
L 260.854545 153.652033 
L 267.557248 162.976238 
L 282.181327 183.435745 
L 287.665356 190.67073 
L 292.540049 196.742829 
L 297.110074 202.071965 
L 301.37543 206.696049 
L 305.336118 210.670482 
L 309.296806 214.329261 
L 313.257494 217.670782 
L 316.913514 220.476934 
L 320.569533 223.022597 
L 324.225553 225.317219 
L 328.186241 227.533444 
L 332.146929 229.486145 
L 336.107617 231.19431 
L 340.372973 232.783385 
L 344.638329 234.137656 
L 349.208354 235.356966 
L 354.083047 236.426712 
L 359.262408 237.340125 
L 365.051106 238.134716 
L 371.44914 238.789683 
L 373.581818 238.965169 
L 373.581818 238.965169 
" clip-path="url(#pd8b28be15a)" style="fill: none; stroke: #131313; stroke-width: 1.5; stroke-linecap: square"/>
   </g>
   <g id="patch_6">
    <path d="M 54 240.3 
L 388.8 240.3 
" style="fill: none; stroke: #030303; stroke-width: 1.5; stroke-linejoin: miter; stroke-linecap: square"/>
   </g>
  </g>
  <g id="axes_3">
   <g id="PolyCollection_1">
    <defs>
     <path id="m1419e53174" d="M 200.895786 -29.7 
L 200.895786 -47.47656 
L 200.952194 -47.686189 
L 201.008602 -47.897633 
L 201.06501 -48.110899 
L 201.121418 -48.325993 
L 201.177826 -48.542919 
L 201.234234 -48.761685 
L 201.290642 -48.982294 
L 201.34705 -49.204754 
L 201.403458 -49.429068 
L 201.459866 -49.655242 
L 201.516274 -49.883281 
L 201.572682 -50.113189 
L 201.62909 -50.344972 
L 201.685498 -50.578633 
L 201.741906 -50.814177 
L 201.798314 -51.051608 
L 201.854722 -51.290931 
L 201.91113 -51.532148 
L 201.967538 -51.775264 
L 202.023946 -52.020282 
L 202.080354 -52.267205 
L 202.136762 -52.516037 
L 202.19317 -52.766781 
L 202.249578 -53.019439 
L 202.305986 -53.274014 
L 202.362394 -53.530509 
L 202.418802 -53.788925 
L 202.47521 -54.049265 
L 202.531618 -54.311532 
L 202.588026 -54.575725 
L 202.644434 -54.841848 
L 202.700843 -55.109901 
L 202.757251 -55.379886 
L 202.813659 -55.651803 
L 202.870067 -55.925654 
L 202.926475 -56.201438 
L 202.982883 -56.479156 
L 203.039291 -56.758809 
L 203.095699 -57.040395 
L 203.152107 -57.323916 
L 203.208515 -57.60937 
L 203.264923 -57.896756 
L 203.321331 -58.186074 
L 203.377739 -58.477323 
L 203.434147 -58.770501 
L 203.490555 -59.065606 
L 203.546963 -59.362637 
L 203.603371 -59.661592 
L 203.659779 -59.962468 
L 203.716187 -60.265263 
L 203.772595 -60.569974 
L 203.829003 -60.876598 
L 203.885411 -61.185133 
L 203.941819 -61.495573 
L 203.998227 -61.807916 
L 204.054635 -62.122158 
L 204.111043 -62.438294 
L 204.167451 -62.756321 
L 204.223859 -63.076233 
L 204.280267 -63.398025 
L 204.336675 -63.721693 
L 204.393083 -64.04723 
L 204.449491 -64.374632 
L 204.505899 -64.703891 
L 204.562307 -65.035003 
L 204.618715 -65.36796 
L 204.675123 -65.702755 
L 204.731531 -66.039383 
L 204.787939 -66.377835 
L 204.844347 -66.718103 
L 204.900755 -67.060181 
L 204.957163 -67.40406 
L 205.013571 -67.749731 
L 205.069979 -68.097187 
L 205.126387 -68.446417 
L 205.182795 -68.797414 
L 205.239203 -69.150167 
L 205.295611 -69.504666 
L 205.352019 -69.860903 
L 205.408427 -70.218866 
L 205.464835 -70.578546 
L 205.521243 -70.93993 
L 205.577651 -71.303009 
L 205.634059 -71.66777 
L 205.690467 -72.034202 
L 205.746875 -72.402293 
L 205.803283 -72.772031 
L 205.859691 -73.143403 
L 205.916099 -73.516397 
L 205.972507 -73.890999 
L 206.028915 -74.267196 
L 206.085323 -74.644974 
L 206.141731 -75.02432 
L 206.198139 -75.405218 
L 206.254547 -75.787655 
L 206.310955 -76.171616 
L 206.367363 -76.557085 
L 206.423771 -76.944048 
L 206.480179 -77.332487 
L 206.536587 -77.722389 
L 206.592995 -78.113735 
L 206.649403 -78.50651 
L 206.705811 -78.900697 
L 206.762219 -79.296278 
L 206.818627 -79.693237 
L 206.875035 -80.091555 
L 206.931443 -80.491214 
L 206.987851 -80.892196 
L 207.044259 -81.294483 
L 207.100667 -81.698056 
L 207.157075 -82.102895 
L 207.213483 -82.508981 
L 207.269891 -82.916294 
L 207.3263 -83.324814 
L 207.382708 -83.734521 
L 207.439116 -84.145395 
L 207.495524 -84.557414 
L 207.551932 -84.970557 
L 207.60834 -85.384803 
L 207.664748 -85.800129 
L 207.721156 -86.216515 
L 207.777564 -86.633938 
L 207.833972 -87.052375 
L 207.89038 -87.471803 
L 207.946788 -87.892199 
L 208.003196 -88.31354 
L 208.059604 -88.735802 
L 208.116012 -89.158962 
L 208.17242 -89.582994 
L 208.228828 -90.007875 
L 208.285236 -90.43358 
L 208.341644 -90.860083 
L 208.398052 -91.28736 
L 208.45446 -91.715385 
L 208.510868 -92.144133 
L 208.567276 -92.573576 
L 208.623684 -93.003689 
L 208.680092 -93.434446 
L 208.7365 -93.865819 
L 208.792908 -94.297781 
L 208.849316 -94.730306 
L 208.905724 -95.163365 
L 208.962132 -95.596931 
L 209.01854 -96.030975 
L 209.074948 -96.465471 
L 209.131356 -96.900388 
L 209.187764 -97.335698 
L 209.244172 -97.771373 
L 209.30058 -98.207383 
L 209.356988 -98.643699 
L 209.413396 -99.080291 
L 209.469804 -99.517129 
L 209.526212 -99.954183 
L 209.58262 -100.391424 
L 209.639028 -100.828819 
L 209.695436 -101.26634 
L 209.751844 -101.703954 
L 209.808252 -102.141631 
L 209.86466 -102.57934 
L 209.921068 -103.017048 
L 209.977476 -103.454725 
L 210.033884 -103.892338 
L 210.090292 -104.329856 
L 210.1467 -104.767246 
L 210.203108 -105.204475 
L 210.259516 -105.641512 
L 210.315924 -106.078323 
L 210.372332 -106.514876 
L 210.42874 -106.951138 
L 210.485148 -107.387075 
L 210.541556 -107.822653 
L 210.597964 -108.257841 
L 210.654372 -108.692602 
L 210.71078 -109.126905 
L 210.767188 -109.560715 
L 210.823596 -109.993998 
L 210.880004 -110.42672 
L 210.936412 -110.858845 
L 210.99282 -111.290341 
L 211.049228 -111.721173 
L 211.105636 -112.151305 
L 211.162044 -112.580703 
L 211.218452 -113.009332 
L 211.27486 -113.437157 
L 211.331268 -113.864143 
L 211.387676 -114.290255 
L 211.444084 -114.715457 
L 211.500492 -115.139715 
L 211.5569 -115.562993 
L 211.613308 -115.985255 
L 211.669716 -116.406466 
L 211.726124 -116.826591 
L 211.782532 -117.245593 
L 211.83894 -117.663437 
L 211.895349 -118.080087 
L 211.951757 -118.495507 
L 212.008165 -118.909662 
L 212.064573 -119.322516 
L 212.120981 -119.734033 
L 212.177389 -120.144177 
L 212.233797 -120.552912 
L 212.290205 -120.960202 
L 212.346613 -121.366011 
L 212.403021 -121.770303 
L 212.459429 -122.173043 
L 212.515837 -122.574194 
L 212.572245 -122.973721 
L 212.628653 -123.371588 
L 212.685061 -123.767758 
L 212.741469 -124.162197 
L 212.797877 -124.554868 
L 212.854285 -124.945735 
L 212.910693 -125.334763 
L 212.967101 -125.721916 
L 213.023509 -126.107159 
L 213.079917 -126.490456 
L 213.136325 -126.871772 
L 213.192733 -127.251071 
L 213.249141 -127.628317 
L 213.305549 -128.003477 
L 213.361957 -128.376515 
L 213.418365 -128.747395 
L 213.474773 -129.116083 
L 213.531181 -129.482543 
L 213.587589 -129.846743 
L 213.643997 -130.208645 
L 213.700405 -130.568217 
L 213.756813 -130.925424 
L 213.813221 -131.280232 
L 213.869629 -131.632606 
L 213.926037 -131.982513 
L 213.982445 -132.329919 
L 214.038853 -132.67479 
L 214.095261 -133.017094 
L 214.151669 -133.356796 
L 214.208077 -133.693863 
L 214.264485 -134.028263 
L 214.320893 -134.359963 
L 214.377301 -134.688931 
L 214.433709 -135.015133 
L 214.490117 -135.338539 
L 214.546525 -135.659115 
L 214.602933 -135.97683 
L 214.659341 -136.291653 
L 214.715749 -136.603553 
L 214.772157 -136.912497 
L 214.828565 -137.218456 
L 214.884973 -137.521399 
L 214.941381 -137.821294 
L 214.997789 -138.118113 
L 215.054197 -138.411826 
L 215.110605 -138.702402 
L 215.167013 -138.989812 
L 215.223421 -139.274028 
L 215.279829 -139.55502 
L 215.336237 -139.832759 
L 215.392645 -140.107218 
L 215.449053 -140.378369 
L 215.505461 -140.646184 
L 215.561869 -140.910634 
L 215.618277 -141.171694 
L 215.674685 -141.429337 
L 215.731093 -141.683535 
L 215.787501 -141.934264 
L 215.843909 -142.181496 
L 215.900317 -142.425206 
L 215.956725 -142.665369 
L 216.013133 -142.901961 
L 216.069541 -143.134956 
L 216.125949 -143.36433 
L 216.182357 -143.59006 
L 216.238765 -143.812122 
L 216.295173 -144.030493 
L 216.351581 -144.24515 
L 216.407989 -144.45607 
L 216.464398 -144.663231 
L 216.520806 -144.866612 
L 216.577214 -145.066192 
L 216.633622 -145.261948 
L 216.69003 -145.453861 
L 216.746438 -145.641911 
L 216.802846 -145.826077 
L 216.859254 -146.00634 
L 216.915662 -146.182681 
L 216.97207 -146.355081 
L 217.028478 -146.523522 
L 217.084886 -146.687986 
L 217.141294 -146.848457 
L 217.197702 -147.004915 
L 217.25411 -147.157346 
L 217.310518 -147.305732 
L 217.366926 -147.450058 
L 217.423334 -147.590309 
L 217.479742 -147.726469 
L 217.53615 -147.858525 
L 217.592558 -147.986461 
L 217.648966 -148.110264 
L 217.705374 -148.229921 
L 217.761782 -148.345419 
L 217.81819 -148.456746 
L 217.874598 -148.563889 
L 217.931006 -148.666838 
L 217.987414 -148.765581 
L 218.043822 -148.860107 
L 218.10023 -148.950407 
L 218.156638 -149.03647 
L 218.213046 -149.118288 
L 218.269454 -149.195851 
L 218.325862 -149.269151 
L 218.38227 -149.338181 
L 218.438678 -149.402932 
L 218.495086 -149.463399 
L 218.551494 -149.519574 
L 218.607902 -149.571451 
L 218.66431 -149.619024 
L 218.720718 -149.662289 
L 218.777126 -149.701241 
L 218.833534 -149.735876 
L 218.889942 -149.766189 
L 218.94635 -149.792178 
L 219.002758 -149.81384 
L 219.059166 -149.831172 
L 219.115574 -149.844173 
L 219.171982 -149.852841 
L 219.22839 -149.857176 
L 219.284798 -149.857176 
L 219.341206 -149.852841 
L 219.397614 -149.844173 
L 219.454022 -149.831172 
L 219.51043 -149.81384 
L 219.566838 -149.792178 
L 219.623246 -149.766189 
L 219.679654 -149.735876 
L 219.736062 -149.701241 
L 219.79247 -149.662289 
L 219.848878 -149.619024 
L 219.905286 -149.571451 
L 219.961694 -149.519574 
L 220.018102 -149.463399 
L 220.07451 -149.402932 
L 220.130918 -149.338181 
L 220.187326 -149.269151 
L 220.243734 -149.195851 
L 220.300142 -149.118288 
L 220.35655 -149.03647 
L 220.412958 -148.950407 
L 220.469366 -148.860107 
L 220.525774 -148.765581 
L 220.582182 -148.666838 
L 220.63859 -148.563889 
L 220.694998 -148.456746 
L 220.751406 -148.345419 
L 220.807814 -148.229921 
L 220.864222 -148.110264 
L 220.92063 -147.986461 
L 220.977038 -147.858525 
L 221.033446 -147.726469 
L 221.089855 -147.590309 
L 221.146263 -147.450058 
L 221.202671 -147.305732 
L 221.259079 -147.157346 
L 221.315487 -147.004915 
L 221.371895 -146.848457 
L 221.428303 -146.687986 
L 221.484711 -146.523522 
L 221.541119 -146.355081 
L 221.597527 -146.182681 
L 221.653935 -146.00634 
L 221.710343 -145.826077 
L 221.766751 -145.641911 
L 221.823159 -145.453861 
L 221.879567 -145.261948 
L 221.935975 -145.066192 
L 221.992383 -144.866612 
L 222.048791 -144.663231 
L 222.105199 -144.45607 
L 222.161607 -144.24515 
L 222.218015 -144.030493 
L 222.274423 -143.812122 
L 222.330831 -143.59006 
L 222.387239 -143.36433 
L 222.443647 -143.134956 
L 222.500055 -142.901961 
L 222.556463 -142.665369 
L 222.612871 -142.425206 
L 222.669279 -142.181496 
L 222.725687 -141.934264 
L 222.782095 -141.683535 
L 222.838503 -141.429337 
L 222.894911 -141.171694 
L 222.951319 -140.910634 
L 223.007727 -140.646184 
L 223.064135 -140.378369 
L 223.120543 -140.107218 
L 223.176951 -139.832759 
L 223.233359 -139.55502 
L 223.289767 -139.274028 
L 223.346175 -138.989812 
L 223.402583 -138.702402 
L 223.458991 -138.411826 
L 223.515399 -138.118113 
L 223.571807 -137.821294 
L 223.628215 -137.521399 
L 223.684623 -137.218456 
L 223.741031 -136.912497 
L 223.797439 -136.603553 
L 223.853847 -136.291653 
L 223.910255 -135.97683 
L 223.966663 -135.659115 
L 224.023071 -135.338539 
L 224.079479 -135.015133 
L 224.135887 -134.688931 
L 224.192295 -134.359963 
L 224.248703 -134.028263 
L 224.305111 -133.693863 
L 224.361519 -133.356796 
L 224.417927 -133.017094 
L 224.474335 -132.67479 
L 224.530743 -132.329919 
L 224.587151 -131.982513 
L 224.643559 -131.632606 
L 224.699967 -131.280232 
L 224.756375 -130.925424 
L 224.812783 -130.568217 
L 224.869191 -130.208645 
L 224.925599 -129.846743 
L 224.982007 -129.482543 
L 225.038415 -129.116083 
L 225.094823 -128.747395 
L 225.151231 -128.376515 
L 225.207639 -128.003477 
L 225.264047 -127.628317 
L 225.320455 -127.251071 
L 225.376863 -126.871772 
L 225.433271 -126.490456 
L 225.489679 -126.107159 
L 225.546087 -125.721916 
L 225.602495 -125.334763 
L 225.658904 -124.945735 
L 225.715312 -124.554868 
L 225.77172 -124.162197 
L 225.828128 -123.767758 
L 225.884536 -123.371588 
L 225.940944 -122.973721 
L 225.997352 -122.574194 
L 226.05376 -122.173043 
L 226.110168 -121.770303 
L 226.166576 -121.366011 
L 226.222984 -120.960202 
L 226.279392 -120.552912 
L 226.3358 -120.144177 
L 226.392208 -119.734033 
L 226.448616 -119.322516 
L 226.505024 -118.909662 
L 226.561432 -118.495507 
L 226.61784 -118.080087 
L 226.674248 -117.663437 
L 226.730656 -117.245593 
L 226.787064 -116.826591 
L 226.843472 -116.406466 
L 226.89988 -115.985255 
L 226.956288 -115.562993 
L 227.012696 -115.139715 
L 227.069104 -114.715457 
L 227.125512 -114.290255 
L 227.18192 -113.864143 
L 227.238328 -113.437157 
L 227.294736 -113.009332 
L 227.351144 -112.580703 
L 227.407552 -112.151305 
L 227.46396 -111.721173 
L 227.520368 -111.290341 
L 227.576776 -110.858845 
L 227.633184 -110.42672 
L 227.689592 -109.993998 
L 227.746 -109.560715 
L 227.802408 -109.126905 
L 227.858816 -108.692602 
L 227.915224 -108.257841 
L 227.971632 -107.822653 
L 228.02804 -107.387075 
L 228.084448 -106.951138 
L 228.140856 -106.514876 
L 228.197264 -106.078323 
L 228.253672 -105.641512 
L 228.31008 -105.204475 
L 228.366488 -104.767246 
L 228.422896 -104.329856 
L 228.479304 -103.892338 
L 228.535712 -103.454725 
L 228.59212 -103.017048 
L 228.648528 -102.57934 
L 228.704936 -102.141631 
L 228.761344 -101.703954 
L 228.817752 -101.26634 
L 228.87416 -100.828819 
L 228.930568 -100.391424 
L 228.986976 -99.954183 
L 229.043384 -99.517129 
L 229.099792 -99.080291 
L 229.1562 -98.643699 
L 229.212608 -98.207383 
L 229.269016 -97.771373 
L 229.325424 -97.335698 
L 229.381832 -96.900388 
L 229.43824 -96.465471 
L 229.494648 -96.030975 
L 229.551056 -95.596931 
L 229.607464 -95.163365 
L 229.663872 -94.730306 
L 229.72028 -94.297781 
L 229.776688 -93.865819 
L 229.833096 -93.434446 
L 229.889504 -93.003689 
L 229.945912 -92.573576 
L 230.00232 -92.144133 
L 230.058728 -91.715385 
L 230.115136 -91.28736 
L 230.171544 -90.860083 
L 230.227953 -90.43358 
L 230.284361 -90.007875 
L 230.340769 -89.582994 
L 230.397177 -89.158962 
L 230.453585 -88.735802 
L 230.509993 -88.31354 
L 230.566401 -87.892199 
L 230.622809 -87.471803 
L 230.679217 -87.052375 
L 230.735625 -86.633938 
L 230.792033 -86.216515 
L 230.848441 -85.800129 
L 230.904849 -85.384803 
L 230.961257 -84.970557 
L 231.017665 -84.557414 
L 231.074073 -84.145395 
L 231.130481 -83.734521 
L 231.186889 -83.324814 
L 231.243297 -82.916294 
L 231.299705 -82.508981 
L 231.356113 -82.102895 
L 231.412521 -81.698056 
L 231.468929 -81.294483 
L 231.525337 -80.892196 
L 231.581745 -80.491214 
L 231.638153 -80.091555 
L 231.694561 -79.693237 
L 231.750969 -79.296278 
L 231.807377 -78.900697 
L 231.863785 -78.50651 
L 231.920193 -78.113735 
L 231.976601 -77.722389 
L 232.033009 -77.332487 
L 232.089417 -76.944048 
L 232.145825 -76.557085 
L 232.202233 -76.171616 
L 232.258641 -75.787655 
L 232.315049 -75.405218 
L 232.371457 -75.02432 
L 232.427865 -74.644974 
L 232.484273 -74.267196 
L 232.540681 -73.890999 
L 232.597089 -73.516397 
L 232.653497 -73.143403 
L 232.709905 -72.772031 
L 232.766313 -72.402293 
L 232.822721 -72.034202 
L 232.879129 -71.66777 
L 232.935537 -71.303009 
L 232.991945 -70.93993 
L 233.048353 -70.578546 
L 233.104761 -70.218866 
L 233.161169 -69.860903 
L 233.217577 -69.504666 
L 233.273985 -69.150167 
L 233.330393 -68.797414 
L 233.386801 -68.446417 
L 233.443209 -68.097187 
L 233.499617 -67.749731 
L 233.556025 -67.40406 
L 233.612433 -67.060181 
L 233.668841 -66.718103 
L 233.725249 -66.377835 
L 233.781657 -66.039383 
L 233.838065 -65.702755 
L 233.894473 -65.36796 
L 233.950881 -65.035003 
L 234.007289 -64.703891 
L 234.063697 -64.374632 
L 234.120105 -64.04723 
L 234.176513 -63.721693 
L 234.232921 -63.398025 
L 234.289329 -63.076233 
L 234.345737 -62.756321 
L 234.402145 -62.438294 
L 234.458553 -62.122158 
L 234.514961 -61.807916 
L 234.571369 -61.495573 
L 234.627777 -61.185133 
L 234.684185 -60.876598 
L 234.740593 -60.569974 
L 234.797001 -60.265263 
L 234.85341 -59.962468 
L 234.909818 -59.661592 
L 234.966226 -59.362637 
L 235.022634 -59.065606 
L 235.079042 -58.770501 
L 235.13545 -58.477323 
L 235.191858 -58.186074 
L 235.248266 -57.896756 
L 235.304674 -57.60937 
L 235.361082 -57.323916 
L 235.41749 -57.040395 
L 235.473898 -56.758809 
L 235.530306 -56.479156 
L 235.586714 -56.201438 
L 235.643122 -55.925654 
L 235.69953 -55.651803 
L 235.755938 -55.379886 
L 235.812346 -55.109901 
L 235.868754 -54.841848 
L 235.925162 -54.575725 
L 235.98157 -54.311532 
L 236.037978 -54.049265 
L 236.094386 -53.788925 
L 236.150794 -53.530509 
L 236.207202 -53.274014 
L 236.26361 -53.019439 
L 236.320018 -52.766781 
L 236.376426 -52.516037 
L 236.432834 -52.267205 
L 236.489242 -52.020282 
L 236.54565 -51.775264 
L 236.602058 -51.532148 
L 236.658466 -51.290931 
L 236.714874 -51.051608 
L 236.771282 -50.814177 
L 236.82769 -50.578633 
L 236.884098 -50.344972 
L 236.940506 -50.113189 
L 236.996914 -49.883281 
L 237.053322 -49.655242 
L 237.10973 -49.429068 
L 237.166138 -49.204754 
L 237.222546 -48.982294 
L 237.278954 -48.761685 
L 237.335362 -48.542919 
L 237.39177 -48.325993 
L 237.448178 -48.110899 
L 237.504586 -47.897633 
L 237.560994 -47.686189 
L 237.617402 -47.47656 
L 237.617402 -29.7 
L 237.617402 -29.7 
L 237.560994 -29.7 
L 237.504586 -29.7 
L 237.448178 -29.7 
L 237.39177 -29.7 
L 237.335362 -29.7 
L 237.278954 -29.7 
L 237.222546 -29.7 
L 237.166138 -29.7 
L 237.10973 -29.7 
L 237.053322 -29.7 
L 236.996914 -29.7 
L 236.940506 -29.7 
L 236.884098 -29.7 
L 236.82769 -29.7 
L 236.771282 -29.7 
L 236.714874 -29.7 
L 236.658466 -29.7 
L 236.602058 -29.7 
L 236.54565 -29.7 
L 236.489242 -29.7 
L 236.432834 -29.7 
L 236.376426 -29.7 
L 236.320018 -29.7 
L 236.26361 -29.7 
L 236.207202 -29.7 
L 236.150794 -29.7 
L 236.094386 -29.7 
L 236.037978 -29.7 
L 235.98157 -29.7 
L 235.925162 -29.7 
L 235.868754 -29.7 
L 235.812346 -29.7 
L 235.755938 -29.7 
L 235.69953 -29.7 
L 235.643122 -29.7 
L 235.586714 -29.7 
L 235.530306 -29.7 
L 235.473898 -29.7 
L 235.41749 -29.7 
L 235.361082 -29.7 
L 235.304674 -29.7 
L 235.248266 -29.7 
L 235.191858 -29.7 
L 235.13545 -29.7 
L 235.079042 -29.7 
L 235.022634 -29.7 
L 234.966226 -29.7 
L 234.909818 -29.7 
L 234.85341 -29.7 
L 234.797001 -29.7 
L 234.740593 -29.7 
L 234.684185 -29.7 
L 234.627777 -29.7 
L 234.571369 -29.7 
L 234.514961 -29.7 
L 234.458553 -29.7 
L 234.402145 -29.7 
L 234.345737 -29.7 
L 234.289329 -29.7 
L 234.232921 -29.7 
L 234.176513 -29.7 
L 234.120105 -29.7 
L 234.063697 -29.7 
L 234.007289 -29.7 
L 233.950881 -29.7 
L 233.894473 -29.7 
L 233.838065 -29.7 
L 233.781657 -29.7 
L 233.725249 -29.7 
L 233.668841 -29.7 
L 233.612433 -29.7 
L 233.556025 -29.7 
L 233.499617 -29.7 
L 233.443209 -29.7 
L 233.386801 -29.7 
L 233.330393 -29.7 
L 233.273985 -29.7 
L 233.217577 -29.7 
L 233.161169 -29.7 
L 233.104761 -29.7 
L 233.048353 -29.7 
L 232.991945 -29.7 
L 232.935537 -29.7 
L 232.879129 -29.7 
L 232.822721 -29.7 
L 232.766313 -29.7 
L 232.709905 -29.7 
L 232.653497 -29.7 
L 232.597089 -29.7 
L 232.540681 -29.7 
L 232.484273 -29.7 
L 232.427865 -29.7 
L 232.371457 -29.7 
L 232.315049 -29.7 
L 232.258641 -29.7 
L 232.202233 -29.7 
L 232.145825 -29.7 
L 232.089417 -29.7 
L 232.033009 -29.7 
L 231.976601 -29.7 
L 231.920193 -29.7 
L 231.863785 -29.7 
L 231.807377 -29.7 
L 231.750969 -29.7 
L 231.694561 -29.7 
L 231.638153 -29.7 
L 231.581745 -29.7 
L 231.525337 -29.7 
L 231.468929 -29.7 
L 231.412521 -29.7 
L 231.356113 -29.7 
L 231.299705 -29.7 
L 231.243297 -29.7 
L 231.186889 -29.7 
L 231.130481 -29.7 
L 231.074073 -29.7 
L 231.017665 -29.7 
L 230.961257 -29.7 
L 230.904849 -29.7 
L 230.848441 -29.7 
L 230.792033 -29.7 
L 230.735625 -29.7 
L 230.679217 -29.7 
L 230.622809 -29.7 
L 230.566401 -29.7 
L 230.509993 -29.7 
L 230.453585 -29.7 
L 230.397177 -29.7 
L 230.340769 -29.7 
L 230.284361 -29.7 
L 230.227953 -29.7 
L 230.171544 -29.7 
L 230.115136 -29.7 
L 230.058728 -29.7 
L 230.00232 -29.7 
L 229.945912 -29.7 
L 229.889504 -29.7 
L 229.833096 -29.7 
L 229.776688 -29.7 
L 229.72028 -29.7 
L 229.663872 -29.7 
L 229.607464 -29.7 
L 229.551056 -29.7 
L 229.494648 -29.7 
L 229.43824 -29.7 
L 229.381832 -29.7 
L 229.325424 -29.7 
L 229.269016 -29.7 
L 229.212608 -29.7 
L 229.1562 -29.7 
L 229.099792 -29.7 
L 229.043384 -29.7 
L 228.986976 -29.7 
L 228.930568 -29.7 
L 228.87416 -29.7 
L 228.817752 -29.7 
L 228.761344 -29.7 
L 228.704936 -29.7 
L 228.648528 -29.7 
L 228.59212 -29.7 
L 228.535712 -29.7 
L 228.479304 -29.7 
L 228.422896 -29.7 
L 228.366488 -29.7 
L 228.31008 -29.7 
L 228.253672 -29.7 
L 228.197264 -29.7 
L 228.140856 -29.7 
L 228.084448 -29.7 
L 228.02804 -29.7 
L 227.971632 -29.7 
L 227.915224 -29.7 
L 227.858816 -29.7 
L 227.802408 -29.7 
L 227.746 -29.7 
L 227.689592 -29.7 
L 227.633184 -29.7 
L 227.576776 -29.7 
L 227.520368 -29.7 
L 227.46396 -29.7 
L 227.407552 -29.7 
L 227.351144 -29.7 
L 227.294736 -29.7 
L 227.238328 -29.7 
L 227.18192 -29.7 
L 227.125512 -29.7 
L 227.069104 -29.7 
L 227.012696 -29.7 
L 226.956288 -29.7 
L 226.89988 -29.7 
L 226.843472 -29.7 
L 226.787064 -29.7 
L 226.730656 -29.7 
L 226.674248 -29.7 
L 226.61784 -29.7 
L 226.561432 -29.7 
L 226.505024 -29.7 
L 226.448616 -29.7 
L 226.392208 -29.7 
L 226.3358 -29.7 
L 226.279392 -29.7 
L 226.222984 -29.7 
L 226.166576 -29.7 
L 226.110168 -29.7 
L 226.05376 -29.7 
L 225.997352 -29.7 
L 225.940944 -29.7 
L 225.884536 -29.7 
L 225.828128 -29.7 
L 225.77172 -29.7 
L 225.715312 -29.7 
L 225.658904 -29.7 
L 225.602495 -29.7 
L 225.546087 -29.7 
L 225.489679 -29.7 
L 225.433271 -29.7 
L 225.376863 -29.7 
L 225.320455 -29.7 
L 225.264047 -29.7 
L 225.207639 -29.7 
L 225.151231 -29.7 
L 225.094823 -29.7 
L 225.038415 -29.7 
L 224.982007 -29.7 
L 224.925599 -29.7 
L 224.869191 -29.7 
L 224.812783 -29.7 
L 224.756375 -29.7 
L 224.699967 -29.7 
L 224.643559 -29.7 
L 224.587151 -29.7 
L 224.530743 -29.7 
L 224.474335 -29.7 
L 224.417927 -29.7 
L 224.361519 -29.7 
L 224.305111 -29.7 
L 224.248703 -29.7 
L 224.192295 -29.7 
L 224.135887 -29.7 
L 224.079479 -29.7 
L 224.023071 -29.7 
L 223.966663 -29.7 
L 223.910255 -29.7 
L 223.853847 -29.7 
L 223.797439 -29.7 
L 223.741031 -29.7 
L 223.684623 -29.7 
L 223.628215 -29.7 
L 223.571807 -29.7 
L 223.515399 -29.7 
L 223.458991 -29.7 
L 223.402583 -29.7 
L 223.346175 -29.7 
L 223.289767 -29.7 
L 223.233359 -29.7 
L 223.176951 -29.7 
L 223.120543 -29.7 
L 223.064135 -29.7 
L 223.007727 -29.7 
L 222.951319 -29.7 
L 222.894911 -29.7 
L 222.838503 -29.7 
L 222.782095 -29.7 
L 222.725687 -29.7 
L 222.669279 -29.7 
L 222.612871 -29.7 
L 222.556463 -29.7 
L 222.500055 -29.7 
L 222.443647 -29.7 
L 222.387239 -29.7 
L 222.330831 -29.7 
L 222.274423 -29.7 
L 222.218015 -29.7 
L 222.161607 -29.7 
L 222.105199 -29.7 
L 222.048791 -29.7 
L 221.992383 -29.7 
L 221.935975 -29.7 
L 221.879567 -29.7 
L 221.823159 -29.7 
L 221.766751 -29.7 
L 221.710343 -29.7 
L 221.653935 -29.7 
L 221.597527 -29.7 
L 221.541119 -29.7 
L 221.484711 -29.7 
L 221.428303 -29.7 
L 221.371895 -29.7 
L 221.315487 -29.7 
L 221.259079 -29.7 
L 221.202671 -29.7 
L 221.146263 -29.7 
L 221.089855 -29.7 
L 221.033446 -29.7 
L 220.977038 -29.7 
L 220.92063 -29.7 
L 220.864222 -29.7 
L 220.807814 -29.7 
L 220.751406 -29.7 
L 220.694998 -29.7 
L 220.63859 -29.7 
L 220.582182 -29.7 
L 220.525774 -29.7 
L 220.469366 -29.7 
L 220.412958 -29.7 
L 220.35655 -29.7 
L 220.300142 -29.7 
L 220.243734 -29.7 
L 220.187326 -29.7 
L 220.130918 -29.7 
L 220.07451 -29.7 
L 220.018102 -29.7 
L 219.961694 -29.7 
L 219.905286 -29.7 
L 219.848878 -29.7 
L 219.79247 -29.7 
L 219.736062 -29.7 
L 219.679654 -29.7 
L 219.623246 -29.7 
L 219.566838 -29.7 
L 219.51043 -29.7 
L 219.454022 -29.7 
L 219.397614 -29.7 
L 219.341206 -29.7 
L 219.284798 -29.7 
L 219.22839 -29.7 
L 219.171982 -29.7 
L 219.115574 -29.7 
L 219.059166 -29.7 
L 219.002758 -29.7 
L 218.94635 -29.7 
L 218.889942 -29.7 
L 218.833534 -29.7 
L 218.777126 -29.7 
L 218.720718 -29.7 
L 218.66431 -29.7 
L 218.607902 -29.7 
L 218.551494 -29.7 
L 218.495086 -29.7 
L 218.438678 -29.7 
L 218.38227 -29.7 
L 218.325862 -29.7 
L 218.269454 -29.7 
L 218.213046 -29.7 
L 218.156638 -29.7 
L 218.10023 -29.7 
L 218.043822 -29.7 
L 217.987414 -29.7 
L 217.931006 -29.7 
L 217.874598 -29.7 
L 217.81819 -29.7 
L 217.761782 -29.7 
L 217.705374 -29.7 
L 217.648966 -29.7 
L 217.592558 -29.7 
L 217.53615 -29.7 
L 217.479742 -29.7 
L 217.423334 -29.7 
L 217.366926 -29.7 
L 217.310518 -29.7 
L 217.25411 -29.7 
L 217.197702 -29.7 
L 217.141294 -29.7 
L 217.084886 -29.7 
L 217.028478 -29.7 
L 216.97207 -29.7 
L 216.915662 -29.7 
L 216.859254 -29.7 
L 216.802846 -29.7 
L 216.746438 -29.7 
L 216.69003 -29.7 
L 216.633622 -29.7 
L 216.577214 -29.7 
L 216.520806 -29.7 
L 216.464398 -29.7 
L 216.407989 -29.7 
L 216.351581 -29.7 
L 216.295173 -29.7 
L 216.238765 -29.7 
L 216.182357 -29.7 
L 216.125949 -29.7 
L 216.069541 -29.7 
L 216.013133 -29.7 
L 215.956725 -29.7 
L 215.900317 -29.7 
L 215.843909 -29.7 
L 215.787501 -29.7 
L 215.731093 -29.7 
L 215.674685 -29.7 
L 215.618277 -29.7 
L 215.561869 -29.7 
L 215.505461 -29.7 
L 215.449053 -29.7 
L 215.392645 -29.7 
L 215.336237 -29.7 
L 215.279829 -29.7 
L 215.223421 -29.7 
L 215.167013 -29.7 
L 215.110605 -29.7 
L 215.054197 -29.7 
L 214.997789 -29.7 
L 214.941381 -29.7 
L 214.884973 -29.7 
L 214.828565 -29.7 
L 214.772157 -29.7 
L 214.715749 -29.7 
L 214.659341 -29.7 
L 214.602933 -29.7 
L 214.546525 -29.7 
L 214.490117 -29.7 
L 214.433709 -29.7 
L 214.377301 -29.7 
L 214.320893 -29.7 
L 214.264485 -29.7 
L 214.208077 -29.7 
L 214.151669 -29.7 
L 214.095261 -29.7 
L 214.038853 -29.7 
L 213.982445 -29.7 
L 213.926037 -29.7 
L 213.869629 -29.7 
L 213.813221 -29.7 
L 213.756813 -29.7 
L 213.700405 -29.7 
L 213.643997 -29.7 
L 213.587589 -29.7 
L 213.531181 -29.7 
L 213.474773 -29.7 
L 213.418365 -29.7 
L 213.361957 -29.7 
L 213.305549 -29.7 
L 213.249141 -29.7 
L 213.192733 -29.7 
L 213.136325 -29.7 
L 213.079917 -29.7 
L 213.023509 -29.7 
L 212.967101 -29.7 
L 212.910693 -29.7 
L 212.854285 -29.7 
L 212.797877 -29.7 
L 212.741469 -29.7 
L 212.685061 -29.7 
L 212.628653 -29.7 
L 212.572245 -29.7 
L 212.515837 -29.7 
L 212.459429 -29.7 
L 212.403021 -29.7 
L 212.346613 -29.7 
L 212.290205 -29.7 
L 212.233797 -29.7 
L 212.177389 -29.7 
L 212.120981 -29.7 
L 212.064573 -29.7 
L 212.008165 -29.7 
L 211.951757 -29.7 
L 211.895349 -29.7 
L 211.83894 -29.7 
L 211.782532 -29.7 
L 211.726124 -29.7 
L 211.669716 -29.7 
L 211.613308 -29.7 
L 211.5569 -29.7 
L 211.500492 -29.7 
L 211.444084 -29.7 
L 211.387676 -29.7 
L 211.331268 -29.7 
L 211.27486 -29.7 
L 211.218452 -29.7 
L 211.162044 -29.7 
L 211.105636 -29.7 
L 211.049228 -29.7 
L 210.99282 -29.7 
L 210.936412 -29.7 
L 210.880004 -29.7 
L 210.823596 -29.7 
L 210.767188 -29.7 
L 210.71078 -29.7 
L 210.654372 -29.7 
L 210.597964 -29.7 
L 210.541556 -29.7 
L 210.485148 -29.7 
L 210.42874 -29.7 
L 210.372332 -29.7 
L 210.315924 -29.7 
L 210.259516 -29.7 
L 210.203108 -29.7 
L 210.1467 -29.7 
L 210.090292 -29.7 
L 210.033884 -29.7 
L 209.977476 -29.7 
L 209.921068 -29.7 
L 209.86466 -29.7 
L 209.808252 -29.7 
L 209.751844 -29.7 
L 209.695436 -29.7 
L 209.639028 -29.7 
L 209.58262 -29.7 
L 209.526212 -29.7 
L 209.469804 -29.7 
L 209.413396 -29.7 
L 209.356988 -29.7 
L 209.30058 -29.7 
L 209.244172 -29.7 
L 209.187764 -29.7 
L 209.131356 -29.7 
L 209.074948 -29.7 
L 209.01854 -29.7 
L 208.962132 -29.7 
L 208.905724 -29.7 
L 208.849316 -29.7 
L 208.792908 -29.7 
L 208.7365 -29.7 
L 208.680092 -29.7 
L 208.623684 -29.7 
L 208.567276 -29.7 
L 208.510868 -29.7 
L 208.45446 -29.7 
L 208.398052 -29.7 
L 208.341644 -29.7 
L 208.285236 -29.7 
L 208.228828 -29.7 
L 208.17242 -29.7 
L 208.116012 -29.7 
L 208.059604 -29.7 
L 208.003196 -29.7 
L 207.946788 -29.7 
L 207.89038 -29.7 
L 207.833972 -29.7 
L 207.777564 -29.7 
L 207.721156 -29.7 
L 207.664748 -29.7 
L 207.60834 -29.7 
L 207.551932 -29.7 
L 207.495524 -29.7 
L 207.439116 -29.7 
L 207.382708 -29.7 
L 207.3263 -29.7 
L 207.269891 -29.7 
L 207.213483 -29.7 
L 207.157075 -29.7 
L 207.100667 -29.7 
L 207.044259 -29.7 
L 206.987851 -29.7 
L 206.931443 -29.7 
L 206.875035 -29.7 
L 206.818627 -29.7 
L 206.762219 -29.7 
L 206.705811 -29.7 
L 206.649403 -29.7 
L 206.592995 -29.7 
L 206.536587 -29.7 
L 206.480179 -29.7 
L 206.423771 -29.7 
L 206.367363 -29.7 
L 206.310955 -29.7 
L 206.254547 -29.7 
L 206.198139 -29.7 
L 206.141731 -29.7 
L 206.085323 -29.7 
L 206.028915 -29.7 
L 205.972507 -29.7 
L 205.916099 -29.7 
L 205.859691 -29.7 
L 205.803283 -29.7 
L 205.746875 -29.7 
L 205.690467 -29.7 
L 205.634059 -29.7 
L 205.577651 -29.7 
L 205.521243 -29.7 
L 205.464835 -29.7 
L 205.408427 -29.7 
L 205.352019 -29.7 
L 205.295611 -29.7 
L 205.239203 -29.7 
L 205.182795 -29.7 
L 205.126387 -29.7 
L 205.069979 -29.7 
L 205.013571 -29.7 
L 204.957163 -29.7 
L 204.900755 -29.7 
L 204.844347 -29.7 
L 204.787939 -29.7 
L 204.731531 -29.7 
L 204.675123 -29.7 
L 204.618715 -29.7 
L 204.562307 -29.7 
L 204.505899 -29.7 
L 204.449491 -29.7 
L 204.393083 -29.7 
L 204.336675 -29.7 
L 204.280267 -29.7 
L 204.223859 -29.7 
L 204.167451 -29.7 
L 204.111043 -29.7 
L 204.054635 -29.7 
L 203.998227 -29.7 
L 203.941819 -29.7 
L 203.885411 -29.7 
L 203.829003 -29.7 
L 203.772595 -29.7 
L 203.716187 -29.7 
L 203.659779 -29.7 
L 203.603371 -29.7 
L 203.546963 -29.7 
L 203.490555 -29.7 
L 203.434147 -29.7 
L 203.377739 -29.7 
L 203.321331 -29.7 
L 203.264923 -29.7 
L 203.208515 -29.7 
L 203.152107 -29.7 
L 203.095699 -29.7 
L 203.039291 -29.7 
L 202.982883 -29.7 
L 202.926475 -29.7 
L 202.870067 -29.7 
L 202.813659 -29.7 
L 202.757251 -29.7 
L 202.700843 -29.7 
L 202.644434 -29.7 
L 202.588026 -29.7 
L 202.531618 -29.7 
L 202.47521 -29.7 
L 202.418802 -29.7 
L 202.362394 -29.7 
L 202.305986 -29.7 
L 202.249578 -29.7 
L 202.19317 -29.7 
L 202.136762 -29.7 
L 202.080354 -29.7 
L 202.023946 -29.7 
L 201.967538 -29.7 
L 201.91113 -29.7 
L 201.854722 -29.7 
L 201.798314 -29.7 
L 201.741906 -29.7 
L 201.685498 -29.7 
L 201.62909 -29.7 
L 201.572682 -29.7 
L 201.516274 -29.7 
L 201.459866 -29.7 
L 201.403458 -29.7 
L 201.34705 -29.7 
L 201.290642 -29.7 
L 201.234234 -29.7 
L 201.177826 -29.7 
L 201.121418 -29.7 
L 201.06501 -29.7 
L 201.008602 -29.7 
L 200.952194 -29.7 
L 200.895786 -29.7 
z
" style="stroke: #4682b4; stroke-opacity: 0.25"/>
    </defs>
    <g clip-path="url(#pd8b28be15a)">
     <use xlink:href="#m1419e53174" x="0" y="270" style="fill: #4682b4; fill-opacity: 0.25; stroke: #4682b4; stroke-opacity: 0.25"/>
    </g>
   </g>
   <g id="matplotlib.axis_4"/>
   <g id="line2d_11">
    <path d="M 191.080792 238.965168 
L 192.434584 238.264281 
L 193.619153 237.404688 
L 194.747313 236.310069 
L 195.819065 234.960904 
L 196.890817 233.247963 
L 197.962569 231.105966 
L 199.034322 228.468435 
L 200.162482 225.086343 
L 201.34705 220.795246 
L 202.588026 215.424275 
L 203.941819 208.504427 
L 205.408427 199.781134 
L 207.100667 188.301944 
L 209.413396 170.919709 
L 212.910693 144.665237 
L 214.377301 135.311069 
L 215.561869 129.089366 
L 216.520806 125.133388 
L 217.310518 122.694268 
L 217.987414 121.234419 
L 218.551494 120.480426 
L 219.002758 120.18616 
L 219.397614 120.155827 
L 219.79247 120.337711 
L 220.243734 120.804149 
L 220.751406 121.654581 
L 221.371895 123.151543 
L 222.105199 125.54393 
L 222.951319 129.089366 
L 223.966663 134.340885 
L 225.207639 141.996523 
L 226.843472 153.593534 
L 233.330393 201.202586 
L 234.909818 210.338408 
L 236.320018 217.233219 
L 237.617402 222.52344 
L 238.858378 226.689536 
L 240.042947 229.922408 
L 241.227515 232.512258 
L 242.355675 234.462312 
L 243.483835 235.986758 
L 244.668404 237.209344 
L 245.852972 238.120339 
L 247.150356 238.839988 
L 247.432396 238.965168 
L 247.432396 238.965168 
" clip-path="url(#pd8b28be15a)" style="fill: none; stroke: #4682b4; stroke-width: 1.5; stroke-linecap: square"/>
   </g>
   <g id="patch_7">
    <path d="M 54 240.3 
L 388.8 240.3 
" style="fill: none; stroke: #030303; stroke-width: 1.5; stroke-linejoin: miter; stroke-linecap: square"/>
   </g>
  </g>
  <g id="axes_4">
   <g id="PolyCollection_2">
    <defs>
     <path id="mb3ec0f29c5" d="M 190.39524 -29.7 
L 190.39524 -62.471209 
L 190.874421 -70.736284 
L 191.353601 -80.321136 
L 191.832781 -91.215426 
L 192.311962 -103.341816 
L 192.791142 -116.546682 
L 193.270322 -130.595146 
L 193.749503 -145.171713 
L 194.228683 -159.887486 
L 194.707863 -174.294298 
L 195.187044 -187.905432 
L 195.666224 -200.221801 
L 196.145404 -210.761756 
L 196.624584 -219.092091 
L 197.103765 -224.857501 
L 197.582945 -227.805691 
L 198.062125 -227.805691 
L 198.541306 -224.857501 
L 199.020486 -219.092091 
L 199.499666 -210.761756 
L 199.978847 -200.221801 
L 200.458027 -187.905432 
L 200.937207 -174.294298 
L 201.416388 -159.887486 
L 201.895568 -145.171713 
L 202.374748 -130.595146 
L 202.853928 -116.546682 
L 203.333109 -103.341816 
L 203.812289 -91.215426 
L 204.291469 -80.321136 
L 204.77065 -70.736284 
L 205.24983 -62.471209 
L 205.24983 -29.7 
L 205.24983 -29.7 
L 204.77065 -29.7 
L 204.291469 -29.7 
L 203.812289 -29.7 
L 203.333109 -29.7 
L 202.853928 -29.7 
L 202.374748 -29.7 
L 201.895568 -29.7 
L 201.416388 -29.7 
L 200.937207 -29.7 
L 200.458027 -29.7 
L 199.978847 -29.7 
L 199.499666 -29.7 
L 199.020486 -29.7 
L 198.541306 -29.7 
L 198.062125 -29.7 
L 197.582945 -29.7 
L 197.103765 -29.7 
L 196.624584 -29.7 
L 196.145404 -29.7 
L 195.666224 -29.7 
L 195.187044 -29.7 
L 194.707863 -29.7 
L 194.228683 -29.7 
L 193.749503 -29.7 
L 193.270322 -29.7 
L 192.791142 -29.7 
L 192.311962 -29.7 
L 191.832781 -29.7 
L 191.353601 -29.7 
L 190.874421 -29.7 
L 190.39524 -29.7 
z
" style="stroke: #cb4154; stroke-opacity: 0.25"/>
    </defs>
    <g clip-path="url(#pd8b28be15a)">
     <use xlink:href="#mb3ec0f29c5" x="0" y="270" style="fill: #cb4154; fill-opacity: 0.25; stroke: #cb4154; stroke-opacity: 0.25"/>
    </g>
   </g>
   <g id="matplotlib.axis_5"/>
   <g id="line2d_12">
    <path d="M 186.082618 238.095116 
L 186.561798 237.140149 
L 187.040978 235.838963 
L 187.520159 234.095692 
L 187.999339 231.799605 
L 188.478519 228.827101 
L 188.9577 225.045585 
L 189.43688 220.319505 
L 189.91606 214.518677 
L 190.39524 207.528791 
L 190.874421 199.263716 
L 191.353601 189.678864 
L 191.832781 178.784574 
L 192.311962 166.658184 
L 192.791142 153.453318 
L 193.270322 139.404854 
L 193.749503 124.828287 
L 194.228683 110.112514 
L 194.707863 95.705702 
L 195.187044 82.094568 
L 195.666224 69.778199 
L 196.145404 59.238244 
L 196.624584 50.907909 
L 197.103765 45.142499 
L 197.582945 42.194309 
L 198.062125 42.194309 
L 198.541306 45.142499 
L 199.020486 50.907909 
L 199.499666 59.238244 
L 199.978847 69.778199 
L 200.458027 82.094568 
L 200.937207 95.705702 
L 201.416388 110.112514 
L 201.895568 124.828287 
L 202.374748 139.404854 
L 202.853928 153.453318 
L 203.333109 166.658184 
L 203.812289 178.784574 
L 204.291469 189.678864 
L 204.77065 199.263716 
L 205.24983 207.528791 
L 205.72901 214.518677 
L 206.208191 220.319505 
L 206.687371 225.045585 
L 207.166551 228.827101 
L 207.645732 231.799605 
L 208.124912 234.095692 
L 208.604092 235.838963 
L 209.083272 237.140149 
L 209.562453 238.095116 
" clip-path="url(#pd8b28be15a)" style="fill: none; stroke: #cb4154; stroke-width: 1.5; stroke-linecap: square"/>
   </g>
   <g id="patch_8">
    <path d="M 54 240.3 
L 388.8 240.3 
" style="fill: none; stroke: #030303; stroke-width: 1.5; stroke-linejoin: miter; stroke-linecap: square"/>
   </g>
  </g>
  <g id="axes_5">
   <g id="matplotlib.axis_6"/>
   <g id="patch_9">
    <path d="M 54 240.3 
L 388.8 240.3 
" style="fill: none; stroke: #030303; stroke-width: 1.5; stroke-linejoin: miter; stroke-linecap: square"/>
   </g>
   <g id="legend_1">
    <g id="patch_10">
     <path d="M 254.08 86.125 
L 383.2 86.125 
Q 384.8 86.125 384.8 84.525 
L 384.8 38 
Q 384.8 36.4 383.2 36.4 
L 254.08 36.4 
Q 252.48 36.4 252.48 38 
L 252.48 84.525 
Q 252.48 86.125 254.08 86.125 
z
" style="fill: #ffffff; opacity: 0.8; stroke: #cccccc; stroke-linejoin: miter"/>
    </g>
    <g id="line2d_13">
     <path d="M 255.68 42.87875 
L 263.68 42.87875 
L 271.68 42.87875 
" style="fill: none; stroke: #28a745; stroke-width: 2; stroke-linecap: square"/>
    </g>
    <g id="text_11">
     <!-- Population -->
     <g style="fill: #030303" transform="translate(278.08 45.67875) scale(0.08 -0.08)">
      <defs>
       <path id="DejaVuSerif-70" d="M 1313 1825 
L 1313 1497 
Q 1313 897 1542 583 
Q 1772 269 2209 269 
Q 2650 269 2876 622 
Q 3103 975 3103 1663 
Q 3103 2353 2876 2703 
Q 2650 3053 2209 3053 
Q 1772 3053 1542 2737 
Q 1313 2422 1313 1825 
z
M 738 2988 
L 184 2988 
L 184 3322 
L 1313 3322 
L 1313 2803 
Q 1481 3116 1742 3264 
Q 2003 3413 2388 3413 
Q 3000 3413 3387 2928 
Q 3775 2444 3775 1663 
Q 3775 881 3387 395 
Q 3000 -91 2388 -91 
Q 2003 -91 1742 57 
Q 1481 206 1313 519 
L 1313 -997 
L 1856 -997 
L 1856 -1331 
L 184 -1331 
L 184 -997 
L 738 -997 
L 738 2988 
z
" transform="scale(0.015625)"/>
       <path id="DejaVuSerif-75" d="M 2266 3322 
L 3341 3322 
L 3341 331 
L 3884 331 
L 3884 0 
L 2766 0 
L 2766 588 
Q 2606 256 2353 82 
Q 2100 -91 1766 -91 
Q 1213 -91 952 223 
Q 691 538 691 1209 
L 691 2988 
L 172 2988 
L 172 3322 
L 1269 3322 
L 1269 1388 
Q 1269 781 1417 556 
Q 1566 331 1947 331 
Q 2347 331 2556 625 
Q 2766 919 2766 1478 
L 2766 2988 
L 2266 2988 
L 2266 3322 
z
" transform="scale(0.015625)"/>
      </defs>
      <use xlink:href="#DejaVuSerif-50"/>
      <use xlink:href="#DejaVuSerif-6f" x="63.285156"/>
      <use xlink:href="#DejaVuSerif-70" x="123.490234"/>
      <use xlink:href="#DejaVuSerif-75" x="187.503906"/>
      <use xlink:href="#DejaVuSerif-6c" x="251.908203"/>
      <use xlink:href="#DejaVuSerif-61" x="283.890625"/>
      <use xlink:href="#DejaVuSerif-74" x="343.509766"/>
      <use xlink:href="#DejaVuSerif-69" x="383.695312"/>
      <use xlink:href="#DejaVuSerif-6f" x="415.677734"/>
      <use xlink:href="#DejaVuSerif-6e" x="475.882812"/>
     </g>
    </g>
    <g id="line2d_14">
     <path d="M 255.68 54.62125 
L 263.68 54.62125 
L 271.68 54.62125 
" style="fill: none; stroke: #131313; stroke-width: 1.5; stroke-linecap: square"/>
    </g>
    <g id="text_12">
     <!-- Sample Distribution -->
     <g style="fill: #030303" transform="translate(278.08 57.42125) scale(0.08 -0.08)">
      <defs>
       <path id="DejaVuSerif-6d" d="M 3316 2675 
Q 3481 3041 3739 3227 
Q 3997 3413 4341 3413 
Q 4863 3413 5119 3089 
Q 5375 2766 5375 2113 
L 5375 331 
L 5894 331 
L 5894 0 
L 4300 0 
L 4300 331 
L 4800 331 
L 4800 2047 
Q 4800 2556 4650 2772 
Q 4500 2988 4153 2988 
Q 3769 2988 3567 2697 
Q 3366 2406 3366 1850 
L 3366 331 
L 3866 331 
L 3866 0 
L 2291 0 
L 2291 331 
L 2791 331 
L 2791 2069 
Q 2791 2566 2641 2777 
Q 2491 2988 2144 2988 
Q 1759 2988 1557 2697 
Q 1356 2406 1356 1850 
L 1356 331 
L 1856 331 
L 1856 0 
L 263 0 
L 263 331 
L 781 331 
L 781 2994 
L 231 2994 
L 231 3322 
L 1356 3322 
L 1356 2731 
Q 1516 3063 1762 3238 
Q 2009 3413 2322 3413 
Q 2709 3413 2968 3220 
Q 3228 3028 3316 2675 
z
" transform="scale(0.015625)"/>
      </defs>
      <use xlink:href="#DejaVuSerif-53"/>
      <use xlink:href="#DejaVuSerif-61" x="68.505859"/>
      <use xlink:href="#DejaVuSerif-6d" x="128.125"/>
      <use xlink:href="#DejaVuSerif-70" x="222.949219"/>
      <use xlink:href="#DejaVuSerif-6c" x="286.962891"/>
      <use xlink:href="#DejaVuSerif-65" x="318.945312"/>
      <use xlink:href="#DejaVuSerif-20" x="378.125"/>
      <use xlink:href="#DejaVuSerif-44" x="409.912109"/>
      <use xlink:href="#DejaVuSerif-69" x="490.087891"/>
      <use xlink:href="#DejaVuSerif-73" x="522.070312"/>
      <use xlink:href="#DejaVuSerif-74" x="573.388672"/>
      <use xlink:href="#DejaVuSerif-72" x="613.574219"/>
      <use xlink:href="#DejaVuSerif-69" x="661.376953"/>
      <use xlink:href="#DejaVuSerif-62" x="693.359375"/>
      <use xlink:href="#DejaVuSerif-75" x="757.373047"/>
      <use xlink:href="#DejaVuSerif-74" x="821.777344"/>
      <use xlink:href="#DejaVuSerif-69" x="861.962891"/>
      <use xlink:href="#DejaVuSerif-6f" x="893.945312"/>
      <use xlink:href="#DejaVuSerif-6e" x="954.150391"/>
     </g>
    </g>
    <g id="line2d_15">
     <path d="M 255.68 66.365 
L 263.68 66.365 
L 271.68 66.365 
" style="fill: none; stroke: #4682b4; stroke-width: 1.5; stroke-linecap: square"/>
    </g>
    <g id="text_13">
     <!-- Sampling Distribution ($\bar{x}$) -->
     <g style="fill: #030303" transform="translate(278.08 69.165) scale(0.08 -0.08)">
      <defs>
       <path id="DejaVuSerif-67" d="M 3359 2988 
L 3359 72 
Q 3359 -644 2965 -1033 
Q 2572 -1422 1844 -1422 
Q 1516 -1422 1216 -1362 
Q 916 -1303 641 -1184 
L 641 -488 
L 941 -488 
Q 997 -813 1206 -963 
Q 1416 -1113 1806 -1113 
Q 2313 -1113 2548 -827 
Q 2784 -541 2784 72 
L 2784 519 
Q 2616 206 2355 57 
Q 2094 -91 1709 -91 
Q 1097 -91 708 395 
Q 319 881 319 1663 
Q 319 2444 706 2928 
Q 1094 3413 1709 3413 
Q 2094 3413 2355 3264 
Q 2616 3116 2784 2803 
L 2784 3322 
L 3909 3322 
L 3909 2988 
L 3359 2988 
z
M 2784 1825 
Q 2784 2422 2554 2737 
Q 2325 3053 1888 3053 
Q 1444 3053 1217 2703 
Q 991 2353 991 1663 
Q 991 975 1217 622 
Q 1444 269 1888 269 
Q 2325 269 2554 583 
Q 2784 897 2784 1497 
L 2784 1825 
z
" transform="scale(0.015625)"/>
       <path id="DejaVuSans-304" d="M -2518 4769 
L -650 4769 
L -650 4306 
L -2518 4306 
L -2518 4769 
z
" transform="scale(0.015625)"/>
       <path id="DejaVuSans-Oblique-78" d="M 3841 3500 
L 2234 1784 
L 3219 0 
L 2559 0 
L 1819 1388 
L 531 0 
L -166 0 
L 1556 1844 
L 641 3500 
L 1300 3500 
L 1972 2234 
L 3144 3500 
L 3841 3500 
z
" transform="scale(0.015625)"/>
      </defs>
      <use xlink:href="#DejaVuSerif-53" transform="translate(0 0.015625)"/>
      <use xlink:href="#DejaVuSerif-61" transform="translate(68.505859 0.015625)"/>
      <use xlink:href="#DejaVuSerif-6d" transform="translate(128.125 0.015625)"/>
      <use xlink:href="#DejaVuSerif-70" transform="translate(222.949219 0.015625)"/>
      <use xlink:href="#DejaVuSerif-6c" transform="translate(286.962891 0.015625)"/>
      <use xlink:href="#DejaVuSerif-69" transform="translate(318.945312 0.015625)"/>
      <use xlink:href="#DejaVuSerif-6e" transform="translate(350.927734 0.015625)"/>
      <use xlink:href="#DejaVuSerif-67" transform="translate(415.332031 0.015625)"/>
      <use xlink:href="#DejaVuSerif-20" transform="translate(479.345703 0.015625)"/>
      <use xlink:href="#DejaVuSerif-44" transform="translate(511.132812 0.015625)"/>
      <use xlink:href="#DejaVuSerif-69" transform="translate(591.308594 0.015625)"/>
      <use xlink:href="#DejaVuSerif-73" transform="translate(623.291016 0.015625)"/>
      <use xlink:href="#DejaVuSerif-74" transform="translate(674.609375 0.015625)"/>
      <use xlink:href="#DejaVuSerif-72" transform="translate(714.794922 0.015625)"/>
      <use xlink:href="#DejaVuSerif-69" transform="translate(762.597656 0.015625)"/>
      <use xlink:href="#DejaVuSerif-62" transform="translate(794.580078 0.015625)"/>
      <use xlink:href="#DejaVuSerif-75" transform="translate(858.59375 0.015625)"/>
      <use xlink:href="#DejaVuSerif-74" transform="translate(922.998047 0.015625)"/>
      <use xlink:href="#DejaVuSerif-69" transform="translate(963.183594 0.015625)"/>
      <use xlink:href="#DejaVuSerif-6f" transform="translate(995.166016 0.015625)"/>
      <use xlink:href="#DejaVuSerif-6e" transform="translate(1055.371094 0.015625)"/>
      <use xlink:href="#DejaVuSerif-20" transform="translate(1119.775391 0.015625)"/>
      <use xlink:href="#DejaVuSerif-28" transform="translate(1151.5625 0.015625)"/>
      <use xlink:href="#DejaVuSans-304" transform="translate(1252.714844 -0.078125)"/>
      <use xlink:href="#DejaVuSans-Oblique-78" transform="translate(1190.576172 0.015625)"/>
      <use xlink:href="#DejaVuSerif-29" transform="translate(1249.755859 0.015625)"/>
     </g>
    </g>
    <g id="line2d_16">
     <path d="M 255.68 78.285 
L 263.68 78.285 
L 271.68 78.285 
" style="fill: none; stroke: #cb4154; stroke-width: 1.5; stroke-linecap: square"/>
    </g>
    <g id="text_14">
     <!-- Sampling Distribution ($\mu$) -->
     <g style="fill: #030303" transform="translate(278.08 81.085) scale(0.08 -0.08)">
      <defs>
       <path id="DejaVuSans-Oblique-3bc" d="M -84 -1331 
L 856 3500 
L 1434 3500 
L 1009 1322 
Q 997 1256 987 1175 
Q 978 1094 978 1013 
Q 978 722 1161 565 
Q 1344 409 1684 409 
Q 2147 409 2431 671 
Q 2716 934 2816 1459 
L 3213 3500 
L 3788 3500 
L 3266 809 
Q 3253 750 3248 706 
Q 3244 663 3244 628 
Q 3244 531 3283 486 
Q 3322 441 3406 441 
Q 3438 441 3492 456 
Q 3547 472 3647 513 
L 3559 50 
Q 3422 -19 3297 -55 
Q 3172 -91 3053 -91 
Q 2847 -91 2730 40 
Q 2613 172 2613 403 
Q 2438 153 2195 31 
Q 1953 -91 1625 -91 
Q 1334 -91 1117 43 
Q 900 178 831 397 
L 494 -1331 
L -84 -1331 
z
" transform="scale(0.015625)"/>
      </defs>
      <use xlink:href="#DejaVuSerif-53" transform="translate(0 0.015625)"/>
      <use xlink:href="#DejaVuSerif-61" transform="translate(68.505859 0.015625)"/>
      <use xlink:href="#DejaVuSerif-6d" transform="translate(128.125 0.015625)"/>
      <use xlink:href="#DejaVuSerif-70" transform="translate(222.949219 0.015625)"/>
      <use xlink:href="#DejaVuSerif-6c" transform="translate(286.962891 0.015625)"/>
      <use xlink:href="#DejaVuSerif-69" transform="translate(318.945312 0.015625)"/>
      <use xlink:href="#DejaVuSerif-6e" transform="translate(350.927734 0.015625)"/>
      <use xlink:href="#DejaVuSerif-67" transform="translate(415.332031 0.015625)"/>
      <use xlink:href="#DejaVuSerif-20" transform="translate(479.345703 0.015625)"/>
      <use xlink:href="#DejaVuSerif-44" transform="translate(511.132812 0.015625)"/>
      <use xlink:href="#DejaVuSerif-69" transform="translate(591.308594 0.015625)"/>
      <use xlink:href="#DejaVuSerif-73" transform="translate(623.291016 0.015625)"/>
      <use xlink:href="#DejaVuSerif-74" transform="translate(674.609375 0.015625)"/>
      <use xlink:href="#DejaVuSerif-72" transform="translate(714.794922 0.015625)"/>
      <use xlink:href="#DejaVuSerif-69" transform="translate(762.597656 0.015625)"/>
      <use xlink:href="#DejaVuSerif-62" transform="translate(794.580078 0.015625)"/>
      <use xlink:href="#DejaVuSerif-75" transform="translate(858.59375 0.015625)"/>
      <use xlink:href="#DejaVuSerif-74" transform="translate(922.998047 0.015625)"/>
      <use xlink:href="#DejaVuSerif-69" transform="translate(963.183594 0.015625)"/>
      <use xlink:href="#DejaVuSerif-6f" transform="translate(995.166016 0.015625)"/>
      <use xlink:href="#DejaVuSerif-6e" transform="translate(1055.371094 0.015625)"/>
      <use xlink:href="#DejaVuSerif-20" transform="translate(1119.775391 0.015625)"/>
      <use xlink:href="#DejaVuSerif-28" transform="translate(1151.5625 0.015625)"/>
      <use xlink:href="#DejaVuSans-Oblique-3bc" transform="translate(1190.576172 0.015625)"/>
      <use xlink:href="#DejaVuSerif-29" transform="translate(1254.199219 0.015625)"/>
     </g>
    </g>
   </g>
  </g>
 </g>
 <defs>
  <clipPath id="pd8b28be15a">
   <rect x="54" y="32.4" width="334.8" height="207.9"/>
  </clipPath>
 </defs>
</svg>
