<?xml version="1.0" encoding="utf-8" standalone="no"?>
<!DOCTYPE svg PUBLIC "-//W3C//DTD SVG 1.1//EN"
  "http://www.w3.org/Graphics/SVG/1.1/DTD/svg11.dtd">
<svg xmlns:xlink="http://www.w3.org/1999/xlink" width="364.984375pt" height="258.463125pt" viewBox="0 0 364.984375 258.463125" xmlns="http://www.w3.org/2000/svg" version="1.1">
 <metadata>
  <rdf:RDF xmlns:dc="http://purl.org/dc/elements/1.1/" xmlns:cc="http://creativecommons.org/ns#" xmlns:rdf="http://www.w3.org/1999/02/22-rdf-syntax-ns#">
   <cc:Work>
    <dc:type rdf:resource="http://purl.org/dc/dcmitype/StillImage"/>
    <dc:date>2025-02-19T08:48:22.049030</dc:date>
    <dc:format>image/svg+xml</dc:format>
    <dc:creator>
     <cc:Agent>
      <dc:title>Matplotlib v3.10.0, https://matplotlib.org/</dc:title>
     </cc:Agent>
    </dc:creator>
   </cc:Work>
  </rdf:RDF>
 </metadata>
 <defs>
  <style type="text/css">*{stroke-linejoin: round; stroke-linecap: butt}</style>
 </defs>
 <g id="figure_1">
  <g id="patch_1">
   <path d="M 0 258.463125 
L 364.984375 258.463125 
L 364.984375 0 
L 0 0 
L 0 258.463125 
z
" style="fill: none"/>
  </g>
  <g id="axes_1">
   <g id="patch_2">
    <path d="M 22.984375 215.1 
L 357.784375 215.1 
L 357.784375 7.2 
L 22.984375 7.2 
L 22.984375 215.1 
z
" style="fill: none"/>
   </g>
   <g id="matplotlib.axis_1">
    <g id="xtick_1">
     <g id="line2d_1">
      <defs>
       <path id="m878585e911" d="M 0 0 
L 0 3.5 
" style="stroke: #030303; stroke-width: 0.8"/>
      </defs>
      <g>
       <use xlink:href="#m878585e911" x="22.984375" y="215.1" style="fill: #030303; stroke: #030303; stroke-width: 0.8"/>
      </g>
     </g>
     <g id="text_1">
      <!-- $\mathdefault{0}$ -->
      <g style="fill: #030303" transform="translate(18.504375 232.737812) scale(0.14 -0.14)">
       <defs>
        <path id="DejaVuSerif-30" d="M 2034 219 
Q 2513 219 2750 744 
Q 2988 1269 2988 2328 
Q 2988 3391 2750 3916 
Q 2513 4441 2034 4441 
Q 1556 4441 1318 3916 
Q 1081 3391 1081 2328 
Q 1081 1269 1318 744 
Q 1556 219 2034 219 
z
M 2034 -91 
Q 1275 -91 848 546 
Q 422 1184 422 2328 
Q 422 3475 848 4112 
Q 1275 4750 2034 4750 
Q 2797 4750 3222 4112 
Q 3647 3475 3647 2328 
Q 3647 1184 3222 546 
Q 2797 -91 2034 -91 
z
" transform="scale(0.015625)"/>
       </defs>
       <use xlink:href="#DejaVuSerif-30" transform="translate(0 0.78125)"/>
      </g>
     </g>
    </g>
    <g id="xtick_2">
     <g id="line2d_2">
      <g>
       <use xlink:href="#m878585e911" x="117.294234" y="215.1" style="fill: #030303; stroke: #030303; stroke-width: 0.8"/>
      </g>
     </g>
     <g id="text_2">
      <!-- $\mathdefault{200}$ -->
      <g style="fill: #030303" transform="translate(103.924234 232.737812) scale(0.14 -0.14)">
       <defs>
        <path id="DejaVuSerif-32" d="M 819 3553 
L 469 3553 
L 469 4384 
Q 803 4563 1142 4656 
Q 1481 4750 1806 4750 
Q 2534 4750 2956 4397 
Q 3378 4044 3378 3438 
Q 3378 2753 2422 1800 
Q 2347 1728 2309 1691 
L 1131 513 
L 3078 513 
L 3078 1088 
L 3444 1088 
L 3444 0 
L 434 0 
L 434 341 
L 1850 1753 
Q 2319 2222 2519 2614 
Q 2719 3006 2719 3438 
Q 2719 3909 2473 4175 
Q 2228 4441 1797 4441 
Q 1350 4441 1106 4219 
Q 863 3997 819 3553 
z
" transform="scale(0.015625)"/>
       </defs>
       <use xlink:href="#DejaVuSerif-32" transform="translate(0 0.78125)"/>
       <use xlink:href="#DejaVuSerif-30" transform="translate(63.623047 0.78125)"/>
       <use xlink:href="#DejaVuSerif-30" transform="translate(127.246094 0.78125)"/>
      </g>
     </g>
    </g>
    <g id="xtick_3">
     <g id="line2d_3">
      <g>
       <use xlink:href="#m878585e911" x="211.604093" y="215.1" style="fill: #030303; stroke: #030303; stroke-width: 0.8"/>
      </g>
     </g>
     <g id="text_3">
      <!-- $\mathdefault{400}$ -->
      <g style="fill: #030303" transform="translate(198.234093 232.737812) scale(0.14 -0.14)">
       <defs>
        <path id="DejaVuSerif-34" d="M 2234 1581 
L 2234 4063 
L 641 1581 
L 2234 1581 
z
M 3609 0 
L 1484 0 
L 1484 331 
L 2234 331 
L 2234 1247 
L 197 1247 
L 197 1588 
L 2241 4750 
L 2859 4750 
L 2859 1581 
L 3750 1581 
L 3750 1247 
L 2859 1247 
L 2859 331 
L 3609 331 
L 3609 0 
z
" transform="scale(0.015625)"/>
       </defs>
       <use xlink:href="#DejaVuSerif-34" transform="translate(0 0.78125)"/>
       <use xlink:href="#DejaVuSerif-30" transform="translate(63.623047 0.78125)"/>
       <use xlink:href="#DejaVuSerif-30" transform="translate(127.246094 0.78125)"/>
      </g>
     </g>
    </g>
    <g id="xtick_4">
     <g id="line2d_4">
      <g>
       <use xlink:href="#m878585e911" x="305.913952" y="215.1" style="fill: #030303; stroke: #030303; stroke-width: 0.8"/>
      </g>
     </g>
     <g id="text_4">
      <!-- $\mathdefault{600}$ -->
      <g style="fill: #030303" transform="translate(292.543952 232.737812) scale(0.14 -0.14)">
       <defs>
        <path id="DejaVuSerif-36" d="M 2094 219 
Q 2534 219 2771 542 
Q 3009 866 3009 1472 
Q 3009 2078 2771 2401 
Q 2534 2725 2094 2725 
Q 1647 2725 1412 2412 
Q 1178 2100 1178 1509 
Q 1178 888 1415 553 
Q 1653 219 2094 219 
z
M 1075 2569 
Q 1288 2803 1556 2918 
Q 1825 3034 2163 3034 
Q 2859 3034 3264 2615 
Q 3669 2197 3669 1472 
Q 3669 763 3233 336 
Q 2797 -91 2069 -91 
Q 1278 -91 853 498 
Q 428 1088 428 2181 
Q 428 3406 931 4078 
Q 1434 4750 2350 4750 
Q 2597 4750 2869 4703 
Q 3141 4656 3425 4563 
L 3425 3794 
L 3072 3794 
Q 3034 4109 2831 4275 
Q 2628 4441 2284 4441 
Q 1678 4441 1381 3981 
Q 1084 3522 1075 2569 
z
" transform="scale(0.015625)"/>
       </defs>
       <use xlink:href="#DejaVuSerif-36" transform="translate(0 0.78125)"/>
       <use xlink:href="#DejaVuSerif-30" transform="translate(63.623047 0.78125)"/>
       <use xlink:href="#DejaVuSerif-30" transform="translate(127.246094 0.78125)"/>
      </g>
     </g>
    </g>
    <g id="text_5">
     <!-- Stress (MPa) -->
     <g style="fill: #030303" transform="translate(151.21 248.7675) scale(0.12 -0.12)">
      <defs>
       <path id="DejaVuSerif-53" d="M 594 225 
L 594 1288 
L 953 1284 
Q 969 753 1261 498 
Q 1553 244 2150 244 
Q 2706 244 2998 464 
Q 3291 684 3291 1106 
Q 3291 1444 3114 1625 
Q 2938 1806 2369 1978 
L 1753 2163 
Q 1084 2366 811 2669 
Q 538 2972 538 3500 
Q 538 4094 959 4422 
Q 1381 4750 2144 4750 
Q 2469 4750 2856 4679 
Q 3244 4609 3681 4475 
L 3681 3481 
L 3328 3481 
Q 3275 3975 2998 4195 
Q 2722 4416 2156 4416 
Q 1663 4416 1405 4214 
Q 1147 4013 1147 3628 
Q 1147 3294 1340 3103 
Q 1534 2913 2163 2725 
L 2741 2553 
Q 3375 2363 3645 2067 
Q 3916 1772 3916 1275 
Q 3916 597 3481 253 
Q 3047 -91 2188 -91 
Q 1803 -91 1404 -12 
Q 1006 66 594 225 
z
" transform="scale(0.015625)"/>
       <path id="DejaVuSerif-74" d="M 691 2988 
L 184 2988 
L 184 3322 
L 691 3322 
L 691 4353 
L 1269 4353 
L 1269 3322 
L 2350 3322 
L 2350 2988 
L 1269 2988 
L 1269 878 
Q 1269 456 1350 337 
Q 1431 219 1650 219 
Q 1875 219 1978 351 
Q 2081 484 2088 781 
L 2522 781 
Q 2497 328 2275 118 
Q 2053 -91 1600 -91 
Q 1103 -91 897 129 
Q 691 350 691 878 
L 691 2988 
z
" transform="scale(0.015625)"/>
       <path id="DejaVuSerif-72" d="M 3059 3328 
L 3059 2497 
L 2728 2497 
Q 2713 2744 2591 2866 
Q 2469 2988 2234 2988 
Q 1809 2988 1582 2694 
Q 1356 2400 1356 1850 
L 1356 331 
L 2022 331 
L 2022 0 
L 263 0 
L 263 331 
L 781 331 
L 781 2994 
L 231 2994 
L 231 3322 
L 1356 3322 
L 1356 2731 
Q 1525 3078 1790 3245 
Q 2056 3413 2438 3413 
Q 2578 3413 2733 3391 
Q 2888 3369 3059 3328 
z
" transform="scale(0.015625)"/>
       <path id="DejaVuSerif-65" d="M 3469 1600 
L 991 1600 
L 991 1575 
Q 991 903 1244 561 
Q 1497 219 1991 219 
Q 2369 219 2611 417 
Q 2853 616 2950 1006 
L 3413 1006 
Q 3275 459 2904 184 
Q 2534 -91 1931 -91 
Q 1203 -91 761 389 
Q 319 869 319 1663 
Q 319 2450 753 2931 
Q 1188 3413 1894 3413 
Q 2647 3413 3050 2948 
Q 3453 2484 3469 1600 
z
M 2791 1931 
Q 2772 2513 2545 2808 
Q 2319 3103 1894 3103 
Q 1497 3103 1269 2806 
Q 1041 2509 991 1931 
L 2791 1931 
z
" transform="scale(0.015625)"/>
       <path id="DejaVuSerif-73" d="M 359 184 
L 359 959 
L 691 959 
Q 703 588 923 403 
Q 1144 219 1575 219 
Q 1963 219 2166 364 
Q 2369 509 2369 788 
Q 2369 1006 2220 1140 
Q 2072 1275 1594 1428 
L 1178 1569 
Q 750 1706 558 1912 
Q 366 2119 366 2438 
Q 366 2894 700 3153 
Q 1034 3413 1625 3413 
Q 1888 3413 2178 3344 
Q 2469 3275 2778 3144 
L 2778 2419 
L 2447 2419 
Q 2434 2741 2221 2922 
Q 2009 3103 1644 3103 
Q 1281 3103 1095 2975 
Q 909 2847 909 2591 
Q 909 2381 1050 2254 
Q 1191 2128 1613 1997 
L 2069 1856 
Q 2541 1709 2748 1489 
Q 2956 1269 2956 922 
Q 2956 450 2595 179 
Q 2234 -91 1600 -91 
Q 1278 -91 972 -22 
Q 666 47 359 184 
z
" transform="scale(0.015625)"/>
       <path id="DejaVuSerif-20" transform="scale(0.015625)"/>
       <path id="DejaVuSerif-28" d="M 2041 -997 
Q 1281 -656 893 83 
Q 506 822 506 1931 
Q 506 3044 893 3783 
Q 1281 4522 2041 4863 
L 2041 4556 
Q 1559 4225 1350 3623 
Q 1141 3022 1141 1931 
Q 1141 844 1350 242 
Q 1559 -359 2041 -691 
L 2041 -997 
z
" transform="scale(0.015625)"/>
       <path id="DejaVuSerif-4d" d="M 353 0 
L 353 331 
L 947 331 
L 947 4331 
L 319 4331 
L 319 4666 
L 1678 4666 
L 3316 1344 
L 4953 4666 
L 6228 4666 
L 6228 4331 
L 5606 4331 
L 5606 331 
L 6203 331 
L 6203 0 
L 4378 0 
L 4378 331 
L 4972 331 
L 4972 3938 
L 3372 684 
L 2931 684 
L 1331 3938 
L 1331 331 
L 1925 331 
L 1925 0 
L 353 0 
z
" transform="scale(0.015625)"/>
       <path id="DejaVuSerif-50" d="M 1581 2375 
L 2406 2375 
Q 2872 2375 3115 2626 
Q 3359 2878 3359 3353 
Q 3359 3831 3115 4081 
Q 2872 4331 2406 4331 
L 1581 4331 
L 1581 2375 
z
M 353 0 
L 353 331 
L 947 331 
L 947 4331 
L 353 4331 
L 353 4666 
L 2559 4666 
Q 3259 4666 3668 4311 
Q 4078 3956 4078 3353 
Q 4078 2753 3668 2397 
Q 3259 2041 2559 2041 
L 1581 2041 
L 1581 331 
L 2303 331 
L 2303 0 
L 353 0 
z
" transform="scale(0.015625)"/>
       <path id="DejaVuSerif-61" d="M 2547 1044 
L 2547 1747 
L 1806 1747 
Q 1378 1747 1168 1562 
Q 959 1378 959 997 
Q 959 650 1171 447 
Q 1384 244 1747 244 
Q 2106 244 2326 466 
Q 2547 688 2547 1044 
z
M 3122 2075 
L 3122 331 
L 3634 331 
L 3634 0 
L 2547 0 
L 2547 359 
Q 2356 128 2106 18 
Q 1856 -91 1522 -91 
Q 969 -91 644 203 
Q 319 497 319 997 
Q 319 1513 691 1797 
Q 1063 2081 1741 2081 
L 2547 2081 
L 2547 2309 
Q 2547 2688 2317 2895 
Q 2088 3103 1672 3103 
Q 1328 3103 1125 2947 
Q 922 2791 872 2484 
L 575 2484 
L 575 3156 
Q 875 3284 1158 3348 
Q 1441 3413 1709 3413 
Q 2400 3413 2761 3070 
Q 3122 2728 3122 2075 
z
" transform="scale(0.015625)"/>
       <path id="DejaVuSerif-29" d="M 453 -997 
L 453 -691 
Q 934 -359 1145 242 
Q 1356 844 1356 1931 
Q 1356 3022 1145 3623 
Q 934 4225 453 4556 
L 453 4863 
Q 1216 4522 1603 3783 
Q 1991 3044 1991 1931 
Q 1991 822 1603 83 
Q 1216 -656 453 -997 
z
" transform="scale(0.015625)"/>
      </defs>
      <use xlink:href="#DejaVuSerif-53"/>
      <use xlink:href="#DejaVuSerif-74" transform="translate(68.505859 0)"/>
      <use xlink:href="#DejaVuSerif-72" transform="translate(108.691406 0)"/>
      <use xlink:href="#DejaVuSerif-65" transform="translate(156.494141 0)"/>
      <use xlink:href="#DejaVuSerif-73" transform="translate(215.673828 0)"/>
      <use xlink:href="#DejaVuSerif-73" transform="translate(266.992188 0)"/>
      <use xlink:href="#DejaVuSerif-20" transform="translate(318.310547 0)"/>
      <use xlink:href="#DejaVuSerif-28" transform="translate(350.097656 0)"/>
      <use xlink:href="#DejaVuSerif-4d" transform="translate(389.111328 0)"/>
      <use xlink:href="#DejaVuSerif-50" transform="translate(491.503906 0)"/>
      <use xlink:href="#DejaVuSerif-61" transform="translate(554.289062 0)"/>
      <use xlink:href="#DejaVuSerif-29" transform="translate(613.908203 0)"/>
     </g>
    </g>
   </g>
   <g id="matplotlib.axis_2">
    <g id="text_6">
     <!-- Probability Density -->
     <g style="fill: #030303" transform="translate(16.318125 169.416562) rotate(-90) scale(0.12 -0.12)">
      <defs>
       <path id="DejaVuSerif-6f" d="M 1925 219 
Q 2388 219 2623 584 
Q 2859 950 2859 1663 
Q 2859 2375 2623 2739 
Q 2388 3103 1925 3103 
Q 1463 3103 1227 2739 
Q 991 2375 991 1663 
Q 991 950 1228 584 
Q 1466 219 1925 219 
z
M 1925 -91 
Q 1200 -91 759 389 
Q 319 869 319 1663 
Q 319 2456 758 2934 
Q 1197 3413 1925 3413 
Q 2653 3413 3092 2934 
Q 3531 2456 3531 1663 
Q 3531 869 3092 389 
Q 2653 -91 1925 -91 
z
" transform="scale(0.015625)"/>
       <path id="DejaVuSerif-62" d="M 738 331 
L 738 4531 
L 184 4531 
L 184 4863 
L 1313 4863 
L 1313 2803 
Q 1481 3116 1742 3264 
Q 2003 3413 2388 3413 
Q 3000 3413 3387 2928 
Q 3775 2444 3775 1663 
Q 3775 881 3387 395 
Q 3000 -91 2388 -91 
Q 2003 -91 1742 57 
Q 1481 206 1313 519 
L 1313 0 
L 184 0 
L 184 331 
L 738 331 
z
M 1313 1497 
Q 1313 897 1542 583 
Q 1772 269 2209 269 
Q 2650 269 2876 622 
Q 3103 975 3103 1663 
Q 3103 2353 2876 2703 
Q 2650 3053 2209 3053 
Q 1772 3053 1542 2737 
Q 1313 2422 1313 1825 
L 1313 1497 
z
" transform="scale(0.015625)"/>
       <path id="DejaVuSerif-69" d="M 622 4353 
Q 622 4497 726 4603 
Q 831 4709 978 4709 
Q 1122 4709 1226 4603 
Q 1331 4497 1331 4353 
Q 1331 4206 1228 4103 
Q 1125 4000 978 4000 
Q 831 4000 726 4103 
Q 622 4206 622 4353 
z
M 1356 331 
L 1900 331 
L 1900 0 
L 231 0 
L 231 331 
L 781 331 
L 781 2988 
L 231 2988 
L 231 3322 
L 1356 3322 
L 1356 331 
z
" transform="scale(0.015625)"/>
       <path id="DejaVuSerif-6c" d="M 1313 331 
L 1856 331 
L 1856 0 
L 184 0 
L 184 331 
L 738 331 
L 738 4531 
L 184 4531 
L 184 4863 
L 1313 4863 
L 1313 331 
z
" transform="scale(0.015625)"/>
       <path id="DejaVuSerif-79" d="M 1381 -609 
L 1600 -56 
L 359 2988 
L -19 2988 
L -19 3322 
L 1509 3322 
L 1509 2988 
L 978 2988 
L 1913 703 
L 2847 2988 
L 2350 2988 
L 2350 3322 
L 3597 3322 
L 3597 2988 
L 3225 2988 
L 1703 -750 
Q 1547 -1138 1356 -1280 
Q 1166 -1422 819 -1422 
Q 672 -1422 517 -1397 
Q 363 -1372 206 -1325 
L 206 -691 
L 500 -691 
Q 519 -903 608 -995 
Q 697 -1088 884 -1088 
Q 1056 -1088 1161 -992 
Q 1266 -897 1381 -609 
z
" transform="scale(0.015625)"/>
       <path id="DejaVuSerif-44" d="M 1581 331 
L 2163 331 
Q 3072 331 3558 850 
Q 4044 1369 4044 2338 
Q 4044 3306 3559 3818 
Q 3075 4331 2163 4331 
L 1581 4331 
L 1581 331 
z
M 353 0 
L 353 331 
L 947 331 
L 947 4331 
L 353 4331 
L 353 4666 
L 2209 4666 
Q 3416 4666 4089 4050 
Q 4763 3434 4763 2338 
Q 4763 1238 4088 619 
Q 3413 0 2209 0 
L 353 0 
z
" transform="scale(0.015625)"/>
       <path id="DejaVuSerif-6e" d="M 263 0 
L 263 331 
L 781 331 
L 781 2988 
L 231 2988 
L 231 3322 
L 1356 3322 
L 1356 2731 
Q 1516 3069 1770 3241 
Q 2025 3413 2363 3413 
Q 2913 3413 3172 3097 
Q 3431 2781 3431 2113 
L 3431 331 
L 3944 331 
L 3944 0 
L 2356 0 
L 2356 331 
L 2853 331 
L 2853 1931 
Q 2853 2541 2703 2767 
Q 2553 2994 2175 2994 
Q 1775 2994 1565 2701 
Q 1356 2409 1356 1850 
L 1356 331 
L 1856 331 
L 1856 0 
L 263 0 
z
" transform="scale(0.015625)"/>
      </defs>
      <use xlink:href="#DejaVuSerif-50"/>
      <use xlink:href="#DejaVuSerif-72" transform="translate(67.285156 0)"/>
      <use xlink:href="#DejaVuSerif-6f" transform="translate(115.087891 0)"/>
      <use xlink:href="#DejaVuSerif-62" transform="translate(175.292969 0)"/>
      <use xlink:href="#DejaVuSerif-61" transform="translate(239.306641 0)"/>
      <use xlink:href="#DejaVuSerif-62" transform="translate(298.925781 0)"/>
      <use xlink:href="#DejaVuSerif-69" transform="translate(362.939453 0)"/>
      <use xlink:href="#DejaVuSerif-6c" transform="translate(394.921875 0)"/>
      <use xlink:href="#DejaVuSerif-69" transform="translate(426.904297 0)"/>
      <use xlink:href="#DejaVuSerif-74" transform="translate(458.886719 0)"/>
      <use xlink:href="#DejaVuSerif-79" transform="translate(499.072266 0)"/>
      <use xlink:href="#DejaVuSerif-20" transform="translate(555.566406 0)"/>
      <use xlink:href="#DejaVuSerif-44" transform="translate(587.353516 0)"/>
      <use xlink:href="#DejaVuSerif-65" transform="translate(667.529297 0)"/>
      <use xlink:href="#DejaVuSerif-6e" transform="translate(726.708984 0)"/>
      <use xlink:href="#DejaVuSerif-73" transform="translate(791.113281 0)"/>
      <use xlink:href="#DejaVuSerif-69" transform="translate(842.431641 0)"/>
      <use xlink:href="#DejaVuSerif-74" transform="translate(874.414062 0)"/>
      <use xlink:href="#DejaVuSerif-79" transform="translate(914.599609 0)"/>
     </g>
    </g>
   </g>
   <g id="line2d_5">
    <path d="M 91.359023 213.477997 
L 94.285555 212.735082 
L 96.773107 211.880749 
L 99.114333 210.840105 
L 101.309232 209.610271 
L 103.357805 208.198179 
L 105.260051 206.621092 
L 107.162297 204.751221 
L 109.064542 202.550935 
L 110.966788 199.981573 
L 112.869034 197.004322 
L 114.77128 193.581294 
L 116.673526 189.676787 
L 118.575772 185.258699 
L 120.624345 179.895645 
L 122.672917 173.8811 
L 124.867816 166.699373 
L 127.062715 158.756757 
L 129.403941 149.472841 
L 132.03782 138.100677 
L 135.110679 123.771268 
L 139.061497 104.165743 
L 146.963134 64.647759 
L 149.74334 52.035436 
L 151.938239 43.03412 
L 153.840485 36.091305 
L 155.596404 30.503762 
L 157.05967 26.51518 
L 158.376609 23.483896 
L 159.693549 21.010368 
L 160.864162 19.298391 
L 161.888448 18.186618 
L 162.766408 17.525659 
L 163.644367 17.137169 
L 164.522327 17.022762 
L 165.25396 17.137169 
L 166.13192 17.525659 
L 167.009879 18.186618 
L 167.887839 19.117307 
L 168.912125 20.538824 
L 170.082738 22.596189 
L 171.253351 25.100741 
L 172.57029 28.430276 
L 174.033557 32.729909 
L 175.643149 38.134231 
L 177.545395 45.338166 
L 179.740294 54.59032 
L 182.374173 66.736695 
L 185.886012 84.082465 
L 194.811935 128.658908 
L 197.884794 142.632922 
L 200.518673 153.634736 
L 203.006225 163.086618 
L 205.347451 171.100283 
L 207.54235 177.823335 
L 209.590922 183.416777 
L 211.639495 188.373443 
L 213.541741 192.432764 
L 215.443987 196.000274 
L 217.346233 199.110727 
L 219.248479 201.80148 
L 221.150724 204.111184 
L 223.05297 206.07865 
L 224.955216 207.741909 
L 227.003789 209.234715 
L 229.052361 210.459825 
L 231.24726 211.520081 
L 233.588486 212.411235 
L 236.222365 213.174366 
L 237.539305 213.477997 
L 237.539305 213.477997 
" clip-path="url(#p38d37c6229)" style="fill: none; stroke: #28b80b; stroke-width: 2; stroke-linecap: square"/>
   </g>
   <g id="patch_3">
    <path d="M 22.984375 215.1 
L 22.984375 7.2 
" style="fill: none; stroke: #030303; stroke-width: 1.5; stroke-linejoin: miter; stroke-linecap: square"/>
   </g>
   <g id="patch_4">
    <path d="M 22.984375 215.1 
L 357.784375 215.1 
" style="fill: none; stroke: #030303; stroke-width: 1.5; stroke-linejoin: miter; stroke-linecap: square"/>
   </g>
  </g>
  <g id="axes_2">
   <g id="patch_5">
    <path d="M 188.026629 211.151814 
Q 188.026629 155.031162 188.026629 98.91051 
" clip-path="url(#p38d37c6229)" style="fill: none; stroke: #000000; stroke-width: 1.5; stroke-linecap: round"/>
    <path d="M 190.526629 205.151814 
L 188.026629 211.151814 
L 185.526629 205.151814 
z
" clip-path="url(#p38d37c6229)" style="stroke: #000000; stroke-width: 1.5; stroke-linecap: round"/>
    <path d="M 185.526629 104.91051 
L 188.026629 98.91051 
L 190.526629 104.91051 
z
" clip-path="url(#p38d37c6229)" style="stroke: #000000; stroke-width: 1.5; stroke-linecap: round"/>
   </g>
   <g id="matplotlib.axis_3"/>
   <g id="line2d_6">
    <path d="M 22.984375 213.392226 
L 30.141162 212.650013 
L 36.616351 211.75047 
L 42.40994 210.717856 
L 47.521931 209.593458 
L 52.633922 208.236798 
L 57.405113 206.732412 
L 61.835506 205.105502 
L 66.265898 203.235228 
L 70.35549 201.275029 
L 74.445083 199.074905 
L 78.534676 196.621422 
L 82.624268 193.90331 
L 86.713861 190.912048 
L 90.803454 187.642454 
L 94.893046 184.093276 
L 99.323439 179.936694 
L 103.753831 175.466608 
L 108.525022 170.323178 
L 113.637013 164.470442 
L 119.430603 157.478624 
L 126.58739 148.46593 
L 144.308958 125.959284 
L 149.420949 119.904613 
L 153.851341 114.988647 
L 157.940934 110.794867 
L 161.348928 107.595955 
L 164.756922 104.700115 
L 167.824116 102.377356 
L 170.891311 100.343389 
L 173.617706 98.791862 
L 176.344101 97.492695 
L 179.070496 96.454767 
L 181.456092 95.766535 
L 183.841688 95.28745 
L 186.227283 95.020057 
L 188.612879 94.965781 
L 190.998475 95.124909 
L 193.38407 95.496594 
L 195.769666 96.07886 
L 198.155262 96.868619 
L 200.881657 98.019873 
L 203.608052 99.428755 
L 206.334447 101.085669 
L 209.401642 103.232195 
L 212.468836 105.660326 
L 215.87683 108.663888 
L 219.284824 111.959816 
L 223.033617 115.884114 
L 227.46401 120.864614 
L 232.576 126.975319 
L 239.051189 135.09291 
L 259.158353 160.58003 
L 264.951943 167.414806 
L 270.063933 173.097559 
L 274.835125 178.062508 
L 279.265517 182.354901 
L 283.695909 186.32676 
L 287.785502 189.702669 
L 291.875094 192.799277 
L 295.964687 195.62034 
L 300.05428 198.173181 
L 304.143873 200.468094 
L 308.233465 202.517759 
L 312.663857 204.478318 
L 317.094249 206.188181 
L 321.524641 207.668489 
L 326.295833 209.03065 
L 331.407824 210.2527 
L 336.860614 211.320439 
L 342.654204 212.227829 
L 349.129392 213.012797 
L 356.286179 213.65553 
L 363.442967 214.116204 
L 363.442967 214.116204 
" clip-path="url(#p38d37c6229)" style="fill: none; stroke: #131313; stroke-width: 1.5; stroke-linecap: square"/>
   </g>
   <g id="patch_6">
    <path d="M 22.984375 215.1 
L 357.784375 215.1 
" style="fill: none; stroke: #030303; stroke-width: 1.5; stroke-linejoin: miter; stroke-linecap: square"/>
   </g>
  </g>
  <g id="axes_3">
   <g id="FillBetweenPolyCollection_1">
    <defs>
     <path id="m73d97d6321" d="M 167.797681 -43.363125 
L 167.797681 -61.029639 
L 167.861798 -61.24529 
L 167.925915 -61.462876 
L 167.990032 -61.682404 
L 168.05415 -61.90388 
L 168.118267 -62.127312 
L 168.182384 -62.352704 
L 168.246501 -62.580064 
L 168.310618 -62.809396 
L 168.374735 -63.040708 
L 168.438852 -63.274004 
L 168.502969 -63.50929 
L 168.567086 -63.746571 
L 168.631204 -63.985853 
L 168.695321 -64.22714 
L 168.759438 -64.470437 
L 168.823555 -64.715749 
L 168.887672 -64.963079 
L 168.951789 -65.212433 
L 169.015906 -65.463815 
L 169.080023 -65.717227 
L 169.14414 -65.972674 
L 169.208258 -66.23016 
L 169.272375 -66.489687 
L 169.336492 -66.751259 
L 169.400609 -67.014878 
L 169.464726 -67.280547 
L 169.528843 -67.548269 
L 169.59296 -67.818046 
L 169.657077 -68.08988 
L 169.721194 -68.363772 
L 169.785311 -68.639725 
L 169.849429 -68.917739 
L 169.913546 -69.197816 
L 169.977663 -69.479956 
L 170.04178 -69.764161 
L 170.105897 -70.050431 
L 170.170014 -70.338766 
L 170.234131 -70.629165 
L 170.298248 -70.92163 
L 170.362365 -71.216158 
L 170.426483 -71.512751 
L 170.4906 -71.811405 
L 170.554717 -72.112121 
L 170.618834 -72.414897 
L 170.682951 -72.719731 
L 170.747068 -73.02662 
L 170.811185 -73.335563 
L 170.875302 -73.646558 
L 170.939419 -73.959601 
L 171.003537 -74.274689 
L 171.067654 -74.591819 
L 171.131771 -74.910988 
L 171.195888 -75.232191 
L 171.260005 -75.555424 
L 171.324122 -75.880683 
L 171.388239 -76.207964 
L 171.452356 -76.537261 
L 171.516473 -76.868568 
L 171.58059 -77.201881 
L 171.644708 -77.537194 
L 171.708825 -77.874499 
L 171.772942 -78.213792 
L 171.837059 -78.555065 
L 171.901176 -78.898311 
L 171.965293 -79.243523 
L 172.02941 -79.590693 
L 172.093527 -79.939813 
L 172.157644 -80.290876 
L 172.221762 -80.643872 
L 172.285879 -80.998792 
L 172.349996 -81.355629 
L 172.414113 -81.714371 
L 172.47823 -82.075009 
L 172.542347 -82.437534 
L 172.606464 -82.801935 
L 172.670581 -83.168201 
L 172.734698 -83.53632 
L 172.798816 -83.906283 
L 172.862933 -84.278077 
L 172.92705 -84.65169 
L 172.991167 -85.027109 
L 173.055284 -85.404323 
L 173.119401 -85.783318 
L 173.183518 -86.164082 
L 173.247635 -86.546599 
L 173.311752 -86.930857 
L 173.37587 -87.316841 
L 173.439987 -87.704537 
L 173.504104 -88.09393 
L 173.568221 -88.485004 
L 173.632338 -88.877744 
L 173.696455 -89.272134 
L 173.760572 -89.668159 
L 173.824689 -90.0658 
L 173.888806 -90.465042 
L 173.952923 -90.865867 
L 174.017041 -91.268258 
L 174.081158 -91.672197 
L 174.145275 -92.077665 
L 174.209392 -92.484645 
L 174.273509 -92.893117 
L 174.337626 -93.303062 
L 174.401743 -93.71446 
L 174.46586 -94.127292 
L 174.529977 -94.541538 
L 174.594095 -94.957177 
L 174.658212 -95.374188 
L 174.722329 -95.79255 
L 174.786446 -96.212242 
L 174.850563 -96.633241 
L 174.91468 -97.055526 
L 174.978797 -97.479074 
L 175.042914 -97.903863 
L 175.107031 -98.329868 
L 175.171149 -98.757068 
L 175.235266 -99.185437 
L 175.299383 -99.614953 
L 175.3635 -100.04559 
L 175.427617 -100.477324 
L 175.491734 -100.910129 
L 175.555851 -101.343981 
L 175.619968 -101.778854 
L 175.684085 -102.214722 
L 175.748202 -102.651558 
L 175.81232 -103.089337 
L 175.876437 -103.52803 
L 175.940554 -103.967611 
L 176.004671 -104.408053 
L 176.068788 -104.849327 
L 176.132905 -105.291406 
L 176.197022 -105.734261 
L 176.261139 -106.177863 
L 176.325256 -106.622184 
L 176.389374 -107.067193 
L 176.453491 -107.512863 
L 176.517608 -107.959162 
L 176.581725 -108.406061 
L 176.645842 -108.853529 
L 176.709959 -109.301536 
L 176.774076 -109.75005 
L 176.838193 -110.199041 
L 176.90231 -110.648477 
L 176.966428 -111.098326 
L 177.030545 -111.548556 
L 177.094662 -111.999136 
L 177.158779 -112.450031 
L 177.222896 -112.90121 
L 177.287013 -113.35264 
L 177.35113 -113.804288 
L 177.415247 -114.256119 
L 177.479364 -114.7081 
L 177.543481 -115.160197 
L 177.607599 -115.612377 
L 177.671716 -116.064604 
L 177.735833 -116.516843 
L 177.79995 -116.969061 
L 177.864067 -117.421222 
L 177.928184 -117.873291 
L 177.992301 -118.325231 
L 178.056418 -118.777008 
L 178.120535 -119.228586 
L 178.184653 -119.679928 
L 178.24877 -120.130998 
L 178.312887 -120.581761 
L 178.377004 -121.032178 
L 178.441121 -121.482213 
L 178.505238 -121.93183 
L 178.569355 -122.380991 
L 178.633472 -122.829659 
L 178.697589 -123.277797 
L 178.761707 -123.725366 
L 178.825824 -124.172329 
L 178.889941 -124.618649 
L 178.954058 -125.064287 
L 179.018175 -125.509204 
L 179.082292 -125.953363 
L 179.146409 -126.396726 
L 179.210526 -126.839253 
L 179.274643 -127.280907 
L 179.33876 -127.721648 
L 179.402878 -128.161437 
L 179.466995 -128.600236 
L 179.531112 -129.038006 
L 179.595229 -129.474707 
L 179.659346 -129.9103 
L 179.723463 -130.344747 
L 179.78758 -130.778007 
L 179.851697 -131.210042 
L 179.915814 -131.640812 
L 179.979932 -132.070277 
L 180.044049 -132.498399 
L 180.108166 -132.925137 
L 180.172283 -133.350452 
L 180.2364 -133.774304 
L 180.300517 -134.196654 
L 180.364634 -134.617461 
L 180.428751 -135.036688 
L 180.492868 -135.454293 
L 180.556986 -135.870237 
L 180.621103 -136.284481 
L 180.68522 -136.696985 
L 180.749337 -137.107709 
L 180.813454 -137.516614 
L 180.877571 -137.923661 
L 180.941688 -138.328809 
L 181.005805 -138.73202 
L 181.069922 -139.133254 
L 181.134039 -139.532471 
L 181.198157 -139.929634 
L 181.262274 -140.324702 
L 181.326391 -140.717636 
L 181.390508 -141.108397 
L 181.454625 -141.496948 
L 181.518742 -141.883248 
L 181.582859 -142.267259 
L 181.646976 -142.648942 
L 181.711093 -143.02826 
L 181.775211 -143.405173 
L 181.839328 -143.779644 
L 181.903445 -144.151635 
L 181.967562 -144.521107 
L 182.031679 -144.888024 
L 182.095796 -145.252346 
L 182.159913 -145.614037 
L 182.22403 -145.97306 
L 182.288147 -146.329378 
L 182.352265 -146.682953 
L 182.416382 -147.03375 
L 182.480499 -147.38173 
L 182.544616 -147.726859 
L 182.608733 -148.0691 
L 182.67285 -148.408418 
L 182.736967 -148.744775 
L 182.801084 -149.078138 
L 182.865201 -149.408471 
L 182.929318 -149.735739 
L 182.993436 -150.059907 
L 183.057553 -150.380941 
L 183.12167 -150.698806 
L 183.185787 -151.01347 
L 183.249904 -151.324897 
L 183.314021 -151.633055 
L 183.378138 -151.93791 
L 183.442255 -152.23943 
L 183.506372 -152.537582 
L 183.57049 -152.832334 
L 183.634607 -153.123655 
L 183.698724 -153.411511 
L 183.762841 -153.695873 
L 183.826958 -153.976709 
L 183.891075 -154.253989 
L 183.955192 -154.527682 
L 184.019309 -154.797758 
L 184.083426 -155.064188 
L 184.147544 -155.326942 
L 184.211661 -155.585992 
L 184.275778 -155.841309 
L 184.339895 -156.092864 
L 184.404012 -156.340631 
L 184.468129 -156.584581 
L 184.532246 -156.824687 
L 184.596363 -157.060924 
L 184.66048 -157.293264 
L 184.724597 -157.521681 
L 184.788715 -157.746151 
L 184.852832 -157.966648 
L 184.916949 -158.183147 
L 184.981066 -158.395624 
L 185.045183 -158.604056 
L 185.1093 -158.808419 
L 185.173417 -159.00869 
L 185.237534 -159.204846 
L 185.301651 -159.396865 
L 185.365769 -159.584727 
L 185.429886 -159.768408 
L 185.494003 -159.94789 
L 185.55812 -160.123151 
L 185.622237 -160.294171 
L 185.686354 -160.460932 
L 185.750471 -160.623414 
L 185.814588 -160.781598 
L 185.878705 -160.935468 
L 185.942823 -161.085004 
L 186.00694 -161.230191 
L 186.071057 -161.371012 
L 186.135174 -161.50745 
L 186.199291 -161.63949 
L 186.263408 -161.767117 
L 186.327525 -161.890316 
L 186.391642 -162.009074 
L 186.455759 -162.123376 
L 186.519876 -162.23321 
L 186.583994 -162.338562 
L 186.648111 -162.439422 
L 186.712228 -162.535776 
L 186.776345 -162.627615 
L 186.840462 -162.714927 
L 186.904579 -162.797703 
L 186.968696 -162.875934 
L 187.032813 -162.949609 
L 187.09693 -163.01872 
L 187.161048 -163.083261 
L 187.225165 -163.143222 
L 187.289282 -163.198598 
L 187.353399 -163.249381 
L 187.417516 -163.295566 
L 187.481633 -163.337149 
L 187.54575 -163.374123 
L 187.609867 -163.406484 
L 187.673984 -163.43423 
L 187.738102 -163.457356 
L 187.802219 -163.47586 
L 187.866336 -163.48974 
L 187.930453 -163.498994 
L 187.99457 -163.503621 
L 188.058687 -163.503621 
L 188.122804 -163.498994 
L 188.186921 -163.48974 
L 188.251038 -163.47586 
L 188.315156 -163.457356 
L 188.379273 -163.43423 
L 188.44339 -163.406484 
L 188.507507 -163.374123 
L 188.571624 -163.337149 
L 188.635741 -163.295566 
L 188.699858 -163.249381 
L 188.763975 -163.198598 
L 188.828092 -163.143222 
L 188.892209 -163.083261 
L 188.956327 -163.01872 
L 189.020444 -162.949609 
L 189.084561 -162.875934 
L 189.148678 -162.797703 
L 189.212795 -162.714927 
L 189.276912 -162.627615 
L 189.341029 -162.535776 
L 189.405146 -162.439422 
L 189.469263 -162.338562 
L 189.533381 -162.23321 
L 189.597498 -162.123376 
L 189.661615 -162.009074 
L 189.725732 -161.890316 
L 189.789849 -161.767117 
L 189.853966 -161.63949 
L 189.918083 -161.50745 
L 189.9822 -161.371012 
L 190.046317 -161.230191 
L 190.110435 -161.085004 
L 190.174552 -160.935468 
L 190.238669 -160.781598 
L 190.302786 -160.623414 
L 190.366903 -160.460932 
L 190.43102 -160.294171 
L 190.495137 -160.123151 
L 190.559254 -159.94789 
L 190.623371 -159.768408 
L 190.687488 -159.584727 
L 190.751606 -159.396865 
L 190.815723 -159.204846 
L 190.87984 -159.00869 
L 190.943957 -158.808419 
L 191.008074 -158.604056 
L 191.072191 -158.395624 
L 191.136308 -158.183147 
L 191.200425 -157.966648 
L 191.264542 -157.746151 
L 191.32866 -157.521681 
L 191.392777 -157.293264 
L 191.456894 -157.060924 
L 191.521011 -156.824687 
L 191.585128 -156.584581 
L 191.649245 -156.340631 
L 191.713362 -156.092864 
L 191.777479 -155.841309 
L 191.841596 -155.585992 
L 191.905714 -155.326942 
L 191.969831 -155.064188 
L 192.033948 -154.797758 
L 192.098065 -154.527682 
L 192.162182 -154.253989 
L 192.226299 -153.976709 
L 192.290416 -153.695873 
L 192.354533 -153.411511 
L 192.41865 -153.123655 
L 192.482767 -152.832334 
L 192.546885 -152.537582 
L 192.611002 -152.23943 
L 192.675119 -151.93791 
L 192.739236 -151.633055 
L 192.803353 -151.324897 
L 192.86747 -151.01347 
L 192.931587 -150.698806 
L 192.995704 -150.380941 
L 193.059821 -150.059907 
L 193.123939 -149.735739 
L 193.188056 -149.408471 
L 193.252173 -149.078138 
L 193.31629 -148.744775 
L 193.380407 -148.408418 
L 193.444524 -148.0691 
L 193.508641 -147.726859 
L 193.572758 -147.38173 
L 193.636875 -147.03375 
L 193.700993 -146.682953 
L 193.76511 -146.329378 
L 193.829227 -145.97306 
L 193.893344 -145.614037 
L 193.957461 -145.252346 
L 194.021578 -144.888024 
L 194.085695 -144.521107 
L 194.149812 -144.151635 
L 194.213929 -143.779644 
L 194.278046 -143.405173 
L 194.342164 -143.02826 
L 194.406281 -142.648942 
L 194.470398 -142.267259 
L 194.534515 -141.883248 
L 194.598632 -141.496948 
L 194.662749 -141.108397 
L 194.726866 -140.717636 
L 194.790983 -140.324702 
L 194.8551 -139.929634 
L 194.919218 -139.532471 
L 194.983335 -139.133254 
L 195.047452 -138.73202 
L 195.111569 -138.328809 
L 195.175686 -137.923661 
L 195.239803 -137.516614 
L 195.30392 -137.107709 
L 195.368037 -136.696985 
L 195.432154 -136.284481 
L 195.496272 -135.870237 
L 195.560389 -135.454293 
L 195.624506 -135.036688 
L 195.688623 -134.617461 
L 195.75274 -134.196654 
L 195.816857 -133.774304 
L 195.880974 -133.350452 
L 195.945091 -132.925137 
L 196.009208 -132.498399 
L 196.073325 -132.070277 
L 196.137443 -131.640812 
L 196.20156 -131.210042 
L 196.265677 -130.778007 
L 196.329794 -130.344747 
L 196.393911 -129.9103 
L 196.458028 -129.474707 
L 196.522145 -129.038006 
L 196.586262 -128.600236 
L 196.650379 -128.161437 
L 196.714497 -127.721648 
L 196.778614 -127.280907 
L 196.842731 -126.839253 
L 196.906848 -126.396726 
L 196.970965 -125.953363 
L 197.035082 -125.509204 
L 197.099199 -125.064287 
L 197.163316 -124.618649 
L 197.227433 -124.172329 
L 197.291551 -123.725366 
L 197.355668 -123.277797 
L 197.419785 -122.829659 
L 197.483902 -122.380991 
L 197.548019 -121.93183 
L 197.612136 -121.482213 
L 197.676253 -121.032178 
L 197.74037 -120.581761 
L 197.804487 -120.130998 
L 197.868604 -119.679928 
L 197.932722 -119.228586 
L 197.996839 -118.777008 
L 198.060956 -118.325231 
L 198.125073 -117.873291 
L 198.18919 -117.421222 
L 198.253307 -116.969061 
L 198.317424 -116.516843 
L 198.381541 -116.064604 
L 198.445658 -115.612377 
L 198.509776 -115.160197 
L 198.573893 -114.7081 
L 198.63801 -114.256119 
L 198.702127 -113.804288 
L 198.766244 -113.35264 
L 198.830361 -112.90121 
L 198.894478 -112.450031 
L 198.958595 -111.999136 
L 199.022712 -111.548556 
L 199.08683 -111.098326 
L 199.150947 -110.648477 
L 199.215064 -110.199041 
L 199.279181 -109.75005 
L 199.343298 -109.301536 
L 199.407415 -108.853529 
L 199.471532 -108.406061 
L 199.535649 -107.959162 
L 199.599766 -107.512863 
L 199.663883 -107.067193 
L 199.728001 -106.622184 
L 199.792118 -106.177863 
L 199.856235 -105.734261 
L 199.920352 -105.291406 
L 199.984469 -104.849327 
L 200.048586 -104.408053 
L 200.112703 -103.967611 
L 200.17682 -103.52803 
L 200.240937 -103.089337 
L 200.305055 -102.651558 
L 200.369172 -102.214722 
L 200.433289 -101.778854 
L 200.497406 -101.343981 
L 200.561523 -100.910129 
L 200.62564 -100.477324 
L 200.689757 -100.04559 
L 200.753874 -99.614953 
L 200.817991 -99.185437 
L 200.882109 -98.757068 
L 200.946226 -98.329868 
L 201.010343 -97.903863 
L 201.07446 -97.479074 
L 201.138577 -97.055526 
L 201.202694 -96.633241 
L 201.266811 -96.212242 
L 201.330928 -95.79255 
L 201.395045 -95.374188 
L 201.459163 -94.957177 
L 201.52328 -94.541538 
L 201.587397 -94.127292 
L 201.651514 -93.71446 
L 201.715631 -93.303062 
L 201.779748 -92.893117 
L 201.843865 -92.484645 
L 201.907982 -92.077665 
L 201.972099 -91.672197 
L 202.036216 -91.268258 
L 202.100334 -90.865867 
L 202.164451 -90.465042 
L 202.228568 -90.0658 
L 202.292685 -89.668159 
L 202.356802 -89.272134 
L 202.420919 -88.877744 
L 202.485036 -88.485004 
L 202.549153 -88.09393 
L 202.61327 -87.704537 
L 202.677388 -87.316841 
L 202.741505 -86.930857 
L 202.805622 -86.546599 
L 202.869739 -86.164082 
L 202.933856 -85.783318 
L 202.997973 -85.404323 
L 203.06209 -85.027109 
L 203.126207 -84.65169 
L 203.190324 -84.278077 
L 203.254442 -83.906283 
L 203.318559 -83.53632 
L 203.382676 -83.168201 
L 203.446793 -82.801935 
L 203.51091 -82.437534 
L 203.575027 -82.075009 
L 203.639144 -81.714371 
L 203.703261 -81.355629 
L 203.767378 -80.998792 
L 203.831495 -80.643872 
L 203.895613 -80.290876 
L 203.95973 -79.939813 
L 204.023847 -79.590693 
L 204.087964 -79.243523 
L 204.152081 -78.898311 
L 204.216198 -78.555065 
L 204.280315 -78.213792 
L 204.344432 -77.874499 
L 204.408549 -77.537194 
L 204.472667 -77.201881 
L 204.536784 -76.868568 
L 204.600901 -76.537261 
L 204.665018 -76.207964 
L 204.729135 -75.880683 
L 204.793252 -75.555424 
L 204.857369 -75.232191 
L 204.921486 -74.910988 
L 204.985603 -74.591819 
L 205.049721 -74.274689 
L 205.113838 -73.959601 
L 205.177955 -73.646558 
L 205.242072 -73.335563 
L 205.306189 -73.02662 
L 205.370306 -72.719731 
L 205.434423 -72.414897 
L 205.49854 -72.112121 
L 205.562657 -71.811405 
L 205.626774 -71.512751 
L 205.690892 -71.216158 
L 205.755009 -70.92163 
L 205.819126 -70.629165 
L 205.883243 -70.338766 
L 205.94736 -70.050431 
L 206.011477 -69.764161 
L 206.075594 -69.479956 
L 206.139711 -69.197816 
L 206.203828 -68.917739 
L 206.267946 -68.639725 
L 206.332063 -68.363772 
L 206.39618 -68.08988 
L 206.460297 -67.818046 
L 206.524414 -67.548269 
L 206.588531 -67.280547 
L 206.652648 -67.014878 
L 206.716765 -66.751259 
L 206.780882 -66.489687 
L 206.845 -66.23016 
L 206.909117 -65.972674 
L 206.973234 -65.717227 
L 207.037351 -65.463815 
L 207.101468 -65.212433 
L 207.165585 -64.963079 
L 207.229702 -64.715749 
L 207.293819 -64.470437 
L 207.357936 -64.22714 
L 207.422053 -63.985853 
L 207.486171 -63.746571 
L 207.550288 -63.50929 
L 207.614405 -63.274004 
L 207.678522 -63.040708 
L 207.742639 -62.809396 
L 207.806756 -62.580064 
L 207.870873 -62.352704 
L 207.93499 -62.127312 
L 207.999107 -61.90388 
L 208.063225 -61.682404 
L 208.127342 -61.462876 
L 208.191459 -61.24529 
L 208.255576 -61.029639 
L 208.255576 -43.363125 
L 208.255576 -43.363125 
L 208.191459 -43.363125 
L 208.127342 -43.363125 
L 208.063225 -43.363125 
L 207.999107 -43.363125 
L 207.93499 -43.363125 
L 207.870873 -43.363125 
L 207.806756 -43.363125 
L 207.742639 -43.363125 
L 207.678522 -43.363125 
L 207.614405 -43.363125 
L 207.550288 -43.363125 
L 207.486171 -43.363125 
L 207.422053 -43.363125 
L 207.357936 -43.363125 
L 207.293819 -43.363125 
L 207.229702 -43.363125 
L 207.165585 -43.363125 
L 207.101468 -43.363125 
L 207.037351 -43.363125 
L 206.973234 -43.363125 
L 206.909117 -43.363125 
L 206.845 -43.363125 
L 206.780882 -43.363125 
L 206.716765 -43.363125 
L 206.652648 -43.363125 
L 206.588531 -43.363125 
L 206.524414 -43.363125 
L 206.460297 -43.363125 
L 206.39618 -43.363125 
L 206.332063 -43.363125 
L 206.267946 -43.363125 
L 206.203828 -43.363125 
L 206.139711 -43.363125 
L 206.075594 -43.363125 
L 206.011477 -43.363125 
L 205.94736 -43.363125 
L 205.883243 -43.363125 
L 205.819126 -43.363125 
L 205.755009 -43.363125 
L 205.690892 -43.363125 
L 205.626774 -43.363125 
L 205.562657 -43.363125 
L 205.49854 -43.363125 
L 205.434423 -43.363125 
L 205.370306 -43.363125 
L 205.306189 -43.363125 
L 205.242072 -43.363125 
L 205.177955 -43.363125 
L 205.113838 -43.363125 
L 205.049721 -43.363125 
L 204.985603 -43.363125 
L 204.921486 -43.363125 
L 204.857369 -43.363125 
L 204.793252 -43.363125 
L 204.729135 -43.363125 
L 204.665018 -43.363125 
L 204.600901 -43.363125 
L 204.536784 -43.363125 
L 204.472667 -43.363125 
L 204.408549 -43.363125 
L 204.344432 -43.363125 
L 204.280315 -43.363125 
L 204.216198 -43.363125 
L 204.152081 -43.363125 
L 204.087964 -43.363125 
L 204.023847 -43.363125 
L 203.95973 -43.363125 
L 203.895613 -43.363125 
L 203.831495 -43.363125 
L 203.767378 -43.363125 
L 203.703261 -43.363125 
L 203.639144 -43.363125 
L 203.575027 -43.363125 
L 203.51091 -43.363125 
L 203.446793 -43.363125 
L 203.382676 -43.363125 
L 203.318559 -43.363125 
L 203.254442 -43.363125 
L 203.190324 -43.363125 
L 203.126207 -43.363125 
L 203.06209 -43.363125 
L 202.997973 -43.363125 
L 202.933856 -43.363125 
L 202.869739 -43.363125 
L 202.805622 -43.363125 
L 202.741505 -43.363125 
L 202.677388 -43.363125 
L 202.61327 -43.363125 
L 202.549153 -43.363125 
L 202.485036 -43.363125 
L 202.420919 -43.363125 
L 202.356802 -43.363125 
L 202.292685 -43.363125 
L 202.228568 -43.363125 
L 202.164451 -43.363125 
L 202.100334 -43.363125 
L 202.036216 -43.363125 
L 201.972099 -43.363125 
L 201.907982 -43.363125 
L 201.843865 -43.363125 
L 201.779748 -43.363125 
L 201.715631 -43.363125 
L 201.651514 -43.363125 
L 201.587397 -43.363125 
L 201.52328 -43.363125 
L 201.459163 -43.363125 
L 201.395045 -43.363125 
L 201.330928 -43.363125 
L 201.266811 -43.363125 
L 201.202694 -43.363125 
L 201.138577 -43.363125 
L 201.07446 -43.363125 
L 201.010343 -43.363125 
L 200.946226 -43.363125 
L 200.882109 -43.363125 
L 200.817991 -43.363125 
L 200.753874 -43.363125 
L 200.689757 -43.363125 
L 200.62564 -43.363125 
L 200.561523 -43.363125 
L 200.497406 -43.363125 
L 200.433289 -43.363125 
L 200.369172 -43.363125 
L 200.305055 -43.363125 
L 200.240937 -43.363125 
L 200.17682 -43.363125 
L 200.112703 -43.363125 
L 200.048586 -43.363125 
L 199.984469 -43.363125 
L 199.920352 -43.363125 
L 199.856235 -43.363125 
L 199.792118 -43.363125 
L 199.728001 -43.363125 
L 199.663883 -43.363125 
L 199.599766 -43.363125 
L 199.535649 -43.363125 
L 199.471532 -43.363125 
L 199.407415 -43.363125 
L 199.343298 -43.363125 
L 199.279181 -43.363125 
L 199.215064 -43.363125 
L 199.150947 -43.363125 
L 199.08683 -43.363125 
L 199.022712 -43.363125 
L 198.958595 -43.363125 
L 198.894478 -43.363125 
L 198.830361 -43.363125 
L 198.766244 -43.363125 
L 198.702127 -43.363125 
L 198.63801 -43.363125 
L 198.573893 -43.363125 
L 198.509776 -43.363125 
L 198.445658 -43.363125 
L 198.381541 -43.363125 
L 198.317424 -43.363125 
L 198.253307 -43.363125 
L 198.18919 -43.363125 
L 198.125073 -43.363125 
L 198.060956 -43.363125 
L 197.996839 -43.363125 
L 197.932722 -43.363125 
L 197.868604 -43.363125 
L 197.804487 -43.363125 
L 197.74037 -43.363125 
L 197.676253 -43.363125 
L 197.612136 -43.363125 
L 197.548019 -43.363125 
L 197.483902 -43.363125 
L 197.419785 -43.363125 
L 197.355668 -43.363125 
L 197.291551 -43.363125 
L 197.227433 -43.363125 
L 197.163316 -43.363125 
L 197.099199 -43.363125 
L 197.035082 -43.363125 
L 196.970965 -43.363125 
L 196.906848 -43.363125 
L 196.842731 -43.363125 
L 196.778614 -43.363125 
L 196.714497 -43.363125 
L 196.650379 -43.363125 
L 196.586262 -43.363125 
L 196.522145 -43.363125 
L 196.458028 -43.363125 
L 196.393911 -43.363125 
L 196.329794 -43.363125 
L 196.265677 -43.363125 
L 196.20156 -43.363125 
L 196.137443 -43.363125 
L 196.073325 -43.363125 
L 196.009208 -43.363125 
L 195.945091 -43.363125 
L 195.880974 -43.363125 
L 195.816857 -43.363125 
L 195.75274 -43.363125 
L 195.688623 -43.363125 
L 195.624506 -43.363125 
L 195.560389 -43.363125 
L 195.496272 -43.363125 
L 195.432154 -43.363125 
L 195.368037 -43.363125 
L 195.30392 -43.363125 
L 195.239803 -43.363125 
L 195.175686 -43.363125 
L 195.111569 -43.363125 
L 195.047452 -43.363125 
L 194.983335 -43.363125 
L 194.919218 -43.363125 
L 194.8551 -43.363125 
L 194.790983 -43.363125 
L 194.726866 -43.363125 
L 194.662749 -43.363125 
L 194.598632 -43.363125 
L 194.534515 -43.363125 
L 194.470398 -43.363125 
L 194.406281 -43.363125 
L 194.342164 -43.363125 
L 194.278046 -43.363125 
L 194.213929 -43.363125 
L 194.149812 -43.363125 
L 194.085695 -43.363125 
L 194.021578 -43.363125 
L 193.957461 -43.363125 
L 193.893344 -43.363125 
L 193.829227 -43.363125 
L 193.76511 -43.363125 
L 193.700993 -43.363125 
L 193.636875 -43.363125 
L 193.572758 -43.363125 
L 193.508641 -43.363125 
L 193.444524 -43.363125 
L 193.380407 -43.363125 
L 193.31629 -43.363125 
L 193.252173 -43.363125 
L 193.188056 -43.363125 
L 193.123939 -43.363125 
L 193.059821 -43.363125 
L 192.995704 -43.363125 
L 192.931587 -43.363125 
L 192.86747 -43.363125 
L 192.803353 -43.363125 
L 192.739236 -43.363125 
L 192.675119 -43.363125 
L 192.611002 -43.363125 
L 192.546885 -43.363125 
L 192.482767 -43.363125 
L 192.41865 -43.363125 
L 192.354533 -43.363125 
L 192.290416 -43.363125 
L 192.226299 -43.363125 
L 192.162182 -43.363125 
L 192.098065 -43.363125 
L 192.033948 -43.363125 
L 191.969831 -43.363125 
L 191.905714 -43.363125 
L 191.841596 -43.363125 
L 191.777479 -43.363125 
L 191.713362 -43.363125 
L 191.649245 -43.363125 
L 191.585128 -43.363125 
L 191.521011 -43.363125 
L 191.456894 -43.363125 
L 191.392777 -43.363125 
L 191.32866 -43.363125 
L 191.264542 -43.363125 
L 191.200425 -43.363125 
L 191.136308 -43.363125 
L 191.072191 -43.363125 
L 191.008074 -43.363125 
L 190.943957 -43.363125 
L 190.87984 -43.363125 
L 190.815723 -43.363125 
L 190.751606 -43.363125 
L 190.687488 -43.363125 
L 190.623371 -43.363125 
L 190.559254 -43.363125 
L 190.495137 -43.363125 
L 190.43102 -43.363125 
L 190.366903 -43.363125 
L 190.302786 -43.363125 
L 190.238669 -43.363125 
L 190.174552 -43.363125 
L 190.110435 -43.363125 
L 190.046317 -43.363125 
L 189.9822 -43.363125 
L 189.918083 -43.363125 
L 189.853966 -43.363125 
L 189.789849 -43.363125 
L 189.725732 -43.363125 
L 189.661615 -43.363125 
L 189.597498 -43.363125 
L 189.533381 -43.363125 
L 189.469263 -43.363125 
L 189.405146 -43.363125 
L 189.341029 -43.363125 
L 189.276912 -43.363125 
L 189.212795 -43.363125 
L 189.148678 -43.363125 
L 189.084561 -43.363125 
L 189.020444 -43.363125 
L 188.956327 -43.363125 
L 188.892209 -43.363125 
L 188.828092 -43.363125 
L 188.763975 -43.363125 
L 188.699858 -43.363125 
L 188.635741 -43.363125 
L 188.571624 -43.363125 
L 188.507507 -43.363125 
L 188.44339 -43.363125 
L 188.379273 -43.363125 
L 188.315156 -43.363125 
L 188.251038 -43.363125 
L 188.186921 -43.363125 
L 188.122804 -43.363125 
L 188.058687 -43.363125 
L 187.99457 -43.363125 
L 187.930453 -43.363125 
L 187.866336 -43.363125 
L 187.802219 -43.363125 
L 187.738102 -43.363125 
L 187.673984 -43.363125 
L 187.609867 -43.363125 
L 187.54575 -43.363125 
L 187.481633 -43.363125 
L 187.417516 -43.363125 
L 187.353399 -43.363125 
L 187.289282 -43.363125 
L 187.225165 -43.363125 
L 187.161048 -43.363125 
L 187.09693 -43.363125 
L 187.032813 -43.363125 
L 186.968696 -43.363125 
L 186.904579 -43.363125 
L 186.840462 -43.363125 
L 186.776345 -43.363125 
L 186.712228 -43.363125 
L 186.648111 -43.363125 
L 186.583994 -43.363125 
L 186.519876 -43.363125 
L 186.455759 -43.363125 
L 186.391642 -43.363125 
L 186.327525 -43.363125 
L 186.263408 -43.363125 
L 186.199291 -43.363125 
L 186.135174 -43.363125 
L 186.071057 -43.363125 
L 186.00694 -43.363125 
L 185.942823 -43.363125 
L 185.878705 -43.363125 
L 185.814588 -43.363125 
L 185.750471 -43.363125 
L 185.686354 -43.363125 
L 185.622237 -43.363125 
L 185.55812 -43.363125 
L 185.494003 -43.363125 
L 185.429886 -43.363125 
L 185.365769 -43.363125 
L 185.301651 -43.363125 
L 185.237534 -43.363125 
L 185.173417 -43.363125 
L 185.1093 -43.363125 
L 185.045183 -43.363125 
L 184.981066 -43.363125 
L 184.916949 -43.363125 
L 184.852832 -43.363125 
L 184.788715 -43.363125 
L 184.724597 -43.363125 
L 184.66048 -43.363125 
L 184.596363 -43.363125 
L 184.532246 -43.363125 
L 184.468129 -43.363125 
L 184.404012 -43.363125 
L 184.339895 -43.363125 
L 184.275778 -43.363125 
L 184.211661 -43.363125 
L 184.147544 -43.363125 
L 184.083426 -43.363125 
L 184.019309 -43.363125 
L 183.955192 -43.363125 
L 183.891075 -43.363125 
L 183.826958 -43.363125 
L 183.762841 -43.363125 
L 183.698724 -43.363125 
L 183.634607 -43.363125 
L 183.57049 -43.363125 
L 183.506372 -43.363125 
L 183.442255 -43.363125 
L 183.378138 -43.363125 
L 183.314021 -43.363125 
L 183.249904 -43.363125 
L 183.185787 -43.363125 
L 183.12167 -43.363125 
L 183.057553 -43.363125 
L 182.993436 -43.363125 
L 182.929318 -43.363125 
L 182.865201 -43.363125 
L 182.801084 -43.363125 
L 182.736967 -43.363125 
L 182.67285 -43.363125 
L 182.608733 -43.363125 
L 182.544616 -43.363125 
L 182.480499 -43.363125 
L 182.416382 -43.363125 
L 182.352265 -43.363125 
L 182.288147 -43.363125 
L 182.22403 -43.363125 
L 182.159913 -43.363125 
L 182.095796 -43.363125 
L 182.031679 -43.363125 
L 181.967562 -43.363125 
L 181.903445 -43.363125 
L 181.839328 -43.363125 
L 181.775211 -43.363125 
L 181.711093 -43.363125 
L 181.646976 -43.363125 
L 181.582859 -43.363125 
L 181.518742 -43.363125 
L 181.454625 -43.363125 
L 181.390508 -43.363125 
L 181.326391 -43.363125 
L 181.262274 -43.363125 
L 181.198157 -43.363125 
L 181.134039 -43.363125 
L 181.069922 -43.363125 
L 181.005805 -43.363125 
L 180.941688 -43.363125 
L 180.877571 -43.363125 
L 180.813454 -43.363125 
L 180.749337 -43.363125 
L 180.68522 -43.363125 
L 180.621103 -43.363125 
L 180.556986 -43.363125 
L 180.492868 -43.363125 
L 180.428751 -43.363125 
L 180.364634 -43.363125 
L 180.300517 -43.363125 
L 180.2364 -43.363125 
L 180.172283 -43.363125 
L 180.108166 -43.363125 
L 180.044049 -43.363125 
L 179.979932 -43.363125 
L 179.915814 -43.363125 
L 179.851697 -43.363125 
L 179.78758 -43.363125 
L 179.723463 -43.363125 
L 179.659346 -43.363125 
L 179.595229 -43.363125 
L 179.531112 -43.363125 
L 179.466995 -43.363125 
L 179.402878 -43.363125 
L 179.33876 -43.363125 
L 179.274643 -43.363125 
L 179.210526 -43.363125 
L 179.146409 -43.363125 
L 179.082292 -43.363125 
L 179.018175 -43.363125 
L 178.954058 -43.363125 
L 178.889941 -43.363125 
L 178.825824 -43.363125 
L 178.761707 -43.363125 
L 178.697589 -43.363125 
L 178.633472 -43.363125 
L 178.569355 -43.363125 
L 178.505238 -43.363125 
L 178.441121 -43.363125 
L 178.377004 -43.363125 
L 178.312887 -43.363125 
L 178.24877 -43.363125 
L 178.184653 -43.363125 
L 178.120535 -43.363125 
L 178.056418 -43.363125 
L 177.992301 -43.363125 
L 177.928184 -43.363125 
L 177.864067 -43.363125 
L 177.79995 -43.363125 
L 177.735833 -43.363125 
L 177.671716 -43.363125 
L 177.607599 -43.363125 
L 177.543481 -43.363125 
L 177.479364 -43.363125 
L 177.415247 -43.363125 
L 177.35113 -43.363125 
L 177.287013 -43.363125 
L 177.222896 -43.363125 
L 177.158779 -43.363125 
L 177.094662 -43.363125 
L 177.030545 -43.363125 
L 176.966428 -43.363125 
L 176.90231 -43.363125 
L 176.838193 -43.363125 
L 176.774076 -43.363125 
L 176.709959 -43.363125 
L 176.645842 -43.363125 
L 176.581725 -43.363125 
L 176.517608 -43.363125 
L 176.453491 -43.363125 
L 176.389374 -43.363125 
L 176.325256 -43.363125 
L 176.261139 -43.363125 
L 176.197022 -43.363125 
L 176.132905 -43.363125 
L 176.068788 -43.363125 
L 176.004671 -43.363125 
L 175.940554 -43.363125 
L 175.876437 -43.363125 
L 175.81232 -43.363125 
L 175.748202 -43.363125 
L 175.684085 -43.363125 
L 175.619968 -43.363125 
L 175.555851 -43.363125 
L 175.491734 -43.363125 
L 175.427617 -43.363125 
L 175.3635 -43.363125 
L 175.299383 -43.363125 
L 175.235266 -43.363125 
L 175.171149 -43.363125 
L 175.107031 -43.363125 
L 175.042914 -43.363125 
L 174.978797 -43.363125 
L 174.91468 -43.363125 
L 174.850563 -43.363125 
L 174.786446 -43.363125 
L 174.722329 -43.363125 
L 174.658212 -43.363125 
L 174.594095 -43.363125 
L 174.529977 -43.363125 
L 174.46586 -43.363125 
L 174.401743 -43.363125 
L 174.337626 -43.363125 
L 174.273509 -43.363125 
L 174.209392 -43.363125 
L 174.145275 -43.363125 
L 174.081158 -43.363125 
L 174.017041 -43.363125 
L 173.952923 -43.363125 
L 173.888806 -43.363125 
L 173.824689 -43.363125 
L 173.760572 -43.363125 
L 173.696455 -43.363125 
L 173.632338 -43.363125 
L 173.568221 -43.363125 
L 173.504104 -43.363125 
L 173.439987 -43.363125 
L 173.37587 -43.363125 
L 173.311752 -43.363125 
L 173.247635 -43.363125 
L 173.183518 -43.363125 
L 173.119401 -43.363125 
L 173.055284 -43.363125 
L 172.991167 -43.363125 
L 172.92705 -43.363125 
L 172.862933 -43.363125 
L 172.798816 -43.363125 
L 172.734698 -43.363125 
L 172.670581 -43.363125 
L 172.606464 -43.363125 
L 172.542347 -43.363125 
L 172.47823 -43.363125 
L 172.414113 -43.363125 
L 172.349996 -43.363125 
L 172.285879 -43.363125 
L 172.221762 -43.363125 
L 172.157644 -43.363125 
L 172.093527 -43.363125 
L 172.02941 -43.363125 
L 171.965293 -43.363125 
L 171.901176 -43.363125 
L 171.837059 -43.363125 
L 171.772942 -43.363125 
L 171.708825 -43.363125 
L 171.644708 -43.363125 
L 171.58059 -43.363125 
L 171.516473 -43.363125 
L 171.452356 -43.363125 
L 171.388239 -43.363125 
L 171.324122 -43.363125 
L 171.260005 -43.363125 
L 171.195888 -43.363125 
L 171.131771 -43.363125 
L 171.067654 -43.363125 
L 171.003537 -43.363125 
L 170.939419 -43.363125 
L 170.875302 -43.363125 
L 170.811185 -43.363125 
L 170.747068 -43.363125 
L 170.682951 -43.363125 
L 170.618834 -43.363125 
L 170.554717 -43.363125 
L 170.4906 -43.363125 
L 170.426483 -43.363125 
L 170.362365 -43.363125 
L 170.298248 -43.363125 
L 170.234131 -43.363125 
L 170.170014 -43.363125 
L 170.105897 -43.363125 
L 170.04178 -43.363125 
L 169.977663 -43.363125 
L 169.913546 -43.363125 
L 169.849429 -43.363125 
L 169.785311 -43.363125 
L 169.721194 -43.363125 
L 169.657077 -43.363125 
L 169.59296 -43.363125 
L 169.528843 -43.363125 
L 169.464726 -43.363125 
L 169.400609 -43.363125 
L 169.336492 -43.363125 
L 169.272375 -43.363125 
L 169.208258 -43.363125 
L 169.14414 -43.363125 
L 169.080023 -43.363125 
L 169.015906 -43.363125 
L 168.951789 -43.363125 
L 168.887672 -43.363125 
L 168.823555 -43.363125 
L 168.759438 -43.363125 
L 168.695321 -43.363125 
L 168.631204 -43.363125 
L 168.567086 -43.363125 
L 168.502969 -43.363125 
L 168.438852 -43.363125 
L 168.374735 -43.363125 
L 168.310618 -43.363125 
L 168.246501 -43.363125 
L 168.182384 -43.363125 
L 168.118267 -43.363125 
L 168.05415 -43.363125 
L 167.990032 -43.363125 
L 167.925915 -43.363125 
L 167.861798 -43.363125 
L 167.797681 -43.363125 
z
" style="stroke: #005587; stroke-opacity: 0.25"/>
    </defs>
    <g clip-path="url(#p38d37c6229)">
     <use xlink:href="#m73d97d6321" x="0" y="258.463125" style="fill: #005587; fill-opacity: 0.25; stroke: #005587; stroke-opacity: 0.25"/>
    </g>
   </g>
   <g id="matplotlib.axis_4"/>
   <g id="line2d_7">
    <path d="M 156.000133 214.116201 
L 157.603061 213.527587 
L 159.013637 212.771163 
L 160.29598 211.825241 
L 161.514205 210.63707 
L 162.668313 209.192353 
L 163.822421 207.376942 
L 164.976528 205.128873 
L 166.130636 202.386081 
L 167.348861 198.889445 
L 168.631204 194.477272 
L 169.977663 188.983169 
L 171.388239 182.255161 
L 172.92705 173.811435 
L 174.722329 162.670575 
L 177.158779 146.013094 
L 181.005805 119.731105 
L 182.608733 110.394025 
L 183.826958 104.486416 
L 184.852832 100.496477 
L 185.750471 97.839711 
L 186.519876 96.229915 
L 187.161048 95.379864 
L 187.673984 95.028895 
L 188.122804 94.964131 
L 188.571624 95.125976 
L 189.084561 95.587191 
L 189.661615 96.454051 
L 190.302786 97.839711 
L 191.072191 100.067501 
L 191.969831 103.398937 
L 192.995704 108.082184 
L 194.278046 115.057952 
L 195.880974 125.112673 
L 198.445658 142.850748 
L 201.715631 165.160063 
L 203.639144 176.748754 
L 205.242072 185.127562 
L 206.716765 191.711866 
L 208.127342 197.000249 
L 209.409684 200.992688 
L 210.692026 204.272584 
L 211.910251 206.798554 
L 213.128476 208.823118 
L 214.346701 210.419465 
L 215.564926 211.65802 
L 216.847268 212.646581 
L 218.193728 213.408851 
L 219.732538 214.017383 
L 220.053124 214.116201 
L 220.053124 214.116201 
" clip-path="url(#p38d37c6229)" style="fill: none; stroke: #005587; stroke-width: 1.5; stroke-linecap: square"/>
   </g>
   <g id="patch_7">
    <path d="M 22.984375 215.1 
L 357.784375 215.1 
" style="fill: none; stroke: #030303; stroke-width: 1.5; stroke-linejoin: miter; stroke-linecap: square"/>
   </g>
  </g>
  <g id="axes_4">
   <g id="FillBetweenPolyCollection_2">
    <defs>
     <path id="ma5010a1f15" d="M 156.551474 -43.363125 
L 156.551474 -80.241019 
L 157.096142 -89.506447 
L 157.64081 -100.182773 
L 158.185478 -112.218076 
L 158.730147 -125.477418 
L 159.274815 -139.734773 
L 159.819483 -154.671223 
L 160.364152 -169.880794 
L 160.90882 -184.884667 
L 161.453488 -199.153589 
L 161.998156 -212.137355 
L 162.542825 -223.299243 
L 163.087493 -232.152481 
L 163.632161 -238.295337 
L 164.17683 -241.441317 
L 164.721498 -241.441317 
L 165.266166 -238.295337 
L 165.810834 -232.152481 
L 166.355503 -223.299243 
L 166.900171 -212.137355 
L 167.444839 -199.153589 
L 167.989508 -184.884667 
L 168.534176 -169.880794 
L 169.078844 -154.671223 
L 169.623512 -139.734773 
L 170.168181 -125.477418 
L 170.712849 -112.218076 
L 171.257517 -100.182773 
L 171.802186 -89.506447 
L 172.346854 -80.241019 
L 172.346854 -43.363125 
L 172.346854 -43.363125 
L 171.802186 -43.363125 
L 171.257517 -43.363125 
L 170.712849 -43.363125 
L 170.168181 -43.363125 
L 169.623512 -43.363125 
L 169.078844 -43.363125 
L 168.534176 -43.363125 
L 167.989508 -43.363125 
L 167.444839 -43.363125 
L 166.900171 -43.363125 
L 166.355503 -43.363125 
L 165.810834 -43.363125 
L 165.266166 -43.363125 
L 164.721498 -43.363125 
L 164.17683 -43.363125 
L 163.632161 -43.363125 
L 163.087493 -43.363125 
L 162.542825 -43.363125 
L 161.998156 -43.363125 
L 161.453488 -43.363125 
L 160.90882 -43.363125 
L 160.364152 -43.363125 
L 159.819483 -43.363125 
L 159.274815 -43.363125 
L 158.730147 -43.363125 
L 158.185478 -43.363125 
L 157.64081 -43.363125 
L 157.096142 -43.363125 
L 156.551474 -43.363125 
z
" style="stroke: #dc143c; stroke-opacity: 0.25"/>
    </defs>
    <g clip-path="url(#p38d37c6229)">
     <use xlink:href="#ma5010a1f15" x="0" y="258.463125" style="fill: #dc143c; fill-opacity: 0.25; stroke: #dc143c; stroke-opacity: 0.25"/>
    </g>
   </g>
   <g id="matplotlib.axis_5"/>
   <g id="line2d_8">
    <path d="M 151.104791 213.474748 
L 151.649459 212.713321 
L 152.194127 211.650832 
L 152.738796 210.194521 
L 153.283464 208.23413 
L 153.828132 205.64293 
L 154.3728 202.280691 
L 154.917469 197.999076 
L 155.462137 192.649735 
L 156.006805 186.09517 
L 156.551474 178.222106 
L 157.096142 168.956678 
L 157.64081 158.280352 
L 158.185478 146.245049 
L 158.730147 132.985707 
L 159.274815 118.728352 
L 159.819483 103.791902 
L 160.364152 88.582331 
L 160.90882 73.578458 
L 161.453488 59.309536 
L 161.998156 46.32577 
L 162.542825 35.163882 
L 163.087493 26.310644 
L 163.632161 20.167788 
L 164.17683 17.021808 
L 164.721498 17.021808 
L 165.266166 20.167788 
L 165.810834 26.310644 
L 166.355503 35.163882 
L 166.900171 46.32577 
L 167.444839 59.309536 
L 167.989508 73.578458 
L 168.534176 88.582331 
L 169.078844 103.791902 
L 169.623512 118.728352 
L 170.168181 132.985707 
L 170.712849 146.245049 
L 171.257517 158.280352 
L 171.802186 168.956678 
L 172.346854 178.222106 
L 172.891522 186.09517 
L 173.43619 192.649735 
L 173.980859 197.999076 
L 174.525527 202.280691 
L 175.070195 205.64293 
L 175.614864 208.23413 
L 176.159532 210.194521 
L 176.7042 211.650832 
L 177.248868 212.713321 
L 177.793537 213.474748 
" clip-path="url(#p38d37c6229)" style="fill: none; stroke: #dc143c; stroke-width: 1.5; stroke-linecap: square"/>
   </g>
   <g id="patch_8">
    <path d="M 22.984375 215.1 
L 357.784375 215.1 
" style="fill: none; stroke: #030303; stroke-width: 1.5; stroke-linejoin: miter; stroke-linecap: square"/>
   </g>
  </g>
  <g id="axes_5">
   <g id="matplotlib.axis_6"/>
   <g id="patch_9">
    <path d="M 22.984375 215.1 
L 357.784375 215.1 
" style="fill: none; stroke: #030303; stroke-width: 1.5; stroke-linejoin: miter; stroke-linecap: square"/>
   </g>
   <g id="legend_1">
    <g id="patch_10">
     <path d="M 223.384375 60.925 
L 352.184375 60.925 
Q 353.784375 60.925 353.784375 59.325 
L 353.784375 12.8 
Q 353.784375 11.2 352.184375 11.2 
L 223.384375 11.2 
Q 221.784375 11.2 221.784375 12.8 
L 221.784375 59.325 
Q 221.784375 60.925 223.384375 60.925 
z
" style="fill: #ffffff; opacity: 0.8; stroke: #cccccc; stroke-linejoin: miter"/>
    </g>
    <g id="line2d_9">
     <path d="M 224.984375 17.67875 
L 232.984375 17.67875 
L 240.984375 17.67875 
" style="fill: none; stroke: #28b80b; stroke-width: 2; stroke-linecap: square"/>
    </g>
    <g id="text_7">
     <!-- Population -->
     <g style="fill: #030303" transform="translate(247.384375 20.47875) scale(0.08 -0.08)">
      <defs>
       <path id="DejaVuSerif-70" d="M 1313 1825 
L 1313 1497 
Q 1313 897 1542 583 
Q 1772 269 2209 269 
Q 2650 269 2876 622 
Q 3103 975 3103 1663 
Q 3103 2353 2876 2703 
Q 2650 3053 2209 3053 
Q 1772 3053 1542 2737 
Q 1313 2422 1313 1825 
z
M 738 2988 
L 184 2988 
L 184 3322 
L 1313 3322 
L 1313 2803 
Q 1481 3116 1742 3264 
Q 2003 3413 2388 3413 
Q 3000 3413 3387 2928 
Q 3775 2444 3775 1663 
Q 3775 881 3387 395 
Q 3000 -91 2388 -91 
Q 2003 -91 1742 57 
Q 1481 206 1313 519 
L 1313 -997 
L 1856 -997 
L 1856 -1331 
L 184 -1331 
L 184 -997 
L 738 -997 
L 738 2988 
z
" transform="scale(0.015625)"/>
       <path id="DejaVuSerif-75" d="M 2266 3322 
L 3341 3322 
L 3341 331 
L 3884 331 
L 3884 0 
L 2766 0 
L 2766 588 
Q 2606 256 2353 82 
Q 2100 -91 1766 -91 
Q 1213 -91 952 223 
Q 691 538 691 1209 
L 691 2988 
L 172 2988 
L 172 3322 
L 1269 3322 
L 1269 1388 
Q 1269 781 1417 556 
Q 1566 331 1947 331 
Q 2347 331 2556 625 
Q 2766 919 2766 1478 
L 2766 2988 
L 2266 2988 
L 2266 3322 
z
" transform="scale(0.015625)"/>
      </defs>
      <use xlink:href="#DejaVuSerif-50"/>
      <use xlink:href="#DejaVuSerif-6f" transform="translate(63.285156 0)"/>
      <use xlink:href="#DejaVuSerif-70" transform="translate(123.490234 0)"/>
      <use xlink:href="#DejaVuSerif-75" transform="translate(187.503906 0)"/>
      <use xlink:href="#DejaVuSerif-6c" transform="translate(251.908203 0)"/>
      <use xlink:href="#DejaVuSerif-61" transform="translate(283.890625 0)"/>
      <use xlink:href="#DejaVuSerif-74" transform="translate(343.509766 0)"/>
      <use xlink:href="#DejaVuSerif-69" transform="translate(383.695312 0)"/>
      <use xlink:href="#DejaVuSerif-6f" transform="translate(415.677734 0)"/>
      <use xlink:href="#DejaVuSerif-6e" transform="translate(475.882812 0)"/>
     </g>
    </g>
    <g id="line2d_10">
     <path d="M 224.984375 29.42125 
L 232.984375 29.42125 
L 240.984375 29.42125 
" style="fill: none; stroke: #131313; stroke-width: 1.5; stroke-linecap: square"/>
    </g>
    <g id="text_8">
     <!-- Sample Distribution -->
     <g style="fill: #030303" transform="translate(247.384375 32.22125) scale(0.08 -0.08)">
      <defs>
       <path id="DejaVuSerif-6d" d="M 3316 2675 
Q 3481 3041 3739 3227 
Q 3997 3413 4341 3413 
Q 4863 3413 5119 3089 
Q 5375 2766 5375 2113 
L 5375 331 
L 5894 331 
L 5894 0 
L 4300 0 
L 4300 331 
L 4800 331 
L 4800 2047 
Q 4800 2556 4650 2772 
Q 4500 2988 4153 2988 
Q 3769 2988 3567 2697 
Q 3366 2406 3366 1850 
L 3366 331 
L 3866 331 
L 3866 0 
L 2291 0 
L 2291 331 
L 2791 331 
L 2791 2069 
Q 2791 2566 2641 2777 
Q 2491 2988 2144 2988 
Q 1759 2988 1557 2697 
Q 1356 2406 1356 1850 
L 1356 331 
L 1856 331 
L 1856 0 
L 263 0 
L 263 331 
L 781 331 
L 781 2994 
L 231 2994 
L 231 3322 
L 1356 3322 
L 1356 2731 
Q 1516 3063 1762 3238 
Q 2009 3413 2322 3413 
Q 2709 3413 2968 3220 
Q 3228 3028 3316 2675 
z
" transform="scale(0.015625)"/>
      </defs>
      <use xlink:href="#DejaVuSerif-53"/>
      <use xlink:href="#DejaVuSerif-61" transform="translate(68.505859 0)"/>
      <use xlink:href="#DejaVuSerif-6d" transform="translate(128.125 0)"/>
      <use xlink:href="#DejaVuSerif-70" transform="translate(222.949219 0)"/>
      <use xlink:href="#DejaVuSerif-6c" transform="translate(286.962891 0)"/>
      <use xlink:href="#DejaVuSerif-65" transform="translate(318.945312 0)"/>
      <use xlink:href="#DejaVuSerif-20" transform="translate(378.125 0)"/>
      <use xlink:href="#DejaVuSerif-44" transform="translate(409.912109 0)"/>
      <use xlink:href="#DejaVuSerif-69" transform="translate(490.087891 0)"/>
      <use xlink:href="#DejaVuSerif-73" transform="translate(522.070312 0)"/>
      <use xlink:href="#DejaVuSerif-74" transform="translate(573.388672 0)"/>
      <use xlink:href="#DejaVuSerif-72" transform="translate(613.574219 0)"/>
      <use xlink:href="#DejaVuSerif-69" transform="translate(661.376953 0)"/>
      <use xlink:href="#DejaVuSerif-62" transform="translate(693.359375 0)"/>
      <use xlink:href="#DejaVuSerif-75" transform="translate(757.373047 0)"/>
      <use xlink:href="#DejaVuSerif-74" transform="translate(821.777344 0)"/>
      <use xlink:href="#DejaVuSerif-69" transform="translate(861.962891 0)"/>
      <use xlink:href="#DejaVuSerif-6f" transform="translate(893.945312 0)"/>
      <use xlink:href="#DejaVuSerif-6e" transform="translate(954.150391 0)"/>
     </g>
    </g>
    <g id="line2d_11">
     <path d="M 224.984375 41.165 
L 232.984375 41.165 
L 240.984375 41.165 
" style="fill: none; stroke: #005587; stroke-width: 1.5; stroke-linecap: square"/>
    </g>
    <g id="text_9">
     <!-- Sampling Distribution ($\bar{x}$) -->
     <g style="fill: #030303" transform="translate(247.384375 43.965) scale(0.08 -0.08)">
      <defs>
       <path id="DejaVuSerif-67" d="M 3359 2988 
L 3359 72 
Q 3359 -644 2965 -1033 
Q 2572 -1422 1844 -1422 
Q 1516 -1422 1216 -1362 
Q 916 -1303 641 -1184 
L 641 -488 
L 941 -488 
Q 997 -813 1206 -963 
Q 1416 -1113 1806 -1113 
Q 2313 -1113 2548 -827 
Q 2784 -541 2784 72 
L 2784 519 
Q 2616 206 2355 57 
Q 2094 -91 1709 -91 
Q 1097 -91 708 395 
Q 319 881 319 1663 
Q 319 2444 706 2928 
Q 1094 3413 1709 3413 
Q 2094 3413 2355 3264 
Q 2616 3116 2784 2803 
L 2784 3322 
L 3909 3322 
L 3909 2988 
L 3359 2988 
z
M 2784 1825 
Q 2784 2422 2554 2737 
Q 2325 3053 1888 3053 
Q 1444 3053 1217 2703 
Q 991 2353 991 1663 
Q 991 975 1217 622 
Q 1444 269 1888 269 
Q 2325 269 2554 583 
Q 2784 897 2784 1497 
L 2784 1825 
z
" transform="scale(0.015625)"/>
       <path id="Cmr10-b9" d="M 441 3553 
L 441 3775 
L 2753 3775 
L 2753 3553 
L 441 3553 
z
" transform="scale(0.015625)"/>
       <path id="Cmmi10-78" d="M 500 184 
Q 613 97 819 97 
Q 1019 97 1172 289 
Q 1325 481 1381 709 
L 1672 1844 
Q 1741 2153 1741 2266 
Q 1741 2425 1652 2544 
Q 1563 2663 1403 2663 
Q 1200 2663 1022 2536 
Q 844 2409 722 2214 
Q 600 2019 550 1819 
Q 538 1778 500 1778 
L 422 1778 
Q 372 1778 372 1838 
L 372 1856 
Q 434 2094 584 2320 
Q 734 2547 951 2687 
Q 1169 2828 1416 2828 
Q 1650 2828 1839 2703 
Q 2028 2578 2106 2363 
Q 2216 2559 2386 2693 
Q 2556 2828 2759 2828 
Q 2897 2828 3040 2779 
Q 3184 2731 3275 2631 
Q 3366 2531 3366 2381 
Q 3366 2219 3261 2101 
Q 3156 1984 2994 1984 
Q 2891 1984 2822 2050 
Q 2753 2116 2753 2216 
Q 2753 2350 2845 2451 
Q 2938 2553 3066 2572 
Q 2950 2663 2747 2663 
Q 2541 2663 2389 2472 
Q 2238 2281 2175 2047 
L 1894 916 
Q 1825 659 1825 494 
Q 1825 331 1917 214 
Q 2009 97 2163 97 
Q 2463 97 2698 361 
Q 2934 625 3009 941 
Q 3022 978 3059 978 
L 3138 978 
Q 3163 978 3178 961 
Q 3194 944 3194 922 
Q 3194 916 3188 903 
Q 3097 522 2806 225 
Q 2516 -72 2150 -72 
Q 1916 -72 1727 54 
Q 1538 181 1459 397 
Q 1359 209 1182 68 
Q 1006 -72 806 -72 
Q 669 -72 523 -23 
Q 378 25 287 125 
Q 197 225 197 378 
Q 197 528 301 651 
Q 406 775 563 775 
Q 669 775 741 711 
Q 813 647 813 544 
Q 813 409 723 309 
Q 634 209 500 184 
z
" transform="scale(0.015625)"/>
      </defs>
      <use xlink:href="#DejaVuSerif-53" transform="translate(0 0.015625)"/>
      <use xlink:href="#DejaVuSerif-61" transform="translate(68.505859 0.015625)"/>
      <use xlink:href="#DejaVuSerif-6d" transform="translate(128.125 0.015625)"/>
      <use xlink:href="#DejaVuSerif-70" transform="translate(222.949219 0.015625)"/>
      <use xlink:href="#DejaVuSerif-6c" transform="translate(286.962891 0.015625)"/>
      <use xlink:href="#DejaVuSerif-69" transform="translate(318.945312 0.015625)"/>
      <use xlink:href="#DejaVuSerif-6e" transform="translate(350.927734 0.015625)"/>
      <use xlink:href="#DejaVuSerif-67" transform="translate(415.332031 0.015625)"/>
      <use xlink:href="#DejaVuSerif-20" transform="translate(479.345703 0.015625)"/>
      <use xlink:href="#DejaVuSerif-44" transform="translate(511.132812 0.015625)"/>
      <use xlink:href="#DejaVuSerif-69" transform="translate(591.308594 0.015625)"/>
      <use xlink:href="#DejaVuSerif-73" transform="translate(623.291016 0.015625)"/>
      <use xlink:href="#DejaVuSerif-74" transform="translate(674.609375 0.015625)"/>
      <use xlink:href="#DejaVuSerif-72" transform="translate(714.794922 0.015625)"/>
      <use xlink:href="#DejaVuSerif-69" transform="translate(762.597656 0.015625)"/>
      <use xlink:href="#DejaVuSerif-62" transform="translate(794.580078 0.015625)"/>
      <use xlink:href="#DejaVuSerif-75" transform="translate(858.59375 0.015625)"/>
      <use xlink:href="#DejaVuSerif-74" transform="translate(922.998047 0.015625)"/>
      <use xlink:href="#DejaVuSerif-69" transform="translate(963.183594 0.015625)"/>
      <use xlink:href="#DejaVuSerif-6f" transform="translate(995.166016 0.015625)"/>
      <use xlink:href="#DejaVuSerif-6e" transform="translate(1055.371094 0.015625)"/>
      <use xlink:href="#DejaVuSerif-20" transform="translate(1119.775391 0.015625)"/>
      <use xlink:href="#DejaVuSerif-28" transform="translate(1151.5625 0.015625)"/>
      <use xlink:href="#Cmr10-b9" transform="translate(1200.955566 1.1875)"/>
      <use xlink:href="#Cmmi10-78" transform="translate(1190.576172 0.015625)"/>
      <use xlink:href="#DejaVuSerif-29" transform="translate(1247.65625 0.015625)"/>
     </g>
    </g>
    <g id="line2d_12">
     <path d="M 224.984375 53.085 
L 232.984375 53.085 
L 240.984375 53.085 
" style="fill: none; stroke: #dc143c; stroke-width: 1.5; stroke-linecap: square"/>
    </g>
    <g id="text_10">
     <!-- Sampling Distribution ($\mu$) -->
     <g style="fill: #030303" transform="translate(247.384375 55.885) scale(0.08 -0.08)">
      <defs>
       <path id="Cmmi10-b9" d="M 178 -1203 
Q 178 -1166 184 -1153 
L 1125 2625 
Q 1153 2716 1226 2772 
Q 1300 2828 1394 2828 
Q 1475 2828 1531 2779 
Q 1588 2731 1588 2650 
Q 1588 2631 1586 2620 
Q 1584 2609 1581 2597 
L 1203 1100 
Q 1141 834 1141 641 
Q 1141 403 1253 250 
Q 1366 97 1594 97 
Q 2059 97 2413 678 
Q 2416 684 2417 687 
Q 2419 691 2419 697 
L 2881 2553 
Q 2903 2638 2981 2698 
Q 3059 2759 3150 2759 
Q 3225 2759 3283 2709 
Q 3341 2659 3341 2578 
Q 3341 2541 3334 2528 
L 2875 684 
Q 2828 503 2828 372 
Q 2828 97 3016 97 
Q 3216 97 3317 344 
Q 3419 591 3494 941 
Q 3506 978 3547 978 
L 3622 978 
Q 3647 978 3664 958 
Q 3681 938 3681 916 
Q 3569 469 3436 198 
Q 3303 -72 3003 -72 
Q 2791 -72 2627 50 
Q 2463 172 2413 378 
Q 2253 178 2039 53 
Q 1825 -72 1588 -72 
Q 1188 -72 959 116 
L 634 -1178 
Q 616 -1269 541 -1325 
Q 466 -1381 372 -1381 
Q 294 -1381 236 -1332 
Q 178 -1284 178 -1203 
z
" transform="scale(0.015625)"/>
      </defs>
      <use xlink:href="#DejaVuSerif-53" transform="translate(0 0.015625)"/>
      <use xlink:href="#DejaVuSerif-61" transform="translate(68.505859 0.015625)"/>
      <use xlink:href="#DejaVuSerif-6d" transform="translate(128.125 0.015625)"/>
      <use xlink:href="#DejaVuSerif-70" transform="translate(222.949219 0.015625)"/>
      <use xlink:href="#DejaVuSerif-6c" transform="translate(286.962891 0.015625)"/>
      <use xlink:href="#DejaVuSerif-69" transform="translate(318.945312 0.015625)"/>
      <use xlink:href="#DejaVuSerif-6e" transform="translate(350.927734 0.015625)"/>
      <use xlink:href="#DejaVuSerif-67" transform="translate(415.332031 0.015625)"/>
      <use xlink:href="#DejaVuSerif-20" transform="translate(479.345703 0.015625)"/>
      <use xlink:href="#DejaVuSerif-44" transform="translate(511.132812 0.015625)"/>
      <use xlink:href="#DejaVuSerif-69" transform="translate(591.308594 0.015625)"/>
      <use xlink:href="#DejaVuSerif-73" transform="translate(623.291016 0.015625)"/>
      <use xlink:href="#DejaVuSerif-74" transform="translate(674.609375 0.015625)"/>
      <use xlink:href="#DejaVuSerif-72" transform="translate(714.794922 0.015625)"/>
      <use xlink:href="#DejaVuSerif-69" transform="translate(762.597656 0.015625)"/>
      <use xlink:href="#DejaVuSerif-62" transform="translate(794.580078 0.015625)"/>
      <use xlink:href="#DejaVuSerif-75" transform="translate(858.59375 0.015625)"/>
      <use xlink:href="#DejaVuSerif-74" transform="translate(922.998047 0.015625)"/>
      <use xlink:href="#DejaVuSerif-69" transform="translate(963.183594 0.015625)"/>
      <use xlink:href="#DejaVuSerif-6f" transform="translate(995.166016 0.015625)"/>
      <use xlink:href="#DejaVuSerif-6e" transform="translate(1055.371094 0.015625)"/>
      <use xlink:href="#DejaVuSerif-20" transform="translate(1119.775391 0.015625)"/>
      <use xlink:href="#DejaVuSerif-28" transform="translate(1151.5625 0.015625)"/>
      <use xlink:href="#Cmmi10-b9" transform="translate(1190.576172 0.015625)"/>
      <use xlink:href="#DejaVuSerif-29" transform="translate(1250.78125 0.015625)"/>
     </g>
    </g>
   </g>
  </g>
 </g>
 <defs>
  <clipPath id="p38d37c6229">
   <rect x="22.984375" y="7.2" width="334.8" height="207.9"/>
  </clipPath>
 </defs>
</svg>
