<?xml version="1.0" encoding="utf-8" standalone="no"?>
<!DOCTYPE svg PUBLIC "-//W3C//DTD SVG 1.1//EN"
  "http://www.w3.org/Graphics/SVG/1.1/DTD/svg11.dtd">
<svg xmlns:xlink="http://www.w3.org/1999/xlink" width="360pt" height="288pt" viewBox="0 0 360 288" xmlns="http://www.w3.org/2000/svg" version="1.1">
 <metadata>
  <rdf:RDF xmlns:dc="http://purl.org/dc/elements/1.1/" xmlns:cc="http://creativecommons.org/ns#" xmlns:rdf="http://www.w3.org/1999/02/22-rdf-syntax-ns#">
   <cc:Work>
    <dc:type rdf:resource="http://purl.org/dc/dcmitype/StillImage"/>
    <dc:date>2024-10-06T22:24:03.523022</dc:date>
    <dc:format>image/svg+xml</dc:format>
    <dc:creator>
     <cc:Agent>
      <dc:title>Matplotlib v3.9.2, https://matplotlib.org/</dc:title>
     </cc:Agent>
    </dc:creator>
   </cc:Work>
  </rdf:RDF>
 </metadata>
 <defs>
  <style type="text/css">*{stroke-linejoin: round; stroke-linecap: butt}</style>
 </defs>
 <g id="figure_1">
  <g id="patch_1">
   <path d="M 0 288 
L 360 288 
L 360 0 
L 0 0 
L 0 288 
z
" style="fill: none"/>
  </g>
  <g id="axes_1">
   <g id="patch_2">
    <path d="M 61.855127 235.72 
L 349.2 235.72 
L 349.2 25.44 
L 61.855127 25.44 
L 61.855127 235.72 
z
" style="fill: none"/>
   </g>
   <g id="PolyCollection_1">
    <defs>
     <path id="ma90d2d99e1" d="M 139.305799 -77.894949 
L 139.305799 -52.28 
L 139.829291 -52.28 
L 140.352784 -52.28 
L 140.876276 -52.28 
L 141.399768 -52.28 
L 141.92326 -52.28 
L 142.446752 -52.28 
L 142.970245 -52.28 
L 143.493737 -52.28 
L 144.017229 -52.28 
L 144.540721 -52.28 
L 145.064213 -52.28 
L 145.587706 -52.28 
L 146.111198 -52.28 
L 146.63469 -52.28 
L 147.158182 -52.28 
L 147.681674 -52.28 
L 148.205167 -52.28 
L 148.728659 -52.28 
L 149.252151 -52.28 
L 149.775643 -52.28 
L 150.299136 -52.28 
L 150.822628 -52.28 
L 151.34612 -52.28 
L 151.869612 -52.28 
L 152.393104 -52.28 
L 152.916597 -52.28 
L 153.440089 -52.28 
L 153.963581 -52.28 
L 154.487073 -52.28 
L 155.010565 -52.28 
L 155.534058 -52.28 
L 156.05755 -52.28 
L 156.581042 -52.28 
L 157.104534 -52.28 
L 157.628026 -52.28 
L 158.151519 -52.28 
L 158.675011 -52.28 
L 159.198503 -52.28 
L 159.721995 -52.28 
L 160.245487 -52.28 
L 160.76898 -52.28 
L 161.292472 -52.28 
L 161.815964 -52.28 
L 162.339456 -52.28 
L 162.862949 -52.28 
L 163.386441 -52.28 
L 163.909933 -52.28 
L 164.433425 -52.28 
L 164.956917 -52.28 
L 165.48041 -52.28 
L 166.003902 -52.28 
L 166.527394 -52.28 
L 167.050886 -52.28 
L 167.574378 -52.28 
L 168.097871 -52.28 
L 168.621363 -52.28 
L 169.144855 -52.28 
L 169.668347 -52.28 
L 170.191839 -52.28 
L 170.715332 -52.28 
L 171.238824 -52.28 
L 171.762316 -52.28 
L 172.285808 -52.28 
L 172.8093 -52.28 
L 173.332793 -52.28 
L 173.856285 -52.28 
L 174.379777 -52.28 
L 174.903269 -52.28 
L 175.426762 -52.28 
L 175.950254 -52.28 
L 176.473746 -52.28 
L 176.997238 -52.28 
L 177.52073 -52.28 
L 178.044223 -52.28 
L 178.567715 -52.28 
L 179.091207 -52.28 
L 179.614699 -52.28 
L 180.138191 -52.28 
L 180.661684 -52.28 
L 181.185176 -52.28 
L 181.708668 -52.28 
L 182.23216 -52.28 
L 182.755652 -52.28 
L 183.279145 -52.28 
L 183.802637 -52.28 
L 184.326129 -52.28 
L 184.849621 -52.28 
L 185.373113 -52.28 
L 185.896606 -52.28 
L 186.420098 -52.28 
L 186.94359 -52.28 
L 187.467082 -52.28 
L 187.990575 -52.28 
L 188.514067 -52.28 
L 189.037559 -52.28 
L 189.561051 -52.28 
L 190.084543 -52.28 
L 190.608036 -52.28 
L 191.131528 -52.28 
L 191.65502 -52.28 
L 192.178512 -52.28 
L 192.702004 -52.28 
L 193.225497 -52.28 
L 193.748989 -52.28 
L 194.272481 -52.28 
L 194.795973 -52.28 
L 195.319465 -52.28 
L 195.842958 -52.28 
L 196.36645 -52.28 
L 196.889942 -52.28 
L 197.413434 -52.28 
L 197.936926 -52.28 
L 198.460419 -52.28 
L 198.983911 -52.28 
L 199.507403 -52.28 
L 200.030895 -52.28 
L 200.554387 -52.28 
L 201.07788 -52.28 
L 201.601372 -52.28 
L 202.124864 -52.28 
L 202.648356 -52.28 
L 203.171849 -52.28 
L 203.695341 -52.28 
L 204.218833 -52.28 
L 204.742325 -52.28 
L 205.265817 -52.28 
L 205.78931 -52.28 
L 206.312802 -52.28 
L 206.836294 -52.28 
L 207.359786 -52.28 
L 207.883278 -52.28 
L 208.406771 -52.28 
L 208.930263 -52.28 
L 209.453755 -52.28 
L 209.977247 -52.28 
L 210.500739 -52.28 
L 211.024232 -52.28 
L 211.547724 -52.28 
L 212.071216 -52.28 
L 212.594708 -52.28 
L 213.1182 -52.28 
L 213.641693 -52.28 
L 214.165185 -52.28 
L 214.688677 -52.28 
L 215.212169 -52.28 
L 215.735662 -52.28 
L 216.259154 -52.28 
L 216.782646 -52.28 
L 217.306138 -52.28 
L 217.82963 -52.28 
L 218.353123 -52.28 
L 218.876615 -52.28 
L 219.400107 -52.28 
L 219.923599 -52.28 
L 220.447091 -52.28 
L 220.970584 -52.28 
L 221.494076 -52.28 
L 222.017568 -52.28 
L 222.54106 -52.28 
L 223.064552 -52.28 
L 223.588045 -52.28 
L 224.111537 -52.28 
L 224.635029 -52.28 
L 225.158521 -52.28 
L 225.682013 -52.28 
L 226.205506 -52.28 
L 226.728998 -52.28 
L 227.25249 -52.28 
L 227.775982 -52.28 
L 228.299475 -52.28 
L 228.822967 -52.28 
L 229.346459 -52.28 
L 229.869951 -52.28 
L 230.393443 -52.28 
L 230.916936 -52.28 
L 231.440428 -52.28 
L 231.96392 -52.28 
L 232.487412 -52.28 
L 233.010904 -52.28 
L 233.534397 -52.28 
L 234.057889 -52.28 
L 234.581381 -52.28 
L 235.104873 -52.28 
L 235.628365 -52.28 
L 236.151858 -52.28 
L 236.67535 -52.28 
L 237.198842 -52.28 
L 237.722334 -52.28 
L 238.245826 -52.28 
L 238.769319 -52.28 
L 239.292811 -52.28 
L 239.816303 -52.28 
L 240.339795 -52.28 
L 240.863288 -52.28 
L 241.38678 -52.28 
L 241.910272 -52.28 
L 242.433764 -52.28 
L 242.957256 -52.28 
L 243.480749 -52.28 
L 244.004241 -52.28 
L 244.527733 -52.28 
L 245.051225 -52.28 
L 245.574717 -52.28 
L 246.09821 -52.28 
L 246.621702 -52.28 
L 247.145194 -52.28 
L 247.668686 -52.28 
L 248.192178 -52.28 
L 248.715671 -52.28 
L 249.239163 -52.28 
L 249.762655 -52.28 
L 250.286147 -52.28 
L 250.809639 -52.28 
L 251.333132 -52.28 
L 251.856624 -52.28 
L 252.380116 -52.28 
L 252.903608 -52.28 
L 253.427101 -52.28 
L 253.950593 -52.28 
L 254.474085 -52.28 
L 254.997577 -52.28 
L 255.521069 -52.28 
L 256.044562 -52.28 
L 256.568054 -52.28 
L 257.091546 -52.28 
L 257.615038 -52.28 
L 258.13853 -52.28 
L 258.662023 -52.28 
L 259.185515 -52.28 
L 259.709007 -52.28 
L 260.232499 -52.28 
L 260.755991 -52.28 
L 261.279484 -52.28 
L 261.802976 -52.28 
L 262.326468 -52.28 
L 262.84996 -52.28 
L 263.373452 -52.28 
L 263.896945 -52.28 
L 264.420437 -52.28 
L 264.943929 -52.28 
L 265.467421 -52.28 
L 265.990914 -52.28 
L 266.514406 -52.28 
L 267.037898 -52.28 
L 267.56139 -52.28 
L 268.084882 -52.28 
L 268.608375 -52.28 
L 269.131867 -52.28 
L 269.655359 -52.28 
L 270.178851 -52.28 
L 270.702343 -52.28 
L 271.225836 -52.28 
L 271.749328 -52.28 
L 271.749328 -77.894949 
L 271.749328 -77.894949 
L 271.225836 -78.738079 
L 270.702343 -79.601937 
L 270.178851 -80.48675 
L 269.655359 -81.392733 
L 269.131867 -82.320093 
L 268.608375 -83.269028 
L 268.084882 -84.239723 
L 267.56139 -85.232353 
L 267.037898 -86.247082 
L 266.514406 -87.28406 
L 265.990914 -88.343425 
L 265.467421 -89.425302 
L 264.943929 -90.529802 
L 264.420437 -91.657022 
L 263.896945 -92.807043 
L 263.373452 -93.979932 
L 262.84996 -95.175738 
L 262.326468 -96.394495 
L 261.802976 -97.636221 
L 261.279484 -98.900914 
L 260.755991 -100.188556 
L 260.232499 -101.49911 
L 259.709007 -102.832519 
L 259.185515 -104.188708 
L 258.662023 -105.567582 
L 258.13853 -106.969025 
L 257.615038 -108.392902 
L 257.091546 -109.839054 
L 256.568054 -111.307303 
L 256.044562 -112.797448 
L 255.521069 -114.309267 
L 254.997577 -115.842514 
L 254.474085 -117.396921 
L 253.950593 -118.972197 
L 253.427101 -120.568027 
L 252.903608 -122.184073 
L 252.380116 -123.819973 
L 251.856624 -125.475341 
L 251.333132 -127.149766 
L 250.809639 -128.842814 
L 250.286147 -130.554027 
L 249.762655 -132.28292 
L 249.239163 -134.028986 
L 248.715671 -135.791693 
L 248.192178 -137.570483 
L 247.668686 -139.364775 
L 247.145194 -141.173964 
L 246.621702 -142.997418 
L 246.09821 -144.834484 
L 245.574717 -146.684484 
L 245.051225 -148.546716 
L 244.527733 -150.420455 
L 244.004241 -152.304951 
L 243.480749 -154.199435 
L 242.957256 -156.103111 
L 242.433764 -158.015164 
L 241.910272 -159.934757 
L 241.38678 -161.861031 
L 240.863288 -163.793106 
L 240.339795 -165.730082 
L 239.816303 -167.671042 
L 239.292811 -169.615046 
L 238.769319 -171.561139 
L 238.245826 -173.508346 
L 237.722334 -175.455677 
L 237.198842 -177.402124 
L 236.67535 -179.346666 
L 236.151858 -181.288266 
L 235.628365 -183.225872 
L 235.104873 -185.158422 
L 234.581381 -187.084841 
L 234.057889 -189.004041 
L 233.534397 -190.914928 
L 233.010904 -192.816395 
L 232.487412 -194.70733 
L 231.96392 -196.586612 
L 231.440428 -198.453115 
L 230.916936 -200.305709 
L 230.393443 -202.143258 
L 229.869951 -203.964626 
L 229.346459 -205.768675 
L 228.822967 -207.554265 
L 228.299475 -209.320258 
L 227.775982 -211.06552 
L 227.25249 -212.788917 
L 226.728998 -214.489321 
L 226.205506 -216.165611 
L 225.682013 -217.816671 
L 225.158521 -219.441394 
L 224.635029 -221.038682 
L 224.111537 -222.607448 
L 223.588045 -224.146618 
L 223.064552 -225.655128 
L 222.54106 -227.131932 
L 222.017568 -228.575996 
L 221.494076 -229.986306 
L 220.970584 -231.361862 
L 220.447091 -232.701687 
L 219.923599 -234.004822 
L 219.400107 -235.270329 
L 218.876615 -236.497295 
L 218.353123 -237.684827 
L 217.82963 -238.832059 
L 217.306138 -239.938151 
L 216.782646 -241.002288 
L 216.259154 -242.023683 
L 215.735662 -243.00158 
L 215.212169 -243.935249 
L 214.688677 -244.823994 
L 214.165185 -245.667148 
L 213.641693 -246.464077 
L 213.1182 -247.214181 
L 212.594708 -247.916892 
L 212.071216 -248.571677 
L 211.547724 -249.178039 
L 211.024232 -249.735516 
L 210.500739 -250.243683 
L 209.977247 -250.702151 
L 209.453755 -251.11057 
L 208.930263 -251.468626 
L 208.406771 -251.776044 
L 207.883278 -252.032588 
L 207.359786 -252.238061 
L 206.836294 -252.392304 
L 206.312802 -252.495199 
L 205.78931 -252.546667 
L 205.265817 -252.546667 
L 204.742325 -252.495199 
L 204.218833 -252.392304 
L 203.695341 -252.238061 
L 203.171849 -252.032588 
L 202.648356 -251.776044 
L 202.124864 -251.468626 
L 201.601372 -251.11057 
L 201.07788 -250.702151 
L 200.554387 -250.243683 
L 200.030895 -249.735516 
L 199.507403 -249.178039 
L 198.983911 -248.571677 
L 198.460419 -247.916892 
L 197.936926 -247.214181 
L 197.413434 -246.464077 
L 196.889942 -245.667148 
L 196.36645 -244.823994 
L 195.842958 -243.935249 
L 195.319465 -243.00158 
L 194.795973 -242.023683 
L 194.272481 -241.002288 
L 193.748989 -239.938151 
L 193.225497 -238.832059 
L 192.702004 -237.684827 
L 192.178512 -236.497295 
L 191.65502 -235.270329 
L 191.131528 -234.004822 
L 190.608036 -232.701687 
L 190.084543 -231.361862 
L 189.561051 -229.986306 
L 189.037559 -228.575996 
L 188.514067 -227.131932 
L 187.990575 -225.655128 
L 187.467082 -224.146618 
L 186.94359 -222.607448 
L 186.420098 -221.038682 
L 185.896606 -219.441394 
L 185.373113 -217.816671 
L 184.849621 -216.165611 
L 184.326129 -214.489321 
L 183.802637 -212.788917 
L 183.279145 -211.06552 
L 182.755652 -209.320258 
L 182.23216 -207.554265 
L 181.708668 -205.768675 
L 181.185176 -203.964626 
L 180.661684 -202.143258 
L 180.138191 -200.305709 
L 179.614699 -198.453115 
L 179.091207 -196.586612 
L 178.567715 -194.70733 
L 178.044223 -192.816395 
L 177.52073 -190.914928 
L 176.997238 -189.004041 
L 176.473746 -187.084841 
L 175.950254 -185.158422 
L 175.426762 -183.225872 
L 174.903269 -181.288266 
L 174.379777 -179.346666 
L 173.856285 -177.402124 
L 173.332793 -175.455677 
L 172.8093 -173.508346 
L 172.285808 -171.561139 
L 171.762316 -169.615046 
L 171.238824 -167.671042 
L 170.715332 -165.730082 
L 170.191839 -163.793106 
L 169.668347 -161.861031 
L 169.144855 -159.934757 
L 168.621363 -158.015164 
L 168.097871 -156.103111 
L 167.574378 -154.199435 
L 167.050886 -152.304951 
L 166.527394 -150.420455 
L 166.003902 -148.546716 
L 165.48041 -146.684484 
L 164.956917 -144.834484 
L 164.433425 -142.997418 
L 163.909933 -141.173964 
L 163.386441 -139.364775 
L 162.862949 -137.570483 
L 162.339456 -135.791693 
L 161.815964 -134.028986 
L 161.292472 -132.28292 
L 160.76898 -130.554027 
L 160.245487 -128.842814 
L 159.721995 -127.149766 
L 159.198503 -125.475341 
L 158.675011 -123.819973 
L 158.151519 -122.184073 
L 157.628026 -120.568027 
L 157.104534 -118.972197 
L 156.581042 -117.396921 
L 156.05755 -115.842514 
L 155.534058 -114.309267 
L 155.010565 -112.797448 
L 154.487073 -111.307303 
L 153.963581 -109.839054 
L 153.440089 -108.392902 
L 152.916597 -106.969025 
L 152.393104 -105.567582 
L 151.869612 -104.188708 
L 151.34612 -102.832519 
L 150.822628 -101.49911 
L 150.299136 -100.188556 
L 149.775643 -98.900914 
L 149.252151 -97.636221 
L 148.728659 -96.394495 
L 148.205167 -95.175738 
L 147.681674 -93.979932 
L 147.158182 -92.807043 
L 146.63469 -91.657022 
L 146.111198 -90.529802 
L 145.587706 -89.425302 
L 145.064213 -88.343425 
L 144.540721 -87.28406 
L 144.017229 -86.247082 
L 143.493737 -85.232353 
L 142.970245 -84.239723 
L 142.446752 -83.269028 
L 141.92326 -82.320093 
L 141.399768 -81.392733 
L 140.876276 -80.48675 
L 140.352784 -79.601937 
L 139.829291 -78.738079 
L 139.305799 -77.894949 
z
" style="stroke: #add8e6; stroke-opacity: 0.5"/>
    </defs>
    <g clip-path="url(#p0a7f9bcb8c)">
     <use xlink:href="#ma90d2d99e1" x="0" y="288" style="fill: #add8e6; fill-opacity: 0.5; stroke: #add8e6; stroke-opacity: 0.5"/>
    </g>
   </g>
   <g id="matplotlib.axis_1">
    <g id="xtick_1">
     <g id="line2d_1">
      <defs>
       <path id="meaab89da77" d="M 0 0 
L 0 3.5 
" style="stroke: #030303; stroke-width: 0.8"/>
      </defs>
      <g>
       <use xlink:href="#meaab89da77" x="71.916673" y="235.72" style="fill: #030303; stroke: #030303; stroke-width: 0.8"/>
      </g>
     </g>
     <g id="text_1">
      <!-- $\mathdefault{−30}$ -->
      <g style="fill: #030303" transform="translate(58.136673 252.597969) scale(0.13 -0.13)">
       <defs>
        <path id="DejaVuSerif-2212" d="M 678 2259 
L 4684 2259 
L 4684 1753 
L 678 1753 
L 678 2259 
z
" transform="scale(0.015625)"/>
        <path id="DejaVuSerif-33" d="M 622 4469 
Q 988 4606 1323 4678 
Q 1659 4750 1953 4750 
Q 2638 4750 3022 4454 
Q 3406 4159 3406 3634 
Q 3406 3213 3140 2930 
Q 2875 2647 2388 2547 
Q 2963 2466 3280 2130 
Q 3597 1794 3597 1259 
Q 3597 606 3158 257 
Q 2719 -91 1894 -91 
Q 1528 -91 1179 -12 
Q 831 66 488 225 
L 488 1131 
L 838 1131 
Q 869 681 1141 450 
Q 1413 219 1906 219 
Q 2384 219 2661 495 
Q 2938 772 2938 1253 
Q 2938 1803 2653 2086 
Q 2369 2369 1819 2369 
L 1522 2369 
L 1522 2688 
L 1678 2688 
Q 2225 2688 2498 2914 
Q 2772 3141 2772 3597 
Q 2772 4006 2547 4223 
Q 2322 4441 1900 4441 
Q 1478 4441 1245 4241 
Q 1013 4041 972 3647 
L 622 3647 
L 622 4469 
z
" transform="scale(0.015625)"/>
        <path id="DejaVuSerif-30" d="M 2034 219 
Q 2513 219 2750 744 
Q 2988 1269 2988 2328 
Q 2988 3391 2750 3916 
Q 2513 4441 2034 4441 
Q 1556 4441 1318 3916 
Q 1081 3391 1081 2328 
Q 1081 1269 1318 744 
Q 1556 219 2034 219 
z
M 2034 -91 
Q 1275 -91 848 546 
Q 422 1184 422 2328 
Q 422 3475 848 4112 
Q 1275 4750 2034 4750 
Q 2797 4750 3222 4112 
Q 3647 3475 3647 2328 
Q 3647 1184 3222 546 
Q 2797 -91 2034 -91 
z
" transform="scale(0.015625)"/>
       </defs>
       <use xlink:href="#DejaVuSerif-2212" transform="translate(0 0.78125)"/>
       <use xlink:href="#DejaVuSerif-33" transform="translate(83.789062 0.78125)"/>
       <use xlink:href="#DejaVuSerif-30" transform="translate(147.412109 0.78125)"/>
      </g>
     </g>
    </g>
    <g id="xtick_2">
     <g id="line2d_2">
      <g>
       <use xlink:href="#meaab89da77" x="144.697655" y="235.72" style="fill: #030303; stroke: #030303; stroke-width: 0.8"/>
      </g>
     </g>
     <g id="text_2">
      <!-- $\mathdefault{−20}$ -->
      <g style="fill: #030303" transform="translate(130.917655 252.597969) scale(0.13 -0.13)">
       <defs>
        <path id="DejaVuSerif-32" d="M 819 3553 
L 469 3553 
L 469 4384 
Q 803 4563 1142 4656 
Q 1481 4750 1806 4750 
Q 2534 4750 2956 4397 
Q 3378 4044 3378 3438 
Q 3378 2753 2422 1800 
Q 2347 1728 2309 1691 
L 1131 513 
L 3078 513 
L 3078 1088 
L 3444 1088 
L 3444 0 
L 434 0 
L 434 341 
L 1850 1753 
Q 2319 2222 2519 2614 
Q 2719 3006 2719 3438 
Q 2719 3909 2473 4175 
Q 2228 4441 1797 4441 
Q 1350 4441 1106 4219 
Q 863 3997 819 3553 
z
" transform="scale(0.015625)"/>
       </defs>
       <use xlink:href="#DejaVuSerif-2212" transform="translate(0 0.78125)"/>
       <use xlink:href="#DejaVuSerif-32" transform="translate(83.789062 0.78125)"/>
       <use xlink:href="#DejaVuSerif-30" transform="translate(147.412109 0.78125)"/>
      </g>
     </g>
    </g>
    <g id="xtick_3">
     <g id="line2d_3">
      <g>
       <use xlink:href="#meaab89da77" x="217.478637" y="235.72" style="fill: #030303; stroke: #030303; stroke-width: 0.8"/>
      </g>
     </g>
     <g id="text_3">
      <!-- $\mathdefault{−10}$ -->
      <g style="fill: #030303" transform="translate(203.698637 252.597969) scale(0.13 -0.13)">
       <defs>
        <path id="DejaVuSerif-31" d="M 909 0 
L 909 331 
L 1722 331 
L 1722 4213 
L 781 3603 
L 781 4013 
L 1919 4750 
L 2350 4750 
L 2350 331 
L 3163 331 
L 3163 0 
L 909 0 
z
" transform="scale(0.015625)"/>
       </defs>
       <use xlink:href="#DejaVuSerif-2212" transform="translate(0 0.78125)"/>
       <use xlink:href="#DejaVuSerif-31" transform="translate(83.789062 0.78125)"/>
       <use xlink:href="#DejaVuSerif-30" transform="translate(147.412109 0.78125)"/>
      </g>
     </g>
    </g>
    <g id="xtick_4">
     <g id="line2d_4">
      <g>
       <use xlink:href="#meaab89da77" x="290.259619" y="235.72" style="fill: #030303; stroke: #030303; stroke-width: 0.8"/>
      </g>
     </g>
     <g id="text_4">
      <!-- $\mathdefault{0}$ -->
      <g style="fill: #030303" transform="translate(286.099619 252.597969) scale(0.13 -0.13)">
       <use xlink:href="#DejaVuSerif-30" transform="translate(0 0.78125)"/>
      </g>
     </g>
    </g>
    <g id="text_5">
     <!-- Difference in Sample Means (MPa) -->
     <g transform="translate(45.92522 272.97875) scale(0.18 -0.18)">
      <defs>
       <path id="DejaVuSerif-44" d="M 1581 331 
L 2163 331 
Q 3072 331 3558 850 
Q 4044 1369 4044 2338 
Q 4044 3306 3559 3818 
Q 3075 4331 2163 4331 
L 1581 4331 
L 1581 331 
z
M 353 0 
L 353 331 
L 947 331 
L 947 4331 
L 353 4331 
L 353 4666 
L 2209 4666 
Q 3416 4666 4089 4050 
Q 4763 3434 4763 2338 
Q 4763 1238 4088 619 
Q 3413 0 2209 0 
L 353 0 
z
" transform="scale(0.015625)"/>
       <path id="DejaVuSerif-69" d="M 622 4353 
Q 622 4497 726 4603 
Q 831 4709 978 4709 
Q 1122 4709 1226 4603 
Q 1331 4497 1331 4353 
Q 1331 4206 1228 4103 
Q 1125 4000 978 4000 
Q 831 4000 726 4103 
Q 622 4206 622 4353 
z
M 1356 331 
L 1900 331 
L 1900 0 
L 231 0 
L 231 331 
L 781 331 
L 781 2988 
L 231 2988 
L 231 3322 
L 1356 3322 
L 1356 331 
z
" transform="scale(0.015625)"/>
       <path id="DejaVuSerif-66" d="M 2753 4078 
L 2450 4078 
Q 2447 4313 2317 4434 
Q 2188 4556 1941 4556 
Q 1619 4556 1487 4379 
Q 1356 4203 1356 3750 
L 1356 3322 
L 2284 3322 
L 2284 2988 
L 1356 2988 
L 1356 331 
L 2094 331 
L 2094 0 
L 231 0 
L 231 331 
L 781 331 
L 781 2988 
L 231 2988 
L 231 3322 
L 781 3322 
L 781 3738 
Q 781 4294 1070 4578 
Q 1359 4863 1919 4863 
Q 2128 4863 2337 4825 
Q 2547 4788 2753 4709 
L 2753 4078 
z
" transform="scale(0.015625)"/>
       <path id="DejaVuSerif-65" d="M 3469 1600 
L 991 1600 
L 991 1575 
Q 991 903 1244 561 
Q 1497 219 1991 219 
Q 2369 219 2611 417 
Q 2853 616 2950 1006 
L 3413 1006 
Q 3275 459 2904 184 
Q 2534 -91 1931 -91 
Q 1203 -91 761 389 
Q 319 869 319 1663 
Q 319 2450 753 2931 
Q 1188 3413 1894 3413 
Q 2647 3413 3050 2948 
Q 3453 2484 3469 1600 
z
M 2791 1931 
Q 2772 2513 2545 2808 
Q 2319 3103 1894 3103 
Q 1497 3103 1269 2806 
Q 1041 2509 991 1931 
L 2791 1931 
z
" transform="scale(0.015625)"/>
       <path id="DejaVuSerif-72" d="M 3059 3328 
L 3059 2497 
L 2728 2497 
Q 2713 2744 2591 2866 
Q 2469 2988 2234 2988 
Q 1809 2988 1582 2694 
Q 1356 2400 1356 1850 
L 1356 331 
L 2022 331 
L 2022 0 
L 263 0 
L 263 331 
L 781 331 
L 781 2994 
L 231 2994 
L 231 3322 
L 1356 3322 
L 1356 2731 
Q 1525 3078 1790 3245 
Q 2056 3413 2438 3413 
Q 2578 3413 2733 3391 
Q 2888 3369 3059 3328 
z
" transform="scale(0.015625)"/>
       <path id="DejaVuSerif-6e" d="M 263 0 
L 263 331 
L 781 331 
L 781 2988 
L 231 2988 
L 231 3322 
L 1356 3322 
L 1356 2731 
Q 1516 3069 1770 3241 
Q 2025 3413 2363 3413 
Q 2913 3413 3172 3097 
Q 3431 2781 3431 2113 
L 3431 331 
L 3944 331 
L 3944 0 
L 2356 0 
L 2356 331 
L 2853 331 
L 2853 1931 
Q 2853 2541 2703 2767 
Q 2553 2994 2175 2994 
Q 1775 2994 1565 2701 
Q 1356 2409 1356 1850 
L 1356 331 
L 1856 331 
L 1856 0 
L 263 0 
z
" transform="scale(0.015625)"/>
       <path id="DejaVuSerif-63" d="M 3291 997 
Q 3169 466 2822 187 
Q 2475 -91 1925 -91 
Q 1200 -91 759 389 
Q 319 869 319 1663 
Q 319 2459 759 2936 
Q 1200 3413 1925 3413 
Q 2241 3413 2553 3339 
Q 2866 3266 3181 3116 
L 3181 2266 
L 2847 2266 
Q 2781 2703 2561 2903 
Q 2341 3103 1931 3103 
Q 1466 3103 1228 2742 
Q 991 2381 991 1663 
Q 991 944 1227 581 
Q 1463 219 1931 219 
Q 2303 219 2525 412 
Q 2747 606 2828 997 
L 3291 997 
z
" transform="scale(0.015625)"/>
       <path id="DejaVuSerif-20" transform="scale(0.015625)"/>
       <path id="DejaVuSerif-53" d="M 594 225 
L 594 1288 
L 953 1284 
Q 969 753 1261 498 
Q 1553 244 2150 244 
Q 2706 244 2998 464 
Q 3291 684 3291 1106 
Q 3291 1444 3114 1625 
Q 2938 1806 2369 1978 
L 1753 2163 
Q 1084 2366 811 2669 
Q 538 2972 538 3500 
Q 538 4094 959 4422 
Q 1381 4750 2144 4750 
Q 2469 4750 2856 4679 
Q 3244 4609 3681 4475 
L 3681 3481 
L 3328 3481 
Q 3275 3975 2998 4195 
Q 2722 4416 2156 4416 
Q 1663 4416 1405 4214 
Q 1147 4013 1147 3628 
Q 1147 3294 1340 3103 
Q 1534 2913 2163 2725 
L 2741 2553 
Q 3375 2363 3645 2067 
Q 3916 1772 3916 1275 
Q 3916 597 3481 253 
Q 3047 -91 2188 -91 
Q 1803 -91 1404 -12 
Q 1006 66 594 225 
z
" transform="scale(0.015625)"/>
       <path id="DejaVuSerif-61" d="M 2547 1044 
L 2547 1747 
L 1806 1747 
Q 1378 1747 1168 1562 
Q 959 1378 959 997 
Q 959 650 1171 447 
Q 1384 244 1747 244 
Q 2106 244 2326 466 
Q 2547 688 2547 1044 
z
M 3122 2075 
L 3122 331 
L 3634 331 
L 3634 0 
L 2547 0 
L 2547 359 
Q 2356 128 2106 18 
Q 1856 -91 1522 -91 
Q 969 -91 644 203 
Q 319 497 319 997 
Q 319 1513 691 1797 
Q 1063 2081 1741 2081 
L 2547 2081 
L 2547 2309 
Q 2547 2688 2317 2895 
Q 2088 3103 1672 3103 
Q 1328 3103 1125 2947 
Q 922 2791 872 2484 
L 575 2484 
L 575 3156 
Q 875 3284 1158 3348 
Q 1441 3413 1709 3413 
Q 2400 3413 2761 3070 
Q 3122 2728 3122 2075 
z
" transform="scale(0.015625)"/>
       <path id="DejaVuSerif-6d" d="M 3316 2675 
Q 3481 3041 3739 3227 
Q 3997 3413 4341 3413 
Q 4863 3413 5119 3089 
Q 5375 2766 5375 2113 
L 5375 331 
L 5894 331 
L 5894 0 
L 4300 0 
L 4300 331 
L 4800 331 
L 4800 2047 
Q 4800 2556 4650 2772 
Q 4500 2988 4153 2988 
Q 3769 2988 3567 2697 
Q 3366 2406 3366 1850 
L 3366 331 
L 3866 331 
L 3866 0 
L 2291 0 
L 2291 331 
L 2791 331 
L 2791 2069 
Q 2791 2566 2641 2777 
Q 2491 2988 2144 2988 
Q 1759 2988 1557 2697 
Q 1356 2406 1356 1850 
L 1356 331 
L 1856 331 
L 1856 0 
L 263 0 
L 263 331 
L 781 331 
L 781 2994 
L 231 2994 
L 231 3322 
L 1356 3322 
L 1356 2731 
Q 1516 3063 1762 3238 
Q 2009 3413 2322 3413 
Q 2709 3413 2968 3220 
Q 3228 3028 3316 2675 
z
" transform="scale(0.015625)"/>
       <path id="DejaVuSerif-70" d="M 1313 1825 
L 1313 1497 
Q 1313 897 1542 583 
Q 1772 269 2209 269 
Q 2650 269 2876 622 
Q 3103 975 3103 1663 
Q 3103 2353 2876 2703 
Q 2650 3053 2209 3053 
Q 1772 3053 1542 2737 
Q 1313 2422 1313 1825 
z
M 738 2988 
L 184 2988 
L 184 3322 
L 1313 3322 
L 1313 2803 
Q 1481 3116 1742 3264 
Q 2003 3413 2388 3413 
Q 3000 3413 3387 2928 
Q 3775 2444 3775 1663 
Q 3775 881 3387 395 
Q 3000 -91 2388 -91 
Q 2003 -91 1742 57 
Q 1481 206 1313 519 
L 1313 -997 
L 1856 -997 
L 1856 -1331 
L 184 -1331 
L 184 -997 
L 738 -997 
L 738 2988 
z
" transform="scale(0.015625)"/>
       <path id="DejaVuSerif-6c" d="M 1313 331 
L 1856 331 
L 1856 0 
L 184 0 
L 184 331 
L 738 331 
L 738 4531 
L 184 4531 
L 184 4863 
L 1313 4863 
L 1313 331 
z
" transform="scale(0.015625)"/>
       <path id="DejaVuSerif-4d" d="M 353 0 
L 353 331 
L 947 331 
L 947 4331 
L 319 4331 
L 319 4666 
L 1678 4666 
L 3316 1344 
L 4953 4666 
L 6228 4666 
L 6228 4331 
L 5606 4331 
L 5606 331 
L 6203 331 
L 6203 0 
L 4378 0 
L 4378 331 
L 4972 331 
L 4972 3938 
L 3372 684 
L 2931 684 
L 1331 3938 
L 1331 331 
L 1925 331 
L 1925 0 
L 353 0 
z
" transform="scale(0.015625)"/>
       <path id="DejaVuSerif-73" d="M 359 184 
L 359 959 
L 691 959 
Q 703 588 923 403 
Q 1144 219 1575 219 
Q 1963 219 2166 364 
Q 2369 509 2369 788 
Q 2369 1006 2220 1140 
Q 2072 1275 1594 1428 
L 1178 1569 
Q 750 1706 558 1912 
Q 366 2119 366 2438 
Q 366 2894 700 3153 
Q 1034 3413 1625 3413 
Q 1888 3413 2178 3344 
Q 2469 3275 2778 3144 
L 2778 2419 
L 2447 2419 
Q 2434 2741 2221 2922 
Q 2009 3103 1644 3103 
Q 1281 3103 1095 2975 
Q 909 2847 909 2591 
Q 909 2381 1050 2254 
Q 1191 2128 1613 1997 
L 2069 1856 
Q 2541 1709 2748 1489 
Q 2956 1269 2956 922 
Q 2956 450 2595 179 
Q 2234 -91 1600 -91 
Q 1278 -91 972 -22 
Q 666 47 359 184 
z
" transform="scale(0.015625)"/>
       <path id="DejaVuSerif-28" d="M 2041 -997 
Q 1281 -656 893 83 
Q 506 822 506 1931 
Q 506 3044 893 3783 
Q 1281 4522 2041 4863 
L 2041 4556 
Q 1559 4225 1350 3623 
Q 1141 3022 1141 1931 
Q 1141 844 1350 242 
Q 1559 -359 2041 -691 
L 2041 -997 
z
" transform="scale(0.015625)"/>
       <path id="DejaVuSerif-50" d="M 1581 2375 
L 2406 2375 
Q 2872 2375 3115 2626 
Q 3359 2878 3359 3353 
Q 3359 3831 3115 4081 
Q 2872 4331 2406 4331 
L 1581 4331 
L 1581 2375 
z
M 353 0 
L 353 331 
L 947 331 
L 947 4331 
L 353 4331 
L 353 4666 
L 2559 4666 
Q 3259 4666 3668 4311 
Q 4078 3956 4078 3353 
Q 4078 2753 3668 2397 
Q 3259 2041 2559 2041 
L 1581 2041 
L 1581 331 
L 2303 331 
L 2303 0 
L 353 0 
z
" transform="scale(0.015625)"/>
       <path id="DejaVuSerif-29" d="M 453 -997 
L 453 -691 
Q 934 -359 1145 242 
Q 1356 844 1356 1931 
Q 1356 3022 1145 3623 
Q 934 4225 453 4556 
L 453 4863 
Q 1216 4522 1603 3783 
Q 1991 3044 1991 1931 
Q 1991 822 1603 83 
Q 1216 -656 453 -997 
z
" transform="scale(0.015625)"/>
      </defs>
      <use xlink:href="#DejaVuSerif-44"/>
      <use xlink:href="#DejaVuSerif-69" x="80.175781"/>
      <use xlink:href="#DejaVuSerif-66" x="112.158203"/>
      <use xlink:href="#DejaVuSerif-66" x="149.169922"/>
      <use xlink:href="#DejaVuSerif-65" x="186.181641"/>
      <use xlink:href="#DejaVuSerif-72" x="245.361328"/>
      <use xlink:href="#DejaVuSerif-65" x="293.164062"/>
      <use xlink:href="#DejaVuSerif-6e" x="352.34375"/>
      <use xlink:href="#DejaVuSerif-63" x="416.748047"/>
      <use xlink:href="#DejaVuSerif-65" x="472.753906"/>
      <use xlink:href="#DejaVuSerif-20" x="531.933594"/>
      <use xlink:href="#DejaVuSerif-69" x="563.720703"/>
      <use xlink:href="#DejaVuSerif-6e" x="595.703125"/>
      <use xlink:href="#DejaVuSerif-20" x="660.107422"/>
      <use xlink:href="#DejaVuSerif-53" x="691.894531"/>
      <use xlink:href="#DejaVuSerif-61" x="760.400391"/>
      <use xlink:href="#DejaVuSerif-6d" x="820.019531"/>
      <use xlink:href="#DejaVuSerif-70" x="914.84375"/>
      <use xlink:href="#DejaVuSerif-6c" x="978.857422"/>
      <use xlink:href="#DejaVuSerif-65" x="1010.839844"/>
      <use xlink:href="#DejaVuSerif-20" x="1070.019531"/>
      <use xlink:href="#DejaVuSerif-4d" x="1101.806641"/>
      <use xlink:href="#DejaVuSerif-65" x="1204.199219"/>
      <use xlink:href="#DejaVuSerif-61" x="1263.378906"/>
      <use xlink:href="#DejaVuSerif-6e" x="1322.998047"/>
      <use xlink:href="#DejaVuSerif-73" x="1387.402344"/>
      <use xlink:href="#DejaVuSerif-20" x="1438.720703"/>
      <use xlink:href="#DejaVuSerif-28" x="1470.507812"/>
      <use xlink:href="#DejaVuSerif-4d" x="1509.521484"/>
      <use xlink:href="#DejaVuSerif-50" x="1611.914062"/>
      <use xlink:href="#DejaVuSerif-61" x="1674.699219"/>
      <use xlink:href="#DejaVuSerif-29" x="1734.318359"/>
     </g>
    </g>
   </g>
   <g id="matplotlib.axis_2">
    <g id="ytick_1">
     <g id="line2d_5">
      <defs>
       <path id="m6ead2a33d7" d="M 0 0 
L -3.5 0 
" style="stroke: #030303; stroke-width: 0.8"/>
      </defs>
      <g>
       <use xlink:href="#m6ead2a33d7" x="61.855127" y="235.72" style="fill: #030303; stroke: #030303; stroke-width: 0.8"/>
      </g>
     </g>
     <g id="text_6">
      <!-- $\mathdefault{0.00}$ -->
      <g style="fill: #030303" transform="translate(32.555127 239.519219) scale(0.1 -0.1)">
       <defs>
        <path id="DejaVuSerif-2e" d="M 603 325 
Q 603 500 722 622 
Q 841 744 1019 744 
Q 1191 744 1312 622 
Q 1434 500 1434 325 
Q 1434 153 1312 31 
Q 1191 -91 1019 -91 
Q 841 -91 722 29 
Q 603 150 603 325 
z
" transform="scale(0.015625)"/>
       </defs>
       <use xlink:href="#DejaVuSerif-30" transform="translate(0 0.78125)"/>
       <use xlink:href="#DejaVuSerif-2e" transform="translate(63.623047 0.78125)"/>
       <use xlink:href="#DejaVuSerif-30" transform="translate(95.410156 0.78125)"/>
       <use xlink:href="#DejaVuSerif-30" transform="translate(159.033203 0.78125)"/>
      </g>
     </g>
    </g>
    <g id="ytick_2">
     <g id="line2d_6">
      <g>
       <use xlink:href="#m6ead2a33d7" x="61.855127" y="190.675121" style="fill: #030303; stroke: #030303; stroke-width: 0.8"/>
      </g>
     </g>
     <g id="text_7">
      <!-- $\mathdefault{0.02}$ -->
      <g style="fill: #030303" transform="translate(32.555127 194.47434) scale(0.1 -0.1)">
       <use xlink:href="#DejaVuSerif-30" transform="translate(0 0.78125)"/>
       <use xlink:href="#DejaVuSerif-2e" transform="translate(63.623047 0.78125)"/>
       <use xlink:href="#DejaVuSerif-30" transform="translate(95.410156 0.78125)"/>
       <use xlink:href="#DejaVuSerif-32" transform="translate(159.033203 0.78125)"/>
      </g>
     </g>
    </g>
    <g id="ytick_3">
     <g id="line2d_7">
      <g>
       <use xlink:href="#m6ead2a33d7" x="61.855127" y="145.630243" style="fill: #030303; stroke: #030303; stroke-width: 0.8"/>
      </g>
     </g>
     <g id="text_8">
      <!-- $\mathdefault{0.04}$ -->
      <g style="fill: #030303" transform="translate(32.555127 149.429461) scale(0.1 -0.1)">
       <defs>
        <path id="DejaVuSerif-34" d="M 2234 1581 
L 2234 4063 
L 641 1581 
L 2234 1581 
z
M 3609 0 
L 1484 0 
L 1484 331 
L 2234 331 
L 2234 1247 
L 197 1247 
L 197 1588 
L 2241 4750 
L 2859 4750 
L 2859 1581 
L 3750 1581 
L 3750 1247 
L 2859 1247 
L 2859 331 
L 3609 331 
L 3609 0 
z
" transform="scale(0.015625)"/>
       </defs>
       <use xlink:href="#DejaVuSerif-30" transform="translate(0 0.78125)"/>
       <use xlink:href="#DejaVuSerif-2e" transform="translate(63.623047 0.78125)"/>
       <use xlink:href="#DejaVuSerif-30" transform="translate(95.410156 0.78125)"/>
       <use xlink:href="#DejaVuSerif-34" transform="translate(159.033203 0.78125)"/>
      </g>
     </g>
    </g>
    <g id="ytick_4">
     <g id="line2d_8">
      <g>
       <use xlink:href="#m6ead2a33d7" x="61.855127" y="100.585364" style="fill: #030303; stroke: #030303; stroke-width: 0.8"/>
      </g>
     </g>
     <g id="text_9">
      <!-- $\mathdefault{0.06}$ -->
      <g style="fill: #030303" transform="translate(32.555127 104.384583) scale(0.1 -0.1)">
       <defs>
        <path id="DejaVuSerif-36" d="M 2094 219 
Q 2534 219 2771 542 
Q 3009 866 3009 1472 
Q 3009 2078 2771 2401 
Q 2534 2725 2094 2725 
Q 1647 2725 1412 2412 
Q 1178 2100 1178 1509 
Q 1178 888 1415 553 
Q 1653 219 2094 219 
z
M 1075 2569 
Q 1288 2803 1556 2918 
Q 1825 3034 2163 3034 
Q 2859 3034 3264 2615 
Q 3669 2197 3669 1472 
Q 3669 763 3233 336 
Q 2797 -91 2069 -91 
Q 1278 -91 853 498 
Q 428 1088 428 2181 
Q 428 3406 931 4078 
Q 1434 4750 2350 4750 
Q 2597 4750 2869 4703 
Q 3141 4656 3425 4563 
L 3425 3794 
L 3072 3794 
Q 3034 4109 2831 4275 
Q 2628 4441 2284 4441 
Q 1678 4441 1381 3981 
Q 1084 3522 1075 2569 
z
" transform="scale(0.015625)"/>
       </defs>
       <use xlink:href="#DejaVuSerif-30" transform="translate(0 0.78125)"/>
       <use xlink:href="#DejaVuSerif-2e" transform="translate(63.623047 0.78125)"/>
       <use xlink:href="#DejaVuSerif-30" transform="translate(95.410156 0.78125)"/>
       <use xlink:href="#DejaVuSerif-36" transform="translate(159.033203 0.78125)"/>
      </g>
     </g>
    </g>
    <g id="ytick_5">
     <g id="line2d_9">
      <g>
       <use xlink:href="#m6ead2a33d7" x="61.855127" y="55.540485" style="fill: #030303; stroke: #030303; stroke-width: 0.8"/>
      </g>
     </g>
     <g id="text_10">
      <!-- $\mathdefault{0.08}$ -->
      <g style="fill: #030303" transform="translate(32.555127 59.339704) scale(0.1 -0.1)">
       <defs>
        <path id="DejaVuSerif-38" d="M 2981 1275 
Q 2981 1775 2732 2051 
Q 2484 2328 2034 2328 
Q 1584 2328 1336 2051 
Q 1088 1775 1088 1275 
Q 1088 772 1336 495 
Q 1584 219 2034 219 
Q 2484 219 2732 495 
Q 2981 772 2981 1275 
z
M 2853 3541 
Q 2853 3966 2637 4203 
Q 2422 4441 2034 4441 
Q 1650 4441 1433 4203 
Q 1216 3966 1216 3541 
Q 1216 3113 1433 2875 
Q 1650 2638 2034 2638 
Q 2422 2638 2637 2875 
Q 2853 3113 2853 3541 
z
M 2516 2484 
Q 3047 2413 3344 2092 
Q 3641 1772 3641 1275 
Q 3641 619 3225 264 
Q 2809 -91 2034 -91 
Q 1263 -91 845 264 
Q 428 619 428 1275 
Q 428 1772 725 2092 
Q 1022 2413 1556 2484 
Q 1084 2569 832 2842 
Q 581 3116 581 3541 
Q 581 4103 968 4426 
Q 1356 4750 2034 4750 
Q 2713 4750 3100 4426 
Q 3488 4103 3488 3541 
Q 3488 3116 3236 2842 
Q 2984 2569 2516 2484 
z
" transform="scale(0.015625)"/>
       </defs>
       <use xlink:href="#DejaVuSerif-30" transform="translate(0 0.78125)"/>
       <use xlink:href="#DejaVuSerif-2e" transform="translate(63.623047 0.78125)"/>
       <use xlink:href="#DejaVuSerif-30" transform="translate(95.410156 0.78125)"/>
       <use xlink:href="#DejaVuSerif-38" transform="translate(159.033203 0.78125)"/>
      </g>
     </g>
    </g>
    <g id="text_11">
     <!-- Density -->
     <g transform="translate(24.555752 165.1175) rotate(-90) scale(0.18 -0.18)">
      <defs>
       <path id="DejaVuSerif-74" d="M 691 2988 
L 184 2988 
L 184 3322 
L 691 3322 
L 691 4353 
L 1269 4353 
L 1269 3322 
L 2350 3322 
L 2350 2988 
L 1269 2988 
L 1269 878 
Q 1269 456 1350 337 
Q 1431 219 1650 219 
Q 1875 219 1978 351 
Q 2081 484 2088 781 
L 2522 781 
Q 2497 328 2275 118 
Q 2053 -91 1600 -91 
Q 1103 -91 897 129 
Q 691 350 691 878 
L 691 2988 
z
" transform="scale(0.015625)"/>
       <path id="DejaVuSerif-79" d="M 1381 -609 
L 1600 -56 
L 359 2988 
L -19 2988 
L -19 3322 
L 1509 3322 
L 1509 2988 
L 978 2988 
L 1913 703 
L 2847 2988 
L 2350 2988 
L 2350 3322 
L 3597 3322 
L 3597 2988 
L 3225 2988 
L 1703 -750 
Q 1547 -1138 1356 -1280 
Q 1166 -1422 819 -1422 
Q 672 -1422 517 -1397 
Q 363 -1372 206 -1325 
L 206 -691 
L 500 -691 
Q 519 -903 608 -995 
Q 697 -1088 884 -1088 
Q 1056 -1088 1161 -992 
Q 1266 -897 1381 -609 
z
" transform="scale(0.015625)"/>
      </defs>
      <use xlink:href="#DejaVuSerif-44"/>
      <use xlink:href="#DejaVuSerif-65" x="80.175781"/>
      <use xlink:href="#DejaVuSerif-6e" x="139.355469"/>
      <use xlink:href="#DejaVuSerif-73" x="203.759766"/>
      <use xlink:href="#DejaVuSerif-69" x="255.078125"/>
      <use xlink:href="#DejaVuSerif-74" x="287.060547"/>
      <use xlink:href="#DejaVuSerif-79" x="327.246094"/>
     </g>
    </g>
   </g>
   <g id="line2d_10">
    <path d="M 74.916258 235.652816 
L 86.956578 235.44565 
L 94.285469 235.115593 
L 100.043884 234.634823 
L 104.755313 234.00836 
L 108.419759 233.315123 
L 112.084204 232.383403 
L 115.225158 231.346337 
L 117.842619 230.278396 
L 120.46008 228.993054 
L 123.077541 227.45737 
L 125.695002 225.636112 
L 128.312463 223.492234 
L 130.406432 221.51919 
L 132.5004 219.295464 
L 134.594369 216.801482 
L 136.688338 214.018233 
L 138.782307 210.927686 
L 140.876276 207.51325 
L 143.493737 202.767647 
L 146.111198 197.470198 
L 148.728659 191.605505 
L 151.34612 185.167481 
L 153.963581 178.160946 
L 157.104534 169.027803 
L 160.245487 159.157186 
L 163.909933 146.826036 
L 168.097871 131.896889 
L 182.755652 78.679742 
L 185.896606 68.558606 
L 188.514067 60.868068 
L 190.608036 55.298313 
L 192.702004 50.315173 
L 194.795973 45.976317 
L 196.36645 43.176006 
L 197.936926 40.785819 
L 199.507403 38.821961 
L 201.07788 37.297849 
L 202.124864 36.531374 
L 203.171849 35.967412 
L 204.218833 35.607696 
L 205.265817 35.453333 
L 206.312802 35.504801 
L 207.359786 35.761939 
L 208.406771 36.223956 
L 209.453755 36.88943 
L 210.500739 37.756317 
L 212.071216 39.428323 
L 213.641693 41.535923 
L 215.212169 44.064751 
L 216.782646 46.997712 
L 218.876615 51.502705 
L 220.970584 56.638138 
L 223.064552 62.344872 
L 225.682013 70.183329 
L 228.822967 80.445735 
L 232.487412 93.29267 
L 238.245826 114.491654 
L 245.051225 139.453284 
L 249.239163 153.971014 
L 252.903608 165.815927 
L 256.044562 175.202552 
L 259.185515 183.811292 
L 261.802976 190.363779 
L 264.420437 196.342978 
L 267.037898 201.752918 
L 269.655359 206.607267 
L 272.27282 210.927686 
L 274.890281 214.742171 
L 277.507742 218.083461 
L 280.125203 220.987531 
L 282.742664 223.492234 
L 285.360125 225.636112 
L 287.977586 227.45737 
L 290.595047 228.993054 
L 293.212508 230.278396 
L 295.829969 231.346337 
L 298.970923 232.383403 
L 302.111876 233.198008 
L 305.776321 233.921773 
L 309.964259 234.517009 
L 315.199181 235.008806 
L 321.481088 235.354132 
L 329.856963 235.577624 
L 336.138869 235.652816 
L 336.138869 235.652816 
" clip-path="url(#p0a7f9bcb8c)" style="fill: none; stroke: #000080; stroke-width: 2; stroke-linecap: square"/>
   </g>
   <g id="line2d_11">
    <path d="M 290.259619 235.72 
L 290.259619 25.44 
" clip-path="url(#p0a7f9bcb8c)" style="fill: none; stroke-dasharray: 5.55,2.4; stroke-dashoffset: 0; stroke: #ff0000; stroke-width: 1.5"/>
   </g>
   <g id="patch_3">
    <path d="M 61.855127 235.72 
L 61.855127 25.44 
" style="fill: none; stroke: #030303; stroke-width: 1.5; stroke-linejoin: miter; stroke-linecap: square"/>
   </g>
   <g id="patch_4">
    <path d="M 61.855127 235.72 
L 349.2 235.72 
" style="fill: none; stroke: #030303; stroke-width: 1.5; stroke-linejoin: miter; stroke-linecap: square"/>
   </g>
   <g id="text_12">
    <!-- Sampling Distribution of Mean Difference -->
    <g style="fill: #000080" transform="translate(77.733188 19.44) scale(0.12 -0.12)">
     <defs>
      <path id="DejaVuSerif-67" d="M 3359 2988 
L 3359 72 
Q 3359 -644 2965 -1033 
Q 2572 -1422 1844 -1422 
Q 1516 -1422 1216 -1362 
Q 916 -1303 641 -1184 
L 641 -488 
L 941 -488 
Q 997 -813 1206 -963 
Q 1416 -1113 1806 -1113 
Q 2313 -1113 2548 -827 
Q 2784 -541 2784 72 
L 2784 519 
Q 2616 206 2355 57 
Q 2094 -91 1709 -91 
Q 1097 -91 708 395 
Q 319 881 319 1663 
Q 319 2444 706 2928 
Q 1094 3413 1709 3413 
Q 2094 3413 2355 3264 
Q 2616 3116 2784 2803 
L 2784 3322 
L 3909 3322 
L 3909 2988 
L 3359 2988 
z
M 2784 1825 
Q 2784 2422 2554 2737 
Q 2325 3053 1888 3053 
Q 1444 3053 1217 2703 
Q 991 2353 991 1663 
Q 991 975 1217 622 
Q 1444 269 1888 269 
Q 2325 269 2554 583 
Q 2784 897 2784 1497 
L 2784 1825 
z
" transform="scale(0.015625)"/>
      <path id="DejaVuSerif-62" d="M 738 331 
L 738 4531 
L 184 4531 
L 184 4863 
L 1313 4863 
L 1313 2803 
Q 1481 3116 1742 3264 
Q 2003 3413 2388 3413 
Q 3000 3413 3387 2928 
Q 3775 2444 3775 1663 
Q 3775 881 3387 395 
Q 3000 -91 2388 -91 
Q 2003 -91 1742 57 
Q 1481 206 1313 519 
L 1313 0 
L 184 0 
L 184 331 
L 738 331 
z
M 1313 1497 
Q 1313 897 1542 583 
Q 1772 269 2209 269 
Q 2650 269 2876 622 
Q 3103 975 3103 1663 
Q 3103 2353 2876 2703 
Q 2650 3053 2209 3053 
Q 1772 3053 1542 2737 
Q 1313 2422 1313 1825 
L 1313 1497 
z
" transform="scale(0.015625)"/>
      <path id="DejaVuSerif-75" d="M 2266 3322 
L 3341 3322 
L 3341 331 
L 3884 331 
L 3884 0 
L 2766 0 
L 2766 588 
Q 2606 256 2353 82 
Q 2100 -91 1766 -91 
Q 1213 -91 952 223 
Q 691 538 691 1209 
L 691 2988 
L 172 2988 
L 172 3322 
L 1269 3322 
L 1269 1388 
Q 1269 781 1417 556 
Q 1566 331 1947 331 
Q 2347 331 2556 625 
Q 2766 919 2766 1478 
L 2766 2988 
L 2266 2988 
L 2266 3322 
z
" transform="scale(0.015625)"/>
      <path id="DejaVuSerif-6f" d="M 1925 219 
Q 2388 219 2623 584 
Q 2859 950 2859 1663 
Q 2859 2375 2623 2739 
Q 2388 3103 1925 3103 
Q 1463 3103 1227 2739 
Q 991 2375 991 1663 
Q 991 950 1228 584 
Q 1466 219 1925 219 
z
M 1925 -91 
Q 1200 -91 759 389 
Q 319 869 319 1663 
Q 319 2456 758 2934 
Q 1197 3413 1925 3413 
Q 2653 3413 3092 2934 
Q 3531 2456 3531 1663 
Q 3531 869 3092 389 
Q 2653 -91 1925 -91 
z
" transform="scale(0.015625)"/>
     </defs>
     <use xlink:href="#DejaVuSerif-53"/>
     <use xlink:href="#DejaVuSerif-61" x="68.505859"/>
     <use xlink:href="#DejaVuSerif-6d" x="128.125"/>
     <use xlink:href="#DejaVuSerif-70" x="222.949219"/>
     <use xlink:href="#DejaVuSerif-6c" x="286.962891"/>
     <use xlink:href="#DejaVuSerif-69" x="318.945312"/>
     <use xlink:href="#DejaVuSerif-6e" x="350.927734"/>
     <use xlink:href="#DejaVuSerif-67" x="415.332031"/>
     <use xlink:href="#DejaVuSerif-20" x="479.345703"/>
     <use xlink:href="#DejaVuSerif-44" x="511.132812"/>
     <use xlink:href="#DejaVuSerif-69" x="591.308594"/>
     <use xlink:href="#DejaVuSerif-73" x="623.291016"/>
     <use xlink:href="#DejaVuSerif-74" x="674.609375"/>
     <use xlink:href="#DejaVuSerif-72" x="714.794922"/>
     <use xlink:href="#DejaVuSerif-69" x="762.597656"/>
     <use xlink:href="#DejaVuSerif-62" x="794.580078"/>
     <use xlink:href="#DejaVuSerif-75" x="858.59375"/>
     <use xlink:href="#DejaVuSerif-74" x="922.998047"/>
     <use xlink:href="#DejaVuSerif-69" x="963.183594"/>
     <use xlink:href="#DejaVuSerif-6f" x="995.166016"/>
     <use xlink:href="#DejaVuSerif-6e" x="1055.371094"/>
     <use xlink:href="#DejaVuSerif-20" x="1119.775391"/>
     <use xlink:href="#DejaVuSerif-6f" x="1151.5625"/>
     <use xlink:href="#DejaVuSerif-66" x="1211.767578"/>
     <use xlink:href="#DejaVuSerif-20" x="1248.779297"/>
     <use xlink:href="#DejaVuSerif-4d" x="1280.566406"/>
     <use xlink:href="#DejaVuSerif-65" x="1382.958984"/>
     <use xlink:href="#DejaVuSerif-61" x="1442.138672"/>
     <use xlink:href="#DejaVuSerif-6e" x="1501.757812"/>
     <use xlink:href="#DejaVuSerif-20" x="1566.162109"/>
     <use xlink:href="#DejaVuSerif-44" x="1597.949219"/>
     <use xlink:href="#DejaVuSerif-69" x="1678.125"/>
     <use xlink:href="#DejaVuSerif-66" x="1710.107422"/>
     <use xlink:href="#DejaVuSerif-66" x="1747.119141"/>
     <use xlink:href="#DejaVuSerif-65" x="1784.130859"/>
     <use xlink:href="#DejaVuSerif-72" x="1843.310547"/>
     <use xlink:href="#DejaVuSerif-65" x="1891.113281"/>
     <use xlink:href="#DejaVuSerif-6e" x="1950.292969"/>
     <use xlink:href="#DejaVuSerif-63" x="2014.697266"/>
     <use xlink:href="#DejaVuSerif-65" x="2070.703125"/>
    </g>
   </g>
  </g>
 </g>
 <defs>
  <clipPath id="p0a7f9bcb8c">
   <rect x="61.855127" y="25.44" width="287.344873" height="210.28"/>
  </clipPath>
 </defs>
</svg>
