<?xml version="1.0" encoding="utf-8" standalone="no"?>
<!DOCTYPE svg PUBLIC "-//W3C//DTD SVG 1.1//EN"
  "http://www.w3.org/Graphics/SVG/1.1/DTD/svg11.dtd">
<svg xmlns:xlink="http://www.w3.org/1999/xlink" width="432pt" height="270pt" viewBox="0 0 432 270" xmlns="http://www.w3.org/2000/svg" version="1.1">
 <metadata>
  <rdf:RDF xmlns:dc="http://purl.org/dc/elements/1.1/" xmlns:cc="http://creativecommons.org/ns#" xmlns:rdf="http://www.w3.org/1999/02/22-rdf-syntax-ns#">
   <cc:Work>
    <dc:type rdf:resource="http://purl.org/dc/dcmitype/StillImage"/>
    <dc:date>2024-09-17T12:50:57.202528</dc:date>
    <dc:format>image/svg+xml</dc:format>
    <dc:creator>
     <cc:Agent>
      <dc:title>Matplotlib v3.9.2, https://matplotlib.org/</dc:title>
     </cc:Agent>
    </dc:creator>
   </cc:Work>
  </rdf:RDF>
 </metadata>
 <defs>
  <style type="text/css">*{stroke-linejoin: round; stroke-linecap: butt}</style>
 </defs>
 <g id="figure_1">
  <g id="patch_1">
   <path d="M 0 270 
L 432 270 
L 432 0 
L 0 0 
L 0 270 
z
" style="fill: none"/>
  </g>
  <g id="axes_1">
   <g id="patch_2">
    <path d="M 54 240.3 
L 388.8 240.3 
L 388.8 32.4 
L 54 32.4 
L 54 240.3 
z
" style="fill: none"/>
   </g>
   <g id="PolyCollection_1">
    <defs>
     <path id="ma1e5b5e758" d="M 107.622782 -29.7 
L 107.622782 -58.992957 
L 107.843498 -59.338392 
L 108.064214 -59.686818 
L 108.28493 -60.038247 
L 108.505647 -60.392687 
L 108.726363 -60.750147 
L 108.947079 -61.110638 
L 109.167795 -61.474168 
L 109.388511 -61.840746 
L 109.609227 -62.21038 
L 109.829943 -62.583079 
L 110.050659 -62.958851 
L 110.271375 -63.337703 
L 110.492091 -63.719644 
L 110.712807 -64.104681 
L 110.933524 -64.49282 
L 111.15424 -64.88407 
L 111.374956 -65.278435 
L 111.595672 -65.675923 
L 111.816388 -66.076539 
L 112.037104 -66.48029 
L 112.25782 -66.887181 
L 112.478536 -67.297216 
L 112.699252 -67.710402 
L 112.919968 -68.126743 
L 113.140685 -68.546242 
L 113.361401 -68.968905 
L 113.582117 -69.394734 
L 113.802833 -69.823734 
L 114.023549 -70.255907 
L 114.244265 -70.691257 
L 114.464981 -71.129785 
L 114.685697 -71.571494 
L 114.906413 -72.016386 
L 115.127129 -72.464463 
L 115.347845 -72.915725 
L 115.568562 -73.370173 
L 115.789278 -73.827809 
L 116.009994 -74.288632 
L 116.23071 -74.752643 
L 116.451426 -75.219839 
L 116.672142 -75.690222 
L 116.892858 -76.16379 
L 117.113574 -76.64054 
L 117.33429 -77.120472 
L 117.555006 -77.603583 
L 117.775722 -78.08987 
L 117.996439 -78.57933 
L 118.217155 -79.07196 
L 118.437871 -79.567756 
L 118.658587 -80.066714 
L 118.879303 -80.56883 
L 119.100019 -81.074098 
L 119.320735 -81.582513 
L 119.541451 -82.09407 
L 119.762167 -82.608762 
L 119.982883 -83.126583 
L 120.2036 -83.647525 
L 120.424316 -84.171583 
L 120.645032 -84.698747 
L 120.865748 -85.22901 
L 121.086464 -85.762363 
L 121.30718 -86.298797 
L 121.527896 -86.838303 
L 121.748612 -87.38087 
L 121.969328 -87.92649 
L 122.190044 -88.47515 
L 122.41076 -89.02684 
L 122.631477 -89.581549 
L 122.852193 -90.139264 
L 123.072909 -90.699973 
L 123.293625 -91.263663 
L 123.514341 -91.830321 
L 123.735057 -92.399932 
L 123.955773 -92.972484 
L 124.176489 -93.54796 
L 124.397205 -94.126347 
L 124.617921 -94.707628 
L 124.838637 -95.291788 
L 125.059354 -95.878809 
L 125.28007 -96.468676 
L 125.500786 -97.061371 
L 125.721502 -97.656875 
L 125.942218 -98.255171 
L 126.162934 -98.856239 
L 126.38365 -99.460062 
L 126.604366 -100.066618 
L 126.825082 -100.675887 
L 127.045798 -101.28785 
L 127.266515 -101.902484 
L 127.487231 -102.519769 
L 127.707947 -103.139682 
L 127.928663 -103.762201 
L 128.149379 -104.387302 
L 128.370095 -105.014963 
L 128.590811 -105.645158 
L 128.811527 -106.277865 
L 129.032243 -106.913057 
L 129.252959 -107.55071 
L 129.473675 -108.190797 
L 129.694392 -108.833293 
L 129.915108 -109.47817 
L 130.135824 -110.125401 
L 130.35654 -110.774958 
L 130.577256 -111.426814 
L 130.797972 -112.080939 
L 131.018688 -112.737303 
L 131.239404 -113.395879 
L 131.46012 -114.056634 
L 131.680836 -114.719539 
L 131.901552 -115.384563 
L 132.122269 -116.051673 
L 132.342985 -116.720839 
L 132.563701 -117.392026 
L 132.784417 -118.065203 
L 133.005133 -118.740335 
L 133.225849 -119.41739 
L 133.446565 -120.096332 
L 133.667281 -120.777126 
L 133.887997 -121.459738 
L 134.108713 -122.14413 
L 134.32943 -122.830268 
L 134.550146 -123.518115 
L 134.770862 -124.207632 
L 134.991578 -124.898783 
L 135.212294 -125.59153 
L 135.43301 -126.285833 
L 135.653726 -126.981655 
L 135.874442 -127.678954 
L 136.095158 -128.377693 
L 136.315874 -129.077829 
L 136.53659 -129.779323 
L 136.757307 -130.482134 
L 136.978023 -131.186219 
L 137.198739 -131.891536 
L 137.419455 -132.598043 
L 137.640171 -133.305698 
L 137.860887 -134.014457 
L 138.081603 -134.724275 
L 138.302319 -135.435109 
L 138.523035 -136.146915 
L 138.743751 -136.859647 
L 138.964468 -137.57326 
L 139.185184 -138.287708 
L 139.4059 -139.002945 
L 139.626616 -139.718924 
L 139.847332 -140.435599 
L 140.068048 -141.152922 
L 140.288764 -141.870845 
L 140.50948 -142.589321 
L 140.730196 -143.3083 
L 140.950912 -144.027734 
L 141.171628 -144.747574 
L 141.392345 -145.46777 
L 141.613061 -146.188273 
L 141.833777 -146.909032 
L 142.054493 -147.629996 
L 142.275209 -148.351115 
L 142.495925 -149.072338 
L 142.716641 -149.793612 
L 142.937357 -150.514886 
L 143.158073 -151.236108 
L 143.378789 -151.957226 
L 143.599505 -152.678186 
L 143.820222 -153.398935 
L 144.040938 -154.11942 
L 144.261654 -154.839588 
L 144.48237 -155.559384 
L 144.703086 -156.278754 
L 144.923802 -156.997644 
L 145.144518 -157.715998 
L 145.365234 -158.433763 
L 145.58595 -159.150883 
L 145.806666 -159.867301 
L 146.027383 -160.582964 
L 146.248099 -161.297814 
L 146.468815 -162.011795 
L 146.689531 -162.724852 
L 146.910247 -163.436927 
L 147.130963 -164.147964 
L 147.351679 -164.857906 
L 147.572395 -165.566695 
L 147.793111 -166.274275 
L 148.013827 -166.980588 
L 148.234543 -167.685576 
L 148.45526 -168.389181 
L 148.675976 -169.091346 
L 148.896692 -169.792013 
L 149.117408 -170.491123 
L 149.338124 -171.188617 
L 149.55884 -171.884439 
L 149.779556 -172.578528 
L 150.000272 -173.270826 
L 150.220988 -173.961275 
L 150.441704 -174.649816 
L 150.66242 -175.336389 
L 150.883137 -176.020936 
L 151.103853 -176.703399 
L 151.324569 -177.383716 
L 151.545285 -178.061831 
L 151.766001 -178.737683 
L 151.986717 -179.411213 
L 152.207433 -180.082362 
L 152.428149 -180.751072 
L 152.648865 -181.417282 
L 152.869581 -182.080933 
L 153.090298 -182.741967 
L 153.311014 -183.400324 
L 153.53173 -184.055945 
L 153.752446 -184.708771 
L 153.973162 -185.358743 
L 154.193878 -186.005803 
L 154.414594 -186.64989 
L 154.63531 -187.290947 
L 154.856026 -187.928914 
L 155.076742 -188.563733 
L 155.297458 -189.195346 
L 155.518175 -189.823694 
L 155.738891 -190.448718 
L 155.959607 -191.070362 
L 156.180323 -191.688565 
L 156.401039 -192.303272 
L 156.621755 -192.914424 
L 156.842471 -193.521963 
L 157.063187 -194.125832 
L 157.283903 -194.725975 
L 157.504619 -195.322333 
L 157.725335 -195.914851 
L 157.946052 -196.503471 
L 158.166768 -197.088138 
L 158.387484 -197.668795 
L 158.6082 -198.245386 
L 158.828916 -198.817856 
L 159.049632 -199.38615 
L 159.270348 -199.950211 
L 159.491064 -200.509986 
L 159.71178 -201.06542 
L 159.932496 -201.616459 
L 160.153213 -202.163048 
L 160.373929 -202.705135 
L 160.594645 -203.242665 
L 160.815361 -203.775586 
L 161.036077 -204.303844 
L 161.256793 -204.827389 
L 161.477509 -205.346168 
L 161.698225 -205.860128 
L 161.918941 -206.36922 
L 162.139657 -206.873391 
L 162.360373 -207.372593 
L 162.58109 -207.866774 
L 162.801806 -208.355884 
L 163.022522 -208.839876 
L 163.243238 -209.318699 
L 163.463954 -209.792306 
L 163.68467 -210.260648 
L 163.905386 -210.723678 
L 164.126102 -211.181349 
L 164.346818 -211.633614 
L 164.567534 -212.080428 
L 164.78825 -212.521744 
L 165.008967 -212.957517 
L 165.229683 -213.387702 
L 165.450399 -213.812256 
L 165.671115 -214.231135 
L 165.891831 -214.644295 
L 166.112547 -215.051695 
L 166.333263 -215.453291 
L 166.553979 -215.849042 
L 166.774695 -216.238907 
L 166.995411 -216.622846 
L 167.216128 -217.000819 
L 167.436844 -217.372787 
L 167.65756 -217.73871 
L 167.878276 -218.09855 
L 168.098992 -218.45227 
L 168.319708 -218.799833 
L 168.540424 -219.141202 
L 168.76114 -219.476342 
L 168.981856 -219.805217 
L 169.202572 -220.127793 
L 169.423288 -220.444035 
L 169.644005 -220.753911 
L 169.864721 -221.057387 
L 170.085437 -221.354432 
L 170.306153 -221.645014 
L 170.526869 -221.929102 
L 170.747585 -222.206667 
L 170.968301 -222.477678 
L 171.189017 -222.742107 
L 171.409733 -222.999927 
L 171.630449 -223.251108 
L 171.851165 -223.495625 
L 172.071882 -223.733452 
L 172.292598 -223.964563 
L 172.513314 -224.188934 
L 172.73403 -224.40654 
L 172.954746 -224.617358 
L 173.175462 -224.821366 
L 173.396178 -225.018542 
L 173.616894 -225.208864 
L 173.83761 -225.392313 
L 174.058326 -225.568869 
L 174.279043 -225.738512 
L 174.499759 -225.901224 
L 174.720475 -226.056989 
L 174.941191 -226.205788 
L 175.161907 -226.347607 
L 175.382623 -226.48243 
L 175.603339 -226.610242 
L 175.824055 -226.731029 
L 176.044771 -226.844779 
L 176.265487 -226.951479 
L 176.486203 -227.051118 
L 176.70692 -227.143685 
L 176.927636 -227.22917 
L 177.148352 -227.307564 
L 177.369068 -227.378858 
L 177.589784 -227.443045 
L 177.8105 -227.500117 
L 178.031216 -227.550069 
L 178.251932 -227.592895 
L 178.472648 -227.62859 
L 178.693364 -227.657151 
L 178.914081 -227.678574 
L 179.134797 -227.692858 
L 179.355513 -227.7 
L 179.576229 -227.7 
L 179.796945 -227.692858 
L 180.017661 -227.678574 
L 180.238377 -227.657151 
L 180.459093 -227.62859 
L 180.679809 -227.592895 
L 180.900525 -227.550069 
L 181.121241 -227.500117 
L 181.341958 -227.443045 
L 181.562674 -227.378858 
L 181.78339 -227.307564 
L 182.004106 -227.22917 
L 182.224822 -227.143685 
L 182.445538 -227.051118 
L 182.666254 -226.951479 
L 182.88697 -226.844779 
L 183.107686 -226.731029 
L 183.328402 -226.610242 
L 183.549118 -226.48243 
L 183.769835 -226.347607 
L 183.990551 -226.205788 
L 184.211267 -226.056989 
L 184.431983 -225.901224 
L 184.652699 -225.738512 
L 184.873415 -225.568869 
L 185.094131 -225.392313 
L 185.314847 -225.208864 
L 185.535563 -225.018542 
L 185.756279 -224.821366 
L 185.976996 -224.617358 
L 186.197712 -224.40654 
L 186.418428 -224.188934 
L 186.639144 -223.964563 
L 186.85986 -223.733452 
L 187.080576 -223.495625 
L 187.301292 -223.251108 
L 187.522008 -222.999927 
L 187.742724 -222.742107 
L 187.96344 -222.477678 
L 188.184156 -222.206667 
L 188.404873 -221.929102 
L 188.625589 -221.645014 
L 188.846305 -221.354432 
L 189.067021 -221.057387 
L 189.287737 -220.753911 
L 189.508453 -220.444035 
L 189.729169 -220.127793 
L 189.949885 -219.805217 
L 190.170601 -219.476342 
L 190.391317 -219.141202 
L 190.612033 -218.799833 
L 190.83275 -218.45227 
L 191.053466 -218.09855 
L 191.274182 -217.73871 
L 191.494898 -217.372787 
L 191.715614 -217.000819 
L 191.93633 -216.622846 
L 192.157046 -216.238907 
L 192.377762 -215.849042 
L 192.598478 -215.453291 
L 192.819194 -215.051695 
L 193.039911 -214.644295 
L 193.260627 -214.231135 
L 193.481343 -213.812256 
L 193.702059 -213.387702 
L 193.922775 -212.957517 
L 194.143491 -212.521744 
L 194.364207 -212.080428 
L 194.584923 -211.633614 
L 194.805639 -211.181349 
L 195.026355 -210.723678 
L 195.247071 -210.260648 
L 195.467788 -209.792306 
L 195.688504 -209.318699 
L 195.90922 -208.839876 
L 196.129936 -208.355884 
L 196.350652 -207.866774 
L 196.571368 -207.372593 
L 196.792084 -206.873391 
L 197.0128 -206.36922 
L 197.233516 -205.860128 
L 197.454232 -205.346168 
L 197.674948 -204.827389 
L 197.895665 -204.303844 
L 198.116381 -203.775586 
L 198.337097 -203.242665 
L 198.557813 -202.705135 
L 198.778529 -202.163048 
L 198.999245 -201.616459 
L 199.219961 -201.06542 
L 199.440677 -200.509986 
L 199.661393 -199.950211 
L 199.882109 -199.38615 
L 200.102826 -198.817856 
L 200.323542 -198.245386 
L 200.544258 -197.668795 
L 200.764974 -197.088138 
L 200.98569 -196.503471 
L 201.206406 -195.914851 
L 201.427122 -195.322333 
L 201.647838 -194.725975 
L 201.868554 -194.125832 
L 202.08927 -193.521963 
L 202.309986 -192.914424 
L 202.530703 -192.303272 
L 202.751419 -191.688565 
L 202.972135 -191.070362 
L 203.192851 -190.448718 
L 203.413567 -189.823694 
L 203.634283 -189.195346 
L 203.854999 -188.563733 
L 204.075715 -187.928914 
L 204.296431 -187.290947 
L 204.517147 -186.64989 
L 204.737863 -186.005803 
L 204.95858 -185.358743 
L 205.179296 -184.708771 
L 205.400012 -184.055945 
L 205.620728 -183.400324 
L 205.841444 -182.741967 
L 206.06216 -182.080933 
L 206.282876 -181.417282 
L 206.503592 -180.751072 
L 206.724308 -180.082362 
L 206.945024 -179.411213 
L 207.165741 -178.737683 
L 207.386457 -178.061831 
L 207.607173 -177.383716 
L 207.827889 -176.703399 
L 208.048605 -176.020936 
L 208.269321 -175.336389 
L 208.490037 -174.649816 
L 208.710753 -173.961275 
L 208.931469 -173.270826 
L 209.152185 -172.578528 
L 209.372901 -171.884439 
L 209.593618 -171.188617 
L 209.814334 -170.491123 
L 210.03505 -169.792013 
L 210.255766 -169.091346 
L 210.476482 -168.389181 
L 210.697198 -167.685576 
L 210.917914 -166.980588 
L 211.13863 -166.274275 
L 211.359346 -165.566695 
L 211.580062 -164.857906 
L 211.800779 -164.147964 
L 212.021495 -163.436927 
L 212.242211 -162.724852 
L 212.462927 -162.011795 
L 212.683643 -161.297814 
L 212.904359 -160.582964 
L 213.125075 -159.867301 
L 213.345791 -159.150883 
L 213.566507 -158.433763 
L 213.787223 -157.715998 
L 214.007939 -156.997644 
L 214.228656 -156.278754 
L 214.449372 -155.559384 
L 214.670088 -154.839588 
L 214.890804 -154.11942 
L 215.11152 -153.398935 
L 215.332236 -152.678186 
L 215.552952 -151.957226 
L 215.773668 -151.236108 
L 215.994384 -150.514886 
L 216.2151 -149.793612 
L 216.435816 -149.072338 
L 216.656533 -148.351115 
L 216.877249 -147.629996 
L 217.097965 -146.909032 
L 217.318681 -146.188273 
L 217.539397 -145.46777 
L 217.760113 -144.747574 
L 217.980829 -144.027734 
L 218.201545 -143.3083 
L 218.422261 -142.589321 
L 218.642977 -141.870845 
L 218.863694 -141.152922 
L 219.08441 -140.435599 
L 219.305126 -139.718924 
L 219.525842 -139.002945 
L 219.746558 -138.287708 
L 219.967274 -137.57326 
L 220.18799 -136.859647 
L 220.408706 -136.146915 
L 220.629422 -135.435109 
L 220.850138 -134.724275 
L 221.070854 -134.014457 
L 221.291571 -133.305698 
L 221.512287 -132.598043 
L 221.733003 -131.891536 
L 221.953719 -131.186219 
L 222.174435 -130.482134 
L 222.395151 -129.779323 
L 222.615867 -129.077829 
L 222.836583 -128.377693 
L 223.057299 -127.678954 
L 223.278015 -126.981655 
L 223.498731 -126.285833 
L 223.719448 -125.59153 
L 223.940164 -124.898783 
L 224.16088 -124.207632 
L 224.381596 -123.518115 
L 224.602312 -122.830268 
L 224.823028 -122.14413 
L 225.043744 -121.459738 
L 225.26446 -120.777126 
L 225.485176 -120.096332 
L 225.705892 -119.41739 
L 225.926609 -118.740335 
L 226.147325 -118.065203 
L 226.368041 -117.392026 
L 226.588757 -116.720839 
L 226.809473 -116.051673 
L 227.030189 -115.384563 
L 227.250905 -114.719539 
L 227.471621 -114.056634 
L 227.692337 -113.395879 
L 227.913053 -112.737303 
L 228.133769 -112.080939 
L 228.354486 -111.426814 
L 228.575202 -110.774958 
L 228.795918 -110.125401 
L 229.016634 -109.47817 
L 229.23735 -108.833293 
L 229.458066 -108.190797 
L 229.678782 -107.55071 
L 229.899498 -106.913057 
L 230.120214 -106.277865 
L 230.34093 -105.645158 
L 230.561646 -105.014963 
L 230.782363 -104.387302 
L 231.003079 -103.762201 
L 231.223795 -103.139682 
L 231.444511 -102.519769 
L 231.665227 -101.902484 
L 231.885943 -101.28785 
L 232.106659 -100.675887 
L 232.327375 -100.066618 
L 232.548091 -99.460062 
L 232.768807 -98.856239 
L 232.989524 -98.255171 
L 233.21024 -97.656875 
L 233.430956 -97.061371 
L 233.651672 -96.468676 
L 233.872388 -95.878809 
L 234.093104 -95.291788 
L 234.31382 -94.707628 
L 234.534536 -94.126347 
L 234.755252 -93.54796 
L 234.975968 -92.972484 
L 235.196684 -92.399932 
L 235.417401 -91.830321 
L 235.638117 -91.263663 
L 235.858833 -90.699973 
L 236.079549 -90.139264 
L 236.300265 -89.581549 
L 236.520981 -89.02684 
L 236.741697 -88.47515 
L 236.962413 -87.92649 
L 237.183129 -87.38087 
L 237.403845 -86.838303 
L 237.624561 -86.298797 
L 237.845278 -85.762363 
L 238.065994 -85.22901 
L 238.28671 -84.698747 
L 238.507426 -84.171583 
L 238.728142 -83.647525 
L 238.948858 -83.126583 
L 239.169574 -82.608762 
L 239.39029 -82.09407 
L 239.611006 -81.582513 
L 239.831722 -81.074098 
L 240.052439 -80.56883 
L 240.273155 -80.066714 
L 240.493871 -79.567756 
L 240.714587 -79.07196 
L 240.935303 -78.57933 
L 241.156019 -78.08987 
L 241.376735 -77.603583 
L 241.597451 -77.120472 
L 241.818167 -76.64054 
L 242.038883 -76.16379 
L 242.259599 -75.690222 
L 242.480316 -75.219839 
L 242.701032 -74.752643 
L 242.921748 -74.288632 
L 243.142464 -73.827809 
L 243.36318 -73.370173 
L 243.583896 -72.915725 
L 243.804612 -72.464463 
L 244.025328 -72.016386 
L 244.246044 -71.571494 
L 244.46676 -71.129785 
L 244.687476 -70.691257 
L 244.908193 -70.255907 
L 245.128909 -69.823734 
L 245.349625 -69.394734 
L 245.570341 -68.968905 
L 245.791057 -68.546242 
L 246.011773 -68.126743 
L 246.232489 -67.710402 
L 246.453205 -67.297216 
L 246.673921 -66.887181 
L 246.894637 -66.48029 
L 247.115354 -66.076539 
L 247.33607 -65.675923 
L 247.556786 -65.278435 
L 247.777502 -64.88407 
L 247.998218 -64.49282 
L 248.218934 -64.104681 
L 248.43965 -63.719644 
L 248.660366 -63.337703 
L 248.881082 -62.958851 
L 249.101798 -62.583079 
L 249.322514 -62.21038 
L 249.543231 -61.840746 
L 249.763947 -61.474168 
L 249.984663 -61.110638 
L 250.205379 -60.750147 
L 250.426095 -60.392687 
L 250.646811 -60.038247 
L 250.867527 -59.686818 
L 251.088243 -59.338392 
L 251.308959 -58.992957 
L 251.308959 -29.7 
L 251.308959 -29.7 
L 251.088243 -29.7 
L 250.867527 -29.7 
L 250.646811 -29.7 
L 250.426095 -29.7 
L 250.205379 -29.7 
L 249.984663 -29.7 
L 249.763947 -29.7 
L 249.543231 -29.7 
L 249.322514 -29.7 
L 249.101798 -29.7 
L 248.881082 -29.7 
L 248.660366 -29.7 
L 248.43965 -29.7 
L 248.218934 -29.7 
L 247.998218 -29.7 
L 247.777502 -29.7 
L 247.556786 -29.7 
L 247.33607 -29.7 
L 247.115354 -29.7 
L 246.894637 -29.7 
L 246.673921 -29.7 
L 246.453205 -29.7 
L 246.232489 -29.7 
L 246.011773 -29.7 
L 245.791057 -29.7 
L 245.570341 -29.7 
L 245.349625 -29.7 
L 245.128909 -29.7 
L 244.908193 -29.7 
L 244.687476 -29.7 
L 244.46676 -29.7 
L 244.246044 -29.7 
L 244.025328 -29.7 
L 243.804612 -29.7 
L 243.583896 -29.7 
L 243.36318 -29.7 
L 243.142464 -29.7 
L 242.921748 -29.7 
L 242.701032 -29.7 
L 242.480316 -29.7 
L 242.259599 -29.7 
L 242.038883 -29.7 
L 241.818167 -29.7 
L 241.597451 -29.7 
L 241.376735 -29.7 
L 241.156019 -29.7 
L 240.935303 -29.7 
L 240.714587 -29.7 
L 240.493871 -29.7 
L 240.273155 -29.7 
L 240.052439 -29.7 
L 239.831722 -29.7 
L 239.611006 -29.7 
L 239.39029 -29.7 
L 239.169574 -29.7 
L 238.948858 -29.7 
L 238.728142 -29.7 
L 238.507426 -29.7 
L 238.28671 -29.7 
L 238.065994 -29.7 
L 237.845278 -29.7 
L 237.624561 -29.7 
L 237.403845 -29.7 
L 237.183129 -29.7 
L 236.962413 -29.7 
L 236.741697 -29.7 
L 236.520981 -29.7 
L 236.300265 -29.7 
L 236.079549 -29.7 
L 235.858833 -29.7 
L 235.638117 -29.7 
L 235.417401 -29.7 
L 235.196684 -29.7 
L 234.975968 -29.7 
L 234.755252 -29.7 
L 234.534536 -29.7 
L 234.31382 -29.7 
L 234.093104 -29.7 
L 233.872388 -29.7 
L 233.651672 -29.7 
L 233.430956 -29.7 
L 233.21024 -29.7 
L 232.989524 -29.7 
L 232.768807 -29.7 
L 232.548091 -29.7 
L 232.327375 -29.7 
L 232.106659 -29.7 
L 231.885943 -29.7 
L 231.665227 -29.7 
L 231.444511 -29.7 
L 231.223795 -29.7 
L 231.003079 -29.7 
L 230.782363 -29.7 
L 230.561646 -29.7 
L 230.34093 -29.7 
L 230.120214 -29.7 
L 229.899498 -29.7 
L 229.678782 -29.7 
L 229.458066 -29.7 
L 229.23735 -29.7 
L 229.016634 -29.7 
L 228.795918 -29.7 
L 228.575202 -29.7 
L 228.354486 -29.7 
L 228.133769 -29.7 
L 227.913053 -29.7 
L 227.692337 -29.7 
L 227.471621 -29.7 
L 227.250905 -29.7 
L 227.030189 -29.7 
L 226.809473 -29.7 
L 226.588757 -29.7 
L 226.368041 -29.7 
L 226.147325 -29.7 
L 225.926609 -29.7 
L 225.705892 -29.7 
L 225.485176 -29.7 
L 225.26446 -29.7 
L 225.043744 -29.7 
L 224.823028 -29.7 
L 224.602312 -29.7 
L 224.381596 -29.7 
L 224.16088 -29.7 
L 223.940164 -29.7 
L 223.719448 -29.7 
L 223.498731 -29.7 
L 223.278015 -29.7 
L 223.057299 -29.7 
L 222.836583 -29.7 
L 222.615867 -29.7 
L 222.395151 -29.7 
L 222.174435 -29.7 
L 221.953719 -29.7 
L 221.733003 -29.7 
L 221.512287 -29.7 
L 221.291571 -29.7 
L 221.070854 -29.7 
L 220.850138 -29.7 
L 220.629422 -29.7 
L 220.408706 -29.7 
L 220.18799 -29.7 
L 219.967274 -29.7 
L 219.746558 -29.7 
L 219.525842 -29.7 
L 219.305126 -29.7 
L 219.08441 -29.7 
L 218.863694 -29.7 
L 218.642977 -29.7 
L 218.422261 -29.7 
L 218.201545 -29.7 
L 217.980829 -29.7 
L 217.760113 -29.7 
L 217.539397 -29.7 
L 217.318681 -29.7 
L 217.097965 -29.7 
L 216.877249 -29.7 
L 216.656533 -29.7 
L 216.435816 -29.7 
L 216.2151 -29.7 
L 215.994384 -29.7 
L 215.773668 -29.7 
L 215.552952 -29.7 
L 215.332236 -29.7 
L 215.11152 -29.7 
L 214.890804 -29.7 
L 214.670088 -29.7 
L 214.449372 -29.7 
L 214.228656 -29.7 
L 214.007939 -29.7 
L 213.787223 -29.7 
L 213.566507 -29.7 
L 213.345791 -29.7 
L 213.125075 -29.7 
L 212.904359 -29.7 
L 212.683643 -29.7 
L 212.462927 -29.7 
L 212.242211 -29.7 
L 212.021495 -29.7 
L 211.800779 -29.7 
L 211.580062 -29.7 
L 211.359346 -29.7 
L 211.13863 -29.7 
L 210.917914 -29.7 
L 210.697198 -29.7 
L 210.476482 -29.7 
L 210.255766 -29.7 
L 210.03505 -29.7 
L 209.814334 -29.7 
L 209.593618 -29.7 
L 209.372901 -29.7 
L 209.152185 -29.7 
L 208.931469 -29.7 
L 208.710753 -29.7 
L 208.490037 -29.7 
L 208.269321 -29.7 
L 208.048605 -29.7 
L 207.827889 -29.7 
L 207.607173 -29.7 
L 207.386457 -29.7 
L 207.165741 -29.7 
L 206.945024 -29.7 
L 206.724308 -29.7 
L 206.503592 -29.7 
L 206.282876 -29.7 
L 206.06216 -29.7 
L 205.841444 -29.7 
L 205.620728 -29.7 
L 205.400012 -29.7 
L 205.179296 -29.7 
L 204.95858 -29.7 
L 204.737863 -29.7 
L 204.517147 -29.7 
L 204.296431 -29.7 
L 204.075715 -29.7 
L 203.854999 -29.7 
L 203.634283 -29.7 
L 203.413567 -29.7 
L 203.192851 -29.7 
L 202.972135 -29.7 
L 202.751419 -29.7 
L 202.530703 -29.7 
L 202.309986 -29.7 
L 202.08927 -29.7 
L 201.868554 -29.7 
L 201.647838 -29.7 
L 201.427122 -29.7 
L 201.206406 -29.7 
L 200.98569 -29.7 
L 200.764974 -29.7 
L 200.544258 -29.7 
L 200.323542 -29.7 
L 200.102826 -29.7 
L 199.882109 -29.7 
L 199.661393 -29.7 
L 199.440677 -29.7 
L 199.219961 -29.7 
L 198.999245 -29.7 
L 198.778529 -29.7 
L 198.557813 -29.7 
L 198.337097 -29.7 
L 198.116381 -29.7 
L 197.895665 -29.7 
L 197.674948 -29.7 
L 197.454232 -29.7 
L 197.233516 -29.7 
L 197.0128 -29.7 
L 196.792084 -29.7 
L 196.571368 -29.7 
L 196.350652 -29.7 
L 196.129936 -29.7 
L 195.90922 -29.7 
L 195.688504 -29.7 
L 195.467788 -29.7 
L 195.247071 -29.7 
L 195.026355 -29.7 
L 194.805639 -29.7 
L 194.584923 -29.7 
L 194.364207 -29.7 
L 194.143491 -29.7 
L 193.922775 -29.7 
L 193.702059 -29.7 
L 193.481343 -29.7 
L 193.260627 -29.7 
L 193.039911 -29.7 
L 192.819194 -29.7 
L 192.598478 -29.7 
L 192.377762 -29.7 
L 192.157046 -29.7 
L 191.93633 -29.7 
L 191.715614 -29.7 
L 191.494898 -29.7 
L 191.274182 -29.7 
L 191.053466 -29.7 
L 190.83275 -29.7 
L 190.612033 -29.7 
L 190.391317 -29.7 
L 190.170601 -29.7 
L 189.949885 -29.7 
L 189.729169 -29.7 
L 189.508453 -29.7 
L 189.287737 -29.7 
L 189.067021 -29.7 
L 188.846305 -29.7 
L 188.625589 -29.7 
L 188.404873 -29.7 
L 188.184156 -29.7 
L 187.96344 -29.7 
L 187.742724 -29.7 
L 187.522008 -29.7 
L 187.301292 -29.7 
L 187.080576 -29.7 
L 186.85986 -29.7 
L 186.639144 -29.7 
L 186.418428 -29.7 
L 186.197712 -29.7 
L 185.976996 -29.7 
L 185.756279 -29.7 
L 185.535563 -29.7 
L 185.314847 -29.7 
L 185.094131 -29.7 
L 184.873415 -29.7 
L 184.652699 -29.7 
L 184.431983 -29.7 
L 184.211267 -29.7 
L 183.990551 -29.7 
L 183.769835 -29.7 
L 183.549118 -29.7 
L 183.328402 -29.7 
L 183.107686 -29.7 
L 182.88697 -29.7 
L 182.666254 -29.7 
L 182.445538 -29.7 
L 182.224822 -29.7 
L 182.004106 -29.7 
L 181.78339 -29.7 
L 181.562674 -29.7 
L 181.341958 -29.7 
L 181.121241 -29.7 
L 180.900525 -29.7 
L 180.679809 -29.7 
L 180.459093 -29.7 
L 180.238377 -29.7 
L 180.017661 -29.7 
L 179.796945 -29.7 
L 179.576229 -29.7 
L 179.355513 -29.7 
L 179.134797 -29.7 
L 178.914081 -29.7 
L 178.693364 -29.7 
L 178.472648 -29.7 
L 178.251932 -29.7 
L 178.031216 -29.7 
L 177.8105 -29.7 
L 177.589784 -29.7 
L 177.369068 -29.7 
L 177.148352 -29.7 
L 176.927636 -29.7 
L 176.70692 -29.7 
L 176.486203 -29.7 
L 176.265487 -29.7 
L 176.044771 -29.7 
L 175.824055 -29.7 
L 175.603339 -29.7 
L 175.382623 -29.7 
L 175.161907 -29.7 
L 174.941191 -29.7 
L 174.720475 -29.7 
L 174.499759 -29.7 
L 174.279043 -29.7 
L 174.058326 -29.7 
L 173.83761 -29.7 
L 173.616894 -29.7 
L 173.396178 -29.7 
L 173.175462 -29.7 
L 172.954746 -29.7 
L 172.73403 -29.7 
L 172.513314 -29.7 
L 172.292598 -29.7 
L 172.071882 -29.7 
L 171.851165 -29.7 
L 171.630449 -29.7 
L 171.409733 -29.7 
L 171.189017 -29.7 
L 170.968301 -29.7 
L 170.747585 -29.7 
L 170.526869 -29.7 
L 170.306153 -29.7 
L 170.085437 -29.7 
L 169.864721 -29.7 
L 169.644005 -29.7 
L 169.423288 -29.7 
L 169.202572 -29.7 
L 168.981856 -29.7 
L 168.76114 -29.7 
L 168.540424 -29.7 
L 168.319708 -29.7 
L 168.098992 -29.7 
L 167.878276 -29.7 
L 167.65756 -29.7 
L 167.436844 -29.7 
L 167.216128 -29.7 
L 166.995411 -29.7 
L 166.774695 -29.7 
L 166.553979 -29.7 
L 166.333263 -29.7 
L 166.112547 -29.7 
L 165.891831 -29.7 
L 165.671115 -29.7 
L 165.450399 -29.7 
L 165.229683 -29.7 
L 165.008967 -29.7 
L 164.78825 -29.7 
L 164.567534 -29.7 
L 164.346818 -29.7 
L 164.126102 -29.7 
L 163.905386 -29.7 
L 163.68467 -29.7 
L 163.463954 -29.7 
L 163.243238 -29.7 
L 163.022522 -29.7 
L 162.801806 -29.7 
L 162.58109 -29.7 
L 162.360373 -29.7 
L 162.139657 -29.7 
L 161.918941 -29.7 
L 161.698225 -29.7 
L 161.477509 -29.7 
L 161.256793 -29.7 
L 161.036077 -29.7 
L 160.815361 -29.7 
L 160.594645 -29.7 
L 160.373929 -29.7 
L 160.153213 -29.7 
L 159.932496 -29.7 
L 159.71178 -29.7 
L 159.491064 -29.7 
L 159.270348 -29.7 
L 159.049632 -29.7 
L 158.828916 -29.7 
L 158.6082 -29.7 
L 158.387484 -29.7 
L 158.166768 -29.7 
L 157.946052 -29.7 
L 157.725335 -29.7 
L 157.504619 -29.7 
L 157.283903 -29.7 
L 157.063187 -29.7 
L 156.842471 -29.7 
L 156.621755 -29.7 
L 156.401039 -29.7 
L 156.180323 -29.7 
L 155.959607 -29.7 
L 155.738891 -29.7 
L 155.518175 -29.7 
L 155.297458 -29.7 
L 155.076742 -29.7 
L 154.856026 -29.7 
L 154.63531 -29.7 
L 154.414594 -29.7 
L 154.193878 -29.7 
L 153.973162 -29.7 
L 153.752446 -29.7 
L 153.53173 -29.7 
L 153.311014 -29.7 
L 153.090298 -29.7 
L 152.869581 -29.7 
L 152.648865 -29.7 
L 152.428149 -29.7 
L 152.207433 -29.7 
L 151.986717 -29.7 
L 151.766001 -29.7 
L 151.545285 -29.7 
L 151.324569 -29.7 
L 151.103853 -29.7 
L 150.883137 -29.7 
L 150.66242 -29.7 
L 150.441704 -29.7 
L 150.220988 -29.7 
L 150.000272 -29.7 
L 149.779556 -29.7 
L 149.55884 -29.7 
L 149.338124 -29.7 
L 149.117408 -29.7 
L 148.896692 -29.7 
L 148.675976 -29.7 
L 148.45526 -29.7 
L 148.234543 -29.7 
L 148.013827 -29.7 
L 147.793111 -29.7 
L 147.572395 -29.7 
L 147.351679 -29.7 
L 147.130963 -29.7 
L 146.910247 -29.7 
L 146.689531 -29.7 
L 146.468815 -29.7 
L 146.248099 -29.7 
L 146.027383 -29.7 
L 145.806666 -29.7 
L 145.58595 -29.7 
L 145.365234 -29.7 
L 145.144518 -29.7 
L 144.923802 -29.7 
L 144.703086 -29.7 
L 144.48237 -29.7 
L 144.261654 -29.7 
L 144.040938 -29.7 
L 143.820222 -29.7 
L 143.599505 -29.7 
L 143.378789 -29.7 
L 143.158073 -29.7 
L 142.937357 -29.7 
L 142.716641 -29.7 
L 142.495925 -29.7 
L 142.275209 -29.7 
L 142.054493 -29.7 
L 141.833777 -29.7 
L 141.613061 -29.7 
L 141.392345 -29.7 
L 141.171628 -29.7 
L 140.950912 -29.7 
L 140.730196 -29.7 
L 140.50948 -29.7 
L 140.288764 -29.7 
L 140.068048 -29.7 
L 139.847332 -29.7 
L 139.626616 -29.7 
L 139.4059 -29.7 
L 139.185184 -29.7 
L 138.964468 -29.7 
L 138.743751 -29.7 
L 138.523035 -29.7 
L 138.302319 -29.7 
L 138.081603 -29.7 
L 137.860887 -29.7 
L 137.640171 -29.7 
L 137.419455 -29.7 
L 137.198739 -29.7 
L 136.978023 -29.7 
L 136.757307 -29.7 
L 136.53659 -29.7 
L 136.315874 -29.7 
L 136.095158 -29.7 
L 135.874442 -29.7 
L 135.653726 -29.7 
L 135.43301 -29.7 
L 135.212294 -29.7 
L 134.991578 -29.7 
L 134.770862 -29.7 
L 134.550146 -29.7 
L 134.32943 -29.7 
L 134.108713 -29.7 
L 133.887997 -29.7 
L 133.667281 -29.7 
L 133.446565 -29.7 
L 133.225849 -29.7 
L 133.005133 -29.7 
L 132.784417 -29.7 
L 132.563701 -29.7 
L 132.342985 -29.7 
L 132.122269 -29.7 
L 131.901552 -29.7 
L 131.680836 -29.7 
L 131.46012 -29.7 
L 131.239404 -29.7 
L 131.018688 -29.7 
L 130.797972 -29.7 
L 130.577256 -29.7 
L 130.35654 -29.7 
L 130.135824 -29.7 
L 129.915108 -29.7 
L 129.694392 -29.7 
L 129.473675 -29.7 
L 129.252959 -29.7 
L 129.032243 -29.7 
L 128.811527 -29.7 
L 128.590811 -29.7 
L 128.370095 -29.7 
L 128.149379 -29.7 
L 127.928663 -29.7 
L 127.707947 -29.7 
L 127.487231 -29.7 
L 127.266515 -29.7 
L 127.045798 -29.7 
L 126.825082 -29.7 
L 126.604366 -29.7 
L 126.38365 -29.7 
L 126.162934 -29.7 
L 125.942218 -29.7 
L 125.721502 -29.7 
L 125.500786 -29.7 
L 125.28007 -29.7 
L 125.059354 -29.7 
L 124.838637 -29.7 
L 124.617921 -29.7 
L 124.397205 -29.7 
L 124.176489 -29.7 
L 123.955773 -29.7 
L 123.735057 -29.7 
L 123.514341 -29.7 
L 123.293625 -29.7 
L 123.072909 -29.7 
L 122.852193 -29.7 
L 122.631477 -29.7 
L 122.41076 -29.7 
L 122.190044 -29.7 
L 121.969328 -29.7 
L 121.748612 -29.7 
L 121.527896 -29.7 
L 121.30718 -29.7 
L 121.086464 -29.7 
L 120.865748 -29.7 
L 120.645032 -29.7 
L 120.424316 -29.7 
L 120.2036 -29.7 
L 119.982883 -29.7 
L 119.762167 -29.7 
L 119.541451 -29.7 
L 119.320735 -29.7 
L 119.100019 -29.7 
L 118.879303 -29.7 
L 118.658587 -29.7 
L 118.437871 -29.7 
L 118.217155 -29.7 
L 117.996439 -29.7 
L 117.775722 -29.7 
L 117.555006 -29.7 
L 117.33429 -29.7 
L 117.113574 -29.7 
L 116.892858 -29.7 
L 116.672142 -29.7 
L 116.451426 -29.7 
L 116.23071 -29.7 
L 116.009994 -29.7 
L 115.789278 -29.7 
L 115.568562 -29.7 
L 115.347845 -29.7 
L 115.127129 -29.7 
L 114.906413 -29.7 
L 114.685697 -29.7 
L 114.464981 -29.7 
L 114.244265 -29.7 
L 114.023549 -29.7 
L 113.802833 -29.7 
L 113.582117 -29.7 
L 113.361401 -29.7 
L 113.140685 -29.7 
L 112.919968 -29.7 
L 112.699252 -29.7 
L 112.478536 -29.7 
L 112.25782 -29.7 
L 112.037104 -29.7 
L 111.816388 -29.7 
L 111.595672 -29.7 
L 111.374956 -29.7 
L 111.15424 -29.7 
L 110.933524 -29.7 
L 110.712807 -29.7 
L 110.492091 -29.7 
L 110.271375 -29.7 
L 110.050659 -29.7 
L 109.829943 -29.7 
L 109.609227 -29.7 
L 109.388511 -29.7 
L 109.167795 -29.7 
L 108.947079 -29.7 
L 108.726363 -29.7 
L 108.505647 -29.7 
L 108.28493 -29.7 
L 108.064214 -29.7 
L 107.843498 -29.7 
L 107.622782 -29.7 
z
" style="stroke: #cb4154; stroke-opacity: 0.25"/>
    </defs>
    <g clip-path="url(#p650b26aa18)">
     <use xlink:href="#ma1e5b5e758" x="0" y="270" style="fill: #cb4154; fill-opacity: 0.25; stroke: #cb4154; stroke-opacity: 0.25"/>
    </g>
   </g>
   <g id="matplotlib.axis_1">
    <g id="xtick_1">
     <g id="line2d_1">
      <defs>
       <path id="maa1a6db34b" d="M 0 0 
L 0 3.5 
" style="stroke: #030303; stroke-width: 0.8"/>
      </defs>
      <g>
       <use xlink:href="#maa1a6db34b" x="105.967411" y="240.3" style="fill: #030303; stroke: #030303; stroke-width: 0.8"/>
      </g>
     </g>
     <g id="text_1">
      <!-- $\mathdefault{−2}$ -->
      <g style="fill: #030303" transform="translate(96.347411 257.177969) scale(0.13 -0.13)">
       <defs>
        <path id="DejaVuSerif-2212" d="M 678 2259 
L 4684 2259 
L 4684 1753 
L 678 1753 
L 678 2259 
z
" transform="scale(0.015625)"/>
        <path id="DejaVuSerif-32" d="M 819 3553 
L 469 3553 
L 469 4384 
Q 803 4563 1142 4656 
Q 1481 4750 1806 4750 
Q 2534 4750 2956 4397 
Q 3378 4044 3378 3438 
Q 3378 2753 2422 1800 
Q 2347 1728 2309 1691 
L 1131 513 
L 3078 513 
L 3078 1088 
L 3444 1088 
L 3444 0 
L 434 0 
L 434 341 
L 1850 1753 
Q 2319 2222 2519 2614 
Q 2719 3006 2719 3438 
Q 2719 3909 2473 4175 
Q 2228 4441 1797 4441 
Q 1350 4441 1106 4219 
Q 863 3997 819 3553 
z
" transform="scale(0.015625)"/>
       </defs>
       <use xlink:href="#DejaVuSerif-2212" transform="translate(0 0.78125)"/>
       <use xlink:href="#DejaVuSerif-32" transform="translate(83.789062 0.78125)"/>
      </g>
     </g>
    </g>
    <g id="xtick_2">
     <g id="line2d_2">
      <g>
       <use xlink:href="#maa1a6db34b" x="179.465871" y="240.3" style="fill: #030303; stroke: #030303; stroke-width: 0.8"/>
      </g>
     </g>
     <g id="text_2">
      <!-- $\mathdefault{0}$ -->
      <g style="fill: #030303" transform="translate(175.305871 257.177969) scale(0.13 -0.13)">
       <defs>
        <path id="DejaVuSerif-30" d="M 2034 219 
Q 2513 219 2750 744 
Q 2988 1269 2988 2328 
Q 2988 3391 2750 3916 
Q 2513 4441 2034 4441 
Q 1556 4441 1318 3916 
Q 1081 3391 1081 2328 
Q 1081 1269 1318 744 
Q 1556 219 2034 219 
z
M 2034 -91 
Q 1275 -91 848 546 
Q 422 1184 422 2328 
Q 422 3475 848 4112 
Q 1275 4750 2034 4750 
Q 2797 4750 3222 4112 
Q 3647 3475 3647 2328 
Q 3647 1184 3222 546 
Q 2797 -91 2034 -91 
z
" transform="scale(0.015625)"/>
       </defs>
       <use xlink:href="#DejaVuSerif-30" transform="translate(0 0.78125)"/>
      </g>
     </g>
    </g>
    <g id="xtick_3">
     <g id="line2d_3">
      <g>
       <use xlink:href="#maa1a6db34b" x="252.96433" y="240.3" style="fill: #030303; stroke: #030303; stroke-width: 0.8"/>
      </g>
     </g>
     <g id="text_3">
      <!-- $\mathdefault{2}$ -->
      <g style="fill: #030303" transform="translate(248.80433 257.177969) scale(0.13 -0.13)">
       <use xlink:href="#DejaVuSerif-32" transform="translate(0 0.78125)"/>
      </g>
     </g>
    </g>
    <g id="xtick_4">
     <g id="line2d_4">
      <g>
       <use xlink:href="#maa1a6db34b" x="326.462789" y="240.3" style="fill: #030303; stroke: #030303; stroke-width: 0.8"/>
      </g>
     </g>
     <g id="text_4">
      <!-- $\mathdefault{4}$ -->
      <g style="fill: #030303" transform="translate(322.302789 257.177969) scale(0.13 -0.13)">
       <defs>
        <path id="DejaVuSerif-34" d="M 2234 1581 
L 2234 4063 
L 641 1581 
L 2234 1581 
z
M 3609 0 
L 1484 0 
L 1484 331 
L 2234 331 
L 2234 1247 
L 197 1247 
L 197 1588 
L 2241 4750 
L 2859 4750 
L 2859 1581 
L 3750 1581 
L 3750 1247 
L 2859 1247 
L 2859 331 
L 3609 331 
L 3609 0 
z
" transform="scale(0.015625)"/>
       </defs>
       <use xlink:href="#DejaVuSerif-34" transform="translate(0 0.78125)"/>
      </g>
     </g>
    </g>
    <g id="text_5">
     <!-- Stress (MPa) -->
     <g style="fill: #030303" transform="translate(162.638438 277.55875) scale(0.18 -0.18)">
      <defs>
       <path id="DejaVuSerif-53" d="M 594 225 
L 594 1288 
L 953 1284 
Q 969 753 1261 498 
Q 1553 244 2150 244 
Q 2706 244 2998 464 
Q 3291 684 3291 1106 
Q 3291 1444 3114 1625 
Q 2938 1806 2369 1978 
L 1753 2163 
Q 1084 2366 811 2669 
Q 538 2972 538 3500 
Q 538 4094 959 4422 
Q 1381 4750 2144 4750 
Q 2469 4750 2856 4679 
Q 3244 4609 3681 4475 
L 3681 3481 
L 3328 3481 
Q 3275 3975 2998 4195 
Q 2722 4416 2156 4416 
Q 1663 4416 1405 4214 
Q 1147 4013 1147 3628 
Q 1147 3294 1340 3103 
Q 1534 2913 2163 2725 
L 2741 2553 
Q 3375 2363 3645 2067 
Q 3916 1772 3916 1275 
Q 3916 597 3481 253 
Q 3047 -91 2188 -91 
Q 1803 -91 1404 -12 
Q 1006 66 594 225 
z
" transform="scale(0.015625)"/>
       <path id="DejaVuSerif-74" d="M 691 2988 
L 184 2988 
L 184 3322 
L 691 3322 
L 691 4353 
L 1269 4353 
L 1269 3322 
L 2350 3322 
L 2350 2988 
L 1269 2988 
L 1269 878 
Q 1269 456 1350 337 
Q 1431 219 1650 219 
Q 1875 219 1978 351 
Q 2081 484 2088 781 
L 2522 781 
Q 2497 328 2275 118 
Q 2053 -91 1600 -91 
Q 1103 -91 897 129 
Q 691 350 691 878 
L 691 2988 
z
" transform="scale(0.015625)"/>
       <path id="DejaVuSerif-72" d="M 3059 3328 
L 3059 2497 
L 2728 2497 
Q 2713 2744 2591 2866 
Q 2469 2988 2234 2988 
Q 1809 2988 1582 2694 
Q 1356 2400 1356 1850 
L 1356 331 
L 2022 331 
L 2022 0 
L 263 0 
L 263 331 
L 781 331 
L 781 2994 
L 231 2994 
L 231 3322 
L 1356 3322 
L 1356 2731 
Q 1525 3078 1790 3245 
Q 2056 3413 2438 3413 
Q 2578 3413 2733 3391 
Q 2888 3369 3059 3328 
z
" transform="scale(0.015625)"/>
       <path id="DejaVuSerif-65" d="M 3469 1600 
L 991 1600 
L 991 1575 
Q 991 903 1244 561 
Q 1497 219 1991 219 
Q 2369 219 2611 417 
Q 2853 616 2950 1006 
L 3413 1006 
Q 3275 459 2904 184 
Q 2534 -91 1931 -91 
Q 1203 -91 761 389 
Q 319 869 319 1663 
Q 319 2450 753 2931 
Q 1188 3413 1894 3413 
Q 2647 3413 3050 2948 
Q 3453 2484 3469 1600 
z
M 2791 1931 
Q 2772 2513 2545 2808 
Q 2319 3103 1894 3103 
Q 1497 3103 1269 2806 
Q 1041 2509 991 1931 
L 2791 1931 
z
" transform="scale(0.015625)"/>
       <path id="DejaVuSerif-73" d="M 359 184 
L 359 959 
L 691 959 
Q 703 588 923 403 
Q 1144 219 1575 219 
Q 1963 219 2166 364 
Q 2369 509 2369 788 
Q 2369 1006 2220 1140 
Q 2072 1275 1594 1428 
L 1178 1569 
Q 750 1706 558 1912 
Q 366 2119 366 2438 
Q 366 2894 700 3153 
Q 1034 3413 1625 3413 
Q 1888 3413 2178 3344 
Q 2469 3275 2778 3144 
L 2778 2419 
L 2447 2419 
Q 2434 2741 2221 2922 
Q 2009 3103 1644 3103 
Q 1281 3103 1095 2975 
Q 909 2847 909 2591 
Q 909 2381 1050 2254 
Q 1191 2128 1613 1997 
L 2069 1856 
Q 2541 1709 2748 1489 
Q 2956 1269 2956 922 
Q 2956 450 2595 179 
Q 2234 -91 1600 -91 
Q 1278 -91 972 -22 
Q 666 47 359 184 
z
" transform="scale(0.015625)"/>
       <path id="DejaVuSerif-20" transform="scale(0.015625)"/>
       <path id="DejaVuSerif-28" d="M 2041 -997 
Q 1281 -656 893 83 
Q 506 822 506 1931 
Q 506 3044 893 3783 
Q 1281 4522 2041 4863 
L 2041 4556 
Q 1559 4225 1350 3623 
Q 1141 3022 1141 1931 
Q 1141 844 1350 242 
Q 1559 -359 2041 -691 
L 2041 -997 
z
" transform="scale(0.015625)"/>
       <path id="DejaVuSerif-4d" d="M 353 0 
L 353 331 
L 947 331 
L 947 4331 
L 319 4331 
L 319 4666 
L 1678 4666 
L 3316 1344 
L 4953 4666 
L 6228 4666 
L 6228 4331 
L 5606 4331 
L 5606 331 
L 6203 331 
L 6203 0 
L 4378 0 
L 4378 331 
L 4972 331 
L 4972 3938 
L 3372 684 
L 2931 684 
L 1331 3938 
L 1331 331 
L 1925 331 
L 1925 0 
L 353 0 
z
" transform="scale(0.015625)"/>
       <path id="DejaVuSerif-50" d="M 1581 2375 
L 2406 2375 
Q 2872 2375 3115 2626 
Q 3359 2878 3359 3353 
Q 3359 3831 3115 4081 
Q 2872 4331 2406 4331 
L 1581 4331 
L 1581 2375 
z
M 353 0 
L 353 331 
L 947 331 
L 947 4331 
L 353 4331 
L 353 4666 
L 2559 4666 
Q 3259 4666 3668 4311 
Q 4078 3956 4078 3353 
Q 4078 2753 3668 2397 
Q 3259 2041 2559 2041 
L 1581 2041 
L 1581 331 
L 2303 331 
L 2303 0 
L 353 0 
z
" transform="scale(0.015625)"/>
       <path id="DejaVuSerif-61" d="M 2547 1044 
L 2547 1747 
L 1806 1747 
Q 1378 1747 1168 1562 
Q 959 1378 959 997 
Q 959 650 1171 447 
Q 1384 244 1747 244 
Q 2106 244 2326 466 
Q 2547 688 2547 1044 
z
M 3122 2075 
L 3122 331 
L 3634 331 
L 3634 0 
L 2547 0 
L 2547 359 
Q 2356 128 2106 18 
Q 1856 -91 1522 -91 
Q 969 -91 644 203 
Q 319 497 319 997 
Q 319 1513 691 1797 
Q 1063 2081 1741 2081 
L 2547 2081 
L 2547 2309 
Q 2547 2688 2317 2895 
Q 2088 3103 1672 3103 
Q 1328 3103 1125 2947 
Q 922 2791 872 2484 
L 575 2484 
L 575 3156 
Q 875 3284 1158 3348 
Q 1441 3413 1709 3413 
Q 2400 3413 2761 3070 
Q 3122 2728 3122 2075 
z
" transform="scale(0.015625)"/>
       <path id="DejaVuSerif-29" d="M 453 -997 
L 453 -691 
Q 934 -359 1145 242 
Q 1356 844 1356 1931 
Q 1356 3022 1145 3623 
Q 934 4225 453 4556 
L 453 4863 
Q 1216 4522 1603 3783 
Q 1991 3044 1991 1931 
Q 1991 822 1603 83 
Q 1216 -656 453 -997 
z
" transform="scale(0.015625)"/>
      </defs>
      <use xlink:href="#DejaVuSerif-53"/>
      <use xlink:href="#DejaVuSerif-74" x="68.505859"/>
      <use xlink:href="#DejaVuSerif-72" x="108.691406"/>
      <use xlink:href="#DejaVuSerif-65" x="156.494141"/>
      <use xlink:href="#DejaVuSerif-73" x="215.673828"/>
      <use xlink:href="#DejaVuSerif-73" x="266.992188"/>
      <use xlink:href="#DejaVuSerif-20" x="318.310547"/>
      <use xlink:href="#DejaVuSerif-28" x="350.097656"/>
      <use xlink:href="#DejaVuSerif-4d" x="389.111328"/>
      <use xlink:href="#DejaVuSerif-50" x="491.503906"/>
      <use xlink:href="#DejaVuSerif-61" x="554.289062"/>
      <use xlink:href="#DejaVuSerif-29" x="613.908203"/>
     </g>
    </g>
   </g>
   <g id="matplotlib.axis_2">
    <g id="ytick_1">
     <g id="line2d_5">
      <defs>
       <path id="mc1deb03cfb" d="M 0 0 
L -3.5 0 
" style="stroke: #030303; stroke-width: 0.8"/>
      </defs>
      <g>
       <use xlink:href="#mc1deb03cfb" x="54" y="240.3" style="fill: #030303; stroke: #030303; stroke-width: 0.8"/>
      </g>
     </g>
     <g id="text_6">
      <!-- $\mathdefault{0.00}$ -->
      <g style="fill: #030303" transform="translate(24.7 244.099219) scale(0.1 -0.1)">
       <defs>
        <path id="DejaVuSerif-2e" d="M 603 325 
Q 603 500 722 622 
Q 841 744 1019 744 
Q 1191 744 1312 622 
Q 1434 500 1434 325 
Q 1434 153 1312 31 
Q 1191 -91 1019 -91 
Q 841 -91 722 29 
Q 603 150 603 325 
z
" transform="scale(0.015625)"/>
       </defs>
       <use xlink:href="#DejaVuSerif-30" transform="translate(0 0.78125)"/>
       <use xlink:href="#DejaVuSerif-2e" transform="translate(63.623047 0.78125)"/>
       <use xlink:href="#DejaVuSerif-30" transform="translate(95.410156 0.78125)"/>
       <use xlink:href="#DejaVuSerif-30" transform="translate(159.033203 0.78125)"/>
      </g>
     </g>
    </g>
    <g id="ytick_2">
     <g id="line2d_6">
      <g>
       <use xlink:href="#mc1deb03cfb" x="54" y="215.484268" style="fill: #030303; stroke: #030303; stroke-width: 0.8"/>
      </g>
     </g>
     <g id="text_7">
      <!-- $\mathdefault{0.05}$ -->
      <g style="fill: #030303" transform="translate(24.7 219.283487) scale(0.1 -0.1)">
       <defs>
        <path id="DejaVuSerif-35" d="M 3219 4666 
L 3219 4153 
L 1081 4153 
L 1081 2816 
Q 1244 2928 1461 2984 
Q 1678 3041 1947 3041 
Q 2703 3041 3140 2622 
Q 3578 2203 3578 1478 
Q 3578 738 3136 323 
Q 2694 -91 1894 -91 
Q 1572 -91 1234 -12 
Q 897 66 544 225 
L 544 1131 
L 897 1131 
Q 925 688 1179 453 
Q 1434 219 1894 219 
Q 2388 219 2653 544 
Q 2919 869 2919 1478 
Q 2919 2084 2655 2407 
Q 2391 2731 1894 2731 
Q 1613 2731 1398 2631 
Q 1184 2531 1019 2322 
L 750 2322 
L 750 4666 
L 3219 4666 
z
" transform="scale(0.015625)"/>
       </defs>
       <use xlink:href="#DejaVuSerif-30" transform="translate(0 0.78125)"/>
       <use xlink:href="#DejaVuSerif-2e" transform="translate(63.623047 0.78125)"/>
       <use xlink:href="#DejaVuSerif-30" transform="translate(95.410156 0.78125)"/>
       <use xlink:href="#DejaVuSerif-35" transform="translate(159.033203 0.78125)"/>
      </g>
     </g>
    </g>
    <g id="ytick_3">
     <g id="line2d_7">
      <g>
       <use xlink:href="#mc1deb03cfb" x="54" y="190.668536" style="fill: #030303; stroke: #030303; stroke-width: 0.8"/>
      </g>
     </g>
     <g id="text_8">
      <!-- $\mathdefault{0.10}$ -->
      <g style="fill: #030303" transform="translate(24.7 194.467755) scale(0.1 -0.1)">
       <defs>
        <path id="DejaVuSerif-31" d="M 909 0 
L 909 331 
L 1722 331 
L 1722 4213 
L 781 3603 
L 781 4013 
L 1919 4750 
L 2350 4750 
L 2350 331 
L 3163 331 
L 3163 0 
L 909 0 
z
" transform="scale(0.015625)"/>
       </defs>
       <use xlink:href="#DejaVuSerif-30" transform="translate(0 0.78125)"/>
       <use xlink:href="#DejaVuSerif-2e" transform="translate(63.623047 0.78125)"/>
       <use xlink:href="#DejaVuSerif-31" transform="translate(95.410156 0.78125)"/>
       <use xlink:href="#DejaVuSerif-30" transform="translate(159.033203 0.78125)"/>
      </g>
     </g>
    </g>
    <g id="ytick_4">
     <g id="line2d_8">
      <g>
       <use xlink:href="#mc1deb03cfb" x="54" y="165.852805" style="fill: #030303; stroke: #030303; stroke-width: 0.8"/>
      </g>
     </g>
     <g id="text_9">
      <!-- $\mathdefault{0.15}$ -->
      <g style="fill: #030303" transform="translate(24.7 169.652023) scale(0.1 -0.1)">
       <use xlink:href="#DejaVuSerif-30" transform="translate(0 0.78125)"/>
       <use xlink:href="#DejaVuSerif-2e" transform="translate(63.623047 0.78125)"/>
       <use xlink:href="#DejaVuSerif-31" transform="translate(95.410156 0.78125)"/>
       <use xlink:href="#DejaVuSerif-35" transform="translate(159.033203 0.78125)"/>
      </g>
     </g>
    </g>
    <g id="ytick_5">
     <g id="line2d_9">
      <g>
       <use xlink:href="#mc1deb03cfb" x="54" y="141.037073" style="fill: #030303; stroke: #030303; stroke-width: 0.8"/>
      </g>
     </g>
     <g id="text_10">
      <!-- $\mathdefault{0.20}$ -->
      <g style="fill: #030303" transform="translate(24.9 144.836291) scale(0.1 -0.1)">
       <use xlink:href="#DejaVuSerif-30" transform="translate(0 0.78125)"/>
       <use xlink:href="#DejaVuSerif-2e" transform="translate(63.623047 0.78125)"/>
       <use xlink:href="#DejaVuSerif-32" transform="translate(92.785156 0.78125)"/>
       <use xlink:href="#DejaVuSerif-30" transform="translate(156.408203 0.78125)"/>
      </g>
     </g>
    </g>
    <g id="ytick_6">
     <g id="line2d_10">
      <g>
       <use xlink:href="#mc1deb03cfb" x="54" y="116.221341" style="fill: #030303; stroke: #030303; stroke-width: 0.8"/>
      </g>
     </g>
     <g id="text_11">
      <!-- $\mathdefault{0.25}$ -->
      <g style="fill: #030303" transform="translate(24.9 120.02056) scale(0.1 -0.1)">
       <use xlink:href="#DejaVuSerif-30" transform="translate(0 0.78125)"/>
       <use xlink:href="#DejaVuSerif-2e" transform="translate(63.623047 0.78125)"/>
       <use xlink:href="#DejaVuSerif-32" transform="translate(92.785156 0.78125)"/>
       <use xlink:href="#DejaVuSerif-35" transform="translate(156.408203 0.78125)"/>
      </g>
     </g>
    </g>
    <g id="ytick_7">
     <g id="line2d_11">
      <g>
       <use xlink:href="#mc1deb03cfb" x="54" y="91.405609" style="fill: #030303; stroke: #030303; stroke-width: 0.8"/>
      </g>
     </g>
     <g id="text_12">
      <!-- $\mathdefault{0.30}$ -->
      <g style="fill: #030303" transform="translate(24.7 95.204828) scale(0.1 -0.1)">
       <defs>
        <path id="DejaVuSerif-33" d="M 622 4469 
Q 988 4606 1323 4678 
Q 1659 4750 1953 4750 
Q 2638 4750 3022 4454 
Q 3406 4159 3406 3634 
Q 3406 3213 3140 2930 
Q 2875 2647 2388 2547 
Q 2963 2466 3280 2130 
Q 3597 1794 3597 1259 
Q 3597 606 3158 257 
Q 2719 -91 1894 -91 
Q 1528 -91 1179 -12 
Q 831 66 488 225 
L 488 1131 
L 838 1131 
Q 869 681 1141 450 
Q 1413 219 1906 219 
Q 2384 219 2661 495 
Q 2938 772 2938 1253 
Q 2938 1803 2653 2086 
Q 2369 2369 1819 2369 
L 1522 2369 
L 1522 2688 
L 1678 2688 
Q 2225 2688 2498 2914 
Q 2772 3141 2772 3597 
Q 2772 4006 2547 4223 
Q 2322 4441 1900 4441 
Q 1478 4441 1245 4241 
Q 1013 4041 972 3647 
L 622 3647 
L 622 4469 
z
" transform="scale(0.015625)"/>
       </defs>
       <use xlink:href="#DejaVuSerif-30" transform="translate(0 0.78125)"/>
       <use xlink:href="#DejaVuSerif-2e" transform="translate(63.623047 0.78125)"/>
       <use xlink:href="#DejaVuSerif-33" transform="translate(95.410156 0.78125)"/>
       <use xlink:href="#DejaVuSerif-30" transform="translate(159.033203 0.78125)"/>
      </g>
     </g>
    </g>
    <g id="ytick_8">
     <g id="line2d_12">
      <g>
       <use xlink:href="#mc1deb03cfb" x="54" y="66.589877" style="fill: #030303; stroke: #030303; stroke-width: 0.8"/>
      </g>
     </g>
     <g id="text_13">
      <!-- $\mathdefault{0.35}$ -->
      <g style="fill: #030303" transform="translate(24.7 70.389096) scale(0.1 -0.1)">
       <use xlink:href="#DejaVuSerif-30" transform="translate(0 0.78125)"/>
       <use xlink:href="#DejaVuSerif-2e" transform="translate(63.623047 0.78125)"/>
       <use xlink:href="#DejaVuSerif-33" transform="translate(95.410156 0.78125)"/>
       <use xlink:href="#DejaVuSerif-35" transform="translate(159.033203 0.78125)"/>
      </g>
     </g>
    </g>
    <g id="ytick_9">
     <g id="line2d_13">
      <g>
       <use xlink:href="#mc1deb03cfb" x="54" y="41.774145" style="fill: #030303; stroke: #030303; stroke-width: 0.8"/>
      </g>
     </g>
     <g id="text_14">
      <!-- $\mathdefault{0.40}$ -->
      <g style="fill: #030303" transform="translate(24.7 45.573364) scale(0.1 -0.1)">
       <use xlink:href="#DejaVuSerif-30" transform="translate(0 0.78125)"/>
       <use xlink:href="#DejaVuSerif-2e" transform="translate(63.623047 0.78125)"/>
       <use xlink:href="#DejaVuSerif-34" transform="translate(95.410156 0.78125)"/>
       <use xlink:href="#DejaVuSerif-30" transform="translate(159.033203 0.78125)"/>
      </g>
     </g>
    </g>
    <g id="text_15">
     <!-- Probability Density -->
     <g style="fill: #030303" transform="translate(16.700625 223.749844) rotate(-90) scale(0.18 -0.18)">
      <defs>
       <path id="DejaVuSerif-6f" d="M 1925 219 
Q 2388 219 2623 584 
Q 2859 950 2859 1663 
Q 2859 2375 2623 2739 
Q 2388 3103 1925 3103 
Q 1463 3103 1227 2739 
Q 991 2375 991 1663 
Q 991 950 1228 584 
Q 1466 219 1925 219 
z
M 1925 -91 
Q 1200 -91 759 389 
Q 319 869 319 1663 
Q 319 2456 758 2934 
Q 1197 3413 1925 3413 
Q 2653 3413 3092 2934 
Q 3531 2456 3531 1663 
Q 3531 869 3092 389 
Q 2653 -91 1925 -91 
z
" transform="scale(0.015625)"/>
       <path id="DejaVuSerif-62" d="M 738 331 
L 738 4531 
L 184 4531 
L 184 4863 
L 1313 4863 
L 1313 2803 
Q 1481 3116 1742 3264 
Q 2003 3413 2388 3413 
Q 3000 3413 3387 2928 
Q 3775 2444 3775 1663 
Q 3775 881 3387 395 
Q 3000 -91 2388 -91 
Q 2003 -91 1742 57 
Q 1481 206 1313 519 
L 1313 0 
L 184 0 
L 184 331 
L 738 331 
z
M 1313 1497 
Q 1313 897 1542 583 
Q 1772 269 2209 269 
Q 2650 269 2876 622 
Q 3103 975 3103 1663 
Q 3103 2353 2876 2703 
Q 2650 3053 2209 3053 
Q 1772 3053 1542 2737 
Q 1313 2422 1313 1825 
L 1313 1497 
z
" transform="scale(0.015625)"/>
       <path id="DejaVuSerif-69" d="M 622 4353 
Q 622 4497 726 4603 
Q 831 4709 978 4709 
Q 1122 4709 1226 4603 
Q 1331 4497 1331 4353 
Q 1331 4206 1228 4103 
Q 1125 4000 978 4000 
Q 831 4000 726 4103 
Q 622 4206 622 4353 
z
M 1356 331 
L 1900 331 
L 1900 0 
L 231 0 
L 231 331 
L 781 331 
L 781 2988 
L 231 2988 
L 231 3322 
L 1356 3322 
L 1356 331 
z
" transform="scale(0.015625)"/>
       <path id="DejaVuSerif-6c" d="M 1313 331 
L 1856 331 
L 1856 0 
L 184 0 
L 184 331 
L 738 331 
L 738 4531 
L 184 4531 
L 184 4863 
L 1313 4863 
L 1313 331 
z
" transform="scale(0.015625)"/>
       <path id="DejaVuSerif-79" d="M 1381 -609 
L 1600 -56 
L 359 2988 
L -19 2988 
L -19 3322 
L 1509 3322 
L 1509 2988 
L 978 2988 
L 1913 703 
L 2847 2988 
L 2350 2988 
L 2350 3322 
L 3597 3322 
L 3597 2988 
L 3225 2988 
L 1703 -750 
Q 1547 -1138 1356 -1280 
Q 1166 -1422 819 -1422 
Q 672 -1422 517 -1397 
Q 363 -1372 206 -1325 
L 206 -691 
L 500 -691 
Q 519 -903 608 -995 
Q 697 -1088 884 -1088 
Q 1056 -1088 1161 -992 
Q 1266 -897 1381 -609 
z
" transform="scale(0.015625)"/>
       <path id="DejaVuSerif-44" d="M 1581 331 
L 2163 331 
Q 3072 331 3558 850 
Q 4044 1369 4044 2338 
Q 4044 3306 3559 3818 
Q 3075 4331 2163 4331 
L 1581 4331 
L 1581 331 
z
M 353 0 
L 353 331 
L 947 331 
L 947 4331 
L 353 4331 
L 353 4666 
L 2209 4666 
Q 3416 4666 4089 4050 
Q 4763 3434 4763 2338 
Q 4763 1238 4088 619 
Q 3413 0 2209 0 
L 353 0 
z
" transform="scale(0.015625)"/>
       <path id="DejaVuSerif-6e" d="M 263 0 
L 263 331 
L 781 331 
L 781 2988 
L 231 2988 
L 231 3322 
L 1356 3322 
L 1356 2731 
Q 1516 3069 1770 3241 
Q 2025 3413 2363 3413 
Q 2913 3413 3172 3097 
Q 3431 2781 3431 2113 
L 3431 331 
L 3944 331 
L 3944 0 
L 2356 0 
L 2356 331 
L 2853 331 
L 2853 1931 
Q 2853 2541 2703 2767 
Q 2553 2994 2175 2994 
Q 1775 2994 1565 2701 
Q 1356 2409 1356 1850 
L 1356 331 
L 1856 331 
L 1856 0 
L 263 0 
z
" transform="scale(0.015625)"/>
      </defs>
      <use xlink:href="#DejaVuSerif-50"/>
      <use xlink:href="#DejaVuSerif-72" x="67.285156"/>
      <use xlink:href="#DejaVuSerif-6f" x="115.087891"/>
      <use xlink:href="#DejaVuSerif-62" x="175.292969"/>
      <use xlink:href="#DejaVuSerif-61" x="239.306641"/>
      <use xlink:href="#DejaVuSerif-62" x="298.925781"/>
      <use xlink:href="#DejaVuSerif-69" x="362.939453"/>
      <use xlink:href="#DejaVuSerif-6c" x="394.921875"/>
      <use xlink:href="#DejaVuSerif-69" x="426.904297"/>
      <use xlink:href="#DejaVuSerif-74" x="458.886719"/>
      <use xlink:href="#DejaVuSerif-79" x="499.072266"/>
      <use xlink:href="#DejaVuSerif-20" x="555.566406"/>
      <use xlink:href="#DejaVuSerif-44" x="587.353516"/>
      <use xlink:href="#DejaVuSerif-65" x="667.529297"/>
      <use xlink:href="#DejaVuSerif-6e" x="726.708984"/>
      <use xlink:href="#DejaVuSerif-73" x="791.113281"/>
      <use xlink:href="#DejaVuSerif-69" x="842.431641"/>
      <use xlink:href="#DejaVuSerif-74" x="874.414062"/>
      <use xlink:href="#DejaVuSerif-79" x="914.599609"/>
     </g>
    </g>
   </g>
   <g id="line2d_14">
    <path d="M 69.218182 238.100409 
L 73.191072 237.275481 
L 76.722529 236.324961 
L 80.03327 235.207088 
L 83.123296 233.928585 
L 85.992605 232.505139 
L 88.861914 230.821638 
L 91.510507 229.007875 
L 94.1591 226.916733 
L 96.807694 224.520519 
L 99.235571 222.032434 
L 101.663448 219.244136 
L 104.091325 216.135942 
L 106.519202 212.689701 
L 109.167795 208.525832 
L 111.816388 203.923461 
L 114.464981 198.870215 
L 117.33429 192.879528 
L 120.2036 186.352475 
L 123.293625 178.736337 
L 126.604366 169.933382 
L 130.135824 159.874599 
L 134.108713 147.85587 
L 139.185184 131.712292 
L 151.986717 90.588787 
L 155.518175 80.176306 
L 158.6082 71.754614 
L 161.256793 65.172611 
L 163.68467 59.739352 
L 165.891831 55.355705 
L 167.878276 51.90145 
L 169.644005 49.246089 
L 171.409733 47.000073 
L 172.954746 45.382642 
L 174.499759 44.098776 
L 175.824055 43.268971 
L 177.148352 42.692436 
L 178.472648 42.37141 
L 179.796945 42.307142 
L 181.121241 42.499883 
L 182.445538 42.948882 
L 183.769835 43.652393 
L 185.094131 44.607687 
L 186.639144 46.035437 
L 188.184156 47.793333 
L 189.729169 49.872207 
L 191.494898 52.627213 
L 193.481343 56.187744 
L 195.467788 60.207694 
L 197.674948 65.172611 
L 200.102826 71.182144 
L 202.972135 78.929638 
L 206.282876 88.582718 
L 210.255766 100.908654 
L 216.435816 120.927662 
L 224.16088 145.792368 
L 228.575202 159.225042 
L 232.327375 169.933382 
L 235.638117 178.736337 
L 238.728142 186.352475 
L 241.597451 192.879528 
L 244.46676 198.870215 
L 247.33607 204.324077 
L 249.984663 208.889362 
L 252.633256 213.017404 
L 255.281849 216.725705 
L 257.930442 220.035501 
L 260.579035 222.970856 
L 263.227628 225.557794 
L 265.876222 227.823524 
L 268.524815 229.795739 
L 271.173408 231.502016 
L 274.042717 233.081616 
L 276.912026 234.413608 
L 280.002052 235.60665 
L 283.312793 236.646719 
L 286.84425 237.528309 
L 289.71356 238.100409 
L 289.71356 238.100409 
" clip-path="url(#p650b26aa18)" style="fill: none; stroke: #cb4154; stroke-width: 1.5; stroke-linecap: square"/>
   </g>
   <g id="patch_3">
    <path d="M 54 240.3 
L 54 32.4 
" style="fill: none; stroke: #030303; stroke-width: 1.5; stroke-linejoin: miter; stroke-linecap: square"/>
   </g>
   <g id="patch_4">
    <path d="M 54 240.3 
L 388.8 240.3 
" style="fill: none; stroke: #030303; stroke-width: 1.5; stroke-linejoin: miter; stroke-linecap: square"/>
   </g>
  </g>
  <g id="axes_2">
   <g id="PolyCollection_2">
    <defs>
     <path id="mab72b37b24" d="M 191.491041 -29.7 
L 191.491041 -58.992957 
L 191.711757 -59.338392 
L 191.932473 -59.686818 
L 192.153189 -60.038247 
L 192.373905 -60.392687 
L 192.594621 -60.750147 
L 192.815337 -61.110638 
L 193.036053 -61.474168 
L 193.256769 -61.840746 
L 193.477486 -62.21038 
L 193.698202 -62.583079 
L 193.918918 -62.958851 
L 194.139634 -63.337703 
L 194.36035 -63.719644 
L 194.581066 -64.104681 
L 194.801782 -64.49282 
L 195.022498 -64.88407 
L 195.243214 -65.278435 
L 195.46393 -65.675923 
L 195.684646 -66.076539 
L 195.905363 -66.48029 
L 196.126079 -66.887181 
L 196.346795 -67.297216 
L 196.567511 -67.710402 
L 196.788227 -68.126743 
L 197.008943 -68.546242 
L 197.229659 -68.968905 
L 197.450375 -69.394734 
L 197.671091 -69.823734 
L 197.891807 -70.255907 
L 198.112524 -70.691257 
L 198.33324 -71.129785 
L 198.553956 -71.571494 
L 198.774672 -72.016386 
L 198.995388 -72.464463 
L 199.216104 -72.915725 
L 199.43682 -73.370173 
L 199.657536 -73.827809 
L 199.878252 -74.288632 
L 200.098968 -74.752643 
L 200.319684 -75.219839 
L 200.540401 -75.690222 
L 200.761117 -76.16379 
L 200.981833 -76.64054 
L 201.202549 -77.120472 
L 201.423265 -77.603583 
L 201.643981 -78.08987 
L 201.864697 -78.57933 
L 202.085413 -79.07196 
L 202.306129 -79.567756 
L 202.526845 -80.066714 
L 202.747561 -80.56883 
L 202.968278 -81.074098 
L 203.188994 -81.582513 
L 203.40971 -82.09407 
L 203.630426 -82.608762 
L 203.851142 -83.126583 
L 204.071858 -83.647525 
L 204.292574 -84.171583 
L 204.51329 -84.698747 
L 204.734006 -85.22901 
L 204.954722 -85.762363 
L 205.175439 -86.298797 
L 205.396155 -86.838303 
L 205.616871 -87.38087 
L 205.837587 -87.92649 
L 206.058303 -88.47515 
L 206.279019 -89.02684 
L 206.499735 -89.581549 
L 206.720451 -90.139264 
L 206.941167 -90.699973 
L 207.161883 -91.263663 
L 207.382599 -91.830321 
L 207.603316 -92.399932 
L 207.824032 -92.972484 
L 208.044748 -93.54796 
L 208.265464 -94.126347 
L 208.48618 -94.707628 
L 208.706896 -95.291788 
L 208.927612 -95.878809 
L 209.148328 -96.468676 
L 209.369044 -97.061371 
L 209.58976 -97.656875 
L 209.810476 -98.255171 
L 210.031193 -98.856239 
L 210.251909 -99.460062 
L 210.472625 -100.066618 
L 210.693341 -100.675887 
L 210.914057 -101.28785 
L 211.134773 -101.902484 
L 211.355489 -102.519769 
L 211.576205 -103.139682 
L 211.796921 -103.762201 
L 212.017637 -104.387302 
L 212.238354 -105.014963 
L 212.45907 -105.645158 
L 212.679786 -106.277865 
L 212.900502 -106.913057 
L 213.121218 -107.55071 
L 213.341934 -108.190797 
L 213.56265 -108.833293 
L 213.783366 -109.47817 
L 214.004082 -110.125401 
L 214.224798 -110.774958 
L 214.445514 -111.426814 
L 214.666231 -112.080939 
L 214.886947 -112.737303 
L 215.107663 -113.395879 
L 215.328379 -114.056634 
L 215.549095 -114.719539 
L 215.769811 -115.384563 
L 215.990527 -116.051673 
L 216.211243 -116.720839 
L 216.431959 -117.392026 
L 216.652675 -118.065203 
L 216.873391 -118.740335 
L 217.094108 -119.41739 
L 217.314824 -120.096332 
L 217.53554 -120.777126 
L 217.756256 -121.459738 
L 217.976972 -122.14413 
L 218.197688 -122.830268 
L 218.418404 -123.518115 
L 218.63912 -124.207632 
L 218.859836 -124.898783 
L 219.080552 -125.59153 
L 219.301269 -126.285833 
L 219.521985 -126.981655 
L 219.742701 -127.678954 
L 219.963417 -128.377693 
L 220.184133 -129.077829 
L 220.404849 -129.779323 
L 220.625565 -130.482134 
L 220.846281 -131.186219 
L 221.066997 -131.891536 
L 221.287713 -132.598043 
L 221.508429 -133.305698 
L 221.729146 -134.014457 
L 221.949862 -134.724275 
L 222.170578 -135.435109 
L 222.391294 -136.146915 
L 222.61201 -136.859647 
L 222.832726 -137.57326 
L 223.053442 -138.287708 
L 223.274158 -139.002945 
L 223.494874 -139.718924 
L 223.71559 -140.435599 
L 223.936306 -141.152922 
L 224.157023 -141.870845 
L 224.377739 -142.589321 
L 224.598455 -143.3083 
L 224.819171 -144.027734 
L 225.039887 -144.747574 
L 225.260603 -145.46777 
L 225.481319 -146.188273 
L 225.702035 -146.909032 
L 225.922751 -147.629996 
L 226.143467 -148.351115 
L 226.364184 -149.072338 
L 226.5849 -149.793612 
L 226.805616 -150.514886 
L 227.026332 -151.236108 
L 227.247048 -151.957226 
L 227.467764 -152.678186 
L 227.68848 -153.398935 
L 227.909196 -154.11942 
L 228.129912 -154.839588 
L 228.350628 -155.559384 
L 228.571344 -156.278754 
L 228.792061 -156.997644 
L 229.012777 -157.715998 
L 229.233493 -158.433763 
L 229.454209 -159.150883 
L 229.674925 -159.867301 
L 229.895641 -160.582964 
L 230.116357 -161.297814 
L 230.337073 -162.011795 
L 230.557789 -162.724852 
L 230.778505 -163.436927 
L 230.999221 -164.147964 
L 231.219938 -164.857906 
L 231.440654 -165.566695 
L 231.66137 -166.274275 
L 231.882086 -166.980588 
L 232.102802 -167.685576 
L 232.323518 -168.389181 
L 232.544234 -169.091346 
L 232.76495 -169.792013 
L 232.985666 -170.491123 
L 233.206382 -171.188617 
L 233.427099 -171.884439 
L 233.647815 -172.578528 
L 233.868531 -173.270826 
L 234.089247 -173.961275 
L 234.309963 -174.649816 
L 234.530679 -175.336389 
L 234.751395 -176.020936 
L 234.972111 -176.703399 
L 235.192827 -177.383716 
L 235.413543 -178.061831 
L 235.634259 -178.737683 
L 235.854976 -179.411213 
L 236.075692 -180.082362 
L 236.296408 -180.751072 
L 236.517124 -181.417282 
L 236.73784 -182.080933 
L 236.958556 -182.741967 
L 237.179272 -183.400324 
L 237.399988 -184.055945 
L 237.620704 -184.708771 
L 237.84142 -185.358743 
L 238.062137 -186.005803 
L 238.282853 -186.64989 
L 238.503569 -187.290947 
L 238.724285 -187.928914 
L 238.945001 -188.563733 
L 239.165717 -189.195346 
L 239.386433 -189.823694 
L 239.607149 -190.448718 
L 239.827865 -191.070362 
L 240.048581 -191.688565 
L 240.269297 -192.303272 
L 240.490014 -192.914424 
L 240.71073 -193.521963 
L 240.931446 -194.125832 
L 241.152162 -194.725975 
L 241.372878 -195.322333 
L 241.593594 -195.914851 
L 241.81431 -196.503471 
L 242.035026 -197.088138 
L 242.255742 -197.668795 
L 242.476458 -198.245386 
L 242.697174 -198.817856 
L 242.917891 -199.38615 
L 243.138607 -199.950211 
L 243.359323 -200.509986 
L 243.580039 -201.06542 
L 243.800755 -201.616459 
L 244.021471 -202.163048 
L 244.242187 -202.705135 
L 244.462903 -203.242665 
L 244.683619 -203.775586 
L 244.904335 -204.303844 
L 245.125052 -204.827389 
L 245.345768 -205.346168 
L 245.566484 -205.860128 
L 245.7872 -206.36922 
L 246.007916 -206.873391 
L 246.228632 -207.372593 
L 246.449348 -207.866774 
L 246.670064 -208.355884 
L 246.89078 -208.839876 
L 247.111496 -209.318699 
L 247.332212 -209.792306 
L 247.552929 -210.260648 
L 247.773645 -210.723678 
L 247.994361 -211.181349 
L 248.215077 -211.633614 
L 248.435793 -212.080428 
L 248.656509 -212.521744 
L 248.877225 -212.957517 
L 249.097941 -213.387702 
L 249.318657 -213.812256 
L 249.539373 -214.231135 
L 249.760089 -214.644295 
L 249.980806 -215.051695 
L 250.201522 -215.453291 
L 250.422238 -215.849042 
L 250.642954 -216.238907 
L 250.86367 -216.622846 
L 251.084386 -217.000819 
L 251.305102 -217.372787 
L 251.525818 -217.73871 
L 251.746534 -218.09855 
L 251.96725 -218.45227 
L 252.187967 -218.799833 
L 252.408683 -219.141202 
L 252.629399 -219.476342 
L 252.850115 -219.805217 
L 253.070831 -220.127793 
L 253.291547 -220.444035 
L 253.512263 -220.753911 
L 253.732979 -221.057387 
L 253.953695 -221.354432 
L 254.174411 -221.645014 
L 254.395127 -221.929102 
L 254.615844 -222.206667 
L 254.83656 -222.477678 
L 255.057276 -222.742107 
L 255.277992 -222.999927 
L 255.498708 -223.251108 
L 255.719424 -223.495625 
L 255.94014 -223.733452 
L 256.160856 -223.964563 
L 256.381572 -224.188934 
L 256.602288 -224.40654 
L 256.823004 -224.617358 
L 257.043721 -224.821366 
L 257.264437 -225.018542 
L 257.485153 -225.208864 
L 257.705869 -225.392313 
L 257.926585 -225.568869 
L 258.147301 -225.738512 
L 258.368017 -225.901224 
L 258.588733 -226.056989 
L 258.809449 -226.205788 
L 259.030165 -226.347607 
L 259.250882 -226.48243 
L 259.471598 -226.610242 
L 259.692314 -226.731029 
L 259.91303 -226.844779 
L 260.133746 -226.951479 
L 260.354462 -227.051118 
L 260.575178 -227.143685 
L 260.795894 -227.22917 
L 261.01661 -227.307564 
L 261.237326 -227.378858 
L 261.458042 -227.443045 
L 261.678759 -227.500117 
L 261.899475 -227.550069 
L 262.120191 -227.592895 
L 262.340907 -227.62859 
L 262.561623 -227.657151 
L 262.782339 -227.678574 
L 263.003055 -227.692858 
L 263.223771 -227.7 
L 263.444487 -227.7 
L 263.665203 -227.692858 
L 263.885919 -227.678574 
L 264.106636 -227.657151 
L 264.327352 -227.62859 
L 264.548068 -227.592895 
L 264.768784 -227.550069 
L 264.9895 -227.500117 
L 265.210216 -227.443045 
L 265.430932 -227.378858 
L 265.651648 -227.307564 
L 265.872364 -227.22917 
L 266.09308 -227.143685 
L 266.313797 -227.051118 
L 266.534513 -226.951479 
L 266.755229 -226.844779 
L 266.975945 -226.731029 
L 267.196661 -226.610242 
L 267.417377 -226.48243 
L 267.638093 -226.347607 
L 267.858809 -226.205788 
L 268.079525 -226.056989 
L 268.300241 -225.901224 
L 268.520957 -225.738512 
L 268.741674 -225.568869 
L 268.96239 -225.392313 
L 269.183106 -225.208864 
L 269.403822 -225.018542 
L 269.624538 -224.821366 
L 269.845254 -224.617358 
L 270.06597 -224.40654 
L 270.286686 -224.188934 
L 270.507402 -223.964563 
L 270.728118 -223.733452 
L 270.948835 -223.495625 
L 271.169551 -223.251108 
L 271.390267 -222.999927 
L 271.610983 -222.742107 
L 271.831699 -222.477678 
L 272.052415 -222.206667 
L 272.273131 -221.929102 
L 272.493847 -221.645014 
L 272.714563 -221.354432 
L 272.935279 -221.057387 
L 273.155995 -220.753911 
L 273.376712 -220.444035 
L 273.597428 -220.127793 
L 273.818144 -219.805217 
L 274.03886 -219.476342 
L 274.259576 -219.141202 
L 274.480292 -218.799833 
L 274.701008 -218.45227 
L 274.921724 -218.09855 
L 275.14244 -217.73871 
L 275.363156 -217.372787 
L 275.583872 -217.000819 
L 275.804589 -216.622846 
L 276.025305 -216.238907 
L 276.246021 -215.849042 
L 276.466737 -215.453291 
L 276.687453 -215.051695 
L 276.908169 -214.644295 
L 277.128885 -214.231135 
L 277.349601 -213.812256 
L 277.570317 -213.387702 
L 277.791033 -212.957517 
L 278.01175 -212.521744 
L 278.232466 -212.080428 
L 278.453182 -211.633614 
L 278.673898 -211.181349 
L 278.894614 -210.723678 
L 279.11533 -210.260648 
L 279.336046 -209.792306 
L 279.556762 -209.318699 
L 279.777478 -208.839876 
L 279.998194 -208.355884 
L 280.21891 -207.866774 
L 280.439627 -207.372593 
L 280.660343 -206.873391 
L 280.881059 -206.36922 
L 281.101775 -205.860128 
L 281.322491 -205.346168 
L 281.543207 -204.827389 
L 281.763923 -204.303844 
L 281.984639 -203.775586 
L 282.205355 -203.242665 
L 282.426071 -202.705135 
L 282.646787 -202.163048 
L 282.867504 -201.616459 
L 283.08822 -201.06542 
L 283.308936 -200.509986 
L 283.529652 -199.950211 
L 283.750368 -199.38615 
L 283.971084 -198.817856 
L 284.1918 -198.245386 
L 284.412516 -197.668795 
L 284.633232 -197.088138 
L 284.853948 -196.503471 
L 285.074665 -195.914851 
L 285.295381 -195.322333 
L 285.516097 -194.725975 
L 285.736813 -194.125832 
L 285.957529 -193.521963 
L 286.178245 -192.914424 
L 286.398961 -192.303272 
L 286.619677 -191.688565 
L 286.840393 -191.070362 
L 287.061109 -190.448718 
L 287.281825 -189.823694 
L 287.502542 -189.195346 
L 287.723258 -188.563733 
L 287.943974 -187.928914 
L 288.16469 -187.290947 
L 288.385406 -186.64989 
L 288.606122 -186.005803 
L 288.826838 -185.358743 
L 289.047554 -184.708771 
L 289.26827 -184.055945 
L 289.488986 -183.400324 
L 289.709702 -182.741967 
L 289.930419 -182.080933 
L 290.151135 -181.417282 
L 290.371851 -180.751072 
L 290.592567 -180.082362 
L 290.813283 -179.411213 
L 291.033999 -178.737683 
L 291.254715 -178.061831 
L 291.475431 -177.383716 
L 291.696147 -176.703399 
L 291.916863 -176.020936 
L 292.13758 -175.336389 
L 292.358296 -174.649816 
L 292.579012 -173.961275 
L 292.799728 -173.270826 
L 293.020444 -172.578528 
L 293.24116 -171.884439 
L 293.461876 -171.188617 
L 293.682592 -170.491123 
L 293.903308 -169.792013 
L 294.124024 -169.091346 
L 294.34474 -168.389181 
L 294.565457 -167.685576 
L 294.786173 -166.980588 
L 295.006889 -166.274275 
L 295.227605 -165.566695 
L 295.448321 -164.857906 
L 295.669037 -164.147964 
L 295.889753 -163.436927 
L 296.110469 -162.724852 
L 296.331185 -162.011795 
L 296.551901 -161.297814 
L 296.772617 -160.582964 
L 296.993334 -159.867301 
L 297.21405 -159.150883 
L 297.434766 -158.433763 
L 297.655482 -157.715998 
L 297.876198 -156.997644 
L 298.096914 -156.278754 
L 298.31763 -155.559384 
L 298.538346 -154.839588 
L 298.759062 -154.11942 
L 298.979778 -153.398935 
L 299.200495 -152.678186 
L 299.421211 -151.957226 
L 299.641927 -151.236108 
L 299.862643 -150.514886 
L 300.083359 -149.793612 
L 300.304075 -149.072338 
L 300.524791 -148.351115 
L 300.745507 -147.629996 
L 300.966223 -146.909032 
L 301.186939 -146.188273 
L 301.407655 -145.46777 
L 301.628372 -144.747574 
L 301.849088 -144.027734 
L 302.069804 -143.3083 
L 302.29052 -142.589321 
L 302.511236 -141.870845 
L 302.731952 -141.152922 
L 302.952668 -140.435599 
L 303.173384 -139.718924 
L 303.3941 -139.002945 
L 303.614816 -138.287708 
L 303.835532 -137.57326 
L 304.056249 -136.859647 
L 304.276965 -136.146915 
L 304.497681 -135.435109 
L 304.718397 -134.724275 
L 304.939113 -134.014457 
L 305.159829 -133.305698 
L 305.380545 -132.598043 
L 305.601261 -131.891536 
L 305.821977 -131.186219 
L 306.042693 -130.482134 
L 306.26341 -129.779323 
L 306.484126 -129.077829 
L 306.704842 -128.377693 
L 306.925558 -127.678954 
L 307.146274 -126.981655 
L 307.36699 -126.285833 
L 307.587706 -125.59153 
L 307.808422 -124.898783 
L 308.029138 -124.207632 
L 308.249854 -123.518115 
L 308.47057 -122.830268 
L 308.691287 -122.14413 
L 308.912003 -121.459738 
L 309.132719 -120.777126 
L 309.353435 -120.096332 
L 309.574151 -119.41739 
L 309.794867 -118.740335 
L 310.015583 -118.065203 
L 310.236299 -117.392026 
L 310.457015 -116.720839 
L 310.677731 -116.051673 
L 310.898448 -115.384563 
L 311.119164 -114.719539 
L 311.33988 -114.056634 
L 311.560596 -113.395879 
L 311.781312 -112.737303 
L 312.002028 -112.080939 
L 312.222744 -111.426814 
L 312.44346 -110.774958 
L 312.664176 -110.125401 
L 312.884892 -109.47817 
L 313.105608 -108.833293 
L 313.326325 -108.190797 
L 313.547041 -107.55071 
L 313.767757 -106.913057 
L 313.988473 -106.277865 
L 314.209189 -105.645158 
L 314.429905 -105.014963 
L 314.650621 -104.387302 
L 314.871337 -103.762201 
L 315.092053 -103.139682 
L 315.312769 -102.519769 
L 315.533485 -101.902484 
L 315.754202 -101.28785 
L 315.974918 -100.675887 
L 316.195634 -100.066618 
L 316.41635 -99.460062 
L 316.637066 -98.856239 
L 316.857782 -98.255171 
L 317.078498 -97.656875 
L 317.299214 -97.061371 
L 317.51993 -96.468676 
L 317.740646 -95.878809 
L 317.961363 -95.291788 
L 318.182079 -94.707628 
L 318.402795 -94.126347 
L 318.623511 -93.54796 
L 318.844227 -92.972484 
L 319.064943 -92.399932 
L 319.285659 -91.830321 
L 319.506375 -91.263663 
L 319.727091 -90.699973 
L 319.947807 -90.139264 
L 320.168523 -89.581549 
L 320.38924 -89.02684 
L 320.609956 -88.47515 
L 320.830672 -87.92649 
L 321.051388 -87.38087 
L 321.272104 -86.838303 
L 321.49282 -86.298797 
L 321.713536 -85.762363 
L 321.934252 -85.22901 
L 322.154968 -84.698747 
L 322.375684 -84.171583 
L 322.5964 -83.647525 
L 322.817117 -83.126583 
L 323.037833 -82.608762 
L 323.258549 -82.09407 
L 323.479265 -81.582513 
L 323.699981 -81.074098 
L 323.920697 -80.56883 
L 324.141413 -80.066714 
L 324.362129 -79.567756 
L 324.582845 -79.07196 
L 324.803561 -78.57933 
L 325.024278 -78.08987 
L 325.244994 -77.603583 
L 325.46571 -77.120472 
L 325.686426 -76.64054 
L 325.907142 -76.16379 
L 326.127858 -75.690222 
L 326.348574 -75.219839 
L 326.56929 -74.752643 
L 326.790006 -74.288632 
L 327.010722 -73.827809 
L 327.231438 -73.370173 
L 327.452155 -72.915725 
L 327.672871 -72.464463 
L 327.893587 -72.016386 
L 328.114303 -71.571494 
L 328.335019 -71.129785 
L 328.555735 -70.691257 
L 328.776451 -70.255907 
L 328.997167 -69.823734 
L 329.217883 -69.394734 
L 329.438599 -68.968905 
L 329.659315 -68.546242 
L 329.880032 -68.126743 
L 330.100748 -67.710402 
L 330.321464 -67.297216 
L 330.54218 -66.887181 
L 330.762896 -66.48029 
L 330.983612 -66.076539 
L 331.204328 -65.675923 
L 331.425044 -65.278435 
L 331.64576 -64.88407 
L 331.866476 -64.49282 
L 332.087193 -64.104681 
L 332.307909 -63.719644 
L 332.528625 -63.337703 
L 332.749341 -62.958851 
L 332.970057 -62.583079 
L 333.190773 -62.21038 
L 333.411489 -61.840746 
L 333.632205 -61.474168 
L 333.852921 -61.110638 
L 334.073637 -60.750147 
L 334.294353 -60.392687 
L 334.51507 -60.038247 
L 334.735786 -59.686818 
L 334.956502 -59.338392 
L 335.177218 -58.992957 
L 335.177218 -29.7 
L 335.177218 -29.7 
L 334.956502 -29.7 
L 334.735786 -29.7 
L 334.51507 -29.7 
L 334.294353 -29.7 
L 334.073637 -29.7 
L 333.852921 -29.7 
L 333.632205 -29.7 
L 333.411489 -29.7 
L 333.190773 -29.7 
L 332.970057 -29.7 
L 332.749341 -29.7 
L 332.528625 -29.7 
L 332.307909 -29.7 
L 332.087193 -29.7 
L 331.866476 -29.7 
L 331.64576 -29.7 
L 331.425044 -29.7 
L 331.204328 -29.7 
L 330.983612 -29.7 
L 330.762896 -29.7 
L 330.54218 -29.7 
L 330.321464 -29.7 
L 330.100748 -29.7 
L 329.880032 -29.7 
L 329.659315 -29.7 
L 329.438599 -29.7 
L 329.217883 -29.7 
L 328.997167 -29.7 
L 328.776451 -29.7 
L 328.555735 -29.7 
L 328.335019 -29.7 
L 328.114303 -29.7 
L 327.893587 -29.7 
L 327.672871 -29.7 
L 327.452155 -29.7 
L 327.231438 -29.7 
L 327.010722 -29.7 
L 326.790006 -29.7 
L 326.56929 -29.7 
L 326.348574 -29.7 
L 326.127858 -29.7 
L 325.907142 -29.7 
L 325.686426 -29.7 
L 325.46571 -29.7 
L 325.244994 -29.7 
L 325.024278 -29.7 
L 324.803561 -29.7 
L 324.582845 -29.7 
L 324.362129 -29.7 
L 324.141413 -29.7 
L 323.920697 -29.7 
L 323.699981 -29.7 
L 323.479265 -29.7 
L 323.258549 -29.7 
L 323.037833 -29.7 
L 322.817117 -29.7 
L 322.5964 -29.7 
L 322.375684 -29.7 
L 322.154968 -29.7 
L 321.934252 -29.7 
L 321.713536 -29.7 
L 321.49282 -29.7 
L 321.272104 -29.7 
L 321.051388 -29.7 
L 320.830672 -29.7 
L 320.609956 -29.7 
L 320.38924 -29.7 
L 320.168523 -29.7 
L 319.947807 -29.7 
L 319.727091 -29.7 
L 319.506375 -29.7 
L 319.285659 -29.7 
L 319.064943 -29.7 
L 318.844227 -29.7 
L 318.623511 -29.7 
L 318.402795 -29.7 
L 318.182079 -29.7 
L 317.961363 -29.7 
L 317.740646 -29.7 
L 317.51993 -29.7 
L 317.299214 -29.7 
L 317.078498 -29.7 
L 316.857782 -29.7 
L 316.637066 -29.7 
L 316.41635 -29.7 
L 316.195634 -29.7 
L 315.974918 -29.7 
L 315.754202 -29.7 
L 315.533485 -29.7 
L 315.312769 -29.7 
L 315.092053 -29.7 
L 314.871337 -29.7 
L 314.650621 -29.7 
L 314.429905 -29.7 
L 314.209189 -29.7 
L 313.988473 -29.7 
L 313.767757 -29.7 
L 313.547041 -29.7 
L 313.326325 -29.7 
L 313.105608 -29.7 
L 312.884892 -29.7 
L 312.664176 -29.7 
L 312.44346 -29.7 
L 312.222744 -29.7 
L 312.002028 -29.7 
L 311.781312 -29.7 
L 311.560596 -29.7 
L 311.33988 -29.7 
L 311.119164 -29.7 
L 310.898448 -29.7 
L 310.677731 -29.7 
L 310.457015 -29.7 
L 310.236299 -29.7 
L 310.015583 -29.7 
L 309.794867 -29.7 
L 309.574151 -29.7 
L 309.353435 -29.7 
L 309.132719 -29.7 
L 308.912003 -29.7 
L 308.691287 -29.7 
L 308.47057 -29.7 
L 308.249854 -29.7 
L 308.029138 -29.7 
L 307.808422 -29.7 
L 307.587706 -29.7 
L 307.36699 -29.7 
L 307.146274 -29.7 
L 306.925558 -29.7 
L 306.704842 -29.7 
L 306.484126 -29.7 
L 306.26341 -29.7 
L 306.042693 -29.7 
L 305.821977 -29.7 
L 305.601261 -29.7 
L 305.380545 -29.7 
L 305.159829 -29.7 
L 304.939113 -29.7 
L 304.718397 -29.7 
L 304.497681 -29.7 
L 304.276965 -29.7 
L 304.056249 -29.7 
L 303.835532 -29.7 
L 303.614816 -29.7 
L 303.3941 -29.7 
L 303.173384 -29.7 
L 302.952668 -29.7 
L 302.731952 -29.7 
L 302.511236 -29.7 
L 302.29052 -29.7 
L 302.069804 -29.7 
L 301.849088 -29.7 
L 301.628372 -29.7 
L 301.407655 -29.7 
L 301.186939 -29.7 
L 300.966223 -29.7 
L 300.745507 -29.7 
L 300.524791 -29.7 
L 300.304075 -29.7 
L 300.083359 -29.7 
L 299.862643 -29.7 
L 299.641927 -29.7 
L 299.421211 -29.7 
L 299.200495 -29.7 
L 298.979778 -29.7 
L 298.759062 -29.7 
L 298.538346 -29.7 
L 298.31763 -29.7 
L 298.096914 -29.7 
L 297.876198 -29.7 
L 297.655482 -29.7 
L 297.434766 -29.7 
L 297.21405 -29.7 
L 296.993334 -29.7 
L 296.772617 -29.7 
L 296.551901 -29.7 
L 296.331185 -29.7 
L 296.110469 -29.7 
L 295.889753 -29.7 
L 295.669037 -29.7 
L 295.448321 -29.7 
L 295.227605 -29.7 
L 295.006889 -29.7 
L 294.786173 -29.7 
L 294.565457 -29.7 
L 294.34474 -29.7 
L 294.124024 -29.7 
L 293.903308 -29.7 
L 293.682592 -29.7 
L 293.461876 -29.7 
L 293.24116 -29.7 
L 293.020444 -29.7 
L 292.799728 -29.7 
L 292.579012 -29.7 
L 292.358296 -29.7 
L 292.13758 -29.7 
L 291.916863 -29.7 
L 291.696147 -29.7 
L 291.475431 -29.7 
L 291.254715 -29.7 
L 291.033999 -29.7 
L 290.813283 -29.7 
L 290.592567 -29.7 
L 290.371851 -29.7 
L 290.151135 -29.7 
L 289.930419 -29.7 
L 289.709702 -29.7 
L 289.488986 -29.7 
L 289.26827 -29.7 
L 289.047554 -29.7 
L 288.826838 -29.7 
L 288.606122 -29.7 
L 288.385406 -29.7 
L 288.16469 -29.7 
L 287.943974 -29.7 
L 287.723258 -29.7 
L 287.502542 -29.7 
L 287.281825 -29.7 
L 287.061109 -29.7 
L 286.840393 -29.7 
L 286.619677 -29.7 
L 286.398961 -29.7 
L 286.178245 -29.7 
L 285.957529 -29.7 
L 285.736813 -29.7 
L 285.516097 -29.7 
L 285.295381 -29.7 
L 285.074665 -29.7 
L 284.853948 -29.7 
L 284.633232 -29.7 
L 284.412516 -29.7 
L 284.1918 -29.7 
L 283.971084 -29.7 
L 283.750368 -29.7 
L 283.529652 -29.7 
L 283.308936 -29.7 
L 283.08822 -29.7 
L 282.867504 -29.7 
L 282.646787 -29.7 
L 282.426071 -29.7 
L 282.205355 -29.7 
L 281.984639 -29.7 
L 281.763923 -29.7 
L 281.543207 -29.7 
L 281.322491 -29.7 
L 281.101775 -29.7 
L 280.881059 -29.7 
L 280.660343 -29.7 
L 280.439627 -29.7 
L 280.21891 -29.7 
L 279.998194 -29.7 
L 279.777478 -29.7 
L 279.556762 -29.7 
L 279.336046 -29.7 
L 279.11533 -29.7 
L 278.894614 -29.7 
L 278.673898 -29.7 
L 278.453182 -29.7 
L 278.232466 -29.7 
L 278.01175 -29.7 
L 277.791033 -29.7 
L 277.570317 -29.7 
L 277.349601 -29.7 
L 277.128885 -29.7 
L 276.908169 -29.7 
L 276.687453 -29.7 
L 276.466737 -29.7 
L 276.246021 -29.7 
L 276.025305 -29.7 
L 275.804589 -29.7 
L 275.583872 -29.7 
L 275.363156 -29.7 
L 275.14244 -29.7 
L 274.921724 -29.7 
L 274.701008 -29.7 
L 274.480292 -29.7 
L 274.259576 -29.7 
L 274.03886 -29.7 
L 273.818144 -29.7 
L 273.597428 -29.7 
L 273.376712 -29.7 
L 273.155995 -29.7 
L 272.935279 -29.7 
L 272.714563 -29.7 
L 272.493847 -29.7 
L 272.273131 -29.7 
L 272.052415 -29.7 
L 271.831699 -29.7 
L 271.610983 -29.7 
L 271.390267 -29.7 
L 271.169551 -29.7 
L 270.948835 -29.7 
L 270.728118 -29.7 
L 270.507402 -29.7 
L 270.286686 -29.7 
L 270.06597 -29.7 
L 269.845254 -29.7 
L 269.624538 -29.7 
L 269.403822 -29.7 
L 269.183106 -29.7 
L 268.96239 -29.7 
L 268.741674 -29.7 
L 268.520957 -29.7 
L 268.300241 -29.7 
L 268.079525 -29.7 
L 267.858809 -29.7 
L 267.638093 -29.7 
L 267.417377 -29.7 
L 267.196661 -29.7 
L 266.975945 -29.7 
L 266.755229 -29.7 
L 266.534513 -29.7 
L 266.313797 -29.7 
L 266.09308 -29.7 
L 265.872364 -29.7 
L 265.651648 -29.7 
L 265.430932 -29.7 
L 265.210216 -29.7 
L 264.9895 -29.7 
L 264.768784 -29.7 
L 264.548068 -29.7 
L 264.327352 -29.7 
L 264.106636 -29.7 
L 263.885919 -29.7 
L 263.665203 -29.7 
L 263.444487 -29.7 
L 263.223771 -29.7 
L 263.003055 -29.7 
L 262.782339 -29.7 
L 262.561623 -29.7 
L 262.340907 -29.7 
L 262.120191 -29.7 
L 261.899475 -29.7 
L 261.678759 -29.7 
L 261.458042 -29.7 
L 261.237326 -29.7 
L 261.01661 -29.7 
L 260.795894 -29.7 
L 260.575178 -29.7 
L 260.354462 -29.7 
L 260.133746 -29.7 
L 259.91303 -29.7 
L 259.692314 -29.7 
L 259.471598 -29.7 
L 259.250882 -29.7 
L 259.030165 -29.7 
L 258.809449 -29.7 
L 258.588733 -29.7 
L 258.368017 -29.7 
L 258.147301 -29.7 
L 257.926585 -29.7 
L 257.705869 -29.7 
L 257.485153 -29.7 
L 257.264437 -29.7 
L 257.043721 -29.7 
L 256.823004 -29.7 
L 256.602288 -29.7 
L 256.381572 -29.7 
L 256.160856 -29.7 
L 255.94014 -29.7 
L 255.719424 -29.7 
L 255.498708 -29.7 
L 255.277992 -29.7 
L 255.057276 -29.7 
L 254.83656 -29.7 
L 254.615844 -29.7 
L 254.395127 -29.7 
L 254.174411 -29.7 
L 253.953695 -29.7 
L 253.732979 -29.7 
L 253.512263 -29.7 
L 253.291547 -29.7 
L 253.070831 -29.7 
L 252.850115 -29.7 
L 252.629399 -29.7 
L 252.408683 -29.7 
L 252.187967 -29.7 
L 251.96725 -29.7 
L 251.746534 -29.7 
L 251.525818 -29.7 
L 251.305102 -29.7 
L 251.084386 -29.7 
L 250.86367 -29.7 
L 250.642954 -29.7 
L 250.422238 -29.7 
L 250.201522 -29.7 
L 249.980806 -29.7 
L 249.760089 -29.7 
L 249.539373 -29.7 
L 249.318657 -29.7 
L 249.097941 -29.7 
L 248.877225 -29.7 
L 248.656509 -29.7 
L 248.435793 -29.7 
L 248.215077 -29.7 
L 247.994361 -29.7 
L 247.773645 -29.7 
L 247.552929 -29.7 
L 247.332212 -29.7 
L 247.111496 -29.7 
L 246.89078 -29.7 
L 246.670064 -29.7 
L 246.449348 -29.7 
L 246.228632 -29.7 
L 246.007916 -29.7 
L 245.7872 -29.7 
L 245.566484 -29.7 
L 245.345768 -29.7 
L 245.125052 -29.7 
L 244.904335 -29.7 
L 244.683619 -29.7 
L 244.462903 -29.7 
L 244.242187 -29.7 
L 244.021471 -29.7 
L 243.800755 -29.7 
L 243.580039 -29.7 
L 243.359323 -29.7 
L 243.138607 -29.7 
L 242.917891 -29.7 
L 242.697174 -29.7 
L 242.476458 -29.7 
L 242.255742 -29.7 
L 242.035026 -29.7 
L 241.81431 -29.7 
L 241.593594 -29.7 
L 241.372878 -29.7 
L 241.152162 -29.7 
L 240.931446 -29.7 
L 240.71073 -29.7 
L 240.490014 -29.7 
L 240.269297 -29.7 
L 240.048581 -29.7 
L 239.827865 -29.7 
L 239.607149 -29.7 
L 239.386433 -29.7 
L 239.165717 -29.7 
L 238.945001 -29.7 
L 238.724285 -29.7 
L 238.503569 -29.7 
L 238.282853 -29.7 
L 238.062137 -29.7 
L 237.84142 -29.7 
L 237.620704 -29.7 
L 237.399988 -29.7 
L 237.179272 -29.7 
L 236.958556 -29.7 
L 236.73784 -29.7 
L 236.517124 -29.7 
L 236.296408 -29.7 
L 236.075692 -29.7 
L 235.854976 -29.7 
L 235.634259 -29.7 
L 235.413543 -29.7 
L 235.192827 -29.7 
L 234.972111 -29.7 
L 234.751395 -29.7 
L 234.530679 -29.7 
L 234.309963 -29.7 
L 234.089247 -29.7 
L 233.868531 -29.7 
L 233.647815 -29.7 
L 233.427099 -29.7 
L 233.206382 -29.7 
L 232.985666 -29.7 
L 232.76495 -29.7 
L 232.544234 -29.7 
L 232.323518 -29.7 
L 232.102802 -29.7 
L 231.882086 -29.7 
L 231.66137 -29.7 
L 231.440654 -29.7 
L 231.219938 -29.7 
L 230.999221 -29.7 
L 230.778505 -29.7 
L 230.557789 -29.7 
L 230.337073 -29.7 
L 230.116357 -29.7 
L 229.895641 -29.7 
L 229.674925 -29.7 
L 229.454209 -29.7 
L 229.233493 -29.7 
L 229.012777 -29.7 
L 228.792061 -29.7 
L 228.571344 -29.7 
L 228.350628 -29.7 
L 228.129912 -29.7 
L 227.909196 -29.7 
L 227.68848 -29.7 
L 227.467764 -29.7 
L 227.247048 -29.7 
L 227.026332 -29.7 
L 226.805616 -29.7 
L 226.5849 -29.7 
L 226.364184 -29.7 
L 226.143467 -29.7 
L 225.922751 -29.7 
L 225.702035 -29.7 
L 225.481319 -29.7 
L 225.260603 -29.7 
L 225.039887 -29.7 
L 224.819171 -29.7 
L 224.598455 -29.7 
L 224.377739 -29.7 
L 224.157023 -29.7 
L 223.936306 -29.7 
L 223.71559 -29.7 
L 223.494874 -29.7 
L 223.274158 -29.7 
L 223.053442 -29.7 
L 222.832726 -29.7 
L 222.61201 -29.7 
L 222.391294 -29.7 
L 222.170578 -29.7 
L 221.949862 -29.7 
L 221.729146 -29.7 
L 221.508429 -29.7 
L 221.287713 -29.7 
L 221.066997 -29.7 
L 220.846281 -29.7 
L 220.625565 -29.7 
L 220.404849 -29.7 
L 220.184133 -29.7 
L 219.963417 -29.7 
L 219.742701 -29.7 
L 219.521985 -29.7 
L 219.301269 -29.7 
L 219.080552 -29.7 
L 218.859836 -29.7 
L 218.63912 -29.7 
L 218.418404 -29.7 
L 218.197688 -29.7 
L 217.976972 -29.7 
L 217.756256 -29.7 
L 217.53554 -29.7 
L 217.314824 -29.7 
L 217.094108 -29.7 
L 216.873391 -29.7 
L 216.652675 -29.7 
L 216.431959 -29.7 
L 216.211243 -29.7 
L 215.990527 -29.7 
L 215.769811 -29.7 
L 215.549095 -29.7 
L 215.328379 -29.7 
L 215.107663 -29.7 
L 214.886947 -29.7 
L 214.666231 -29.7 
L 214.445514 -29.7 
L 214.224798 -29.7 
L 214.004082 -29.7 
L 213.783366 -29.7 
L 213.56265 -29.7 
L 213.341934 -29.7 
L 213.121218 -29.7 
L 212.900502 -29.7 
L 212.679786 -29.7 
L 212.45907 -29.7 
L 212.238354 -29.7 
L 212.017637 -29.7 
L 211.796921 -29.7 
L 211.576205 -29.7 
L 211.355489 -29.7 
L 211.134773 -29.7 
L 210.914057 -29.7 
L 210.693341 -29.7 
L 210.472625 -29.7 
L 210.251909 -29.7 
L 210.031193 -29.7 
L 209.810476 -29.7 
L 209.58976 -29.7 
L 209.369044 -29.7 
L 209.148328 -29.7 
L 208.927612 -29.7 
L 208.706896 -29.7 
L 208.48618 -29.7 
L 208.265464 -29.7 
L 208.044748 -29.7 
L 207.824032 -29.7 
L 207.603316 -29.7 
L 207.382599 -29.7 
L 207.161883 -29.7 
L 206.941167 -29.7 
L 206.720451 -29.7 
L 206.499735 -29.7 
L 206.279019 -29.7 
L 206.058303 -29.7 
L 205.837587 -29.7 
L 205.616871 -29.7 
L 205.396155 -29.7 
L 205.175439 -29.7 
L 204.954722 -29.7 
L 204.734006 -29.7 
L 204.51329 -29.7 
L 204.292574 -29.7 
L 204.071858 -29.7 
L 203.851142 -29.7 
L 203.630426 -29.7 
L 203.40971 -29.7 
L 203.188994 -29.7 
L 202.968278 -29.7 
L 202.747561 -29.7 
L 202.526845 -29.7 
L 202.306129 -29.7 
L 202.085413 -29.7 
L 201.864697 -29.7 
L 201.643981 -29.7 
L 201.423265 -29.7 
L 201.202549 -29.7 
L 200.981833 -29.7 
L 200.761117 -29.7 
L 200.540401 -29.7 
L 200.319684 -29.7 
L 200.098968 -29.7 
L 199.878252 -29.7 
L 199.657536 -29.7 
L 199.43682 -29.7 
L 199.216104 -29.7 
L 198.995388 -29.7 
L 198.774672 -29.7 
L 198.553956 -29.7 
L 198.33324 -29.7 
L 198.112524 -29.7 
L 197.891807 -29.7 
L 197.671091 -29.7 
L 197.450375 -29.7 
L 197.229659 -29.7 
L 197.008943 -29.7 
L 196.788227 -29.7 
L 196.567511 -29.7 
L 196.346795 -29.7 
L 196.126079 -29.7 
L 195.905363 -29.7 
L 195.684646 -29.7 
L 195.46393 -29.7 
L 195.243214 -29.7 
L 195.022498 -29.7 
L 194.801782 -29.7 
L 194.581066 -29.7 
L 194.36035 -29.7 
L 194.139634 -29.7 
L 193.918918 -29.7 
L 193.698202 -29.7 
L 193.477486 -29.7 
L 193.256769 -29.7 
L 193.036053 -29.7 
L 192.815337 -29.7 
L 192.594621 -29.7 
L 192.373905 -29.7 
L 192.153189 -29.7 
L 191.932473 -29.7 
L 191.711757 -29.7 
L 191.491041 -29.7 
z
" style="stroke: #4682b4; stroke-opacity: 0.25"/>
    </defs>
    <g clip-path="url(#p650b26aa18)">
     <use xlink:href="#mab72b37b24" x="0" y="270" style="fill: #4682b4; fill-opacity: 0.25; stroke: #4682b4; stroke-opacity: 0.25"/>
    </g>
   </g>
   <g id="matplotlib.axis_3"/>
   <g id="line2d_15">
    <path d="M 153.08644 238.100409 
L 157.05933 237.275481 
L 160.590788 236.324961 
L 163.901529 235.207088 
L 166.991554 233.928585 
L 169.860863 232.505139 
L 172.730173 230.821638 
L 175.378766 229.007875 
L 178.027359 226.916733 
L 180.675952 224.520519 
L 183.103829 222.032434 
L 185.531706 219.244136 
L 187.959583 216.135942 
L 190.38746 212.689701 
L 193.036053 208.525832 
L 195.684646 203.923461 
L 198.33324 198.870215 
L 201.202549 192.879528 
L 204.071858 186.352475 
L 207.161883 178.736337 
L 210.472625 169.933382 
L 214.004082 159.874599 
L 217.976972 147.85587 
L 223.053442 131.712292 
L 235.854976 90.588787 
L 239.386433 80.176306 
L 242.476458 71.754614 
L 245.125052 65.172611 
L 247.552929 59.739352 
L 249.760089 55.355705 
L 251.746534 51.90145 
L 253.512263 49.246089 
L 255.277992 47.000073 
L 256.823004 45.382642 
L 258.368017 44.098776 
L 259.692314 43.268971 
L 261.01661 42.692436 
L 262.340907 42.37141 
L 263.665203 42.307142 
L 264.9895 42.499883 
L 266.313797 42.948882 
L 267.638093 43.652393 
L 268.96239 44.607687 
L 270.507402 46.035437 
L 272.052415 47.793333 
L 273.597428 49.872207 
L 275.363156 52.627213 
L 277.349601 56.187744 
L 279.336046 60.207694 
L 281.543207 65.172611 
L 283.971084 71.182144 
L 286.840393 78.929638 
L 290.151135 88.582718 
L 294.124024 100.908654 
L 300.304075 120.927662 
L 308.029138 145.792368 
L 312.44346 159.225042 
L 316.195634 169.933382 
L 319.506375 178.736337 
L 322.5964 186.352475 
L 325.46571 192.879528 
L 328.335019 198.870215 
L 331.204328 204.324077 
L 333.852921 208.889362 
L 336.501514 213.017404 
L 339.150108 216.725705 
L 341.798701 220.035501 
L 344.447294 222.970856 
L 347.095887 225.557794 
L 349.74448 227.823524 
L 352.393073 229.795739 
L 355.041666 231.502016 
L 357.910976 233.081616 
L 360.780285 234.413608 
L 363.87031 235.60665 
L 367.181051 236.646719 
L 370.712509 237.528309 
L 373.581818 238.100409 
L 373.581818 238.100409 
" clip-path="url(#p650b26aa18)" style="fill: none; stroke: #4682b4; stroke-width: 1.5; stroke-linecap: square"/>
   </g>
   <g id="patch_5">
    <path d="M 54 240.3 
L 388.8 240.3 
" style="fill: none; stroke: #030303; stroke-width: 1.5; stroke-linejoin: miter; stroke-linecap: square"/>
   </g>
   <g id="patch_6">
    <path d="M 264.334129 33.971309 
Q 264.334129 131.136519 264.334129 228.30173 
L 267.334129 228.30173 
Q 265.334129 234.300865 263.334129 240.3 
Q 261.334129 234.300865 259.334129 228.30173 
L 262.334129 228.30173 
Q 262.334129 131.136519 262.334129 33.971309 
L 264.334129 33.971309 
z
" style="fill: #4682b4; stroke: #4682b4; stroke-linecap: round"/>
   </g>
   <g id="text_16">
    <!-- Z($\bar{x}$) = 2.28 -->
    <g style="fill: #4682b4" transform="translate(234.584129 29.892134) scale(0.1 -0.1)">
     <defs>
      <path id="DejaVuSerif-5a" d="M 288 0 
L 288 225 
L 3194 4281 
L 781 4281 
L 781 3584 
L 397 3584 
L 397 4666 
L 4084 4666 
L 4084 4441 
L 1178 384 
L 3816 384 
L 3816 1038 
L 4197 1038 
L 4197 0 
L 288 0 
z
" transform="scale(0.015625)"/>
      <path id="DejaVuSans-304" d="M -2518 4769 
L -650 4769 
L -650 4306 
L -2518 4306 
L -2518 4769 
z
" transform="scale(0.015625)"/>
      <path id="DejaVuSans-Oblique-78" d="M 3841 3500 
L 2234 1784 
L 3219 0 
L 2559 0 
L 1819 1388 
L 531 0 
L -166 0 
L 1556 1844 
L 641 3500 
L 1300 3500 
L 1972 2234 
L 3144 3500 
L 3841 3500 
z
" transform="scale(0.015625)"/>
      <path id="DejaVuSerif-3d" d="M 678 2894 
L 4684 2894 
L 4684 2394 
L 678 2394 
L 678 2894 
z
M 678 1619 
L 4684 1619 
L 4684 1119 
L 678 1119 
L 678 1619 
z
" transform="scale(0.015625)"/>
      <path id="DejaVuSerif-38" d="M 2981 1275 
Q 2981 1775 2732 2051 
Q 2484 2328 2034 2328 
Q 1584 2328 1336 2051 
Q 1088 1775 1088 1275 
Q 1088 772 1336 495 
Q 1584 219 2034 219 
Q 2484 219 2732 495 
Q 2981 772 2981 1275 
z
M 2853 3541 
Q 2853 3966 2637 4203 
Q 2422 4441 2034 4441 
Q 1650 4441 1433 4203 
Q 1216 3966 1216 3541 
Q 1216 3113 1433 2875 
Q 1650 2638 2034 2638 
Q 2422 2638 2637 2875 
Q 2853 3113 2853 3541 
z
M 2516 2484 
Q 3047 2413 3344 2092 
Q 3641 1772 3641 1275 
Q 3641 619 3225 264 
Q 2809 -91 2034 -91 
Q 1263 -91 845 264 
Q 428 619 428 1275 
Q 428 1772 725 2092 
Q 1022 2413 1556 2484 
Q 1084 2569 832 2842 
Q 581 3116 581 3541 
Q 581 4103 968 4426 
Q 1356 4750 2034 4750 
Q 2713 4750 3100 4426 
Q 3488 4103 3488 3541 
Q 3488 3116 3236 2842 
Q 2984 2569 2516 2484 
z
" transform="scale(0.015625)"/>
     </defs>
     <use xlink:href="#DejaVuSerif-5a" transform="translate(0 0.015625)"/>
     <use xlink:href="#DejaVuSerif-28" transform="translate(69.482422 0.015625)"/>
     <use xlink:href="#DejaVuSans-304" transform="translate(170.634766 -0.078125)"/>
     <use xlink:href="#DejaVuSans-Oblique-78" transform="translate(108.496094 0.015625)"/>
     <use xlink:href="#DejaVuSerif-29" transform="translate(167.675781 0.015625)"/>
     <use xlink:href="#DejaVuSerif-20" transform="translate(206.689453 0.015625)"/>
     <use xlink:href="#DejaVuSerif-3d" transform="translate(238.476562 0.015625)"/>
     <use xlink:href="#DejaVuSerif-20" transform="translate(322.265625 0.015625)"/>
     <use xlink:href="#DejaVuSerif-32" transform="translate(354.052734 0.015625)"/>
     <use xlink:href="#DejaVuSerif-2e" transform="translate(417.675781 0.015625)"/>
     <use xlink:href="#DejaVuSerif-32" transform="translate(446.837891 0.015625)"/>
     <use xlink:href="#DejaVuSerif-38" transform="translate(510.460938 0.015625)"/>
    </g>
   </g>
  </g>
  <g id="axes_3">
   <g id="matplotlib.axis_4"/>
   <g id="patch_7">
    <path d="M 54 240.3 
L 388.8 240.3 
" style="fill: none; stroke: #030303; stroke-width: 1.5; stroke-linejoin: miter; stroke-linecap: square"/>
   </g>
   <g id="legend_1">
    <g id="patch_8">
     <path d="M 314.96 63.92 
L 383.2 63.92 
Q 384.8 63.92 384.8 62.32 
L 384.8 38 
Q 384.8 36.4 383.2 36.4 
L 314.96 36.4 
Q 313.36 36.4 313.36 38 
L 313.36 62.32 
Q 313.36 63.92 314.96 63.92 
z
" style="fill: #ffffff; opacity: 0.8; stroke: #cccccc; stroke-linejoin: miter"/>
    </g>
    <g id="line2d_16">
     <path d="M 316.56 42.88 
L 324.56 42.88 
L 332.56 42.88 
" style="fill: none; stroke: #cb4154; stroke-width: 1.5; stroke-linecap: square"/>
    </g>
    <g id="text_17">
     <!-- $Z(\mu_{\text{sampling}})$ -->
     <g style="fill: #030303" transform="translate(338.96 45.68) scale(0.08 -0.08)">
      <defs>
       <path id="DejaVuSans-Oblique-5a" d="M 838 4666 
L 4500 4666 
L 4409 4184 
L 794 531 
L 3769 531 
L 3669 0 
L -141 0 
L -50 481 
L 3566 4134 
L 738 4134 
L 838 4666 
z
" transform="scale(0.015625)"/>
       <path id="DejaVuSans-28" d="M 1984 4856 
Q 1566 4138 1362 3434 
Q 1159 2731 1159 2009 
Q 1159 1288 1364 580 
Q 1569 -128 1984 -844 
L 1484 -844 
Q 1016 -109 783 600 
Q 550 1309 550 2009 
Q 550 2706 781 3412 
Q 1013 4119 1484 4856 
L 1984 4856 
z
" transform="scale(0.015625)"/>
       <path id="DejaVuSans-Oblique-3bc" d="M -84 -1331 
L 856 3500 
L 1434 3500 
L 1009 1322 
Q 997 1256 987 1175 
Q 978 1094 978 1013 
Q 978 722 1161 565 
Q 1344 409 1684 409 
Q 2147 409 2431 671 
Q 2716 934 2816 1459 
L 3213 3500 
L 3788 3500 
L 3266 809 
Q 3253 750 3248 706 
Q 3244 663 3244 628 
Q 3244 531 3283 486 
Q 3322 441 3406 441 
Q 3438 441 3492 456 
Q 3547 472 3647 513 
L 3559 50 
Q 3422 -19 3297 -55 
Q 3172 -91 3053 -91 
Q 2847 -91 2730 40 
Q 2613 172 2613 403 
Q 2438 153 2195 31 
Q 1953 -91 1625 -91 
Q 1334 -91 1117 43 
Q 900 178 831 397 
L 494 -1331 
L -84 -1331 
z
" transform="scale(0.015625)"/>
       <path id="DejaVuSans-73" d="M 2834 3397 
L 2834 2853 
Q 2591 2978 2328 3040 
Q 2066 3103 1784 3103 
Q 1356 3103 1142 2972 
Q 928 2841 928 2578 
Q 928 2378 1081 2264 
Q 1234 2150 1697 2047 
L 1894 2003 
Q 2506 1872 2764 1633 
Q 3022 1394 3022 966 
Q 3022 478 2636 193 
Q 2250 -91 1575 -91 
Q 1294 -91 989 -36 
Q 684 19 347 128 
L 347 722 
Q 666 556 975 473 
Q 1284 391 1588 391 
Q 1994 391 2212 530 
Q 2431 669 2431 922 
Q 2431 1156 2273 1281 
Q 2116 1406 1581 1522 
L 1381 1569 
Q 847 1681 609 1914 
Q 372 2147 372 2553 
Q 372 3047 722 3315 
Q 1072 3584 1716 3584 
Q 2034 3584 2315 3537 
Q 2597 3491 2834 3397 
z
" transform="scale(0.015625)"/>
       <path id="DejaVuSans-61" d="M 2194 1759 
Q 1497 1759 1228 1600 
Q 959 1441 959 1056 
Q 959 750 1161 570 
Q 1363 391 1709 391 
Q 2188 391 2477 730 
Q 2766 1069 2766 1631 
L 2766 1759 
L 2194 1759 
z
M 3341 1997 
L 3341 0 
L 2766 0 
L 2766 531 
Q 2569 213 2275 61 
Q 1981 -91 1556 -91 
Q 1019 -91 701 211 
Q 384 513 384 1019 
Q 384 1609 779 1909 
Q 1175 2209 1959 2209 
L 2766 2209 
L 2766 2266 
Q 2766 2663 2505 2880 
Q 2244 3097 1772 3097 
Q 1472 3097 1187 3025 
Q 903 2953 641 2809 
L 641 3341 
Q 956 3463 1253 3523 
Q 1550 3584 1831 3584 
Q 2591 3584 2966 3190 
Q 3341 2797 3341 1997 
z
" transform="scale(0.015625)"/>
       <path id="DejaVuSans-6d" d="M 3328 2828 
Q 3544 3216 3844 3400 
Q 4144 3584 4550 3584 
Q 5097 3584 5394 3201 
Q 5691 2819 5691 2113 
L 5691 0 
L 5113 0 
L 5113 2094 
Q 5113 2597 4934 2840 
Q 4756 3084 4391 3084 
Q 3944 3084 3684 2787 
Q 3425 2491 3425 1978 
L 3425 0 
L 2847 0 
L 2847 2094 
Q 2847 2600 2669 2842 
Q 2491 3084 2119 3084 
Q 1678 3084 1418 2786 
Q 1159 2488 1159 1978 
L 1159 0 
L 581 0 
L 581 3500 
L 1159 3500 
L 1159 2956 
Q 1356 3278 1631 3431 
Q 1906 3584 2284 3584 
Q 2666 3584 2933 3390 
Q 3200 3197 3328 2828 
z
" transform="scale(0.015625)"/>
       <path id="DejaVuSans-70" d="M 1159 525 
L 1159 -1331 
L 581 -1331 
L 581 3500 
L 1159 3500 
L 1159 2969 
Q 1341 3281 1617 3432 
Q 1894 3584 2278 3584 
Q 2916 3584 3314 3078 
Q 3713 2572 3713 1747 
Q 3713 922 3314 415 
Q 2916 -91 2278 -91 
Q 1894 -91 1617 61 
Q 1341 213 1159 525 
z
M 3116 1747 
Q 3116 2381 2855 2742 
Q 2594 3103 2138 3103 
Q 1681 3103 1420 2742 
Q 1159 2381 1159 1747 
Q 1159 1113 1420 752 
Q 1681 391 2138 391 
Q 2594 391 2855 752 
Q 3116 1113 3116 1747 
z
" transform="scale(0.015625)"/>
       <path id="DejaVuSans-6c" d="M 603 4863 
L 1178 4863 
L 1178 0 
L 603 0 
L 603 4863 
z
" transform="scale(0.015625)"/>
       <path id="DejaVuSans-69" d="M 603 3500 
L 1178 3500 
L 1178 0 
L 603 0 
L 603 3500 
z
M 603 4863 
L 1178 4863 
L 1178 4134 
L 603 4134 
L 603 4863 
z
" transform="scale(0.015625)"/>
       <path id="DejaVuSans-6e" d="M 3513 2113 
L 3513 0 
L 2938 0 
L 2938 2094 
Q 2938 2591 2744 2837 
Q 2550 3084 2163 3084 
Q 1697 3084 1428 2787 
Q 1159 2491 1159 1978 
L 1159 0 
L 581 0 
L 581 3500 
L 1159 3500 
L 1159 2956 
Q 1366 3272 1645 3428 
Q 1925 3584 2291 3584 
Q 2894 3584 3203 3211 
Q 3513 2838 3513 2113 
z
" transform="scale(0.015625)"/>
       <path id="DejaVuSans-67" d="M 2906 1791 
Q 2906 2416 2648 2759 
Q 2391 3103 1925 3103 
Q 1463 3103 1205 2759 
Q 947 2416 947 1791 
Q 947 1169 1205 825 
Q 1463 481 1925 481 
Q 2391 481 2648 825 
Q 2906 1169 2906 1791 
z
M 3481 434 
Q 3481 -459 3084 -895 
Q 2688 -1331 1869 -1331 
Q 1566 -1331 1297 -1286 
Q 1028 -1241 775 -1147 
L 775 -588 
Q 1028 -725 1275 -790 
Q 1522 -856 1778 -856 
Q 2344 -856 2625 -561 
Q 2906 -266 2906 331 
L 2906 616 
Q 2728 306 2450 153 
Q 2172 0 1784 0 
Q 1141 0 747 490 
Q 353 981 353 1791 
Q 353 2603 747 3093 
Q 1141 3584 1784 3584 
Q 2172 3584 2450 3431 
Q 2728 3278 2906 2969 
L 2906 3500 
L 3481 3500 
L 3481 434 
z
" transform="scale(0.015625)"/>
       <path id="DejaVuSans-29" d="M 513 4856 
L 1013 4856 
Q 1481 4119 1714 3412 
Q 1947 2706 1947 2009 
Q 1947 1309 1714 600 
Q 1481 -109 1013 -844 
L 513 -844 
Q 928 -128 1133 580 
Q 1338 1288 1338 2009 
Q 1338 2731 1133 3434 
Q 928 4138 513 4856 
z
" transform="scale(0.015625)"/>
      </defs>
      <use xlink:href="#DejaVuSans-Oblique-5a" transform="translate(0 0.125)"/>
      <use xlink:href="#DejaVuSans-28" transform="translate(68.505859 0.125)"/>
      <use xlink:href="#DejaVuSans-Oblique-3bc" transform="translate(107.519531 0.125)"/>
      <use xlink:href="#DejaVuSans-73" transform="translate(171.142578 -16.28125) scale(0.7)"/>
      <use xlink:href="#DejaVuSans-61" transform="translate(207.612305 -16.28125) scale(0.7)"/>
      <use xlink:href="#DejaVuSans-6d" transform="translate(250.507812 -16.28125) scale(0.7)"/>
      <use xlink:href="#DejaVuSans-70" transform="translate(318.696289 -16.28125) scale(0.7)"/>
      <use xlink:href="#DejaVuSans-6c" transform="translate(363.129883 -16.28125) scale(0.7)"/>
      <use xlink:href="#DejaVuSans-69" transform="translate(382.578125 -16.28125) scale(0.7)"/>
      <use xlink:href="#DejaVuSans-6e" transform="translate(402.026367 -16.28125) scale(0.7)"/>
      <use xlink:href="#DejaVuSans-67" transform="translate(446.391602 -16.28125) scale(0.7)"/>
      <use xlink:href="#DejaVuSans-29" transform="translate(493.55957 0.125)"/>
     </g>
    </g>
    <g id="line2d_17">
     <path d="M 316.56 55.44 
L 324.56 55.44 
L 332.56 55.44 
" style="fill: none; stroke: #4682b4; stroke-width: 1.5; stroke-linecap: square"/>
    </g>
    <g id="text_18">
     <!-- $Z(\bar{x}_{\text{sampling}})$ -->
     <g style="fill: #030303" transform="translate(338.96 58.24) scale(0.08 -0.08)">
      <use xlink:href="#DejaVuSans-Oblique-5a" transform="translate(0 0.125)"/>
      <use xlink:href="#DejaVuSans-28" transform="translate(68.505859 0.125)"/>
      <use xlink:href="#DejaVuSans-304" transform="translate(169.658203 0.03125)"/>
      <use xlink:href="#DejaVuSans-Oblique-78" transform="translate(107.519531 0.125)"/>
      <use xlink:href="#DejaVuSans-73" transform="translate(167.65625 -16.28125) scale(0.7)"/>
      <use xlink:href="#DejaVuSans-61" transform="translate(204.125977 -16.28125) scale(0.7)"/>
      <use xlink:href="#DejaVuSans-6d" transform="translate(247.021484 -16.28125) scale(0.7)"/>
      <use xlink:href="#DejaVuSans-70" transform="translate(315.209961 -16.28125) scale(0.7)"/>
      <use xlink:href="#DejaVuSans-6c" transform="translate(359.643555 -16.28125) scale(0.7)"/>
      <use xlink:href="#DejaVuSans-69" transform="translate(379.091797 -16.28125) scale(0.7)"/>
      <use xlink:href="#DejaVuSans-6e" transform="translate(398.540039 -16.28125) scale(0.7)"/>
      <use xlink:href="#DejaVuSans-67" transform="translate(442.905273 -16.28125) scale(0.7)"/>
      <use xlink:href="#DejaVuSans-29" transform="translate(490.073242 0.125)"/>
     </g>
    </g>
   </g>
  </g>
 </g>
 <defs>
  <clipPath id="p650b26aa18">
   <rect x="54" y="32.4" width="334.8" height="207.9"/>
  </clipPath>
 </defs>
</svg>
