<?xml version="1.0" encoding="utf-8" standalone="no"?>
<!DOCTYPE svg PUBLIC "-//W3C//DTD SVG 1.1//EN"
  "http://www.w3.org/Graphics/SVG/1.1/DTD/svg11.dtd">
<svg xmlns:xlink="http://www.w3.org/1999/xlink" width="432pt" height="648pt" viewBox="0 0 432 648" xmlns="http://www.w3.org/2000/svg" version="1.1">
 <metadata>
  <rdf:RDF xmlns:dc="http://purl.org/dc/elements/1.1/" xmlns:cc="http://creativecommons.org/ns#" xmlns:rdf="http://www.w3.org/1999/02/22-rdf-syntax-ns#">
   <cc:Work>
    <dc:type rdf:resource="http://purl.org/dc/dcmitype/StillImage"/>
    <dc:date>2024-02-05T09:05:10.556354</dc:date>
    <dc:format>image/svg+xml</dc:format>
    <dc:creator>
     <cc:Agent>
      <dc:title>Matplotlib v3.8.2, https://matplotlib.org/</dc:title>
     </cc:Agent>
    </dc:creator>
   </cc:Work>
  </rdf:RDF>
 </metadata>
 <defs>
  <style type="text/css">*{stroke-linejoin: round; stroke-linecap: butt}</style>
 </defs>
 <g id="figure_1">
  <g id="patch_1">
   <path d="M 0 648 
L 432 648 
L 432 0 
L 0 0 
L 0 648 
z
" style="fill: none"/>
  </g>
  <g id="axes_1">
   <g id="patch_2">
    <path d="M 68.470156 277.36 
L 421.2 277.36 
L 421.2 10.8 
L 68.470156 10.8 
L 68.470156 277.36 
z
" style="fill: none"/>
   </g>
   <g id="PolyCollection_1">
    <defs>
     <path id="mab5c7621b9" d="M 298.599978 -370.64 
L 298.599978 -523.693826 
L 298.920963 -522.769107 
L 299.241947 -521.844521 
L 299.562932 -520.920133 
L 299.883916 -519.996008 
L 300.204901 -519.072212 
L 300.525885 -518.148809 
L 300.84687 -517.225862 
L 301.167854 -516.303436 
L 301.488839 -515.381593 
L 301.809823 -514.460397 
L 302.130808 -513.539908 
L 302.451792 -512.620189 
L 302.772777 -511.701301 
L 303.093761 -510.783304 
L 303.414746 -509.86626 
L 303.73573 -508.950227 
L 304.056714 -508.035265 
L 304.377699 -507.121432 
L 304.698683 -506.208787 
L 305.019668 -505.297387 
L 305.340652 -504.38729 
L 305.661637 -503.478552 
L 305.982621 -502.571229 
L 306.303606 -501.665377 
L 306.62459 -500.761051 
L 306.945575 -499.858305 
L 307.266559 -498.957193 
L 307.587544 -498.057769 
L 307.908528 -497.160086 
L 308.229513 -496.264195 
L 308.550497 -495.370149 
L 308.871482 -494.477998 
L 309.192466 -493.587793 
L 309.513451 -492.699585 
L 309.834435 -491.813422 
L 310.15542 -490.929354 
L 310.476404 -490.047428 
L 310.797389 -489.167693 
L 311.118373 -488.290196 
L 311.439357 -487.414982 
L 311.760342 -486.542098 
L 312.081326 -485.671589 
L 312.402311 -484.803501 
L 312.723295 -483.937876 
L 313.04428 -483.074759 
L 313.365264 -482.214193 
L 313.686249 -481.35622 
L 314.007233 -480.500881 
L 314.328218 -479.648217 
L 314.649202 -478.79827 
L 314.970187 -477.951079 
L 315.291171 -477.106684 
L 315.612156 -476.265123 
L 315.93314 -475.426433 
L 316.254125 -474.590654 
L 316.575109 -473.75782 
L 316.896094 -472.92797 
L 317.217078 -472.101138 
L 317.538063 -471.277359 
L 317.859047 -470.456668 
L 318.180032 -469.639098 
L 318.501016 -468.824683 
L 318.822 -468.013455 
L 319.142985 -467.205447 
L 319.463969 -466.400689 
L 319.784954 -465.599212 
L 320.105938 -464.801047 
L 320.426923 -464.006222 
L 320.747907 -463.214768 
L 321.068892 -462.426711 
L 321.389876 -461.64208 
L 321.710861 -460.860902 
L 322.031845 -460.083204 
L 322.35283 -459.30901 
L 322.673814 -458.538347 
L 322.994799 -457.771239 
L 323.315783 -457.00771 
L 323.636768 -456.247784 
L 323.957752 -455.491484 
L 324.278737 -454.738831 
L 324.599721 -453.989848 
L 324.920706 -453.244555 
L 325.24169 -452.502974 
L 325.562675 -451.765124 
L 325.883659 -451.031024 
L 326.204644 -450.300694 
L 326.525628 -449.574151 
L 326.846612 -448.851413 
L 327.167597 -448.132498 
L 327.488581 -447.417421 
L 327.809566 -446.706198 
L 328.13055 -445.998846 
L 328.451535 -445.295378 
L 328.772519 -444.595809 
L 329.093504 -443.900154 
L 329.414488 -443.208423 
L 329.735473 -442.520632 
L 330.056457 -441.836791 
L 330.377442 -441.156912 
L 330.698426 -440.481006 
L 331.019411 -439.809083 
L 331.340395 -439.141154 
L 331.66138 -438.477227 
L 331.982364 -437.817312 
L 332.303349 -437.161418 
L 332.624333 -436.50955 
L 332.945318 -435.861719 
L 333.266302 -435.217929 
L 333.587287 -434.578187 
L 333.908271 -433.942499 
L 334.229255 -433.310871 
L 334.55024 -432.683308 
L 334.871224 -432.059812 
L 335.192209 -431.44039 
L 335.513193 -430.825043 
L 335.834178 -430.213775 
L 336.155162 -429.606588 
L 336.476147 -429.003484 
L 336.797131 -428.404466 
L 337.118116 -427.809533 
L 337.4391 -427.218686 
L 337.760085 -426.631926 
L 338.081069 -426.049252 
L 338.402054 -425.470664 
L 338.723038 -424.896161 
L 339.044023 -424.32574 
L 339.365007 -423.759401 
L 339.685992 -423.19714 
L 340.006976 -422.638954 
L 340.327961 -422.084841 
L 340.648945 -421.534797 
L 340.96993 -420.988818 
L 341.290914 -420.446899 
L 341.611898 -419.909036 
L 341.932883 -419.375223 
L 342.253867 -418.845455 
L 342.574852 -418.319725 
L 342.895836 -417.798028 
L 343.216821 -417.280357 
L 343.537805 -416.766705 
L 343.85879 -416.257064 
L 344.179774 -415.751427 
L 344.500759 -415.249785 
L 344.821743 -414.75213 
L 345.142728 -414.258453 
L 345.463712 -413.768746 
L 345.784697 -413.282998 
L 346.105681 -412.8012 
L 346.426666 -412.323342 
L 346.74765 -411.849414 
L 347.068635 -411.379405 
L 347.389619 -410.913303 
L 347.710604 -410.451098 
L 348.031588 -409.992778 
L 348.352573 -409.538331 
L 348.673557 -409.087746 
L 348.994541 -408.641009 
L 349.315526 -408.198107 
L 349.63651 -407.759029 
L 349.957495 -407.323761 
L 350.278479 -406.892289 
L 350.599464 -406.4646 
L 350.920448 -406.040679 
L 351.241433 -405.620513 
L 351.562417 -405.204087 
L 351.883402 -404.791387 
L 352.204386 -404.382397 
L 352.525371 -403.977102 
L 352.846355 -403.575487 
L 353.16734 -403.177537 
L 353.488324 -402.783236 
L 353.809309 -402.392568 
L 354.130293 -402.005516 
L 354.451278 -401.622065 
L 354.772262 -401.242198 
L 355.093247 -400.865898 
L 355.414231 -400.493148 
L 355.735216 -400.123932 
L 356.0562 -399.758231 
L 356.377185 -399.396029 
L 356.698169 -399.037308 
L 357.019153 -398.682051 
L 357.340138 -398.330239 
L 357.661122 -397.981854 
L 357.982107 -397.636879 
L 358.303091 -397.295295 
L 358.624076 -396.957083 
L 358.94506 -396.622226 
L 359.266045 -396.290704 
L 359.587029 -395.962498 
L 359.908014 -395.637591 
L 360.228998 -395.315962 
L 360.549983 -394.997592 
L 360.870967 -394.682463 
L 361.191952 -394.370555 
L 361.512936 -394.061849 
L 361.833921 -393.756324 
L 362.154905 -393.453962 
L 362.47589 -393.154743 
L 362.796874 -392.858647 
L 363.117859 -392.565653 
L 363.438843 -392.275743 
L 363.759828 -391.988897 
L 364.080812 -391.705093 
L 364.401796 -391.424312 
L 364.722781 -391.146534 
L 365.043765 -390.871739 
L 365.36475 -390.599906 
L 365.685734 -390.331015 
L 366.006719 -390.065046 
L 366.327703 -389.801978 
L 366.648688 -389.541791 
L 366.969672 -389.284464 
L 367.290657 -389.029977 
L 367.611641 -388.77831 
L 367.932626 -388.529441 
L 368.25361 -388.28335 
L 368.574595 -388.040017 
L 368.895579 -387.799421 
L 369.216564 -387.561542 
L 369.537548 -387.326358 
L 369.858533 -387.093849 
L 370.179517 -386.863995 
L 370.500502 -386.636775 
L 370.821486 -386.412168 
L 371.142471 -386.190154 
L 371.463455 -385.970711 
L 371.784439 -385.753821 
L 372.105424 -385.539461 
L 372.426408 -385.327612 
L 372.747393 -385.118253 
L 373.068377 -384.911363 
L 373.389362 -384.706923 
L 373.710346 -384.50491 
L 374.031331 -384.305306 
L 374.352315 -384.10809 
L 374.6733 -383.913241 
L 374.994284 -383.720739 
L 375.315269 -383.530564 
L 375.636253 -383.342695 
L 375.957238 -383.157113 
L 376.278222 -382.973798 
L 376.599207 -382.792729 
L 376.920191 -382.613886 
L 377.241176 -382.437249 
L 377.56216 -382.262799 
L 377.883145 -382.090515 
L 378.204129 -381.920379 
L 378.525114 -381.752369 
L 378.846098 -381.586467 
L 379.167083 -381.422653 
L 379.488067 -381.260907 
L 379.809051 -381.10121 
L 380.130036 -380.943542 
L 380.45102 -380.787885 
L 380.772005 -380.634219 
L 381.092989 -380.482525 
L 381.413974 -380.332783 
L 381.734958 -380.184975 
L 382.055943 -380.039083 
L 382.376927 -379.895086 
L 382.697912 -379.752967 
L 383.018896 -379.612706 
L 383.339881 -379.474285 
L 383.660865 -379.337686 
L 383.98185 -379.202891 
L 384.302834 -379.06988 
L 384.623819 -378.938636 
L 384.944803 -378.809141 
L 385.265788 -378.681376 
L 385.586772 -378.555324 
L 385.907757 -378.430967 
L 386.228741 -378.308287 
L 386.549726 -378.187267 
L 386.87071 -378.067888 
L 387.191694 -377.950134 
L 387.512679 -377.833988 
L 387.833663 -377.719431 
L 388.154648 -377.606447 
L 388.475632 -377.495019 
L 388.796617 -377.385131 
L 389.117601 -377.276764 
L 389.438586 -377.169903 
L 389.75957 -377.06453 
L 390.080555 -376.96063 
L 390.401539 -376.858186 
L 390.722524 -376.757182 
L 391.043508 -376.657601 
L 391.364493 -376.559428 
L 391.685477 -376.462646 
L 392.006462 -376.367241 
L 392.327446 -376.273195 
L 392.648431 -376.180493 
L 392.969415 -376.089121 
L 393.2904 -375.999062 
L 393.611384 -375.910302 
L 393.932369 -375.822824 
L 394.253353 -375.736615 
L 394.574337 -375.651659 
L 394.895322 -375.567942 
L 395.216306 -375.485448 
L 395.537291 -375.404163 
L 395.858275 -375.324072 
L 396.17926 -375.245162 
L 396.500244 -375.167418 
L 396.821229 -375.090826 
L 397.142213 -375.015372 
L 397.463198 -374.941042 
L 397.784182 -374.867822 
L 398.105167 -374.795699 
L 398.426151 -374.724659 
L 398.747136 -374.654688 
L 399.06812 -374.585774 
L 399.389105 -374.517902 
L 399.710089 -374.451061 
L 400.031074 -374.385236 
L 400.352058 -374.320416 
L 400.673043 -374.256587 
L 400.994027 -374.193737 
L 401.315012 -374.131854 
L 401.635996 -374.070924 
L 401.95698 -374.010935 
L 402.277965 -373.951876 
L 402.598949 -373.893735 
L 402.919934 -373.836499 
L 403.240918 -373.780156 
L 403.561903 -373.724695 
L 403.882887 -373.670105 
L 404.203872 -373.616373 
L 404.524856 -373.563489 
L 404.845841 -373.51144 
L 405.166825 -373.460217 
L 405.166825 -370.64 
L 405.166825 -370.64 
L 404.845841 -370.64 
L 404.524856 -370.64 
L 404.203872 -370.64 
L 403.882887 -370.64 
L 403.561903 -370.64 
L 403.240918 -370.64 
L 402.919934 -370.64 
L 402.598949 -370.64 
L 402.277965 -370.64 
L 401.95698 -370.64 
L 401.635996 -370.64 
L 401.315012 -370.64 
L 400.994027 -370.64 
L 400.673043 -370.64 
L 400.352058 -370.64 
L 400.031074 -370.64 
L 399.710089 -370.64 
L 399.389105 -370.64 
L 399.06812 -370.64 
L 398.747136 -370.64 
L 398.426151 -370.64 
L 398.105167 -370.64 
L 397.784182 -370.64 
L 397.463198 -370.64 
L 397.142213 -370.64 
L 396.821229 -370.64 
L 396.500244 -370.64 
L 396.17926 -370.64 
L 395.858275 -370.64 
L 395.537291 -370.64 
L 395.216306 -370.64 
L 394.895322 -370.64 
L 394.574337 -370.64 
L 394.253353 -370.64 
L 393.932369 -370.64 
L 393.611384 -370.64 
L 393.2904 -370.64 
L 392.969415 -370.64 
L 392.648431 -370.64 
L 392.327446 -370.64 
L 392.006462 -370.64 
L 391.685477 -370.64 
L 391.364493 -370.64 
L 391.043508 -370.64 
L 390.722524 -370.64 
L 390.401539 -370.64 
L 390.080555 -370.64 
L 389.75957 -370.64 
L 389.438586 -370.64 
L 389.117601 -370.64 
L 388.796617 -370.64 
L 388.475632 -370.64 
L 388.154648 -370.64 
L 387.833663 -370.64 
L 387.512679 -370.64 
L 387.191694 -370.64 
L 386.87071 -370.64 
L 386.549726 -370.64 
L 386.228741 -370.64 
L 385.907757 -370.64 
L 385.586772 -370.64 
L 385.265788 -370.64 
L 384.944803 -370.64 
L 384.623819 -370.64 
L 384.302834 -370.64 
L 383.98185 -370.64 
L 383.660865 -370.64 
L 383.339881 -370.64 
L 383.018896 -370.64 
L 382.697912 -370.64 
L 382.376927 -370.64 
L 382.055943 -370.64 
L 381.734958 -370.64 
L 381.413974 -370.64 
L 381.092989 -370.64 
L 380.772005 -370.64 
L 380.45102 -370.64 
L 380.130036 -370.64 
L 379.809051 -370.64 
L 379.488067 -370.64 
L 379.167083 -370.64 
L 378.846098 -370.64 
L 378.525114 -370.64 
L 378.204129 -370.64 
L 377.883145 -370.64 
L 377.56216 -370.64 
L 377.241176 -370.64 
L 376.920191 -370.64 
L 376.599207 -370.64 
L 376.278222 -370.64 
L 375.957238 -370.64 
L 375.636253 -370.64 
L 375.315269 -370.64 
L 374.994284 -370.64 
L 374.6733 -370.64 
L 374.352315 -370.64 
L 374.031331 -370.64 
L 373.710346 -370.64 
L 373.389362 -370.64 
L 373.068377 -370.64 
L 372.747393 -370.64 
L 372.426408 -370.64 
L 372.105424 -370.64 
L 371.784439 -370.64 
L 371.463455 -370.64 
L 371.142471 -370.64 
L 370.821486 -370.64 
L 370.500502 -370.64 
L 370.179517 -370.64 
L 369.858533 -370.64 
L 369.537548 -370.64 
L 369.216564 -370.64 
L 368.895579 -370.64 
L 368.574595 -370.64 
L 368.25361 -370.64 
L 367.932626 -370.64 
L 367.611641 -370.64 
L 367.290657 -370.64 
L 366.969672 -370.64 
L 366.648688 -370.64 
L 366.327703 -370.64 
L 366.006719 -370.64 
L 365.685734 -370.64 
L 365.36475 -370.64 
L 365.043765 -370.64 
L 364.722781 -370.64 
L 364.401796 -370.64 
L 364.080812 -370.64 
L 363.759828 -370.64 
L 363.438843 -370.64 
L 363.117859 -370.64 
L 362.796874 -370.64 
L 362.47589 -370.64 
L 362.154905 -370.64 
L 361.833921 -370.64 
L 361.512936 -370.64 
L 361.191952 -370.64 
L 360.870967 -370.64 
L 360.549983 -370.64 
L 360.228998 -370.64 
L 359.908014 -370.64 
L 359.587029 -370.64 
L 359.266045 -370.64 
L 358.94506 -370.64 
L 358.624076 -370.64 
L 358.303091 -370.64 
L 357.982107 -370.64 
L 357.661122 -370.64 
L 357.340138 -370.64 
L 357.019153 -370.64 
L 356.698169 -370.64 
L 356.377185 -370.64 
L 356.0562 -370.64 
L 355.735216 -370.64 
L 355.414231 -370.64 
L 355.093247 -370.64 
L 354.772262 -370.64 
L 354.451278 -370.64 
L 354.130293 -370.64 
L 353.809309 -370.64 
L 353.488324 -370.64 
L 353.16734 -370.64 
L 352.846355 -370.64 
L 352.525371 -370.64 
L 352.204386 -370.64 
L 351.883402 -370.64 
L 351.562417 -370.64 
L 351.241433 -370.64 
L 350.920448 -370.64 
L 350.599464 -370.64 
L 350.278479 -370.64 
L 349.957495 -370.64 
L 349.63651 -370.64 
L 349.315526 -370.64 
L 348.994541 -370.64 
L 348.673557 -370.64 
L 348.352573 -370.64 
L 348.031588 -370.64 
L 347.710604 -370.64 
L 347.389619 -370.64 
L 347.068635 -370.64 
L 346.74765 -370.64 
L 346.426666 -370.64 
L 346.105681 -370.64 
L 345.784697 -370.64 
L 345.463712 -370.64 
L 345.142728 -370.64 
L 344.821743 -370.64 
L 344.500759 -370.64 
L 344.179774 -370.64 
L 343.85879 -370.64 
L 343.537805 -370.64 
L 343.216821 -370.64 
L 342.895836 -370.64 
L 342.574852 -370.64 
L 342.253867 -370.64 
L 341.932883 -370.64 
L 341.611898 -370.64 
L 341.290914 -370.64 
L 340.96993 -370.64 
L 340.648945 -370.64 
L 340.327961 -370.64 
L 340.006976 -370.64 
L 339.685992 -370.64 
L 339.365007 -370.64 
L 339.044023 -370.64 
L 338.723038 -370.64 
L 338.402054 -370.64 
L 338.081069 -370.64 
L 337.760085 -370.64 
L 337.4391 -370.64 
L 337.118116 -370.64 
L 336.797131 -370.64 
L 336.476147 -370.64 
L 336.155162 -370.64 
L 335.834178 -370.64 
L 335.513193 -370.64 
L 335.192209 -370.64 
L 334.871224 -370.64 
L 334.55024 -370.64 
L 334.229255 -370.64 
L 333.908271 -370.64 
L 333.587287 -370.64 
L 333.266302 -370.64 
L 332.945318 -370.64 
L 332.624333 -370.64 
L 332.303349 -370.64 
L 331.982364 -370.64 
L 331.66138 -370.64 
L 331.340395 -370.64 
L 331.019411 -370.64 
L 330.698426 -370.64 
L 330.377442 -370.64 
L 330.056457 -370.64 
L 329.735473 -370.64 
L 329.414488 -370.64 
L 329.093504 -370.64 
L 328.772519 -370.64 
L 328.451535 -370.64 
L 328.13055 -370.64 
L 327.809566 -370.64 
L 327.488581 -370.64 
L 327.167597 -370.64 
L 326.846612 -370.64 
L 326.525628 -370.64 
L 326.204644 -370.64 
L 325.883659 -370.64 
L 325.562675 -370.64 
L 325.24169 -370.64 
L 324.920706 -370.64 
L 324.599721 -370.64 
L 324.278737 -370.64 
L 323.957752 -370.64 
L 323.636768 -370.64 
L 323.315783 -370.64 
L 322.994799 -370.64 
L 322.673814 -370.64 
L 322.35283 -370.64 
L 322.031845 -370.64 
L 321.710861 -370.64 
L 321.389876 -370.64 
L 321.068892 -370.64 
L 320.747907 -370.64 
L 320.426923 -370.64 
L 320.105938 -370.64 
L 319.784954 -370.64 
L 319.463969 -370.64 
L 319.142985 -370.64 
L 318.822 -370.64 
L 318.501016 -370.64 
L 318.180032 -370.64 
L 317.859047 -370.64 
L 317.538063 -370.64 
L 317.217078 -370.64 
L 316.896094 -370.64 
L 316.575109 -370.64 
L 316.254125 -370.64 
L 315.93314 -370.64 
L 315.612156 -370.64 
L 315.291171 -370.64 
L 314.970187 -370.64 
L 314.649202 -370.64 
L 314.328218 -370.64 
L 314.007233 -370.64 
L 313.686249 -370.64 
L 313.365264 -370.64 
L 313.04428 -370.64 
L 312.723295 -370.64 
L 312.402311 -370.64 
L 312.081326 -370.64 
L 311.760342 -370.64 
L 311.439357 -370.64 
L 311.118373 -370.64 
L 310.797389 -370.64 
L 310.476404 -370.64 
L 310.15542 -370.64 
L 309.834435 -370.64 
L 309.513451 -370.64 
L 309.192466 -370.64 
L 308.871482 -370.64 
L 308.550497 -370.64 
L 308.229513 -370.64 
L 307.908528 -370.64 
L 307.587544 -370.64 
L 307.266559 -370.64 
L 306.945575 -370.64 
L 306.62459 -370.64 
L 306.303606 -370.64 
L 305.982621 -370.64 
L 305.661637 -370.64 
L 305.340652 -370.64 
L 305.019668 -370.64 
L 304.698683 -370.64 
L 304.377699 -370.64 
L 304.056714 -370.64 
L 303.73573 -370.64 
L 303.414746 -370.64 
L 303.093761 -370.64 
L 302.772777 -370.64 
L 302.451792 -370.64 
L 302.130808 -370.64 
L 301.809823 -370.64 
L 301.488839 -370.64 
L 301.167854 -370.64 
L 300.84687 -370.64 
L 300.525885 -370.64 
L 300.204901 -370.64 
L 299.883916 -370.64 
L 299.562932 -370.64 
L 299.241947 -370.64 
L 298.920963 -370.64 
L 298.599978 -370.64 
z
" style="stroke: #28a745; stroke-opacity: 0.3"/>
    </defs>
    <g clip-path="url(#pe0c881ffcd)">
     <use xlink:href="#mab5c7621b9" x="0" y="648" style="fill: #28a745; fill-opacity: 0.3; stroke: #28a745; stroke-opacity: 0.3"/>
    </g>
   </g>
   <g id="patch_3">
    <path d="M 298.278994 273.412902 
Q 298.278994 200.371658 298.278994 127.330413 
" clip-path="url(#pe0c881ffcd)" style="fill: none; stroke: #000000; stroke-width: 1.5; stroke-linecap: round"/>
    <path d="M 300.778994 267.412902 
L 298.278994 273.412902 
L 295.778994 267.412902 
z
" clip-path="url(#pe0c881ffcd)" style="stroke: #000000; stroke-width: 1.5; stroke-linecap: round"/>
    <path d="M 295.778994 133.330413 
L 298.278994 127.330413 
L 300.778994 133.330413 
z
" clip-path="url(#pe0c881ffcd)" style="stroke: #000000; stroke-width: 1.5; stroke-linecap: round"/>
   </g>
   <g id="matplotlib.axis_1">
    <g id="xtick_1">
     <g id="line2d_1">
      <defs>
       <path id="mcb09c094ce" d="M 0 0 
L 0 3.5 
" style="stroke: #030303; stroke-width: 0.8"/>
      </defs>
      <g>
       <use xlink:href="#mcb09c094ce" x="84.503331" y="277.36" style="fill: #030303; stroke: #030303; stroke-width: 0.8"/>
      </g>
     </g>
     <g id="text_1">
      <!-- $\mathdefault{150}$ -->
      <g style="fill: #030303" transform="translate(72.088331 294.237969) scale(0.13 -0.13)">
       <defs>
        <path id="DejaVuSerif-31" d="M 909 0 
L 909 331 
L 1722 331 
L 1722 4213 
L 781 3603 
L 781 4013 
L 1919 4750 
L 2350 4750 
L 2350 331 
L 3163 331 
L 3163 0 
L 909 0 
z
" transform="scale(0.015625)"/>
        <path id="DejaVuSerif-35" d="M 3219 4666 
L 3219 4153 
L 1081 4153 
L 1081 2816 
Q 1244 2928 1461 2984 
Q 1678 3041 1947 3041 
Q 2703 3041 3140 2622 
Q 3578 2203 3578 1478 
Q 3578 738 3136 323 
Q 2694 -91 1894 -91 
Q 1572 -91 1234 -12 
Q 897 66 544 225 
L 544 1131 
L 897 1131 
Q 925 688 1179 453 
Q 1434 219 1894 219 
Q 2388 219 2653 544 
Q 2919 869 2919 1478 
Q 2919 2084 2655 2407 
Q 2391 2731 1894 2731 
Q 1613 2731 1398 2631 
Q 1184 2531 1019 2322 
L 750 2322 
L 750 4666 
L 3219 4666 
z
" transform="scale(0.015625)"/>
        <path id="DejaVuSerif-30" d="M 2034 219 
Q 2513 219 2750 744 
Q 2988 1269 2988 2328 
Q 2988 3391 2750 3916 
Q 2513 4441 2034 4441 
Q 1556 4441 1318 3916 
Q 1081 3391 1081 2328 
Q 1081 1269 1318 744 
Q 1556 219 2034 219 
z
M 2034 -91 
Q 1275 -91 848 546 
Q 422 1184 422 2328 
Q 422 3475 848 4112 
Q 1275 4750 2034 4750 
Q 2797 4750 3222 4112 
Q 3647 3475 3647 2328 
Q 3647 1184 3222 546 
Q 2797 -91 2034 -91 
z
" transform="scale(0.015625)"/>
       </defs>
       <use xlink:href="#DejaVuSerif-31" transform="translate(0 0.78125)"/>
       <use xlink:href="#DejaVuSerif-35" transform="translate(63.623047 0.78125)"/>
       <use xlink:href="#DejaVuSerif-30" transform="translate(127.246094 0.78125)"/>
      </g>
     </g>
    </g>
    <g id="xtick_2">
     <g id="line2d_2">
      <g>
       <use xlink:href="#mcb09c094ce" x="137.947247" y="277.36" style="fill: #030303; stroke: #030303; stroke-width: 0.8"/>
      </g>
     </g>
     <g id="text_2">
      <!-- $\mathdefault{200}$ -->
      <g style="fill: #030303" transform="translate(125.532247 294.237969) scale(0.13 -0.13)">
       <defs>
        <path id="DejaVuSerif-32" d="M 819 3553 
L 469 3553 
L 469 4384 
Q 803 4563 1142 4656 
Q 1481 4750 1806 4750 
Q 2534 4750 2956 4397 
Q 3378 4044 3378 3438 
Q 3378 2753 2422 1800 
Q 2347 1728 2309 1691 
L 1131 513 
L 3078 513 
L 3078 1088 
L 3444 1088 
L 3444 0 
L 434 0 
L 434 341 
L 1850 1753 
Q 2319 2222 2519 2614 
Q 2719 3006 2719 3438 
Q 2719 3909 2473 4175 
Q 2228 4441 1797 4441 
Q 1350 4441 1106 4219 
Q 863 3997 819 3553 
z
" transform="scale(0.015625)"/>
       </defs>
       <use xlink:href="#DejaVuSerif-32" transform="translate(0 0.78125)"/>
       <use xlink:href="#DejaVuSerif-30" transform="translate(63.623047 0.78125)"/>
       <use xlink:href="#DejaVuSerif-30" transform="translate(127.246094 0.78125)"/>
      </g>
     </g>
    </g>
    <g id="xtick_3">
     <g id="line2d_3">
      <g>
       <use xlink:href="#mcb09c094ce" x="191.391162" y="277.36" style="fill: #030303; stroke: #030303; stroke-width: 0.8"/>
      </g>
     </g>
     <g id="text_3">
      <!-- $\mathdefault{250}$ -->
      <g style="fill: #030303" transform="translate(178.976162 294.237969) scale(0.13 -0.13)">
       <use xlink:href="#DejaVuSerif-32" transform="translate(0 0.78125)"/>
       <use xlink:href="#DejaVuSerif-35" transform="translate(63.623047 0.78125)"/>
       <use xlink:href="#DejaVuSerif-30" transform="translate(127.246094 0.78125)"/>
      </g>
     </g>
    </g>
    <g id="xtick_4">
     <g id="line2d_4">
      <g>
       <use xlink:href="#mcb09c094ce" x="244.835078" y="277.36" style="fill: #030303; stroke: #030303; stroke-width: 0.8"/>
      </g>
     </g>
     <g id="text_4">
      <!-- $\mathdefault{300}$ -->
      <g style="fill: #030303" transform="translate(232.420078 294.237969) scale(0.13 -0.13)">
       <defs>
        <path id="DejaVuSerif-33" d="M 622 4469 
Q 988 4606 1323 4678 
Q 1659 4750 1953 4750 
Q 2638 4750 3022 4454 
Q 3406 4159 3406 3634 
Q 3406 3213 3140 2930 
Q 2875 2647 2388 2547 
Q 2963 2466 3280 2130 
Q 3597 1794 3597 1259 
Q 3597 606 3158 257 
Q 2719 -91 1894 -91 
Q 1528 -91 1179 -12 
Q 831 66 488 225 
L 488 1131 
L 838 1131 
Q 869 681 1141 450 
Q 1413 219 1906 219 
Q 2384 219 2661 495 
Q 2938 772 2938 1253 
Q 2938 1803 2653 2086 
Q 2369 2369 1819 2369 
L 1522 2369 
L 1522 2688 
L 1678 2688 
Q 2225 2688 2498 2914 
Q 2772 3141 2772 3597 
Q 2772 4006 2547 4223 
Q 2322 4441 1900 4441 
Q 1478 4441 1245 4241 
Q 1013 4041 972 3647 
L 622 3647 
L 622 4469 
z
" transform="scale(0.015625)"/>
       </defs>
       <use xlink:href="#DejaVuSerif-33" transform="translate(0 0.78125)"/>
       <use xlink:href="#DejaVuSerif-30" transform="translate(63.623047 0.78125)"/>
       <use xlink:href="#DejaVuSerif-30" transform="translate(127.246094 0.78125)"/>
      </g>
     </g>
    </g>
    <g id="xtick_5">
     <g id="line2d_5">
      <g>
       <use xlink:href="#mcb09c094ce" x="298.278994" y="277.36" style="fill: #030303; stroke: #030303; stroke-width: 0.8"/>
      </g>
     </g>
     <g id="text_5">
      <!-- $\mathdefault{350}$ -->
      <g style="fill: #030303" transform="translate(285.863994 294.237969) scale(0.13 -0.13)">
       <use xlink:href="#DejaVuSerif-33" transform="translate(0 0.78125)"/>
       <use xlink:href="#DejaVuSerif-35" transform="translate(63.623047 0.78125)"/>
       <use xlink:href="#DejaVuSerif-30" transform="translate(127.246094 0.78125)"/>
      </g>
     </g>
    </g>
    <g id="xtick_6">
     <g id="line2d_6">
      <g>
       <use xlink:href="#mcb09c094ce" x="351.72291" y="277.36" style="fill: #030303; stroke: #030303; stroke-width: 0.8"/>
      </g>
     </g>
     <g id="text_6">
      <!-- $\mathdefault{400}$ -->
      <g style="fill: #030303" transform="translate(339.30791 294.237969) scale(0.13 -0.13)">
       <defs>
        <path id="DejaVuSerif-34" d="M 2234 1581 
L 2234 4063 
L 641 1581 
L 2234 1581 
z
M 3609 0 
L 1484 0 
L 1484 331 
L 2234 331 
L 2234 1247 
L 197 1247 
L 197 1588 
L 2241 4750 
L 2859 4750 
L 2859 1581 
L 3750 1581 
L 3750 1247 
L 2859 1247 
L 2859 331 
L 3609 331 
L 3609 0 
z
" transform="scale(0.015625)"/>
       </defs>
       <use xlink:href="#DejaVuSerif-34" transform="translate(0 0.78125)"/>
       <use xlink:href="#DejaVuSerif-30" transform="translate(63.623047 0.78125)"/>
       <use xlink:href="#DejaVuSerif-30" transform="translate(127.246094 0.78125)"/>
      </g>
     </g>
    </g>
    <g id="xtick_7">
     <g id="line2d_7">
      <g>
       <use xlink:href="#mcb09c094ce" x="405.166825" y="277.36" style="fill: #030303; stroke: #030303; stroke-width: 0.8"/>
      </g>
     </g>
     <g id="text_7">
      <!-- $\mathdefault{450}$ -->
      <g style="fill: #030303" transform="translate(392.751825 294.237969) scale(0.13 -0.13)">
       <use xlink:href="#DejaVuSerif-34" transform="translate(0 0.78125)"/>
       <use xlink:href="#DejaVuSerif-35" transform="translate(63.623047 0.78125)"/>
       <use xlink:href="#DejaVuSerif-30" transform="translate(127.246094 0.78125)"/>
      </g>
     </g>
    </g>
    <g id="text_8">
     <!-- Stress Endurance Limit (MPa) -->
     <g style="fill: #030303" transform="translate(106.711797 314.61875) scale(0.18 -0.18)">
      <defs>
       <path id="DejaVuSerif-53" d="M 594 225 
L 594 1288 
L 953 1284 
Q 969 753 1261 498 
Q 1553 244 2150 244 
Q 2706 244 2998 464 
Q 3291 684 3291 1106 
Q 3291 1444 3114 1625 
Q 2938 1806 2369 1978 
L 1753 2163 
Q 1084 2366 811 2669 
Q 538 2972 538 3500 
Q 538 4094 959 4422 
Q 1381 4750 2144 4750 
Q 2469 4750 2856 4679 
Q 3244 4609 3681 4475 
L 3681 3481 
L 3328 3481 
Q 3275 3975 2998 4195 
Q 2722 4416 2156 4416 
Q 1663 4416 1405 4214 
Q 1147 4013 1147 3628 
Q 1147 3294 1340 3103 
Q 1534 2913 2163 2725 
L 2741 2553 
Q 3375 2363 3645 2067 
Q 3916 1772 3916 1275 
Q 3916 597 3481 253 
Q 3047 -91 2188 -91 
Q 1803 -91 1404 -12 
Q 1006 66 594 225 
z
" transform="scale(0.015625)"/>
       <path id="DejaVuSerif-74" d="M 691 2988 
L 184 2988 
L 184 3322 
L 691 3322 
L 691 4353 
L 1269 4353 
L 1269 3322 
L 2350 3322 
L 2350 2988 
L 1269 2988 
L 1269 878 
Q 1269 456 1350 337 
Q 1431 219 1650 219 
Q 1875 219 1978 351 
Q 2081 484 2088 781 
L 2522 781 
Q 2497 328 2275 118 
Q 2053 -91 1600 -91 
Q 1103 -91 897 129 
Q 691 350 691 878 
L 691 2988 
z
" transform="scale(0.015625)"/>
       <path id="DejaVuSerif-72" d="M 3059 3328 
L 3059 2497 
L 2728 2497 
Q 2713 2744 2591 2866 
Q 2469 2988 2234 2988 
Q 1809 2988 1582 2694 
Q 1356 2400 1356 1850 
L 1356 331 
L 2022 331 
L 2022 0 
L 263 0 
L 263 331 
L 781 331 
L 781 2994 
L 231 2994 
L 231 3322 
L 1356 3322 
L 1356 2731 
Q 1525 3078 1790 3245 
Q 2056 3413 2438 3413 
Q 2578 3413 2733 3391 
Q 2888 3369 3059 3328 
z
" transform="scale(0.015625)"/>
       <path id="DejaVuSerif-65" d="M 3469 1600 
L 991 1600 
L 991 1575 
Q 991 903 1244 561 
Q 1497 219 1991 219 
Q 2369 219 2611 417 
Q 2853 616 2950 1006 
L 3413 1006 
Q 3275 459 2904 184 
Q 2534 -91 1931 -91 
Q 1203 -91 761 389 
Q 319 869 319 1663 
Q 319 2450 753 2931 
Q 1188 3413 1894 3413 
Q 2647 3413 3050 2948 
Q 3453 2484 3469 1600 
z
M 2791 1931 
Q 2772 2513 2545 2808 
Q 2319 3103 1894 3103 
Q 1497 3103 1269 2806 
Q 1041 2509 991 1931 
L 2791 1931 
z
" transform="scale(0.015625)"/>
       <path id="DejaVuSerif-73" d="M 359 184 
L 359 959 
L 691 959 
Q 703 588 923 403 
Q 1144 219 1575 219 
Q 1963 219 2166 364 
Q 2369 509 2369 788 
Q 2369 1006 2220 1140 
Q 2072 1275 1594 1428 
L 1178 1569 
Q 750 1706 558 1912 
Q 366 2119 366 2438 
Q 366 2894 700 3153 
Q 1034 3413 1625 3413 
Q 1888 3413 2178 3344 
Q 2469 3275 2778 3144 
L 2778 2419 
L 2447 2419 
Q 2434 2741 2221 2922 
Q 2009 3103 1644 3103 
Q 1281 3103 1095 2975 
Q 909 2847 909 2591 
Q 909 2381 1050 2254 
Q 1191 2128 1613 1997 
L 2069 1856 
Q 2541 1709 2748 1489 
Q 2956 1269 2956 922 
Q 2956 450 2595 179 
Q 2234 -91 1600 -91 
Q 1278 -91 972 -22 
Q 666 47 359 184 
z
" transform="scale(0.015625)"/>
       <path id="DejaVuSerif-20" transform="scale(0.015625)"/>
       <path id="DejaVuSerif-45" d="M 353 0 
L 353 331 
L 947 331 
L 947 4331 
L 353 4331 
L 353 4666 
L 4109 4666 
L 4109 3628 
L 3725 3628 
L 3725 4281 
L 1581 4281 
L 1581 2719 
L 3109 2719 
L 3109 3303 
L 3494 3303 
L 3494 1753 
L 3109 1753 
L 3109 2338 
L 1581 2338 
L 1581 384 
L 3775 384 
L 3775 1038 
L 4159 1038 
L 4159 0 
L 353 0 
z
" transform="scale(0.015625)"/>
       <path id="DejaVuSerif-6e" d="M 263 0 
L 263 331 
L 781 331 
L 781 2988 
L 231 2988 
L 231 3322 
L 1356 3322 
L 1356 2731 
Q 1516 3069 1770 3241 
Q 2025 3413 2363 3413 
Q 2913 3413 3172 3097 
Q 3431 2781 3431 2113 
L 3431 331 
L 3944 331 
L 3944 0 
L 2356 0 
L 2356 331 
L 2853 331 
L 2853 1931 
Q 2853 2541 2703 2767 
Q 2553 2994 2175 2994 
Q 1775 2994 1565 2701 
Q 1356 2409 1356 1850 
L 1356 331 
L 1856 331 
L 1856 0 
L 263 0 
z
" transform="scale(0.015625)"/>
       <path id="DejaVuSerif-64" d="M 3359 331 
L 3909 331 
L 3909 0 
L 2784 0 
L 2784 519 
Q 2616 206 2355 57 
Q 2094 -91 1709 -91 
Q 1097 -91 708 395 
Q 319 881 319 1663 
Q 319 2444 706 2928 
Q 1094 3413 1709 3413 
Q 2094 3413 2355 3264 
Q 2616 3116 2784 2803 
L 2784 4531 
L 2241 4531 
L 2241 4863 
L 3359 4863 
L 3359 331 
z
M 2784 1497 
L 2784 1825 
Q 2784 2422 2554 2737 
Q 2325 3053 1888 3053 
Q 1444 3053 1217 2703 
Q 991 2353 991 1663 
Q 991 975 1217 622 
Q 1444 269 1888 269 
Q 2325 269 2554 583 
Q 2784 897 2784 1497 
z
" transform="scale(0.015625)"/>
       <path id="DejaVuSerif-75" d="M 2266 3322 
L 3341 3322 
L 3341 331 
L 3884 331 
L 3884 0 
L 2766 0 
L 2766 588 
Q 2606 256 2353 82 
Q 2100 -91 1766 -91 
Q 1213 -91 952 223 
Q 691 538 691 1209 
L 691 2988 
L 172 2988 
L 172 3322 
L 1269 3322 
L 1269 1388 
Q 1269 781 1417 556 
Q 1566 331 1947 331 
Q 2347 331 2556 625 
Q 2766 919 2766 1478 
L 2766 2988 
L 2266 2988 
L 2266 3322 
z
" transform="scale(0.015625)"/>
       <path id="DejaVuSerif-61" d="M 2547 1044 
L 2547 1747 
L 1806 1747 
Q 1378 1747 1168 1562 
Q 959 1378 959 997 
Q 959 650 1171 447 
Q 1384 244 1747 244 
Q 2106 244 2326 466 
Q 2547 688 2547 1044 
z
M 3122 2075 
L 3122 331 
L 3634 331 
L 3634 0 
L 2547 0 
L 2547 359 
Q 2356 128 2106 18 
Q 1856 -91 1522 -91 
Q 969 -91 644 203 
Q 319 497 319 997 
Q 319 1513 691 1797 
Q 1063 2081 1741 2081 
L 2547 2081 
L 2547 2309 
Q 2547 2688 2317 2895 
Q 2088 3103 1672 3103 
Q 1328 3103 1125 2947 
Q 922 2791 872 2484 
L 575 2484 
L 575 3156 
Q 875 3284 1158 3348 
Q 1441 3413 1709 3413 
Q 2400 3413 2761 3070 
Q 3122 2728 3122 2075 
z
" transform="scale(0.015625)"/>
       <path id="DejaVuSerif-63" d="M 3291 997 
Q 3169 466 2822 187 
Q 2475 -91 1925 -91 
Q 1200 -91 759 389 
Q 319 869 319 1663 
Q 319 2459 759 2936 
Q 1200 3413 1925 3413 
Q 2241 3413 2553 3339 
Q 2866 3266 3181 3116 
L 3181 2266 
L 2847 2266 
Q 2781 2703 2561 2903 
Q 2341 3103 1931 3103 
Q 1466 3103 1228 2742 
Q 991 2381 991 1663 
Q 991 944 1227 581 
Q 1463 219 1931 219 
Q 2303 219 2525 412 
Q 2747 606 2828 997 
L 3291 997 
z
" transform="scale(0.015625)"/>
       <path id="DejaVuSerif-4c" d="M 353 0 
L 353 331 
L 947 331 
L 947 4331 
L 353 4331 
L 353 4666 
L 2175 4666 
L 2175 4331 
L 1581 4331 
L 1581 384 
L 3713 384 
L 3713 1166 
L 4097 1166 
L 4097 0 
L 353 0 
z
" transform="scale(0.015625)"/>
       <path id="DejaVuSerif-69" d="M 622 4353 
Q 622 4497 726 4603 
Q 831 4709 978 4709 
Q 1122 4709 1226 4603 
Q 1331 4497 1331 4353 
Q 1331 4206 1228 4103 
Q 1125 4000 978 4000 
Q 831 4000 726 4103 
Q 622 4206 622 4353 
z
M 1356 331 
L 1900 331 
L 1900 0 
L 231 0 
L 231 331 
L 781 331 
L 781 2988 
L 231 2988 
L 231 3322 
L 1356 3322 
L 1356 331 
z
" transform="scale(0.015625)"/>
       <path id="DejaVuSerif-6d" d="M 3316 2675 
Q 3481 3041 3739 3227 
Q 3997 3413 4341 3413 
Q 4863 3413 5119 3089 
Q 5375 2766 5375 2113 
L 5375 331 
L 5894 331 
L 5894 0 
L 4300 0 
L 4300 331 
L 4800 331 
L 4800 2047 
Q 4800 2556 4650 2772 
Q 4500 2988 4153 2988 
Q 3769 2988 3567 2697 
Q 3366 2406 3366 1850 
L 3366 331 
L 3866 331 
L 3866 0 
L 2291 0 
L 2291 331 
L 2791 331 
L 2791 2069 
Q 2791 2566 2641 2777 
Q 2491 2988 2144 2988 
Q 1759 2988 1557 2697 
Q 1356 2406 1356 1850 
L 1356 331 
L 1856 331 
L 1856 0 
L 263 0 
L 263 331 
L 781 331 
L 781 2994 
L 231 2994 
L 231 3322 
L 1356 3322 
L 1356 2731 
Q 1516 3063 1762 3238 
Q 2009 3413 2322 3413 
Q 2709 3413 2968 3220 
Q 3228 3028 3316 2675 
z
" transform="scale(0.015625)"/>
       <path id="DejaVuSerif-28" d="M 2041 -997 
Q 1281 -656 893 83 
Q 506 822 506 1931 
Q 506 3044 893 3783 
Q 1281 4522 2041 4863 
L 2041 4556 
Q 1559 4225 1350 3623 
Q 1141 3022 1141 1931 
Q 1141 844 1350 242 
Q 1559 -359 2041 -691 
L 2041 -997 
z
" transform="scale(0.015625)"/>
       <path id="DejaVuSerif-4d" d="M 353 0 
L 353 331 
L 947 331 
L 947 4331 
L 319 4331 
L 319 4666 
L 1678 4666 
L 3316 1344 
L 4953 4666 
L 6228 4666 
L 6228 4331 
L 5606 4331 
L 5606 331 
L 6203 331 
L 6203 0 
L 4378 0 
L 4378 331 
L 4972 331 
L 4972 3938 
L 3372 684 
L 2931 684 
L 1331 3938 
L 1331 331 
L 1925 331 
L 1925 0 
L 353 0 
z
" transform="scale(0.015625)"/>
       <path id="DejaVuSerif-50" d="M 1581 2375 
L 2406 2375 
Q 2872 2375 3115 2626 
Q 3359 2878 3359 3353 
Q 3359 3831 3115 4081 
Q 2872 4331 2406 4331 
L 1581 4331 
L 1581 2375 
z
M 353 0 
L 353 331 
L 947 331 
L 947 4331 
L 353 4331 
L 353 4666 
L 2559 4666 
Q 3259 4666 3668 4311 
Q 4078 3956 4078 3353 
Q 4078 2753 3668 2397 
Q 3259 2041 2559 2041 
L 1581 2041 
L 1581 331 
L 2303 331 
L 2303 0 
L 353 0 
z
" transform="scale(0.015625)"/>
       <path id="DejaVuSerif-29" d="M 453 -997 
L 453 -691 
Q 934 -359 1145 242 
Q 1356 844 1356 1931 
Q 1356 3022 1145 3623 
Q 934 4225 453 4556 
L 453 4863 
Q 1216 4522 1603 3783 
Q 1991 3044 1991 1931 
Q 1991 822 1603 83 
Q 1216 -656 453 -997 
z
" transform="scale(0.015625)"/>
      </defs>
      <use xlink:href="#DejaVuSerif-53"/>
      <use xlink:href="#DejaVuSerif-74" x="68.505859"/>
      <use xlink:href="#DejaVuSerif-72" x="108.691406"/>
      <use xlink:href="#DejaVuSerif-65" x="156.494141"/>
      <use xlink:href="#DejaVuSerif-73" x="215.673828"/>
      <use xlink:href="#DejaVuSerif-73" x="266.992188"/>
      <use xlink:href="#DejaVuSerif-20" x="318.310547"/>
      <use xlink:href="#DejaVuSerif-45" x="350.097656"/>
      <use xlink:href="#DejaVuSerif-6e" x="423.095703"/>
      <use xlink:href="#DejaVuSerif-64" x="487.5"/>
      <use xlink:href="#DejaVuSerif-75" x="551.513672"/>
      <use xlink:href="#DejaVuSerif-72" x="615.917969"/>
      <use xlink:href="#DejaVuSerif-61" x="663.720703"/>
      <use xlink:href="#DejaVuSerif-6e" x="723.339844"/>
      <use xlink:href="#DejaVuSerif-63" x="787.744141"/>
      <use xlink:href="#DejaVuSerif-65" x="843.75"/>
      <use xlink:href="#DejaVuSerif-20" x="902.929688"/>
      <use xlink:href="#DejaVuSerif-4c" x="934.716797"/>
      <use xlink:href="#DejaVuSerif-69" x="1001.123047"/>
      <use xlink:href="#DejaVuSerif-6d" x="1033.105469"/>
      <use xlink:href="#DejaVuSerif-69" x="1127.929688"/>
      <use xlink:href="#DejaVuSerif-74" x="1159.912109"/>
      <use xlink:href="#DejaVuSerif-20" x="1200.097656"/>
      <use xlink:href="#DejaVuSerif-28" x="1231.884766"/>
      <use xlink:href="#DejaVuSerif-4d" x="1270.898438"/>
      <use xlink:href="#DejaVuSerif-50" x="1373.291016"/>
      <use xlink:href="#DejaVuSerif-61" x="1436.076172"/>
      <use xlink:href="#DejaVuSerif-29" x="1495.695312"/>
     </g>
    </g>
   </g>
   <g id="matplotlib.axis_2">
    <g id="ytick_1">
     <g id="line2d_8">
      <defs>
       <path id="m095379ec8d" d="M 0 0 
L -3.5 0 
" style="stroke: #030303; stroke-width: 0.8"/>
      </defs>
      <g>
       <use xlink:href="#m095379ec8d" x="68.470156" y="277.36" style="fill: #030303; stroke: #030303; stroke-width: 0.8"/>
      </g>
     </g>
     <g id="text_9">
      <!-- $\mathdefault{0.000}$ -->
      <g style="fill: #030303" transform="translate(32.770156 281.159219) scale(0.1 -0.1)">
       <defs>
        <path id="DejaVuSerif-2e" d="M 603 325 
Q 603 500 722 622 
Q 841 744 1019 744 
Q 1191 744 1312 622 
Q 1434 500 1434 325 
Q 1434 153 1312 31 
Q 1191 -91 1019 -91 
Q 841 -91 722 29 
Q 603 150 603 325 
z
" transform="scale(0.015625)"/>
       </defs>
       <use xlink:href="#DejaVuSerif-30" transform="translate(0 0.78125)"/>
       <use xlink:href="#DejaVuSerif-2e" transform="translate(63.623047 0.78125)"/>
       <use xlink:href="#DejaVuSerif-30" transform="translate(95.410156 0.78125)"/>
       <use xlink:href="#DejaVuSerif-30" transform="translate(159.033203 0.78125)"/>
       <use xlink:href="#DejaVuSerif-30" transform="translate(222.65625 0.78125)"/>
      </g>
     </g>
    </g>
    <g id="ytick_2">
     <g id="line2d_9">
      <g>
       <use xlink:href="#m095379ec8d" x="68.470156" y="245.542388" style="fill: #030303; stroke: #030303; stroke-width: 0.8"/>
      </g>
     </g>
     <g id="text_10">
      <!-- $\mathdefault{0.001}$ -->
      <g style="fill: #030303" transform="translate(32.770156 249.341607) scale(0.1 -0.1)">
       <use xlink:href="#DejaVuSerif-30" transform="translate(0 0.78125)"/>
       <use xlink:href="#DejaVuSerif-2e" transform="translate(63.623047 0.78125)"/>
       <use xlink:href="#DejaVuSerif-30" transform="translate(95.410156 0.78125)"/>
       <use xlink:href="#DejaVuSerif-30" transform="translate(159.033203 0.78125)"/>
       <use xlink:href="#DejaVuSerif-31" transform="translate(222.65625 0.78125)"/>
      </g>
     </g>
    </g>
    <g id="ytick_3">
     <g id="line2d_10">
      <g>
       <use xlink:href="#m095379ec8d" x="68.470156" y="213.724777" style="fill: #030303; stroke: #030303; stroke-width: 0.8"/>
      </g>
     </g>
     <g id="text_11">
      <!-- $\mathdefault{0.002}$ -->
      <g style="fill: #030303" transform="translate(32.770156 217.523995) scale(0.1 -0.1)">
       <use xlink:href="#DejaVuSerif-30" transform="translate(0 0.78125)"/>
       <use xlink:href="#DejaVuSerif-2e" transform="translate(63.623047 0.78125)"/>
       <use xlink:href="#DejaVuSerif-30" transform="translate(95.410156 0.78125)"/>
       <use xlink:href="#DejaVuSerif-30" transform="translate(159.033203 0.78125)"/>
       <use xlink:href="#DejaVuSerif-32" transform="translate(222.65625 0.78125)"/>
      </g>
     </g>
    </g>
    <g id="ytick_4">
     <g id="line2d_11">
      <g>
       <use xlink:href="#m095379ec8d" x="68.470156" y="181.907165" style="fill: #030303; stroke: #030303; stroke-width: 0.8"/>
      </g>
     </g>
     <g id="text_12">
      <!-- $\mathdefault{0.003}$ -->
      <g style="fill: #030303" transform="translate(32.770156 185.706384) scale(0.1 -0.1)">
       <use xlink:href="#DejaVuSerif-30" transform="translate(0 0.78125)"/>
       <use xlink:href="#DejaVuSerif-2e" transform="translate(63.623047 0.78125)"/>
       <use xlink:href="#DejaVuSerif-30" transform="translate(95.410156 0.78125)"/>
       <use xlink:href="#DejaVuSerif-30" transform="translate(159.033203 0.78125)"/>
       <use xlink:href="#DejaVuSerif-33" transform="translate(222.65625 0.78125)"/>
      </g>
     </g>
    </g>
    <g id="ytick_5">
     <g id="line2d_12">
      <g>
       <use xlink:href="#m095379ec8d" x="68.470156" y="150.089553" style="fill: #030303; stroke: #030303; stroke-width: 0.8"/>
      </g>
     </g>
     <g id="text_13">
      <!-- $\mathdefault{0.004}$ -->
      <g style="fill: #030303" transform="translate(32.770156 153.888772) scale(0.1 -0.1)">
       <use xlink:href="#DejaVuSerif-30" transform="translate(0 0.78125)"/>
       <use xlink:href="#DejaVuSerif-2e" transform="translate(63.623047 0.78125)"/>
       <use xlink:href="#DejaVuSerif-30" transform="translate(95.410156 0.78125)"/>
       <use xlink:href="#DejaVuSerif-30" transform="translate(159.033203 0.78125)"/>
       <use xlink:href="#DejaVuSerif-34" transform="translate(222.65625 0.78125)"/>
      </g>
     </g>
    </g>
    <g id="ytick_6">
     <g id="line2d_13">
      <g>
       <use xlink:href="#m095379ec8d" x="68.470156" y="118.271942" style="fill: #030303; stroke: #030303; stroke-width: 0.8"/>
      </g>
     </g>
     <g id="text_14">
      <!-- $\mathdefault{0.005}$ -->
      <g style="fill: #030303" transform="translate(32.770156 122.07116) scale(0.1 -0.1)">
       <use xlink:href="#DejaVuSerif-30" transform="translate(0 0.78125)"/>
       <use xlink:href="#DejaVuSerif-2e" transform="translate(63.623047 0.78125)"/>
       <use xlink:href="#DejaVuSerif-30" transform="translate(95.410156 0.78125)"/>
       <use xlink:href="#DejaVuSerif-30" transform="translate(159.033203 0.78125)"/>
       <use xlink:href="#DejaVuSerif-35" transform="translate(222.65625 0.78125)"/>
      </g>
     </g>
    </g>
    <g id="ytick_7">
     <g id="line2d_14">
      <g>
       <use xlink:href="#m095379ec8d" x="68.470156" y="86.45433" style="fill: #030303; stroke: #030303; stroke-width: 0.8"/>
      </g>
     </g>
     <g id="text_15">
      <!-- $\mathdefault{0.006}$ -->
      <g style="fill: #030303" transform="translate(32.770156 90.253549) scale(0.1 -0.1)">
       <defs>
        <path id="DejaVuSerif-36" d="M 2094 219 
Q 2534 219 2771 542 
Q 3009 866 3009 1472 
Q 3009 2078 2771 2401 
Q 2534 2725 2094 2725 
Q 1647 2725 1412 2412 
Q 1178 2100 1178 1509 
Q 1178 888 1415 553 
Q 1653 219 2094 219 
z
M 1075 2569 
Q 1288 2803 1556 2918 
Q 1825 3034 2163 3034 
Q 2859 3034 3264 2615 
Q 3669 2197 3669 1472 
Q 3669 763 3233 336 
Q 2797 -91 2069 -91 
Q 1278 -91 853 498 
Q 428 1088 428 2181 
Q 428 3406 931 4078 
Q 1434 4750 2350 4750 
Q 2597 4750 2869 4703 
Q 3141 4656 3425 4563 
L 3425 3794 
L 3072 3794 
Q 3034 4109 2831 4275 
Q 2628 4441 2284 4441 
Q 1678 4441 1381 3981 
Q 1084 3522 1075 2569 
z
" transform="scale(0.015625)"/>
       </defs>
       <use xlink:href="#DejaVuSerif-30" transform="translate(0 0.78125)"/>
       <use xlink:href="#DejaVuSerif-2e" transform="translate(63.623047 0.78125)"/>
       <use xlink:href="#DejaVuSerif-30" transform="translate(95.410156 0.78125)"/>
       <use xlink:href="#DejaVuSerif-30" transform="translate(159.033203 0.78125)"/>
       <use xlink:href="#DejaVuSerif-36" transform="translate(222.65625 0.78125)"/>
      </g>
     </g>
    </g>
    <g id="ytick_8">
     <g id="line2d_15">
      <g>
       <use xlink:href="#m095379ec8d" x="68.470156" y="54.636718" style="fill: #030303; stroke: #030303; stroke-width: 0.8"/>
      </g>
     </g>
     <g id="text_16">
      <!-- $\mathdefault{0.007}$ -->
      <g style="fill: #030303" transform="translate(32.770156 58.435937) scale(0.1 -0.1)">
       <defs>
        <path id="DejaVuSerif-37" d="M 3609 4347 
L 1784 0 
L 1319 0 
L 3059 4153 
L 903 4153 
L 903 3578 
L 538 3578 
L 538 4666 
L 3609 4666 
L 3609 4347 
z
" transform="scale(0.015625)"/>
       </defs>
       <use xlink:href="#DejaVuSerif-30" transform="translate(0 0.78125)"/>
       <use xlink:href="#DejaVuSerif-2e" transform="translate(63.623047 0.78125)"/>
       <use xlink:href="#DejaVuSerif-30" transform="translate(95.410156 0.78125)"/>
       <use xlink:href="#DejaVuSerif-30" transform="translate(159.033203 0.78125)"/>
       <use xlink:href="#DejaVuSerif-37" transform="translate(222.65625 0.78125)"/>
      </g>
     </g>
    </g>
    <g id="ytick_9">
     <g id="line2d_16">
      <g>
       <use xlink:href="#m095379ec8d" x="68.470156" y="22.819106" style="fill: #030303; stroke: #030303; stroke-width: 0.8"/>
      </g>
     </g>
     <g id="text_17">
      <!-- $\mathdefault{0.008}$ -->
      <g style="fill: #030303" transform="translate(32.770156 26.618325) scale(0.1 -0.1)">
       <defs>
        <path id="DejaVuSerif-38" d="M 2981 1275 
Q 2981 1775 2732 2051 
Q 2484 2328 2034 2328 
Q 1584 2328 1336 2051 
Q 1088 1775 1088 1275 
Q 1088 772 1336 495 
Q 1584 219 2034 219 
Q 2484 219 2732 495 
Q 2981 772 2981 1275 
z
M 2853 3541 
Q 2853 3966 2637 4203 
Q 2422 4441 2034 4441 
Q 1650 4441 1433 4203 
Q 1216 3966 1216 3541 
Q 1216 3113 1433 2875 
Q 1650 2638 2034 2638 
Q 2422 2638 2637 2875 
Q 2853 3113 2853 3541 
z
M 2516 2484 
Q 3047 2413 3344 2092 
Q 3641 1772 3641 1275 
Q 3641 619 3225 264 
Q 2809 -91 2034 -91 
Q 1263 -91 845 264 
Q 428 619 428 1275 
Q 428 1772 725 2092 
Q 1022 2413 1556 2484 
Q 1084 2569 832 2842 
Q 581 3116 581 3541 
Q 581 4103 968 4426 
Q 1356 4750 2034 4750 
Q 2713 4750 3100 4426 
Q 3488 4103 3488 3541 
Q 3488 3116 3236 2842 
Q 2984 2569 2516 2484 
z
" transform="scale(0.015625)"/>
       </defs>
       <use xlink:href="#DejaVuSerif-30" transform="translate(0 0.78125)"/>
       <use xlink:href="#DejaVuSerif-2e" transform="translate(63.623047 0.78125)"/>
       <use xlink:href="#DejaVuSerif-30" transform="translate(95.410156 0.78125)"/>
       <use xlink:href="#DejaVuSerif-30" transform="translate(159.033203 0.78125)"/>
       <use xlink:href="#DejaVuSerif-38" transform="translate(222.65625 0.78125)"/>
      </g>
     </g>
    </g>
    <g id="text_18">
     <!-- Probability Density -->
     <g style="fill: #030303" transform="translate(24.770781 231.479844) rotate(-90) scale(0.18 -0.18)">
      <defs>
       <path id="DejaVuSerif-6f" d="M 1925 219 
Q 2388 219 2623 584 
Q 2859 950 2859 1663 
Q 2859 2375 2623 2739 
Q 2388 3103 1925 3103 
Q 1463 3103 1227 2739 
Q 991 2375 991 1663 
Q 991 950 1228 584 
Q 1466 219 1925 219 
z
M 1925 -91 
Q 1200 -91 759 389 
Q 319 869 319 1663 
Q 319 2456 758 2934 
Q 1197 3413 1925 3413 
Q 2653 3413 3092 2934 
Q 3531 2456 3531 1663 
Q 3531 869 3092 389 
Q 2653 -91 1925 -91 
z
" transform="scale(0.015625)"/>
       <path id="DejaVuSerif-62" d="M 738 331 
L 738 4531 
L 184 4531 
L 184 4863 
L 1313 4863 
L 1313 2803 
Q 1481 3116 1742 3264 
Q 2003 3413 2388 3413 
Q 3000 3413 3387 2928 
Q 3775 2444 3775 1663 
Q 3775 881 3387 395 
Q 3000 -91 2388 -91 
Q 2003 -91 1742 57 
Q 1481 206 1313 519 
L 1313 0 
L 184 0 
L 184 331 
L 738 331 
z
M 1313 1497 
Q 1313 897 1542 583 
Q 1772 269 2209 269 
Q 2650 269 2876 622 
Q 3103 975 3103 1663 
Q 3103 2353 2876 2703 
Q 2650 3053 2209 3053 
Q 1772 3053 1542 2737 
Q 1313 2422 1313 1825 
L 1313 1497 
z
" transform="scale(0.015625)"/>
       <path id="DejaVuSerif-6c" d="M 1313 331 
L 1856 331 
L 1856 0 
L 184 0 
L 184 331 
L 738 331 
L 738 4531 
L 184 4531 
L 184 4863 
L 1313 4863 
L 1313 331 
z
" transform="scale(0.015625)"/>
       <path id="DejaVuSerif-79" d="M 1381 -609 
L 1600 -56 
L 359 2988 
L -19 2988 
L -19 3322 
L 1509 3322 
L 1509 2988 
L 978 2988 
L 1913 703 
L 2847 2988 
L 2350 2988 
L 2350 3322 
L 3597 3322 
L 3597 2988 
L 3225 2988 
L 1703 -750 
Q 1547 -1138 1356 -1280 
Q 1166 -1422 819 -1422 
Q 672 -1422 517 -1397 
Q 363 -1372 206 -1325 
L 206 -691 
L 500 -691 
Q 519 -903 608 -995 
Q 697 -1088 884 -1088 
Q 1056 -1088 1161 -992 
Q 1266 -897 1381 -609 
z
" transform="scale(0.015625)"/>
       <path id="DejaVuSerif-44" d="M 1581 331 
L 2163 331 
Q 3072 331 3558 850 
Q 4044 1369 4044 2338 
Q 4044 3306 3559 3818 
Q 3075 4331 2163 4331 
L 1581 4331 
L 1581 331 
z
M 353 0 
L 353 331 
L 947 331 
L 947 4331 
L 353 4331 
L 353 4666 
L 2209 4666 
Q 3416 4666 4089 4050 
Q 4763 3434 4763 2338 
Q 4763 1238 4088 619 
Q 3413 0 2209 0 
L 353 0 
z
" transform="scale(0.015625)"/>
      </defs>
      <use xlink:href="#DejaVuSerif-50"/>
      <use xlink:href="#DejaVuSerif-72" x="67.285156"/>
      <use xlink:href="#DejaVuSerif-6f" x="115.087891"/>
      <use xlink:href="#DejaVuSerif-62" x="175.292969"/>
      <use xlink:href="#DejaVuSerif-61" x="239.306641"/>
      <use xlink:href="#DejaVuSerif-62" x="298.925781"/>
      <use xlink:href="#DejaVuSerif-69" x="362.939453"/>
      <use xlink:href="#DejaVuSerif-6c" x="394.921875"/>
      <use xlink:href="#DejaVuSerif-69" x="426.904297"/>
      <use xlink:href="#DejaVuSerif-74" x="458.886719"/>
      <use xlink:href="#DejaVuSerif-79" x="499.072266"/>
      <use xlink:href="#DejaVuSerif-20" x="555.566406"/>
      <use xlink:href="#DejaVuSerif-44" x="587.353516"/>
      <use xlink:href="#DejaVuSerif-65" x="667.529297"/>
      <use xlink:href="#DejaVuSerif-6e" x="726.708984"/>
      <use xlink:href="#DejaVuSerif-73" x="791.113281"/>
      <use xlink:href="#DejaVuSerif-69" x="842.431641"/>
      <use xlink:href="#DejaVuSerif-74" x="874.414062"/>
      <use xlink:href="#DejaVuSerif-79" x="914.599609"/>
     </g>
    </g>
   </g>
   <g id="line2d_17">
    <path d="M 84.503331 274.539783 
L 89.639083 273.614764 
L 94.45385 272.514552 
L 98.626648 271.342399 
L 102.799446 269.932112 
L 106.65126 268.387294 
L 110.182089 266.739093 
L 113.712919 264.842887 
L 116.922763 262.881747 
L 120.132608 260.673642 
L 123.342453 258.198022 
L 126.552298 255.434347 
L 129.762142 252.362409 
L 132.971987 248.962692 
L 136.181832 245.216764 
L 139.391677 241.107711 
L 142.601522 236.620595 
L 145.811366 231.742936 
L 149.021211 226.465203 
L 152.231056 220.781314 
L 155.761885 214.057501 
L 159.292715 206.843088 
L 163.144528 198.425849 
L 166.996342 189.461653 
L 171.16914 179.175317 
L 175.662923 167.499119 
L 180.798675 153.522002 
L 187.539349 134.460092 
L 202.625619 91.511886 
L 207.440386 78.614747 
L 211.2922 68.877421 
L 214.823029 60.524715 
L 218.032874 53.490828 
L 220.921734 47.674933 
L 223.48961 42.954209 
L 226.057486 38.688097 
L 228.304377 35.350355 
L 230.551269 32.399296 
L 232.79816 29.850119 
L 234.724067 27.995064 
L 236.649974 26.452145 
L 238.575881 25.227311 
L 240.180803 24.453053 
L 241.785726 23.905087 
L 243.390648 23.584892 
L 244.99557 23.493333 
L 246.600493 23.630659 
L 248.205415 23.996497 
L 249.810338 24.589859 
L 251.41526 25.409144 
L 253.020182 26.452145 
L 254.946089 27.995064 
L 256.871996 29.850119 
L 258.797903 32.010192 
L 261.044794 34.904726 
L 263.291686 38.188229 
L 265.538577 41.843916 
L 268.106453 46.453771 
L 270.995313 52.154409 
L 273.884173 58.355142 
L 277.094018 65.771141 
L 280.624848 74.486026 
L 284.797646 85.407037 
L 289.933397 99.538989 
L 297.31604 120.607301 
L 308.550497 152.629851 
L 314.007233 167.499119 
L 318.822 179.986545 
L 322.994799 190.228761 
L 326.846612 199.148587 
L 330.698426 207.518994 
L 334.229255 214.689129 
L 337.760085 221.368074 
L 341.290914 227.553101 
L 344.500759 232.750215 
L 347.710604 237.548902 
L 350.920448 241.959321 
L 354.130293 245.994484 
L 357.340138 249.669761 
L 360.549983 253.002408 
L 363.759828 256.011103 
L 366.969672 258.715536 
L 370.179517 261.136005 
L 373.389362 263.293077 
L 376.920191 265.386114 
L 380.45102 267.212115 
L 383.98185 268.797109 
L 387.833663 270.280569 
L 392.006462 271.632759 
L 396.17926 272.754838 
L 400.673043 273.743413 
L 405.166825 274.539783 
L 405.166825 274.539783 
" clip-path="url(#pe0c881ffcd)" style="fill: none; stroke: #28a745; stroke-width: 2; stroke-linecap: square"/>
   </g>
   <g id="patch_4">
    <path d="M 68.470156 277.36 
L 68.470156 10.8 
" style="fill: none; stroke: #030303; stroke-width: 1.5; stroke-linejoin: miter; stroke-linecap: square"/>
   </g>
   <g id="patch_5">
    <path d="M 68.470156 277.36 
L 421.2 277.36 
" style="fill: none; stroke: #030303; stroke-width: 1.5; stroke-linejoin: miter; stroke-linecap: square"/>
   </g>
   <g id="legend_1">
    <g id="patch_6">
     <path d="M 270.959375 48.15625 
L 414.2 48.15625 
Q 416.2 48.15625 416.2 46.15625 
L 416.2 17.8 
Q 416.2 15.8 414.2 15.8 
L 270.959375 15.8 
Q 268.959375 15.8 268.959375 17.8 
L 268.959375 46.15625 
Q 268.959375 48.15625 270.959375 48.15625 
z
" style="fill: #ffffff; opacity: 0.8; stroke: #cccccc; stroke-linejoin: miter"/>
    </g>
    <g id="line2d_18">
     <path d="M 272.959375 23.898438 
L 282.959375 23.898438 
L 292.959375 23.898438 
" style="fill: none; stroke: #28a745; stroke-width: 2; stroke-linecap: square"/>
    </g>
    <g id="text_19">
     <!-- Expected Distribution -->
     <g style="fill: #030303" transform="translate(300.959375 27.398438) scale(0.1 -0.1)">
      <defs>
       <path id="DejaVuSerif-78" d="M 1863 2028 
L 2559 2988 
L 2113 2988 
L 2113 3322 
L 3391 3322 
L 3391 2988 
L 2950 2988 
L 2059 1759 
L 3097 331 
L 3531 331 
L 3531 0 
L 1997 0 
L 1997 331 
L 2419 331 
L 1697 1325 
L 972 331 
L 1403 331 
L 1403 0 
L 141 0 
L 141 331 
L 581 331 
L 1497 1594 
L 488 2988 
L 78 2988 
L 78 3322 
L 1563 3322 
L 1563 2988 
L 1166 2988 
L 1863 2028 
z
" transform="scale(0.015625)"/>
       <path id="DejaVuSerif-70" d="M 1313 1825 
L 1313 1497 
Q 1313 897 1542 583 
Q 1772 269 2209 269 
Q 2650 269 2876 622 
Q 3103 975 3103 1663 
Q 3103 2353 2876 2703 
Q 2650 3053 2209 3053 
Q 1772 3053 1542 2737 
Q 1313 2422 1313 1825 
z
M 738 2988 
L 184 2988 
L 184 3322 
L 1313 3322 
L 1313 2803 
Q 1481 3116 1742 3264 
Q 2003 3413 2388 3413 
Q 3000 3413 3387 2928 
Q 3775 2444 3775 1663 
Q 3775 881 3387 395 
Q 3000 -91 2388 -91 
Q 2003 -91 1742 57 
Q 1481 206 1313 519 
L 1313 -997 
L 1856 -997 
L 1856 -1331 
L 184 -1331 
L 184 -997 
L 738 -997 
L 738 2988 
z
" transform="scale(0.015625)"/>
      </defs>
      <use xlink:href="#DejaVuSerif-45"/>
      <use xlink:href="#DejaVuSerif-78" x="72.998047"/>
      <use xlink:href="#DejaVuSerif-70" x="129.394531"/>
      <use xlink:href="#DejaVuSerif-65" x="193.408203"/>
      <use xlink:href="#DejaVuSerif-63" x="252.587891"/>
      <use xlink:href="#DejaVuSerif-74" x="308.59375"/>
      <use xlink:href="#DejaVuSerif-65" x="348.779297"/>
      <use xlink:href="#DejaVuSerif-64" x="407.958984"/>
      <use xlink:href="#DejaVuSerif-20" x="471.972656"/>
      <use xlink:href="#DejaVuSerif-44" x="503.759766"/>
      <use xlink:href="#DejaVuSerif-69" x="583.935547"/>
      <use xlink:href="#DejaVuSerif-73" x="615.917969"/>
      <use xlink:href="#DejaVuSerif-74" x="667.236328"/>
      <use xlink:href="#DejaVuSerif-72" x="707.421875"/>
      <use xlink:href="#DejaVuSerif-69" x="755.224609"/>
      <use xlink:href="#DejaVuSerif-62" x="787.207031"/>
      <use xlink:href="#DejaVuSerif-75" x="851.220703"/>
      <use xlink:href="#DejaVuSerif-74" x="915.625"/>
      <use xlink:href="#DejaVuSerif-69" x="955.810547"/>
      <use xlink:href="#DejaVuSerif-6f" x="987.792969"/>
      <use xlink:href="#DejaVuSerif-6e" x="1047.998047"/>
     </g>
    </g>
    <g id="patch_7">
     <path d="M 272.959375 42.076563 
L 292.959375 42.076563 
L 292.959375 35.076563 
L 272.959375 35.076563 
z
" style="fill: #28a745; fill-opacity: 0.3; stroke: #28a745; stroke-opacity: 0.3; stroke-linejoin: miter"/>
    </g>
    <g id="text_20">
     <!-- Area: X &gt; 350 -->
     <g style="fill: #030303" transform="translate(300.959375 42.076563) scale(0.1 -0.1)">
      <defs>
       <path id="DejaVuSerif-41" d="M 1281 1691 
L 2994 1691 
L 2138 3909 
L 1281 1691 
z
M -38 0 
L -38 331 
L 372 331 
L 2034 4666 
L 2559 4666 
L 4225 331 
L 4684 331 
L 4684 0 
L 2988 0 
L 2988 331 
L 3506 331 
L 3116 1356 
L 1153 1356 
L 763 331 
L 1275 331 
L 1275 0 
L -38 0 
z
" transform="scale(0.015625)"/>
       <path id="DejaVuSerif-3a" d="M 666 325 
Q 666 500 786 622 
Q 906 744 1081 744 
Q 1256 744 1376 622 
Q 1497 500 1497 325 
Q 1497 150 1378 29 
Q 1259 -91 1081 -91 
Q 903 -91 784 29 
Q 666 150 666 325 
z
M 666 2363 
Q 666 2538 786 2658 
Q 906 2778 1081 2778 
Q 1259 2778 1378 2659 
Q 1497 2541 1497 2363 
Q 1497 2184 1378 2065 
Q 1259 1947 1081 1947 
Q 906 1947 786 2067 
Q 666 2188 666 2363 
z
" transform="scale(0.015625)"/>
       <path id="DejaVuSerif-58" d="M 2119 1997 
L 978 331 
L 1581 331 
L 1581 0 
L 38 0 
L 38 331 
L 575 331 
L 1919 2291 
L 556 4331 
L 56 4331 
L 56 4666 
L 1906 4666 
L 1906 4331 
L 1356 4331 
L 2356 2828 
L 3384 4331 
L 2784 4331 
L 2784 4666 
L 4313 4666 
L 4313 4331 
L 3788 4331 
L 2553 2534 
L 4025 331 
L 4525 331 
L 4525 0 
L 2675 0 
L 2675 331 
L 3231 331 
L 2119 1997 
z
" transform="scale(0.015625)"/>
       <path id="DejaVuSerif-3e" d="M 678 3188 
L 678 3719 
L 4684 2266 
L 4684 1747 
L 678 294 
L 678 825 
L 3922 2003 
L 678 3188 
z
" transform="scale(0.015625)"/>
      </defs>
      <use xlink:href="#DejaVuSerif-41"/>
      <use xlink:href="#DejaVuSerif-72" x="72.216797"/>
      <use xlink:href="#DejaVuSerif-65" x="120.019531"/>
      <use xlink:href="#DejaVuSerif-61" x="179.199219"/>
      <use xlink:href="#DejaVuSerif-3a" x="238.818359"/>
      <use xlink:href="#DejaVuSerif-20" x="272.509766"/>
      <use xlink:href="#DejaVuSerif-58" x="304.296875"/>
      <use xlink:href="#DejaVuSerif-20" x="375.488281"/>
      <use xlink:href="#DejaVuSerif-3e" x="407.275391"/>
      <use xlink:href="#DejaVuSerif-20" x="491.064453"/>
      <use xlink:href="#DejaVuSerif-33" x="522.851562"/>
      <use xlink:href="#DejaVuSerif-35" x="586.474609"/>
      <use xlink:href="#DejaVuSerif-30" x="650.097656"/>
     </g>
    </g>
   </g>
  </g>
  <g id="axes_2">
   <g id="patch_8">
    <path d="M 68.470156 595.96 
L 421.2 595.96 
L 421.2 329.4 
L 68.470156 329.4 
L 68.470156 595.96 
z
" style="fill: none"/>
   </g>
   <g id="PolyCollection_2">
    <defs>
     <path id="mbfd6810c6c" d="M 298.599978 -52.04 
L 298.599978 -266.286428 
L 298.920963 -266.652537 
L 299.241947 -267.016428 
L 299.562932 -267.378101 
L 299.883916 -267.737556 
L 300.204901 -268.094794 
L 300.525885 -268.449816 
L 300.84687 -268.802623 
L 301.167854 -269.153217 
L 301.488839 -269.501598 
L 301.809823 -269.847768 
L 302.130808 -270.191729 
L 302.451792 -270.533482 
L 302.772777 -270.873029 
L 303.093761 -271.210373 
L 303.414746 -271.545515 
L 303.73573 -271.878459 
L 304.056714 -272.209206 
L 304.377699 -272.537758 
L 304.698683 -272.86412 
L 305.019668 -273.188294 
L 305.340652 -273.510282 
L 305.661637 -273.830089 
L 305.982621 -274.147716 
L 306.303606 -274.463169 
L 306.62459 -274.77645 
L 306.945575 -275.087563 
L 307.266559 -275.396513 
L 307.587544 -275.703302 
L 307.908528 -276.007935 
L 308.229513 -276.310417 
L 308.550497 -276.610751 
L 308.871482 -276.908943 
L 309.192466 -277.204996 
L 309.513451 -277.498916 
L 309.834435 -277.790708 
L 310.15542 -278.080376 
L 310.476404 -278.367925 
L 310.797389 -278.65336 
L 311.118373 -278.936688 
L 311.439357 -279.217913 
L 311.760342 -279.497041 
L 312.081326 -279.774078 
L 312.402311 -280.049029 
L 312.723295 -280.3219 
L 313.04428 -280.592697 
L 313.365264 -280.861426 
L 313.686249 -281.128094 
L 314.007233 -281.392706 
L 314.328218 -281.655269 
L 314.649202 -281.91579 
L 314.970187 -282.174275 
L 315.291171 -282.430731 
L 315.612156 -282.685164 
L 315.93314 -282.937581 
L 316.254125 -283.18799 
L 316.575109 -283.436396 
L 316.896094 -283.682808 
L 317.217078 -283.927233 
L 317.538063 -284.169678 
L 317.859047 -284.41015 
L 318.180032 -284.648656 
L 318.501016 -284.885205 
L 318.822 -285.119803 
L 319.142985 -285.352459 
L 319.463969 -285.583181 
L 319.784954 -285.811975 
L 320.105938 -286.03885 
L 320.426923 -286.263815 
L 320.747907 -286.486876 
L 321.068892 -286.708042 
L 321.389876 -286.927322 
L 321.710861 -287.144724 
L 322.031845 -287.360255 
L 322.35283 -287.573925 
L 322.673814 -287.785741 
L 322.994799 -287.995713 
L 323.315783 -288.203848 
L 323.636768 -288.410156 
L 323.957752 -288.614645 
L 324.278737 -288.817323 
L 324.599721 -289.0182 
L 324.920706 -289.217285 
L 325.24169 -289.414586 
L 325.562675 -289.610112 
L 325.883659 -289.803872 
L 326.204644 -289.995876 
L 326.525628 -290.186132 
L 326.846612 -290.374649 
L 327.167597 -290.561436 
L 327.488581 -290.746504 
L 327.809566 -290.92986 
L 328.13055 -291.111515 
L 328.451535 -291.291477 
L 328.772519 -291.469756 
L 329.093504 -291.646361 
L 329.414488 -291.821302 
L 329.735473 -291.994588 
L 330.056457 -292.166228 
L 330.377442 -292.336233 
L 330.698426 -292.504611 
L 331.019411 -292.671372 
L 331.340395 -292.836526 
L 331.66138 -293.000082 
L 331.982364 -293.16205 
L 332.303349 -293.322439 
L 332.624333 -293.48126 
L 332.945318 -293.638521 
L 333.266302 -293.794233 
L 333.587287 -293.948405 
L 333.908271 -294.101047 
L 334.229255 -294.252169 
L 334.55024 -294.40178 
L 334.871224 -294.54989 
L 335.192209 -294.696509 
L 335.513193 -294.841648 
L 335.834178 -294.985314 
L 336.155162 -295.127519 
L 336.476147 -295.268272 
L 336.797131 -295.407583 
L 337.118116 -295.545461 
L 337.4391 -295.681917 
L 337.760085 -295.81696 
L 338.081069 -295.950601 
L 338.402054 -296.082848 
L 338.723038 -296.213712 
L 339.044023 -296.343202 
L 339.365007 -296.471329 
L 339.685992 -296.598102 
L 340.006976 -296.723531 
L 340.327961 -296.847625 
L 340.648945 -296.970395 
L 340.96993 -297.09185 
L 341.290914 -297.212 
L 341.611898 -297.330854 
L 341.932883 -297.448423 
L 342.253867 -297.564716 
L 342.574852 -297.679743 
L 342.895836 -297.793513 
L 343.216821 -297.906037 
L 343.537805 -298.017323 
L 343.85879 -298.127381 
L 344.179774 -298.236222 
L 344.500759 -298.343854 
L 344.821743 -298.450288 
L 345.142728 -298.555532 
L 345.463712 -298.659596 
L 345.784697 -298.762491 
L 346.105681 -298.864224 
L 346.426666 -298.964807 
L 346.74765 -299.064247 
L 347.068635 -299.162556 
L 347.389619 -299.259741 
L 347.710604 -299.355812 
L 348.031588 -299.45078 
L 348.352573 -299.544652 
L 348.673557 -299.637438 
L 348.994541 -299.729149 
L 349.315526 -299.819791 
L 349.63651 -299.909376 
L 349.957495 -299.997912 
L 350.278479 -300.085408 
L 350.599464 -300.171874 
L 350.920448 -300.257318 
L 351.241433 -300.341749 
L 351.562417 -300.425177 
L 351.883402 -300.50761 
L 352.204386 -300.589057 
L 352.525371 -300.669527 
L 352.846355 -300.74903 
L 353.16734 -300.827573 
L 353.488324 -300.905166 
L 353.809309 -300.981817 
L 354.130293 -301.057535 
L 354.451278 -301.132329 
L 354.772262 -301.206207 
L 355.093247 -301.279178 
L 355.414231 -301.351251 
L 355.735216 -301.422433 
L 356.0562 -301.492734 
L 356.377185 -301.562161 
L 356.698169 -301.630724 
L 357.019153 -301.69843 
L 357.340138 -301.765288 
L 357.661122 -301.831306 
L 357.982107 -301.896492 
L 358.303091 -301.960855 
L 358.624076 -302.024402 
L 358.94506 -302.087142 
L 359.266045 -302.149082 
L 359.587029 -302.21023 
L 359.908014 -302.270596 
L 360.228998 -302.330185 
L 360.549983 -302.389007 
L 360.870967 -302.447069 
L 361.191952 -302.504379 
L 361.512936 -302.560944 
L 361.833921 -302.616773 
L 362.154905 -302.671872 
L 362.47589 -302.726249 
L 362.796874 -302.779912 
L 363.117859 -302.832869 
L 363.438843 -302.885126 
L 363.759828 -302.936692 
L 364.080812 -302.987573 
L 364.401796 -303.037776 
L 364.722781 -303.08731 
L 365.043765 -303.13618 
L 365.36475 -303.184395 
L 365.685734 -303.231961 
L 366.006719 -303.278886 
L 366.327703 -303.325176 
L 366.648688 -303.370838 
L 366.969672 -303.41588 
L 367.290657 -303.460307 
L 367.611641 -303.504127 
L 367.932626 -303.547347 
L 368.25361 -303.589973 
L 368.574595 -303.632012 
L 368.895579 -303.67347 
L 369.216564 -303.714354 
L 369.537548 -303.754671 
L 369.858533 -303.794427 
L 370.179517 -303.833628 
L 370.500502 -303.872281 
L 370.821486 -303.910391 
L 371.142471 -303.947966 
L 371.463455 -303.985012 
L 371.784439 -304.021534 
L 372.105424 -304.057538 
L 372.426408 -304.093032 
L 372.747393 -304.12802 
L 373.068377 -304.162508 
L 373.389362 -304.196503 
L 373.710346 -304.230011 
L 374.031331 -304.263037 
L 374.352315 -304.295587 
L 374.6733 -304.327666 
L 374.994284 -304.359281 
L 375.315269 -304.390437 
L 375.636253 -304.421139 
L 375.957238 -304.451393 
L 376.278222 -304.481205 
L 376.599207 -304.510579 
L 376.920191 -304.539522 
L 377.241176 -304.568038 
L 377.56216 -304.596134 
L 377.883145 -304.623813 
L 378.204129 -304.651081 
L 378.525114 -304.677944 
L 378.846098 -304.704406 
L 379.167083 -304.730473 
L 379.488067 -304.756149 
L 379.809051 -304.78144 
L 380.130036 -304.806349 
L 380.45102 -304.830883 
L 380.772005 -304.855046 
L 381.092989 -304.878843 
L 381.413974 -304.902278 
L 381.734958 -304.925356 
L 382.055943 -304.948081 
L 382.376927 -304.970459 
L 382.697912 -304.992494 
L 383.018896 -305.01419 
L 383.339881 -305.035551 
L 383.660865 -305.056583 
L 383.98185 -305.077289 
L 384.302834 -305.097674 
L 384.623819 -305.117742 
L 384.944803 -305.137497 
L 385.265788 -305.156943 
L 385.586772 -305.176085 
L 385.907757 -305.194927 
L 386.228741 -305.213472 
L 386.549726 -305.231725 
L 386.87071 -305.249689 
L 387.191694 -305.267369 
L 387.512679 -305.284768 
L 387.833663 -305.301891 
L 388.154648 -305.318741 
L 388.475632 -305.335321 
L 388.796617 -305.351636 
L 389.117601 -305.367689 
L 389.438586 -305.383484 
L 389.75957 -305.399025 
L 390.080555 -305.414314 
L 390.401539 -305.429356 
L 390.722524 -305.444153 
L 391.043508 -305.45871 
L 391.364493 -305.47303 
L 391.685477 -305.487116 
L 392.006462 -305.500972 
L 392.327446 -305.5146 
L 392.648431 -305.528004 
L 392.969415 -305.541187 
L 393.2904 -305.554153 
L 393.611384 -305.566904 
L 393.932369 -305.579444 
L 394.253353 -305.591775 
L 394.574337 -305.603901 
L 394.895322 -305.615825 
L 395.216306 -305.627549 
L 395.537291 -305.639077 
L 395.858275 -305.650411 
L 396.17926 -305.661555 
L 396.500244 -305.67251 
L 396.821229 -305.683281 
L 397.142213 -305.693869 
L 397.463198 -305.704277 
L 397.784182 -305.714508 
L 398.105167 -305.724565 
L 398.426151 -305.734451 
L 398.747136 -305.744167 
L 399.06812 -305.753716 
L 399.389105 -305.763102 
L 399.710089 -305.772325 
L 400.031074 -305.78139 
L 400.352058 -305.790298 
L 400.673043 -305.799051 
L 400.994027 -305.807653 
L 401.315012 -305.816105 
L 401.635996 -305.82441 
L 401.95698 -305.832569 
L 402.277965 -305.840586 
L 402.598949 -305.848462 
L 402.919934 -305.8562 
L 403.240918 -305.863801 
L 403.561903 -305.871269 
L 403.882887 -305.878604 
L 404.203872 -305.88581 
L 404.524856 -305.892887 
L 404.845841 -305.899839 
L 405.166825 -305.906667 
L 405.166825 -52.04 
L 405.166825 -52.04 
L 404.845841 -52.04 
L 404.524856 -52.04 
L 404.203872 -52.04 
L 403.882887 -52.04 
L 403.561903 -52.04 
L 403.240918 -52.04 
L 402.919934 -52.04 
L 402.598949 -52.04 
L 402.277965 -52.04 
L 401.95698 -52.04 
L 401.635996 -52.04 
L 401.315012 -52.04 
L 400.994027 -52.04 
L 400.673043 -52.04 
L 400.352058 -52.04 
L 400.031074 -52.04 
L 399.710089 -52.04 
L 399.389105 -52.04 
L 399.06812 -52.04 
L 398.747136 -52.04 
L 398.426151 -52.04 
L 398.105167 -52.04 
L 397.784182 -52.04 
L 397.463198 -52.04 
L 397.142213 -52.04 
L 396.821229 -52.04 
L 396.500244 -52.04 
L 396.17926 -52.04 
L 395.858275 -52.04 
L 395.537291 -52.04 
L 395.216306 -52.04 
L 394.895322 -52.04 
L 394.574337 -52.04 
L 394.253353 -52.04 
L 393.932369 -52.04 
L 393.611384 -52.04 
L 393.2904 -52.04 
L 392.969415 -52.04 
L 392.648431 -52.04 
L 392.327446 -52.04 
L 392.006462 -52.04 
L 391.685477 -52.04 
L 391.364493 -52.04 
L 391.043508 -52.04 
L 390.722524 -52.04 
L 390.401539 -52.04 
L 390.080555 -52.04 
L 389.75957 -52.04 
L 389.438586 -52.04 
L 389.117601 -52.04 
L 388.796617 -52.04 
L 388.475632 -52.04 
L 388.154648 -52.04 
L 387.833663 -52.04 
L 387.512679 -52.04 
L 387.191694 -52.04 
L 386.87071 -52.04 
L 386.549726 -52.04 
L 386.228741 -52.04 
L 385.907757 -52.04 
L 385.586772 -52.04 
L 385.265788 -52.04 
L 384.944803 -52.04 
L 384.623819 -52.04 
L 384.302834 -52.04 
L 383.98185 -52.04 
L 383.660865 -52.04 
L 383.339881 -52.04 
L 383.018896 -52.04 
L 382.697912 -52.04 
L 382.376927 -52.04 
L 382.055943 -52.04 
L 381.734958 -52.04 
L 381.413974 -52.04 
L 381.092989 -52.04 
L 380.772005 -52.04 
L 380.45102 -52.04 
L 380.130036 -52.04 
L 379.809051 -52.04 
L 379.488067 -52.04 
L 379.167083 -52.04 
L 378.846098 -52.04 
L 378.525114 -52.04 
L 378.204129 -52.04 
L 377.883145 -52.04 
L 377.56216 -52.04 
L 377.241176 -52.04 
L 376.920191 -52.04 
L 376.599207 -52.04 
L 376.278222 -52.04 
L 375.957238 -52.04 
L 375.636253 -52.04 
L 375.315269 -52.04 
L 374.994284 -52.04 
L 374.6733 -52.04 
L 374.352315 -52.04 
L 374.031331 -52.04 
L 373.710346 -52.04 
L 373.389362 -52.04 
L 373.068377 -52.04 
L 372.747393 -52.04 
L 372.426408 -52.04 
L 372.105424 -52.04 
L 371.784439 -52.04 
L 371.463455 -52.04 
L 371.142471 -52.04 
L 370.821486 -52.04 
L 370.500502 -52.04 
L 370.179517 -52.04 
L 369.858533 -52.04 
L 369.537548 -52.04 
L 369.216564 -52.04 
L 368.895579 -52.04 
L 368.574595 -52.04 
L 368.25361 -52.04 
L 367.932626 -52.04 
L 367.611641 -52.04 
L 367.290657 -52.04 
L 366.969672 -52.04 
L 366.648688 -52.04 
L 366.327703 -52.04 
L 366.006719 -52.04 
L 365.685734 -52.04 
L 365.36475 -52.04 
L 365.043765 -52.04 
L 364.722781 -52.04 
L 364.401796 -52.04 
L 364.080812 -52.04 
L 363.759828 -52.04 
L 363.438843 -52.04 
L 363.117859 -52.04 
L 362.796874 -52.04 
L 362.47589 -52.04 
L 362.154905 -52.04 
L 361.833921 -52.04 
L 361.512936 -52.04 
L 361.191952 -52.04 
L 360.870967 -52.04 
L 360.549983 -52.04 
L 360.228998 -52.04 
L 359.908014 -52.04 
L 359.587029 -52.04 
L 359.266045 -52.04 
L 358.94506 -52.04 
L 358.624076 -52.04 
L 358.303091 -52.04 
L 357.982107 -52.04 
L 357.661122 -52.04 
L 357.340138 -52.04 
L 357.019153 -52.04 
L 356.698169 -52.04 
L 356.377185 -52.04 
L 356.0562 -52.04 
L 355.735216 -52.04 
L 355.414231 -52.04 
L 355.093247 -52.04 
L 354.772262 -52.04 
L 354.451278 -52.04 
L 354.130293 -52.04 
L 353.809309 -52.04 
L 353.488324 -52.04 
L 353.16734 -52.04 
L 352.846355 -52.04 
L 352.525371 -52.04 
L 352.204386 -52.04 
L 351.883402 -52.04 
L 351.562417 -52.04 
L 351.241433 -52.04 
L 350.920448 -52.04 
L 350.599464 -52.04 
L 350.278479 -52.04 
L 349.957495 -52.04 
L 349.63651 -52.04 
L 349.315526 -52.04 
L 348.994541 -52.04 
L 348.673557 -52.04 
L 348.352573 -52.04 
L 348.031588 -52.04 
L 347.710604 -52.04 
L 347.389619 -52.04 
L 347.068635 -52.04 
L 346.74765 -52.04 
L 346.426666 -52.04 
L 346.105681 -52.04 
L 345.784697 -52.04 
L 345.463712 -52.04 
L 345.142728 -52.04 
L 344.821743 -52.04 
L 344.500759 -52.04 
L 344.179774 -52.04 
L 343.85879 -52.04 
L 343.537805 -52.04 
L 343.216821 -52.04 
L 342.895836 -52.04 
L 342.574852 -52.04 
L 342.253867 -52.04 
L 341.932883 -52.04 
L 341.611898 -52.04 
L 341.290914 -52.04 
L 340.96993 -52.04 
L 340.648945 -52.04 
L 340.327961 -52.04 
L 340.006976 -52.04 
L 339.685992 -52.04 
L 339.365007 -52.04 
L 339.044023 -52.04 
L 338.723038 -52.04 
L 338.402054 -52.04 
L 338.081069 -52.04 
L 337.760085 -52.04 
L 337.4391 -52.04 
L 337.118116 -52.04 
L 336.797131 -52.04 
L 336.476147 -52.04 
L 336.155162 -52.04 
L 335.834178 -52.04 
L 335.513193 -52.04 
L 335.192209 -52.04 
L 334.871224 -52.04 
L 334.55024 -52.04 
L 334.229255 -52.04 
L 333.908271 -52.04 
L 333.587287 -52.04 
L 333.266302 -52.04 
L 332.945318 -52.04 
L 332.624333 -52.04 
L 332.303349 -52.04 
L 331.982364 -52.04 
L 331.66138 -52.04 
L 331.340395 -52.04 
L 331.019411 -52.04 
L 330.698426 -52.04 
L 330.377442 -52.04 
L 330.056457 -52.04 
L 329.735473 -52.04 
L 329.414488 -52.04 
L 329.093504 -52.04 
L 328.772519 -52.04 
L 328.451535 -52.04 
L 328.13055 -52.04 
L 327.809566 -52.04 
L 327.488581 -52.04 
L 327.167597 -52.04 
L 326.846612 -52.04 
L 326.525628 -52.04 
L 326.204644 -52.04 
L 325.883659 -52.04 
L 325.562675 -52.04 
L 325.24169 -52.04 
L 324.920706 -52.04 
L 324.599721 -52.04 
L 324.278737 -52.04 
L 323.957752 -52.04 
L 323.636768 -52.04 
L 323.315783 -52.04 
L 322.994799 -52.04 
L 322.673814 -52.04 
L 322.35283 -52.04 
L 322.031845 -52.04 
L 321.710861 -52.04 
L 321.389876 -52.04 
L 321.068892 -52.04 
L 320.747907 -52.04 
L 320.426923 -52.04 
L 320.105938 -52.04 
L 319.784954 -52.04 
L 319.463969 -52.04 
L 319.142985 -52.04 
L 318.822 -52.04 
L 318.501016 -52.04 
L 318.180032 -52.04 
L 317.859047 -52.04 
L 317.538063 -52.04 
L 317.217078 -52.04 
L 316.896094 -52.04 
L 316.575109 -52.04 
L 316.254125 -52.04 
L 315.93314 -52.04 
L 315.612156 -52.04 
L 315.291171 -52.04 
L 314.970187 -52.04 
L 314.649202 -52.04 
L 314.328218 -52.04 
L 314.007233 -52.04 
L 313.686249 -52.04 
L 313.365264 -52.04 
L 313.04428 -52.04 
L 312.723295 -52.04 
L 312.402311 -52.04 
L 312.081326 -52.04 
L 311.760342 -52.04 
L 311.439357 -52.04 
L 311.118373 -52.04 
L 310.797389 -52.04 
L 310.476404 -52.04 
L 310.15542 -52.04 
L 309.834435 -52.04 
L 309.513451 -52.04 
L 309.192466 -52.04 
L 308.871482 -52.04 
L 308.550497 -52.04 
L 308.229513 -52.04 
L 307.908528 -52.04 
L 307.587544 -52.04 
L 307.266559 -52.04 
L 306.945575 -52.04 
L 306.62459 -52.04 
L 306.303606 -52.04 
L 305.982621 -52.04 
L 305.661637 -52.04 
L 305.340652 -52.04 
L 305.019668 -52.04 
L 304.698683 -52.04 
L 304.377699 -52.04 
L 304.056714 -52.04 
L 303.73573 -52.04 
L 303.414746 -52.04 
L 303.093761 -52.04 
L 302.772777 -52.04 
L 302.451792 -52.04 
L 302.130808 -52.04 
L 301.809823 -52.04 
L 301.488839 -52.04 
L 301.167854 -52.04 
L 300.84687 -52.04 
L 300.525885 -52.04 
L 300.204901 -52.04 
L 299.883916 -52.04 
L 299.562932 -52.04 
L 299.241947 -52.04 
L 298.920963 -52.04 
L 298.599978 -52.04 
z
" style="stroke: #28a745; stroke-opacity: 0.3"/>
    </defs>
    <g clip-path="url(#pfc02250fca)">
     <use xlink:href="#mbfd6810c6c" x="0" y="648" style="fill: #28a745; fill-opacity: 0.3; stroke: #28a745; stroke-opacity: 0.3"/>
    </g>
   </g>
   <g id="matplotlib.axis_3">
    <g id="xtick_8">
     <g id="line2d_19">
      <g>
       <use xlink:href="#mcb09c094ce" x="84.503331" y="595.96" style="fill: #030303; stroke: #030303; stroke-width: 0.8"/>
      </g>
     </g>
     <g id="text_21">
      <!-- $\mathdefault{150}$ -->
      <g style="fill: #030303" transform="translate(72.088331 612.837969) scale(0.13 -0.13)">
       <use xlink:href="#DejaVuSerif-31" transform="translate(0 0.78125)"/>
       <use xlink:href="#DejaVuSerif-35" transform="translate(63.623047 0.78125)"/>
       <use xlink:href="#DejaVuSerif-30" transform="translate(127.246094 0.78125)"/>
      </g>
     </g>
    </g>
    <g id="xtick_9">
     <g id="line2d_20">
      <g>
       <use xlink:href="#mcb09c094ce" x="137.947247" y="595.96" style="fill: #030303; stroke: #030303; stroke-width: 0.8"/>
      </g>
     </g>
     <g id="text_22">
      <!-- $\mathdefault{200}$ -->
      <g style="fill: #030303" transform="translate(125.532247 612.837969) scale(0.13 -0.13)">
       <use xlink:href="#DejaVuSerif-32" transform="translate(0 0.78125)"/>
       <use xlink:href="#DejaVuSerif-30" transform="translate(63.623047 0.78125)"/>
       <use xlink:href="#DejaVuSerif-30" transform="translate(127.246094 0.78125)"/>
      </g>
     </g>
    </g>
    <g id="xtick_10">
     <g id="line2d_21">
      <g>
       <use xlink:href="#mcb09c094ce" x="191.391162" y="595.96" style="fill: #030303; stroke: #030303; stroke-width: 0.8"/>
      </g>
     </g>
     <g id="text_23">
      <!-- $\mathdefault{250}$ -->
      <g style="fill: #030303" transform="translate(178.976162 612.837969) scale(0.13 -0.13)">
       <use xlink:href="#DejaVuSerif-32" transform="translate(0 0.78125)"/>
       <use xlink:href="#DejaVuSerif-35" transform="translate(63.623047 0.78125)"/>
       <use xlink:href="#DejaVuSerif-30" transform="translate(127.246094 0.78125)"/>
      </g>
     </g>
    </g>
    <g id="xtick_11">
     <g id="line2d_22">
      <g>
       <use xlink:href="#mcb09c094ce" x="244.835078" y="595.96" style="fill: #030303; stroke: #030303; stroke-width: 0.8"/>
      </g>
     </g>
     <g id="text_24">
      <!-- $\mathdefault{300}$ -->
      <g style="fill: #030303" transform="translate(232.420078 612.837969) scale(0.13 -0.13)">
       <use xlink:href="#DejaVuSerif-33" transform="translate(0 0.78125)"/>
       <use xlink:href="#DejaVuSerif-30" transform="translate(63.623047 0.78125)"/>
       <use xlink:href="#DejaVuSerif-30" transform="translate(127.246094 0.78125)"/>
      </g>
     </g>
    </g>
    <g id="xtick_12">
     <g id="line2d_23">
      <g>
       <use xlink:href="#mcb09c094ce" x="298.278994" y="595.96" style="fill: #030303; stroke: #030303; stroke-width: 0.8"/>
      </g>
     </g>
     <g id="text_25">
      <!-- $\mathdefault{350}$ -->
      <g style="fill: #030303" transform="translate(285.863994 612.837969) scale(0.13 -0.13)">
       <use xlink:href="#DejaVuSerif-33" transform="translate(0 0.78125)"/>
       <use xlink:href="#DejaVuSerif-35" transform="translate(63.623047 0.78125)"/>
       <use xlink:href="#DejaVuSerif-30" transform="translate(127.246094 0.78125)"/>
      </g>
     </g>
    </g>
    <g id="xtick_13">
     <g id="line2d_24">
      <g>
       <use xlink:href="#mcb09c094ce" x="351.72291" y="595.96" style="fill: #030303; stroke: #030303; stroke-width: 0.8"/>
      </g>
     </g>
     <g id="text_26">
      <!-- $\mathdefault{400}$ -->
      <g style="fill: #030303" transform="translate(339.30791 612.837969) scale(0.13 -0.13)">
       <use xlink:href="#DejaVuSerif-34" transform="translate(0 0.78125)"/>
       <use xlink:href="#DejaVuSerif-30" transform="translate(63.623047 0.78125)"/>
       <use xlink:href="#DejaVuSerif-30" transform="translate(127.246094 0.78125)"/>
      </g>
     </g>
    </g>
    <g id="xtick_14">
     <g id="line2d_25">
      <g>
       <use xlink:href="#mcb09c094ce" x="405.166825" y="595.96" style="fill: #030303; stroke: #030303; stroke-width: 0.8"/>
      </g>
     </g>
     <g id="text_27">
      <!-- $\mathdefault{450}$ -->
      <g style="fill: #030303" transform="translate(392.751825 612.837969) scale(0.13 -0.13)">
       <use xlink:href="#DejaVuSerif-34" transform="translate(0 0.78125)"/>
       <use xlink:href="#DejaVuSerif-35" transform="translate(63.623047 0.78125)"/>
       <use xlink:href="#DejaVuSerif-30" transform="translate(127.246094 0.78125)"/>
      </g>
     </g>
    </g>
    <g id="text_28">
     <!-- Stress Endurance Limit (MPa) -->
     <g style="fill: #030303" transform="translate(106.711797 633.21875) scale(0.18 -0.18)">
      <use xlink:href="#DejaVuSerif-53"/>
      <use xlink:href="#DejaVuSerif-74" x="68.505859"/>
      <use xlink:href="#DejaVuSerif-72" x="108.691406"/>
      <use xlink:href="#DejaVuSerif-65" x="156.494141"/>
      <use xlink:href="#DejaVuSerif-73" x="215.673828"/>
      <use xlink:href="#DejaVuSerif-73" x="266.992188"/>
      <use xlink:href="#DejaVuSerif-20" x="318.310547"/>
      <use xlink:href="#DejaVuSerif-45" x="350.097656"/>
      <use xlink:href="#DejaVuSerif-6e" x="423.095703"/>
      <use xlink:href="#DejaVuSerif-64" x="487.5"/>
      <use xlink:href="#DejaVuSerif-75" x="551.513672"/>
      <use xlink:href="#DejaVuSerif-72" x="615.917969"/>
      <use xlink:href="#DejaVuSerif-61" x="663.720703"/>
      <use xlink:href="#DejaVuSerif-6e" x="723.339844"/>
      <use xlink:href="#DejaVuSerif-63" x="787.744141"/>
      <use xlink:href="#DejaVuSerif-65" x="843.75"/>
      <use xlink:href="#DejaVuSerif-20" x="902.929688"/>
      <use xlink:href="#DejaVuSerif-4c" x="934.716797"/>
      <use xlink:href="#DejaVuSerif-69" x="1001.123047"/>
      <use xlink:href="#DejaVuSerif-6d" x="1033.105469"/>
      <use xlink:href="#DejaVuSerif-69" x="1127.929688"/>
      <use xlink:href="#DejaVuSerif-74" x="1159.912109"/>
      <use xlink:href="#DejaVuSerif-20" x="1200.097656"/>
      <use xlink:href="#DejaVuSerif-28" x="1231.884766"/>
      <use xlink:href="#DejaVuSerif-4d" x="1270.898438"/>
      <use xlink:href="#DejaVuSerif-50" x="1373.291016"/>
      <use xlink:href="#DejaVuSerif-61" x="1436.076172"/>
      <use xlink:href="#DejaVuSerif-29" x="1495.695312"/>
     </g>
    </g>
   </g>
   <g id="matplotlib.axis_4">
    <g id="ytick_10">
     <g id="line2d_26">
      <g>
       <use xlink:href="#m095379ec8d" x="68.470156" y="595.96" style="fill: #030303; stroke: #030303; stroke-width: 0.8"/>
      </g>
     </g>
     <g id="text_29">
      <!-- $\mathdefault{0.0}$ -->
      <g style="fill: #030303" transform="translate(45.470156 599.759219) scale(0.1 -0.1)">
       <use xlink:href="#DejaVuSerif-30" transform="translate(0 0.78125)"/>
       <use xlink:href="#DejaVuSerif-2e" transform="translate(63.623047 0.78125)"/>
       <use xlink:href="#DejaVuSerif-30" transform="translate(95.410156 0.78125)"/>
      </g>
     </g>
    </g>
    <g id="ytick_11">
     <g id="line2d_27">
      <g>
       <use xlink:href="#m095379ec8d" x="68.470156" y="545.118035" style="fill: #030303; stroke: #030303; stroke-width: 0.8"/>
      </g>
     </g>
     <g id="text_30">
      <!-- $\mathdefault{0.2}$ -->
      <g style="fill: #030303" transform="translate(45.770156 548.917254) scale(0.1 -0.1)">
       <use xlink:href="#DejaVuSerif-30" transform="translate(0 0.78125)"/>
       <use xlink:href="#DejaVuSerif-2e" transform="translate(63.623047 0.78125)"/>
       <use xlink:href="#DejaVuSerif-32" transform="translate(92.785156 0.78125)"/>
      </g>
     </g>
    </g>
    <g id="ytick_12">
     <g id="line2d_28">
      <g>
       <use xlink:href="#m095379ec8d" x="68.470156" y="494.27607" style="fill: #030303; stroke: #030303; stroke-width: 0.8"/>
      </g>
     </g>
     <g id="text_31">
      <!-- $\mathdefault{0.4}$ -->
      <g style="fill: #030303" transform="translate(45.470156 498.075289) scale(0.1 -0.1)">
       <use xlink:href="#DejaVuSerif-30" transform="translate(0 0.78125)"/>
       <use xlink:href="#DejaVuSerif-2e" transform="translate(63.623047 0.78125)"/>
       <use xlink:href="#DejaVuSerif-34" transform="translate(95.410156 0.78125)"/>
      </g>
     </g>
    </g>
    <g id="ytick_13">
     <g id="line2d_29">
      <g>
       <use xlink:href="#m095379ec8d" x="68.470156" y="443.434106" style="fill: #030303; stroke: #030303; stroke-width: 0.8"/>
      </g>
     </g>
     <g id="text_32">
      <!-- $\mathdefault{0.6}$ -->
      <g style="fill: #030303" transform="translate(45.470156 447.233324) scale(0.1 -0.1)">
       <use xlink:href="#DejaVuSerif-30" transform="translate(0 0.78125)"/>
       <use xlink:href="#DejaVuSerif-2e" transform="translate(63.623047 0.78125)"/>
       <use xlink:href="#DejaVuSerif-36" transform="translate(95.410156 0.78125)"/>
      </g>
     </g>
    </g>
    <g id="ytick_14">
     <g id="line2d_30">
      <g>
       <use xlink:href="#m095379ec8d" x="68.470156" y="392.592141" style="fill: #030303; stroke: #030303; stroke-width: 0.8"/>
      </g>
     </g>
     <g id="text_33">
      <!-- $\mathdefault{0.8}$ -->
      <g style="fill: #030303" transform="translate(45.870156 396.39136) scale(0.1 -0.1)">
       <use xlink:href="#DejaVuSerif-30" transform="translate(0 0.78125)"/>
       <use xlink:href="#DejaVuSerif-2e" transform="translate(63.623047 0.78125)"/>
       <use xlink:href="#DejaVuSerif-38" transform="translate(91.785156 0.78125)"/>
      </g>
     </g>
    </g>
    <g id="ytick_15">
     <g id="line2d_31">
      <g>
       <use xlink:href="#m095379ec8d" x="68.470156" y="341.750176" style="fill: #030303; stroke: #030303; stroke-width: 0.8"/>
      </g>
     </g>
     <g id="text_34">
      <!-- $\mathdefault{1.0}$ -->
      <g style="fill: #030303" transform="translate(45.470156 345.549395) scale(0.1 -0.1)">
       <use xlink:href="#DejaVuSerif-31" transform="translate(0 0.78125)"/>
       <use xlink:href="#DejaVuSerif-2e" transform="translate(63.623047 0.78125)"/>
       <use xlink:href="#DejaVuSerif-30" transform="translate(95.410156 0.78125)"/>
      </g>
     </g>
    </g>
    <g id="text_35">
     <!-- Cumulative Probability -->
     <g style="fill: #030303" transform="translate(37.470781 567.708594) rotate(-90) scale(0.18 -0.18)">
      <defs>
       <path id="DejaVuSerif-43" d="M 4513 1234 
Q 4306 581 3820 245 
Q 3334 -91 2591 -91 
Q 2134 -91 1743 65 
Q 1353 222 1050 525 
Q 700 875 529 1320 
Q 359 1766 359 2328 
Q 359 3416 987 4083 
Q 1616 4750 2644 4750 
Q 3025 4750 3456 4650 
Q 3888 4550 4384 4347 
L 4384 3272 
L 4031 3272 
Q 3916 3859 3567 4137 
Q 3219 4416 2591 4416 
Q 1844 4416 1459 3886 
Q 1075 3356 1075 2328 
Q 1075 1303 1459 773 
Q 1844 244 2591 244 
Q 3113 244 3450 492 
Q 3788 741 3938 1234 
L 4513 1234 
z
" transform="scale(0.015625)"/>
       <path id="DejaVuSerif-76" d="M 1581 0 
L 359 2988 
L -19 2988 
L -19 3322 
L 1509 3322 
L 1509 2988 
L 978 2988 
L 1913 703 
L 2847 2988 
L 2350 2988 
L 2350 3322 
L 3597 3322 
L 3597 2988 
L 3225 2988 
L 2003 0 
L 1581 0 
z
" transform="scale(0.015625)"/>
      </defs>
      <use xlink:href="#DejaVuSerif-43"/>
      <use xlink:href="#DejaVuSerif-75" x="76.513672"/>
      <use xlink:href="#DejaVuSerif-6d" x="140.917969"/>
      <use xlink:href="#DejaVuSerif-75" x="235.742188"/>
      <use xlink:href="#DejaVuSerif-6c" x="300.146484"/>
      <use xlink:href="#DejaVuSerif-61" x="332.128906"/>
      <use xlink:href="#DejaVuSerif-74" x="391.748047"/>
      <use xlink:href="#DejaVuSerif-69" x="431.933594"/>
      <use xlink:href="#DejaVuSerif-76" x="463.916016"/>
      <use xlink:href="#DejaVuSerif-65" x="520.410156"/>
      <use xlink:href="#DejaVuSerif-20" x="579.589844"/>
      <use xlink:href="#DejaVuSerif-50" x="611.376953"/>
      <use xlink:href="#DejaVuSerif-72" x="678.662109"/>
      <use xlink:href="#DejaVuSerif-6f" x="726.464844"/>
      <use xlink:href="#DejaVuSerif-62" x="786.669922"/>
      <use xlink:href="#DejaVuSerif-61" x="850.683594"/>
      <use xlink:href="#DejaVuSerif-62" x="910.302734"/>
      <use xlink:href="#DejaVuSerif-69" x="974.316406"/>
      <use xlink:href="#DejaVuSerif-6c" x="1006.298828"/>
      <use xlink:href="#DejaVuSerif-69" x="1038.28125"/>
      <use xlink:href="#DejaVuSerif-74" x="1070.263672"/>
      <use xlink:href="#DejaVuSerif-79" x="1110.449219"/>
     </g>
    </g>
   </g>
   <g id="line2d_32">
    <path d="M 84.503331 595.616843 
L 96.700741 595.251363 
L 106.330276 594.745727 
L 114.354887 594.100613 
L 121.095562 593.342188 
L 127.194267 592.436425 
L 132.651003 591.408606 
L 137.786754 590.217786 
L 142.601522 588.872732 
L 147.095304 587.389919 
L 151.268103 585.793024 
L 155.440901 583.962345 
L 159.613699 581.876404 
L 163.465513 579.706052 
L 167.317326 577.284101 
L 171.16914 574.595381 
L 175.020954 571.625966 
L 178.872768 568.363536 
L 182.724581 564.797739 
L 186.576395 560.920549 
L 190.428209 556.726604 
L 194.280023 552.21352 
L 198.452821 546.965293 
L 202.625619 541.349306 
L 207.119402 534.902464 
L 211.613185 528.061738 
L 216.427952 520.326159 
L 221.563703 511.658125 
L 227.341424 501.467625 
L 234.403083 488.525826 
L 244.674586 469.159637 
L 257.513965 445.019453 
L 264.575624 432.230116 
L 270.353344 422.210401 
L 275.489096 413.724146 
L 280.303863 406.180368 
L 284.797646 399.533636 
L 289.291428 393.29171 
L 293.464227 387.872738 
L 297.637025 382.825213 
L 301.488839 378.498402 
L 305.340652 374.489718 
L 309.192466 370.795004 
L 313.04428 367.407303 
L 316.896094 364.317192 
L 320.747907 361.513124 
L 324.599721 358.9818 
L 328.451535 356.708523 
L 332.303349 354.677561 
L 336.476147 352.731728 
L 340.648945 351.029605 
L 345.142728 349.444468 
L 349.63651 348.090624 
L 354.451278 346.867671 
L 359.587029 345.78977 
L 365.36475 344.815605 
L 371.463455 344.014988 
L 378.525114 343.322056 
L 386.549726 342.768275 
L 396.17926 342.338445 
L 405.166825 342.093333 
L 405.166825 342.093333 
" clip-path="url(#pfc02250fca)" style="fill: none; stroke: #28a745; stroke-width: 2; stroke-linecap: square"/>
   </g>
   <g id="patch_9">
    <path d="M 68.470156 595.96 
L 68.470156 329.4 
" style="fill: none; stroke: #030303; stroke-width: 1.5; stroke-linejoin: miter; stroke-linecap: square"/>
   </g>
   <g id="patch_10">
    <path d="M 68.470156 595.96 
L 421.2 595.96 
" style="fill: none; stroke: #030303; stroke-width: 1.5; stroke-linejoin: miter; stroke-linecap: square"/>
   </g>
   <g id="text_36">
    <!-- $1 - \text{CDF}(-\infty, 350)$ -->
    <g transform="translate(307.82291 471.614463) scale(0.1 -0.1)">
     <defs>
      <path id="DejaVuSans-31" d="M 794 531 
L 1825 531 
L 1825 4091 
L 703 3866 
L 703 4441 
L 1819 4666 
L 2450 4666 
L 2450 531 
L 3481 531 
L 3481 0 
L 794 0 
L 794 531 
z
" transform="scale(0.015625)"/>
      <path id="DejaVuSans-2212" d="M 678 2272 
L 4684 2272 
L 4684 1741 
L 678 1741 
L 678 2272 
z
" transform="scale(0.015625)"/>
      <path id="DejaVuSans-43" d="M 4122 4306 
L 4122 3641 
Q 3803 3938 3442 4084 
Q 3081 4231 2675 4231 
Q 1875 4231 1450 3742 
Q 1025 3253 1025 2328 
Q 1025 1406 1450 917 
Q 1875 428 2675 428 
Q 3081 428 3442 575 
Q 3803 722 4122 1019 
L 4122 359 
Q 3791 134 3420 21 
Q 3050 -91 2638 -91 
Q 1578 -91 968 557 
Q 359 1206 359 2328 
Q 359 3453 968 4101 
Q 1578 4750 2638 4750 
Q 3056 4750 3426 4639 
Q 3797 4528 4122 4306 
z
" transform="scale(0.015625)"/>
      <path id="DejaVuSans-44" d="M 1259 4147 
L 1259 519 
L 2022 519 
Q 2988 519 3436 956 
Q 3884 1394 3884 2338 
Q 3884 3275 3436 3711 
Q 2988 4147 2022 4147 
L 1259 4147 
z
M 628 4666 
L 1925 4666 
Q 3281 4666 3915 4102 
Q 4550 3538 4550 2338 
Q 4550 1131 3912 565 
Q 3275 0 1925 0 
L 628 0 
L 628 4666 
z
" transform="scale(0.015625)"/>
      <path id="DejaVuSans-46" d="M 628 4666 
L 3309 4666 
L 3309 4134 
L 1259 4134 
L 1259 2759 
L 3109 2759 
L 3109 2228 
L 1259 2228 
L 1259 0 
L 628 0 
L 628 4666 
z
" transform="scale(0.015625)"/>
      <path id="DejaVuSans-28" d="M 1984 4856 
Q 1566 4138 1362 3434 
Q 1159 2731 1159 2009 
Q 1159 1288 1364 580 
Q 1569 -128 1984 -844 
L 1484 -844 
Q 1016 -109 783 600 
Q 550 1309 550 2009 
Q 550 2706 781 3412 
Q 1013 4119 1484 4856 
L 1984 4856 
z
" transform="scale(0.015625)"/>
      <path id="DejaVuSans-221e" d="M 2916 1091 
Q 2819 1203 2666 1466 
Q 2456 1091 2272 925 
Q 2041 725 1681 725 
Q 1259 725 981 1041 
Q 688 1372 688 1919 
Q 688 2444 981 2800 
Q 1244 3116 1688 3116 
Q 1916 3116 2084 3022 
Q 2281 2919 2416 2741 
Q 2541 2581 2666 2366 
Q 2875 2741 3059 2906 
Q 3291 3106 3650 3106 
Q 4072 3106 4350 2791 
Q 4644 2459 4644 1913 
Q 4644 1388 4350 1031 
Q 4088 716 3644 716 
Q 3416 716 3247 809 
Q 3078 894 2916 1091 
z
M 1647 1134 
Q 2163 1134 2472 1884 
Q 2075 2703 1647 2703 
Q 1334 2703 1175 2478 
Q 1003 2238 1003 1919 
Q 1003 1569 1175 1353 
Q 1350 1134 1647 1134 
z
M 3684 2697 
Q 3219 2697 2859 1947 
Q 3253 1128 3684 1128 
Q 3997 1128 4156 1353 
Q 4328 1594 4328 1913 
Q 4328 2263 4156 2478 
Q 3981 2697 3684 2697 
z
" transform="scale(0.015625)"/>
      <path id="DejaVuSans-2c" d="M 750 794 
L 1409 794 
L 1409 256 
L 897 -744 
L 494 -744 
L 750 256 
L 750 794 
z
" transform="scale(0.015625)"/>
      <path id="DejaVuSans-33" d="M 2597 2516 
Q 3050 2419 3304 2112 
Q 3559 1806 3559 1356 
Q 3559 666 3084 287 
Q 2609 -91 1734 -91 
Q 1441 -91 1130 -33 
Q 819 25 488 141 
L 488 750 
Q 750 597 1062 519 
Q 1375 441 1716 441 
Q 2309 441 2620 675 
Q 2931 909 2931 1356 
Q 2931 1769 2642 2001 
Q 2353 2234 1838 2234 
L 1294 2234 
L 1294 2753 
L 1863 2753 
Q 2328 2753 2575 2939 
Q 2822 3125 2822 3475 
Q 2822 3834 2567 4026 
Q 2313 4219 1838 4219 
Q 1578 4219 1281 4162 
Q 984 4106 628 3988 
L 628 4550 
Q 988 4650 1302 4700 
Q 1616 4750 1894 4750 
Q 2613 4750 3031 4423 
Q 3450 4097 3450 3541 
Q 3450 3153 3228 2886 
Q 3006 2619 2597 2516 
z
" transform="scale(0.015625)"/>
      <path id="DejaVuSans-35" d="M 691 4666 
L 3169 4666 
L 3169 4134 
L 1269 4134 
L 1269 2991 
Q 1406 3038 1543 3061 
Q 1681 3084 1819 3084 
Q 2600 3084 3056 2656 
Q 3513 2228 3513 1497 
Q 3513 744 3044 326 
Q 2575 -91 1722 -91 
Q 1428 -91 1123 -41 
Q 819 9 494 109 
L 494 744 
Q 775 591 1075 516 
Q 1375 441 1709 441 
Q 2250 441 2565 725 
Q 2881 1009 2881 1497 
Q 2881 1984 2565 2268 
Q 2250 2553 1709 2553 
Q 1456 2553 1204 2497 
Q 953 2441 691 2322 
L 691 4666 
z
" transform="scale(0.015625)"/>
      <path id="DejaVuSans-30" d="M 2034 4250 
Q 1547 4250 1301 3770 
Q 1056 3291 1056 2328 
Q 1056 1369 1301 889 
Q 1547 409 2034 409 
Q 2525 409 2770 889 
Q 3016 1369 3016 2328 
Q 3016 3291 2770 3770 
Q 2525 4250 2034 4250 
z
M 2034 4750 
Q 2819 4750 3233 4129 
Q 3647 3509 3647 2328 
Q 3647 1150 3233 529 
Q 2819 -91 2034 -91 
Q 1250 -91 836 529 
Q 422 1150 422 2328 
Q 422 3509 836 4129 
Q 1250 4750 2034 4750 
z
" transform="scale(0.015625)"/>
      <path id="DejaVuSans-29" d="M 513 4856 
L 1013 4856 
Q 1481 4119 1714 3412 
Q 1947 2706 1947 2009 
Q 1947 1309 1714 600 
Q 1481 -109 1013 -844 
L 513 -844 
Q 928 -128 1133 580 
Q 1338 1288 1338 2009 
Q 1338 2731 1133 3434 
Q 928 4138 513 4856 
z
" transform="scale(0.015625)"/>
     </defs>
     <use xlink:href="#DejaVuSans-31" transform="translate(0 0.125)"/>
     <use xlink:href="#DejaVuSans-2212" transform="translate(83.105469 0.125)"/>
     <use xlink:href="#DejaVuSans-43" transform="translate(186.376953 0.125)"/>
     <use xlink:href="#DejaVuSans-44" transform="translate(256.201172 0.125)"/>
     <use xlink:href="#DejaVuSans-46" transform="translate(333.203125 0.125)"/>
     <use xlink:href="#DejaVuSans-28" transform="translate(390.722656 0.125)"/>
     <use xlink:href="#DejaVuSans-2212" transform="translate(429.736328 0.125)"/>
     <use xlink:href="#DejaVuSans-221e" transform="translate(513.525391 0.125)"/>
     <use xlink:href="#DejaVuSans-2c" transform="translate(596.826172 0.125)"/>
     <use xlink:href="#DejaVuSans-33" transform="translate(648.095703 0.125)"/>
     <use xlink:href="#DejaVuSans-35" transform="translate(711.71875 0.125)"/>
     <use xlink:href="#DejaVuSans-30" transform="translate(775.341797 0.125)"/>
     <use xlink:href="#DejaVuSans-29" transform="translate(838.964844 0.125)"/>
    </g>
   </g>
   <g id="text_37">
    <!-- $\text{CDF}(-\infty, 350)$ -->
    <g transform="translate(210.235078 547.87741) scale(0.1 -0.1)">
     <use xlink:href="#DejaVuSans-43" transform="translate(0 0.125)"/>
     <use xlink:href="#DejaVuSans-44" transform="translate(69.824219 0.125)"/>
     <use xlink:href="#DejaVuSans-46" transform="translate(146.826172 0.125)"/>
     <use xlink:href="#DejaVuSans-28" transform="translate(204.345703 0.125)"/>
     <use xlink:href="#DejaVuSans-2212" transform="translate(243.359375 0.125)"/>
     <use xlink:href="#DejaVuSans-221e" transform="translate(327.148438 0.125)"/>
     <use xlink:href="#DejaVuSans-2c" transform="translate(410.449219 0.125)"/>
     <use xlink:href="#DejaVuSans-33" transform="translate(461.71875 0.125)"/>
     <use xlink:href="#DejaVuSans-35" transform="translate(525.341797 0.125)"/>
     <use xlink:href="#DejaVuSans-30" transform="translate(588.964844 0.125)"/>
     <use xlink:href="#DejaVuSans-29" transform="translate(652.587891 0.125)"/>
    </g>
   </g>
  </g>
 </g>
 <defs>
  <clipPath id="pe0c881ffcd">
   <rect x="68.470156" y="10.8" width="352.729844" height="266.56"/>
  </clipPath>
  <clipPath id="pfc02250fca">
   <rect x="68.470156" y="329.4" width="352.729844" height="266.56"/>
  </clipPath>
 </defs>
</svg>
