<?xml version="1.0" encoding="utf-8" standalone="no"?>
<!DOCTYPE svg PUBLIC "-//W3C//DTD SVG 1.1//EN"
  "http://www.w3.org/Graphics/SVG/1.1/DTD/svg11.dtd">
<svg xmlns:xlink="http://www.w3.org/1999/xlink" width="432pt" height="288pt" viewBox="0 0 432 288" xmlns="http://www.w3.org/2000/svg" version="1.1">
 <metadata>
  <rdf:RDF xmlns:dc="http://purl.org/dc/elements/1.1/" xmlns:cc="http://creativecommons.org/ns#" xmlns:rdf="http://www.w3.org/1999/02/22-rdf-syntax-ns#">
   <cc:Work>
    <dc:type rdf:resource="http://purl.org/dc/dcmitype/StillImage"/>
    <dc:date>2024-10-06T20:41:53.539333</dc:date>
    <dc:format>image/svg+xml</dc:format>
    <dc:creator>
     <cc:Agent>
      <dc:title>Matplotlib v3.9.2, https://matplotlib.org/</dc:title>
     </cc:Agent>
    </dc:creator>
   </cc:Work>
  </rdf:RDF>
 </metadata>
 <defs>
  <style type="text/css">*{stroke-linejoin: round; stroke-linecap: butt}</style>
 </defs>
 <g id="figure_1">
  <g id="patch_1">
   <path d="M 0 288 
L 432 288 
L 432 0 
L 0 0 
L 0 288 
z
" style="fill: none"/>
  </g>
  <g id="axes_1">
   <g id="patch_2">
    <path d="M 25.84 242.2 
L 421.2 242.2 
L 421.2 27.36 
L 25.84 27.36 
L 25.84 242.2 
z
" style="fill: none"/>
   </g>
   <g id="PolyCollection_1">
    <path d="M 43.810909 240.96276 
L 43.810909 242.2 
L 44.531186 242.2 
L 45.251463 242.2 
L 45.97174 242.2 
L 46.692017 242.2 
L 47.412294 242.2 
L 48.132571 242.2 
L 48.852848 242.2 
L 49.573124 242.2 
L 50.293401 242.2 
L 51.013678 242.2 
L 51.733955 242.2 
L 52.454232 242.2 
L 53.174509 242.2 
L 53.894786 242.2 
L 54.615063 242.2 
L 55.33534 242.2 
L 56.055617 242.2 
L 56.775894 242.2 
L 57.496171 242.2 
L 58.216447 242.2 
L 58.936724 242.2 
L 59.657001 242.2 
L 60.377278 242.2 
L 61.097555 242.2 
L 61.817832 242.2 
L 62.538109 242.2 
L 63.258386 242.2 
L 63.978663 242.2 
L 64.69894 242.2 
L 65.419217 242.2 
L 66.139494 242.2 
L 66.85977 242.2 
L 67.580047 242.2 
L 68.300324 242.2 
L 69.020601 242.2 
L 69.740878 242.2 
L 70.461155 242.2 
L 71.181432 242.2 
L 71.901709 242.2 
L 72.621986 242.2 
L 73.342263 242.2 
L 74.06254 242.2 
L 74.782817 242.2 
L 75.503093 242.2 
L 76.22337 242.2 
L 76.943647 242.2 
L 77.663924 242.2 
L 78.384201 242.2 
L 79.104478 242.2 
L 79.824755 242.2 
L 80.545032 242.2 
L 81.265309 242.2 
L 81.985586 242.2 
L 82.705863 242.2 
L 83.42614 242.2 
L 84.146416 242.2 
L 84.866693 242.2 
L 85.58697 242.2 
L 86.307247 242.2 
L 87.027524 242.2 
L 87.747801 242.2 
L 88.468078 242.2 
L 89.188355 242.2 
L 89.908632 242.2 
L 90.628909 242.2 
L 91.349186 242.2 
L 92.069463 242.2 
L 92.789739 242.2 
L 93.510016 242.2 
L 94.230293 242.2 
L 94.95057 242.2 
L 95.670847 242.2 
L 96.391124 242.2 
L 97.111401 242.2 
L 97.831678 242.2 
L 98.551955 242.2 
L 99.272232 242.2 
L 99.992509 242.2 
L 100.712786 242.2 
L 101.433062 242.2 
L 102.153339 242.2 
L 102.873616 242.2 
L 103.593893 242.2 
L 104.31417 242.2 
L 105.034447 242.2 
L 105.754724 242.2 
L 106.475001 242.2 
L 107.195278 242.2 
L 107.915555 242.2 
L 108.635832 242.2 
L 109.356109 242.2 
L 110.076385 242.2 
L 110.796662 242.2 
L 111.516939 242.2 
L 112.237216 242.2 
L 112.957493 242.2 
L 113.67777 242.2 
L 114.398047 242.2 
L 115.118324 242.2 
L 115.838601 242.2 
L 116.558878 242.2 
L 117.279155 242.2 
L 117.999432 242.2 
L 118.719709 242.2 
L 119.439985 242.2 
L 120.160262 242.2 
L 120.880539 242.2 
L 121.600816 242.2 
L 121.600816 220.87222 
L 121.600816 220.87222 
L 120.880539 221.414068 
L 120.160262 221.943123 
L 119.439985 222.459633 
L 118.719709 222.963843 
L 117.999432 223.455997 
L 117.279155 223.936336 
L 116.558878 224.405097 
L 115.838601 224.862517 
L 115.118324 225.308829 
L 114.398047 225.744264 
L 113.67777 226.169049 
L 112.957493 226.58341 
L 112.237216 226.987569 
L 111.516939 227.381744 
L 110.796662 227.766152 
L 110.076385 228.141005 
L 109.356109 228.506514 
L 108.635832 228.862886 
L 107.915555 229.210323 
L 107.195278 229.549026 
L 106.475001 229.879193 
L 105.754724 230.201017 
L 105.034447 230.514688 
L 104.31417 230.820395 
L 103.593893 231.11832 
L 102.873616 231.408646 
L 102.153339 231.69155 
L 101.433062 231.967205 
L 100.712786 232.235784 
L 99.992509 232.497454 
L 99.272232 232.75238 
L 98.551955 233.000723 
L 97.831678 233.242642 
L 97.111401 233.478292 
L 96.391124 233.707825 
L 95.670847 233.931391 
L 94.95057 234.149134 
L 94.230293 234.361199 
L 93.510016 234.567725 
L 92.789739 234.76885 
L 92.069463 234.964707 
L 91.349186 235.155428 
L 90.628909 235.341141 
L 89.908632 235.521971 
L 89.188355 235.698043 
L 88.468078 235.869475 
L 87.747801 236.036385 
L 87.027524 236.198889 
L 86.307247 236.357098 
L 85.58697 236.511121 
L 84.866693 236.661067 
L 84.146416 236.807039 
L 83.42614 236.94914 
L 82.705863 237.087469 
L 81.985586 237.222125 
L 81.265309 237.353202 
L 80.545032 237.480793 
L 79.824755 237.604989 
L 79.104478 237.725878 
L 78.384201 237.843546 
L 77.663924 237.958079 
L 76.943647 238.069558 
L 76.22337 238.178063 
L 75.503093 238.283672 
L 74.782817 238.386462 
L 74.06254 238.486508 
L 73.342263 238.583881 
L 72.621986 238.678652 
L 71.901709 238.770891 
L 71.181432 238.860664 
L 70.461155 238.948038 
L 69.740878 239.033075 
L 69.020601 239.115839 
L 68.300324 239.196389 
L 67.580047 239.274785 
L 66.85977 239.351085 
L 66.139494 239.425344 
L 65.419217 239.497617 
L 64.69894 239.567958 
L 63.978663 239.636418 
L 63.258386 239.703048 
L 62.538109 239.767896 
L 61.817832 239.831012 
L 61.097555 239.89244 
L 60.377278 239.952228 
L 59.657001 240.010419 
L 58.936724 240.067056 
L 58.216447 240.122181 
L 57.496171 240.175834 
L 56.775894 240.228057 
L 56.055617 240.278886 
L 55.33534 240.328361 
L 54.615063 240.376517 
L 53.894786 240.42339 
L 53.174509 240.469015 
L 52.454232 240.513426 
L 51.733955 240.556655 
L 51.013678 240.598734 
L 50.293401 240.639696 
L 49.573124 240.679569 
L 48.852848 240.718384 
L 48.132571 240.756169 
L 47.412294 240.792952 
L 46.692017 240.828759 
L 45.97174 240.863619 
L 45.251463 240.897556 
L 44.531186 240.930595 
L 43.810909 240.96276 
z
" clip-path="url(#p3a32740df4)" style="fill: #ffa500; fill-opacity: 0.5; stroke: #ffa500; stroke-opacity: 0.5"/>
    <path d="M 325.439184 220.87222 
L 325.439184 242.2 
L 326.159461 242.2 
L 326.879738 242.2 
L 327.600015 242.2 
L 328.320291 242.2 
L 329.040568 242.2 
L 329.760845 242.2 
L 330.481122 242.2 
L 331.201399 242.2 
L 331.921676 242.2 
L 332.641953 242.2 
L 333.36223 242.2 
L 334.082507 242.2 
L 334.802784 242.2 
L 335.523061 242.2 
L 336.243338 242.2 
L 336.963615 242.2 
L 337.683891 242.2 
L 338.404168 242.2 
L 339.124445 242.2 
L 339.844722 242.2 
L 340.564999 242.2 
L 341.285276 242.2 
L 342.005553 242.2 
L 342.72583 242.2 
L 343.446107 242.2 
L 344.166384 242.2 
L 344.886661 242.2 
L 345.606938 242.2 
L 346.327214 242.2 
L 347.047491 242.2 
L 347.767768 242.2 
L 348.488045 242.2 
L 349.208322 242.2 
L 349.928599 242.2 
L 350.648876 242.2 
L 351.369153 242.2 
L 352.08943 242.2 
L 352.809707 242.2 
L 353.529984 242.2 
L 354.250261 242.2 
L 354.970537 242.2 
L 355.690814 242.2 
L 356.411091 242.2 
L 357.131368 242.2 
L 357.851645 242.2 
L 358.571922 242.2 
L 359.292199 242.2 
L 360.012476 242.2 
L 360.732753 242.2 
L 361.45303 242.2 
L 362.173307 242.2 
L 362.893584 242.2 
L 363.61386 242.2 
L 364.334137 242.2 
L 365.054414 242.2 
L 365.774691 242.2 
L 366.494968 242.2 
L 367.215245 242.2 
L 367.935522 242.2 
L 368.655799 242.2 
L 369.376076 242.2 
L 370.096353 242.2 
L 370.81663 242.2 
L 371.536907 242.2 
L 372.257183 242.2 
L 372.97746 242.2 
L 373.697737 242.2 
L 374.418014 242.2 
L 375.138291 242.2 
L 375.858568 242.2 
L 376.578845 242.2 
L 377.299122 242.2 
L 378.019399 242.2 
L 378.739676 242.2 
L 379.459953 242.2 
L 380.18023 242.2 
L 380.900506 242.2 
L 381.620783 242.2 
L 382.34106 242.2 
L 383.061337 242.2 
L 383.781614 242.2 
L 384.501891 242.2 
L 385.222168 242.2 
L 385.942445 242.2 
L 386.662722 242.2 
L 387.382999 242.2 
L 388.103276 242.2 
L 388.823553 242.2 
L 389.543829 242.2 
L 390.264106 242.2 
L 390.984383 242.2 
L 391.70466 242.2 
L 392.424937 242.2 
L 393.145214 242.2 
L 393.865491 242.2 
L 394.585768 242.2 
L 395.306045 242.2 
L 396.026322 242.2 
L 396.746599 242.2 
L 397.466876 242.2 
L 398.187152 242.2 
L 398.907429 242.2 
L 399.627706 242.2 
L 400.347983 242.2 
L 401.06826 242.2 
L 401.788537 242.2 
L 402.508814 242.2 
L 403.229091 242.2 
L 403.229091 240.96276 
L 403.229091 240.96276 
L 402.508814 240.930595 
L 401.788537 240.897556 
L 401.06826 240.863619 
L 400.347983 240.828759 
L 399.627706 240.792952 
L 398.907429 240.756169 
L 398.187152 240.718384 
L 397.466876 240.679569 
L 396.746599 240.639696 
L 396.026322 240.598734 
L 395.306045 240.556655 
L 394.585768 240.513426 
L 393.865491 240.469015 
L 393.145214 240.42339 
L 392.424937 240.376517 
L 391.70466 240.328361 
L 390.984383 240.278886 
L 390.264106 240.228057 
L 389.543829 240.175834 
L 388.823553 240.122181 
L 388.103276 240.067056 
L 387.382999 240.010419 
L 386.662722 239.952228 
L 385.942445 239.89244 
L 385.222168 239.831012 
L 384.501891 239.767896 
L 383.781614 239.703048 
L 383.061337 239.636418 
L 382.34106 239.567958 
L 381.620783 239.497617 
L 380.900506 239.425344 
L 380.18023 239.351085 
L 379.459953 239.274785 
L 378.739676 239.196389 
L 378.019399 239.115839 
L 377.299122 239.033075 
L 376.578845 238.948038 
L 375.858568 238.860664 
L 375.138291 238.770891 
L 374.418014 238.678652 
L 373.697737 238.583881 
L 372.97746 238.486508 
L 372.257183 238.386462 
L 371.536907 238.283672 
L 370.81663 238.178063 
L 370.096353 238.069558 
L 369.376076 237.958079 
L 368.655799 237.843546 
L 367.935522 237.725878 
L 367.215245 237.604989 
L 366.494968 237.480793 
L 365.774691 237.353202 
L 365.054414 237.222125 
L 364.334137 237.087469 
L 363.61386 236.94914 
L 362.893584 236.807039 
L 362.173307 236.661067 
L 361.45303 236.511121 
L 360.732753 236.357098 
L 360.012476 236.198889 
L 359.292199 236.036385 
L 358.571922 235.869475 
L 357.851645 235.698043 
L 357.131368 235.521971 
L 356.411091 235.341141 
L 355.690814 235.155428 
L 354.970537 234.964707 
L 354.250261 234.76885 
L 353.529984 234.567725 
L 352.809707 234.361199 
L 352.08943 234.149134 
L 351.369153 233.931391 
L 350.648876 233.707825 
L 349.928599 233.478292 
L 349.208322 233.242642 
L 348.488045 233.000723 
L 347.767768 232.75238 
L 347.047491 232.497454 
L 346.327214 232.235784 
L 345.606938 231.967205 
L 344.886661 231.69155 
L 344.166384 231.408646 
L 343.446107 231.11832 
L 342.72583 230.820395 
L 342.005553 230.514688 
L 341.285276 230.201017 
L 340.564999 229.879193 
L 339.844722 229.549026 
L 339.124445 229.210323 
L 338.404168 228.862886 
L 337.683891 228.506514 
L 336.963615 228.141005 
L 336.243338 227.766152 
L 335.523061 227.381744 
L 334.802784 226.987569 
L 334.082507 226.58341 
L 333.36223 226.169049 
L 332.641953 225.744264 
L 331.921676 225.308829 
L 331.201399 224.862517 
L 330.481122 224.405097 
L 329.760845 223.936336 
L 329.040568 223.455997 
L 328.320291 222.963843 
L 327.600015 222.459633 
L 326.879738 221.943123 
L 326.159461 221.414068 
L 325.439184 220.87222 
z
" clip-path="url(#p3a32740df4)" style="fill: #ffa500; fill-opacity: 0.5; stroke: #ffa500; stroke-opacity: 0.5"/>
   </g>
   <g id="matplotlib.axis_1">
    <g id="xtick_1">
     <g id="line2d_1">
      <defs>
       <path id="mfbd7bf2a41" d="M 0 0 
L 0 3.5 
" style="stroke: #030303; stroke-width: 0.8"/>
      </defs>
      <g>
       <use xlink:href="#mfbd7bf2a41" x="43.810909" y="242.2" style="fill: #030303; stroke: #030303; stroke-width: 0.8"/>
      </g>
     </g>
     <g id="text_1">
      <!-- $\mathdefault{−4}$ -->
      <g style="fill: #030303" transform="translate(34.190909 259.077969) scale(0.13 -0.13)">
       <defs>
        <path id="DejaVuSerif-2212" d="M 678 2259 
L 4684 2259 
L 4684 1753 
L 678 1753 
L 678 2259 
z
" transform="scale(0.015625)"/>
        <path id="DejaVuSerif-34" d="M 2234 1581 
L 2234 4063 
L 641 1581 
L 2234 1581 
z
M 3609 0 
L 1484 0 
L 1484 331 
L 2234 331 
L 2234 1247 
L 197 1247 
L 197 1588 
L 2241 4750 
L 2859 4750 
L 2859 1581 
L 3750 1581 
L 3750 1247 
L 2859 1247 
L 2859 331 
L 3609 331 
L 3609 0 
z
" transform="scale(0.015625)"/>
       </defs>
       <use xlink:href="#DejaVuSerif-2212" transform="translate(0 0.78125)"/>
       <use xlink:href="#DejaVuSerif-34" transform="translate(83.789062 0.78125)"/>
      </g>
     </g>
    </g>
    <g id="xtick_2">
     <g id="line2d_2">
      <g>
       <use xlink:href="#mfbd7bf2a41" x="88.738182" y="242.2" style="fill: #030303; stroke: #030303; stroke-width: 0.8"/>
      </g>
     </g>
     <g id="text_2">
      <!-- $\mathdefault{−3}$ -->
      <g style="fill: #030303" transform="translate(79.118182 259.077969) scale(0.13 -0.13)">
       <defs>
        <path id="DejaVuSerif-33" d="M 622 4469 
Q 988 4606 1323 4678 
Q 1659 4750 1953 4750 
Q 2638 4750 3022 4454 
Q 3406 4159 3406 3634 
Q 3406 3213 3140 2930 
Q 2875 2647 2388 2547 
Q 2963 2466 3280 2130 
Q 3597 1794 3597 1259 
Q 3597 606 3158 257 
Q 2719 -91 1894 -91 
Q 1528 -91 1179 -12 
Q 831 66 488 225 
L 488 1131 
L 838 1131 
Q 869 681 1141 450 
Q 1413 219 1906 219 
Q 2384 219 2661 495 
Q 2938 772 2938 1253 
Q 2938 1803 2653 2086 
Q 2369 2369 1819 2369 
L 1522 2369 
L 1522 2688 
L 1678 2688 
Q 2225 2688 2498 2914 
Q 2772 3141 2772 3597 
Q 2772 4006 2547 4223 
Q 2322 4441 1900 4441 
Q 1478 4441 1245 4241 
Q 1013 4041 972 3647 
L 622 3647 
L 622 4469 
z
" transform="scale(0.015625)"/>
       </defs>
       <use xlink:href="#DejaVuSerif-2212" transform="translate(0 0.78125)"/>
       <use xlink:href="#DejaVuSerif-33" transform="translate(83.789062 0.78125)"/>
      </g>
     </g>
    </g>
    <g id="xtick_3">
     <g id="line2d_3">
      <g>
       <use xlink:href="#mfbd7bf2a41" x="133.665455" y="242.2" style="fill: #030303; stroke: #030303; stroke-width: 0.8"/>
      </g>
     </g>
     <g id="text_3">
      <!-- $\mathdefault{−2}$ -->
      <g style="fill: #030303" transform="translate(124.045455 259.077969) scale(0.13 -0.13)">
       <defs>
        <path id="DejaVuSerif-32" d="M 819 3553 
L 469 3553 
L 469 4384 
Q 803 4563 1142 4656 
Q 1481 4750 1806 4750 
Q 2534 4750 2956 4397 
Q 3378 4044 3378 3438 
Q 3378 2753 2422 1800 
Q 2347 1728 2309 1691 
L 1131 513 
L 3078 513 
L 3078 1088 
L 3444 1088 
L 3444 0 
L 434 0 
L 434 341 
L 1850 1753 
Q 2319 2222 2519 2614 
Q 2719 3006 2719 3438 
Q 2719 3909 2473 4175 
Q 2228 4441 1797 4441 
Q 1350 4441 1106 4219 
Q 863 3997 819 3553 
z
" transform="scale(0.015625)"/>
       </defs>
       <use xlink:href="#DejaVuSerif-2212" transform="translate(0 0.78125)"/>
       <use xlink:href="#DejaVuSerif-32" transform="translate(83.789062 0.78125)"/>
      </g>
     </g>
    </g>
    <g id="xtick_4">
     <g id="line2d_4">
      <g>
       <use xlink:href="#mfbd7bf2a41" x="178.592727" y="242.2" style="fill: #030303; stroke: #030303; stroke-width: 0.8"/>
      </g>
     </g>
     <g id="text_4">
      <!-- $\mathdefault{−1}$ -->
      <g style="fill: #030303" transform="translate(168.972727 259.077969) scale(0.13 -0.13)">
       <defs>
        <path id="DejaVuSerif-31" d="M 909 0 
L 909 331 
L 1722 331 
L 1722 4213 
L 781 3603 
L 781 4013 
L 1919 4750 
L 2350 4750 
L 2350 331 
L 3163 331 
L 3163 0 
L 909 0 
z
" transform="scale(0.015625)"/>
       </defs>
       <use xlink:href="#DejaVuSerif-2212" transform="translate(0 0.78125)"/>
       <use xlink:href="#DejaVuSerif-31" transform="translate(83.789062 0.78125)"/>
      </g>
     </g>
    </g>
    <g id="xtick_5">
     <g id="line2d_5">
      <g>
       <use xlink:href="#mfbd7bf2a41" x="223.52" y="242.2" style="fill: #030303; stroke: #030303; stroke-width: 0.8"/>
      </g>
     </g>
     <g id="text_5">
      <!-- $\mathdefault{0}$ -->
      <g style="fill: #030303" transform="translate(219.36 259.077969) scale(0.13 -0.13)">
       <defs>
        <path id="DejaVuSerif-30" d="M 2034 219 
Q 2513 219 2750 744 
Q 2988 1269 2988 2328 
Q 2988 3391 2750 3916 
Q 2513 4441 2034 4441 
Q 1556 4441 1318 3916 
Q 1081 3391 1081 2328 
Q 1081 1269 1318 744 
Q 1556 219 2034 219 
z
M 2034 -91 
Q 1275 -91 848 546 
Q 422 1184 422 2328 
Q 422 3475 848 4112 
Q 1275 4750 2034 4750 
Q 2797 4750 3222 4112 
Q 3647 3475 3647 2328 
Q 3647 1184 3222 546 
Q 2797 -91 2034 -91 
z
" transform="scale(0.015625)"/>
       </defs>
       <use xlink:href="#DejaVuSerif-30" transform="translate(0 0.78125)"/>
      </g>
     </g>
    </g>
    <g id="xtick_6">
     <g id="line2d_6">
      <g>
       <use xlink:href="#mfbd7bf2a41" x="268.447273" y="242.2" style="fill: #030303; stroke: #030303; stroke-width: 0.8"/>
      </g>
     </g>
     <g id="text_6">
      <!-- $\mathdefault{1}$ -->
      <g style="fill: #030303" transform="translate(264.287273 259.077969) scale(0.13 -0.13)">
       <use xlink:href="#DejaVuSerif-31" transform="translate(0 0.78125)"/>
      </g>
     </g>
    </g>
    <g id="xtick_7">
     <g id="line2d_7">
      <g>
       <use xlink:href="#mfbd7bf2a41" x="313.374545" y="242.2" style="fill: #030303; stroke: #030303; stroke-width: 0.8"/>
      </g>
     </g>
     <g id="text_7">
      <!-- $\mathdefault{2}$ -->
      <g style="fill: #030303" transform="translate(309.214545 259.077969) scale(0.13 -0.13)">
       <use xlink:href="#DejaVuSerif-32" transform="translate(0 0.78125)"/>
      </g>
     </g>
    </g>
    <g id="xtick_8">
     <g id="line2d_8">
      <g>
       <use xlink:href="#mfbd7bf2a41" x="358.301818" y="242.2" style="fill: #030303; stroke: #030303; stroke-width: 0.8"/>
      </g>
     </g>
     <g id="text_8">
      <!-- $\mathdefault{3}$ -->
      <g style="fill: #030303" transform="translate(354.141818 259.077969) scale(0.13 -0.13)">
       <use xlink:href="#DejaVuSerif-33" transform="translate(0 0.78125)"/>
      </g>
     </g>
    </g>
    <g id="xtick_9">
     <g id="line2d_9">
      <g>
       <use xlink:href="#mfbd7bf2a41" x="403.229091" y="242.2" style="fill: #030303; stroke: #030303; stroke-width: 0.8"/>
      </g>
     </g>
     <g id="text_9">
      <!-- $\mathdefault{4}$ -->
      <g style="fill: #030303" transform="translate(399.069091 259.077969) scale(0.13 -0.13)">
       <use xlink:href="#DejaVuSerif-34" transform="translate(0 0.78125)"/>
      </g>
     </g>
    </g>
    <g id="text_10">
     <!-- T-Statistic -->
     <g style="fill: #030303" transform="translate(193.064375 274.899688) scale(0.12 -0.12)">
      <defs>
       <path id="DejaVuSerif-54" d="M 1222 0 
L 1222 331 
L 1819 331 
L 1819 4294 
L 447 4294 
L 447 3566 
L 63 3566 
L 63 4666 
L 4206 4666 
L 4206 3566 
L 3822 3566 
L 3822 4294 
L 2450 4294 
L 2450 331 
L 3047 331 
L 3047 0 
L 1222 0 
z
" transform="scale(0.015625)"/>
       <path id="DejaVuSerif-2d" d="M 281 1959 
L 1881 1959 
L 1881 1472 
L 281 1472 
L 281 1959 
z
" transform="scale(0.015625)"/>
       <path id="DejaVuSerif-53" d="M 594 225 
L 594 1288 
L 953 1284 
Q 969 753 1261 498 
Q 1553 244 2150 244 
Q 2706 244 2998 464 
Q 3291 684 3291 1106 
Q 3291 1444 3114 1625 
Q 2938 1806 2369 1978 
L 1753 2163 
Q 1084 2366 811 2669 
Q 538 2972 538 3500 
Q 538 4094 959 4422 
Q 1381 4750 2144 4750 
Q 2469 4750 2856 4679 
Q 3244 4609 3681 4475 
L 3681 3481 
L 3328 3481 
Q 3275 3975 2998 4195 
Q 2722 4416 2156 4416 
Q 1663 4416 1405 4214 
Q 1147 4013 1147 3628 
Q 1147 3294 1340 3103 
Q 1534 2913 2163 2725 
L 2741 2553 
Q 3375 2363 3645 2067 
Q 3916 1772 3916 1275 
Q 3916 597 3481 253 
Q 3047 -91 2188 -91 
Q 1803 -91 1404 -12 
Q 1006 66 594 225 
z
" transform="scale(0.015625)"/>
       <path id="DejaVuSerif-74" d="M 691 2988 
L 184 2988 
L 184 3322 
L 691 3322 
L 691 4353 
L 1269 4353 
L 1269 3322 
L 2350 3322 
L 2350 2988 
L 1269 2988 
L 1269 878 
Q 1269 456 1350 337 
Q 1431 219 1650 219 
Q 1875 219 1978 351 
Q 2081 484 2088 781 
L 2522 781 
Q 2497 328 2275 118 
Q 2053 -91 1600 -91 
Q 1103 -91 897 129 
Q 691 350 691 878 
L 691 2988 
z
" transform="scale(0.015625)"/>
       <path id="DejaVuSerif-61" d="M 2547 1044 
L 2547 1747 
L 1806 1747 
Q 1378 1747 1168 1562 
Q 959 1378 959 997 
Q 959 650 1171 447 
Q 1384 244 1747 244 
Q 2106 244 2326 466 
Q 2547 688 2547 1044 
z
M 3122 2075 
L 3122 331 
L 3634 331 
L 3634 0 
L 2547 0 
L 2547 359 
Q 2356 128 2106 18 
Q 1856 -91 1522 -91 
Q 969 -91 644 203 
Q 319 497 319 997 
Q 319 1513 691 1797 
Q 1063 2081 1741 2081 
L 2547 2081 
L 2547 2309 
Q 2547 2688 2317 2895 
Q 2088 3103 1672 3103 
Q 1328 3103 1125 2947 
Q 922 2791 872 2484 
L 575 2484 
L 575 3156 
Q 875 3284 1158 3348 
Q 1441 3413 1709 3413 
Q 2400 3413 2761 3070 
Q 3122 2728 3122 2075 
z
" transform="scale(0.015625)"/>
       <path id="DejaVuSerif-69" d="M 622 4353 
Q 622 4497 726 4603 
Q 831 4709 978 4709 
Q 1122 4709 1226 4603 
Q 1331 4497 1331 4353 
Q 1331 4206 1228 4103 
Q 1125 4000 978 4000 
Q 831 4000 726 4103 
Q 622 4206 622 4353 
z
M 1356 331 
L 1900 331 
L 1900 0 
L 231 0 
L 231 331 
L 781 331 
L 781 2988 
L 231 2988 
L 231 3322 
L 1356 3322 
L 1356 331 
z
" transform="scale(0.015625)"/>
       <path id="DejaVuSerif-73" d="M 359 184 
L 359 959 
L 691 959 
Q 703 588 923 403 
Q 1144 219 1575 219 
Q 1963 219 2166 364 
Q 2369 509 2369 788 
Q 2369 1006 2220 1140 
Q 2072 1275 1594 1428 
L 1178 1569 
Q 750 1706 558 1912 
Q 366 2119 366 2438 
Q 366 2894 700 3153 
Q 1034 3413 1625 3413 
Q 1888 3413 2178 3344 
Q 2469 3275 2778 3144 
L 2778 2419 
L 2447 2419 
Q 2434 2741 2221 2922 
Q 2009 3103 1644 3103 
Q 1281 3103 1095 2975 
Q 909 2847 909 2591 
Q 909 2381 1050 2254 
Q 1191 2128 1613 1997 
L 2069 1856 
Q 2541 1709 2748 1489 
Q 2956 1269 2956 922 
Q 2956 450 2595 179 
Q 2234 -91 1600 -91 
Q 1278 -91 972 -22 
Q 666 47 359 184 
z
" transform="scale(0.015625)"/>
       <path id="DejaVuSerif-63" d="M 3291 997 
Q 3169 466 2822 187 
Q 2475 -91 1925 -91 
Q 1200 -91 759 389 
Q 319 869 319 1663 
Q 319 2459 759 2936 
Q 1200 3413 1925 3413 
Q 2241 3413 2553 3339 
Q 2866 3266 3181 3116 
L 3181 2266 
L 2847 2266 
Q 2781 2703 2561 2903 
Q 2341 3103 1931 3103 
Q 1466 3103 1228 2742 
Q 991 2381 991 1663 
Q 991 944 1227 581 
Q 1463 219 1931 219 
Q 2303 219 2525 412 
Q 2747 606 2828 997 
L 3291 997 
z
" transform="scale(0.015625)"/>
      </defs>
      <use xlink:href="#DejaVuSerif-54"/>
      <use xlink:href="#DejaVuSerif-2d" x="53.824219"/>
      <use xlink:href="#DejaVuSerif-53" x="87.613281"/>
      <use xlink:href="#DejaVuSerif-74" x="156.119141"/>
      <use xlink:href="#DejaVuSerif-61" x="196.304688"/>
      <use xlink:href="#DejaVuSerif-74" x="255.923828"/>
      <use xlink:href="#DejaVuSerif-69" x="296.109375"/>
      <use xlink:href="#DejaVuSerif-73" x="328.091797"/>
      <use xlink:href="#DejaVuSerif-74" x="379.410156"/>
      <use xlink:href="#DejaVuSerif-69" x="419.595703"/>
      <use xlink:href="#DejaVuSerif-63" x="451.578125"/>
     </g>
    </g>
   </g>
   <g id="matplotlib.axis_2">
    <g id="text_11">
     <!-- Density -->
     <g style="fill: #030303" transform="translate(19.17375 157.805) rotate(-90) scale(0.12 -0.12)">
      <defs>
       <path id="DejaVuSerif-44" d="M 1581 331 
L 2163 331 
Q 3072 331 3558 850 
Q 4044 1369 4044 2338 
Q 4044 3306 3559 3818 
Q 3075 4331 2163 4331 
L 1581 4331 
L 1581 331 
z
M 353 0 
L 353 331 
L 947 331 
L 947 4331 
L 353 4331 
L 353 4666 
L 2209 4666 
Q 3416 4666 4089 4050 
Q 4763 3434 4763 2338 
Q 4763 1238 4088 619 
Q 3413 0 2209 0 
L 353 0 
z
" transform="scale(0.015625)"/>
       <path id="DejaVuSerif-65" d="M 3469 1600 
L 991 1600 
L 991 1575 
Q 991 903 1244 561 
Q 1497 219 1991 219 
Q 2369 219 2611 417 
Q 2853 616 2950 1006 
L 3413 1006 
Q 3275 459 2904 184 
Q 2534 -91 1931 -91 
Q 1203 -91 761 389 
Q 319 869 319 1663 
Q 319 2450 753 2931 
Q 1188 3413 1894 3413 
Q 2647 3413 3050 2948 
Q 3453 2484 3469 1600 
z
M 2791 1931 
Q 2772 2513 2545 2808 
Q 2319 3103 1894 3103 
Q 1497 3103 1269 2806 
Q 1041 2509 991 1931 
L 2791 1931 
z
" transform="scale(0.015625)"/>
       <path id="DejaVuSerif-6e" d="M 263 0 
L 263 331 
L 781 331 
L 781 2988 
L 231 2988 
L 231 3322 
L 1356 3322 
L 1356 2731 
Q 1516 3069 1770 3241 
Q 2025 3413 2363 3413 
Q 2913 3413 3172 3097 
Q 3431 2781 3431 2113 
L 3431 331 
L 3944 331 
L 3944 0 
L 2356 0 
L 2356 331 
L 2853 331 
L 2853 1931 
Q 2853 2541 2703 2767 
Q 2553 2994 2175 2994 
Q 1775 2994 1565 2701 
Q 1356 2409 1356 1850 
L 1356 331 
L 1856 331 
L 1856 0 
L 263 0 
z
" transform="scale(0.015625)"/>
       <path id="DejaVuSerif-79" d="M 1381 -609 
L 1600 -56 
L 359 2988 
L -19 2988 
L -19 3322 
L 1509 3322 
L 1509 2988 
L 978 2988 
L 1913 703 
L 2847 2988 
L 2350 2988 
L 2350 3322 
L 3597 3322 
L 3597 2988 
L 3225 2988 
L 1703 -750 
Q 1547 -1138 1356 -1280 
Q 1166 -1422 819 -1422 
Q 672 -1422 517 -1397 
Q 363 -1372 206 -1325 
L 206 -691 
L 500 -691 
Q 519 -903 608 -995 
Q 697 -1088 884 -1088 
Q 1056 -1088 1161 -992 
Q 1266 -897 1381 -609 
z
" transform="scale(0.015625)"/>
      </defs>
      <use xlink:href="#DejaVuSerif-44"/>
      <use xlink:href="#DejaVuSerif-65" x="80.175781"/>
      <use xlink:href="#DejaVuSerif-6e" x="139.355469"/>
      <use xlink:href="#DejaVuSerif-73" x="203.759766"/>
      <use xlink:href="#DejaVuSerif-69" x="255.078125"/>
      <use xlink:href="#DejaVuSerif-74" x="287.060547"/>
      <use xlink:href="#DejaVuSerif-79" x="327.246094"/>
     </g>
    </g>
   </g>
   <g id="line2d_10">
    <path d="M 43.810909 240.96276 
L 54.615063 240.376517 
L 63.258386 239.703048 
L 71.181432 238.860664 
L 77.663924 237.958079 
L 83.42614 236.94914 
L 88.468078 235.869475 
L 93.510016 234.567725 
L 97.831678 233.242642 
L 102.153339 231.69155 
L 106.475001 229.879193 
L 110.076385 228.141005 
L 113.67777 226.169049 
L 117.279155 223.936336 
L 120.880539 221.414068 
L 124.481924 218.571895 
L 127.363032 216.04667 
L 130.244139 213.280086 
L 133.125247 210.255648 
L 136.006355 206.957104 
L 138.887462 203.368787 
L 141.76857 199.476003 
L 144.649678 195.265491 
L 147.530785 190.725938 
L 151.13217 184.575683 
L 154.733554 177.887727 
L 158.334939 170.661737 
L 161.936324 162.909247 
L 165.537708 154.655778 
L 169.85937 144.149974 
L 174.901308 131.201113 
L 181.3838 113.832617 
L 191.467677 86.787942 
L 195.789339 75.891971 
L 199.390723 67.441634 
L 202.271831 61.21888 
L 205.152939 55.567831 
L 207.313769 51.754166 
L 209.4746 48.340276 
L 211.635431 45.355495 
L 213.796262 42.825972 
L 215.236815 41.403829 
L 216.677369 40.199812 
L 218.117923 39.218783 
L 219.558477 38.464725 
L 220.999031 37.940715 
L 222.439585 37.648899 
L 223.880138 37.590476 
L 225.320692 37.765685 
L 226.761246 38.173808 
L 228.2018 38.813169 
L 229.642354 39.681154 
L 231.082908 40.774231 
L 232.523461 42.087971 
L 234.684292 44.460545 
L 236.845123 47.296309 
L 239.005954 50.570274 
L 241.166784 54.254117 
L 243.327615 58.316643 
L 246.208723 64.264116 
L 249.089831 70.740489 
L 252.691215 79.445428 
L 257.012877 90.554875 
L 263.495369 107.966257 
L 272.858969 133.088994 
L 277.900907 145.942823 
L 282.222569 156.344803 
L 285.823953 164.500858 
L 289.425338 172.149612 
L 293.026723 179.268508 
L 296.628107 185.848555 
L 300.229492 191.892204 
L 303.830876 197.411222 
L 306.711984 201.461322 
L 309.593092 205.200114 
L 312.474199 208.641636 
L 315.355307 211.801124 
L 318.236415 214.694581 
L 321.837799 217.962313 
L 325.439184 220.87222 
L 329.040568 223.455997 
L 332.641953 225.744264 
L 336.243338 227.766152 
L 339.844722 229.549026 
L 344.166384 231.408646 
L 348.488045 233.000723 
L 352.809707 234.361199 
L 357.851645 235.698043 
L 362.893584 236.807039 
L 368.655799 237.843546 
L 375.138291 238.770891 
L 382.34106 239.567958 
L 390.984383 240.278886 
L 401.06826 240.863619 
L 403.229091 240.96276 
L 403.229091 240.96276 
" clip-path="url(#p3a32740df4)" style="fill: none; stroke: #0000ff; stroke-width: 2; stroke-linecap: square"/>
   </g>
   <g id="line2d_11">
    <path d="M 121.887448 242.2 
L 121.887448 27.36 
" clip-path="url(#p3a32740df4)" style="fill: none; stroke-dasharray: 5.55,2.4; stroke-dashoffset: 0; stroke: #ff0000; stroke-width: 1.5"/>
   </g>
   <g id="line2d_12">
    <path d="M 325.152552 242.2 
L 325.152552 27.36 
" clip-path="url(#p3a32740df4)" style="fill: none; stroke-dasharray: 5.55,2.4; stroke-dashoffset: 0; stroke: #ff0000; stroke-width: 1.5"/>
   </g>
   <g id="patch_3">
    <path d="M 25.84 242.2 
L 25.84 27.36 
" style="fill: none; stroke: #030303; stroke-width: 1.5; stroke-linejoin: miter; stroke-linecap: square"/>
   </g>
   <g id="patch_4">
    <path d="M 25.84 242.2 
L 421.2 242.2 
" style="fill: none; stroke: #030303; stroke-width: 1.5; stroke-linejoin: miter; stroke-linecap: square"/>
   </g>
   <g id="text_12">
    <!-- T-Distribution with Critical Region -->
    <g style="fill: #030303" transform="translate(101.373281 21.36) scale(0.14 -0.14)">
     <defs>
      <path id="DejaVuSerif-72" d="M 3059 3328 
L 3059 2497 
L 2728 2497 
Q 2713 2744 2591 2866 
Q 2469 2988 2234 2988 
Q 1809 2988 1582 2694 
Q 1356 2400 1356 1850 
L 1356 331 
L 2022 331 
L 2022 0 
L 263 0 
L 263 331 
L 781 331 
L 781 2994 
L 231 2994 
L 231 3322 
L 1356 3322 
L 1356 2731 
Q 1525 3078 1790 3245 
Q 2056 3413 2438 3413 
Q 2578 3413 2733 3391 
Q 2888 3369 3059 3328 
z
" transform="scale(0.015625)"/>
      <path id="DejaVuSerif-62" d="M 738 331 
L 738 4531 
L 184 4531 
L 184 4863 
L 1313 4863 
L 1313 2803 
Q 1481 3116 1742 3264 
Q 2003 3413 2388 3413 
Q 3000 3413 3387 2928 
Q 3775 2444 3775 1663 
Q 3775 881 3387 395 
Q 3000 -91 2388 -91 
Q 2003 -91 1742 57 
Q 1481 206 1313 519 
L 1313 0 
L 184 0 
L 184 331 
L 738 331 
z
M 1313 1497 
Q 1313 897 1542 583 
Q 1772 269 2209 269 
Q 2650 269 2876 622 
Q 3103 975 3103 1663 
Q 3103 2353 2876 2703 
Q 2650 3053 2209 3053 
Q 1772 3053 1542 2737 
Q 1313 2422 1313 1825 
L 1313 1497 
z
" transform="scale(0.015625)"/>
      <path id="DejaVuSerif-75" d="M 2266 3322 
L 3341 3322 
L 3341 331 
L 3884 331 
L 3884 0 
L 2766 0 
L 2766 588 
Q 2606 256 2353 82 
Q 2100 -91 1766 -91 
Q 1213 -91 952 223 
Q 691 538 691 1209 
L 691 2988 
L 172 2988 
L 172 3322 
L 1269 3322 
L 1269 1388 
Q 1269 781 1417 556 
Q 1566 331 1947 331 
Q 2347 331 2556 625 
Q 2766 919 2766 1478 
L 2766 2988 
L 2266 2988 
L 2266 3322 
z
" transform="scale(0.015625)"/>
      <path id="DejaVuSerif-6f" d="M 1925 219 
Q 2388 219 2623 584 
Q 2859 950 2859 1663 
Q 2859 2375 2623 2739 
Q 2388 3103 1925 3103 
Q 1463 3103 1227 2739 
Q 991 2375 991 1663 
Q 991 950 1228 584 
Q 1466 219 1925 219 
z
M 1925 -91 
Q 1200 -91 759 389 
Q 319 869 319 1663 
Q 319 2456 758 2934 
Q 1197 3413 1925 3413 
Q 2653 3413 3092 2934 
Q 3531 2456 3531 1663 
Q 3531 869 3092 389 
Q 2653 -91 1925 -91 
z
" transform="scale(0.015625)"/>
      <path id="DejaVuSerif-20" transform="scale(0.015625)"/>
      <path id="DejaVuSerif-77" d="M 3072 3322 
L 3922 728 
L 4672 2988 
L 4191 2988 
L 4191 3322 
L 5394 3322 
L 5394 2988 
L 5025 2988 
L 4038 0 
L 3559 0 
L 2741 2484 
L 1919 0 
L 1459 0 
L 475 2988 
L 103 2988 
L 103 3322 
L 1606 3322 
L 1606 2988 
L 1069 2988 
L 1813 728 
L 2669 3322 
L 3072 3322 
z
" transform="scale(0.015625)"/>
      <path id="DejaVuSerif-68" d="M 263 0 
L 263 331 
L 781 331 
L 781 4531 
L 231 4531 
L 231 4863 
L 1356 4863 
L 1356 2731 
Q 1516 3069 1770 3241 
Q 2025 3413 2363 3413 
Q 2913 3413 3172 3097 
Q 3431 2781 3431 2113 
L 3431 331 
L 3944 331 
L 3944 0 
L 2356 0 
L 2356 331 
L 2853 331 
L 2853 1931 
Q 2853 2541 2704 2764 
Q 2556 2988 2175 2988 
Q 1775 2988 1565 2697 
Q 1356 2406 1356 1850 
L 1356 331 
L 1856 331 
L 1856 0 
L 263 0 
z
" transform="scale(0.015625)"/>
      <path id="DejaVuSerif-43" d="M 4513 1234 
Q 4306 581 3820 245 
Q 3334 -91 2591 -91 
Q 2134 -91 1743 65 
Q 1353 222 1050 525 
Q 700 875 529 1320 
Q 359 1766 359 2328 
Q 359 3416 987 4083 
Q 1616 4750 2644 4750 
Q 3025 4750 3456 4650 
Q 3888 4550 4384 4347 
L 4384 3272 
L 4031 3272 
Q 3916 3859 3567 4137 
Q 3219 4416 2591 4416 
Q 1844 4416 1459 3886 
Q 1075 3356 1075 2328 
Q 1075 1303 1459 773 
Q 1844 244 2591 244 
Q 3113 244 3450 492 
Q 3788 741 3938 1234 
L 4513 1234 
z
" transform="scale(0.015625)"/>
      <path id="DejaVuSerif-6c" d="M 1313 331 
L 1856 331 
L 1856 0 
L 184 0 
L 184 331 
L 738 331 
L 738 4531 
L 184 4531 
L 184 4863 
L 1313 4863 
L 1313 331 
z
" transform="scale(0.015625)"/>
      <path id="DejaVuSerif-52" d="M 3066 2316 
Q 3284 2256 3442 2114 
Q 3600 1972 3725 1716 
L 4403 331 
L 4972 331 
L 4972 0 
L 3872 0 
L 3144 1484 
Q 2934 1916 2759 2042 
Q 2584 2169 2278 2169 
L 1581 2169 
L 1581 331 
L 2241 331 
L 2241 0 
L 353 0 
L 353 331 
L 947 331 
L 947 4331 
L 353 4331 
L 353 4666 
L 2719 4666 
Q 3400 4666 3770 4341 
Q 4141 4016 4141 3419 
Q 4141 2938 3870 2661 
Q 3600 2384 3066 2316 
z
M 1581 2503 
L 2503 2503 
Q 2975 2503 3200 2726 
Q 3425 2950 3425 3419 
Q 3425 3888 3200 4109 
Q 2975 4331 2503 4331 
L 1581 4331 
L 1581 2503 
z
" transform="scale(0.015625)"/>
      <path id="DejaVuSerif-67" d="M 3359 2988 
L 3359 72 
Q 3359 -644 2965 -1033 
Q 2572 -1422 1844 -1422 
Q 1516 -1422 1216 -1362 
Q 916 -1303 641 -1184 
L 641 -488 
L 941 -488 
Q 997 -813 1206 -963 
Q 1416 -1113 1806 -1113 
Q 2313 -1113 2548 -827 
Q 2784 -541 2784 72 
L 2784 519 
Q 2616 206 2355 57 
Q 2094 -91 1709 -91 
Q 1097 -91 708 395 
Q 319 881 319 1663 
Q 319 2444 706 2928 
Q 1094 3413 1709 3413 
Q 2094 3413 2355 3264 
Q 2616 3116 2784 2803 
L 2784 3322 
L 3909 3322 
L 3909 2988 
L 3359 2988 
z
M 2784 1825 
Q 2784 2422 2554 2737 
Q 2325 3053 1888 3053 
Q 1444 3053 1217 2703 
Q 991 2353 991 1663 
Q 991 975 1217 622 
Q 1444 269 1888 269 
Q 2325 269 2554 583 
Q 2784 897 2784 1497 
L 2784 1825 
z
" transform="scale(0.015625)"/>
     </defs>
     <use xlink:href="#DejaVuSerif-54"/>
     <use xlink:href="#DejaVuSerif-2d" x="53.824219"/>
     <use xlink:href="#DejaVuSerif-44" x="87.613281"/>
     <use xlink:href="#DejaVuSerif-69" x="167.789062"/>
     <use xlink:href="#DejaVuSerif-73" x="199.771484"/>
     <use xlink:href="#DejaVuSerif-74" x="251.089844"/>
     <use xlink:href="#DejaVuSerif-72" x="291.275391"/>
     <use xlink:href="#DejaVuSerif-69" x="339.078125"/>
     <use xlink:href="#DejaVuSerif-62" x="371.060547"/>
     <use xlink:href="#DejaVuSerif-75" x="435.074219"/>
     <use xlink:href="#DejaVuSerif-74" x="499.478516"/>
     <use xlink:href="#DejaVuSerif-69" x="539.664062"/>
     <use xlink:href="#DejaVuSerif-6f" x="571.646484"/>
     <use xlink:href="#DejaVuSerif-6e" x="631.851562"/>
     <use xlink:href="#DejaVuSerif-20" x="696.255859"/>
     <use xlink:href="#DejaVuSerif-77" x="728.042969"/>
     <use xlink:href="#DejaVuSerif-69" x="813.638672"/>
     <use xlink:href="#DejaVuSerif-74" x="845.621094"/>
     <use xlink:href="#DejaVuSerif-68" x="885.806641"/>
     <use xlink:href="#DejaVuSerif-20" x="950.210938"/>
     <use xlink:href="#DejaVuSerif-43" x="981.998047"/>
     <use xlink:href="#DejaVuSerif-72" x="1058.511719"/>
     <use xlink:href="#DejaVuSerif-69" x="1106.314453"/>
     <use xlink:href="#DejaVuSerif-74" x="1138.296875"/>
     <use xlink:href="#DejaVuSerif-69" x="1178.482422"/>
     <use xlink:href="#DejaVuSerif-63" x="1210.464844"/>
     <use xlink:href="#DejaVuSerif-61" x="1266.470703"/>
     <use xlink:href="#DejaVuSerif-6c" x="1326.089844"/>
     <use xlink:href="#DejaVuSerif-20" x="1358.072266"/>
     <use xlink:href="#DejaVuSerif-52" x="1389.859375"/>
     <use xlink:href="#DejaVuSerif-65" x="1465.152344"/>
     <use xlink:href="#DejaVuSerif-67" x="1524.332031"/>
     <use xlink:href="#DejaVuSerif-69" x="1588.345703"/>
     <use xlink:href="#DejaVuSerif-6f" x="1620.328125"/>
     <use xlink:href="#DejaVuSerif-6e" x="1680.533203"/>
    </g>
   </g>
  </g>
 </g>
 <defs>
  <clipPath id="p3a32740df4">
   <rect x="25.84" y="27.36" width="395.36" height="214.84"/>
  </clipPath>
 </defs>
</svg>
