<?xml version="1.0" encoding="utf-8" standalone="no"?>
<!DOCTYPE svg PUBLIC "-//W3C//DTD SVG 1.1//EN"
  "http://www.w3.org/Graphics/SVG/1.1/DTD/svg11.dtd">
<svg xmlns:xlink="http://www.w3.org/1999/xlink" width="568.735156pt" height="640.899688pt" viewBox="0 0 568.735156 640.899688" xmlns="http://www.w3.org/2000/svg" version="1.1">
 <metadata>
  <rdf:RDF xmlns:dc="http://purl.org/dc/elements/1.1/" xmlns:cc="http://creativecommons.org/ns#" xmlns:rdf="http://www.w3.org/1999/02/22-rdf-syntax-ns#">
   <cc:Work>
    <dc:type rdf:resource="http://purl.org/dc/dcmitype/StillImage"/>
    <dc:date>2025-03-03T09:18:21.788272</dc:date>
    <dc:format>image/svg+xml</dc:format>
    <dc:creator>
     <cc:Agent>
      <dc:title>Matplotlib v3.10.0, https://matplotlib.org/</dc:title>
     </cc:Agent>
    </dc:creator>
   </cc:Work>
  </rdf:RDF>
 </metadata>
 <defs>
  <style type="text/css">*{stroke-linejoin: round; stroke-linecap: butt}</style>
 </defs>
 <g id="figure_1">
  <g id="patch_1">
   <path d="M 0 640.899688 
L 568.735156 640.899688 
L 568.735156 0 
L 0 0 
L 0 640.899688 
z
" style="fill: none; opacity: 0"/>
  </g>
  <g id="axes_1">
   <g id="patch_2">
    <path d="M 51.51 295.518125 
L 561.535156 295.518125 
L 561.535156 22.318125 
L 51.51 22.318125 
L 51.51 295.518125 
z
" style="fill: none"/>
   </g>
   <g id="matplotlib.axis_1">
    <g id="xtick_1">
     <g id="line2d_1">
      <path d="M 74.692962 295.518125 
L 74.692962 22.318125 
" clip-path="url(#p5e624928ad)" style="fill: none; stroke: #ffffff; stroke-opacity: 0.2; stroke-width: 0.8; stroke-linecap: square"/>
     </g>
     <g id="line2d_2">
      <defs>
       <path id="m0af85ef8f7" d="M 0 0 
L 0 3.5 
" style="stroke: #ffffff; stroke-width: 0.8"/>
      </defs>
      <g>
       <use xlink:href="#m0af85ef8f7" x="74.692962" y="295.518125" style="fill: #ffffff; stroke: #ffffff; stroke-width: 0.8"/>
      </g>
     </g>
     <g id="text_1">
      <!-- $\mathdefault{−4}$ -->
      <g style="fill: #ffffff" transform="translate(65.072962 312.396094) scale(0.13 -0.13)">
       <defs>
        <path id="DejaVuSerif-2212" d="M 678 2259 
L 4684 2259 
L 4684 1753 
L 678 1753 
L 678 2259 
z
" transform="scale(0.015625)"/>
        <path id="DejaVuSerif-34" d="M 2234 1581 
L 2234 4063 
L 641 1581 
L 2234 1581 
z
M 3609 0 
L 1484 0 
L 1484 331 
L 2234 331 
L 2234 1247 
L 197 1247 
L 197 1588 
L 2241 4750 
L 2859 4750 
L 2859 1581 
L 3750 1581 
L 3750 1247 
L 2859 1247 
L 2859 331 
L 3609 331 
L 3609 0 
z
" transform="scale(0.015625)"/>
       </defs>
       <use xlink:href="#DejaVuSerif-2212" transform="translate(0 0.78125)"/>
       <use xlink:href="#DejaVuSerif-34" transform="translate(83.789062 0.78125)"/>
      </g>
     </g>
    </g>
    <g id="xtick_2">
     <g id="line2d_3">
      <path d="M 132.650366 295.518125 
L 132.650366 22.318125 
" clip-path="url(#p5e624928ad)" style="fill: none; stroke: #ffffff; stroke-opacity: 0.2; stroke-width: 0.8; stroke-linecap: square"/>
     </g>
     <g id="line2d_4">
      <g>
       <use xlink:href="#m0af85ef8f7" x="132.650366" y="295.518125" style="fill: #ffffff; stroke: #ffffff; stroke-width: 0.8"/>
      </g>
     </g>
     <g id="text_2">
      <!-- $\mathdefault{−3}$ -->
      <g style="fill: #ffffff" transform="translate(123.030366 312.396094) scale(0.13 -0.13)">
       <defs>
        <path id="DejaVuSerif-33" d="M 622 4469 
Q 988 4606 1323 4678 
Q 1659 4750 1953 4750 
Q 2638 4750 3022 4454 
Q 3406 4159 3406 3634 
Q 3406 3213 3140 2930 
Q 2875 2647 2388 2547 
Q 2963 2466 3280 2130 
Q 3597 1794 3597 1259 
Q 3597 606 3158 257 
Q 2719 -91 1894 -91 
Q 1528 -91 1179 -12 
Q 831 66 488 225 
L 488 1131 
L 838 1131 
Q 869 681 1141 450 
Q 1413 219 1906 219 
Q 2384 219 2661 495 
Q 2938 772 2938 1253 
Q 2938 1803 2653 2086 
Q 2369 2369 1819 2369 
L 1522 2369 
L 1522 2688 
L 1678 2688 
Q 2225 2688 2498 2914 
Q 2772 3141 2772 3597 
Q 2772 4006 2547 4223 
Q 2322 4441 1900 4441 
Q 1478 4441 1245 4241 
Q 1013 4041 972 3647 
L 622 3647 
L 622 4469 
z
" transform="scale(0.015625)"/>
       </defs>
       <use xlink:href="#DejaVuSerif-2212" transform="translate(0 0.78125)"/>
       <use xlink:href="#DejaVuSerif-33" transform="translate(83.789062 0.78125)"/>
      </g>
     </g>
    </g>
    <g id="xtick_3">
     <g id="line2d_5">
      <path d="M 190.60777 295.518125 
L 190.60777 22.318125 
" clip-path="url(#p5e624928ad)" style="fill: none; stroke: #ffffff; stroke-opacity: 0.2; stroke-width: 0.8; stroke-linecap: square"/>
     </g>
     <g id="line2d_6">
      <g>
       <use xlink:href="#m0af85ef8f7" x="190.60777" y="295.518125" style="fill: #ffffff; stroke: #ffffff; stroke-width: 0.8"/>
      </g>
     </g>
     <g id="text_3">
      <!-- $\mathdefault{−2}$ -->
      <g style="fill: #ffffff" transform="translate(180.98777 312.396094) scale(0.13 -0.13)">
       <defs>
        <path id="DejaVuSerif-32" d="M 819 3553 
L 469 3553 
L 469 4384 
Q 803 4563 1142 4656 
Q 1481 4750 1806 4750 
Q 2534 4750 2956 4397 
Q 3378 4044 3378 3438 
Q 3378 2753 2422 1800 
Q 2347 1728 2309 1691 
L 1131 513 
L 3078 513 
L 3078 1088 
L 3444 1088 
L 3444 0 
L 434 0 
L 434 341 
L 1850 1753 
Q 2319 2222 2519 2614 
Q 2719 3006 2719 3438 
Q 2719 3909 2473 4175 
Q 2228 4441 1797 4441 
Q 1350 4441 1106 4219 
Q 863 3997 819 3553 
z
" transform="scale(0.015625)"/>
       </defs>
       <use xlink:href="#DejaVuSerif-2212" transform="translate(0 0.78125)"/>
       <use xlink:href="#DejaVuSerif-32" transform="translate(83.789062 0.78125)"/>
      </g>
     </g>
    </g>
    <g id="xtick_4">
     <g id="line2d_7">
      <path d="M 248.565174 295.518125 
L 248.565174 22.318125 
" clip-path="url(#p5e624928ad)" style="fill: none; stroke: #ffffff; stroke-opacity: 0.2; stroke-width: 0.8; stroke-linecap: square"/>
     </g>
     <g id="line2d_8">
      <g>
       <use xlink:href="#m0af85ef8f7" x="248.565174" y="295.518125" style="fill: #ffffff; stroke: #ffffff; stroke-width: 0.8"/>
      </g>
     </g>
     <g id="text_4">
      <!-- $\mathdefault{−1}$ -->
      <g style="fill: #ffffff" transform="translate(238.945174 312.396094) scale(0.13 -0.13)">
       <defs>
        <path id="DejaVuSerif-31" d="M 909 0 
L 909 331 
L 1722 331 
L 1722 4213 
L 781 3603 
L 781 4013 
L 1919 4750 
L 2350 4750 
L 2350 331 
L 3163 331 
L 3163 0 
L 909 0 
z
" transform="scale(0.015625)"/>
       </defs>
       <use xlink:href="#DejaVuSerif-2212" transform="translate(0 0.78125)"/>
       <use xlink:href="#DejaVuSerif-31" transform="translate(83.789062 0.78125)"/>
      </g>
     </g>
    </g>
    <g id="xtick_5">
     <g id="line2d_9">
      <path d="M 306.522578 295.518125 
L 306.522578 22.318125 
" clip-path="url(#p5e624928ad)" style="fill: none; stroke: #ffffff; stroke-opacity: 0.2; stroke-width: 0.8; stroke-linecap: square"/>
     </g>
     <g id="line2d_10">
      <g>
       <use xlink:href="#m0af85ef8f7" x="306.522578" y="295.518125" style="fill: #ffffff; stroke: #ffffff; stroke-width: 0.8"/>
      </g>
     </g>
     <g id="text_5">
      <!-- $\mathdefault{0}$ -->
      <g style="fill: #ffffff" transform="translate(302.362578 312.396094) scale(0.13 -0.13)">
       <defs>
        <path id="DejaVuSerif-30" d="M 2034 219 
Q 2513 219 2750 744 
Q 2988 1269 2988 2328 
Q 2988 3391 2750 3916 
Q 2513 4441 2034 4441 
Q 1556 4441 1318 3916 
Q 1081 3391 1081 2328 
Q 1081 1269 1318 744 
Q 1556 219 2034 219 
z
M 2034 -91 
Q 1275 -91 848 546 
Q 422 1184 422 2328 
Q 422 3475 848 4112 
Q 1275 4750 2034 4750 
Q 2797 4750 3222 4112 
Q 3647 3475 3647 2328 
Q 3647 1184 3222 546 
Q 2797 -91 2034 -91 
z
" transform="scale(0.015625)"/>
       </defs>
       <use xlink:href="#DejaVuSerif-30" transform="translate(0 0.78125)"/>
      </g>
     </g>
    </g>
    <g id="xtick_6">
     <g id="line2d_11">
      <path d="M 364.479982 295.518125 
L 364.479982 22.318125 
" clip-path="url(#p5e624928ad)" style="fill: none; stroke: #ffffff; stroke-opacity: 0.2; stroke-width: 0.8; stroke-linecap: square"/>
     </g>
     <g id="line2d_12">
      <g>
       <use xlink:href="#m0af85ef8f7" x="364.479982" y="295.518125" style="fill: #ffffff; stroke: #ffffff; stroke-width: 0.8"/>
      </g>
     </g>
     <g id="text_6">
      <!-- $\mathdefault{1}$ -->
      <g style="fill: #ffffff" transform="translate(360.319982 312.396094) scale(0.13 -0.13)">
       <use xlink:href="#DejaVuSerif-31" transform="translate(0 0.78125)"/>
      </g>
     </g>
    </g>
    <g id="xtick_7">
     <g id="line2d_13">
      <path d="M 422.437386 295.518125 
L 422.437386 22.318125 
" clip-path="url(#p5e624928ad)" style="fill: none; stroke: #ffffff; stroke-opacity: 0.2; stroke-width: 0.8; stroke-linecap: square"/>
     </g>
     <g id="line2d_14">
      <g>
       <use xlink:href="#m0af85ef8f7" x="422.437386" y="295.518125" style="fill: #ffffff; stroke: #ffffff; stroke-width: 0.8"/>
      </g>
     </g>
     <g id="text_7">
      <!-- $\mathdefault{2}$ -->
      <g style="fill: #ffffff" transform="translate(418.277386 312.396094) scale(0.13 -0.13)">
       <use xlink:href="#DejaVuSerif-32" transform="translate(0 0.78125)"/>
      </g>
     </g>
    </g>
    <g id="xtick_8">
     <g id="line2d_15">
      <path d="M 480.39479 295.518125 
L 480.39479 22.318125 
" clip-path="url(#p5e624928ad)" style="fill: none; stroke: #ffffff; stroke-opacity: 0.2; stroke-width: 0.8; stroke-linecap: square"/>
     </g>
     <g id="line2d_16">
      <g>
       <use xlink:href="#m0af85ef8f7" x="480.39479" y="295.518125" style="fill: #ffffff; stroke: #ffffff; stroke-width: 0.8"/>
      </g>
     </g>
     <g id="text_8">
      <!-- $\mathdefault{3}$ -->
      <g style="fill: #ffffff" transform="translate(476.23479 312.396094) scale(0.13 -0.13)">
       <use xlink:href="#DejaVuSerif-33" transform="translate(0 0.78125)"/>
      </g>
     </g>
    </g>
    <g id="xtick_9">
     <g id="line2d_17">
      <path d="M 538.352195 295.518125 
L 538.352195 22.318125 
" clip-path="url(#p5e624928ad)" style="fill: none; stroke: #ffffff; stroke-opacity: 0.2; stroke-width: 0.8; stroke-linecap: square"/>
     </g>
     <g id="line2d_18">
      <g>
       <use xlink:href="#m0af85ef8f7" x="538.352195" y="295.518125" style="fill: #ffffff; stroke: #ffffff; stroke-width: 0.8"/>
      </g>
     </g>
     <g id="text_9">
      <!-- $\mathdefault{4}$ -->
      <g style="fill: #ffffff" transform="translate(534.192195 312.396094) scale(0.13 -0.13)">
       <use xlink:href="#DejaVuSerif-34" transform="translate(0 0.78125)"/>
      </g>
     </g>
    </g>
   </g>
   <g id="matplotlib.axis_2">
    <g id="ytick_1">
     <g id="line2d_19">
      <path d="M 51.51 289.450219 
L 561.535156 289.450219 
" clip-path="url(#p5e624928ad)" style="fill: none; stroke: #ffffff; stroke-opacity: 0.2; stroke-width: 0.8; stroke-linecap: square"/>
     </g>
     <g id="line2d_20">
      <defs>
       <path id="me321e2d6c1" d="M 0 0 
L -3.5 0 
" style="stroke: #ffffff; stroke-width: 0.8"/>
      </defs>
      <g>
       <use xlink:href="#me321e2d6c1" x="51.51" y="289.450219" style="fill: #ffffff; stroke: #ffffff; stroke-width: 0.8"/>
      </g>
     </g>
     <g id="text_10">
      <!-- $\mathdefault{0.00}$ -->
      <g style="fill: #ffffff" transform="translate(15.52 294.389204) scale(0.13 -0.13)">
       <defs>
        <path id="DejaVuSerif-2e" d="M 603 325 
Q 603 500 722 622 
Q 841 744 1019 744 
Q 1191 744 1312 622 
Q 1434 500 1434 325 
Q 1434 153 1312 31 
Q 1191 -91 1019 -91 
Q 841 -91 722 29 
Q 603 150 603 325 
z
" transform="scale(0.015625)"/>
       </defs>
       <use xlink:href="#DejaVuSerif-30" transform="translate(0 0.78125)"/>
       <use xlink:href="#DejaVuSerif-2e" transform="translate(63.623047 0.78125)"/>
       <use xlink:href="#DejaVuSerif-30" transform="translate(95.410156 0.78125)"/>
       <use xlink:href="#DejaVuSerif-30" transform="translate(159.033203 0.78125)"/>
      </g>
     </g>
    </g>
    <g id="ytick_2">
     <g id="line2d_21">
      <path d="M 51.51 254.799854 
L 561.535156 254.799854 
" clip-path="url(#p5e624928ad)" style="fill: none; stroke: #ffffff; stroke-opacity: 0.2; stroke-width: 0.8; stroke-linecap: square"/>
     </g>
     <g id="line2d_22">
      <g>
       <use xlink:href="#me321e2d6c1" x="51.51" y="254.799854" style="fill: #ffffff; stroke: #ffffff; stroke-width: 0.8"/>
      </g>
     </g>
     <g id="text_11">
      <!-- $\mathdefault{0.05}$ -->
      <g style="fill: #ffffff" transform="translate(15.52 259.738838) scale(0.13 -0.13)">
       <defs>
        <path id="DejaVuSerif-35" d="M 3219 4666 
L 3219 4153 
L 1081 4153 
L 1081 2816 
Q 1244 2928 1461 2984 
Q 1678 3041 1947 3041 
Q 2703 3041 3140 2622 
Q 3578 2203 3578 1478 
Q 3578 738 3136 323 
Q 2694 -91 1894 -91 
Q 1572 -91 1234 -12 
Q 897 66 544 225 
L 544 1131 
L 897 1131 
Q 925 688 1179 453 
Q 1434 219 1894 219 
Q 2388 219 2653 544 
Q 2919 869 2919 1478 
Q 2919 2084 2655 2407 
Q 2391 2731 1894 2731 
Q 1613 2731 1398 2631 
Q 1184 2531 1019 2322 
L 750 2322 
L 750 4666 
L 3219 4666 
z
" transform="scale(0.015625)"/>
       </defs>
       <use xlink:href="#DejaVuSerif-30" transform="translate(0 0.78125)"/>
       <use xlink:href="#DejaVuSerif-2e" transform="translate(63.623047 0.78125)"/>
       <use xlink:href="#DejaVuSerif-30" transform="translate(95.410156 0.78125)"/>
       <use xlink:href="#DejaVuSerif-35" transform="translate(159.033203 0.78125)"/>
      </g>
     </g>
    </g>
    <g id="ytick_3">
     <g id="line2d_23">
      <path d="M 51.51 220.149489 
L 561.535156 220.149489 
" clip-path="url(#p5e624928ad)" style="fill: none; stroke: #ffffff; stroke-opacity: 0.2; stroke-width: 0.8; stroke-linecap: square"/>
     </g>
     <g id="line2d_24">
      <g>
       <use xlink:href="#me321e2d6c1" x="51.51" y="220.149489" style="fill: #ffffff; stroke: #ffffff; stroke-width: 0.8"/>
      </g>
     </g>
     <g id="text_12">
      <!-- $\mathdefault{0.10}$ -->
      <g style="fill: #ffffff" transform="translate(15.52 225.088473) scale(0.13 -0.13)">
       <use xlink:href="#DejaVuSerif-30" transform="translate(0 0.78125)"/>
       <use xlink:href="#DejaVuSerif-2e" transform="translate(63.623047 0.78125)"/>
       <use xlink:href="#DejaVuSerif-31" transform="translate(95.410156 0.78125)"/>
       <use xlink:href="#DejaVuSerif-30" transform="translate(159.033203 0.78125)"/>
      </g>
     </g>
    </g>
    <g id="ytick_4">
     <g id="line2d_25">
      <path d="M 51.51 185.499124 
L 561.535156 185.499124 
" clip-path="url(#p5e624928ad)" style="fill: none; stroke: #ffffff; stroke-opacity: 0.2; stroke-width: 0.8; stroke-linecap: square"/>
     </g>
     <g id="line2d_26">
      <g>
       <use xlink:href="#me321e2d6c1" x="51.51" y="185.499124" style="fill: #ffffff; stroke: #ffffff; stroke-width: 0.8"/>
      </g>
     </g>
     <g id="text_13">
      <!-- $\mathdefault{0.15}$ -->
      <g style="fill: #ffffff" transform="translate(15.52 190.438108) scale(0.13 -0.13)">
       <use xlink:href="#DejaVuSerif-30" transform="translate(0 0.78125)"/>
       <use xlink:href="#DejaVuSerif-2e" transform="translate(63.623047 0.78125)"/>
       <use xlink:href="#DejaVuSerif-31" transform="translate(95.410156 0.78125)"/>
       <use xlink:href="#DejaVuSerif-35" transform="translate(159.033203 0.78125)"/>
      </g>
     </g>
    </g>
    <g id="ytick_5">
     <g id="line2d_27">
      <path d="M 51.51 150.848758 
L 561.535156 150.848758 
" clip-path="url(#p5e624928ad)" style="fill: none; stroke: #ffffff; stroke-opacity: 0.2; stroke-width: 0.8; stroke-linecap: square"/>
     </g>
     <g id="line2d_28">
      <g>
       <use xlink:href="#me321e2d6c1" x="51.51" y="150.848758" style="fill: #ffffff; stroke: #ffffff; stroke-width: 0.8"/>
      </g>
     </g>
     <g id="text_14">
      <!-- $\mathdefault{0.20}$ -->
      <g style="fill: #ffffff" transform="translate(15.78 155.787743) scale(0.13 -0.13)">
       <use xlink:href="#DejaVuSerif-30" transform="translate(0 0.78125)"/>
       <use xlink:href="#DejaVuSerif-2e" transform="translate(63.623047 0.78125)"/>
       <use xlink:href="#DejaVuSerif-32" transform="translate(92.785156 0.78125)"/>
       <use xlink:href="#DejaVuSerif-30" transform="translate(156.408203 0.78125)"/>
      </g>
     </g>
    </g>
    <g id="ytick_6">
     <g id="line2d_29">
      <path d="M 51.51 116.198393 
L 561.535156 116.198393 
" clip-path="url(#p5e624928ad)" style="fill: none; stroke: #ffffff; stroke-opacity: 0.2; stroke-width: 0.8; stroke-linecap: square"/>
     </g>
     <g id="line2d_30">
      <g>
       <use xlink:href="#me321e2d6c1" x="51.51" y="116.198393" style="fill: #ffffff; stroke: #ffffff; stroke-width: 0.8"/>
      </g>
     </g>
     <g id="text_15">
      <!-- $\mathdefault{0.25}$ -->
      <g style="fill: #ffffff" transform="translate(15.78 121.137377) scale(0.13 -0.13)">
       <use xlink:href="#DejaVuSerif-30" transform="translate(0 0.78125)"/>
       <use xlink:href="#DejaVuSerif-2e" transform="translate(63.623047 0.78125)"/>
       <use xlink:href="#DejaVuSerif-32" transform="translate(92.785156 0.78125)"/>
       <use xlink:href="#DejaVuSerif-35" transform="translate(156.408203 0.78125)"/>
      </g>
     </g>
    </g>
    <g id="ytick_7">
     <g id="line2d_31">
      <path d="M 51.51 81.548028 
L 561.535156 81.548028 
" clip-path="url(#p5e624928ad)" style="fill: none; stroke: #ffffff; stroke-opacity: 0.2; stroke-width: 0.8; stroke-linecap: square"/>
     </g>
     <g id="line2d_32">
      <g>
       <use xlink:href="#me321e2d6c1" x="51.51" y="81.548028" style="fill: #ffffff; stroke: #ffffff; stroke-width: 0.8"/>
      </g>
     </g>
     <g id="text_16">
      <!-- $\mathdefault{0.30}$ -->
      <g style="fill: #ffffff" transform="translate(15.52 86.487012) scale(0.13 -0.13)">
       <use xlink:href="#DejaVuSerif-30" transform="translate(0 0.78125)"/>
       <use xlink:href="#DejaVuSerif-2e" transform="translate(63.623047 0.78125)"/>
       <use xlink:href="#DejaVuSerif-33" transform="translate(95.410156 0.78125)"/>
       <use xlink:href="#DejaVuSerif-30" transform="translate(159.033203 0.78125)"/>
      </g>
     </g>
    </g>
    <g id="ytick_8">
     <g id="line2d_33">
      <path d="M 51.51 46.897662 
L 561.535156 46.897662 
" clip-path="url(#p5e624928ad)" style="fill: none; stroke: #ffffff; stroke-opacity: 0.2; stroke-width: 0.8; stroke-linecap: square"/>
     </g>
     <g id="line2d_34">
      <g>
       <use xlink:href="#me321e2d6c1" x="51.51" y="46.897662" style="fill: #ffffff; stroke: #ffffff; stroke-width: 0.8"/>
      </g>
     </g>
     <g id="text_17">
      <!-- $\mathdefault{0.35}$ -->
      <g style="fill: #ffffff" transform="translate(15.52 51.836647) scale(0.13 -0.13)">
       <use xlink:href="#DejaVuSerif-30" transform="translate(0 0.78125)"/>
       <use xlink:href="#DejaVuSerif-2e" transform="translate(63.623047 0.78125)"/>
       <use xlink:href="#DejaVuSerif-33" transform="translate(95.410156 0.78125)"/>
       <use xlink:href="#DejaVuSerif-35" transform="translate(159.033203 0.78125)"/>
      </g>
     </g>
    </g>
   </g>
   <g id="line2d_35">
    <path d="M 74.692962 283.099943 
L 85.831922 281.964156 
L 96.042636 280.702934 
L 105.325103 279.330639 
L 113.679324 277.87196 
L 121.105297 276.362617 
L 128.067148 274.733196 
L 134.564875 272.994272 
L 140.598478 271.161837 
L 146.632082 269.088818 
L 152.201562 266.931843 
L 157.306919 264.722249 
L 162.412276 262.262858 
L 167.05351 259.785255 
L 171.694743 257.051896 
L 175.871853 254.350922 
L 180.048964 251.399612 
L 184.226074 248.175103 
L 188.403184 244.653044 
L 192.580294 240.807715 
L 196.293281 237.096535 
L 200.006268 233.089213 
L 203.719255 228.765958 
L 207.432242 224.106986 
L 211.145228 219.092926 
L 214.858215 213.705332 
L 218.571202 207.927325 
L 222.284189 201.744362 
L 225.997176 195.145158 
L 229.710163 188.122761 
L 233.887273 179.715242 
L 238.064383 170.77919 
L 242.241493 161.337036 
L 246.882727 150.300301 
L 251.988084 137.593125 
L 258.949934 119.594032 
L 271.481265 87.060444 
L 276.122498 75.730892 
L 279.835485 67.251117 
L 283.084349 60.388585 
L 285.869089 55.002035 
L 288.653829 50.138838 
L 290.974446 46.528424 
L 293.295062 43.353582 
L 295.151556 41.146427 
L 297.008049 39.249036 
L 298.864543 37.672618 
L 300.721036 36.42661 
L 302.113406 35.713541 
L 303.505776 35.193051 
L 304.898146 34.866931 
L 306.290516 34.736307 
L 307.682887 34.801631 
L 309.075257 35.062678 
L 310.467627 35.518545 
L 311.859997 36.16766 
L 313.71649 37.329813 
L 315.572984 38.82444 
L 317.429477 40.642572 
L 319.28597 42.773429 
L 321.142464 45.204562 
L 323.463081 48.644346 
L 325.783697 52.501248 
L 328.568438 57.633716 
L 331.353178 63.258752 
L 334.602041 70.358971 
L 338.315028 79.056083 
L 342.956262 90.57725 
L 349.453989 107.412235 
L 361.521196 138.769273 
L 367.090676 152.550273 
L 371.73191 163.477315 
L 376.373143 173.815529 
L 380.550253 182.577158 
L 384.727364 190.805978 
L 388.440351 197.669187 
L 392.153337 204.111228 
L 395.866324 210.140813 
L 399.579311 215.770567 
L 403.292298 221.016008 
L 407.005285 225.894687 
L 410.718272 230.425462 
L 414.431258 234.627916 
L 418.144245 238.521876 
L 421.857232 242.127049 
L 426.034342 245.861686 
L 430.211453 249.281768 
L 434.388563 252.412577 
L 438.565673 255.277977 
L 443.206907 258.177607 
L 447.84814 260.805552 
L 452.489374 263.187898 
L 457.594731 265.553168 
L 462.700088 267.678721 
L 468.269568 269.754284 
L 474.303171 271.749802 
L 480.336775 273.514485 
L 486.834502 275.189909 
L 493.796352 276.760676 
L 501.222326 278.216557 
L 509.576547 279.624514 
L 518.859014 280.950102 
L 529.069727 282.169427 
L 538.352195 283.099943 
L 538.352195 283.099943 
" clip-path="url(#p5e624928ad)" style="fill: none; stroke: #00ffff; stroke-width: 2; stroke-linecap: square"/>
   </g>
   <g id="patch_3">
    <path d="M 51.51 295.518125 
L 51.51 22.318125 
" style="fill: none; stroke: #ffffff; stroke-width: 1.5; stroke-linejoin: miter; stroke-linecap: square"/>
   </g>
   <g id="patch_4">
    <path d="M 51.51 295.518125 
L 561.535156 295.518125 
" style="fill: none; stroke: #ffffff; stroke-width: 1.5; stroke-linejoin: miter; stroke-linecap: square"/>
   </g>
   <g id="text_18">
    <!-- Student t-distribution -->
    <g style="fill: #ffffff" transform="translate(240.574141 16.318125) scale(0.12 -0.12)">
     <defs>
      <path id="DejaVuSerif-53" d="M 594 225 
L 594 1288 
L 953 1284 
Q 969 753 1261 498 
Q 1553 244 2150 244 
Q 2706 244 2998 464 
Q 3291 684 3291 1106 
Q 3291 1444 3114 1625 
Q 2938 1806 2369 1978 
L 1753 2163 
Q 1084 2366 811 2669 
Q 538 2972 538 3500 
Q 538 4094 959 4422 
Q 1381 4750 2144 4750 
Q 2469 4750 2856 4679 
Q 3244 4609 3681 4475 
L 3681 3481 
L 3328 3481 
Q 3275 3975 2998 4195 
Q 2722 4416 2156 4416 
Q 1663 4416 1405 4214 
Q 1147 4013 1147 3628 
Q 1147 3294 1340 3103 
Q 1534 2913 2163 2725 
L 2741 2553 
Q 3375 2363 3645 2067 
Q 3916 1772 3916 1275 
Q 3916 597 3481 253 
Q 3047 -91 2188 -91 
Q 1803 -91 1404 -12 
Q 1006 66 594 225 
z
" transform="scale(0.015625)"/>
      <path id="DejaVuSerif-74" d="M 691 2988 
L 184 2988 
L 184 3322 
L 691 3322 
L 691 4353 
L 1269 4353 
L 1269 3322 
L 2350 3322 
L 2350 2988 
L 1269 2988 
L 1269 878 
Q 1269 456 1350 337 
Q 1431 219 1650 219 
Q 1875 219 1978 351 
Q 2081 484 2088 781 
L 2522 781 
Q 2497 328 2275 118 
Q 2053 -91 1600 -91 
Q 1103 -91 897 129 
Q 691 350 691 878 
L 691 2988 
z
" transform="scale(0.015625)"/>
      <path id="DejaVuSerif-75" d="M 2266 3322 
L 3341 3322 
L 3341 331 
L 3884 331 
L 3884 0 
L 2766 0 
L 2766 588 
Q 2606 256 2353 82 
Q 2100 -91 1766 -91 
Q 1213 -91 952 223 
Q 691 538 691 1209 
L 691 2988 
L 172 2988 
L 172 3322 
L 1269 3322 
L 1269 1388 
Q 1269 781 1417 556 
Q 1566 331 1947 331 
Q 2347 331 2556 625 
Q 2766 919 2766 1478 
L 2766 2988 
L 2266 2988 
L 2266 3322 
z
" transform="scale(0.015625)"/>
      <path id="DejaVuSerif-64" d="M 3359 331 
L 3909 331 
L 3909 0 
L 2784 0 
L 2784 519 
Q 2616 206 2355 57 
Q 2094 -91 1709 -91 
Q 1097 -91 708 395 
Q 319 881 319 1663 
Q 319 2444 706 2928 
Q 1094 3413 1709 3413 
Q 2094 3413 2355 3264 
Q 2616 3116 2784 2803 
L 2784 4531 
L 2241 4531 
L 2241 4863 
L 3359 4863 
L 3359 331 
z
M 2784 1497 
L 2784 1825 
Q 2784 2422 2554 2737 
Q 2325 3053 1888 3053 
Q 1444 3053 1217 2703 
Q 991 2353 991 1663 
Q 991 975 1217 622 
Q 1444 269 1888 269 
Q 2325 269 2554 583 
Q 2784 897 2784 1497 
z
" transform="scale(0.015625)"/>
      <path id="DejaVuSerif-65" d="M 3469 1600 
L 991 1600 
L 991 1575 
Q 991 903 1244 561 
Q 1497 219 1991 219 
Q 2369 219 2611 417 
Q 2853 616 2950 1006 
L 3413 1006 
Q 3275 459 2904 184 
Q 2534 -91 1931 -91 
Q 1203 -91 761 389 
Q 319 869 319 1663 
Q 319 2450 753 2931 
Q 1188 3413 1894 3413 
Q 2647 3413 3050 2948 
Q 3453 2484 3469 1600 
z
M 2791 1931 
Q 2772 2513 2545 2808 
Q 2319 3103 1894 3103 
Q 1497 3103 1269 2806 
Q 1041 2509 991 1931 
L 2791 1931 
z
" transform="scale(0.015625)"/>
      <path id="DejaVuSerif-6e" d="M 263 0 
L 263 331 
L 781 331 
L 781 2988 
L 231 2988 
L 231 3322 
L 1356 3322 
L 1356 2731 
Q 1516 3069 1770 3241 
Q 2025 3413 2363 3413 
Q 2913 3413 3172 3097 
Q 3431 2781 3431 2113 
L 3431 331 
L 3944 331 
L 3944 0 
L 2356 0 
L 2356 331 
L 2853 331 
L 2853 1931 
Q 2853 2541 2703 2767 
Q 2553 2994 2175 2994 
Q 1775 2994 1565 2701 
Q 1356 2409 1356 1850 
L 1356 331 
L 1856 331 
L 1856 0 
L 263 0 
z
" transform="scale(0.015625)"/>
      <path id="DejaVuSerif-20" transform="scale(0.015625)"/>
      <path id="DejaVuSerif-2d" d="M 281 1959 
L 1881 1959 
L 1881 1472 
L 281 1472 
L 281 1959 
z
" transform="scale(0.015625)"/>
      <path id="DejaVuSerif-69" d="M 622 4353 
Q 622 4497 726 4603 
Q 831 4709 978 4709 
Q 1122 4709 1226 4603 
Q 1331 4497 1331 4353 
Q 1331 4206 1228 4103 
Q 1125 4000 978 4000 
Q 831 4000 726 4103 
Q 622 4206 622 4353 
z
M 1356 331 
L 1900 331 
L 1900 0 
L 231 0 
L 231 331 
L 781 331 
L 781 2988 
L 231 2988 
L 231 3322 
L 1356 3322 
L 1356 331 
z
" transform="scale(0.015625)"/>
      <path id="DejaVuSerif-73" d="M 359 184 
L 359 959 
L 691 959 
Q 703 588 923 403 
Q 1144 219 1575 219 
Q 1963 219 2166 364 
Q 2369 509 2369 788 
Q 2369 1006 2220 1140 
Q 2072 1275 1594 1428 
L 1178 1569 
Q 750 1706 558 1912 
Q 366 2119 366 2438 
Q 366 2894 700 3153 
Q 1034 3413 1625 3413 
Q 1888 3413 2178 3344 
Q 2469 3275 2778 3144 
L 2778 2419 
L 2447 2419 
Q 2434 2741 2221 2922 
Q 2009 3103 1644 3103 
Q 1281 3103 1095 2975 
Q 909 2847 909 2591 
Q 909 2381 1050 2254 
Q 1191 2128 1613 1997 
L 2069 1856 
Q 2541 1709 2748 1489 
Q 2956 1269 2956 922 
Q 2956 450 2595 179 
Q 2234 -91 1600 -91 
Q 1278 -91 972 -22 
Q 666 47 359 184 
z
" transform="scale(0.015625)"/>
      <path id="DejaVuSerif-72" d="M 3059 3328 
L 3059 2497 
L 2728 2497 
Q 2713 2744 2591 2866 
Q 2469 2988 2234 2988 
Q 1809 2988 1582 2694 
Q 1356 2400 1356 1850 
L 1356 331 
L 2022 331 
L 2022 0 
L 263 0 
L 263 331 
L 781 331 
L 781 2994 
L 231 2994 
L 231 3322 
L 1356 3322 
L 1356 2731 
Q 1525 3078 1790 3245 
Q 2056 3413 2438 3413 
Q 2578 3413 2733 3391 
Q 2888 3369 3059 3328 
z
" transform="scale(0.015625)"/>
      <path id="DejaVuSerif-62" d="M 738 331 
L 738 4531 
L 184 4531 
L 184 4863 
L 1313 4863 
L 1313 2803 
Q 1481 3116 1742 3264 
Q 2003 3413 2388 3413 
Q 3000 3413 3387 2928 
Q 3775 2444 3775 1663 
Q 3775 881 3387 395 
Q 3000 -91 2388 -91 
Q 2003 -91 1742 57 
Q 1481 206 1313 519 
L 1313 0 
L 184 0 
L 184 331 
L 738 331 
z
M 1313 1497 
Q 1313 897 1542 583 
Q 1772 269 2209 269 
Q 2650 269 2876 622 
Q 3103 975 3103 1663 
Q 3103 2353 2876 2703 
Q 2650 3053 2209 3053 
Q 1772 3053 1542 2737 
Q 1313 2422 1313 1825 
L 1313 1497 
z
" transform="scale(0.015625)"/>
      <path id="DejaVuSerif-6f" d="M 1925 219 
Q 2388 219 2623 584 
Q 2859 950 2859 1663 
Q 2859 2375 2623 2739 
Q 2388 3103 1925 3103 
Q 1463 3103 1227 2739 
Q 991 2375 991 1663 
Q 991 950 1228 584 
Q 1466 219 1925 219 
z
M 1925 -91 
Q 1200 -91 759 389 
Q 319 869 319 1663 
Q 319 2456 758 2934 
Q 1197 3413 1925 3413 
Q 2653 3413 3092 2934 
Q 3531 2456 3531 1663 
Q 3531 869 3092 389 
Q 2653 -91 1925 -91 
z
" transform="scale(0.015625)"/>
     </defs>
     <use xlink:href="#DejaVuSerif-53"/>
     <use xlink:href="#DejaVuSerif-74" transform="translate(68.505859 0)"/>
     <use xlink:href="#DejaVuSerif-75" transform="translate(108.691406 0)"/>
     <use xlink:href="#DejaVuSerif-64" transform="translate(173.095703 0)"/>
     <use xlink:href="#DejaVuSerif-65" transform="translate(237.109375 0)"/>
     <use xlink:href="#DejaVuSerif-6e" transform="translate(296.289062 0)"/>
     <use xlink:href="#DejaVuSerif-74" transform="translate(360.693359 0)"/>
     <use xlink:href="#DejaVuSerif-20" transform="translate(400.878906 0)"/>
     <use xlink:href="#DejaVuSerif-74" transform="translate(432.666016 0)"/>
     <use xlink:href="#DejaVuSerif-2d" transform="translate(472.851562 0)"/>
     <use xlink:href="#DejaVuSerif-64" transform="translate(506.640625 0)"/>
     <use xlink:href="#DejaVuSerif-69" transform="translate(570.654297 0)"/>
     <use xlink:href="#DejaVuSerif-73" transform="translate(602.636719 0)"/>
     <use xlink:href="#DejaVuSerif-74" transform="translate(653.955078 0)"/>
     <use xlink:href="#DejaVuSerif-72" transform="translate(694.140625 0)"/>
     <use xlink:href="#DejaVuSerif-69" transform="translate(741.943359 0)"/>
     <use xlink:href="#DejaVuSerif-62" transform="translate(773.925781 0)"/>
     <use xlink:href="#DejaVuSerif-75" transform="translate(837.939453 0)"/>
     <use xlink:href="#DejaVuSerif-74" transform="translate(902.34375 0)"/>
     <use xlink:href="#DejaVuSerif-69" transform="translate(942.529297 0)"/>
     <use xlink:href="#DejaVuSerif-6f" transform="translate(974.511719 0)"/>
     <use xlink:href="#DejaVuSerif-6e" transform="translate(1034.716797 0)"/>
    </g>
   </g>
   <g id="legend_1">
    <g id="patch_5">
     <path d="M 424.085156 44.99625 
L 554.535156 44.99625 
Q 556.535156 44.99625 556.535156 42.99625 
L 556.535156 29.318125 
Q 556.535156 27.318125 554.535156 27.318125 
L 424.085156 27.318125 
Q 422.085156 27.318125 422.085156 29.318125 
L 422.085156 42.99625 
Q 422.085156 44.99625 424.085156 44.99625 
L 424.085156 44.99625 
z
" style="fill: none; opacity: 0.8; stroke: #ffffff; stroke-linejoin: miter"/>
    </g>
    <g id="line2d_36">
     <path d="M 426.085156 35.416562 
L 436.085156 35.416562 
L 446.085156 35.416562 
" style="fill: none; stroke: #00ffff; stroke-width: 2; stroke-linecap: square"/>
    </g>
    <g id="text_19">
     <!-- t-distribution (ν=3) -->
     <g style="fill: #ffffff" transform="translate(454.085156 38.916562) scale(0.1 -0.1)">
      <defs>
       <path id="DejaVuSerif-28" d="M 2041 -997 
Q 1281 -656 893 83 
Q 506 822 506 1931 
Q 506 3044 893 3783 
Q 1281 4522 2041 4863 
L 2041 4556 
Q 1559 4225 1350 3623 
Q 1141 3022 1141 1931 
Q 1141 844 1350 242 
Q 1559 -359 2041 -691 
L 2041 -997 
z
" transform="scale(0.015625)"/>
       <path id="DejaVuSerif-3bd" d="M 1356 363 
Q 1738 513 2150 875 
Q 2400 1094 2697 1638 
Q 2888 1975 2913 2288 
Q 2938 2575 2806 2794 
Q 2628 3097 2403 3138 
L 2403 3322 
L 2753 3322 
Q 3106 3169 3356 2828 
Q 3550 2566 3553 2247 
Q 3553 2016 3463 1825 
Q 3397 1688 3172 1366 
Q 2875 950 2491 663 
Q 1788 138 1356 0 
L 778 0 
L 781 2988 
L 231 2988 
L 231 3322 
L 1356 3322 
L 1356 363 
z
" transform="scale(0.015625)"/>
       <path id="DejaVuSerif-3d" d="M 678 2894 
L 4684 2894 
L 4684 2394 
L 678 2394 
L 678 2894 
z
M 678 1619 
L 4684 1619 
L 4684 1119 
L 678 1119 
L 678 1619 
z
" transform="scale(0.015625)"/>
       <path id="DejaVuSerif-29" d="M 453 -997 
L 453 -691 
Q 934 -359 1145 242 
Q 1356 844 1356 1931 
Q 1356 3022 1145 3623 
Q 934 4225 453 4556 
L 453 4863 
Q 1216 4522 1603 3783 
Q 1991 3044 1991 1931 
Q 1991 822 1603 83 
Q 1216 -656 453 -997 
z
" transform="scale(0.015625)"/>
      </defs>
      <use xlink:href="#DejaVuSerif-74"/>
      <use xlink:href="#DejaVuSerif-2d" transform="translate(40.185547 0)"/>
      <use xlink:href="#DejaVuSerif-64" transform="translate(73.974609 0)"/>
      <use xlink:href="#DejaVuSerif-69" transform="translate(137.988281 0)"/>
      <use xlink:href="#DejaVuSerif-73" transform="translate(169.970703 0)"/>
      <use xlink:href="#DejaVuSerif-74" transform="translate(221.289062 0)"/>
      <use xlink:href="#DejaVuSerif-72" transform="translate(261.474609 0)"/>
      <use xlink:href="#DejaVuSerif-69" transform="translate(309.277344 0)"/>
      <use xlink:href="#DejaVuSerif-62" transform="translate(341.259766 0)"/>
      <use xlink:href="#DejaVuSerif-75" transform="translate(405.273438 0)"/>
      <use xlink:href="#DejaVuSerif-74" transform="translate(469.677734 0)"/>
      <use xlink:href="#DejaVuSerif-69" transform="translate(509.863281 0)"/>
      <use xlink:href="#DejaVuSerif-6f" transform="translate(541.845703 0)"/>
      <use xlink:href="#DejaVuSerif-6e" transform="translate(602.050781 0)"/>
      <use xlink:href="#DejaVuSerif-20" transform="translate(666.455078 0)"/>
      <use xlink:href="#DejaVuSerif-28" transform="translate(698.242188 0)"/>
      <use xlink:href="#DejaVuSerif-3bd" transform="translate(737.255859 0)"/>
      <use xlink:href="#DejaVuSerif-3d" transform="translate(798.046875 0)"/>
      <use xlink:href="#DejaVuSerif-33" transform="translate(881.835938 0)"/>
      <use xlink:href="#DejaVuSerif-29" transform="translate(945.458984 0)"/>
     </g>
    </g>
   </g>
  </g>
  <g id="axes_2">
   <g id="patch_6">
    <path d="M 51.51 614.118125 
L 561.535156 614.118125 
L 561.535156 340.918125 
L 51.51 340.918125 
L 51.51 614.118125 
z
" style="fill: none"/>
   </g>
   <g id="matplotlib.axis_3">
    <g id="xtick_10">
     <g id="line2d_37">
      <path d="M 74.228373 614.118125 
L 74.228373 340.918125 
" clip-path="url(#p48d7bb018a)" style="fill: none; stroke: #ffffff; stroke-opacity: 0.2; stroke-width: 0.8; stroke-linecap: square"/>
     </g>
     <g id="line2d_38">
      <g>
       <use xlink:href="#m0af85ef8f7" x="74.228373" y="614.118125" style="fill: #ffffff; stroke: #ffffff; stroke-width: 0.8"/>
      </g>
     </g>
     <g id="text_20">
      <!-- $\mathdefault{0.0}$ -->
      <g style="fill: #ffffff" transform="translate(63.828373 630.996094) scale(0.13 -0.13)">
       <use xlink:href="#DejaVuSerif-30" transform="translate(0 0.78125)"/>
       <use xlink:href="#DejaVuSerif-2e" transform="translate(63.623047 0.78125)"/>
       <use xlink:href="#DejaVuSerif-30" transform="translate(95.410156 0.78125)"/>
      </g>
     </g>
    </g>
    <g id="xtick_11">
     <g id="line2d_39">
      <path d="M 132.243851 614.118125 
L 132.243851 340.918125 
" clip-path="url(#p48d7bb018a)" style="fill: none; stroke: #ffffff; stroke-opacity: 0.2; stroke-width: 0.8; stroke-linecap: square"/>
     </g>
     <g id="line2d_40">
      <g>
       <use xlink:href="#m0af85ef8f7" x="132.243851" y="614.118125" style="fill: #ffffff; stroke: #ffffff; stroke-width: 0.8"/>
      </g>
     </g>
     <g id="text_21">
      <!-- $\mathdefault{0.5}$ -->
      <g style="fill: #ffffff" transform="translate(121.843851 630.996094) scale(0.13 -0.13)">
       <use xlink:href="#DejaVuSerif-30" transform="translate(0 0.78125)"/>
       <use xlink:href="#DejaVuSerif-2e" transform="translate(63.623047 0.78125)"/>
       <use xlink:href="#DejaVuSerif-35" transform="translate(95.410156 0.78125)"/>
      </g>
     </g>
    </g>
    <g id="xtick_12">
     <g id="line2d_41">
      <path d="M 190.259329 614.118125 
L 190.259329 340.918125 
" clip-path="url(#p48d7bb018a)" style="fill: none; stroke: #ffffff; stroke-opacity: 0.2; stroke-width: 0.8; stroke-linecap: square"/>
     </g>
     <g id="line2d_42">
      <g>
       <use xlink:href="#m0af85ef8f7" x="190.259329" y="614.118125" style="fill: #ffffff; stroke: #ffffff; stroke-width: 0.8"/>
      </g>
     </g>
     <g id="text_22">
      <!-- $\mathdefault{1.0}$ -->
      <g style="fill: #ffffff" transform="translate(179.859329 630.996094) scale(0.13 -0.13)">
       <use xlink:href="#DejaVuSerif-31" transform="translate(0 0.78125)"/>
       <use xlink:href="#DejaVuSerif-2e" transform="translate(63.623047 0.78125)"/>
       <use xlink:href="#DejaVuSerif-30" transform="translate(95.410156 0.78125)"/>
      </g>
     </g>
    </g>
    <g id="xtick_13">
     <g id="line2d_43">
      <path d="M 248.274806 614.118125 
L 248.274806 340.918125 
" clip-path="url(#p48d7bb018a)" style="fill: none; stroke: #ffffff; stroke-opacity: 0.2; stroke-width: 0.8; stroke-linecap: square"/>
     </g>
     <g id="line2d_44">
      <g>
       <use xlink:href="#m0af85ef8f7" x="248.274806" y="614.118125" style="fill: #ffffff; stroke: #ffffff; stroke-width: 0.8"/>
      </g>
     </g>
     <g id="text_23">
      <!-- $\mathdefault{1.5}$ -->
      <g style="fill: #ffffff" transform="translate(237.874806 630.996094) scale(0.13 -0.13)">
       <use xlink:href="#DejaVuSerif-31" transform="translate(0 0.78125)"/>
       <use xlink:href="#DejaVuSerif-2e" transform="translate(63.623047 0.78125)"/>
       <use xlink:href="#DejaVuSerif-35" transform="translate(95.410156 0.78125)"/>
      </g>
     </g>
    </g>
    <g id="xtick_14">
     <g id="line2d_45">
      <path d="M 306.290284 614.118125 
L 306.290284 340.918125 
" clip-path="url(#p48d7bb018a)" style="fill: none; stroke: #ffffff; stroke-opacity: 0.2; stroke-width: 0.8; stroke-linecap: square"/>
     </g>
     <g id="line2d_46">
      <g>
       <use xlink:href="#m0af85ef8f7" x="306.290284" y="614.118125" style="fill: #ffffff; stroke: #ffffff; stroke-width: 0.8"/>
      </g>
     </g>
     <g id="text_24">
      <!-- $\mathdefault{2.0}$ -->
      <g style="fill: #ffffff" transform="translate(295.890284 630.996094) scale(0.13 -0.13)">
       <use xlink:href="#DejaVuSerif-32" transform="translate(0 0.78125)"/>
       <use xlink:href="#DejaVuSerif-2e" transform="translate(63.623047 0.78125)"/>
       <use xlink:href="#DejaVuSerif-30" transform="translate(95.410156 0.78125)"/>
      </g>
     </g>
    </g>
    <g id="xtick_15">
     <g id="line2d_47">
      <path d="M 364.305762 614.118125 
L 364.305762 340.918125 
" clip-path="url(#p48d7bb018a)" style="fill: none; stroke: #ffffff; stroke-opacity: 0.2; stroke-width: 0.8; stroke-linecap: square"/>
     </g>
     <g id="line2d_48">
      <g>
       <use xlink:href="#m0af85ef8f7" x="364.305762" y="614.118125" style="fill: #ffffff; stroke: #ffffff; stroke-width: 0.8"/>
      </g>
     </g>
     <g id="text_25">
      <!-- $\mathdefault{2.5}$ -->
      <g style="fill: #ffffff" transform="translate(353.905762 630.996094) scale(0.13 -0.13)">
       <use xlink:href="#DejaVuSerif-32" transform="translate(0 0.78125)"/>
       <use xlink:href="#DejaVuSerif-2e" transform="translate(63.623047 0.78125)"/>
       <use xlink:href="#DejaVuSerif-35" transform="translate(95.410156 0.78125)"/>
      </g>
     </g>
    </g>
    <g id="xtick_16">
     <g id="line2d_49">
      <path d="M 422.321239 614.118125 
L 422.321239 340.918125 
" clip-path="url(#p48d7bb018a)" style="fill: none; stroke: #ffffff; stroke-opacity: 0.2; stroke-width: 0.8; stroke-linecap: square"/>
     </g>
     <g id="line2d_50">
      <g>
       <use xlink:href="#m0af85ef8f7" x="422.321239" y="614.118125" style="fill: #ffffff; stroke: #ffffff; stroke-width: 0.8"/>
      </g>
     </g>
     <g id="text_26">
      <!-- $\mathdefault{3.0}$ -->
      <g style="fill: #ffffff" transform="translate(411.921239 630.996094) scale(0.13 -0.13)">
       <use xlink:href="#DejaVuSerif-33" transform="translate(0 0.78125)"/>
       <use xlink:href="#DejaVuSerif-2e" transform="translate(63.623047 0.78125)"/>
       <use xlink:href="#DejaVuSerif-30" transform="translate(95.410156 0.78125)"/>
      </g>
     </g>
    </g>
    <g id="xtick_17">
     <g id="line2d_51">
      <path d="M 480.336717 614.118125 
L 480.336717 340.918125 
" clip-path="url(#p48d7bb018a)" style="fill: none; stroke: #ffffff; stroke-opacity: 0.2; stroke-width: 0.8; stroke-linecap: square"/>
     </g>
     <g id="line2d_52">
      <g>
       <use xlink:href="#m0af85ef8f7" x="480.336717" y="614.118125" style="fill: #ffffff; stroke: #ffffff; stroke-width: 0.8"/>
      </g>
     </g>
     <g id="text_27">
      <!-- $\mathdefault{3.5}$ -->
      <g style="fill: #ffffff" transform="translate(469.936717 630.996094) scale(0.13 -0.13)">
       <use xlink:href="#DejaVuSerif-33" transform="translate(0 0.78125)"/>
       <use xlink:href="#DejaVuSerif-2e" transform="translate(63.623047 0.78125)"/>
       <use xlink:href="#DejaVuSerif-35" transform="translate(95.410156 0.78125)"/>
      </g>
     </g>
    </g>
    <g id="xtick_18">
     <g id="line2d_53">
      <path d="M 538.352195 614.118125 
L 538.352195 340.918125 
" clip-path="url(#p48d7bb018a)" style="fill: none; stroke: #ffffff; stroke-opacity: 0.2; stroke-width: 0.8; stroke-linecap: square"/>
     </g>
     <g id="line2d_54">
      <g>
       <use xlink:href="#m0af85ef8f7" x="538.352195" y="614.118125" style="fill: #ffffff; stroke: #ffffff; stroke-width: 0.8"/>
      </g>
     </g>
     <g id="text_28">
      <!-- $\mathdefault{4.0}$ -->
      <g style="fill: #ffffff" transform="translate(527.952195 630.996094) scale(0.13 -0.13)">
       <use xlink:href="#DejaVuSerif-34" transform="translate(0 0.78125)"/>
       <use xlink:href="#DejaVuSerif-2e" transform="translate(63.623047 0.78125)"/>
       <use xlink:href="#DejaVuSerif-30" transform="translate(95.410156 0.78125)"/>
      </g>
     </g>
    </g>
   </g>
   <g id="matplotlib.axis_4">
    <g id="ytick_9">
     <g id="line2d_55">
      <path d="M 51.51 603.763634 
L 561.535156 603.763634 
" clip-path="url(#p48d7bb018a)" style="fill: none; stroke: #ffffff; stroke-opacity: 0.2; stroke-width: 0.8; stroke-linecap: square"/>
     </g>
     <g id="line2d_56">
      <g>
       <use xlink:href="#me321e2d6c1" x="51.51" y="603.763634" style="fill: #ffffff; stroke: #ffffff; stroke-width: 0.8"/>
      </g>
     </g>
     <g id="text_29">
      <!-- $\mathdefault{0.000}$ -->
      <g style="fill: #ffffff" transform="translate(7.2 608.702618) scale(0.13 -0.13)">
       <use xlink:href="#DejaVuSerif-30" transform="translate(0 0.78125)"/>
       <use xlink:href="#DejaVuSerif-2e" transform="translate(63.623047 0.78125)"/>
       <use xlink:href="#DejaVuSerif-30" transform="translate(95.410156 0.78125)"/>
       <use xlink:href="#DejaVuSerif-30" transform="translate(159.033203 0.78125)"/>
       <use xlink:href="#DejaVuSerif-30" transform="translate(222.65625 0.78125)"/>
      </g>
     </g>
    </g>
    <g id="ytick_10">
     <g id="line2d_57">
      <path d="M 51.51 568.56632 
L 561.535156 568.56632 
" clip-path="url(#p48d7bb018a)" style="fill: none; stroke: #ffffff; stroke-opacity: 0.2; stroke-width: 0.8; stroke-linecap: square"/>
     </g>
     <g id="line2d_58">
      <g>
       <use xlink:href="#me321e2d6c1" x="51.51" y="568.56632" style="fill: #ffffff; stroke: #ffffff; stroke-width: 0.8"/>
      </g>
     </g>
     <g id="text_30">
      <!-- $\mathdefault{0.025}$ -->
      <g style="fill: #ffffff" transform="translate(7.2 573.505304) scale(0.13 -0.13)">
       <use xlink:href="#DejaVuSerif-30" transform="translate(0 0.78125)"/>
       <use xlink:href="#DejaVuSerif-2e" transform="translate(63.623047 0.78125)"/>
       <use xlink:href="#DejaVuSerif-30" transform="translate(95.410156 0.78125)"/>
       <use xlink:href="#DejaVuSerif-32" transform="translate(159.033203 0.78125)"/>
       <use xlink:href="#DejaVuSerif-35" transform="translate(222.65625 0.78125)"/>
      </g>
     </g>
    </g>
    <g id="ytick_11">
     <g id="line2d_59">
      <path d="M 51.51 533.369006 
L 561.535156 533.369006 
" clip-path="url(#p48d7bb018a)" style="fill: none; stroke: #ffffff; stroke-opacity: 0.2; stroke-width: 0.8; stroke-linecap: square"/>
     </g>
     <g id="line2d_60">
      <g>
       <use xlink:href="#me321e2d6c1" x="51.51" y="533.369006" style="fill: #ffffff; stroke: #ffffff; stroke-width: 0.8"/>
      </g>
     </g>
     <g id="text_31">
      <!-- $\mathdefault{0.050}$ -->
      <g style="fill: #ffffff" transform="translate(7.2 538.307991) scale(0.13 -0.13)">
       <use xlink:href="#DejaVuSerif-30" transform="translate(0 0.78125)"/>
       <use xlink:href="#DejaVuSerif-2e" transform="translate(63.623047 0.78125)"/>
       <use xlink:href="#DejaVuSerif-30" transform="translate(95.410156 0.78125)"/>
       <use xlink:href="#DejaVuSerif-35" transform="translate(159.033203 0.78125)"/>
       <use xlink:href="#DejaVuSerif-30" transform="translate(222.65625 0.78125)"/>
      </g>
     </g>
    </g>
    <g id="ytick_12">
     <g id="line2d_61">
      <path d="M 51.51 498.171693 
L 561.535156 498.171693 
" clip-path="url(#p48d7bb018a)" style="fill: none; stroke: #ffffff; stroke-opacity: 0.2; stroke-width: 0.8; stroke-linecap: square"/>
     </g>
     <g id="line2d_62">
      <g>
       <use xlink:href="#me321e2d6c1" x="51.51" y="498.171693" style="fill: #ffffff; stroke: #ffffff; stroke-width: 0.8"/>
      </g>
     </g>
     <g id="text_32">
      <!-- $\mathdefault{0.075}$ -->
      <g style="fill: #ffffff" transform="translate(7.2 503.110677) scale(0.13 -0.13)">
       <defs>
        <path id="DejaVuSerif-37" d="M 3609 4347 
L 1784 0 
L 1319 0 
L 3059 4153 
L 903 4153 
L 903 3578 
L 538 3578 
L 538 4666 
L 3609 4666 
L 3609 4347 
z
" transform="scale(0.015625)"/>
       </defs>
       <use xlink:href="#DejaVuSerif-30" transform="translate(0 0.78125)"/>
       <use xlink:href="#DejaVuSerif-2e" transform="translate(63.623047 0.78125)"/>
       <use xlink:href="#DejaVuSerif-30" transform="translate(95.410156 0.78125)"/>
       <use xlink:href="#DejaVuSerif-37" transform="translate(159.033203 0.78125)"/>
       <use xlink:href="#DejaVuSerif-35" transform="translate(222.65625 0.78125)"/>
      </g>
     </g>
    </g>
    <g id="ytick_13">
     <g id="line2d_63">
      <path d="M 51.51 462.974379 
L 561.535156 462.974379 
" clip-path="url(#p48d7bb018a)" style="fill: none; stroke: #ffffff; stroke-opacity: 0.2; stroke-width: 0.8; stroke-linecap: square"/>
     </g>
     <g id="line2d_64">
      <g>
       <use xlink:href="#me321e2d6c1" x="51.51" y="462.974379" style="fill: #ffffff; stroke: #ffffff; stroke-width: 0.8"/>
      </g>
     </g>
     <g id="text_33">
      <!-- $\mathdefault{0.100}$ -->
      <g style="fill: #ffffff" transform="translate(7.2 467.913363) scale(0.13 -0.13)">
       <use xlink:href="#DejaVuSerif-30" transform="translate(0 0.78125)"/>
       <use xlink:href="#DejaVuSerif-2e" transform="translate(63.623047 0.78125)"/>
       <use xlink:href="#DejaVuSerif-31" transform="translate(95.410156 0.78125)"/>
       <use xlink:href="#DejaVuSerif-30" transform="translate(159.033203 0.78125)"/>
       <use xlink:href="#DejaVuSerif-30" transform="translate(222.65625 0.78125)"/>
      </g>
     </g>
    </g>
    <g id="ytick_14">
     <g id="line2d_65">
      <path d="M 51.51 427.777065 
L 561.535156 427.777065 
" clip-path="url(#p48d7bb018a)" style="fill: none; stroke: #ffffff; stroke-opacity: 0.2; stroke-width: 0.8; stroke-linecap: square"/>
     </g>
     <g id="line2d_66">
      <g>
       <use xlink:href="#me321e2d6c1" x="51.51" y="427.777065" style="fill: #ffffff; stroke: #ffffff; stroke-width: 0.8"/>
      </g>
     </g>
     <g id="text_34">
      <!-- $\mathdefault{0.125}$ -->
      <g style="fill: #ffffff" transform="translate(7.2 432.71605) scale(0.13 -0.13)">
       <use xlink:href="#DejaVuSerif-30" transform="translate(0 0.78125)"/>
       <use xlink:href="#DejaVuSerif-2e" transform="translate(63.623047 0.78125)"/>
       <use xlink:href="#DejaVuSerif-31" transform="translate(95.410156 0.78125)"/>
       <use xlink:href="#DejaVuSerif-32" transform="translate(159.033203 0.78125)"/>
       <use xlink:href="#DejaVuSerif-35" transform="translate(222.65625 0.78125)"/>
      </g>
     </g>
    </g>
    <g id="ytick_15">
     <g id="line2d_67">
      <path d="M 51.51 392.579751 
L 561.535156 392.579751 
" clip-path="url(#p48d7bb018a)" style="fill: none; stroke: #ffffff; stroke-opacity: 0.2; stroke-width: 0.8; stroke-linecap: square"/>
     </g>
     <g id="line2d_68">
      <g>
       <use xlink:href="#me321e2d6c1" x="51.51" y="392.579751" style="fill: #ffffff; stroke: #ffffff; stroke-width: 0.8"/>
      </g>
     </g>
     <g id="text_35">
      <!-- $\mathdefault{0.150}$ -->
      <g style="fill: #ffffff" transform="translate(7.2 397.518736) scale(0.13 -0.13)">
       <use xlink:href="#DejaVuSerif-30" transform="translate(0 0.78125)"/>
       <use xlink:href="#DejaVuSerif-2e" transform="translate(63.623047 0.78125)"/>
       <use xlink:href="#DejaVuSerif-31" transform="translate(95.410156 0.78125)"/>
       <use xlink:href="#DejaVuSerif-35" transform="translate(159.033203 0.78125)"/>
       <use xlink:href="#DejaVuSerif-30" transform="translate(222.65625 0.78125)"/>
      </g>
     </g>
    </g>
    <g id="ytick_16">
     <g id="line2d_69">
      <path d="M 51.51 357.382438 
L 561.535156 357.382438 
" clip-path="url(#p48d7bb018a)" style="fill: none; stroke: #ffffff; stroke-opacity: 0.2; stroke-width: 0.8; stroke-linecap: square"/>
     </g>
     <g id="line2d_70">
      <g>
       <use xlink:href="#me321e2d6c1" x="51.51" y="357.382438" style="fill: #ffffff; stroke: #ffffff; stroke-width: 0.8"/>
      </g>
     </g>
     <g id="text_36">
      <!-- $\mathdefault{0.175}$ -->
      <g style="fill: #ffffff" transform="translate(7.2 362.321422) scale(0.13 -0.13)">
       <use xlink:href="#DejaVuSerif-30" transform="translate(0 0.78125)"/>
       <use xlink:href="#DejaVuSerif-2e" transform="translate(63.623047 0.78125)"/>
       <use xlink:href="#DejaVuSerif-31" transform="translate(95.410156 0.78125)"/>
       <use xlink:href="#DejaVuSerif-37" transform="translate(159.033203 0.78125)"/>
       <use xlink:href="#DejaVuSerif-35" transform="translate(222.65625 0.78125)"/>
      </g>
     </g>
    </g>
   </g>
   <g id="line2d_71">
    <path d="M 74.692962 566.963246 
L 75.622138 540.531885 
L 76.551315 522.782895 
L 77.480492 508.710176 
L 78.409669 496.842804 
L 80.268023 477.302499 
L 82.126376 461.447482 
L 83.98473 448.101238 
L 85.843083 436.620554 
L 87.701437 426.605243 
L 89.559791 417.784581 
L 91.418144 409.964311 
L 93.276498 402.998795 
L 95.134852 396.775087 
L 96.993205 391.203198 
L 98.851559 386.209841 
L 100.709913 381.734234 
L 102.568266 377.725191 
L 104.42662 374.13904 
L 106.284974 370.938104 
L 108.143327 368.089555 
L 110.001681 365.564552 
L 111.860034 363.337561 
L 113.718388 361.385829 
L 115.576742 359.688958 
L 117.435095 358.228568 
L 119.293449 356.988015 
L 121.151803 355.952165 
L 123.010156 355.107202 
L 124.86851 354.44047 
L 126.726864 353.940337 
L 129.514394 353.479285 
L 132.301924 353.336307 
L 135.089455 353.482071 
L 137.876985 353.890253 
L 140.664516 354.537129 
L 143.452046 355.401238 
L 146.239577 356.463099 
L 149.956284 358.156106 
L 153.672991 360.131487 
L 157.389699 362.355601 
L 162.035583 365.440097 
L 166.681467 368.814741 
L 172.256528 373.183923 
L 177.831589 377.838113 
L 184.335826 383.551017 
L 192.698418 391.225133 
L 202.919363 400.924739 
L 243.803143 440.069506 
L 254.953265 450.256888 
L 265.17421 459.280416 
L 274.465978 467.193168 
L 283.757746 474.811631 
L 293.049514 482.124887 
L 301.412106 488.440772 
L 309.774697 494.502814 
L 318.137288 500.311459 
L 326.49988 505.868888 
L 334.862471 511.178683 
L 343.225062 516.245561 
L 351.587654 521.075131 
L 360.879422 526.170694 
L 370.17119 530.990512 
L 379.462958 535.544589 
L 388.754727 539.843313 
L 398.046495 543.8973 
L 407.338263 547.71726 
L 416.630031 551.313893 
L 426.850976 555.024891 
L 437.071921 558.492353 
L 447.292866 561.729813 
L 458.442988 565.014692 
L 469.59311 568.057908 
L 480.743232 570.875207 
L 492.82253 573.689742 
L 504.901829 576.274866 
L 517.910305 578.821855 
L 530.91878 581.142581 
L 538.352195 582.374355 
L 538.352195 582.374355 
" clip-path="url(#p48d7bb018a)" style="fill: none; stroke: #ff69b4; stroke-width: 2; stroke-linecap: square"/>
   </g>
   <g id="line2d_72">
    <path d="M 74.692962 601.699943 
L 78.409669 585.775928 
L 82.126376 570.857956 
L 85.843083 556.898421 
L 89.559791 543.85172 
L 93.276498 531.674173 
L 96.993205 520.323947 
L 100.709913 509.760982 
L 104.42662 499.946922 
L 108.143327 490.845046 
L 111.860034 482.420205 
L 115.576742 474.638758 
L 119.293449 467.468513 
L 123.010156 460.878667 
L 126.726864 454.839752 
L 130.443571 449.323581 
L 134.160278 444.303198 
L 137.876985 439.752826 
L 141.593693 435.647819 
L 145.3104 431.964621 
L 149.027107 428.680717 
L 152.743814 425.774591 
L 156.460522 423.225689 
L 160.177229 421.014376 
L 163.893936 419.121901 
L 167.610644 417.530359 
L 171.327351 416.222656 
L 175.044058 415.18248 
L 178.760765 414.394262 
L 182.477473 413.843151 
L 186.19418 413.51498 
L 189.910887 413.396241 
L 193.627595 413.474056 
L 197.344302 413.736149 
L 201.990186 414.305144 
L 206.63607 415.122209 
L 211.281954 416.166994 
L 215.927838 417.420364 
L 221.502899 419.1745 
L 227.07796 421.174148 
L 232.653021 423.392413 
L 239.157259 426.223566 
L 246.590673 429.735578 
L 254.024088 433.49539 
L 262.386679 437.966427 
L 272.607624 443.699551 
L 284.686923 450.74216 
L 303.270459 461.87604 
L 333.004117 479.694994 
L 348.800123 488.876569 
L 362.737776 496.708438 
L 374.817074 503.253792 
L 386.896373 509.551349 
L 398.975672 515.586128 
L 410.125794 520.915081 
L 421.275915 526.007756 
L 432.426037 530.862715 
L 443.576159 535.480767 
L 454.726281 539.864567 
L 465.876403 544.018274 
L 477.026525 547.947249 
L 489.105823 551.957376 
L 501.185122 555.720156 
L 513.26442 559.2453 
L 525.343719 562.543017 
L 538.352195 565.852125 
L 538.352195 565.852125 
" clip-path="url(#p48d7bb018a)" style="fill: none; stroke: #98fb98; stroke-width: 2; stroke-linecap: square"/>
   </g>
   <g id="patch_7">
    <path d="M 51.51 614.118125 
L 51.51 340.918125 
" style="fill: none; stroke: #ffffff; stroke-width: 1.5; stroke-linejoin: miter; stroke-linecap: square"/>
   </g>
   <g id="patch_8">
    <path d="M 51.51 614.118125 
L 561.535156 614.118125 
" style="fill: none; stroke: #ffffff; stroke-width: 1.5; stroke-linejoin: miter; stroke-linecap: square"/>
   </g>
   <g id="text_37">
    <!-- Component Gamma Distributions -->
    <g style="fill: #ffffff" transform="translate(204.746641 334.918125) scale(0.12 -0.12)">
     <defs>
      <path id="DejaVuSerif-43" d="M 4513 1234 
Q 4306 581 3820 245 
Q 3334 -91 2591 -91 
Q 2134 -91 1743 65 
Q 1353 222 1050 525 
Q 700 875 529 1320 
Q 359 1766 359 2328 
Q 359 3416 987 4083 
Q 1616 4750 2644 4750 
Q 3025 4750 3456 4650 
Q 3888 4550 4384 4347 
L 4384 3272 
L 4031 3272 
Q 3916 3859 3567 4137 
Q 3219 4416 2591 4416 
Q 1844 4416 1459 3886 
Q 1075 3356 1075 2328 
Q 1075 1303 1459 773 
Q 1844 244 2591 244 
Q 3113 244 3450 492 
Q 3788 741 3938 1234 
L 4513 1234 
z
" transform="scale(0.015625)"/>
      <path id="DejaVuSerif-6d" d="M 3316 2675 
Q 3481 3041 3739 3227 
Q 3997 3413 4341 3413 
Q 4863 3413 5119 3089 
Q 5375 2766 5375 2113 
L 5375 331 
L 5894 331 
L 5894 0 
L 4300 0 
L 4300 331 
L 4800 331 
L 4800 2047 
Q 4800 2556 4650 2772 
Q 4500 2988 4153 2988 
Q 3769 2988 3567 2697 
Q 3366 2406 3366 1850 
L 3366 331 
L 3866 331 
L 3866 0 
L 2291 0 
L 2291 331 
L 2791 331 
L 2791 2069 
Q 2791 2566 2641 2777 
Q 2491 2988 2144 2988 
Q 1759 2988 1557 2697 
Q 1356 2406 1356 1850 
L 1356 331 
L 1856 331 
L 1856 0 
L 263 0 
L 263 331 
L 781 331 
L 781 2994 
L 231 2994 
L 231 3322 
L 1356 3322 
L 1356 2731 
Q 1516 3063 1762 3238 
Q 2009 3413 2322 3413 
Q 2709 3413 2968 3220 
Q 3228 3028 3316 2675 
z
" transform="scale(0.015625)"/>
      <path id="DejaVuSerif-70" d="M 1313 1825 
L 1313 1497 
Q 1313 897 1542 583 
Q 1772 269 2209 269 
Q 2650 269 2876 622 
Q 3103 975 3103 1663 
Q 3103 2353 2876 2703 
Q 2650 3053 2209 3053 
Q 1772 3053 1542 2737 
Q 1313 2422 1313 1825 
z
M 738 2988 
L 184 2988 
L 184 3322 
L 1313 3322 
L 1313 2803 
Q 1481 3116 1742 3264 
Q 2003 3413 2388 3413 
Q 3000 3413 3387 2928 
Q 3775 2444 3775 1663 
Q 3775 881 3387 395 
Q 3000 -91 2388 -91 
Q 2003 -91 1742 57 
Q 1481 206 1313 519 
L 1313 -997 
L 1856 -997 
L 1856 -1331 
L 184 -1331 
L 184 -997 
L 738 -997 
L 738 2988 
z
" transform="scale(0.015625)"/>
      <path id="DejaVuSerif-47" d="M 4097 3272 
Q 3988 3856 3641 4136 
Q 3294 4416 2675 4416 
Q 1869 4416 1472 3897 
Q 1075 3378 1075 2328 
Q 1075 1300 1484 772 
Q 1894 244 2688 244 
Q 3041 244 3362 331 
Q 3684 419 3975 594 
L 3975 1797 
L 3097 1797 
L 3097 2131 
L 4609 2131 
L 4609 391 
Q 4194 150 3714 29 
Q 3234 -91 2688 -91 
Q 1631 -91 995 570 
Q 359 1231 359 2328 
Q 359 3434 996 4092 
Q 1634 4750 2713 4750 
Q 3113 4750 3539 4658 
Q 3966 4566 4447 4378 
L 4447 3272 
L 4097 3272 
z
" transform="scale(0.015625)"/>
      <path id="DejaVuSerif-61" d="M 2547 1044 
L 2547 1747 
L 1806 1747 
Q 1378 1747 1168 1562 
Q 959 1378 959 997 
Q 959 650 1171 447 
Q 1384 244 1747 244 
Q 2106 244 2326 466 
Q 2547 688 2547 1044 
z
M 3122 2075 
L 3122 331 
L 3634 331 
L 3634 0 
L 2547 0 
L 2547 359 
Q 2356 128 2106 18 
Q 1856 -91 1522 -91 
Q 969 -91 644 203 
Q 319 497 319 997 
Q 319 1513 691 1797 
Q 1063 2081 1741 2081 
L 2547 2081 
L 2547 2309 
Q 2547 2688 2317 2895 
Q 2088 3103 1672 3103 
Q 1328 3103 1125 2947 
Q 922 2791 872 2484 
L 575 2484 
L 575 3156 
Q 875 3284 1158 3348 
Q 1441 3413 1709 3413 
Q 2400 3413 2761 3070 
Q 3122 2728 3122 2075 
z
" transform="scale(0.015625)"/>
      <path id="DejaVuSerif-44" d="M 1581 331 
L 2163 331 
Q 3072 331 3558 850 
Q 4044 1369 4044 2338 
Q 4044 3306 3559 3818 
Q 3075 4331 2163 4331 
L 1581 4331 
L 1581 331 
z
M 353 0 
L 353 331 
L 947 331 
L 947 4331 
L 353 4331 
L 353 4666 
L 2209 4666 
Q 3416 4666 4089 4050 
Q 4763 3434 4763 2338 
Q 4763 1238 4088 619 
Q 3413 0 2209 0 
L 353 0 
z
" transform="scale(0.015625)"/>
     </defs>
     <use xlink:href="#DejaVuSerif-43"/>
     <use xlink:href="#DejaVuSerif-6f" transform="translate(76.513672 0)"/>
     <use xlink:href="#DejaVuSerif-6d" transform="translate(136.71875 0)"/>
     <use xlink:href="#DejaVuSerif-70" transform="translate(231.542969 0)"/>
     <use xlink:href="#DejaVuSerif-6f" transform="translate(295.556641 0)"/>
     <use xlink:href="#DejaVuSerif-6e" transform="translate(355.761719 0)"/>
     <use xlink:href="#DejaVuSerif-65" transform="translate(420.166016 0)"/>
     <use xlink:href="#DejaVuSerif-6e" transform="translate(479.345703 0)"/>
     <use xlink:href="#DejaVuSerif-74" transform="translate(543.75 0)"/>
     <use xlink:href="#DejaVuSerif-20" transform="translate(583.935547 0)"/>
     <use xlink:href="#DejaVuSerif-47" transform="translate(615.722656 0)"/>
     <use xlink:href="#DejaVuSerif-61" transform="translate(695.605469 0)"/>
     <use xlink:href="#DejaVuSerif-6d" transform="translate(755.224609 0)"/>
     <use xlink:href="#DejaVuSerif-6d" transform="translate(850.048828 0)"/>
     <use xlink:href="#DejaVuSerif-61" transform="translate(944.873047 0)"/>
     <use xlink:href="#DejaVuSerif-20" transform="translate(1004.492188 0)"/>
     <use xlink:href="#DejaVuSerif-44" transform="translate(1036.279297 0)"/>
     <use xlink:href="#DejaVuSerif-69" transform="translate(1116.455078 0)"/>
     <use xlink:href="#DejaVuSerif-73" transform="translate(1148.4375 0)"/>
     <use xlink:href="#DejaVuSerif-74" transform="translate(1199.755859 0)"/>
     <use xlink:href="#DejaVuSerif-72" transform="translate(1239.941406 0)"/>
     <use xlink:href="#DejaVuSerif-69" transform="translate(1287.744141 0)"/>
     <use xlink:href="#DejaVuSerif-62" transform="translate(1319.726562 0)"/>
     <use xlink:href="#DejaVuSerif-75" transform="translate(1383.740234 0)"/>
     <use xlink:href="#DejaVuSerif-74" transform="translate(1448.144531 0)"/>
     <use xlink:href="#DejaVuSerif-69" transform="translate(1488.330078 0)"/>
     <use xlink:href="#DejaVuSerif-6f" transform="translate(1520.3125 0)"/>
     <use xlink:href="#DejaVuSerif-6e" transform="translate(1580.517578 0)"/>
     <use xlink:href="#DejaVuSerif-73" transform="translate(1644.921875 0)"/>
    </g>
   </g>
   <g id="legend_2">
    <g id="patch_9">
     <path d="M 445.153906 378.274375 
L 554.535156 378.274375 
Q 556.535156 378.274375 556.535156 376.274375 
L 556.535156 347.918125 
Q 556.535156 345.918125 554.535156 345.918125 
L 445.153906 345.918125 
Q 443.153906 345.918125 443.153906 347.918125 
L 443.153906 376.274375 
Q 443.153906 378.274375 445.153906 378.274375 
L 445.153906 378.274375 
z
" style="fill: none; opacity: 0.8; stroke: #ffffff; stroke-linejoin: miter"/>
    </g>
    <g id="line2d_73">
     <path d="M 447.153906 354.016562 
L 457.153906 354.016562 
L 467.153906 354.016562 
" style="fill: none; stroke: #ff69b4; stroke-width: 2; stroke-linecap: square"/>
    </g>
    <g id="text_38">
     <!-- Γ(ν/2=1.5) -->
     <g style="fill: #ffffff" transform="translate(475.153906 357.516562) scale(0.1 -0.1)">
      <defs>
       <path id="DejaVuSerif-393" d="M 1581 331 
L 2328 331 
L 2328 0 
L 353 0 
L 353 331 
L 947 331 
L 947 4331 
L 353 4331 
L 353 4666 
L 4172 4666 
L 4172 3625 
L 3788 3625 
L 3788 4281 
L 1581 4281 
L 1581 331 
z
" transform="scale(0.015625)"/>
       <path id="DejaVuSerif-2f" d="M 1656 4666 
L 2156 4666 
L 500 -594 
L 0 -594 
L 1656 4666 
z
" transform="scale(0.015625)"/>
      </defs>
      <use xlink:href="#DejaVuSerif-393"/>
      <use xlink:href="#DejaVuSerif-28" transform="translate(69.384766 0)"/>
      <use xlink:href="#DejaVuSerif-3bd" transform="translate(108.398438 0)"/>
      <use xlink:href="#DejaVuSerif-2f" transform="translate(169.189453 0)"/>
      <use xlink:href="#DejaVuSerif-32" transform="translate(202.880859 0)"/>
      <use xlink:href="#DejaVuSerif-3d" transform="translate(266.503906 0)"/>
      <use xlink:href="#DejaVuSerif-31" transform="translate(350.292969 0)"/>
      <use xlink:href="#DejaVuSerif-2e" transform="translate(413.916016 0)"/>
      <use xlink:href="#DejaVuSerif-35" transform="translate(445.703125 0)"/>
      <use xlink:href="#DejaVuSerif-29" transform="translate(509.326172 0)"/>
     </g>
    </g>
    <g id="line2d_74">
     <path d="M 447.153906 368.694687 
L 457.153906 368.694687 
L 467.153906 368.694687 
" style="fill: none; stroke: #98fb98; stroke-width: 2; stroke-linecap: square"/>
    </g>
    <g id="text_39">
     <!-- Γ((ν+1)/2=2.0) -->
     <g style="fill: #ffffff" transform="translate(475.153906 372.194687) scale(0.1 -0.1)">
      <defs>
       <path id="DejaVuSerif-2b" d="M 2931 4013 
L 2931 2259 
L 4684 2259 
L 4684 1753 
L 2931 1753 
L 2931 0 
L 2431 0 
L 2431 1753 
L 678 1753 
L 678 2259 
L 2431 2259 
L 2431 4013 
L 2931 4013 
z
" transform="scale(0.015625)"/>
      </defs>
      <use xlink:href="#DejaVuSerif-393"/>
      <use xlink:href="#DejaVuSerif-28" transform="translate(69.384766 0)"/>
      <use xlink:href="#DejaVuSerif-28" transform="translate(108.398438 0)"/>
      <use xlink:href="#DejaVuSerif-3bd" transform="translate(147.412109 0)"/>
      <use xlink:href="#DejaVuSerif-2b" transform="translate(208.203125 0)"/>
      <use xlink:href="#DejaVuSerif-31" transform="translate(291.992188 0)"/>
      <use xlink:href="#DejaVuSerif-29" transform="translate(355.615234 0)"/>
      <use xlink:href="#DejaVuSerif-2f" transform="translate(394.628906 0)"/>
      <use xlink:href="#DejaVuSerif-32" transform="translate(428.320312 0)"/>
      <use xlink:href="#DejaVuSerif-3d" transform="translate(491.943359 0)"/>
      <use xlink:href="#DejaVuSerif-32" transform="translate(575.732422 0)"/>
      <use xlink:href="#DejaVuSerif-2e" transform="translate(639.355469 0)"/>
      <use xlink:href="#DejaVuSerif-30" transform="translate(671.142578 0)"/>
      <use xlink:href="#DejaVuSerif-29" transform="translate(734.765625 0)"/>
     </g>
    </g>
   </g>
  </g>
 </g>
 <defs>
  <clipPath id="p5e624928ad">
   <rect x="51.51" y="22.318125" width="510.025156" height="273.2"/>
  </clipPath>
  <clipPath id="p48d7bb018a">
   <rect x="51.51" y="340.918125" width="510.025156" height="273.2"/>
  </clipPath>
 </defs>
</svg>
